<svg width="36" height="37" viewBox="0 0 36 37" fill="none" xmlns="http://www.w3.org/2000/svg">
<rect x="2.51562" y="0.75" width="10.6048" height="36" fill="#EF8435"/>
<rect x="1.01099" y="1.7688" width="10.2547" height="33.6811" stroke="white" stroke-width="0.350107"/>
<path d="M17.4407 36.4687C22.0666 36.4687 26.5031 34.6168 29.7741 31.3202C33.0452 28.0237 34.8828 23.5526 34.8828 18.8906C34.8828 14.2286 33.0452 9.75755 29.7741 6.46101C26.5031 3.16448 22.0666 1.3125 17.4407 1.3125L17.4407 18.8906L17.4407 36.4687Z" fill="#5C2860"/>
<mask id="path-4-inside-1_3803_196156" fill="white">
<path d="M19.6742 35.0625C24.0041 35.0625 28.1566 33.3291 31.2183 30.2435C34.28 27.1579 36 22.973 36 18.6094C36 14.2457 34.28 10.0608 31.2183 6.97526C28.1566 3.8897 24.0041 2.15625 19.6742 2.15625L19.6742 18.6094L19.6742 35.0625Z"/>
</mask>
<path d="M19.6742 35.0625C24.0041 35.0625 28.1566 33.3291 31.2183 30.2435C34.28 27.1579 36 22.973 36 18.6094C36 14.2457 34.28 10.0608 31.2183 6.97526C28.1566 3.8897 24.0041 2.15625 19.6742 2.15625L19.6742 18.6094L19.6742 35.0625Z" stroke="white" stroke-width="0.655401" mask="url(#path-4-inside-1_3803_196156)"/>
</svg>
