<svg width="46" height="56" viewBox="0 0 46 56" fill="none" xmlns="http://www.w3.org/2000/svg">
<circle cx="11.2991" cy="12.5491" r="6.29911" fill="#EF8435"/>
<circle cx="13.5257" cy="12.5491" r="6.11384" stroke="black" stroke-width="0.370536"/>
<circle cx="11.2991" cy="37.7464" r="6.29911" fill="#EF8435"/>
<path d="M41.6797 6.25C36.1764 6.25 30.8986 8.43616 27.0072 12.3275C23.1158 16.2189 20.9297 21.4968 20.9297 27C20.9297 32.5032 23.1158 37.7811 27.0072 41.6725C30.8986 45.5638 36.1764 47.75 41.6797 47.75L41.6797 27L41.6797 6.25Z" fill="#4AA35C"/>
<mask id="path-5-inside-1_1623_68860" fill="white">
<path d="M45.3895 8.10185C40.3776 8.10185 35.571 10.0928 32.0271 13.6367C28.4831 17.1807 26.4922 21.9873 26.4922 26.9992C26.4922 32.011 28.4831 36.8177 32.0271 40.3616C35.571 43.9055 40.3776 45.8965 45.3895 45.8965L45.3895 26.9992L45.3895 8.10185Z"/>
</mask>
<path d="M45.3895 8.10185C40.3776 8.10185 35.571 10.0928 32.0271 13.6367C28.4831 17.1807 26.4922 21.9873 26.4922 26.9992C26.4922 32.011 28.4831 36.8177 32.0271 40.3616C35.571 43.9055 40.3776 45.8965 45.3895 45.8965L45.3895 26.9992L45.3895 8.10185Z" stroke="#333333" stroke-width="0.741071" mask="url(#path-5-inside-1_1623_68860)"/>
<circle cx="12.7835" cy="37.7464" r="6.11384" stroke="black" stroke-width="0.370536"/>
</svg>
