<svg width="126" height="118" viewBox="0 0 126 118" fill="none" xmlns="http://www.w3.org/2000/svg">
<rect x="4.46875" width="28.3314" height="95.5949" fill="#EF8435"/>
<rect x="0.375" y="2.61523" width="27.5814" height="89.6171" stroke="white" stroke-width="0.75"/>
<path d="M74.9281 20.1641L117.22 93.5406H32.6363L74.9281 20.1641Z" fill="#EBBE52"/>
<path d="M41.6313 88.6863L79.4 23.1572L117.169 88.6863H41.6313Z" stroke="white" stroke-width="0.75"/>
<ellipse cx="54.4258" cy="16.4304" rx="16.4024" ry="16.4304" fill="#4AA35C"/>
<path d="M71.9441 14.5633C71.9441 22.3999 65.6023 28.7516 57.7806 28.7516C49.959 28.7516 43.6172 22.3999 43.6172 14.5633C43.6172 6.72671 49.959 0.375 57.7806 0.375C65.6023 0.375 71.9441 6.72671 71.9441 14.5633Z" stroke="white" stroke-width="0.75"/>
<ellipse cx="107.363" cy="83.6452" rx="16.4024" ry="16.4304" fill="#5C2860"/>
<path d="M125.624 83.2723C125.624 91.1089 119.282 97.4606 111.46 97.4606C103.639 97.4606 97.2969 91.1089 97.2969 83.2723C97.2969 75.4357 103.639 69.084 111.46 69.084C119.282 69.084 125.624 75.4357 125.624 83.2723Z" stroke="white" stroke-width="0.75"/>
</svg>
