<svg width="631" height="457" viewBox="0 0 631 457" fill="none" xmlns="http://www.w3.org/2000/svg">
<path d="M48.3846 431.883L115.119 387.424L43.249 351.861L48.3846 431.883Z" fill="#5C2860"/>
<path d="M38.4852 357.546L42.8941 426.244L100.185 388.077L38.4852 357.546Z" stroke="white" stroke-width="0.873515"/>
<path d="M272.637 353.528H260.915C240.88 353.528 224.638 369.77 224.638 389.806V425.32H236.359C256.395 425.32 272.637 409.078 272.637 389.042V353.528Z" fill="#4AA35C"/>
<path d="M268.74 348.562H257.6C237.914 348.562 221.955 364.521 221.955 384.207V419.089H233.095C252.781 419.089 268.74 403.131 268.74 383.445V348.562Z" stroke="#FDFAF1" stroke-width="1.1139"/>
<path d="M188.844 353.528H200.565C220.601 353.528 236.843 369.77 236.843 389.806V425.32H225.121C205.086 425.32 188.844 409.078 188.844 389.042V353.528Z" fill="#EBBE52"/>
<path d="M188.844 353.528H200.565C220.601 353.528 236.843 369.77 236.843 389.806V425.32H225.121C205.086 425.32 188.844 409.078 188.844 389.042V353.528Z" fill="#EBBE52"/>
<path d="M185.255 364.084H190.109C211.968 364.084 229.689 381.805 229.689 403.665V431.385H224.836C202.976 431.385 185.255 413.664 185.255 391.804V364.084Z" stroke="#FDFAF1" stroke-width="1.2369"/>
<ellipse cx="39.0427" cy="39.3401" rx="39.0427" ry="39.3401" transform="matrix(-1 0 0 1 445.168 350.664)" fill="#EF8435"/>
<path d="M362.131 390.003C362.131 409.889 378.129 426.002 397.854 426.002C417.579 426.002 433.577 409.889 433.577 390.003C433.577 370.117 417.579 354.003 397.854 354.003C378.129 354.003 362.131 370.117 362.131 390.003Z" stroke="#FDFAF1" stroke-width="1.12724"/>
<circle cx="388.445" cy="220.869" r="1.125" fill="#FDFAF1" stroke="#FDFAF1" stroke-width="1.75"/>
<path d="M406.57 220.869C406.57 221.49 406.067 221.994 405.445 221.994C404.824 221.994 404.32 221.49 404.32 220.869C404.32 220.248 404.824 219.744 405.445 219.744C406.067 219.744 406.57 220.248 406.57 220.869Z" fill="#FDFAF1" stroke="#FDFAF1" stroke-width="1.75"/>
<path d="M423.57 220.869C423.57 221.49 423.067 221.994 422.445 221.994C421.824 221.994 421.32 221.49 421.32 220.869C421.32 220.248 421.824 219.744 422.445 219.744C423.067 219.744 423.57 220.248 423.57 220.869Z" fill="#FDFAF1" stroke="#FDFAF1" stroke-width="1.75"/>
<path d="M440.57 220.869C440.57 221.49 440.067 221.994 439.445 221.994C438.824 221.994 438.32 221.49 438.32 220.869C438.32 220.248 438.824 219.744 439.445 219.744C440.067 219.744 440.57 220.248 440.57 220.869Z" fill="#FDFAF1" stroke="#FDFAF1" stroke-width="1.75"/>
<path d="M221.398 321.004L221.398 208.004C221.398 196.958 230.353 188.004 241.398 188.004L243.398 188.004C254.444 188.004 263.398 196.958 263.398 208.004L263.398 260.777C263.398 270.249 271.077 277.927 280.548 277.927V277.927C290.098 277.927 297.808 270.127 297.697 260.578L297.074 206.859C296.977 198.556 303.682 191.773 311.985 191.773V191.773C320.222 191.773 326.898 198.45 326.898 206.686L326.898 265.273C326.898 274.938 334.733 282.773 344.398 282.773V282.773C354.063 282.773 361.898 274.938 361.898 265.273L361.898 211.773C361.898 200.727 370.853 191.773 381.898 191.773L479.398 191.773" stroke="#FDFAF1" stroke-width="1.5" stroke-linecap="round" stroke-linejoin="round"/>
<rect x="516.672" y="341.53" width="29.7359" height="100.606" fill="#EBBE52"/>
<rect x="511.637" y="340.074" width="28.9926" height="99.8623" stroke="white" stroke-width="0.743243"/>
<path d="M592.362 341.531C586.327 341.531 580.351 342.737 574.775 345.081C569.2 347.425 564.134 350.861 559.866 355.192C555.599 359.524 552.214 364.666 549.904 370.325C547.595 375.984 546.406 382.05 546.406 388.175C546.406 394.3 547.595 400.366 549.904 406.025C552.214 411.684 555.599 416.826 559.866 421.158C564.134 425.489 569.2 428.925 574.775 431.269C580.351 433.613 586.327 434.819 592.362 434.819L592.362 388.175L592.362 341.531Z" fill="#4AA35C"/>
<mask id="path-18-inside-1_2495_310548" fill="white">
<path d="M598.674 337.872C592.639 337.872 586.663 339.079 581.088 341.423C575.512 343.767 570.446 347.203 566.179 351.534C561.911 355.866 558.526 361.008 556.217 366.667C553.907 372.326 552.719 378.391 552.719 384.517C552.719 390.642 553.907 396.708 556.217 402.367C558.526 408.026 561.911 413.168 566.179 417.499C570.446 421.831 575.512 425.266 581.088 427.611C586.663 429.955 592.639 431.161 598.674 431.161L598.674 384.517L598.674 337.872Z"/>
</mask>
<path d="M598.674 337.872C592.639 337.872 586.663 339.079 581.088 341.423C575.512 343.767 570.446 347.203 566.179 351.534C561.911 355.866 558.526 361.008 556.217 366.667C553.907 372.326 552.719 378.391 552.719 384.517C552.719 390.642 553.907 396.708 556.217 402.367C558.526 408.026 561.911 413.168 566.179 417.499C570.446 421.831 575.512 425.266 581.088 427.611C586.663 429.955 592.639 431.161 598.674 431.161L598.674 384.517L598.674 337.872Z" stroke="white" stroke-width="1.48649" mask="url(#path-18-inside-1_2495_310548)"/>
<path d="M479 192V192C485.904 192 491.5 186.404 491.5 179.5L491.5 31C491.5 14.4315 504.931 0.999999 521.5 0.999998L629 0.999993" stroke="#FDFAF1" stroke-width="1.5" stroke-linecap="round" stroke-linejoin="round"/>
</svg>
