<svg width="434" height="284" viewBox="0 0 434 284" fill="none" xmlns="http://www.w3.org/2000/svg">
<circle cx="42.2615" cy="42.2615" r="42.2615" transform="matrix(-1 0 0 1 151.637 151.738)" fill="#EBBE52"/>
<path d="M220.321 43.3348L168.778 104.762L247.747 118.686L220.321 43.3348Z" fill="#5C2860"/>
<path d="M250.72 111.891L227.175 47.2024L182.925 99.9371L250.72 111.891Z" stroke="white" stroke-width="0.873515"/>
<circle cx="101.148" cy="192.295" r="41.5" stroke="white"/>
<rect x="0.578756" y="1.33852" width="359.104" height="281.653" rx="27.3806" stroke="white" stroke-width="0.860637"/>
<path d="M419.793 159.96C421.546 166.504 421.994 173.33 421.109 180.048C420.225 186.765 418.026 193.243 414.638 199.111C411.25 204.979 406.74 210.122 401.365 214.246C395.989 218.371 389.854 221.397 383.309 223.15C376.765 224.904 369.939 225.351 363.221 224.467C356.504 223.582 350.026 221.384 344.158 217.996C338.291 214.608 333.147 210.098 329.023 204.722C324.898 199.347 321.873 193.212 320.119 186.667L369.956 173.313L419.793 159.96Z" fill="#EF8435"/>
<mask id="path-7-inside-1_2226_269279" fill="white">
<path d="M415.143 158.094C416.795 164.258 417.216 170.686 416.383 177.012C415.55 183.339 413.479 189.439 410.289 194.965C407.099 200.491 402.851 205.334 397.789 209.219C392.726 213.103 386.949 215.952 380.785 217.604C374.622 219.255 368.193 219.677 361.867 218.844C355.541 218.011 349.441 215.94 343.915 212.75C338.389 209.559 333.545 205.312 329.661 200.249C325.776 195.187 322.927 189.409 321.276 183.246L368.209 170.67L415.143 158.094Z"/>
</mask>
<path d="M415.143 158.094C416.795 164.258 417.216 170.686 416.383 177.012C415.55 183.339 413.479 189.439 410.289 194.965C407.099 200.491 402.851 205.334 397.789 209.219C392.726 213.103 386.949 215.952 380.785 217.604C374.622 219.255 368.193 219.677 361.867 218.844C355.541 218.011 349.441 215.94 343.915 212.75C338.389 209.559 333.545 205.312 329.661 200.249C325.776 195.187 322.927 189.409 321.276 183.246L368.209 170.67L415.143 158.094Z" stroke="white" stroke-width="2.00368" mask="url(#path-7-inside-1_2226_269279)"/>
<circle cx="28.5525" cy="28.5525" r="28.0516" transform="matrix(-0.965926 0.258819 0.258819 0.965926 391.441 143.184)" fill="#5C2860" stroke="white" stroke-width="1.00184"/>
</svg>
