<svg width="1000" height="331" viewBox="0 0 1000 331" fill="none" xmlns="http://www.w3.org/2000/svg">
<rect width="106" height="56" transform="translate(66 19.3945) rotate(-4)" fill="#EF8435"/>
<path d="M95.376 52.4263L94.9575 46.4409L88.9721 46.8594L88.8326 44.8643L94.818 44.4458L94.3994 38.4604L96.3946 38.3209L96.8131 44.3062L102.798 43.8877L102.938 45.8828L96.9526 46.3014L97.3712 52.2868L95.376 52.4263Z" fill="white"/>
<path d="M121.093 49.1244L120.383 38.9674L122.53 38.8172L123.117 47.2037L127.471 46.8992L127.595 48.6697L121.093 49.1244ZM131.16 48.565C130.674 48.599 130.235 48.5449 129.843 48.4029C129.451 48.2576 129.132 48.0257 128.887 47.7072C128.645 47.3852 128.507 46.973 128.472 46.4704C128.442 46.0472 128.495 45.6863 128.63 45.3878C128.765 45.0893 128.961 44.8431 129.216 44.6491C129.472 44.4551 129.767 44.3016 130.101 44.1885C130.439 44.0752 130.795 43.9872 131.169 43.9245C131.609 43.8472 131.963 43.7793 132.231 43.7206C132.5 43.6587 132.692 43.5821 132.808 43.4909C132.925 43.3997 132.978 43.2731 132.966 43.1111L132.964 43.0813C132.942 42.7672 132.826 42.5311 132.616 42.3731C132.409 42.2148 132.125 42.1482 131.764 42.1734C131.384 42.2 131.088 42.3055 130.875 42.4898C130.661 42.6709 130.527 42.8896 130.472 43.1459L128.507 43.1239C128.574 42.6541 128.741 42.2403 129.008 41.8828C129.275 41.5219 129.632 41.2344 130.079 41.0204C130.529 40.8029 131.058 40.6729 131.667 40.6303C132.09 40.6007 132.498 40.622 132.892 40.6942C133.289 40.7661 133.645 40.8957 133.961 41.0829C134.28 41.2699 134.538 41.521 134.736 41.8361C134.934 42.1478 135.049 42.5302 135.08 42.9832L135.44 48.1212L133.436 48.2613L133.362 47.2049L133.303 47.2091C133.197 47.4557 133.048 47.6771 132.856 47.8733C132.663 48.0661 132.427 48.2239 132.146 48.3465C131.866 48.4658 131.537 48.5386 131.16 48.565ZM131.663 47.0646C131.974 47.0429 132.244 46.9625 132.473 46.8235C132.703 46.6812 132.878 46.4995 132.998 46.2785C133.119 46.0574 133.17 45.8129 133.151 45.5451L133.095 44.7367C133.032 44.7843 132.944 44.8304 132.831 44.8748C132.72 44.9158 132.595 44.9561 132.455 44.9958C132.315 45.0322 132.174 45.0669 132.034 45.1C131.893 45.1298 131.765 45.157 131.651 45.1816C131.405 45.2353 131.193 45.3083 131.013 45.4006C130.834 45.4929 130.697 45.6104 130.604 45.7531C130.511 45.8926 130.471 46.0615 130.485 46.2598C130.505 46.5475 130.625 46.7601 130.844 46.8976C131.066 47.0316 131.339 47.0872 131.663 47.0646ZM137.119 48.0038L136.408 37.8468L138.521 37.699L138.788 41.5178L138.853 41.5133C138.931 41.3019 139.05 41.0842 139.211 40.8603C139.374 40.6329 139.593 40.4382 139.867 40.2762C140.145 40.1106 140.497 40.0129 140.923 39.983C141.479 39.9442 142.002 40.0538 142.491 40.312C142.981 40.5668 143.387 40.9753 143.708 41.5376C144.03 42.0965 144.221 42.8124 144.282 43.6853C144.342 44.535 144.255 45.2621 144.021 45.8665C143.791 46.4674 143.451 46.9347 143.003 47.2684C142.557 47.5985 142.045 47.7839 141.467 47.8243C141.057 47.853 140.703 47.8096 140.406 47.6942C140.112 47.5785 139.867 47.4245 139.671 47.2322C139.475 47.0367 139.321 46.8364 139.21 46.6315L139.116 46.6381L139.202 47.8581L137.119 48.0038ZM138.92 44.0503C138.952 44.5033 139.042 44.894 139.192 45.2224C139.341 45.5509 139.541 45.801 139.792 45.9728C140.043 46.1413 140.339 46.2137 140.68 46.1899C141.023 46.1658 141.308 46.0513 141.533 45.8462C141.757 45.6377 141.919 45.3606 142.018 45.0148C142.12 44.6655 142.155 44.2693 142.124 43.8263C142.093 43.3865 142.005 43.004 141.859 42.6786C141.714 42.3532 141.515 42.1046 141.264 41.9328C141.013 41.761 140.714 41.6872 140.366 41.7115C140.023 41.7355 139.738 41.8468 139.513 42.0453C139.291 42.2435 139.128 42.514 139.026 42.8568C138.924 43.1995 138.889 43.5973 138.92 44.0503ZM149.44 47.2917C148.656 47.3465 147.97 47.235 147.383 46.9571C146.798 46.6757 146.334 46.253 145.988 45.6891C145.643 45.1218 145.442 44.4365 145.386 43.633C145.331 42.8494 145.435 42.1511 145.698 41.538C145.961 40.9249 146.357 40.4337 146.886 40.0645C147.418 39.695 148.058 39.4841 148.805 39.4319C149.308 39.3967 149.781 39.445 150.226 39.5768C150.673 39.7049 151.07 39.9181 151.417 40.2161C151.767 40.5139 152.049 40.8995 152.265 41.3728C152.481 41.8428 152.611 42.4019 152.657 43.0499L152.697 43.6301L146.265 44.0799L146.173 42.7706L150.617 42.4599C150.596 42.1557 150.511 41.8909 150.362 41.6654C150.213 41.4399 150.017 41.2692 149.773 41.1534C149.532 41.034 149.258 40.9851 148.95 41.0066C148.63 41.029 148.35 41.1233 148.113 41.2894C147.878 41.452 147.7 41.6621 147.579 41.9198C147.457 42.1742 147.405 42.4519 147.423 42.753L147.51 43.9979C147.536 44.3748 147.628 44.6956 147.786 44.9603C147.948 45.2248 148.163 45.4224 148.431 45.5532C148.699 45.6839 149.01 45.7369 149.364 45.7122C149.599 45.6958 149.811 45.6477 150.002 45.5679C150.192 45.4881 150.352 45.3773 150.482 45.2353C150.612 45.0934 150.706 44.9239 150.765 44.7271L152.728 44.7194C152.662 45.1958 152.487 45.62 152.204 45.992C151.924 46.3604 151.55 46.6591 151.081 46.8879C150.615 47.1132 150.068 47.2478 149.44 47.2917ZM155.707 36.4973L156.417 46.6543L154.304 46.802L153.594 36.645L155.707 36.4973Z" fill="white"/>
<g clip-path="url(#clip0_2669_319168)">
<rect width="76" height="31" transform="translate(717.164) rotate(4)" fill="#EF8435"/>
<rect width="76" height="31" transform="translate(717.164) rotate(4)" fill="#EF8435"/>
<path d="M739.005 22.5784L739.715 12.4214L746.44 12.8916L746.317 14.6622L741.739 14.3421L741.57 16.7623L745.701 17.0512L745.577 18.8217L741.446 18.5328L741.153 22.7285L739.005 22.5784ZM747.135 23.1469L747.668 15.5291L749.78 15.6768L749.248 23.2946L747.135 23.1469ZM748.798 14.6213C748.484 14.5994 748.221 14.4764 748.011 14.2524C747.804 14.0253 747.711 13.7646 747.732 13.4703C747.752 13.1794 747.88 12.9375 748.117 12.7447C748.356 12.5488 748.633 12.4618 748.947 12.4838C749.261 12.5058 749.522 12.6303 749.728 12.8574C749.939 13.0814 750.034 13.3389 750.013 13.6299C749.993 13.9241 749.863 14.1692 749.623 14.3651C749.387 14.5579 749.112 14.6433 748.798 14.6213ZM750.94 23.413L751.473 15.7952L753.521 15.9384L753.428 17.2676L753.508 17.2731C753.679 16.81 753.938 16.4692 754.282 16.2508C754.626 16.029 755.012 15.933 755.438 15.9628C755.544 15.9702 755.658 15.9848 755.779 16.0066C755.9 16.0284 756.007 16.0541 756.098 16.0837L755.966 17.9584C755.869 17.9217 755.734 17.8856 755.56 17.8502C755.387 17.8148 755.227 17.7921 755.082 17.7819C754.771 17.7601 754.488 17.8085 754.234 17.927C753.984 18.0423 753.779 18.2141 753.62 18.4422C753.465 18.6705 753.376 18.9401 753.354 19.2509L753.053 23.5607L750.94 23.413ZM763.374 18.8103L761.431 18.794C761.41 18.6264 761.349 18.4726 761.249 18.3328C761.15 18.1896 761.013 18.0721 760.84 17.9802C760.671 17.8853 760.464 17.8293 760.219 17.8122C759.892 17.7893 759.611 17.8394 759.376 17.9626C759.142 18.0824 759.017 18.2564 759.001 18.4845C758.988 18.6664 759.05 18.8252 759.187 18.961C759.324 19.0968 759.566 19.2151 759.915 19.3159L761.274 19.6901C762.004 19.8939 762.539 20.1772 762.879 20.5399C763.219 20.9026 763.37 21.3583 763.332 21.9072C763.297 22.4064 763.119 22.8342 762.798 23.1906C762.481 23.5472 762.06 23.8134 761.536 23.9894C761.016 24.1624 760.425 24.2257 759.764 24.1795C758.755 24.109 757.967 23.8428 757.398 23.3811C756.832 22.9162 756.523 22.3166 756.472 21.582L758.557 21.6182C758.599 21.9301 758.734 22.1755 758.964 22.3544C759.195 22.5299 759.498 22.6309 759.875 22.6573C760.246 22.6832 760.548 22.6329 760.783 22.5064C761.021 22.3769 761.15 22.1982 761.169 21.9703C761.179 21.7783 761.109 21.6156 760.959 21.4821C760.809 21.3454 760.571 21.2324 760.245 21.1432L758.944 20.7881C758.211 20.5873 757.675 20.2906 757.337 19.8982C757.002 19.506 756.855 19.0256 756.895 18.4569C756.929 17.9675 757.091 17.5552 757.38 17.2199C757.672 16.8849 758.067 16.6384 758.563 16.4804C759.062 16.3226 759.638 16.2665 760.289 16.312C761.251 16.3793 761.994 16.6356 762.518 17.0809C763.045 17.5264 763.33 18.1028 763.374 18.8103ZM769.081 17.0265L768.971 18.6135L764.383 18.2927L764.494 16.7057L769.081 17.0265ZM765.663 14.9535L767.776 15.1012L767.279 22.2032C767.266 22.3982 767.285 22.5524 767.337 22.6657C767.389 22.7756 767.466 22.8558 767.569 22.9062C767.675 22.9568 767.799 22.9871 767.941 22.997C768.041 23.004 768.14 23.0026 768.241 22.993C768.341 22.9801 768.418 22.9706 768.472 22.9644L768.694 24.5597C768.586 24.5854 768.435 24.613 768.24 24.6426C768.045 24.6755 767.81 24.6873 767.535 24.678C767.024 24.6622 766.583 24.5633 766.21 24.381C765.841 24.1991 765.562 23.937 765.373 23.5949C765.184 23.2528 765.109 22.8322 765.147 22.3332L765.663 14.9535Z" fill="white"/>
<rect x="792.977" y="5.30078" width="1" height="31" transform="rotate(4 792.977 5.30078)" fill="#BF6A2A"/>
<rect width="91" height="31" transform="translate(793.977 5.37109) rotate(4)" fill="#EF8435"/>
<rect width="91" height="31" transform="translate(793.977 5.37109) rotate(4)" fill="#EF8435"/>
<path d="M816.242 17.7725L818.891 17.9577L821.211 24.9775L821.33 24.9858L824.604 18.3572L827.253 18.5424L826.542 28.6994L824.459 28.5538L824.922 21.9428L824.837 21.9369L821.75 28.3145L820.332 28.2153L818.164 21.4453L818.079 21.4394L817.615 28.0752L815.532 27.9295L816.242 17.7725ZM828.272 28.8204L828.805 21.2026L830.917 21.3503L830.385 28.9681L828.272 28.8204ZM829.935 20.2948C829.62 20.2729 829.358 20.1499 829.148 19.9259C828.941 19.6988 828.848 19.4381 828.869 19.1438C828.889 18.8529 829.017 18.611 829.253 18.4182C829.493 18.2223 829.77 18.1353 830.084 18.1573C830.398 18.1793 830.659 18.3038 830.865 18.5309C831.076 18.7549 831.171 19.0124 831.15 19.3033C831.13 19.5976 831 19.8427 830.76 20.0386C830.524 20.2314 830.249 20.3168 829.935 20.2948ZM834.875 29.4067C834.297 29.3663 833.783 29.1808 833.335 28.8504C832.889 28.5169 832.55 28.0497 832.316 27.4486C832.086 26.8444 832.001 26.1174 832.06 25.2677C832.121 24.3948 832.312 23.6789 832.634 23.12C832.956 22.5577 833.36 22.1491 833.846 21.894C834.336 21.6359 834.86 21.5264 835.419 21.5654C835.845 21.5953 836.196 21.6928 836.47 21.8582C836.748 22.0205 836.967 22.2152 837.127 22.4424C837.29 22.6665 837.411 22.8842 837.49 23.0957L837.554 23.1002L837.821 19.2814L839.929 19.4288L839.219 29.5858L837.136 29.4402L837.221 28.2201L837.132 28.2139C837.018 28.4186 836.863 28.6187 836.666 28.8143C836.473 29.0068 836.228 29.1608 835.931 29.2762C835.637 29.3919 835.285 29.4354 834.875 29.4067ZM835.663 27.7723C836.003 27.7961 836.297 27.7236 836.545 27.5549C836.796 27.3831 836.996 27.1329 837.146 26.8045C837.298 26.4762 837.39 26.0856 837.422 25.6327C837.454 25.1797 837.418 24.7819 837.316 24.4391C837.214 24.0964 837.05 23.8258 836.825 23.6273C836.599 23.4288 836.316 23.3177 835.976 23.2939C835.629 23.2696 835.329 23.3433 835.078 23.5152C834.827 23.687 834.628 23.9356 834.483 24.261C834.337 24.5863 834.249 24.9689 834.218 25.4086C834.187 25.8517 834.221 26.2478 834.319 26.5969C834.421 26.9429 834.583 27.22 834.805 27.4282C835.029 27.6333 835.315 27.748 835.663 27.7723ZM843.754 30.0276C843.176 29.9871 842.662 29.8017 842.213 29.4713C841.768 29.1378 841.429 28.6705 841.195 28.0694C840.965 27.4652 840.879 26.7383 840.939 25.8886C841 25.0157 841.191 24.2998 841.513 23.7408C841.834 23.1786 842.238 22.7699 842.725 22.5149C843.214 22.2567 843.739 22.1472 844.298 22.1863C844.724 22.2161 845.074 22.3137 845.349 22.4791C845.626 22.6414 845.845 22.8361 846.005 23.0632C846.169 23.2873 846.29 23.5051 846.368 23.7166L846.433 23.7211L846.7 19.9023L848.808 20.0497L848.097 30.2067L846.014 30.061L846.1 28.841L846.011 28.8348C845.897 29.0394 845.741 29.2396 845.545 29.4351C845.352 29.6276 845.107 29.7816 844.81 29.8971C844.516 30.0127 844.164 30.0562 843.754 30.0276ZM844.541 28.3931C844.882 28.4169 845.176 28.3445 845.424 28.1757C845.675 28.0039 845.875 27.7538 846.024 27.4253C846.177 27.0971 846.269 26.7065 846.301 26.2535C846.332 25.8006 846.297 25.4027 846.195 25.06C846.092 24.7173 845.929 24.4467 845.703 24.2482C845.478 24.0497 845.195 23.9385 844.854 23.9147C844.507 23.8904 844.208 23.9642 843.957 24.136C843.706 24.3078 843.507 24.5564 843.361 24.8818C843.216 25.2072 843.128 25.5898 843.097 26.0295C843.066 26.4726 843.1 26.8686 843.198 27.2177C843.3 27.5638 843.462 27.8409 843.683 28.0491C843.908 28.2542 844.194 28.3689 844.541 28.3931ZM852.657 20.3189L851.947 30.4759L849.834 30.3282L850.545 20.1711L852.657 20.3189ZM857.101 30.9858C856.317 30.931 855.654 30.7251 855.111 30.3682C854.571 30.0082 854.17 29.5249 853.906 28.9184C853.643 28.3086 853.54 27.602 853.596 26.7986C853.651 26.015 853.851 25.3379 854.197 24.7673C854.542 24.1968 855.003 23.7655 855.578 23.4735C856.156 23.1817 856.819 23.0619 857.567 23.1142C858.069 23.1493 858.531 23.263 858.953 23.4553C859.378 23.6445 859.742 23.9108 860.044 24.2542C860.348 24.5978 860.575 25.019 860.723 25.5177C860.871 26.0132 860.922 26.5849 860.877 27.2329L860.836 27.8132L854.404 27.3634L854.495 26.0541L858.939 26.3648C858.96 26.0606 858.913 25.7866 858.797 25.5426C858.681 25.2986 858.511 25.1022 858.285 24.9536C858.063 24.8018 857.799 24.7152 857.491 24.6937C857.17 24.6713 856.881 24.7258 856.622 24.8572C856.368 24.9856 856.162 25.1689 856.006 25.4072C855.85 25.6421 855.76 25.9099 855.735 26.2106L855.648 27.4554C855.622 27.8323 855.669 28.1629 855.788 28.447C855.911 28.7314 856.097 28.9569 856.344 29.1238C856.591 29.2906 856.892 29.3864 857.246 29.4111C857.481 29.4275 857.698 29.4095 857.898 29.357C858.097 29.3045 858.271 29.217 858.419 29.0944C858.567 28.9719 858.685 28.8173 858.771 28.6306L860.716 28.8962C860.584 29.3588 860.352 29.7545 860.02 30.0835C859.691 30.4094 859.279 30.653 858.782 30.8143C858.29 30.9726 857.729 31.0297 857.101 30.9858Z" fill="white"/>
<rect x="884.758" y="11.7188" width="1" height="31" transform="rotate(4 884.758 11.7188)" fill="#BF6A2A"/>
<rect width="74" height="31" transform="translate(885.75 11.7891) rotate(4)" fill="#EF8435"/>
<rect width="74" height="31" transform="translate(885.75 11.7891) rotate(4)" fill="#EF8435"/>
<path d="M907.426 34.3559L908.136 24.1988L910.283 24.349L909.697 32.7355L914.051 33.04L913.927 34.8105L907.426 34.3559ZM917.472 35.2029C916.986 35.1689 916.559 35.0543 916.19 34.8591C915.822 34.6606 915.539 34.3866 915.341 34.0372C915.146 33.6847 915.066 33.2572 915.102 32.7546C915.131 32.3314 915.234 31.9814 915.409 31.7046C915.585 31.4278 915.813 31.2112 916.093 31.0547C916.373 30.8982 916.686 30.7872 917.033 30.7217C917.383 30.6565 917.748 30.6189 918.127 30.6089C918.573 30.5936 918.934 30.5755 919.207 30.5548C919.482 30.5308 919.683 30.4817 919.811 30.4076C919.939 30.3335 920.009 30.2155 920.02 30.0535L920.022 30.0237C920.044 29.7096 919.962 29.4597 919.775 29.2739C919.592 29.0883 919.321 28.9829 918.96 28.9577C918.58 28.9311 918.272 28.9943 918.035 29.1472C917.799 29.2968 917.635 29.4947 917.545 29.7409L915.602 29.4455C915.734 28.9896 915.957 28.6031 916.271 28.2862C916.586 27.966 916.98 27.7311 917.452 27.5814C917.928 27.4286 918.47 27.3735 919.078 27.416C919.501 27.4456 919.903 27.5235 920.283 27.6497C920.666 27.7762 921.001 27.9541 921.287 28.1835C921.577 28.413 921.798 28.6976 921.95 29.0372C922.103 29.3735 922.163 29.7681 922.131 30.221L921.772 35.3591L919.768 35.219L919.842 34.1626L919.783 34.1584C919.644 34.3879 919.465 34.5864 919.248 34.7539C919.03 34.9182 918.774 35.0414 918.479 35.1238C918.185 35.2029 917.849 35.2293 917.472 35.2029ZM918.179 33.7871C918.49 33.8089 918.769 33.7669 919.015 33.6612C919.262 33.5522 919.461 33.3966 919.611 33.1945C919.761 32.9924 919.846 32.7574 919.865 32.4896L919.921 31.6812C919.852 31.7196 919.758 31.7529 919.64 31.7812C919.525 31.8064 919.396 31.8289 919.252 31.8487C919.108 31.8652 918.964 31.8801 918.82 31.8933C918.676 31.9032 918.546 31.9123 918.429 31.9208C918.179 31.9398 917.958 31.9825 917.767 32.0489C917.577 32.1153 917.425 32.2127 917.313 32.3411C917.202 32.4662 917.139 32.6279 917.125 32.8263C917.105 33.114 917.194 33.3411 917.391 33.5078C917.592 33.6714 917.855 33.7645 918.179 33.7871ZM930.13 30.4714L928.188 30.4552C928.166 30.2875 928.105 30.1338 928.006 29.9939C927.906 29.8507 927.77 29.7332 927.597 29.6414C927.427 29.5464 927.22 29.4904 926.975 29.4733C926.648 29.4504 926.367 29.5006 926.133 29.6237C925.898 29.7435 925.773 29.9175 925.757 30.1457C925.745 30.3275 925.807 30.4863 925.943 30.6222C926.08 30.758 926.323 30.8763 926.671 30.9771L928.03 31.3512C928.76 31.5551 929.295 31.8384 929.635 32.201C929.976 32.5637 930.126 33.0195 930.088 33.5683C930.053 34.0676 929.875 34.4954 929.555 34.8517C929.237 35.2083 928.817 35.4746 928.293 35.6506C927.772 35.8235 927.182 35.8868 926.52 35.8406C925.512 35.7701 924.723 35.504 924.154 35.0422C923.588 34.5774 923.28 33.9777 923.228 33.2431L925.314 33.2793C925.355 33.5912 925.491 33.8366 925.721 34.0155C925.951 34.1911 926.255 34.292 926.632 34.3184C927.002 34.3443 927.305 34.294 927.539 34.1676C927.778 34.038 927.906 33.8593 927.926 33.6314C927.936 33.4394 927.866 33.2767 927.716 33.1433C927.566 33.0065 927.328 32.8935 927.002 32.8043L925.701 32.4492C924.967 32.2484 924.432 31.9518 924.094 31.5593C923.759 31.1671 923.611 30.6867 923.651 30.118C923.685 29.6287 923.847 29.2164 924.136 28.8811C924.429 28.546 924.823 28.2995 925.319 28.1415C925.819 27.9837 926.394 27.9276 927.045 27.9731C928.008 28.0404 928.751 28.2967 929.274 28.742C929.801 29.1875 930.087 29.764 930.13 30.4714ZM935.838 28.6876L935.727 30.2747L931.139 29.9539L931.25 28.3668L935.838 28.6876ZM932.42 26.6146L934.532 26.7623L934.036 33.8643C934.022 34.0594 934.041 34.2135 934.093 34.3268C934.145 34.4368 934.223 34.5169 934.325 34.5673C934.431 34.6179 934.556 34.6482 934.698 34.6582C934.797 34.6651 934.897 34.6638 934.997 34.6542C935.098 34.6413 935.175 34.6317 935.228 34.6255L935.451 36.2209C935.343 36.2465 935.191 36.2742 934.996 36.3037C934.801 36.3366 934.566 36.3484 934.291 36.3391C933.781 36.3234 933.339 36.2244 932.966 36.0422C932.597 35.8602 932.318 35.5981 932.129 35.256C931.941 34.9139 931.865 34.4933 931.903 33.9943L932.42 26.6146Z" fill="white"/>
</g>
<rect x="2.70312" y="289" width="125" height="31" rx="4" transform="rotate(5 2.70312 289)" fill="#BF6A2A"/>
<g clip-path="url(#clip1_2669_319168)">
<path fill-rule="evenodd" clip-rule="evenodd" d="M29.9693 306.274L25.9845 305.926L26.3331 301.941C26.3652 301.574 26.0939 301.251 25.7271 301.219C25.3603 301.187 25.037 301.458 25.0049 301.825L24.6562 305.81L20.6715 305.461C20.3047 305.429 19.9813 305.7 19.9492 306.067C19.9171 306.434 20.1885 306.757 20.5553 306.789L24.54 307.138L24.1914 311.123C24.1593 311.489 24.4307 311.813 24.7974 311.845C25.1642 311.877 25.4876 311.606 25.5197 311.239L25.8683 307.254L29.8531 307.603C30.2199 307.635 30.5432 307.363 30.5753 306.997C30.6074 306.63 30.3361 306.306 29.9693 306.274Z" fill="white"/>
</g>
<path d="M40.0734 313.35L40.9608 303.207L45.022 303.562C45.7682 303.628 46.3809 303.793 46.8602 304.057C47.3394 304.322 47.6873 304.662 47.9038 305.077C48.1207 305.489 48.2068 305.949 48.1624 306.457C48.1277 306.853 48.018 307.195 47.8332 307.481C47.6487 307.765 47.4094 307.99 47.1153 308.157C46.8248 308.321 46.4994 308.428 46.1392 308.476L46.1305 308.575C46.5154 308.625 46.8674 308.766 47.1866 308.997C47.509 309.228 47.7601 309.534 47.9396 309.916C48.1194 310.294 48.1875 310.733 48.1439 311.231C48.0968 311.77 47.9211 312.238 47.6166 312.638C47.3158 313.034 46.8955 313.331 46.3558 313.53C45.816 313.729 45.1664 313.796 44.407 313.729L40.0734 313.35ZM42.3713 311.784L44.1196 311.937C44.7172 311.99 45.163 311.914 45.457 311.71C45.7513 311.503 45.9152 311.208 45.9487 310.825C45.9732 310.544 45.9272 310.291 45.8106 310.064C45.694 309.838 45.5156 309.652 45.2754 309.508C45.0384 309.364 44.7482 309.278 44.4049 309.247L42.607 309.09L42.3713 311.784ZM42.734 307.639L44.3238 307.778C44.6177 307.804 44.883 307.775 45.1198 307.693C45.3601 307.608 45.5547 307.475 45.7036 307.295C45.8557 307.115 45.9434 306.892 45.9668 306.624C45.9989 306.258 45.8943 305.951 45.6531 305.704C45.4152 305.457 45.0586 305.312 44.5831 305.271L42.9537 305.128L42.734 307.639ZM54.4162 311.341L54.7984 306.973L56.9082 307.157L56.2427 314.765L54.217 314.587L54.3379 313.206L54.2587 313.199C54.048 313.629 53.731 313.963 53.3078 314.198C52.8879 314.435 52.3924 314.528 51.8212 314.478C51.3127 314.433 50.8754 314.278 50.5093 314.014C50.1432 313.749 49.8699 313.394 49.6892 312.949C49.5119 312.504 49.4475 311.984 49.4962 311.39L49.92 306.546L52.0298 306.731L51.639 311.198C51.603 311.647 51.6925 312.013 51.9074 312.294C52.1223 312.576 52.4295 312.734 52.829 312.769C53.0833 312.791 53.326 312.754 53.5574 312.658C53.789 312.559 53.9826 312.399 54.1382 312.18C54.2971 311.961 54.3898 311.681 54.4162 311.341ZM62.6422 307.659L62.5035 309.244L57.9223 308.843L58.061 307.258L62.6422 307.659ZM59.2605 305.527L61.3703 305.711L60.7498 312.803C60.7328 312.998 60.7492 313.153 60.7991 313.267C60.8493 313.378 60.9253 313.459 61.0272 313.511C61.1324 313.564 61.256 313.596 61.398 313.609C61.4971 313.617 61.5968 313.618 61.6973 313.61C61.7981 313.599 61.8754 313.591 61.9291 313.585L62.1235 315.184C62.015 315.208 61.8631 315.233 61.6678 315.259C61.4723 315.289 61.237 315.296 60.9621 315.282C60.4519 315.258 60.0121 315.151 59.6427 314.962C59.2765 314.774 59.0021 314.507 58.8194 314.162C58.6367 313.816 58.5688 313.394 58.6157 312.896L59.2605 305.527ZM68.0629 308.133L67.9242 309.718L63.343 309.317L63.4817 307.732L68.0629 308.133ZM64.6812 306.001L66.791 306.185L66.1705 313.278C66.1535 313.473 66.1699 313.627 66.2198 313.741C66.27 313.852 66.346 313.934 66.4479 313.986C66.5531 314.038 66.6767 314.071 66.8187 314.083C66.9178 314.092 67.0175 314.092 67.118 314.084C67.2188 314.073 67.2961 314.065 67.3498 314.06L67.5442 315.659C67.4357 315.682 67.2838 315.707 67.0885 315.734C66.893 315.763 66.6577 315.771 66.3828 315.757C65.8726 315.732 65.4328 315.625 65.0634 315.437C64.6972 315.248 64.4228 314.981 64.2401 314.636C64.0574 314.291 63.9895 313.869 64.0364 313.37L64.6812 306.001ZM72.1141 316.303C71.3448 316.236 70.6938 316.014 70.1611 315.638C69.632 315.259 69.2413 314.762 68.9889 314.148C68.7369 313.531 68.6449 312.832 68.7131 312.053C68.7818 311.267 68.9938 310.594 69.349 310.032C69.7045 309.468 70.1755 309.047 70.7621 308.769C71.3523 308.488 72.032 308.381 72.8013 308.448C73.5707 308.515 74.2199 308.738 74.749 309.117C75.2817 309.493 75.6741 309.99 75.9261 310.608C76.1785 311.222 76.2703 311.922 76.2015 312.708C76.1334 313.487 75.9215 314.159 75.5661 314.724C75.2109 315.285 74.7382 315.706 74.148 315.987C73.5614 316.265 72.8834 316.37 72.1141 316.303ZM72.267 314.669C72.617 314.7 72.9179 314.627 73.1696 314.449C73.4217 314.268 73.6223 314.009 73.7715 313.673C73.924 313.337 74.0196 312.948 74.0583 312.506C74.097 312.063 74.0705 311.663 73.9786 311.306C73.8901 310.949 73.7374 310.659 73.5206 310.437C73.3038 310.215 73.0204 310.089 72.6704 310.059C72.3171 310.028 72.0112 310.102 71.7525 310.283C71.4972 310.463 71.2932 310.722 71.1407 311.058C70.9915 311.394 70.8976 311.783 70.8589 312.226C70.8202 312.668 70.8451 313.068 70.9336 313.425C71.0255 313.782 71.1814 314.072 71.4015 314.294C71.6252 314.513 71.9137 314.639 72.267 314.669ZM79.7378 312.389L79.3531 316.787L77.2432 316.602L77.9088 308.995L79.9196 309.171L79.8021 310.513L79.8913 310.521C80.0984 310.093 80.4113 309.768 80.8301 309.545C81.2491 309.319 81.7409 309.23 82.3055 309.28C82.8338 309.326 83.2843 309.482 83.657 309.747C84.0297 310.013 84.3062 310.37 84.4866 310.818C84.6672 311.263 84.7317 311.781 84.68 312.372L84.2562 317.216L82.1464 317.031L82.5372 312.564C82.5813 312.098 82.4942 311.725 82.276 311.443C82.058 311.158 81.7378 310.997 81.3151 310.96C81.0312 310.935 80.7749 310.974 80.5463 311.077C80.321 311.18 80.137 311.344 79.9943 311.568C79.8552 311.788 79.7697 312.062 79.7378 312.389Z" fill="white"/>
<g clip-path="url(#clip2_2669_319168)">
<path fill-rule="evenodd" clip-rule="evenodd" d="M98.9824 317.499C98.7754 317.48 98.5855 317.376 98.4579 317.212L95.1647 313.032L95.1647 313.032C94.9084 312.706 94.9649 312.234 95.2909 311.977C95.6168 311.721 96.0888 311.778 96.3451 312.103L99.1364 315.653L106.021 309.329L106.021 309.329C106.308 309.03 106.783 309.019 107.082 309.306C107.381 309.592 107.391 310.067 107.105 310.366C107.084 310.388 107.062 310.408 107.039 310.427L99.5569 317.301C99.4039 317.443 99.1983 317.515 98.9899 317.5L98.9824 317.499Z" fill="white"/>
</g>
<rect x="892.625" y="251" width="107" height="31" rx="4" transform="rotate(3 892.625 251)" fill="#EF8435"/>
<g clip-path="url(#clip3_2669_319168)">
<path fill-rule="evenodd" clip-rule="evenodd" d="M920.476 267.313L916.482 267.103L916.691 263.109C916.711 262.741 916.428 262.427 916.06 262.408C915.693 262.389 915.379 262.671 915.36 263.039L915.15 267.033L911.156 266.824C910.788 266.805 910.475 267.087 910.455 267.455C910.436 267.823 910.718 268.136 911.086 268.156L915.081 268.365L914.871 272.359C914.852 272.727 915.134 273.041 915.502 273.06C915.87 273.079 916.184 272.797 916.203 272.429L916.412 268.435L920.407 268.644C920.774 268.663 921.088 268.381 921.107 268.013C921.127 267.645 920.844 267.332 920.476 267.313Z" fill="white"/>
</g>
<path d="M930.826 274.031L931.358 263.863L935.43 264.076C936.178 264.116 936.796 264.259 937.284 264.507C937.772 264.755 938.132 265.082 938.362 265.49C938.594 265.893 938.696 266.35 938.669 266.86C938.648 267.257 938.55 267.602 938.376 267.895C938.201 268.184 937.97 268.418 937.682 268.595C937.397 268.77 937.076 268.887 936.718 268.948L936.712 269.047C937.099 269.084 937.455 269.212 937.782 269.432C938.113 269.652 938.374 269.949 938.567 270.324C938.76 270.696 938.843 271.132 938.817 271.632C938.789 272.171 938.63 272.646 938.339 273.056C938.053 273.462 937.643 273.774 937.11 273.992C936.578 274.209 935.931 274.298 935.17 274.258L930.826 274.031ZM933.067 272.386L934.82 272.478C935.419 272.509 935.862 272.418 936.149 272.204C936.436 271.987 936.589 271.686 936.609 271.302C936.624 271.021 936.569 270.769 936.445 270.547C936.32 270.324 936.135 270.145 935.89 270.01C935.648 269.874 935.355 269.798 935.011 269.78L933.209 269.685L933.067 272.386ZM933.285 268.23L934.879 268.314C935.173 268.329 935.438 268.292 935.671 268.201C935.909 268.107 936.099 267.968 936.241 267.783C936.387 267.598 936.467 267.372 936.481 267.104C936.5 266.736 936.385 266.433 936.135 266.194C935.889 265.956 935.527 265.824 935.051 265.799L933.417 265.713L933.285 268.23ZM945.09 271.522L945.319 267.144L947.434 267.254L947.034 274.88L945.004 274.774L945.076 273.389L944.997 273.385C944.801 273.822 944.496 274.166 944.082 274.417C943.67 274.667 943.178 274.778 942.606 274.748C942.096 274.721 941.653 274.582 941.278 274.33C940.903 274.078 940.618 273.733 940.422 273.294C940.229 272.856 940.146 272.339 940.174 271.743L940.429 266.887L942.544 266.998L942.309 271.476C942.289 271.927 942.391 272.289 942.615 272.563C942.84 272.837 943.153 272.984 943.553 273.005C943.808 273.019 944.049 272.973 944.277 272.869C944.505 272.761 944.693 272.595 944.841 272.371C944.992 272.146 945.075 271.864 945.09 271.522ZM953.182 267.556L953.099 269.144L948.506 268.904L948.59 267.315L953.182 267.556ZM949.728 265.543L951.843 265.653L951.47 272.763C951.46 272.958 951.482 273.112 951.536 273.224C951.59 273.333 951.669 273.412 951.772 273.461C951.879 273.51 952.004 273.538 952.146 273.545C952.246 273.55 952.345 273.547 952.445 273.536C952.546 273.521 952.623 273.51 952.676 273.503L952.926 275.094C952.819 275.122 952.668 275.152 952.473 275.185C952.279 275.222 952.044 275.237 951.769 275.233C951.258 275.226 950.815 275.135 950.439 274.959C950.067 274.784 949.783 274.526 949.588 274.188C949.394 273.849 949.311 273.43 949.341 272.93L949.728 265.543ZM958.616 267.84L958.533 269.429L953.94 269.188L954.024 267.6L958.616 267.84ZM955.162 265.827L957.277 265.938L956.904 273.048C956.894 273.243 956.916 273.397 956.97 273.509C957.024 273.618 957.103 273.697 957.206 273.746C957.313 273.794 957.438 273.822 957.58 273.83C957.679 273.835 957.779 273.832 957.879 273.821C957.98 273.806 958.057 273.795 958.11 273.788L958.36 275.379C958.253 275.407 958.102 275.437 957.907 275.47C957.713 275.506 957.478 275.522 957.203 275.518C956.692 275.511 956.249 275.42 955.873 275.244C955.501 275.068 955.217 274.811 955.022 274.472C954.828 274.134 954.745 273.715 954.775 273.215L955.162 265.827ZM962.95 275.864C962.179 275.823 961.52 275.625 960.975 275.267C960.433 274.907 960.025 274.424 959.751 273.819C959.478 273.211 959.362 272.516 959.403 271.735C959.444 270.947 959.632 270.267 959.968 269.694C960.303 269.117 960.759 268.68 961.336 268.381C961.916 268.08 962.591 267.949 963.362 267.99C964.134 268.03 964.79 268.23 965.332 268.591C965.878 268.948 966.287 269.431 966.561 270.039C966.834 270.644 966.951 271.341 966.909 272.128C966.868 272.909 966.68 273.588 966.345 274.165C966.009 274.738 965.551 275.175 964.971 275.477C964.395 275.775 963.721 275.904 962.95 275.864ZM963.046 274.226C963.396 274.244 963.695 274.16 963.94 273.974C964.186 273.784 964.377 273.519 964.514 273.178C964.655 272.837 964.737 272.444 964.76 272.001C964.784 271.557 964.743 271.159 964.639 270.805C964.538 270.451 964.375 270.167 964.151 269.953C963.926 269.738 963.639 269.622 963.288 269.604C962.934 269.585 962.631 269.67 962.378 269.86C962.129 270.049 961.935 270.314 961.794 270.655C961.657 270.997 961.576 271.389 961.553 271.833C961.53 272.276 961.569 272.675 961.67 273.029C961.774 273.383 961.94 273.667 962.168 273.881C962.399 274.092 962.691 274.207 963.046 274.226ZM970.432 271.686L970.201 276.094L968.086 275.984L968.486 268.358L970.502 268.463L970.431 269.809L970.52 269.813C970.712 269.379 971.014 269.043 971.425 268.805C971.835 268.565 972.324 268.459 972.89 268.489C973.419 268.517 973.875 268.657 974.257 268.909C974.639 269.161 974.927 269.508 975.123 269.95C975.319 270.389 975.402 270.904 975.371 271.496L975.116 276.352L973.001 276.241L973.236 271.763C973.264 271.296 973.164 270.926 972.936 270.652C972.708 270.374 972.382 270.225 971.959 270.202C971.674 270.188 971.419 270.236 971.194 270.347C970.973 270.458 970.795 270.628 970.66 270.856C970.529 271.082 970.453 271.358 970.432 271.686Z" fill="white"/>
<rect x="505" y="101" width="47" height="47" rx="23.5" fill="#D77730"/>
<path fill-rule="evenodd" clip-rule="evenodd" d="M538.781 123.031H529.969V114.219C529.969 113.408 529.311 112.75 528.5 112.75C527.689 112.75 527.031 113.408 527.031 114.219V123.031H518.219C517.408 123.031 516.75 123.689 516.75 124.5C516.75 125.311 517.408 125.969 518.219 125.969H527.031V134.781C527.031 135.592 527.689 136.25 528.5 136.25C529.311 136.25 529.969 135.592 529.969 134.781V125.969H538.781C539.592 125.969 540.25 125.311 540.25 124.5C540.25 123.689 539.592 123.031 538.781 123.031Z" fill="white"/>
<defs>
<clipPath id="clip0_2669_319168">
<rect x="717.164" width="243" height="31" rx="4" transform="rotate(4 717.164 0)" fill="white"/>
</clipPath>
<clipPath id="clip1_2669_319168">
<rect width="16" height="16" fill="white" transform="translate(17.9922 297.865) rotate(5)"/>
</clipPath>
<clipPath id="clip2_2669_319168">
<rect width="18" height="18" fill="white" transform="translate(92.7891 303.406) rotate(5)"/>
</clipPath>
<clipPath id="clip3_2669_319168">
<rect width="16" height="16" fill="white" transform="translate(908.211 259.326) rotate(3)"/>
</clipPath>
</defs>
</svg>
