<svg width="296" height="210" viewBox="0 0 296 210" fill="none" xmlns="http://www.w3.org/2000/svg">
<rect x="0.5" y="0.5" width="295" height="209" rx="7.5" fill="#111111"/>
<rect width="106" height="56" transform="translate(34 42)" fill="#EF8435"/>
<path d="M61 77V71H55V69H61V63H63V69H69V71H63V77H61Z" fill="white"/>
<path d="M86.8849 75.5V65.3182H89.0376V73.7251H93.4027V75.5H86.8849ZM96.9661 75.6442C96.4789 75.6442 96.0447 75.5597 95.6635 75.3906C95.2824 75.2183 94.9808 74.9647 94.7587 74.63C94.54 74.2919 94.4306 73.871 94.4306 73.3672C94.4306 72.9429 94.5085 72.5866 94.6642 72.2983C94.82 72.0099 95.0321 71.7779 95.3006 71.6023C95.5691 71.4266 95.874 71.294 96.2154 71.2045C96.5601 71.1151 96.9213 71.0521 97.2992 71.0156C97.7433 70.9692 98.1013 70.9261 98.373 70.8864C98.6448 70.8433 98.842 70.7803 98.9647 70.6974C99.0873 70.6146 99.1486 70.492 99.1486 70.3295V70.2997C99.1486 69.9848 99.0492 69.7412 98.8503 69.5689C98.6548 69.3965 98.3764 69.3104 98.0151 69.3104C97.6339 69.3104 97.3307 69.3949 97.1053 69.5639C96.8799 69.7296 96.7308 69.9384 96.6578 70.1903L94.699 70.0312C94.7985 69.5672 94.994 69.1662 95.2857 68.8281C95.5774 68.4867 95.9535 68.2249 96.4142 68.0426C96.8783 67.857 97.4152 67.7642 98.025 67.7642C98.4493 67.7642 98.8553 67.8139 99.2431 67.9134C99.6342 68.0128 99.9805 68.1669 100.282 68.3757C100.587 68.5845 100.827 68.853 101.003 69.1811C101.179 69.5059 101.267 69.8954 101.267 70.3494V75.5H99.258V74.4411H99.1983C99.0757 74.6797 98.9116 74.8902 98.7061 75.0724C98.5007 75.2514 98.2537 75.3923 97.9654 75.495C97.677 75.5945 97.3439 75.6442 96.9661 75.6442ZM97.5726 74.1825C97.8842 74.1825 98.1593 74.1212 98.3979 73.9986C98.6365 73.8726 98.8238 73.7036 98.9597 73.4915C99.0956 73.2794 99.1635 73.0391 99.1635 72.7706V71.9602C99.0972 72.0033 99.0061 72.0431 98.8901 72.0795C98.7774 72.1127 98.6498 72.1442 98.5073 72.174C98.3648 72.2005 98.2222 72.2254 98.0797 72.2486C97.9372 72.2685 97.8079 72.2867 97.6919 72.3033C97.4434 72.3397 97.2263 72.3977 97.0407 72.4773C96.8551 72.5568 96.7109 72.6645 96.6081 72.8004C96.5054 72.933 96.454 73.0987 96.454 73.2976C96.454 73.5859 96.5584 73.8063 96.7672 73.9588C96.9793 74.108 97.2478 74.1825 97.5726 74.1825ZM102.949 75.5V65.3182H105.067V69.1463H105.132C105.225 68.9408 105.359 68.732 105.535 68.5199C105.714 68.3045 105.946 68.1255 106.231 67.983C106.519 67.8371 106.877 67.7642 107.305 67.7642C107.861 67.7642 108.375 67.91 108.846 68.2017C109.316 68.4901 109.693 68.9259 109.974 69.5092C110.256 70.0893 110.397 70.8168 110.397 71.6918C110.397 72.5436 110.259 73.2628 109.984 73.8494C109.712 74.4328 109.341 74.8752 108.871 75.1768C108.403 75.4751 107.88 75.6243 107.3 75.6243C106.889 75.6243 106.539 75.5563 106.251 75.4205C105.965 75.2846 105.732 75.1139 105.55 74.9084C105.367 74.6996 105.228 74.4891 105.132 74.277H105.037V75.5H102.949ZM105.023 71.6818C105.023 72.1359 105.086 72.532 105.211 72.87C105.337 73.2081 105.52 73.4716 105.758 73.6605C105.997 73.8461 106.287 73.9389 106.628 73.9389C106.973 73.9389 107.265 73.8445 107.503 73.6555C107.742 73.4633 107.923 73.1982 108.045 72.8601C108.171 72.5187 108.234 72.1259 108.234 71.6818C108.234 71.241 108.173 70.8532 108.05 70.5185C107.928 70.1837 107.747 69.9219 107.508 69.733C107.27 69.544 106.976 69.4496 106.628 69.4496C106.284 69.4496 105.992 69.5407 105.753 69.723C105.518 69.9053 105.337 70.1638 105.211 70.4986C105.086 70.8333 105.023 71.2277 105.023 71.6818ZM115.29 75.6491C114.505 75.6491 113.828 75.4901 113.262 75.1719C112.698 74.8504 112.264 74.3963 111.959 73.8097C111.654 73.2197 111.502 72.522 111.502 71.7166C111.502 70.9311 111.654 70.2417 111.959 69.6484C112.264 69.0552 112.693 68.5928 113.247 68.2614C113.804 67.9299 114.457 67.7642 115.206 67.7642C115.709 67.7642 116.178 67.8454 116.613 68.0078C117.05 68.1669 117.431 68.4072 117.756 68.7287C118.084 69.0502 118.339 69.4545 118.522 69.9418C118.704 70.4257 118.795 70.9924 118.795 71.642V72.2237H112.347V70.9112H116.801C116.801 70.6063 116.735 70.3362 116.603 70.1009C116.47 69.8655 116.286 69.6816 116.051 69.549C115.819 69.4131 115.549 69.3452 115.24 69.3452C114.919 69.3452 114.634 69.4197 114.385 69.5689C114.14 69.7147 113.948 69.9119 113.809 70.1605C113.669 70.4058 113.598 70.6792 113.595 70.9808V72.2287C113.595 72.6065 113.664 72.933 113.804 73.2081C113.946 73.4832 114.147 73.6953 114.405 73.8445C114.664 73.9936 114.97 74.0682 115.325 74.0682C115.56 74.0682 115.776 74.035 115.971 73.9688C116.167 73.9025 116.334 73.803 116.473 73.6705C116.613 73.5379 116.719 73.3755 116.792 73.1832L118.75 73.3125C118.651 73.7831 118.447 74.1941 118.139 74.5455C117.834 74.8935 117.44 75.1652 116.956 75.3608C116.475 75.553 115.92 75.6491 115.29 75.6491ZM122.295 65.3182V75.5H120.177V65.3182H122.295Z" fill="white"/>
<rect width="110" height="56" transform="translate(159 42)" fill="#EF8435"/>
<path d="M186 77V71H180V69H186V63H188V69H194V71H188V77H186Z" fill="white"/>
<path d="M212.278 75.5V63.8636H214.034V73.9886H219.307V75.5H212.278ZM223.713 75.6932C223.16 75.6932 222.66 75.5909 222.213 75.3864C221.766 75.178 221.412 74.8769 221.151 74.483C220.893 74.089 220.764 73.6061 220.764 73.0341C220.764 72.5417 220.859 72.1364 221.048 71.8182C221.238 71.5 221.493 71.2481 221.815 71.0625C222.137 70.8769 222.497 70.7367 222.895 70.642C223.293 70.5473 223.698 70.4754 224.111 70.4261C224.634 70.3655 225.058 70.3163 225.384 70.2784C225.709 70.2367 225.946 70.1705 226.094 70.0795C226.241 69.9886 226.315 69.8409 226.315 69.6364V69.5966C226.315 69.1004 226.175 68.7159 225.895 68.4432C225.618 68.1705 225.205 68.0341 224.656 68.0341C224.084 68.0341 223.634 68.161 223.304 68.4148C222.978 68.6648 222.753 68.9432 222.628 69.25L221.031 68.8864C221.221 68.3561 221.497 67.928 221.861 67.6023C222.228 67.2727 222.651 67.0341 223.128 66.8864C223.605 66.7348 224.107 66.6591 224.634 66.6591C224.982 66.6591 225.351 66.7008 225.741 66.7841C226.135 66.8636 226.503 67.0114 226.844 67.2273C227.188 67.4432 227.471 67.7519 227.69 68.1534C227.91 68.5511 228.02 69.0682 228.02 69.7045V75.5H226.361V74.3068H226.293C226.183 74.5265 226.018 74.7424 225.798 74.9545C225.579 75.1667 225.296 75.3428 224.952 75.483C224.607 75.6231 224.194 75.6932 223.713 75.6932ZM224.082 74.3295C224.552 74.3295 224.954 74.2367 225.287 74.0511C225.624 73.8655 225.88 73.6231 226.054 73.3239C226.232 73.0208 226.321 72.697 226.321 72.3523V71.2273C226.26 71.2879 226.143 71.3447 225.969 71.3977C225.798 71.447 225.603 71.4905 225.384 71.5284C225.164 71.5625 224.95 71.5947 224.741 71.625C224.533 71.6515 224.359 71.6742 224.219 71.6932C223.889 71.7348 223.588 71.8049 223.315 71.9034C223.046 72.0019 222.83 72.1439 222.668 72.3295C222.509 72.5114 222.429 72.7538 222.429 73.0568C222.429 73.4773 222.584 73.7955 222.895 74.0114C223.205 74.2235 223.601 74.3295 224.082 74.3295ZM230.419 75.5V63.8636H232.118V68.1875H232.22C232.319 68.0057 232.461 67.7955 232.646 67.5568C232.832 67.3182 233.089 67.1098 233.419 66.9318C233.749 66.75 234.184 66.6591 234.726 66.6591C235.43 66.6591 236.059 66.8371 236.612 67.1932C237.165 67.5492 237.599 68.0625 237.913 68.733C238.232 69.4034 238.391 70.2102 238.391 71.1534C238.391 72.0966 238.233 72.9053 237.919 73.5795C237.605 74.25 237.173 74.767 236.624 75.1307C236.074 75.4905 235.447 75.6705 234.743 75.6705C234.213 75.6705 233.779 75.5814 233.442 75.4034C233.108 75.2254 232.847 75.017 232.658 74.7784C232.468 74.5398 232.322 74.3277 232.22 74.142H232.078V75.5H230.419ZM232.084 71.1364C232.084 71.75 232.173 72.2879 232.351 72.75C232.529 73.2121 232.786 73.5739 233.124 73.8352C233.461 74.0928 233.874 74.2216 234.362 74.2216C234.87 74.2216 235.294 74.0871 235.635 73.8182C235.976 73.5455 236.233 73.1761 236.408 72.7102C236.586 72.2443 236.675 71.7197 236.675 71.1364C236.675 70.5606 236.588 70.0436 236.413 69.5852C236.243 69.1269 235.985 68.7652 235.641 68.5C235.3 68.2348 234.874 68.1023 234.362 68.1023C233.87 68.1023 233.453 68.2292 233.112 68.483C232.775 68.7367 232.519 69.0909 232.345 69.5455C232.171 70 232.084 70.5303 232.084 71.1364ZM244.06 75.6761C243.2 75.6761 242.459 75.4924 241.838 75.125C241.221 74.7538 240.743 74.233 240.406 73.5625C240.073 72.8883 239.906 72.0985 239.906 71.1932C239.906 70.2992 240.073 69.5114 240.406 68.8295C240.743 68.1477 241.213 67.6155 241.815 67.233C242.421 66.8504 243.13 66.6591 243.94 66.6591C244.433 66.6591 244.91 66.7405 245.372 66.9034C245.834 67.0663 246.249 67.322 246.616 67.6705C246.984 68.0189 247.274 68.4716 247.486 69.0284C247.698 69.5814 247.804 70.2538 247.804 71.0455V71.6477H240.866V70.375H246.139C246.139 69.928 246.048 69.5322 245.866 69.1875C245.685 68.839 245.429 68.5644 245.099 68.3636C244.774 68.1629 244.391 68.0625 243.952 68.0625C243.474 68.0625 243.058 68.1799 242.702 68.4148C242.349 68.6458 242.077 68.9489 241.884 69.3239C241.694 69.6951 241.599 70.0985 241.599 70.5341V71.5284C241.599 72.1117 241.702 72.608 241.906 73.017C242.115 73.4261 242.404 73.7386 242.776 73.9545C243.147 74.1667 243.58 74.2727 244.077 74.2727C244.399 74.2727 244.692 74.2273 244.957 74.1364C245.223 74.0417 245.452 73.9015 245.645 73.7159C245.838 73.5303 245.986 73.3011 246.088 73.0284L247.696 73.3182C247.567 73.7917 247.336 74.2064 247.003 74.5625C246.673 74.9148 246.259 75.1894 245.759 75.3864C245.262 75.5795 244.696 75.6761 244.06 75.6761ZM251.388 63.8636V75.5H249.689V63.8636H251.388Z" fill="white"/>
<rect width="115" height="56" transform="translate(91 125)" fill="#EF8435"/>
<path d="M118 160V154H112V152H118V146H120V152H126V154H120V160H118Z" fill="white"/>
<path d="M144.438 160V146.909H146.413V158.3H152.345V160H144.438ZM157.302 160.217C156.68 160.217 156.118 160.102 155.615 159.872C155.112 159.638 154.713 159.299 154.419 158.856C154.13 158.413 153.985 157.869 153.985 157.226C153.985 156.672 154.091 156.216 154.304 155.858C154.517 155.5 154.805 155.217 155.167 155.008C155.529 154.799 155.934 154.641 156.382 154.535C156.829 154.428 157.285 154.347 157.75 154.292C158.338 154.224 158.815 154.168 159.181 154.126C159.548 154.079 159.814 154.004 159.98 153.902C160.147 153.8 160.23 153.634 160.23 153.403V153.359C160.23 152.8 160.072 152.368 159.757 152.061C159.446 151.754 158.981 151.601 158.363 151.601C157.72 151.601 157.213 151.744 156.842 152.029C156.475 152.31 156.222 152.624 156.081 152.969L154.285 152.56C154.498 151.963 154.809 151.482 155.218 151.115C155.632 150.744 156.107 150.476 156.644 150.31C157.181 150.139 157.745 150.054 158.338 150.054C158.73 150.054 159.145 150.101 159.584 150.195C160.027 150.284 160.441 150.45 160.824 150.693C161.212 150.936 161.529 151.283 161.777 151.735C162.024 152.183 162.147 152.764 162.147 153.48V160H160.281V158.658H160.204C160.081 158.905 159.895 159.148 159.648 159.386C159.401 159.625 159.083 159.823 158.696 159.981C158.308 160.138 157.843 160.217 157.302 160.217ZM157.718 158.683C158.246 158.683 158.698 158.579 159.073 158.37C159.452 158.161 159.74 157.888 159.936 157.552C160.136 157.211 160.236 156.847 160.236 156.459V155.193C160.168 155.261 160.036 155.325 159.84 155.385C159.648 155.44 159.429 155.489 159.181 155.532C158.934 155.57 158.694 155.607 158.459 155.641C158.225 155.67 158.029 155.696 157.871 155.717C157.5 155.764 157.162 155.843 156.855 155.954C156.552 156.065 156.309 156.224 156.126 156.433C155.947 156.638 155.858 156.911 155.858 157.251C155.858 157.724 156.032 158.082 156.382 158.325C156.731 158.564 157.176 158.683 157.718 158.683ZM164.846 160V146.909H166.758V151.773H166.873C166.983 151.569 167.143 151.332 167.352 151.064C167.561 150.795 167.851 150.561 168.221 150.361C168.592 150.156 169.082 150.054 169.692 150.054C170.484 150.054 171.192 150.254 171.814 150.655C172.436 151.055 172.924 151.633 173.278 152.387C173.635 153.141 173.814 154.049 173.814 155.11C173.814 156.171 173.638 157.081 173.284 157.839C172.93 158.594 172.444 159.175 171.827 159.585C171.209 159.989 170.503 160.192 169.711 160.192C169.114 160.192 168.626 160.092 168.247 159.891C167.872 159.691 167.578 159.457 167.365 159.188C167.152 158.92 166.988 158.681 166.873 158.472H166.713V160H164.846ZM166.719 155.091C166.719 155.781 166.819 156.386 167.02 156.906C167.22 157.426 167.51 157.833 167.889 158.127C168.268 158.417 168.733 158.562 169.282 158.562C169.854 158.562 170.331 158.411 170.714 158.108C171.098 157.801 171.388 157.386 171.584 156.862C171.784 156.337 171.884 155.747 171.884 155.091C171.884 154.443 171.786 153.862 171.59 153.346C171.398 152.83 171.108 152.423 170.721 152.125C170.337 151.827 169.858 151.678 169.282 151.678C168.729 151.678 168.26 151.82 167.876 152.106C167.497 152.391 167.209 152.79 167.013 153.301C166.817 153.812 166.719 154.409 166.719 155.091ZM180.192 160.198C179.225 160.198 178.392 159.991 177.693 159.578C176.998 159.161 176.461 158.575 176.082 157.82C175.707 157.062 175.52 156.173 175.52 155.155C175.52 154.149 175.707 153.263 176.082 152.496C176.461 151.729 176.99 151.13 177.667 150.7C178.349 150.269 179.146 150.054 180.058 150.054C180.612 150.054 181.149 150.146 181.669 150.329C182.189 150.512 182.655 150.8 183.069 151.192C183.482 151.584 183.808 152.093 184.047 152.719C184.285 153.342 184.404 154.098 184.404 154.989V155.666H176.6V154.234H182.532C182.532 153.732 182.429 153.286 182.225 152.898C182.02 152.506 181.733 152.197 181.362 151.972C180.995 151.746 180.565 151.633 180.071 151.633C179.534 151.633 179.065 151.765 178.664 152.029C178.268 152.289 177.961 152.63 177.744 153.052C177.531 153.469 177.424 153.923 177.424 154.413V155.532C177.424 156.188 177.539 156.746 177.77 157.207C178.004 157.667 178.33 158.018 178.748 158.261C179.165 158.5 179.653 158.619 180.211 158.619C180.574 158.619 180.904 158.568 181.202 158.466C181.5 158.359 181.758 158.202 181.975 157.993C182.193 157.784 182.359 157.526 182.474 157.219L184.283 157.545C184.138 158.078 183.878 158.545 183.503 158.945C183.132 159.342 182.666 159.651 182.103 159.872C181.545 160.089 180.908 160.198 180.192 160.198ZM188.436 146.909V160H186.525V146.909H188.436Z" fill="white"/>
<rect x="0.5" y="0.5" width="295" height="209" rx="7.5" stroke="#333333"/>
</svg>
