<svg width="296" height="210" viewBox="0 0 296 210" fill="none" xmlns="http://www.w3.org/2000/svg">
<rect x="0.5" y="0.5" width="295" height="209" rx="7.5" fill="#111111"/>
<g clip-path="url(#clip0_2192_73112)">
<rect width="76" height="31" transform="translate(26 56)" fill="#EF8435"/>
<rect width="76" height="31" transform="translate(26 56)" fill="#EF8435"/>
<path d="M48.8849 77V66.8182H55.6264V68.593H51.0376V71.0192H55.179V72.794H51.0376V77H48.8849ZM57.0346 77V69.3636H59.1525V77H57.0346ZM58.0985 68.3793C57.7837 68.3793 57.5136 68.2749 57.2882 68.0661C57.0661 67.8539 56.9551 67.6004 56.9551 67.3054C56.9551 67.0137 57.0661 66.7635 57.2882 66.5547C57.5136 66.3426 57.7837 66.2365 58.0985 66.2365C58.4134 66.2365 58.6819 66.3426 58.9039 66.5547C59.1293 66.7635 59.242 67.0137 59.242 67.3054C59.242 67.6004 59.1293 67.8539 58.9039 68.0661C58.6819 68.2749 58.4134 68.3793 58.0985 68.3793ZM60.8491 77V69.3636H62.9023V70.696H62.9819C63.1211 70.2221 63.3548 69.8641 63.6829 69.6222C64.011 69.3769 64.3888 69.2543 64.8164 69.2543C64.9225 69.2543 65.0368 69.2609 65.1594 69.2741C65.2821 69.2874 65.3898 69.3056 65.4826 69.3288V71.2081C65.3832 71.1783 65.2456 71.1518 65.07 71.1286C64.8943 71.1054 64.7335 71.0938 64.5877 71.0938C64.2762 71.0938 63.9978 71.1617 63.7525 71.2976C63.5105 71.4302 63.3183 71.6158 63.1758 71.8544C63.0366 72.093 62.967 72.3681 62.967 72.6797V77H60.8491ZM72.9313 71.5412L70.9924 71.6605C70.9592 71.4948 70.888 71.3456 70.7786 71.2131C70.6692 71.0772 70.525 70.9695 70.3461 70.8899C70.1704 70.8071 69.9599 70.7656 69.7147 70.7656C69.3865 70.7656 69.1098 70.8352 68.8844 70.9744C68.659 71.1103 68.5463 71.2926 68.5463 71.5213C68.5463 71.7036 68.6193 71.8577 68.7651 71.9837C68.9109 72.1096 69.1612 72.2107 69.5158 72.2869L70.8979 72.5653C71.6403 72.7178 72.1938 72.9631 72.5584 73.3011C72.923 73.6392 73.1053 74.0833 73.1053 74.6335C73.1053 75.134 72.9578 75.5732 72.6628 75.951C72.3712 76.3288 71.9701 76.6238 71.4597 76.8359C70.9526 77.0447 70.3676 77.1491 69.7047 77.1491C68.6938 77.1491 67.8884 76.9387 67.2885 76.5178C66.6919 76.0935 66.3423 75.5168 66.2395 74.7876L68.3226 74.6783C68.3856 74.9865 68.5381 75.2218 68.78 75.3842C69.022 75.5433 69.3319 75.6229 69.7097 75.6229C70.0809 75.6229 70.3792 75.5516 70.6046 75.4091C70.8333 75.2633 70.9493 75.076 70.9526 74.8473C70.9493 74.6551 70.8681 74.4976 70.709 74.375C70.5499 74.2491 70.3046 74.1529 69.9732 74.0866L68.6507 73.8232C67.905 73.674 67.3498 73.4155 66.9853 73.0476C66.624 72.6797 66.4434 72.2107 66.4434 71.6406C66.4434 71.1501 66.5759 70.7275 66.8411 70.3729C67.1096 70.0182 67.4857 69.7448 67.9696 69.5526C68.4569 69.3603 69.0269 69.2642 69.6799 69.2642C70.6444 69.2642 71.4034 69.468 71.9569 69.8757C72.5137 70.2834 72.8385 70.8385 72.9313 71.5412ZM78.5007 69.3636V70.9545H73.902V69.3636H78.5007ZM74.946 67.5341H77.0639V74.6534C77.0639 74.849 77.0938 75.0014 77.1534 75.1108C77.2131 75.2169 77.2959 75.2914 77.402 75.3345C77.5114 75.3776 77.6373 75.3991 77.7798 75.3991C77.8793 75.3991 77.9787 75.3909 78.0781 75.3743C78.1776 75.3544 78.2538 75.3395 78.3068 75.3295L78.6399 76.9055C78.5339 76.9387 78.3847 76.9768 78.1925 77.0199C78.0002 77.0663 77.7666 77.0945 77.4915 77.1044C76.9811 77.1243 76.5336 77.0563 76.1491 76.9006C75.768 76.7448 75.4714 76.5028 75.2592 76.1747C75.0471 75.8466 74.9427 75.4323 74.946 74.9318V67.5341Z" fill="white"/>
<rect x="102" y="56" width="1" height="31" fill="#BF6A2A"/>
<rect width="91" height="31" transform="translate(103 56)" fill="#EF8435"/>
<rect width="91" height="31" transform="translate(103 56)" fill="#EF8435"/>
<path d="M125.885 66.8182H128.54L131.344 73.6591H131.463L134.267 66.8182H136.922V77H134.834V70.3729H134.749L132.114 76.9503H130.692L128.058 70.348H127.973V77H125.885V66.8182ZM138.656 77V69.3636H140.774V77H138.656ZM139.72 68.3793C139.405 68.3793 139.135 68.2749 138.909 68.0661C138.687 67.8539 138.576 67.6004 138.576 67.3054C138.576 67.0137 138.687 66.7635 138.909 66.5547C139.135 66.3426 139.405 66.2365 139.72 66.2365C140.035 66.2365 140.303 66.3426 140.525 66.5547C140.75 66.7635 140.863 67.0137 140.863 67.3054C140.863 67.6004 140.75 67.8539 140.525 68.0661C140.303 68.2749 140.035 68.3793 139.72 68.3793ZM145.284 77.1243C144.704 77.1243 144.179 76.9751 143.708 76.6768C143.241 76.3752 142.87 75.9328 142.594 75.3494C142.323 74.7628 142.187 74.0436 142.187 73.1918C142.187 72.3168 142.328 71.5893 142.609 71.0092C142.891 70.4259 143.266 69.9901 143.733 69.7017C144.204 69.41 144.719 69.2642 145.279 69.2642C145.707 69.2642 146.063 69.3371 146.348 69.483C146.636 69.6255 146.868 69.8045 147.044 70.0199C147.223 70.232 147.359 70.4408 147.452 70.6463H147.516V66.8182H149.629V77H147.541V75.777H147.452C147.352 75.9891 147.211 76.1996 147.029 76.4084C146.85 76.6139 146.616 76.7846 146.328 76.9205C146.043 77.0563 145.695 77.1243 145.284 77.1243ZM145.955 75.4389C146.297 75.4389 146.585 75.3461 146.82 75.1605C147.059 74.9716 147.241 74.7081 147.367 74.37C147.496 74.032 147.561 73.6359 147.561 73.1818C147.561 72.7277 147.498 72.3333 147.372 71.9986C147.246 71.6638 147.064 71.4053 146.825 71.223C146.587 71.0407 146.297 70.9496 145.955 70.9496C145.607 70.9496 145.314 71.044 145.075 71.233C144.837 71.4219 144.656 71.6837 144.533 72.0185C144.411 72.3532 144.349 72.741 144.349 73.1818C144.349 73.6259 144.411 74.0187 144.533 74.3601C144.659 74.6982 144.84 74.9633 145.075 75.1555C145.314 75.3445 145.607 75.4389 145.955 75.4389ZM154.184 77.1243C153.604 77.1243 153.079 76.9751 152.608 76.6768C152.141 76.3752 151.77 75.9328 151.495 75.3494C151.223 74.7628 151.087 74.0436 151.087 73.1918C151.087 72.3168 151.228 71.5893 151.51 71.0092C151.791 70.4259 152.166 69.9901 152.633 69.7017C153.104 69.41 153.619 69.2642 154.18 69.2642C154.607 69.2642 154.963 69.3371 155.248 69.483C155.537 69.6255 155.769 69.8045 155.944 70.0199C156.123 70.232 156.259 70.4408 156.352 70.6463H156.417V66.8182H158.53V77H156.442V75.777H156.352C156.253 75.9891 156.112 76.1996 155.93 76.4084C155.751 76.6139 155.517 76.7846 155.229 76.9205C154.943 77.0563 154.595 77.1243 154.184 77.1243ZM154.856 75.4389C155.197 75.4389 155.485 75.3461 155.721 75.1605C155.959 74.9716 156.142 74.7081 156.268 74.37C156.397 74.032 156.461 73.6359 156.461 73.1818C156.461 72.7277 156.398 72.3333 156.273 71.9986C156.147 71.6638 155.964 71.4053 155.726 71.223C155.487 71.0407 155.197 70.9496 154.856 70.9496C154.508 70.9496 154.214 71.044 153.976 71.233C153.737 71.4219 153.556 71.6837 153.434 72.0185C153.311 72.3532 153.25 72.741 153.25 73.1818C153.25 73.6259 153.311 74.0187 153.434 74.3601C153.56 74.6982 153.74 74.9633 153.976 75.1555C154.214 75.3445 154.508 75.4389 154.856 75.4389ZM162.389 66.8182V77H160.271V66.8182H162.389ZM167.566 77.1491C166.78 77.1491 166.104 76.9901 165.537 76.6719C164.974 76.3504 164.539 75.8963 164.235 75.3097C163.93 74.7197 163.777 74.022 163.777 73.2166C163.777 72.4311 163.93 71.7417 164.235 71.1484C164.539 70.5552 164.969 70.0928 165.522 69.7614C166.079 69.4299 166.732 69.2642 167.481 69.2642C167.985 69.2642 168.454 69.3454 168.888 69.5078C169.325 69.6669 169.707 69.9072 170.031 70.2287C170.36 70.5502 170.615 70.9545 170.797 71.4418C170.979 71.9257 171.07 72.4924 171.07 73.142V73.7237H164.622V72.4112H169.077C169.077 72.1063 169.011 71.8362 168.878 71.6009C168.745 71.3655 168.561 71.1816 168.326 71.049C168.094 70.9131 167.824 70.8452 167.516 70.8452C167.194 70.8452 166.909 70.9197 166.661 71.0689C166.415 71.2147 166.223 71.4119 166.084 71.6605C165.945 71.9058 165.874 72.1792 165.87 72.4808V73.7287C165.87 74.1065 165.94 74.433 166.079 74.7081C166.222 74.9832 166.422 75.1953 166.681 75.3445C166.939 75.4936 167.246 75.5682 167.6 75.5682C167.836 75.5682 168.051 75.535 168.247 75.4688C168.442 75.4025 168.61 75.303 168.749 75.1705C168.888 75.0379 168.994 74.8755 169.067 74.6832L171.026 74.8125C170.926 75.2831 170.722 75.6941 170.414 76.0455C170.109 76.3935 169.715 76.6652 169.231 76.8608C168.75 77.053 168.195 77.1491 167.566 77.1491Z" fill="white"/>
<rect x="194" y="56" width="1" height="31" fill="#BF6A2A"/>
<rect width="74" height="31" transform="translate(195 56)" fill="#EF8435"/>
<rect width="74" height="31" transform="translate(195 56)" fill="#EF8435"/>
<path d="M217.885 77V66.8182H220.038V75.2251H224.403V77H217.885ZM227.966 77.1442C227.479 77.1442 227.045 77.0597 226.664 76.8906C226.282 76.7183 225.981 76.4647 225.759 76.13C225.54 75.7919 225.431 75.371 225.431 74.8672C225.431 74.4429 225.508 74.0866 225.664 73.7983C225.82 73.5099 226.032 73.2779 226.301 73.1023C226.569 72.9266 226.874 72.794 227.215 72.7045C227.56 72.6151 227.921 72.5521 228.299 72.5156C228.743 72.4692 229.101 72.4261 229.373 72.3864C229.645 72.3433 229.842 72.2803 229.965 72.1974C230.087 72.1146 230.149 71.992 230.149 71.8295V71.7997C230.149 71.4848 230.049 71.2412 229.85 71.0689C229.655 70.8965 229.376 70.8104 229.015 70.8104C228.634 70.8104 228.331 70.8949 228.105 71.0639C227.88 71.2296 227.731 71.4384 227.658 71.6903L225.699 71.5312C225.798 71.0672 225.994 70.6662 226.286 70.3281C226.577 69.9867 226.954 69.7249 227.414 69.5426C227.878 69.357 228.415 69.2642 229.025 69.2642C229.449 69.2642 229.855 69.3139 230.243 69.4134C230.634 69.5128 230.981 69.6669 231.282 69.8757C231.587 70.0845 231.827 70.353 232.003 70.6811C232.179 71.0059 232.267 71.3954 232.267 71.8494V77H230.258V75.9411H230.198C230.076 76.1797 229.912 76.3902 229.706 76.5724C229.501 76.7514 229.254 76.8923 228.965 76.995C228.677 77.0945 228.344 77.1442 227.966 77.1442ZM228.573 75.6825C228.884 75.6825 229.159 75.6212 229.398 75.4986C229.637 75.3726 229.824 75.2036 229.96 74.9915C230.096 74.7794 230.164 74.5391 230.164 74.2706V73.4602C230.097 73.5033 230.006 73.5431 229.89 73.5795C229.777 73.6127 229.65 73.6442 229.507 73.674C229.365 73.7005 229.222 73.7254 229.08 73.7486C228.937 73.7685 228.808 73.7867 228.692 73.8033C228.443 73.8397 228.226 73.8977 228.041 73.9773C227.855 74.0568 227.711 74.1645 227.608 74.3004C227.505 74.433 227.454 74.5987 227.454 74.7976C227.454 75.0859 227.558 75.3063 227.767 75.4588C227.979 75.608 228.248 75.6825 228.573 75.6825ZM240.263 71.5412L238.324 71.6605C238.291 71.4948 238.22 71.3456 238.111 71.2131C238.001 71.0772 237.857 70.9695 237.678 70.8899C237.502 70.8071 237.292 70.7656 237.047 70.7656C236.719 70.7656 236.442 70.8352 236.216 70.9744C235.991 71.1103 235.878 71.2926 235.878 71.5213C235.878 71.7036 235.951 71.8577 236.097 71.9837C236.243 72.1096 236.493 72.2107 236.848 72.2869L238.23 72.5653C238.972 72.7178 239.526 72.9631 239.89 73.3011C240.255 73.6392 240.437 74.0833 240.437 74.6335C240.437 75.134 240.29 75.5732 239.995 75.951C239.703 76.3288 239.302 76.6238 238.792 76.8359C238.285 77.0447 237.7 77.1491 237.037 77.1491C236.026 77.1491 235.22 76.9387 234.621 76.5178C234.024 76.0935 233.674 75.5168 233.572 74.7876L235.655 74.6783C235.718 74.9865 235.87 75.2218 236.112 75.3842C236.354 75.5433 236.664 75.6229 237.042 75.6229C237.413 75.6229 237.711 75.5516 237.937 75.4091C238.165 75.2633 238.281 75.076 238.285 74.8473C238.281 74.6551 238.2 74.4976 238.041 74.375C237.882 74.2491 237.637 74.1529 237.305 74.0866L235.983 73.8232C235.237 73.674 234.682 73.4155 234.317 73.0476C233.956 72.6797 233.775 72.2107 233.775 71.6406C233.775 71.1501 233.908 70.7275 234.173 70.3729C234.442 70.0182 234.818 69.7448 235.302 69.5526C235.789 69.3603 236.359 69.2642 237.012 69.2642C237.976 69.2642 238.735 69.468 239.289 69.8757C239.846 70.2834 240.171 70.8385 240.263 71.5412ZM245.833 69.3636V70.9545H241.234V69.3636H245.833ZM242.278 67.5341H244.396V74.6534C244.396 74.849 244.426 75.0014 244.485 75.1108C244.545 75.2169 244.628 75.2914 244.734 75.3345C244.843 75.3776 244.969 75.3991 245.112 75.3991C245.211 75.3991 245.311 75.3909 245.41 75.3743C245.51 75.3544 245.586 75.3395 245.639 75.3295L245.972 76.9055C245.866 76.9387 245.717 76.9768 245.525 77.0199C245.332 77.0663 245.099 77.0945 244.824 77.1044C244.313 77.1243 243.866 77.0563 243.481 76.9006C243.1 76.7448 242.803 76.5028 242.591 76.1747C242.379 75.8466 242.275 75.4323 242.278 74.9318V67.5341Z" fill="white"/>
</g>
<g clip-path="url(#clip1_2192_73112)">
<rect width="76" height="31" transform="translate(26 124)" fill="white"/>
<path d="M48.8849 145V134.818H55.6264V136.593H51.0376V139.019H55.179V140.794H51.0376V145H48.8849ZM57.0346 145V137.364H59.1525V145H57.0346ZM58.0985 136.379C57.7837 136.379 57.5136 136.275 57.2882 136.066C57.0661 135.854 56.9551 135.6 56.9551 135.305C56.9551 135.014 57.0661 134.763 57.2882 134.555C57.5136 134.343 57.7837 134.237 58.0985 134.237C58.4134 134.237 58.6819 134.343 58.9039 134.555C59.1293 134.763 59.242 135.014 59.242 135.305C59.242 135.6 59.1293 135.854 58.9039 136.066C58.6819 136.275 58.4134 136.379 58.0985 136.379ZM60.8491 145V137.364H62.9023V138.696H62.9819C63.1211 138.222 63.3548 137.864 63.6829 137.622C64.011 137.377 64.3888 137.254 64.8164 137.254C64.9225 137.254 65.0368 137.261 65.1594 137.274C65.2821 137.287 65.3898 137.306 65.4826 137.329V139.208C65.3832 139.178 65.2456 139.152 65.07 139.129C64.8943 139.105 64.7335 139.094 64.5877 139.094C64.2762 139.094 63.9978 139.162 63.7525 139.298C63.5105 139.43 63.3183 139.616 63.1758 139.854C63.0366 140.093 62.967 140.368 62.967 140.68V145H60.8491ZM72.9313 139.541L70.9924 139.661C70.9592 139.495 70.888 139.346 70.7786 139.213C70.6692 139.077 70.525 138.969 70.3461 138.89C70.1704 138.807 69.9599 138.766 69.7147 138.766C69.3865 138.766 69.1098 138.835 68.8844 138.974C68.659 139.11 68.5463 139.293 68.5463 139.521C68.5463 139.704 68.6193 139.858 68.7651 139.984C68.9109 140.11 69.1612 140.211 69.5158 140.287L70.8979 140.565C71.6403 140.718 72.1938 140.963 72.5584 141.301C72.923 141.639 73.1053 142.083 73.1053 142.634C73.1053 143.134 72.9578 143.573 72.6628 143.951C72.3712 144.329 71.9701 144.624 71.4597 144.836C70.9526 145.045 70.3676 145.149 69.7047 145.149C68.6938 145.149 67.8884 144.939 67.2885 144.518C66.6919 144.094 66.3423 143.517 66.2395 142.788L68.3226 142.678C68.3856 142.987 68.5381 143.222 68.78 143.384C69.022 143.543 69.3319 143.623 69.7097 143.623C70.0809 143.623 70.3792 143.552 70.6046 143.409C70.8333 143.263 70.9493 143.076 70.9526 142.847C70.9493 142.655 70.8681 142.498 70.709 142.375C70.5499 142.249 70.3046 142.153 69.9732 142.087L68.6507 141.823C67.905 141.674 67.3498 141.415 66.9853 141.048C66.624 140.68 66.4434 140.211 66.4434 139.641C66.4434 139.15 66.5759 138.728 66.8411 138.373C67.1096 138.018 67.4857 137.745 67.9696 137.553C68.4569 137.36 69.0269 137.264 69.6799 137.264C70.6444 137.264 71.4034 137.468 71.9569 137.876C72.5137 138.283 72.8385 138.839 72.9313 139.541ZM78.5007 137.364V138.955H73.902V137.364H78.5007ZM74.946 135.534H77.0639V142.653C77.0639 142.849 77.0938 143.001 77.1534 143.111C77.2131 143.217 77.2959 143.291 77.402 143.335C77.5114 143.378 77.6373 143.399 77.7798 143.399C77.8793 143.399 77.9787 143.391 78.0781 143.374C78.1776 143.354 78.2538 143.339 78.3068 143.33L78.6399 144.906C78.5339 144.939 78.3847 144.977 78.1925 145.02C78.0002 145.066 77.7666 145.094 77.4915 145.104C76.9811 145.124 76.5336 145.056 76.1491 144.901C75.768 144.745 75.4714 144.503 75.2592 144.175C75.0471 143.847 74.9427 143.432 74.946 142.932V135.534Z" fill="#EF8435"/>
<rect x="102" y="124" width="1" height="31" fill="#EF8435"/>
<rect width="91" height="31" transform="translate(103 124)" fill="white"/>
<path d="M125.885 134.818H128.54L131.344 141.659H131.463L134.267 134.818H136.922V145H134.834V138.373H134.749L132.114 144.95H130.692L128.058 138.348H127.973V145H125.885V134.818ZM138.656 145V137.364H140.774V145H138.656ZM139.72 136.379C139.405 136.379 139.135 136.275 138.909 136.066C138.687 135.854 138.576 135.6 138.576 135.305C138.576 135.014 138.687 134.763 138.909 134.555C139.135 134.343 139.405 134.237 139.72 134.237C140.035 134.237 140.303 134.343 140.525 134.555C140.75 134.763 140.863 135.014 140.863 135.305C140.863 135.6 140.75 135.854 140.525 136.066C140.303 136.275 140.035 136.379 139.72 136.379ZM145.284 145.124C144.704 145.124 144.179 144.975 143.708 144.677C143.241 144.375 142.87 143.933 142.594 143.349C142.323 142.763 142.187 142.044 142.187 141.192C142.187 140.317 142.328 139.589 142.609 139.009C142.891 138.426 143.266 137.99 143.733 137.702C144.204 137.41 144.719 137.264 145.279 137.264C145.707 137.264 146.063 137.337 146.348 137.483C146.636 137.625 146.868 137.804 147.044 138.02C147.223 138.232 147.359 138.441 147.452 138.646H147.516V134.818H149.629V145H147.541V143.777H147.452C147.352 143.989 147.211 144.2 147.029 144.408C146.85 144.614 146.616 144.785 146.328 144.92C146.043 145.056 145.695 145.124 145.284 145.124ZM145.955 143.439C146.297 143.439 146.585 143.346 146.82 143.161C147.059 142.972 147.241 142.708 147.367 142.37C147.496 142.032 147.561 141.636 147.561 141.182C147.561 140.728 147.498 140.333 147.372 139.999C147.246 139.664 147.064 139.405 146.825 139.223C146.587 139.041 146.297 138.95 145.955 138.95C145.607 138.95 145.314 139.044 145.075 139.233C144.837 139.422 144.656 139.684 144.533 140.018C144.411 140.353 144.349 140.741 144.349 141.182C144.349 141.626 144.411 142.019 144.533 142.36C144.659 142.698 144.84 142.963 145.075 143.156C145.314 143.344 145.607 143.439 145.955 143.439ZM154.184 145.124C153.604 145.124 153.079 144.975 152.608 144.677C152.141 144.375 151.77 143.933 151.495 143.349C151.223 142.763 151.087 142.044 151.087 141.192C151.087 140.317 151.228 139.589 151.51 139.009C151.791 138.426 152.166 137.99 152.633 137.702C153.104 137.41 153.619 137.264 154.18 137.264C154.607 137.264 154.963 137.337 155.248 137.483C155.537 137.625 155.769 137.804 155.944 138.02C156.123 138.232 156.259 138.441 156.352 138.646H156.417V134.818H158.53V145H156.442V143.777H156.352C156.253 143.989 156.112 144.2 155.93 144.408C155.751 144.614 155.517 144.785 155.229 144.92C154.943 145.056 154.595 145.124 154.184 145.124ZM154.856 143.439C155.197 143.439 155.485 143.346 155.721 143.161C155.959 142.972 156.142 142.708 156.268 142.37C156.397 142.032 156.461 141.636 156.461 141.182C156.461 140.728 156.398 140.333 156.273 139.999C156.147 139.664 155.964 139.405 155.726 139.223C155.487 139.041 155.197 138.95 154.856 138.95C154.508 138.95 154.214 139.044 153.976 139.233C153.737 139.422 153.556 139.684 153.434 140.018C153.311 140.353 153.25 140.741 153.25 141.182C153.25 141.626 153.311 142.019 153.434 142.36C153.56 142.698 153.74 142.963 153.976 143.156C154.214 143.344 154.508 143.439 154.856 143.439ZM162.389 134.818V145H160.271V134.818H162.389ZM167.566 145.149C166.78 145.149 166.104 144.99 165.537 144.672C164.974 144.35 164.539 143.896 164.235 143.31C163.93 142.72 163.777 142.022 163.777 141.217C163.777 140.431 163.93 139.742 164.235 139.148C164.539 138.555 164.969 138.093 165.522 137.761C166.079 137.43 166.732 137.264 167.481 137.264C167.985 137.264 168.454 137.345 168.888 137.508C169.325 137.667 169.707 137.907 170.031 138.229C170.36 138.55 170.615 138.955 170.797 139.442C170.979 139.926 171.07 140.492 171.07 141.142V141.724H164.622V140.411H169.077C169.077 140.106 169.011 139.836 168.878 139.601C168.745 139.366 168.561 139.182 168.326 139.049C168.094 138.913 167.824 138.845 167.516 138.845C167.194 138.845 166.909 138.92 166.661 139.069C166.415 139.215 166.223 139.412 166.084 139.661C165.945 139.906 165.874 140.179 165.87 140.481V141.729C165.87 142.107 165.94 142.433 166.079 142.708C166.222 142.983 166.422 143.195 166.681 143.344C166.939 143.494 167.246 143.568 167.6 143.568C167.836 143.568 168.051 143.535 168.247 143.469C168.442 143.402 168.61 143.303 168.749 143.17C168.888 143.038 168.994 142.875 169.067 142.683L171.026 142.812C170.926 143.283 170.722 143.694 170.414 144.045C170.109 144.393 169.715 144.665 169.231 144.861C168.75 145.053 168.195 145.149 167.566 145.149Z" fill="#EF8435"/>
<rect x="194" y="124" width="1" height="31" fill="#EF8435"/>
<rect width="74" height="31" transform="translate(195 124)" fill="white"/>
<path d="M217.885 145V134.818H220.038V143.225H224.403V145H217.885ZM227.966 145.144C227.479 145.144 227.045 145.06 226.664 144.891C226.282 144.718 225.981 144.465 225.759 144.13C225.54 143.792 225.431 143.371 225.431 142.867C225.431 142.443 225.508 142.087 225.664 141.798C225.82 141.51 226.032 141.278 226.301 141.102C226.569 140.927 226.874 140.794 227.215 140.705C227.56 140.615 227.921 140.552 228.299 140.516C228.743 140.469 229.101 140.426 229.373 140.386C229.645 140.343 229.842 140.28 229.965 140.197C230.087 140.115 230.149 139.992 230.149 139.83V139.8C230.149 139.485 230.049 139.241 229.85 139.069C229.655 138.897 229.376 138.81 229.015 138.81C228.634 138.81 228.331 138.895 228.105 139.064C227.88 139.23 227.731 139.438 227.658 139.69L225.699 139.531C225.798 139.067 225.994 138.666 226.286 138.328C226.577 137.987 226.954 137.725 227.414 137.543C227.878 137.357 228.415 137.264 229.025 137.264C229.449 137.264 229.855 137.314 230.243 137.413C230.634 137.513 230.981 137.667 231.282 137.876C231.587 138.085 231.827 138.353 232.003 138.681C232.179 139.006 232.267 139.395 232.267 139.849V145H230.258V143.941H230.198C230.076 144.18 229.912 144.39 229.706 144.572C229.501 144.751 229.254 144.892 228.965 144.995C228.677 145.094 228.344 145.144 227.966 145.144ZM228.573 143.683C228.884 143.683 229.159 143.621 229.398 143.499C229.637 143.373 229.824 143.204 229.96 142.991C230.096 142.779 230.164 142.539 230.164 142.271V141.46C230.097 141.503 230.006 141.543 229.89 141.58C229.777 141.613 229.65 141.644 229.507 141.674C229.365 141.701 229.222 141.725 229.08 141.749C228.937 141.768 228.808 141.787 228.692 141.803C228.443 141.84 228.226 141.898 228.041 141.977C227.855 142.057 227.711 142.165 227.608 142.3C227.505 142.433 227.454 142.599 227.454 142.798C227.454 143.086 227.558 143.306 227.767 143.459C227.979 143.608 228.248 143.683 228.573 143.683ZM240.263 139.541L238.324 139.661C238.291 139.495 238.22 139.346 238.111 139.213C238.001 139.077 237.857 138.969 237.678 138.89C237.502 138.807 237.292 138.766 237.047 138.766C236.719 138.766 236.442 138.835 236.216 138.974C235.991 139.11 235.878 139.293 235.878 139.521C235.878 139.704 235.951 139.858 236.097 139.984C236.243 140.11 236.493 140.211 236.848 140.287L238.23 140.565C238.972 140.718 239.526 140.963 239.89 141.301C240.255 141.639 240.437 142.083 240.437 142.634C240.437 143.134 240.29 143.573 239.995 143.951C239.703 144.329 239.302 144.624 238.792 144.836C238.285 145.045 237.7 145.149 237.037 145.149C236.026 145.149 235.22 144.939 234.621 144.518C234.024 144.094 233.674 143.517 233.572 142.788L235.655 142.678C235.718 142.987 235.87 143.222 236.112 143.384C236.354 143.543 236.664 143.623 237.042 143.623C237.413 143.623 237.711 143.552 237.937 143.409C238.165 143.263 238.281 143.076 238.285 142.847C238.281 142.655 238.2 142.498 238.041 142.375C237.882 142.249 237.637 142.153 237.305 142.087L235.983 141.823C235.237 141.674 234.682 141.415 234.317 141.048C233.956 140.68 233.775 140.211 233.775 139.641C233.775 139.15 233.908 138.728 234.173 138.373C234.442 138.018 234.818 137.745 235.302 137.553C235.789 137.36 236.359 137.264 237.012 137.264C237.976 137.264 238.735 137.468 239.289 137.876C239.846 138.283 240.171 138.839 240.263 139.541ZM245.833 137.364V138.955H241.234V137.364H245.833ZM242.278 135.534H244.396V142.653C244.396 142.849 244.426 143.001 244.485 143.111C244.545 143.217 244.628 143.291 244.734 143.335C244.843 143.378 244.969 143.399 245.112 143.399C245.211 143.399 245.311 143.391 245.41 143.374C245.51 143.354 245.586 143.339 245.639 143.33L245.972 144.906C245.866 144.939 245.717 144.977 245.525 145.02C245.332 145.066 245.099 145.094 244.824 145.104C244.313 145.124 243.866 145.056 243.481 144.901C243.1 144.745 242.803 144.503 242.591 144.175C242.379 143.847 242.275 143.432 242.278 142.932V135.534Z" fill="#EF8435"/>
</g>
<rect x="26.5" y="124.5" width="242" height="30" rx="3.5" stroke="#EF8435"/>
<rect x="0.5" y="0.5" width="295" height="209" rx="7.5" stroke="#333333"/>
<defs>
<clipPath id="clip0_2192_73112">
<rect x="26" y="56" width="243" height="31" rx="4" fill="white"/>
</clipPath>
<clipPath id="clip1_2192_73112">
<rect x="26" y="124" width="243" height="31" rx="4" fill="white"/>
</clipPath>
</defs>
</svg>
