<svg width="297" height="210" viewBox="0 0 297 210" fill="none" xmlns="http://www.w3.org/2000/svg">
<rect x="0.757812" y="0.5" width="295" height="209" rx="7.5" fill="#111111"/>
<rect width="106" height="56" transform="translate(33.2578 42)" fill="#EF8435"/>
<path d="M60.2578 77V71H54.2578V69H60.2578V63H62.2578V69H68.2578V71H62.2578V77H60.2578Z" fill="white"/>
<path d="M86.1428 75.5V65.3182H88.2955V73.7251H92.6605V75.5H86.1428ZM96.2239 75.6442C95.7367 75.6442 95.3025 75.5597 94.9213 75.3906C94.5402 75.2183 94.2386 74.9647 94.0165 74.63C93.7978 74.2919 93.6884 73.871 93.6884 73.3672C93.6884 72.9429 93.7663 72.5866 93.9221 72.2983C94.0778 72.0099 94.29 71.7779 94.5584 71.6023C94.8269 71.4266 95.1318 71.294 95.4732 71.2045C95.8179 71.1151 96.1792 71.0521 96.557 71.0156C97.0011 70.9692 97.3591 70.9261 97.6309 70.8864C97.9026 70.8433 98.0998 70.7803 98.2225 70.6974C98.3451 70.6146 98.4064 70.492 98.4064 70.3295V70.2997C98.4064 69.9848 98.307 69.7412 98.1081 69.5689C97.9126 69.3965 97.6342 69.3104 97.2729 69.3104C96.8917 69.3104 96.5885 69.3949 96.3631 69.5639C96.1377 69.7296 95.9886 69.9384 95.9157 70.1903L93.9569 70.0312C94.0563 69.5672 94.2518 69.1662 94.5435 68.8281C94.8352 68.4867 95.2114 68.2249 95.6721 68.0426C96.1361 67.857 96.673 67.7642 97.2828 67.7642C97.7071 67.7642 98.1131 67.8139 98.5009 67.9134C98.892 68.0128 99.2383 68.1669 99.54 68.3757C99.8449 68.5845 100.085 68.853 100.261 69.1811C100.436 69.5059 100.524 69.8954 100.524 70.3494V75.5H98.5158V74.4411H98.4561C98.3335 74.6797 98.1694 74.8902 97.964 75.0724C97.7585 75.2514 97.5115 75.3923 97.2232 75.495C96.9348 75.5945 96.6017 75.6442 96.2239 75.6442ZM96.8304 74.1825C97.142 74.1825 97.4171 74.1212 97.6557 73.9986C97.8944 73.8726 98.0816 73.7036 98.2175 73.4915C98.3534 73.2794 98.4213 73.0391 98.4213 72.7706V71.9602C98.3551 72.0033 98.2639 72.0431 98.1479 72.0795C98.0352 72.1127 97.9076 72.1442 97.7651 72.174C97.6226 72.2005 97.4801 72.2254 97.3375 72.2486C97.195 72.2685 97.0658 72.2867 96.9498 72.3033C96.7012 72.3397 96.4841 72.3977 96.2985 72.4773C96.1129 72.5568 95.9687 72.6645 95.8659 72.8004C95.7632 72.933 95.7118 73.0987 95.7118 73.2976C95.7118 73.5859 95.8162 73.8063 96.025 73.9588C96.2372 74.108 96.5056 74.1825 96.8304 74.1825ZM102.207 75.5V65.3182H104.325V69.1463H104.39C104.483 68.9408 104.617 68.732 104.792 68.5199C104.971 68.3045 105.203 68.1255 105.488 67.983C105.777 67.8371 106.135 67.7642 106.562 67.7642C107.119 67.7642 107.633 67.91 108.104 68.2017C108.574 68.4901 108.95 68.9259 109.232 69.5092C109.514 70.0893 109.655 70.8168 109.655 71.6918C109.655 72.5436 109.517 73.2628 109.242 73.8494C108.97 74.4328 108.599 74.8752 108.128 75.1768C107.661 75.4751 107.137 75.6243 106.557 75.6243C106.146 75.6243 105.797 75.5563 105.508 75.4205C105.223 75.2846 104.99 75.1139 104.807 74.9084C104.625 74.6996 104.486 74.4891 104.39 74.277H104.295V75.5H102.207ZM104.28 71.6818C104.28 72.1359 104.343 72.532 104.469 72.87C104.595 73.2081 104.778 73.4716 105.016 73.6605C105.255 73.8461 105.545 73.9389 105.886 73.9389C106.231 73.9389 106.523 73.8445 106.761 73.6555C107 73.4633 107.18 73.1982 107.303 72.8601C107.429 72.5187 107.492 72.1259 107.492 71.6818C107.492 71.241 107.431 70.8532 107.308 70.5185C107.185 70.1837 107.005 69.9219 106.766 69.733C106.528 69.544 106.234 69.4496 105.886 69.4496C105.541 69.4496 105.25 69.5407 105.011 69.723C104.776 69.9053 104.595 70.1638 104.469 70.4986C104.343 70.8333 104.28 71.2277 104.28 71.6818ZM114.548 75.6491C113.762 75.6491 113.086 75.4901 112.52 75.1719C111.956 74.8504 111.522 74.3963 111.217 73.8097C110.912 73.2197 110.76 72.522 110.76 71.7166C110.76 70.9311 110.912 70.2417 111.217 69.6484C111.522 69.0552 111.951 68.5928 112.505 68.2614C113.061 67.9299 113.714 67.7642 114.463 67.7642C114.967 67.7642 115.436 67.8454 115.87 68.0078C116.308 68.1669 116.689 68.4072 117.014 68.7287C117.342 69.0502 117.597 69.4545 117.779 69.9418C117.962 70.4257 118.053 70.9924 118.053 71.642V72.2237H111.605V70.9112H116.059C116.059 70.6063 115.993 70.3362 115.86 70.1009C115.728 69.8655 115.544 69.6816 115.309 69.549C115.077 69.4131 114.806 69.3452 114.498 69.3452C114.177 69.3452 113.892 69.4197 113.643 69.5689C113.398 69.7147 113.206 69.9119 113.066 70.1605C112.927 70.4058 112.856 70.6792 112.853 70.9808V72.2287C112.853 72.6065 112.922 72.933 113.061 73.2081C113.204 73.4832 113.404 73.6953 113.663 73.8445C113.922 73.9936 114.228 74.0682 114.583 74.0682C114.818 74.0682 115.033 74.035 115.229 73.9688C115.425 73.9025 115.592 73.803 115.731 73.6705C115.87 73.5379 115.976 73.3755 116.049 73.1832L118.008 73.3125C117.909 73.7831 117.705 74.1941 117.397 74.5455C117.092 74.8935 116.697 75.1652 116.213 75.3608C115.733 75.553 115.178 75.6491 114.548 75.6491ZM121.553 65.3182V75.5H119.435V65.3182H121.553Z" fill="white"/>
<rect width="110" height="56" transform="translate(158.258 42)" fill="#EF8435"/>
<path d="M185.258 77V71H179.258V69H185.258V63H187.258V69H193.258V71H187.258V77H185.258Z" fill="white"/>
<path d="M211.536 75.5V63.8636H213.292V73.9886H218.565V75.5H211.536ZM222.971 75.6932C222.418 75.6932 221.918 75.5909 221.471 75.3864C221.024 75.178 220.67 74.8769 220.408 74.483C220.151 74.089 220.022 73.6061 220.022 73.0341C220.022 72.5417 220.117 72.1364 220.306 71.8182C220.496 71.5 220.751 71.2481 221.073 71.0625C221.395 70.8769 221.755 70.7367 222.153 70.642C222.55 70.5473 222.956 70.4754 223.369 70.4261C223.891 70.3655 224.316 70.3163 224.641 70.2784C224.967 70.2367 225.204 70.1705 225.352 70.0795C225.499 69.9886 225.573 69.8409 225.573 69.6364V69.5966C225.573 69.1004 225.433 68.7159 225.153 68.4432C224.876 68.1705 224.463 68.0341 223.914 68.0341C223.342 68.0341 222.891 68.161 222.562 68.4148C222.236 68.6648 222.011 68.9432 221.886 69.25L220.289 68.8864C220.478 68.3561 220.755 67.928 221.119 67.6023C221.486 67.2727 221.908 67.0341 222.386 66.8864C222.863 66.7348 223.365 66.6591 223.891 66.6591C224.24 66.6591 224.609 66.7008 224.999 66.7841C225.393 66.8636 225.761 67.0114 226.102 67.2273C226.446 67.4432 226.728 67.7519 226.948 68.1534C227.168 68.5511 227.278 69.0682 227.278 69.7045V75.5H225.619V74.3068H225.55C225.441 74.5265 225.276 74.7424 225.056 74.9545C224.836 75.1667 224.554 75.3428 224.21 75.483C223.865 75.6231 223.452 75.6932 222.971 75.6932ZM223.34 74.3295C223.81 74.3295 224.211 74.2367 224.545 74.0511C224.882 73.8655 225.138 73.6231 225.312 73.3239C225.49 73.0208 225.579 72.697 225.579 72.3523V71.2273C225.518 71.2879 225.401 71.3447 225.227 71.3977C225.056 71.447 224.861 71.4905 224.641 71.5284C224.422 71.5625 224.208 71.5947 223.999 71.625C223.791 71.6515 223.617 71.6742 223.477 71.6932C223.147 71.7348 222.846 71.8049 222.573 71.9034C222.304 72.0019 222.088 72.1439 221.925 72.3295C221.766 72.5114 221.687 72.7538 221.687 73.0568C221.687 73.4773 221.842 73.7955 222.153 74.0114C222.463 74.2235 222.859 74.3295 223.34 74.3295ZM229.677 75.5V63.8636H231.376V68.1875H231.478C231.576 68.0057 231.719 67.7955 231.904 67.5568C232.09 67.3182 232.347 67.1098 232.677 66.9318C233.006 66.75 233.442 66.6591 233.984 66.6591C234.688 66.6591 235.317 66.8371 235.87 67.1932C236.423 67.5492 236.857 68.0625 237.171 68.733C237.489 69.4034 237.648 70.2102 237.648 71.1534C237.648 72.0966 237.491 72.9053 237.177 73.5795C236.862 74.25 236.431 74.767 235.881 75.1307C235.332 75.4905 234.705 75.6705 234.001 75.6705C233.47 75.6705 233.037 75.5814 232.7 75.4034C232.366 75.2254 232.105 75.017 231.915 74.7784C231.726 74.5398 231.58 74.3277 231.478 74.142H231.336V75.5H229.677ZM231.342 71.1364C231.342 71.75 231.431 72.2879 231.609 72.75C231.787 73.2121 232.044 73.5739 232.381 73.8352C232.719 74.0928 233.131 74.2216 233.62 74.2216C234.128 74.2216 234.552 74.0871 234.893 73.8182C235.234 73.5455 235.491 73.1761 235.665 72.7102C235.844 72.2443 235.933 71.7197 235.933 71.1364C235.933 70.5606 235.845 70.0436 235.671 69.5852C235.501 69.1269 235.243 68.7652 234.898 68.5C234.558 68.2348 234.131 68.1023 233.62 68.1023C233.128 68.1023 232.711 68.2292 232.37 68.483C232.033 68.7367 231.777 69.0909 231.603 69.5455C231.429 70 231.342 70.5303 231.342 71.1364ZM243.317 75.6761C242.458 75.6761 241.717 75.4924 241.096 75.125C240.478 74.7538 240.001 74.233 239.664 73.5625C239.331 72.8883 239.164 72.0985 239.164 71.1932C239.164 70.2992 239.331 69.5114 239.664 68.8295C240.001 68.1477 240.471 67.6155 241.073 67.233C241.679 66.8504 242.388 66.6591 243.198 66.6591C243.691 66.6591 244.168 66.7405 244.63 66.9034C245.092 67.0663 245.507 67.322 245.874 67.6705C246.242 68.0189 246.531 68.4716 246.744 69.0284C246.956 69.5814 247.062 70.2538 247.062 71.0455V71.6477H240.124V70.375H245.397C245.397 69.928 245.306 69.5322 245.124 69.1875C244.942 68.839 244.687 68.5644 244.357 68.3636C244.031 68.1629 243.649 68.0625 243.21 68.0625C242.732 68.0625 242.316 68.1799 241.96 68.4148C241.607 68.6458 241.335 68.9489 241.141 69.3239C240.952 69.6951 240.857 70.0985 240.857 70.5341V71.5284C240.857 72.1117 240.96 72.608 241.164 73.017C241.372 73.4261 241.662 73.7386 242.033 73.9545C242.405 74.1667 242.838 74.2727 243.335 74.2727C243.656 74.2727 243.95 74.2273 244.215 74.1364C244.48 74.0417 244.71 73.9015 244.903 73.7159C245.096 73.5303 245.244 73.3011 245.346 73.0284L246.954 73.3182C246.825 73.7917 246.594 74.2064 246.261 74.5625C245.931 74.9148 245.516 75.1894 245.016 75.3864C244.52 75.5795 243.954 75.6761 243.317 75.6761ZM250.646 63.8636V75.5H248.947V63.8636H250.646Z" fill="white"/>
<rect width="115" height="56" transform="translate(90.2578 125)" fill="#EF8435"/>
<path d="M117.258 160V154H111.258V152H117.258V146H119.258V152H125.258V154H119.258V160H117.258Z" fill="white"/>
<path d="M143.696 160V146.909H145.671V158.3H151.603V160H143.696ZM156.56 160.217C155.938 160.217 155.375 160.102 154.873 159.872C154.37 159.638 153.971 159.299 153.677 158.856C153.387 158.413 153.243 157.869 153.243 157.226C153.243 156.672 153.349 156.216 153.562 155.858C153.775 155.5 154.063 155.217 154.425 155.008C154.787 154.799 155.192 154.641 155.64 154.535C156.087 154.428 156.543 154.347 157.007 154.292C157.596 154.224 158.073 154.168 158.439 154.126C158.806 154.079 159.072 154.004 159.238 153.902C159.404 153.8 159.488 153.634 159.488 153.403V153.359C159.488 152.8 159.33 152.368 159.015 152.061C158.703 151.754 158.239 151.601 157.621 151.601C156.978 151.601 156.471 151.744 156.1 152.029C155.733 152.31 155.48 152.624 155.339 152.969L153.543 152.56C153.756 151.963 154.067 151.482 154.476 151.115C154.89 150.744 155.365 150.476 155.902 150.31C156.439 150.139 157.003 150.054 157.596 150.054C157.988 150.054 158.403 150.101 158.842 150.195C159.285 150.284 159.699 150.45 160.082 150.693C160.47 150.936 160.787 151.283 161.034 151.735C161.282 152.183 161.405 152.764 161.405 153.48V160H159.539V158.658H159.462C159.338 158.905 159.153 159.148 158.906 159.386C158.659 159.625 158.341 159.823 157.953 159.981C157.566 160.138 157.101 160.217 156.56 160.217ZM156.975 158.683C157.504 158.683 157.956 158.579 158.331 158.37C158.71 158.161 158.998 157.888 159.194 157.552C159.394 157.211 159.494 156.847 159.494 156.459V155.193C159.426 155.261 159.294 155.325 159.098 155.385C158.906 155.44 158.686 155.489 158.439 155.532C158.192 155.57 157.951 155.607 157.717 155.641C157.483 155.67 157.287 155.696 157.129 155.717C156.758 155.764 156.419 155.843 156.113 155.954C155.81 156.065 155.567 156.224 155.384 156.433C155.205 156.638 155.115 156.911 155.115 157.251C155.115 157.724 155.29 158.082 155.64 158.325C155.989 158.564 156.434 158.683 156.975 158.683ZM164.104 160V146.909H166.015V151.773H166.131C166.241 151.569 166.401 151.332 166.61 151.064C166.819 150.795 167.108 150.561 167.479 150.361C167.85 150.156 168.34 150.054 168.949 150.054C169.742 150.054 170.449 150.254 171.072 150.655C171.694 151.055 172.182 151.633 172.535 152.387C172.893 153.141 173.072 154.049 173.072 155.11C173.072 156.171 172.895 157.081 172.542 157.839C172.188 158.594 171.702 159.175 171.084 159.585C170.466 159.989 169.761 160.192 168.969 160.192C168.372 160.192 167.884 160.092 167.505 159.891C167.13 159.691 166.836 159.457 166.623 159.188C166.41 158.92 166.246 158.681 166.131 158.472H165.971V160H164.104ZM165.977 155.091C165.977 155.781 166.077 156.386 166.278 156.906C166.478 157.426 166.768 157.833 167.147 158.127C167.526 158.417 167.991 158.562 168.54 158.562C169.111 158.562 169.589 158.411 169.972 158.108C170.356 157.801 170.645 157.386 170.841 156.862C171.042 156.337 171.142 155.747 171.142 155.091C171.142 154.443 171.044 153.862 170.848 153.346C170.656 152.83 170.366 152.423 169.979 152.125C169.595 151.827 169.116 151.678 168.54 151.678C167.986 151.678 167.518 151.82 167.134 152.106C166.755 152.391 166.467 152.79 166.271 153.301C166.075 153.812 165.977 154.409 165.977 155.091ZM179.45 160.198C178.483 160.198 177.65 159.991 176.951 159.578C176.256 159.161 175.719 158.575 175.34 157.82C174.965 157.062 174.777 156.173 174.777 155.155C174.777 154.149 174.965 153.263 175.34 152.496C175.719 151.729 176.248 151.13 176.925 150.7C177.607 150.269 178.404 150.054 179.316 150.054C179.87 150.054 180.407 150.146 180.926 150.329C181.446 150.512 181.913 150.8 182.326 151.192C182.74 151.584 183.066 152.093 183.304 152.719C183.543 153.342 183.662 154.098 183.662 154.989V155.666H175.858V154.234H181.789C181.789 153.732 181.687 153.286 181.483 152.898C181.278 152.506 180.99 152.197 180.62 151.972C180.253 151.746 179.823 151.633 179.328 151.633C178.792 151.633 178.323 151.765 177.922 152.029C177.526 152.289 177.219 152.63 177.002 153.052C176.789 153.469 176.682 153.923 176.682 154.413V155.532C176.682 156.188 176.797 156.746 177.027 157.207C177.262 157.667 177.588 158.018 178.005 158.261C178.423 158.5 178.911 158.619 179.469 158.619C179.831 158.619 180.162 158.568 180.46 158.466C180.758 158.359 181.016 158.202 181.233 157.993C181.451 157.784 181.617 157.526 181.732 157.219L183.541 157.545C183.396 158.078 183.136 158.545 182.761 158.945C182.39 159.342 181.924 159.651 181.361 159.872C180.803 160.089 180.166 160.198 179.45 160.198ZM187.694 146.909V160H185.783V146.909H187.694Z" fill="white"/>
<rect x="0.757812" y="0.5" width="295" height="209" rx="7.5" stroke="#333333"/>
</svg>
