<svg width="297" height="210" viewBox="0 0 297 210" fill="none" xmlns="http://www.w3.org/2000/svg">
<rect x="1.125" y="0.5" width="295" height="209" rx="7.5" fill="#111111"/>
<g clip-path="url(#clip0_2192_73297)">
<rect width="91" height="31" transform="translate(81.625 30)" fill="#EF8435"/>
<rect width="91" height="31" transform="translate(81.625 30)" fill="#EF8435"/>
<path d="M104.51 51V40.8182H108.587C109.336 40.8182 109.96 40.9292 110.461 41.1513C110.961 41.3733 111.338 41.6816 111.589 42.076C111.841 42.4671 111.967 42.9179 111.967 43.4283C111.967 43.826 111.888 44.1757 111.729 44.4773C111.57 44.7756 111.351 45.0208 111.072 45.2131C110.797 45.402 110.482 45.5362 110.128 45.6158V45.7152C110.516 45.7318 110.879 45.8411 111.217 46.0433C111.558 46.2455 111.835 46.5289 112.047 46.8935C112.259 47.2547 112.365 47.6856 112.365 48.1861C112.365 48.7263 112.231 49.2086 111.962 49.6328C111.697 50.0537 111.304 50.3868 110.784 50.6321C110.264 50.8774 109.622 51 108.86 51H104.51ZM106.663 49.2401H108.418C109.018 49.2401 109.455 49.1257 109.73 48.897C110.005 48.665 110.143 48.3568 110.143 47.9723C110.143 47.6906 110.075 47.442 109.939 47.2266C109.803 47.0111 109.609 46.8421 109.357 46.7195C109.109 46.5968 108.812 46.5355 108.467 46.5355H106.663V49.2401ZM106.663 45.0788H108.259C108.554 45.0788 108.815 45.0275 109.044 44.9247C109.276 44.8187 109.458 44.6695 109.591 44.4773C109.727 44.285 109.795 44.0547 109.795 43.7862C109.795 43.4183 109.664 43.1217 109.402 42.8963C109.143 42.6709 108.776 42.5582 108.298 42.5582H106.663V45.0788ZM118.623 47.7486V43.3636H120.741V51H118.708V49.6129H118.628C118.456 50.0604 118.169 50.42 117.768 50.6918C117.37 50.9635 116.885 51.0994 116.311 51.0994C115.801 51.0994 115.352 50.9834 114.964 50.7514C114.576 50.5194 114.273 50.1896 114.054 49.7621C113.839 49.3345 113.729 48.8224 113.726 48.2259V43.3636H115.844V47.848C115.847 48.2988 115.968 48.6551 116.207 48.9169C116.445 49.1787 116.765 49.3097 117.166 49.3097C117.422 49.3097 117.66 49.2517 117.882 49.1357C118.104 49.0163 118.283 48.8407 118.419 48.6087C118.558 48.3767 118.626 48.09 118.623 47.7486ZM126.497 43.3636V44.9545H121.898V43.3636H126.497ZM122.942 41.5341H125.06V48.6534C125.06 48.849 125.09 49.0014 125.15 49.1108C125.209 49.2169 125.292 49.2914 125.398 49.3345C125.507 49.3776 125.633 49.3991 125.776 49.3991C125.875 49.3991 125.975 49.3909 126.074 49.3743C126.174 49.3544 126.25 49.3395 126.303 49.3295L126.636 50.9055C126.53 50.9387 126.381 50.9768 126.189 51.0199C125.996 51.0663 125.763 51.0945 125.488 51.1044C124.977 51.1243 124.53 51.0563 124.145 50.9006C123.764 50.7448 123.467 50.5028 123.255 50.1747C123.043 49.8466 122.939 49.4323 122.942 48.9318V41.5341ZM131.938 43.3636V44.9545H127.339V43.3636H131.938ZM128.384 41.5341H130.501V48.6534C130.501 48.849 130.531 49.0014 130.591 49.1108C130.651 49.2169 130.733 49.2914 130.839 49.3345C130.949 49.3776 131.075 49.3991 131.217 49.3991C131.317 49.3991 131.416 49.3909 131.516 49.3743C131.615 49.3544 131.691 49.3395 131.744 49.3295L132.077 50.9055C131.971 50.9387 131.822 50.9768 131.63 51.0199C131.438 51.0663 131.204 51.0945 130.929 51.1044C130.419 51.1243 129.971 51.0563 129.587 50.9006C129.205 50.7448 128.909 50.5028 128.697 50.1747C128.485 49.8466 128.38 49.4323 128.384 48.9318V41.5341ZM136.686 51.1491C135.914 51.1491 135.246 50.9851 134.683 50.657C134.122 50.3255 133.69 49.8648 133.385 49.2749C133.08 48.6816 132.928 47.9938 132.928 47.2116C132.928 46.4228 133.08 45.7334 133.385 45.1435C133.69 44.5502 134.122 44.0895 134.683 43.7614C135.246 43.4299 135.914 43.2642 136.686 43.2642C137.458 43.2642 138.125 43.4299 138.685 43.7614C139.248 44.0895 139.682 44.5502 139.987 45.1435C140.292 45.7334 140.445 46.4228 140.445 47.2116C140.445 47.9938 140.292 48.6816 139.987 49.2749C139.682 49.8648 139.248 50.3255 138.685 50.657C138.125 50.9851 137.458 51.1491 136.686 51.1491ZM136.696 49.5085C137.047 49.5085 137.341 49.4091 137.576 49.2102C137.811 49.008 137.989 48.733 138.108 48.3849C138.231 48.0369 138.292 47.6409 138.292 47.1967C138.292 46.7526 138.231 46.3565 138.108 46.0085C137.989 45.6605 137.811 45.3854 137.576 45.1832C137.341 44.9811 137.047 44.88 136.696 44.88C136.341 44.88 136.043 44.9811 135.801 45.1832C135.563 45.3854 135.382 45.6605 135.259 46.0085C135.14 46.3565 135.08 46.7526 135.08 47.1967C135.08 47.6409 135.14 48.0369 135.259 48.3849C135.382 48.733 135.563 49.008 135.801 49.2102C136.043 49.4091 136.341 49.5085 136.696 49.5085ZM143.94 46.5852V51H141.822V43.3636H143.84V44.7109H143.93C144.099 44.2668 144.382 43.9155 144.78 43.657C145.178 43.3951 145.66 43.2642 146.227 43.2642C146.757 43.2642 147.219 43.3802 147.614 43.6122C148.008 43.8442 148.315 44.1757 148.533 44.6065C148.752 45.0341 148.862 45.5445 148.862 46.1378V51H146.744V46.5156C146.747 46.0483 146.628 45.6837 146.386 45.4219C146.144 45.1567 145.811 45.0241 145.386 45.0241C145.101 45.0241 144.849 45.0855 144.631 45.2081C144.415 45.3307 144.246 45.5097 144.124 45.745C144.004 45.977 143.943 46.2571 143.94 46.5852Z" fill="white"/>
<rect x="172.625" y="30" width="1" height="33" fill="#BF6A2A"/>
<rect width="32" height="33" transform="translate(173.625 30)" fill="#EF8435"/>
<path d="M197.125 43.4062L189.625 51.1406L182.125 43.4062" stroke="white" stroke-width="1.5" stroke-linecap="round" stroke-linejoin="round"/>
</g>
<g clip-path="url(#clip1_2192_73297)">
<rect width="91" height="31" transform="translate(83.625 82)" fill="#EF8435"/>
<rect width="91" height="31" transform="translate(83.625 82)" fill="#EF8435"/>
<path d="M106.51 103V92.8182H110.587C111.336 92.8182 111.96 92.9292 112.461 93.1513C112.961 93.3733 113.338 93.6816 113.589 94.076C113.841 94.4671 113.967 94.9179 113.967 95.4283C113.967 95.826 113.888 96.1757 113.729 96.4773C113.57 96.7756 113.351 97.0208 113.072 97.2131C112.797 97.402 112.482 97.5362 112.128 97.6158V97.7152C112.516 97.7318 112.879 97.8411 113.217 98.0433C113.558 98.2455 113.835 98.5289 114.047 98.8935C114.259 99.2547 114.365 99.6856 114.365 100.186C114.365 100.726 114.231 101.209 113.962 101.633C113.697 102.054 113.304 102.387 112.784 102.632C112.264 102.877 111.622 103 110.86 103H106.51ZM108.663 101.24H110.418C111.018 101.24 111.455 101.126 111.73 100.897C112.005 100.665 112.143 100.357 112.143 99.9723C112.143 99.6906 112.075 99.442 111.939 99.2266C111.803 99.0111 111.609 98.8421 111.357 98.7195C111.109 98.5968 110.812 98.5355 110.467 98.5355H108.663V101.24ZM108.663 97.0788H110.259C110.554 97.0788 110.815 97.0275 111.044 96.9247C111.276 96.8187 111.458 96.6695 111.591 96.4773C111.727 96.285 111.795 96.0547 111.795 95.7862C111.795 95.4183 111.664 95.1217 111.402 94.8963C111.143 94.6709 110.776 94.5582 110.298 94.5582H108.663V97.0788ZM120.623 99.7486V95.3636H122.741V103H120.708V101.613H120.628C120.456 102.06 120.169 102.42 119.768 102.692C119.37 102.964 118.885 103.099 118.311 103.099C117.801 103.099 117.352 102.983 116.964 102.751C116.576 102.519 116.273 102.19 116.054 101.762C115.839 101.335 115.729 100.822 115.726 100.226V95.3636H117.844V99.848C117.847 100.299 117.968 100.655 118.207 100.917C118.445 101.179 118.765 101.31 119.166 101.31C119.422 101.31 119.66 101.252 119.882 101.136C120.104 101.016 120.283 100.841 120.419 100.609C120.558 100.377 120.626 100.09 120.623 99.7486ZM128.497 95.3636V96.9545H123.898V95.3636H128.497ZM124.942 93.5341H127.06V100.653C127.06 100.849 127.09 101.001 127.15 101.111C127.209 101.217 127.292 101.291 127.398 101.335C127.507 101.378 127.633 101.399 127.776 101.399C127.875 101.399 127.975 101.391 128.074 101.374C128.174 101.354 128.25 101.339 128.303 101.33L128.636 102.906C128.53 102.939 128.381 102.977 128.189 103.02C127.996 103.066 127.763 103.094 127.488 103.104C126.977 103.124 126.53 103.056 126.145 102.901C125.764 102.745 125.467 102.503 125.255 102.175C125.043 101.847 124.939 101.432 124.942 100.932V93.5341ZM133.938 95.3636V96.9545H129.339V95.3636H133.938ZM130.384 93.5341H132.501V100.653C132.501 100.849 132.531 101.001 132.591 101.111C132.651 101.217 132.733 101.291 132.839 101.335C132.949 101.378 133.075 101.399 133.217 101.399C133.317 101.399 133.416 101.391 133.516 101.374C133.615 101.354 133.691 101.339 133.744 101.33L134.077 102.906C133.971 102.939 133.822 102.977 133.63 103.02C133.438 103.066 133.204 103.094 132.929 103.104C132.419 103.124 131.971 103.056 131.587 102.901C131.205 102.745 130.909 102.503 130.697 102.175C130.485 101.847 130.38 101.432 130.384 100.932V93.5341ZM138.686 103.149C137.914 103.149 137.246 102.985 136.683 102.657C136.122 102.326 135.69 101.865 135.385 101.275C135.08 100.682 134.928 99.9938 134.928 99.2116C134.928 98.4228 135.08 97.7334 135.385 97.1435C135.69 96.5502 136.122 96.0895 136.683 95.7614C137.246 95.4299 137.914 95.2642 138.686 95.2642C139.458 95.2642 140.125 95.4299 140.685 95.7614C141.248 96.0895 141.682 96.5502 141.987 97.1435C142.292 97.7334 142.445 98.4228 142.445 99.2116C142.445 99.9938 142.292 100.682 141.987 101.275C141.682 101.865 141.248 102.326 140.685 102.657C140.125 102.985 139.458 103.149 138.686 103.149ZM138.696 101.509C139.047 101.509 139.341 101.409 139.576 101.21C139.811 101.008 139.989 100.733 140.108 100.385C140.231 100.037 140.292 99.6409 140.292 99.1967C140.292 98.7526 140.231 98.3565 140.108 98.0085C139.989 97.6605 139.811 97.3854 139.576 97.1832C139.341 96.9811 139.047 96.88 138.696 96.88C138.341 96.88 138.043 96.9811 137.801 97.1832C137.563 97.3854 137.382 97.6605 137.259 98.0085C137.14 98.3565 137.08 98.7526 137.08 99.1967C137.08 99.6409 137.14 100.037 137.259 100.385C137.382 100.733 137.563 101.008 137.801 101.21C138.043 101.409 138.341 101.509 138.696 101.509ZM145.94 98.5852V103H143.822V95.3636H145.84V96.7109H145.93C146.099 96.2668 146.382 95.9155 146.78 95.657C147.178 95.3951 147.66 95.2642 148.227 95.2642C148.757 95.2642 149.219 95.3802 149.614 95.6122C150.008 95.8442 150.315 96.1757 150.533 96.6065C150.752 97.0341 150.862 97.5445 150.862 98.1378V103H148.744V98.5156C148.747 98.0483 148.628 97.6837 148.386 97.4219C148.144 97.1567 147.811 97.0241 147.386 97.0241C147.101 97.0241 146.849 97.0855 146.631 97.2081C146.415 97.3307 146.246 97.5097 146.124 97.745C146.004 97.977 145.943 98.2571 145.94 98.5852Z" fill="white"/>
<rect x="174.625" y="82" width="1" height="32" fill="#BF6A2A"/>
<rect width="32" height="32" transform="translate(175.625 82)" fill="white"/>
<path d="M199.125 95L191.625 102.5L184.125 95" stroke="#EF8435" stroke-width="1.5" stroke-linecap="round" stroke-linejoin="round"/>
</g>
<rect x="84.125" y="82.5" width="123" height="31" rx="3.5" stroke="#EF8435"/>
<g clip-path="url(#clip2_2192_73297)">
<rect width="91" height="31" transform="translate(81.625 144)" fill="white"/>
<path d="M104.51 165V154.818H108.587C109.336 154.818 109.96 154.929 110.461 155.151C110.961 155.373 111.338 155.682 111.589 156.076C111.841 156.467 111.967 156.918 111.967 157.428C111.967 157.826 111.888 158.176 111.729 158.477C111.57 158.776 111.351 159.021 111.072 159.213C110.797 159.402 110.482 159.536 110.128 159.616V159.715C110.516 159.732 110.879 159.841 111.217 160.043C111.558 160.246 111.835 160.529 112.047 160.893C112.259 161.255 112.365 161.686 112.365 162.186C112.365 162.726 112.231 163.209 111.962 163.633C111.697 164.054 111.304 164.387 110.784 164.632C110.264 164.877 109.622 165 108.86 165H104.51ZM106.663 163.24H108.418C109.018 163.24 109.455 163.126 109.73 162.897C110.005 162.665 110.143 162.357 110.143 161.972C110.143 161.691 110.075 161.442 109.939 161.227C109.803 161.011 109.609 160.842 109.357 160.719C109.109 160.597 108.812 160.536 108.467 160.536H106.663V163.24ZM106.663 159.079H108.259C108.554 159.079 108.815 159.027 109.044 158.925C109.276 158.819 109.458 158.67 109.591 158.477C109.727 158.285 109.795 158.055 109.795 157.786C109.795 157.418 109.664 157.122 109.402 156.896C109.143 156.671 108.776 156.558 108.298 156.558H106.663V159.079ZM118.623 161.749V157.364H120.741V165H118.708V163.613H118.628C118.456 164.06 118.169 164.42 117.768 164.692C117.37 164.964 116.885 165.099 116.311 165.099C115.801 165.099 115.352 164.983 114.964 164.751C114.576 164.519 114.273 164.19 114.054 163.762C113.839 163.335 113.729 162.822 113.726 162.226V157.364H115.844V161.848C115.847 162.299 115.968 162.655 116.207 162.917C116.445 163.179 116.765 163.31 117.166 163.31C117.422 163.31 117.66 163.252 117.882 163.136C118.104 163.016 118.283 162.841 118.419 162.609C118.558 162.377 118.626 162.09 118.623 161.749ZM126.497 157.364V158.955H121.898V157.364H126.497ZM122.942 155.534H125.06V162.653C125.06 162.849 125.09 163.001 125.15 163.111C125.209 163.217 125.292 163.291 125.398 163.335C125.507 163.378 125.633 163.399 125.776 163.399C125.875 163.399 125.975 163.391 126.074 163.374C126.174 163.354 126.25 163.339 126.303 163.33L126.636 164.906C126.53 164.939 126.381 164.977 126.189 165.02C125.996 165.066 125.763 165.094 125.488 165.104C124.977 165.124 124.53 165.056 124.145 164.901C123.764 164.745 123.467 164.503 123.255 164.175C123.043 163.847 122.939 163.432 122.942 162.932V155.534ZM131.938 157.364V158.955H127.339V157.364H131.938ZM128.384 155.534H130.501V162.653C130.501 162.849 130.531 163.001 130.591 163.111C130.651 163.217 130.733 163.291 130.839 163.335C130.949 163.378 131.075 163.399 131.217 163.399C131.317 163.399 131.416 163.391 131.516 163.374C131.615 163.354 131.691 163.339 131.744 163.33L132.077 164.906C131.971 164.939 131.822 164.977 131.63 165.02C131.438 165.066 131.204 165.094 130.929 165.104C130.419 165.124 129.971 165.056 129.587 164.901C129.205 164.745 128.909 164.503 128.697 164.175C128.485 163.847 128.38 163.432 128.384 162.932V155.534ZM136.686 165.149C135.914 165.149 135.246 164.985 134.683 164.657C134.122 164.326 133.69 163.865 133.385 163.275C133.08 162.682 132.928 161.994 132.928 161.212C132.928 160.423 133.08 159.733 133.385 159.143C133.69 158.55 134.122 158.089 134.683 157.761C135.246 157.43 135.914 157.264 136.686 157.264C137.458 157.264 138.125 157.43 138.685 157.761C139.248 158.089 139.682 158.55 139.987 159.143C140.292 159.733 140.445 160.423 140.445 161.212C140.445 161.994 140.292 162.682 139.987 163.275C139.682 163.865 139.248 164.326 138.685 164.657C138.125 164.985 137.458 165.149 136.686 165.149ZM136.696 163.509C137.047 163.509 137.341 163.409 137.576 163.21C137.811 163.008 137.989 162.733 138.108 162.385C138.231 162.037 138.292 161.641 138.292 161.197C138.292 160.753 138.231 160.357 138.108 160.009C137.989 159.661 137.811 159.385 137.576 159.183C137.341 158.981 137.047 158.88 136.696 158.88C136.341 158.88 136.043 158.981 135.801 159.183C135.563 159.385 135.382 159.661 135.259 160.009C135.14 160.357 135.08 160.753 135.08 161.197C135.08 161.641 135.14 162.037 135.259 162.385C135.382 162.733 135.563 163.008 135.801 163.21C136.043 163.409 136.341 163.509 136.696 163.509ZM143.94 160.585V165H141.822V157.364H143.84V158.711H143.93C144.099 158.267 144.382 157.915 144.78 157.657C145.178 157.395 145.66 157.264 146.227 157.264C146.757 157.264 147.219 157.38 147.614 157.612C148.008 157.844 148.315 158.176 148.533 158.607C148.752 159.034 148.862 159.545 148.862 160.138V165H146.744V160.516C146.747 160.048 146.628 159.684 146.386 159.422C146.144 159.157 145.811 159.024 145.386 159.024C145.101 159.024 144.849 159.085 144.631 159.208C144.415 159.331 144.246 159.51 144.124 159.745C144.004 159.977 143.943 160.257 143.94 160.585Z" fill="#EF8435"/>
<rect x="172.625" y="144" width="1" height="32" fill="#EF8435"/>
<path d="M197.125 157L189.625 164.5L182.125 157" stroke="#EF8435" stroke-width="1.5" stroke-linecap="round" stroke-linejoin="round"/>
</g>
<rect x="82.125" y="144.5" width="123" height="31" rx="3.5" stroke="#EF8435"/>
<rect x="1.125" y="0.5" width="295" height="209" rx="7.5" stroke="#333333"/>
<defs>
<clipPath id="clip0_2192_73297">
<rect x="81.625" y="30" width="124" height="33" rx="4" fill="white"/>
</clipPath>
<clipPath id="clip1_2192_73297">
<rect x="83.625" y="82" width="124" height="32" rx="4" fill="white"/>
</clipPath>
<clipPath id="clip2_2192_73297">
<rect x="81.625" y="144" width="124" height="32" rx="4" fill="white"/>
</clipPath>
</defs>
</svg>
