<svg width="725" height="372" viewBox="0 0 725 372" fill="none" xmlns="http://www.w3.org/2000/svg">
<g clip-path="url(#clip0_2192_73188)">
<rect width="725" height="372" rx="8" fill="#111111"/>
<path fill-rule="evenodd" clip-rule="evenodd" d="M56.4321 81.3622C52.0901 81.3622 48.5703 77.8424 48.5703 73.5004C48.5703 69.1585 52.0901 65.6387 56.4321 65.6387C60.774 65.6387 64.2938 69.1585 64.2938 73.5004C64.2938 77.8424 60.774 81.3622 56.4321 81.3622ZM56.4321 67.2111C52.9586 67.2111 50.1427 70.027 50.1427 73.5005C50.1427 76.974 52.9586 79.7899 56.4321 79.7899C59.9057 79.7899 62.7215 76.974 62.7215 73.5005C62.7215 70.027 59.9057 67.2111 56.4321 67.2111Z" fill="#FAD9C0"/>
<path d="M73.3892 79V68.8182H76.8295C77.6283 68.8182 78.2813 68.9624 78.7884 69.2507C79.2988 69.5357 79.6766 69.9219 79.9219 70.4091C80.1671 70.8963 80.2898 71.4399 80.2898 72.0398C80.2898 72.6397 80.1671 73.1849 79.9219 73.6754C79.6799 74.166 79.3054 74.5571 78.7983 74.8487C78.2912 75.1371 77.6416 75.2812 76.8494 75.2812H74.3835V74.1875H76.8097C77.3565 74.1875 77.7957 74.093 78.1271 73.9041C78.4586 73.7152 78.6989 73.46 78.848 73.1385C79.0005 72.8137 79.0767 72.4474 79.0767 72.0398C79.0767 71.6321 79.0005 71.2675 78.848 70.946C78.6989 70.6245 78.4569 70.3726 78.1222 70.1903C77.7874 70.0047 77.3433 69.9119 76.7898 69.9119H74.6222V79H73.3892ZM83.2901 68.8182V79H82.1168V68.8182H83.2901ZM87.6863 79.179C87.2024 79.179 86.7632 79.0878 86.3688 78.9055C85.9744 78.7199 85.6612 78.4531 85.4292 78.1051C85.1971 77.7538 85.0811 77.3295 85.0811 76.8324C85.0811 76.3949 85.1673 76.0402 85.3397 75.7685C85.512 75.4934 85.7424 75.2779 86.0307 75.1222C86.3191 74.9664 86.6373 74.8504 86.9853 74.7741C87.3366 74.6946 87.6896 74.6316 88.0442 74.5852C88.5082 74.5256 88.8844 74.4808 89.1728 74.451C89.4644 74.4179 89.6766 74.3632 89.8091 74.2869C89.945 74.2107 90.013 74.0781 90.013 73.8892V73.8494C90.013 73.3589 89.8787 72.9777 89.6103 72.706C89.3451 72.4342 88.9424 72.2983 88.4022 72.2983C87.842 72.2983 87.4029 72.4209 87.0847 72.6662C86.7665 72.9115 86.5428 73.1733 86.4135 73.4517L85.2999 73.054C85.4988 72.59 85.7639 72.2287 86.0953 71.9702C86.4301 71.7083 86.7947 71.526 87.1891 71.4233C87.5868 71.3172 87.9779 71.2642 88.3624 71.2642C88.6077 71.2642 88.8894 71.294 89.2076 71.3537C89.5291 71.41 89.839 71.5277 90.1373 71.7067C90.4389 71.8857 90.6891 72.1558 90.888 72.517C91.0868 72.8783 91.1863 73.3622 91.1863 73.9688V79H90.013V77.9659H89.9533C89.8738 78.1316 89.7412 78.3089 89.5556 78.4979C89.37 78.6868 89.123 78.8475 88.8148 78.9801C88.5066 79.1127 88.1304 79.179 87.6863 79.179ZM87.8652 78.125C88.3292 78.125 88.7203 78.0339 89.0385 77.8516C89.36 77.6693 89.602 77.4339 89.7644 77.1456C89.9301 76.8572 90.013 76.554 90.013 76.2358V75.1619C89.9632 75.2216 89.8539 75.2763 89.6848 75.326C89.5191 75.3724 89.3269 75.4138 89.1081 75.4503C88.8927 75.4834 88.6822 75.5133 88.4767 75.5398C88.2746 75.563 88.1105 75.5829 87.9846 75.5994C87.6796 75.6392 87.3946 75.7038 87.1294 75.7933C86.8676 75.8795 86.6555 76.0104 86.4931 76.1861C86.334 76.3584 86.2544 76.5937 86.2544 76.892C86.2544 77.2997 86.4052 77.608 86.7069 77.8168C87.0118 78.0223 87.3979 78.125 87.8652 78.125ZM96.43 79.1591C95.7141 79.1591 95.0977 78.9901 94.5806 78.652C94.0636 78.3139 93.6658 77.8482 93.3874 77.255C93.109 76.6617 92.9698 75.9839 92.9698 75.2216C92.9698 74.446 93.1123 73.7616 93.3974 73.1683C93.6857 72.5717 94.0868 72.1061 94.6005 71.7713C95.1175 71.4332 95.7208 71.2642 96.4102 71.2642C96.9471 71.2642 97.431 71.3636 97.8619 71.5625C98.2927 71.7614 98.6457 72.0398 98.9208 72.3977C99.1959 72.7557 99.3666 73.1733 99.4329 73.6506H98.2596C98.1701 73.3026 97.9712 72.9943 97.663 72.7259C97.3581 72.4541 96.9471 72.3182 96.43 72.3182C95.9727 72.3182 95.5716 72.4375 95.2269 72.6761C94.8855 72.9115 94.6187 73.2446 94.4265 73.6754C94.2376 74.103 94.1431 74.6051 94.1431 75.1818C94.1431 75.7718 94.2359 76.2855 94.4215 76.723C94.6104 77.1605 94.8756 77.5002 95.217 77.7422C95.5617 77.9841 95.966 78.1051 96.43 78.1051C96.735 78.1051 97.0117 78.0521 97.2603 77.946C97.5089 77.84 97.7193 77.6875 97.8917 77.4886C98.064 77.2898 98.1867 77.0511 98.2596 76.7727H99.4329C99.3666 77.2235 99.2025 77.6295 98.9407 77.9908C98.6822 78.3487 98.3391 78.6338 97.9116 78.8459C97.4873 79.0547 96.9935 79.1591 96.43 79.1591ZM104.35 79.1591C103.614 79.1591 102.979 78.9967 102.446 78.6719C101.915 78.3438 101.506 77.8864 101.218 77.2997C100.933 76.7098 100.79 76.0237 100.79 75.2415C100.79 74.4593 100.933 73.7699 101.218 73.1733C101.506 72.5734 101.907 72.1061 102.421 71.7713C102.938 71.4332 103.541 71.2642 104.23 71.2642C104.628 71.2642 105.021 71.3305 105.409 71.4631C105.797 71.5956 106.15 71.8111 106.468 72.1094C106.786 72.4044 107.039 72.7955 107.228 73.2827C107.417 73.7699 107.512 74.3698 107.512 75.0824V75.5795H101.625V74.5653H106.319C106.319 74.1345 106.232 73.75 106.06 73.4119C105.891 73.0739 105.649 72.8071 105.334 72.6115C105.023 72.416 104.655 72.3182 104.23 72.3182C103.763 72.3182 103.359 72.4342 103.017 72.6662C102.679 72.8949 102.419 73.1932 102.237 73.5611C102.055 73.929 101.963 74.3234 101.963 74.7443V75.4205C101.963 75.9972 102.063 76.486 102.262 76.8871C102.464 77.2848 102.744 77.5881 103.102 77.7969C103.46 78.0024 103.876 78.1051 104.35 78.1051C104.658 78.1051 104.936 78.062 105.185 77.9759C105.437 77.8864 105.654 77.7538 105.836 77.5781C106.019 77.3991 106.159 77.1771 106.259 76.9119L107.392 77.2301C107.273 77.6146 107.073 77.9527 106.791 78.2443C106.509 78.5327 106.161 78.758 105.747 78.9205C105.333 79.0795 104.867 79.1591 104.35 79.1591ZM110.47 74.4062V79H109.297V68.8182H110.47V72.5568H110.569C110.748 72.1624 111.017 71.8492 111.375 71.6172C111.736 71.3819 112.217 71.2642 112.816 71.2642C113.337 71.2642 113.792 71.3686 114.184 71.5774C114.575 71.7829 114.878 72.0994 115.093 72.527C115.312 72.9512 115.422 73.4915 115.422 74.1477V79H114.248V74.2273C114.248 73.6207 114.091 73.1518 113.776 72.8203C113.464 72.4856 113.032 72.3182 112.478 72.3182C112.094 72.3182 111.749 72.3994 111.444 72.5618C111.143 72.7242 110.904 72.9612 110.728 73.2727C110.556 73.5843 110.47 73.9621 110.47 74.4062ZM120.67 79.1591C119.981 79.1591 119.376 78.995 118.856 78.6669C118.339 78.3388 117.934 77.8797 117.643 77.2898C117.354 76.6998 117.21 76.0104 117.21 75.2216C117.21 74.4261 117.354 73.7318 117.643 73.1385C117.934 72.5452 118.339 72.0845 118.856 71.7564C119.376 71.4283 119.981 71.2642 120.67 71.2642C121.36 71.2642 121.963 71.4283 122.48 71.7564C123 72.0845 123.405 72.5452 123.693 73.1385C123.985 73.7318 124.131 74.4261 124.131 75.2216C124.131 76.0104 123.985 76.6998 123.693 77.2898C123.405 77.8797 123 78.3388 122.48 78.6669C121.963 78.995 121.36 79.1591 120.67 79.1591ZM120.67 78.1051C121.194 78.1051 121.625 77.9709 121.963 77.7024C122.301 77.4339 122.551 77.081 122.714 76.6435C122.876 76.206 122.957 75.732 122.957 75.2216C122.957 74.7112 122.876 74.2356 122.714 73.7947C122.551 73.3539 122.301 72.9976 121.963 72.7259C121.625 72.4541 121.194 72.3182 120.67 72.3182C120.147 72.3182 119.716 72.4541 119.378 72.7259C119.04 72.9976 118.789 73.3539 118.627 73.7947C118.465 74.2356 118.383 74.7112 118.383 75.2216C118.383 75.732 118.465 76.206 118.627 76.6435C118.789 77.081 119.04 77.4339 119.378 77.7024C119.716 77.9709 120.147 78.1051 120.67 78.1051ZM127.095 68.8182V79H125.922V68.8182H127.095ZM132.127 79.1591C131.491 79.1591 130.929 78.9983 130.442 78.6768C129.955 78.352 129.574 77.8946 129.298 77.3047C129.023 76.7114 128.886 76.0104 128.886 75.2017C128.886 74.3996 129.023 73.7036 129.298 73.1136C129.574 72.5237 129.956 72.0679 130.447 71.7464C130.937 71.425 131.504 71.2642 132.147 71.2642C132.644 71.2642 133.037 71.3471 133.325 71.5128C133.617 71.6752 133.839 71.8608 133.992 72.0696C134.147 72.2751 134.268 72.4441 134.355 72.5767H134.454V68.8182H135.627V79H134.494V77.8267H134.355C134.268 77.9659 134.146 78.1416 133.987 78.3537C133.828 78.5625 133.601 78.7498 133.306 78.9155C133.011 79.0779 132.618 79.1591 132.127 79.1591ZM132.286 78.1051C132.757 78.1051 133.155 77.9825 133.48 77.7372C133.804 77.4886 134.051 77.1456 134.22 76.7081C134.389 76.2673 134.474 75.7585 134.474 75.1818C134.474 74.6117 134.391 74.1129 134.225 73.6854C134.06 73.2545 133.814 72.9197 133.49 72.6811C133.165 72.4392 132.764 72.3182 132.286 72.3182C131.789 72.3182 131.375 72.4458 131.044 72.701C130.715 72.9529 130.468 73.2959 130.303 73.7301C130.14 74.161 130.059 74.6449 130.059 75.1818C130.059 75.7254 130.142 76.2192 130.308 76.6634C130.477 77.1042 130.725 77.4555 131.053 77.7173C131.385 77.9759 131.796 78.1051 132.286 78.1051ZM141.141 79.1591C140.405 79.1591 139.77 78.9967 139.237 78.6719C138.706 78.3438 138.297 77.8864 138.009 77.2997C137.724 76.7098 137.581 76.0237 137.581 75.2415C137.581 74.4593 137.724 73.7699 138.009 73.1733C138.297 72.5734 138.698 72.1061 139.212 71.7713C139.729 71.4332 140.332 71.2642 141.021 71.2642C141.419 71.2642 141.812 71.3305 142.2 71.4631C142.588 71.5956 142.941 71.8111 143.259 72.1094C143.577 72.4044 143.83 72.7955 144.019 73.2827C144.208 73.7699 144.303 74.3698 144.303 75.0824V75.5795H138.416V74.5653H143.11C143.11 74.1345 143.023 73.75 142.851 73.4119C142.682 73.0739 142.44 72.8071 142.125 72.6115C141.814 72.416 141.446 72.3182 141.021 72.3182C140.554 72.3182 140.15 72.4342 139.808 72.6662C139.47 72.8949 139.21 73.1932 139.028 73.5611C138.846 73.929 138.754 74.3234 138.754 74.7443V75.4205C138.754 75.9972 138.854 76.486 139.053 76.8871C139.255 77.2848 139.535 77.5881 139.893 77.7969C140.251 78.0024 140.667 78.1051 141.141 78.1051C141.449 78.1051 141.727 78.062 141.976 77.9759C142.228 77.8864 142.445 77.7538 142.627 77.5781C142.81 77.3991 142.95 77.1771 143.05 76.9119L144.183 77.2301C144.064 77.6146 143.864 77.9527 143.582 78.2443C143.3 78.5327 142.952 78.758 142.538 78.9205C142.124 79.0795 141.658 79.1591 141.141 79.1591ZM146.088 79V71.3636H147.221V72.517H147.301C147.44 72.1392 147.692 71.8326 148.056 71.5973C148.421 71.362 148.832 71.2443 149.289 71.2443C149.375 71.2443 149.483 71.246 149.612 71.2493C149.742 71.2526 149.839 71.2576 149.906 71.2642V72.4574C149.866 72.4474 149.775 72.4325 149.632 72.4126C149.493 72.3894 149.346 72.3778 149.19 72.3778C148.819 72.3778 148.487 72.4557 148.195 72.6115C147.907 72.764 147.678 72.9761 147.509 73.2479C147.344 73.5163 147.261 73.8229 147.261 74.1676V79H146.088Z" fill="#333333"/>
<path fill-rule="evenodd" clip-rule="evenodd" d="M56.4321 268.229C52.0901 268.229 48.5703 264.71 48.5703 260.368C48.5703 256.026 52.0901 252.506 56.4321 252.506C60.774 252.506 64.2938 256.026 64.2938 260.368C64.2938 264.71 60.774 268.229 56.4321 268.229ZM56.4321 254.078C52.9586 254.078 50.1427 256.894 50.1427 260.368C50.1427 263.841 52.9586 266.657 56.4321 266.657C59.9057 266.657 62.7215 263.841 62.7215 260.368C62.7215 256.894 59.9057 254.078 56.4321 254.078Z" fill="#FAD9C0"/>
<path d="M81.9801 260.776C81.9801 261.85 81.7862 262.778 81.3984 263.56C81.0107 264.343 80.4787 264.946 79.8026 265.37C79.1264 265.794 78.3542 266.006 77.4858 266.006C76.6174 266.006 75.8452 265.794 75.169 265.37C74.4929 264.946 73.9609 264.343 73.5732 263.56C73.1854 262.778 72.9915 261.85 72.9915 260.776C72.9915 259.702 73.1854 258.774 73.5732 257.992C73.9609 257.21 74.4929 256.607 75.169 256.183C75.8452 255.758 76.6174 255.546 77.4858 255.546C78.3542 255.546 79.1264 255.758 79.8026 256.183C80.4787 256.607 81.0107 257.21 81.3984 257.992C81.7862 258.774 81.9801 259.702 81.9801 260.776ZM80.7869 260.776C80.7869 259.895 80.6394 259.151 80.3445 258.544C80.0528 257.938 79.6567 257.478 79.1562 257.167C78.6591 256.855 78.1023 256.7 77.4858 256.7C76.8693 256.7 76.3108 256.855 75.8104 257.167C75.3132 257.478 74.9171 257.938 74.6222 258.544C74.3305 259.151 74.1847 259.895 74.1847 260.776C74.1847 261.658 74.3305 262.402 74.6222 263.009C74.9171 263.615 75.3132 264.074 75.8104 264.386C76.3108 264.697 76.8693 264.853 77.4858 264.853C78.1023 264.853 78.6591 264.697 79.1562 264.386C79.6567 264.074 80.0528 263.615 80.3445 263.009C80.6394 262.402 80.7869 261.658 80.7869 260.776ZM87.2152 258.231V259.225H83.2578V258.231H87.2152ZM84.4112 256.401H85.5845V263.68C85.5845 264.011 85.6326 264.26 85.7287 264.425C85.8281 264.588 85.9541 264.697 86.1065 264.754C86.2623 264.807 86.4264 264.833 86.5987 264.833C86.728 264.833 86.834 264.826 86.9169 264.813C86.9998 264.797 87.0661 264.783 87.1158 264.773L87.3544 265.827C87.2749 265.857 87.1638 265.887 87.0213 265.917C86.8788 265.95 86.6982 265.967 86.4794 265.967C86.148 265.967 85.8232 265.895 85.505 265.753C85.1901 265.61 84.9283 265.393 84.7195 265.102C84.514 264.81 84.4112 264.442 84.4112 263.998V256.401ZM90.3175 261.273V265.867H89.1442V255.685H90.3175V259.424H90.4169C90.5959 259.03 90.8643 258.716 91.2223 258.484C91.5836 258.249 92.0642 258.131 92.6641 258.131C93.1844 258.131 93.6402 258.236 94.0312 258.445C94.4223 258.65 94.7256 258.967 94.9411 259.394C95.1598 259.818 95.2692 260.359 95.2692 261.015V265.867H94.0959V261.094C94.0959 260.488 93.9384 260.019 93.6236 259.688C93.312 259.353 92.8795 259.185 92.326 259.185C91.9415 259.185 91.5968 259.267 91.2919 259.429C90.9903 259.591 90.7517 259.828 90.576 260.14C90.4036 260.451 90.3175 260.829 90.3175 261.273ZM100.617 266.026C99.8816 266.026 99.2469 265.864 98.7132 265.539C98.1829 265.211 97.7736 264.754 97.4853 264.167C97.2002 263.577 97.0577 262.891 97.0577 262.109C97.0577 261.326 97.2002 260.637 97.4853 260.04C97.7736 259.441 98.1747 258.973 98.6884 258.638C99.2054 258.3 99.8087 258.131 100.498 258.131C100.896 258.131 101.289 258.198 101.676 258.33C102.064 258.463 102.417 258.678 102.735 258.977C103.053 259.272 103.307 259.663 103.496 260.15C103.685 260.637 103.779 261.237 103.779 261.95V262.447H97.8929V261.433H102.586C102.586 261.002 102.5 260.617 102.328 260.279C102.159 259.941 101.917 259.674 101.602 259.479C101.29 259.283 100.922 259.185 100.498 259.185C100.031 259.185 99.6264 259.301 99.285 259.533C98.9469 259.762 98.6867 260.06 98.5044 260.428C98.3221 260.796 98.231 261.191 98.231 261.612V262.288C98.231 262.864 98.3304 263.353 98.5293 263.754C98.7315 264.152 99.0115 264.455 99.3695 264.664C99.7275 264.87 100.143 264.972 100.617 264.972C100.926 264.972 101.204 264.929 101.453 264.843C101.704 264.754 101.922 264.621 102.104 264.445C102.286 264.266 102.427 264.044 102.526 263.779L103.66 264.097C103.541 264.482 103.34 264.82 103.058 265.112C102.777 265.4 102.429 265.625 102.014 265.788C101.6 265.947 101.134 266.026 100.617 266.026ZM105.564 265.867V258.231H106.698V259.384H106.777C106.916 259.006 107.168 258.7 107.533 258.464C107.897 258.229 108.308 258.112 108.766 258.112C108.852 258.112 108.96 258.113 109.089 258.116C109.218 258.12 109.316 258.125 109.382 258.131V259.325C109.343 259.315 109.251 259.3 109.109 259.28C108.97 259.257 108.822 259.245 108.666 259.245C108.295 259.245 107.964 259.323 107.672 259.479C107.384 259.631 107.155 259.843 106.986 260.115C106.82 260.384 106.737 260.69 106.737 261.035V265.867H105.564Z" fill="#333333"/>
<path fill-rule="evenodd" clip-rule="evenodd" d="M198.432 81.3622C194.09 81.3622 190.57 77.8424 190.57 73.5004C190.57 69.1585 194.09 65.6387 198.432 65.6387C202.774 65.6387 206.294 69.1585 206.294 73.5004C206.294 77.8424 202.774 81.3622 198.432 81.3622ZM198.432 67.2111C194.959 67.2111 192.143 70.027 192.143 73.5005C192.143 76.974 194.959 79.7899 198.432 79.7899C201.906 79.7899 204.722 76.974 204.722 73.5005C204.722 70.027 201.906 67.2111 198.432 67.2111Z" fill="#EF8435"/>
<path d="M215.389 79V68.8182H218.83C219.628 68.8182 220.281 68.9624 220.788 69.2507C221.299 69.5357 221.677 69.9219 221.922 70.4091C222.167 70.8963 222.29 71.4399 222.29 72.0398C222.29 72.6397 222.167 73.1849 221.922 73.6754C221.68 74.166 221.305 74.5571 220.798 74.8487C220.291 75.1371 219.642 75.2812 218.849 75.2812H216.384V74.1875H218.81C219.357 74.1875 219.796 74.093 220.127 73.9041C220.459 73.7152 220.699 73.46 220.848 73.1385C221 72.8137 221.077 72.4474 221.077 72.0398C221.077 71.6321 221 71.2675 220.848 70.946C220.699 70.6245 220.457 70.3726 220.122 70.1903C219.787 70.0047 219.343 69.9119 218.79 69.9119H216.622V79H215.389ZM225.29 68.8182V79H224.117V68.8182H225.29ZM229.686 79.179C229.202 79.179 228.763 79.0878 228.369 78.9055C227.974 78.7199 227.661 78.4531 227.429 78.1051C227.197 77.7538 227.081 77.3295 227.081 76.8324C227.081 76.3949 227.167 76.0402 227.34 75.7685C227.512 75.4934 227.742 75.2779 228.031 75.1222C228.319 74.9664 228.637 74.8504 228.985 74.7741C229.337 74.6946 229.69 74.6316 230.044 74.5852C230.508 74.5256 230.884 74.4808 231.173 74.451C231.464 74.4179 231.677 74.3632 231.809 74.2869C231.945 74.2107 232.013 74.0781 232.013 73.8892V73.8494C232.013 73.3589 231.879 72.9777 231.61 72.706C231.345 72.4342 230.942 72.2983 230.402 72.2983C229.842 72.2983 229.403 72.4209 229.085 72.6662C228.767 72.9115 228.543 73.1733 228.414 73.4517L227.3 73.054C227.499 72.59 227.764 72.2287 228.095 71.9702C228.43 71.7083 228.795 71.526 229.189 71.4233C229.587 71.3172 229.978 71.2642 230.362 71.2642C230.608 71.2642 230.889 71.294 231.208 71.3537C231.529 71.41 231.839 71.5277 232.137 71.7067C232.439 71.8857 232.689 72.1558 232.888 72.517C233.087 72.8783 233.186 73.3622 233.186 73.9688V79H232.013V77.9659H231.953C231.874 78.1316 231.741 78.3089 231.556 78.4979C231.37 78.6868 231.123 78.8475 230.815 78.9801C230.507 79.1127 230.13 79.179 229.686 79.179ZM229.865 78.125C230.329 78.125 230.72 78.0339 231.039 77.8516C231.36 77.6693 231.602 77.4339 231.764 77.1456C231.93 76.8572 232.013 76.554 232.013 76.2358V75.1619C231.963 75.2216 231.854 75.2763 231.685 75.326C231.519 75.3724 231.327 75.4138 231.108 75.4503C230.893 75.4834 230.682 75.5133 230.477 75.5398C230.275 75.563 230.11 75.5829 229.985 75.5994C229.68 75.6392 229.395 75.7038 229.129 75.7933C228.868 75.8795 228.655 76.0104 228.493 76.1861C228.334 76.3584 228.254 76.5937 228.254 76.892C228.254 77.2997 228.405 77.608 228.707 77.8168C229.012 78.0223 229.398 78.125 229.865 78.125ZM238.43 79.1591C237.714 79.1591 237.098 78.9901 236.581 78.652C236.064 78.3139 235.666 77.8482 235.387 77.255C235.109 76.6617 234.97 75.9839 234.97 75.2216C234.97 74.446 235.112 73.7616 235.397 73.1683C235.686 72.5717 236.087 72.1061 236.6 71.7713C237.118 71.4332 237.721 71.2642 238.41 71.2642C238.947 71.2642 239.431 71.3636 239.862 71.5625C240.293 71.7614 240.646 72.0398 240.921 72.3977C241.196 72.7557 241.367 73.1733 241.433 73.6506H240.26C240.17 73.3026 239.971 72.9943 239.663 72.7259C239.358 72.4541 238.947 72.3182 238.43 72.3182C237.973 72.3182 237.572 72.4375 237.227 72.6761C236.886 72.9115 236.619 73.2446 236.426 73.6754C236.238 74.103 236.143 74.6051 236.143 75.1818C236.143 75.7718 236.236 76.2855 236.422 76.723C236.61 77.1605 236.876 77.5002 237.217 77.7422C237.562 77.9841 237.966 78.1051 238.43 78.1051C238.735 78.1051 239.012 78.0521 239.26 77.946C239.509 77.84 239.719 77.6875 239.892 77.4886C240.064 77.2898 240.187 77.0511 240.26 76.7727H241.433C241.367 77.2235 241.203 77.6295 240.941 77.9908C240.682 78.3487 240.339 78.6338 239.912 78.8459C239.487 79.0547 238.993 79.1591 238.43 79.1591ZM246.35 79.1591C245.614 79.1591 244.979 78.9967 244.446 78.6719C243.915 78.3438 243.506 77.8864 243.218 77.2997C242.933 76.7098 242.79 76.0237 242.79 75.2415C242.79 74.4593 242.933 73.7699 243.218 73.1733C243.506 72.5734 243.907 72.1061 244.421 71.7713C244.938 71.4332 245.541 71.2642 246.23 71.2642C246.628 71.2642 247.021 71.3305 247.409 71.4631C247.797 71.5956 248.15 71.8111 248.468 72.1094C248.786 72.4044 249.039 72.7955 249.228 73.2827C249.417 73.7699 249.512 74.3698 249.512 75.0824V75.5795H243.625V74.5653H248.319C248.319 74.1345 248.232 73.75 248.06 73.4119C247.891 73.0739 247.649 72.8071 247.334 72.6115C247.023 72.416 246.655 72.3182 246.23 72.3182C245.763 72.3182 245.359 72.4342 245.017 72.6662C244.679 72.8949 244.419 73.1932 244.237 73.5611C244.055 73.929 243.963 74.3234 243.963 74.7443V75.4205C243.963 75.9972 244.063 76.486 244.262 76.8871C244.464 77.2848 244.744 77.5881 245.102 77.7969C245.46 78.0024 245.876 78.1051 246.35 78.1051C246.658 78.1051 246.936 78.062 247.185 77.9759C247.437 77.8864 247.654 77.7538 247.836 77.5781C248.019 77.3991 248.159 77.1771 248.259 76.9119L249.392 77.2301C249.273 77.6146 249.073 77.9527 248.791 78.2443C248.509 78.5327 248.161 78.758 247.747 78.9205C247.333 79.0795 246.867 79.1591 246.35 79.1591ZM252.47 74.4062V79H251.297V68.8182H252.47V72.5568H252.569C252.748 72.1624 253.017 71.8492 253.375 71.6172C253.736 71.3819 254.217 71.2642 254.816 71.2642C255.337 71.2642 255.792 71.3686 256.184 71.5774C256.575 71.7829 256.878 72.0994 257.093 72.527C257.312 72.9512 257.422 73.4915 257.422 74.1477V79H256.248V74.2273C256.248 73.6207 256.091 73.1518 255.776 72.8203C255.464 72.4856 255.032 72.3182 254.478 72.3182C254.094 72.3182 253.749 72.3994 253.444 72.5618C253.143 72.7242 252.904 72.9612 252.728 73.2727C252.556 73.5843 252.47 73.9621 252.47 74.4062ZM262.67 79.1591C261.981 79.1591 261.376 78.995 260.856 78.6669C260.339 78.3388 259.934 77.8797 259.643 77.2898C259.354 76.6998 259.21 76.0104 259.21 75.2216C259.21 74.4261 259.354 73.7318 259.643 73.1385C259.934 72.5452 260.339 72.0845 260.856 71.7564C261.376 71.4283 261.981 71.2642 262.67 71.2642C263.36 71.2642 263.963 71.4283 264.48 71.7564C265 72.0845 265.405 72.5452 265.693 73.1385C265.985 73.7318 266.131 74.4261 266.131 75.2216C266.131 76.0104 265.985 76.6998 265.693 77.2898C265.405 77.8797 265 78.3388 264.48 78.6669C263.963 78.995 263.36 79.1591 262.67 79.1591ZM262.67 78.1051C263.194 78.1051 263.625 77.9709 263.963 77.7024C264.301 77.4339 264.551 77.081 264.714 76.6435C264.876 76.206 264.957 75.732 264.957 75.2216C264.957 74.7112 264.876 74.2356 264.714 73.7947C264.551 73.3539 264.301 72.9976 263.963 72.7259C263.625 72.4541 263.194 72.3182 262.67 72.3182C262.147 72.3182 261.716 72.4541 261.378 72.7259C261.04 72.9976 260.789 73.3539 260.627 73.7947C260.465 74.2356 260.383 74.7112 260.383 75.2216C260.383 75.732 260.465 76.206 260.627 76.6435C260.789 77.081 261.04 77.4339 261.378 77.7024C261.716 77.9709 262.147 78.1051 262.67 78.1051ZM269.095 68.8182V79H267.922V68.8182H269.095ZM274.127 79.1591C273.491 79.1591 272.929 78.9983 272.442 78.6768C271.955 78.352 271.574 77.8946 271.298 77.3047C271.023 76.7114 270.886 76.0104 270.886 75.2017C270.886 74.3996 271.023 73.7036 271.298 73.1136C271.574 72.5237 271.956 72.0679 272.447 71.7464C272.937 71.425 273.504 71.2642 274.147 71.2642C274.644 71.2642 275.037 71.3471 275.325 71.5128C275.617 71.6752 275.839 71.8608 275.992 72.0696C276.147 72.2751 276.268 72.4441 276.355 72.5767H276.454V68.8182H277.627V79H276.494V77.8267H276.355C276.268 77.9659 276.146 78.1416 275.987 78.3537C275.828 78.5625 275.601 78.7498 275.306 78.9155C275.011 79.0779 274.618 79.1591 274.127 79.1591ZM274.286 78.1051C274.757 78.1051 275.155 77.9825 275.48 77.7372C275.804 77.4886 276.051 77.1456 276.22 76.7081C276.389 76.2673 276.474 75.7585 276.474 75.1818C276.474 74.6117 276.391 74.1129 276.225 73.6854C276.06 73.2545 275.814 72.9197 275.49 72.6811C275.165 72.4392 274.764 72.3182 274.286 72.3182C273.789 72.3182 273.375 72.4458 273.044 72.701C272.715 72.9529 272.468 73.2959 272.303 73.7301C272.14 74.161 272.059 74.6449 272.059 75.1818C272.059 75.7254 272.142 76.2192 272.308 76.6634C272.477 77.1042 272.725 77.4555 273.053 77.7173C273.385 77.9759 273.796 78.1051 274.286 78.1051ZM283.141 79.1591C282.405 79.1591 281.77 78.9967 281.237 78.6719C280.706 78.3438 280.297 77.8864 280.009 77.2997C279.724 76.7098 279.581 76.0237 279.581 75.2415C279.581 74.4593 279.724 73.7699 280.009 73.1733C280.297 72.5734 280.698 72.1061 281.212 71.7713C281.729 71.4332 282.332 71.2642 283.021 71.2642C283.419 71.2642 283.812 71.3305 284.2 71.4631C284.588 71.5956 284.941 71.8111 285.259 72.1094C285.577 72.4044 285.83 72.7955 286.019 73.2827C286.208 73.7699 286.303 74.3698 286.303 75.0824V75.5795H280.416V74.5653H285.11C285.11 74.1345 285.023 73.75 284.851 73.4119C284.682 73.0739 284.44 72.8071 284.125 72.6115C283.814 72.416 283.446 72.3182 283.021 72.3182C282.554 72.3182 282.15 72.4342 281.808 72.6662C281.47 72.8949 281.21 73.1932 281.028 73.5611C280.846 73.929 280.754 74.3234 280.754 74.7443V75.4205C280.754 75.9972 280.854 76.486 281.053 76.8871C281.255 77.2848 281.535 77.5881 281.893 77.7969C282.251 78.0024 282.667 78.1051 283.141 78.1051C283.449 78.1051 283.727 78.062 283.976 77.9759C284.228 77.8864 284.445 77.7538 284.627 77.5781C284.81 77.3991 284.95 77.1771 285.05 76.9119L286.183 77.2301C286.064 77.6146 285.864 77.9527 285.582 78.2443C285.3 78.5327 284.952 78.758 284.538 78.9205C284.124 79.0795 283.658 79.1591 283.141 79.1591ZM288.088 79V71.3636H289.221V72.517H289.301C289.44 72.1392 289.692 71.8326 290.056 71.5973C290.421 71.362 290.832 71.2443 291.289 71.2443C291.375 71.2443 291.483 71.246 291.612 71.2493C291.742 71.2526 291.839 71.2576 291.906 71.2642V72.4574C291.866 72.4474 291.775 72.4325 291.632 72.4126C291.493 72.3894 291.346 72.3778 291.19 72.3778C290.819 72.3778 290.487 72.4557 290.195 72.6115C289.907 72.764 289.678 72.9761 289.509 73.2479C289.344 73.5163 289.261 73.8229 289.261 74.1676V79H288.088Z" fill="#333333"/>
<path fill-rule="evenodd" clip-rule="evenodd" d="M202.581 268.229C198.239 268.229 194.719 264.71 194.719 260.368C194.719 256.026 198.239 252.506 202.581 252.506C206.922 252.506 210.442 256.026 210.442 260.368C210.442 264.71 206.922 268.229 202.581 268.229ZM202.581 254.078C199.107 254.078 196.291 256.894 196.291 260.368C196.291 263.841 199.107 266.657 202.581 266.657C206.054 266.657 208.87 263.841 208.87 260.368C208.87 256.894 206.054 254.078 202.581 254.078Z" fill="#EF8435"/>
<path d="M228.129 260.776C228.129 261.85 227.935 262.778 227.547 263.56C227.159 264.343 226.627 264.946 225.951 265.37C225.275 265.794 224.503 266.006 223.634 266.006C222.766 266.006 221.994 265.794 221.317 265.37C220.641 264.946 220.109 264.343 219.722 263.56C219.334 262.778 219.14 261.85 219.14 260.776C219.14 259.702 219.334 258.774 219.722 257.992C220.109 257.21 220.641 256.607 221.317 256.183C221.994 255.758 222.766 255.546 223.634 255.546C224.503 255.546 225.275 255.758 225.951 256.183C226.627 256.607 227.159 257.21 227.547 257.992C227.935 258.774 228.129 259.702 228.129 260.776ZM226.935 260.776C226.935 259.895 226.788 259.151 226.493 258.544C226.201 257.938 225.805 257.478 225.305 257.167C224.808 256.855 224.251 256.7 223.634 256.7C223.018 256.7 222.459 256.855 221.959 257.167C221.462 257.478 221.066 257.938 220.771 258.544C220.479 259.151 220.333 259.895 220.333 260.776C220.333 261.658 220.479 262.402 220.771 263.009C221.066 263.615 221.462 264.074 221.959 264.386C222.459 264.697 223.018 264.853 223.634 264.853C224.251 264.853 224.808 264.697 225.305 264.386C225.805 264.074 226.201 263.615 226.493 263.009C226.788 262.402 226.935 261.658 226.935 260.776ZM233.364 258.231V259.225H229.406V258.231H233.364ZM230.56 256.401H231.733V263.68C231.733 264.011 231.781 264.26 231.877 264.425C231.977 264.588 232.103 264.697 232.255 264.754C232.411 264.807 232.575 264.833 232.747 264.833C232.876 264.833 232.982 264.826 233.065 264.813C233.148 264.797 233.214 264.783 233.264 264.773L233.503 265.827C233.423 265.857 233.312 265.887 233.17 265.917C233.027 265.95 232.847 265.967 232.628 265.967C232.296 265.967 231.972 265.895 231.653 265.753C231.339 265.61 231.077 265.393 230.868 265.102C230.662 264.81 230.56 264.442 230.56 263.998V256.401ZM236.466 261.273V265.867H235.293V255.685H236.466V259.424H236.565C236.744 259.03 237.013 258.716 237.371 258.484C237.732 258.249 238.213 258.131 238.812 258.131C239.333 258.131 239.789 258.236 240.18 258.445C240.571 258.65 240.874 258.967 241.089 259.394C241.308 259.818 241.418 260.359 241.418 261.015V265.867H240.244V261.094C240.244 260.488 240.087 260.019 239.772 259.688C239.46 259.353 239.028 259.185 238.474 259.185C238.09 259.185 237.745 259.267 237.44 259.429C237.139 259.591 236.9 259.828 236.724 260.14C236.552 260.451 236.466 260.829 236.466 261.273ZM246.766 266.026C246.03 266.026 245.395 265.864 244.862 265.539C244.331 265.211 243.922 264.754 243.634 264.167C243.349 263.577 243.206 262.891 243.206 262.109C243.206 261.326 243.349 260.637 243.634 260.04C243.922 259.441 244.323 258.973 244.837 258.638C245.354 258.3 245.957 258.131 246.646 258.131C247.044 258.131 247.437 258.198 247.825 258.33C248.213 258.463 248.566 258.678 248.884 258.977C249.202 259.272 249.455 259.663 249.644 260.15C249.833 260.637 249.928 261.237 249.928 261.95V262.447H244.041V261.433H248.735C248.735 261.002 248.648 260.617 248.476 260.279C248.307 259.941 248.065 259.674 247.75 259.479C247.439 259.283 247.071 259.185 246.646 259.185C246.179 259.185 245.775 259.301 245.433 259.533C245.095 259.762 244.835 260.06 244.653 260.428C244.471 260.796 244.379 261.191 244.379 261.612V262.288C244.379 262.864 244.479 263.353 244.678 263.754C244.88 264.152 245.16 264.455 245.518 264.664C245.876 264.87 246.292 264.972 246.766 264.972C247.074 264.972 247.352 264.929 247.601 264.843C247.853 264.754 248.07 264.621 248.252 264.445C248.435 264.266 248.575 264.044 248.675 263.779L249.808 264.097C249.689 264.482 249.489 264.82 249.207 265.112C248.925 265.4 248.577 265.625 248.163 265.788C247.749 265.947 247.283 266.026 246.766 266.026ZM251.713 265.867V258.231H252.846V259.384H252.926C253.065 259.006 253.317 258.7 253.681 258.464C254.046 258.229 254.457 258.112 254.914 258.112C255 258.112 255.108 258.113 255.237 258.116C255.367 258.12 255.464 258.125 255.531 258.131V259.325C255.491 259.315 255.4 259.3 255.257 259.28C255.118 259.257 254.971 259.245 254.815 259.245C254.444 259.245 254.112 259.323 253.82 259.479C253.532 259.631 253.303 259.843 253.134 260.115C252.969 260.384 252.886 260.69 252.886 261.035V265.867H251.713Z" fill="#333333"/>
<path fill-rule="evenodd" clip-rule="evenodd" d="M482.432 65.6387C478.09 65.6387 474.57 69.1585 474.57 73.5004C474.57 77.8424 478.09 81.3622 482.432 81.3622C486.774 81.3622 490.294 77.8424 490.294 73.5004C490.294 69.1585 486.774 65.6387 482.432 65.6387ZM482.432 79.7899C478.959 79.7899 476.143 76.974 476.143 73.5005C476.143 70.027 478.959 67.2111 482.432 67.2111C485.906 67.2111 488.722 70.027 488.722 73.5005C488.722 76.974 485.906 79.7899 482.432 79.7899ZM478.501 73.5005C478.501 71.3295 480.261 69.5696 482.432 69.5696C484.603 69.5696 486.363 71.3295 486.363 73.5005C486.363 75.6715 484.603 77.4314 482.432 77.4314C480.261 77.4314 478.501 75.6715 478.501 73.5005Z" fill="#EF8435"/>
<path d="M499.389 79V68.8182H502.83C503.628 68.8182 504.281 68.9624 504.788 69.2507C505.299 69.5357 505.677 69.9219 505.922 70.4091C506.167 70.8963 506.29 71.4399 506.29 72.0398C506.29 72.6397 506.167 73.1849 505.922 73.6754C505.68 74.166 505.305 74.5571 504.798 74.8487C504.291 75.1371 503.642 75.2812 502.849 75.2812H500.384V74.1875H502.81C503.357 74.1875 503.796 74.093 504.127 73.9041C504.459 73.7152 504.699 73.46 504.848 73.1385C505 72.8137 505.077 72.4474 505.077 72.0398C505.077 71.6321 505 71.2675 504.848 70.946C504.699 70.6245 504.457 70.3726 504.122 70.1903C503.787 70.0047 503.343 69.9119 502.79 69.9119H500.622V79H499.389ZM509.29 68.8182V79H508.117V68.8182H509.29ZM513.686 79.179C513.202 79.179 512.763 79.0878 512.369 78.9055C511.974 78.7199 511.661 78.4531 511.429 78.1051C511.197 77.7538 511.081 77.3295 511.081 76.8324C511.081 76.3949 511.167 76.0402 511.34 75.7685C511.512 75.4934 511.742 75.2779 512.031 75.1222C512.319 74.9664 512.637 74.8504 512.985 74.7741C513.337 74.6946 513.69 74.6316 514.044 74.5852C514.508 74.5256 514.884 74.4808 515.173 74.451C515.464 74.4179 515.677 74.3632 515.809 74.2869C515.945 74.2107 516.013 74.0781 516.013 73.8892V73.8494C516.013 73.3589 515.879 72.9777 515.61 72.706C515.345 72.4342 514.942 72.2983 514.402 72.2983C513.842 72.2983 513.403 72.4209 513.085 72.6662C512.767 72.9115 512.543 73.1733 512.414 73.4517L511.3 73.054C511.499 72.59 511.764 72.2287 512.095 71.9702C512.43 71.7083 512.795 71.526 513.189 71.4233C513.587 71.3172 513.978 71.2642 514.362 71.2642C514.608 71.2642 514.889 71.294 515.208 71.3537C515.529 71.41 515.839 71.5277 516.137 71.7067C516.439 71.8857 516.689 72.1558 516.888 72.517C517.087 72.8783 517.186 73.3622 517.186 73.9688V79H516.013V77.9659H515.953C515.874 78.1316 515.741 78.3089 515.556 78.4979C515.37 78.6868 515.123 78.8475 514.815 78.9801C514.507 79.1127 514.13 79.179 513.686 79.179ZM513.865 78.125C514.329 78.125 514.72 78.0339 515.039 77.8516C515.36 77.6693 515.602 77.4339 515.764 77.1456C515.93 76.8572 516.013 76.554 516.013 76.2358V75.1619C515.963 75.2216 515.854 75.2763 515.685 75.326C515.519 75.3724 515.327 75.4138 515.108 75.4503C514.893 75.4834 514.682 75.5133 514.477 75.5398C514.275 75.563 514.11 75.5829 513.985 75.5994C513.68 75.6392 513.395 75.7038 513.129 75.7933C512.868 75.8795 512.655 76.0104 512.493 76.1861C512.334 76.3584 512.254 76.5937 512.254 76.892C512.254 77.2997 512.405 77.608 512.707 77.8168C513.012 78.0223 513.398 78.125 513.865 78.125ZM522.43 79.1591C521.714 79.1591 521.098 78.9901 520.581 78.652C520.064 78.3139 519.666 77.8482 519.387 77.255C519.109 76.6617 518.97 75.9839 518.97 75.2216C518.97 74.446 519.112 73.7616 519.397 73.1683C519.686 72.5717 520.087 72.1061 520.6 71.7713C521.118 71.4332 521.721 71.2642 522.41 71.2642C522.947 71.2642 523.431 71.3636 523.862 71.5625C524.293 71.7614 524.646 72.0398 524.921 72.3977C525.196 72.7557 525.367 73.1733 525.433 73.6506H524.26C524.17 73.3026 523.971 72.9943 523.663 72.7259C523.358 72.4541 522.947 72.3182 522.43 72.3182C521.973 72.3182 521.572 72.4375 521.227 72.6761C520.886 72.9115 520.619 73.2446 520.426 73.6754C520.238 74.103 520.143 74.6051 520.143 75.1818C520.143 75.7718 520.236 76.2855 520.422 76.723C520.61 77.1605 520.876 77.5002 521.217 77.7422C521.562 77.9841 521.966 78.1051 522.43 78.1051C522.735 78.1051 523.012 78.0521 523.26 77.946C523.509 77.84 523.719 77.6875 523.892 77.4886C524.064 77.2898 524.187 77.0511 524.26 76.7727H525.433C525.367 77.2235 525.203 77.6295 524.941 77.9908C524.682 78.3487 524.339 78.6338 523.912 78.8459C523.487 79.0547 522.993 79.1591 522.43 79.1591ZM530.35 79.1591C529.614 79.1591 528.979 78.9967 528.446 78.6719C527.915 78.3438 527.506 77.8864 527.218 77.2997C526.933 76.7098 526.79 76.0237 526.79 75.2415C526.79 74.4593 526.933 73.7699 527.218 73.1733C527.506 72.5734 527.907 72.1061 528.421 71.7713C528.938 71.4332 529.541 71.2642 530.23 71.2642C530.628 71.2642 531.021 71.3305 531.409 71.4631C531.797 71.5956 532.15 71.8111 532.468 72.1094C532.786 72.4044 533.039 72.7955 533.228 73.2827C533.417 73.7699 533.512 74.3698 533.512 75.0824V75.5795H527.625V74.5653H532.319C532.319 74.1345 532.232 73.75 532.06 73.4119C531.891 73.0739 531.649 72.8071 531.334 72.6115C531.023 72.416 530.655 72.3182 530.23 72.3182C529.763 72.3182 529.359 72.4342 529.017 72.6662C528.679 72.8949 528.419 73.1932 528.237 73.5611C528.055 73.929 527.963 74.3234 527.963 74.7443V75.4205C527.963 75.9972 528.063 76.486 528.262 76.8871C528.464 77.2848 528.744 77.5881 529.102 77.7969C529.46 78.0024 529.876 78.1051 530.35 78.1051C530.658 78.1051 530.936 78.062 531.185 77.9759C531.437 77.8864 531.654 77.7538 531.836 77.5781C532.019 77.3991 532.159 77.1771 532.259 76.9119L533.392 77.2301C533.273 77.6146 533.073 77.9527 532.791 78.2443C532.509 78.5327 532.161 78.758 531.747 78.9205C531.333 79.0795 530.867 79.1591 530.35 79.1591ZM536.47 74.4062V79H535.297V68.8182H536.47V72.5568H536.569C536.748 72.1624 537.017 71.8492 537.375 71.6172C537.736 71.3819 538.217 71.2642 538.816 71.2642C539.337 71.2642 539.792 71.3686 540.184 71.5774C540.575 71.7829 540.878 72.0994 541.093 72.527C541.312 72.9512 541.422 73.4915 541.422 74.1477V79H540.248V74.2273C540.248 73.6207 540.091 73.1518 539.776 72.8203C539.464 72.4856 539.032 72.3182 538.478 72.3182C538.094 72.3182 537.749 72.3994 537.444 72.5618C537.143 72.7242 536.904 72.9612 536.728 73.2727C536.556 73.5843 536.47 73.9621 536.47 74.4062ZM546.67 79.1591C545.981 79.1591 545.376 78.995 544.856 78.6669C544.339 78.3388 543.934 77.8797 543.643 77.2898C543.354 76.6998 543.21 76.0104 543.21 75.2216C543.21 74.4261 543.354 73.7318 543.643 73.1385C543.934 72.5452 544.339 72.0845 544.856 71.7564C545.376 71.4283 545.981 71.2642 546.67 71.2642C547.36 71.2642 547.963 71.4283 548.48 71.7564C549 72.0845 549.405 72.5452 549.693 73.1385C549.985 73.7318 550.131 74.4261 550.131 75.2216C550.131 76.0104 549.985 76.6998 549.693 77.2898C549.405 77.8797 549 78.3388 548.48 78.6669C547.963 78.995 547.36 79.1591 546.67 79.1591ZM546.67 78.1051C547.194 78.1051 547.625 77.9709 547.963 77.7024C548.301 77.4339 548.551 77.081 548.714 76.6435C548.876 76.206 548.957 75.732 548.957 75.2216C548.957 74.7112 548.876 74.2356 548.714 73.7947C548.551 73.3539 548.301 72.9976 547.963 72.7259C547.625 72.4541 547.194 72.3182 546.67 72.3182C546.147 72.3182 545.716 72.4541 545.378 72.7259C545.04 72.9976 544.789 73.3539 544.627 73.7947C544.465 74.2356 544.383 74.7112 544.383 75.2216C544.383 75.732 544.465 76.206 544.627 76.6435C544.789 77.081 545.04 77.4339 545.378 77.7024C545.716 77.9709 546.147 78.1051 546.67 78.1051ZM553.095 68.8182V79H551.922V68.8182H553.095ZM558.127 79.1591C557.491 79.1591 556.929 78.9983 556.442 78.6768C555.955 78.352 555.574 77.8946 555.298 77.3047C555.023 76.7114 554.886 76.0104 554.886 75.2017C554.886 74.3996 555.023 73.7036 555.298 73.1136C555.574 72.5237 555.956 72.0679 556.447 71.7464C556.937 71.425 557.504 71.2642 558.147 71.2642C558.644 71.2642 559.037 71.3471 559.325 71.5128C559.617 71.6752 559.839 71.8608 559.992 72.0696C560.147 72.2751 560.268 72.4441 560.355 72.5767H560.454V68.8182H561.627V79H560.494V77.8267H560.355C560.268 77.9659 560.146 78.1416 559.987 78.3537C559.828 78.5625 559.601 78.7498 559.306 78.9155C559.011 79.0779 558.618 79.1591 558.127 79.1591ZM558.286 78.1051C558.757 78.1051 559.155 77.9825 559.48 77.7372C559.804 77.4886 560.051 77.1456 560.22 76.7081C560.389 76.2673 560.474 75.7585 560.474 75.1818C560.474 74.6117 560.391 74.1129 560.225 73.6854C560.06 73.2545 559.814 72.9197 559.49 72.6811C559.165 72.4392 558.764 72.3182 558.286 72.3182C557.789 72.3182 557.375 72.4458 557.044 72.701C556.715 72.9529 556.468 73.2959 556.303 73.7301C556.14 74.161 556.059 74.6449 556.059 75.1818C556.059 75.7254 556.142 76.2192 556.308 76.6634C556.477 77.1042 556.725 77.4555 557.053 77.7173C557.385 77.9759 557.796 78.1051 558.286 78.1051ZM567.141 79.1591C566.405 79.1591 565.77 78.9967 565.237 78.6719C564.706 78.3438 564.297 77.8864 564.009 77.2997C563.724 76.7098 563.581 76.0237 563.581 75.2415C563.581 74.4593 563.724 73.7699 564.009 73.1733C564.297 72.5734 564.698 72.1061 565.212 71.7713C565.729 71.4332 566.332 71.2642 567.021 71.2642C567.419 71.2642 567.812 71.3305 568.2 71.4631C568.588 71.5956 568.941 71.8111 569.259 72.1094C569.577 72.4044 569.83 72.7955 570.019 73.2827C570.208 73.7699 570.303 74.3698 570.303 75.0824V75.5795H564.416V74.5653H569.11C569.11 74.1345 569.023 73.75 568.851 73.4119C568.682 73.0739 568.44 72.8071 568.125 72.6115C567.814 72.416 567.446 72.3182 567.021 72.3182C566.554 72.3182 566.15 72.4342 565.808 72.6662C565.47 72.8949 565.21 73.1932 565.028 73.5611C564.846 73.929 564.754 74.3234 564.754 74.7443V75.4205C564.754 75.9972 564.854 76.486 565.053 76.8871C565.255 77.2848 565.535 77.5881 565.893 77.7969C566.251 78.0024 566.667 78.1051 567.141 78.1051C567.449 78.1051 567.727 78.062 567.976 77.9759C568.228 77.8864 568.445 77.7538 568.627 77.5781C568.81 77.3991 568.95 77.1771 569.05 76.9119L570.183 77.2301C570.064 77.6146 569.864 77.9527 569.582 78.2443C569.3 78.5327 568.952 78.758 568.538 78.9205C568.124 79.0795 567.658 79.1591 567.141 79.1591ZM572.088 79V71.3636H573.221V72.517H573.301C573.44 72.1392 573.692 71.8326 574.056 71.5973C574.421 71.362 574.832 71.2443 575.289 71.2443C575.375 71.2443 575.483 71.246 575.612 71.2493C575.742 71.2526 575.839 71.2576 575.906 71.2642V72.4574C575.866 72.4474 575.775 72.4325 575.632 72.4126C575.493 72.3894 575.346 72.3778 575.19 72.3778C574.819 72.3778 574.487 72.4557 574.195 72.6115C573.907 72.764 573.678 72.9761 573.509 73.2479C573.344 73.5163 573.261 73.8229 573.261 74.1676V79H572.088Z" fill="#333333"/>
<path fill-rule="evenodd" clip-rule="evenodd" d="M482.432 252.506C478.09 252.506 474.57 256.026 474.57 260.368C474.57 264.71 478.09 268.229 482.432 268.229C486.774 268.229 490.294 264.71 490.294 260.368C490.294 256.026 486.774 252.506 482.432 252.506ZM482.432 266.657C478.959 266.657 476.143 263.841 476.143 260.368C476.143 256.894 478.959 254.078 482.432 254.078C485.906 254.078 488.722 256.894 488.722 260.368C488.722 263.841 485.906 266.657 482.432 266.657ZM478.501 260.368C478.501 258.197 480.261 256.437 482.432 256.437C484.603 256.437 486.363 258.197 486.363 260.368C486.363 262.539 484.603 264.299 482.432 264.299C480.261 264.299 478.501 262.539 478.501 260.368Z" fill="#EF8435"/>
<path d="M507.98 260.776C507.98 261.85 507.786 262.778 507.398 263.56C507.011 264.343 506.479 264.946 505.803 265.37C505.126 265.794 504.354 266.006 503.486 266.006C502.617 266.006 501.845 265.794 501.169 265.37C500.493 264.946 499.961 264.343 499.573 263.56C499.185 262.778 498.991 261.85 498.991 260.776C498.991 259.702 499.185 258.774 499.573 257.992C499.961 257.21 500.493 256.607 501.169 256.183C501.845 255.758 502.617 255.546 503.486 255.546C504.354 255.546 505.126 255.758 505.803 256.183C506.479 256.607 507.011 257.21 507.398 257.992C507.786 258.774 507.98 259.702 507.98 260.776ZM506.787 260.776C506.787 259.895 506.639 259.151 506.344 258.544C506.053 257.938 505.657 257.478 505.156 257.167C504.659 256.855 504.102 256.7 503.486 256.7C502.869 256.7 502.311 256.855 501.81 257.167C501.313 257.478 500.917 257.938 500.622 258.544C500.33 259.151 500.185 259.895 500.185 260.776C500.185 261.658 500.33 262.402 500.622 263.009C500.917 263.615 501.313 264.074 501.81 264.386C502.311 264.697 502.869 264.853 503.486 264.853C504.102 264.853 504.659 264.697 505.156 264.386C505.657 264.074 506.053 263.615 506.344 263.009C506.639 262.402 506.787 261.658 506.787 260.776ZM513.215 258.231V259.225H509.258V258.231H513.215ZM510.411 256.401H511.585V263.68C511.585 264.011 511.633 264.26 511.729 264.425C511.828 264.588 511.954 264.697 512.107 264.754C512.262 264.807 512.426 264.833 512.599 264.833C512.728 264.833 512.834 264.826 512.917 264.813C513 264.797 513.066 264.783 513.116 264.773L513.354 265.827C513.275 265.857 513.164 265.887 513.021 265.917C512.879 265.95 512.698 265.967 512.479 265.967C512.148 265.967 511.823 265.895 511.505 265.753C511.19 265.61 510.928 265.393 510.719 265.102C510.514 264.81 510.411 264.442 510.411 263.998V256.401ZM516.317 261.273V265.867H515.144V255.685H516.317V259.424H516.417C516.596 259.03 516.864 258.716 517.222 258.484C517.584 258.249 518.064 258.131 518.664 258.131C519.184 258.131 519.64 258.236 520.031 258.445C520.422 258.65 520.726 258.967 520.941 259.394C521.16 259.818 521.269 260.359 521.269 261.015V265.867H520.096V261.094C520.096 260.488 519.938 260.019 519.624 259.688C519.312 259.353 518.879 259.185 518.326 259.185C517.942 259.185 517.597 259.267 517.292 259.429C516.99 259.591 516.752 259.828 516.576 260.14C516.404 260.451 516.317 260.829 516.317 261.273ZM526.617 266.026C525.882 266.026 525.247 265.864 524.713 265.539C524.183 265.211 523.774 264.754 523.485 264.167C523.2 263.577 523.058 262.891 523.058 262.109C523.058 261.326 523.2 260.637 523.485 260.04C523.774 259.441 524.175 258.973 524.688 258.638C525.205 258.3 525.809 258.131 526.498 258.131C526.896 258.131 527.289 258.198 527.676 258.33C528.064 258.463 528.417 258.678 528.735 258.977C529.053 259.272 529.307 259.663 529.496 260.15C529.685 260.637 529.779 261.237 529.779 261.95V262.447H523.893V261.433H528.586C528.586 261.002 528.5 260.617 528.328 260.279C528.159 259.941 527.917 259.674 527.602 259.479C527.29 259.283 526.922 259.185 526.498 259.185C526.031 259.185 525.626 259.301 525.285 259.533C524.947 259.762 524.687 260.06 524.504 260.428C524.322 260.796 524.231 261.191 524.231 261.612V262.288C524.231 262.864 524.33 263.353 524.529 263.754C524.731 264.152 525.012 264.455 525.369 264.664C525.727 264.87 526.143 264.972 526.617 264.972C526.926 264.972 527.204 264.929 527.453 264.843C527.704 264.754 527.922 264.621 528.104 264.445C528.286 264.266 528.427 264.044 528.526 263.779L529.66 264.097C529.541 264.482 529.34 264.82 529.058 265.112C528.777 265.4 528.429 265.625 528.014 265.788C527.6 265.947 527.134 266.026 526.617 266.026ZM531.564 265.867V258.231H532.698V259.384H532.777C532.916 259.006 533.168 258.7 533.533 258.464C533.897 258.229 534.308 258.112 534.766 258.112C534.852 258.112 534.96 258.113 535.089 258.116C535.218 258.12 535.316 258.125 535.382 258.131V259.325C535.343 259.315 535.251 259.3 535.109 259.28C534.97 259.257 534.822 259.245 534.666 259.245C534.295 259.245 533.964 259.323 533.672 259.479C533.384 259.631 533.155 259.843 532.986 260.115C532.82 260.384 532.737 260.69 532.737 261.035V265.867H531.564Z" fill="#333333"/>
<path d="M490.285 304.445V292.754H485.758V291.485H496.135V292.754H491.608V304.445H490.285ZM497.699 308.765L499.58 303.662L499.607 305.174L495.35 294.725H496.754L500.246 303.464H499.67L502.892 294.725H504.242L499.022 308.765H497.699ZM510.17 304.715C509.276 304.715 508.52 304.49 507.902 304.04C507.284 303.584 506.816 302.969 506.498 302.195C506.18 301.415 506.021 300.542 506.021 299.576C506.021 298.592 506.18 297.716 506.498 296.948C506.822 296.174 507.296 295.565 507.92 295.121C508.544 294.677 509.312 294.455 510.224 294.455C511.112 294.455 511.874 294.68 512.51 295.13C513.146 295.58 513.632 296.192 513.968 296.966C514.31 297.74 514.481 298.61 514.481 299.576C514.481 300.548 514.31 301.421 513.968 302.195C513.626 302.969 513.134 303.584 512.492 304.04C511.85 304.49 511.076 304.715 510.17 304.715ZM505.796 308.765V294.725H506.984V302.042H507.128V308.765H505.796ZM510.035 303.482C510.713 303.482 511.277 303.311 511.727 302.969C512.177 302.627 512.513 302.162 512.735 301.574C512.963 300.98 513.077 300.314 513.077 299.576C513.077 298.844 512.966 298.184 512.744 297.596C512.522 297.008 512.183 296.543 511.727 296.201C511.277 295.859 510.704 295.688 510.008 295.688C509.33 295.688 508.766 295.853 508.316 296.183C507.872 296.513 507.539 296.972 507.317 297.56C507.095 298.142 506.984 298.814 506.984 299.576C506.984 300.326 507.095 300.998 507.317 301.592C507.539 302.18 507.875 302.642 508.325 302.978C508.775 303.314 509.345 303.482 510.035 303.482ZM520.57 304.715C519.622 304.715 518.8 304.505 518.104 304.085C517.414 303.665 516.877 303.074 516.493 302.312C516.109 301.55 515.917 300.656 515.917 299.63C515.917 298.568 516.106 297.65 516.484 296.876C516.862 296.102 517.393 295.505 518.077 295.085C518.767 294.665 519.58 294.455 520.516 294.455C521.476 294.455 522.295 294.677 522.973 295.121C523.651 295.559 524.164 296.189 524.512 297.011C524.86 297.833 525.019 298.814 524.989 299.954H523.639V299.486C523.615 298.226 523.342 297.275 522.82 296.633C522.304 295.991 521.548 295.67 520.552 295.67C519.508 295.67 518.707 296.009 518.149 296.687C517.597 297.365 517.321 298.331 517.321 299.585C517.321 300.809 517.597 301.76 518.149 302.438C518.707 303.11 519.496 303.446 520.516 303.446C521.212 303.446 521.818 303.287 522.334 302.969C522.856 302.645 523.267 302.18 523.567 301.574L524.8 302.051C524.416 302.897 523.849 303.554 523.099 304.022C522.355 304.484 521.512 304.715 520.57 304.715ZM516.853 299.954V298.847H524.278V299.954H516.853ZM531.976 308.765L533.857 303.662L533.884 305.174L529.627 294.725H531.031L534.523 303.464H533.947L537.169 294.725H538.519L533.299 308.765H531.976ZM543.79 304.715C542.824 304.715 541.999 304.496 541.315 304.058C540.631 303.62 540.106 303.014 539.74 302.24C539.374 301.466 539.191 300.578 539.191 299.576C539.191 298.556 539.377 297.662 539.749 296.894C540.121 296.126 540.649 295.529 541.333 295.103C542.023 294.671 542.842 294.455 543.79 294.455C544.762 294.455 545.59 294.674 546.274 295.112C546.964 295.544 547.489 296.147 547.849 296.921C548.215 297.689 548.398 298.574 548.398 299.576C548.398 300.596 548.215 301.493 547.849 302.267C547.483 303.035 546.955 303.635 546.265 304.067C545.575 304.499 544.75 304.715 543.79 304.715ZM543.79 303.446C544.87 303.446 545.674 303.089 546.202 302.375C546.73 301.655 546.994 300.722 546.994 299.576C546.994 298.4 546.727 297.464 546.193 296.768C545.665 296.072 544.864 295.724 543.79 295.724C543.064 295.724 542.464 295.889 541.99 296.219C541.522 296.543 541.171 296.996 540.937 297.578C540.709 298.154 540.595 298.82 540.595 299.576C540.595 300.746 540.865 301.685 541.405 302.393C541.945 303.095 542.74 303.446 543.79 303.446ZM554.1 304.688C553.518 304.688 553.008 304.598 552.57 304.418C552.138 304.238 551.769 303.995 551.463 303.689C551.163 303.383 550.92 303.035 550.734 302.645C550.548 302.249 550.413 301.832 550.329 301.394C550.245 300.95 550.203 300.509 550.203 300.071V294.725H551.535V299.684C551.535 300.218 551.586 300.713 551.688 301.169C551.79 301.625 551.952 302.024 552.174 302.366C552.402 302.702 552.693 302.963 553.047 303.149C553.407 303.335 553.842 303.428 554.352 303.428C554.82 303.428 555.231 303.347 555.585 303.185C555.945 303.023 556.245 302.792 556.485 302.492C556.731 302.186 556.917 301.817 557.043 301.385C557.169 300.947 557.232 300.455 557.232 299.909L558.168 300.116C558.168 301.112 557.994 301.949 557.646 302.627C557.298 303.305 556.818 303.818 556.206 304.166C555.594 304.514 554.892 304.688 554.1 304.688ZM557.367 304.445V302.051H557.232V294.725H558.555V304.445H557.367ZM561.071 304.445V294.725H562.259V297.065L562.025 296.759C562.133 296.471 562.274 296.207 562.448 295.967C562.622 295.721 562.811 295.52 563.015 295.364C563.267 295.142 563.561 294.974 563.897 294.86C564.233 294.74 564.572 294.671 564.914 294.653C565.256 294.629 565.568 294.653 565.85 294.725V295.967C565.496 295.877 565.109 295.856 564.689 295.904C564.269 295.952 563.882 296.12 563.528 296.408C563.204 296.66 562.961 296.963 562.799 297.317C562.637 297.665 562.529 298.037 562.475 298.433C562.421 298.823 562.394 299.21 562.394 299.594V304.445H561.071ZM573.941 304.715C573.209 304.715 572.594 304.583 572.096 304.319C571.604 304.055 571.235 303.704 570.989 303.266C570.743 302.828 570.62 302.351 570.62 301.835C570.62 301.307 570.725 300.857 570.935 300.485C571.151 300.107 571.442 299.798 571.808 299.558C572.18 299.318 572.609 299.135 573.095 299.009C573.587 298.889 574.13 298.784 574.724 298.694C575.324 298.598 575.909 298.517 576.479 298.451C577.055 298.379 577.559 298.31 577.991 298.244L577.523 298.532C577.541 297.572 577.355 296.861 576.965 296.399C576.575 295.937 575.897 295.706 574.931 295.706C574.265 295.706 573.701 295.856 573.239 296.156C572.783 296.456 572.462 296.93 572.276 297.578L570.989 297.2C571.211 296.33 571.658 295.655 572.33 295.175C573.002 294.695 573.875 294.455 574.949 294.455C575.837 294.455 576.59 294.623 577.208 294.959C577.832 295.289 578.273 295.769 578.531 296.399C578.651 296.681 578.729 296.996 578.765 297.344C578.801 297.692 578.819 298.046 578.819 298.406V304.445H577.64V302.006L577.982 302.15C577.652 302.984 577.139 303.62 576.443 304.058C575.747 304.496 574.913 304.715 573.941 304.715ZM574.094 303.572C574.712 303.572 575.252 303.461 575.714 303.239C576.176 303.017 576.548 302.714 576.83 302.33C577.112 301.94 577.295 301.502 577.379 301.016C577.451 300.704 577.49 300.362 577.496 299.99C577.502 299.612 577.505 299.33 577.505 299.144L578.009 299.405C577.559 299.465 577.07 299.525 576.542 299.585C576.02 299.645 575.504 299.714 574.994 299.792C574.49 299.87 574.034 299.963 573.626 300.071C573.35 300.149 573.083 300.26 572.825 300.404C572.567 300.542 572.354 300.728 572.186 300.962C572.024 301.196 571.943 301.487 571.943 301.835C571.943 302.117 572.012 302.39 572.15 302.654C572.294 302.918 572.522 303.137 572.834 303.311C573.152 303.485 573.572 303.572 574.094 303.572ZM588.182 304.445V299.486C588.182 298.946 588.131 298.451 588.029 298.001C587.927 297.545 587.762 297.149 587.534 296.813C587.312 296.471 587.021 296.207 586.661 296.021C586.307 295.835 585.875 295.742 585.365 295.742C584.897 295.742 584.483 295.823 584.123 295.985C583.769 296.147 583.469 296.381 583.223 296.687C582.983 296.987 582.8 297.353 582.674 297.785C582.548 298.217 582.485 298.709 582.485 299.261L581.549 299.054C581.549 298.058 581.723 297.221 582.071 296.543C582.419 295.865 582.899 295.352 583.511 295.004C584.123 294.656 584.825 294.482 585.617 294.482C586.199 294.482 586.706 294.572 587.138 294.752C587.576 294.932 587.945 295.175 588.245 295.481C588.551 295.787 588.797 296.138 588.983 296.534C589.169 296.924 589.304 297.341 589.388 297.785C589.472 298.223 589.514 298.661 589.514 299.099V304.445H588.182ZM581.153 304.445V294.725H582.35V297.119H582.485V304.445H581.153ZM595.477 304.706C594.337 304.706 593.398 304.46 592.66 303.968C591.928 303.476 591.478 302.792 591.31 301.916L592.66 301.691C592.804 302.243 593.131 302.684 593.641 303.014C594.157 303.338 594.793 303.5 595.549 303.5C596.287 303.5 596.869 303.347 597.295 303.041C597.721 302.729 597.934 302.306 597.934 301.772C597.934 301.472 597.865 301.229 597.727 301.043C597.595 300.851 597.322 300.674 596.908 300.512C596.494 300.35 595.876 300.158 595.054 299.936C594.172 299.696 593.482 299.456 592.984 299.216C592.486 298.976 592.132 298.7 591.922 298.388C591.712 298.07 591.607 297.683 591.607 297.227C591.607 296.675 591.763 296.192 592.075 295.778C592.387 295.358 592.819 295.034 593.371 294.806C593.923 294.572 594.565 294.455 595.297 294.455C596.029 294.455 596.683 294.575 597.259 294.815C597.841 295.049 598.309 295.379 598.663 295.805C599.017 296.231 599.227 296.726 599.293 297.29L597.943 297.533C597.853 296.963 597.568 296.513 597.088 296.183C596.614 295.847 596.011 295.673 595.279 295.661C594.589 295.643 594.028 295.775 593.596 296.057C593.164 296.333 592.948 296.702 592.948 297.164C592.948 297.422 593.026 297.644 593.182 297.83C593.338 298.01 593.62 298.181 594.028 298.343C594.442 298.505 595.03 298.682 595.792 298.874C596.686 299.102 597.388 299.342 597.898 299.594C598.408 299.846 598.771 300.143 598.987 300.485C599.203 300.827 599.311 301.25 599.311 301.754C599.311 302.672 598.969 303.395 598.285 303.923C597.607 304.445 596.671 304.706 595.477 304.706ZM603.025 304.445L600.055 294.716L601.378 294.725L603.682 302.276L605.995 294.725H607.201L609.514 302.276L611.836 294.725H613.15L610.18 304.445H609.028L606.598 296.705L604.177 304.445H603.025ZM618.533 304.715C617.585 304.715 616.763 304.505 616.067 304.085C615.377 303.665 614.84 303.074 614.456 302.312C614.072 301.55 613.88 300.656 613.88 299.63C613.88 298.568 614.069 297.65 614.447 296.876C614.825 296.102 615.356 295.505 616.04 295.085C616.73 294.665 617.543 294.455 618.479 294.455C619.439 294.455 620.258 294.677 620.936 295.121C621.614 295.559 622.127 296.189 622.475 297.011C622.823 297.833 622.982 298.814 622.952 299.954H621.602V299.486C621.578 298.226 621.305 297.275 620.783 296.633C620.267 295.991 619.511 295.67 618.515 295.67C617.471 295.67 616.67 296.009 616.112 296.687C615.56 297.365 615.284 298.331 615.284 299.585C615.284 300.809 615.56 301.76 616.112 302.438C616.67 303.11 617.459 303.446 618.479 303.446C619.175 303.446 619.781 303.287 620.297 302.969C620.819 302.645 621.23 302.18 621.53 301.574L622.763 302.051C622.379 302.897 621.812 303.554 621.062 304.022C620.318 304.484 619.475 304.715 618.533 304.715ZM614.816 299.954V298.847H622.241V299.954H614.816ZM624.949 304.445V294.725H626.137V297.065L625.903 296.759C626.011 296.471 626.152 296.207 626.326 295.967C626.5 295.721 626.689 295.52 626.893 295.364C627.145 295.142 627.439 294.974 627.775 294.86C628.111 294.74 628.45 294.671 628.792 294.653C629.134 294.629 629.446 294.653 629.728 294.725V295.967C629.374 295.877 628.987 295.856 628.567 295.904C628.147 295.952 627.76 296.12 627.406 296.408C627.082 296.66 626.839 296.963 626.677 297.317C626.515 297.665 626.407 298.037 626.353 298.433C626.299 298.823 626.272 299.21 626.272 299.594V304.445H624.949ZM493.858 334.445V329.486C493.858 328.946 493.807 328.451 493.705 328.001C493.603 327.545 493.438 327.149 493.21 326.813C492.988 326.471 492.697 326.207 492.337 326.021C491.983 325.835 491.551 325.742 491.041 325.742C490.573 325.742 490.159 325.823 489.799 325.985C489.445 326.147 489.145 326.381 488.899 326.687C488.659 326.987 488.476 327.353 488.35 327.785C488.224 328.217 488.161 328.709 488.161 329.261L487.225 329.054C487.225 328.058 487.399 327.221 487.747 326.543C488.095 325.865 488.575 325.352 489.187 325.004C489.799 324.656 490.501 324.482 491.293 324.482C491.875 324.482 492.382 324.572 492.814 324.752C493.252 324.932 493.621 325.175 493.921 325.481C494.227 325.787 494.473 326.138 494.659 326.534C494.845 326.924 494.98 327.341 495.064 327.785C495.148 328.223 495.19 328.661 495.19 329.099V334.445H493.858ZM486.829 334.445V321.485H488.026V328.802H488.161V334.445H486.829ZM501.639 334.715C500.691 334.715 499.869 334.505 499.173 334.085C498.483 333.665 497.946 333.074 497.562 332.312C497.178 331.55 496.986 330.656 496.986 329.63C496.986 328.568 497.175 327.65 497.553 326.876C497.931 326.102 498.462 325.505 499.146 325.085C499.836 324.665 500.649 324.455 501.585 324.455C502.545 324.455 503.364 324.677 504.042 325.121C504.72 325.559 505.233 326.189 505.581 327.011C505.929 327.833 506.088 328.814 506.058 329.954H504.708V329.486C504.684 328.226 504.411 327.275 503.889 326.633C503.373 325.991 502.617 325.67 501.621 325.67C500.577 325.67 499.776 326.009 499.218 326.687C498.666 327.365 498.39 328.331 498.39 329.585C498.39 330.809 498.666 331.76 499.218 332.438C499.776 333.11 500.565 333.446 501.585 333.446C502.281 333.446 502.887 333.287 503.403 332.969C503.925 332.645 504.336 332.18 504.636 331.574L505.869 332.051C505.485 332.897 504.918 333.554 504.168 334.022C503.424 334.484 502.581 334.715 501.639 334.715ZM497.922 329.954V328.847H505.347V329.954H497.922ZM508.055 334.445V324.725H509.243V327.065L509.009 326.759C509.117 326.471 509.258 326.207 509.432 325.967C509.606 325.721 509.795 325.52 509.999 325.364C510.251 325.142 510.545 324.974 510.881 324.86C511.217 324.74 511.556 324.671 511.898 324.653C512.24 324.629 512.552 324.653 512.834 324.725V325.967C512.48 325.877 512.093 325.856 511.673 325.904C511.253 325.952 510.866 326.12 510.512 326.408C510.188 326.66 509.945 326.963 509.783 327.317C509.621 327.665 509.513 328.037 509.459 328.433C509.405 328.823 509.378 329.21 509.378 329.594V334.445H508.055ZM518.478 334.715C517.53 334.715 516.708 334.505 516.012 334.085C515.322 333.665 514.785 333.074 514.401 332.312C514.017 331.55 513.825 330.656 513.825 329.63C513.825 328.568 514.014 327.65 514.392 326.876C514.77 326.102 515.301 325.505 515.985 325.085C516.675 324.665 517.488 324.455 518.424 324.455C519.384 324.455 520.203 324.677 520.881 325.121C521.559 325.559 522.072 326.189 522.42 327.011C522.768 327.833 522.927 328.814 522.897 329.954H521.547V329.486C521.523 328.226 521.25 327.275 520.728 326.633C520.212 325.991 519.456 325.67 518.46 325.67C517.416 325.67 516.615 326.009 516.057 326.687C515.505 327.365 515.229 328.331 515.229 329.585C515.229 330.809 515.505 331.76 516.057 332.438C516.615 333.11 517.404 333.446 518.424 333.446C519.12 333.446 519.726 333.287 520.242 332.969C520.764 332.645 521.175 332.18 521.475 331.574L522.708 332.051C522.324 332.897 521.757 333.554 521.007 334.022C520.263 334.484 519.42 334.715 518.478 334.715ZM514.761 329.954V328.847H522.186V329.954H514.761ZM524.795 334.445V332.906H526.334V334.445H524.795ZM529.366 334.445V332.906H530.905V334.445H529.366ZM533.936 334.445V332.906H535.475V334.445H533.936Z" fill="#707070"/>
<rect x="473.786" y="276.942" width="200.475" height="71.0065" rx="2.35853" stroke="#FAD9C0" stroke-width="1.57235"/>
<path fill-rule="evenodd" clip-rule="evenodd" d="M340.432 65.6387C336.09 65.6387 332.57 69.1585 332.57 73.5004C332.57 77.8424 336.09 81.3622 340.432 81.3622C344.774 81.3622 348.294 77.8424 348.294 73.5004C348.294 69.1585 344.774 65.6387 340.432 65.6387ZM340.432 79.7899C336.959 79.7899 334.143 76.974 334.143 73.5005C334.143 70.027 336.959 67.2111 340.432 67.2111C343.906 67.2111 346.722 70.027 346.722 73.5005C346.722 76.974 343.906 79.7899 340.432 79.7899ZM336.501 73.5005C336.501 71.3295 338.261 69.5696 340.432 69.5696C342.603 69.5696 344.363 71.3295 344.363 73.5005C344.363 75.6715 342.603 77.4314 340.432 77.4314C338.261 77.4314 336.501 75.6715 336.501 73.5005Z" fill="#FAD9C0"/>
<path d="M357.389 79V68.8182H360.83C361.628 68.8182 362.281 68.9624 362.788 69.2507C363.299 69.5357 363.677 69.9219 363.922 70.4091C364.167 70.8963 364.29 71.4399 364.29 72.0398C364.29 72.6397 364.167 73.1849 363.922 73.6754C363.68 74.166 363.305 74.5571 362.798 74.8487C362.291 75.1371 361.642 75.2812 360.849 75.2812H358.384V74.1875H360.81C361.357 74.1875 361.796 74.093 362.127 73.9041C362.459 73.7152 362.699 73.46 362.848 73.1385C363 72.8137 363.077 72.4474 363.077 72.0398C363.077 71.6321 363 71.2675 362.848 70.946C362.699 70.6245 362.457 70.3726 362.122 70.1903C361.787 70.0047 361.343 69.9119 360.79 69.9119H358.622V79H357.389ZM367.29 68.8182V79H366.117V68.8182H367.29ZM371.686 79.179C371.202 79.179 370.763 79.0878 370.369 78.9055C369.974 78.7199 369.661 78.4531 369.429 78.1051C369.197 77.7538 369.081 77.3295 369.081 76.8324C369.081 76.3949 369.167 76.0402 369.34 75.7685C369.512 75.4934 369.742 75.2779 370.031 75.1222C370.319 74.9664 370.637 74.8504 370.985 74.7741C371.337 74.6946 371.69 74.6316 372.044 74.5852C372.508 74.5256 372.884 74.4808 373.173 74.451C373.464 74.4179 373.677 74.3632 373.809 74.2869C373.945 74.2107 374.013 74.0781 374.013 73.8892V73.8494C374.013 73.3589 373.879 72.9777 373.61 72.706C373.345 72.4342 372.942 72.2983 372.402 72.2983C371.842 72.2983 371.403 72.4209 371.085 72.6662C370.767 72.9115 370.543 73.1733 370.414 73.4517L369.3 73.054C369.499 72.59 369.764 72.2287 370.095 71.9702C370.43 71.7083 370.795 71.526 371.189 71.4233C371.587 71.3172 371.978 71.2642 372.362 71.2642C372.608 71.2642 372.889 71.294 373.208 71.3537C373.529 71.41 373.839 71.5277 374.137 71.7067C374.439 71.8857 374.689 72.1558 374.888 72.517C375.087 72.8783 375.186 73.3622 375.186 73.9688V79H374.013V77.9659H373.953C373.874 78.1316 373.741 78.3089 373.556 78.4979C373.37 78.6868 373.123 78.8475 372.815 78.9801C372.507 79.1127 372.13 79.179 371.686 79.179ZM371.865 78.125C372.329 78.125 372.72 78.0339 373.039 77.8516C373.36 77.6693 373.602 77.4339 373.764 77.1456C373.93 76.8572 374.013 76.554 374.013 76.2358V75.1619C373.963 75.2216 373.854 75.2763 373.685 75.326C373.519 75.3724 373.327 75.4138 373.108 75.4503C372.893 75.4834 372.682 75.5133 372.477 75.5398C372.275 75.563 372.11 75.5829 371.985 75.5994C371.68 75.6392 371.395 75.7038 371.129 75.7933C370.868 75.8795 370.655 76.0104 370.493 76.1861C370.334 76.3584 370.254 76.5937 370.254 76.892C370.254 77.2997 370.405 77.608 370.707 77.8168C371.012 78.0223 371.398 78.125 371.865 78.125ZM380.43 79.1591C379.714 79.1591 379.098 78.9901 378.581 78.652C378.064 78.3139 377.666 77.8482 377.387 77.255C377.109 76.6617 376.97 75.9839 376.97 75.2216C376.97 74.446 377.112 73.7616 377.397 73.1683C377.686 72.5717 378.087 72.1061 378.6 71.7713C379.118 71.4332 379.721 71.2642 380.41 71.2642C380.947 71.2642 381.431 71.3636 381.862 71.5625C382.293 71.7614 382.646 72.0398 382.921 72.3977C383.196 72.7557 383.367 73.1733 383.433 73.6506H382.26C382.17 73.3026 381.971 72.9943 381.663 72.7259C381.358 72.4541 380.947 72.3182 380.43 72.3182C379.973 72.3182 379.572 72.4375 379.227 72.6761C378.886 72.9115 378.619 73.2446 378.426 73.6754C378.238 74.103 378.143 74.6051 378.143 75.1818C378.143 75.7718 378.236 76.2855 378.422 76.723C378.61 77.1605 378.876 77.5002 379.217 77.7422C379.562 77.9841 379.966 78.1051 380.43 78.1051C380.735 78.1051 381.012 78.0521 381.26 77.946C381.509 77.84 381.719 77.6875 381.892 77.4886C382.064 77.2898 382.187 77.0511 382.26 76.7727H383.433C383.367 77.2235 383.203 77.6295 382.941 77.9908C382.682 78.3487 382.339 78.6338 381.912 78.8459C381.487 79.0547 380.993 79.1591 380.43 79.1591ZM388.35 79.1591C387.614 79.1591 386.979 78.9967 386.446 78.6719C385.915 78.3438 385.506 77.8864 385.218 77.2997C384.933 76.7098 384.79 76.0237 384.79 75.2415C384.79 74.4593 384.933 73.7699 385.218 73.1733C385.506 72.5734 385.907 72.1061 386.421 71.7713C386.938 71.4332 387.541 71.2642 388.23 71.2642C388.628 71.2642 389.021 71.3305 389.409 71.4631C389.797 71.5956 390.15 71.8111 390.468 72.1094C390.786 72.4044 391.039 72.7955 391.228 73.2827C391.417 73.7699 391.512 74.3698 391.512 75.0824V75.5795H385.625V74.5653H390.319C390.319 74.1345 390.232 73.75 390.06 73.4119C389.891 73.0739 389.649 72.8071 389.334 72.6115C389.023 72.416 388.655 72.3182 388.23 72.3182C387.763 72.3182 387.359 72.4342 387.017 72.6662C386.679 72.8949 386.419 73.1932 386.237 73.5611C386.055 73.929 385.963 74.3234 385.963 74.7443V75.4205C385.963 75.9972 386.063 76.486 386.262 76.8871C386.464 77.2848 386.744 77.5881 387.102 77.7969C387.46 78.0024 387.876 78.1051 388.35 78.1051C388.658 78.1051 388.936 78.062 389.185 77.9759C389.437 77.8864 389.654 77.7538 389.836 77.5781C390.019 77.3991 390.159 77.1771 390.259 76.9119L391.392 77.2301C391.273 77.6146 391.073 77.9527 390.791 78.2443C390.509 78.5327 390.161 78.758 389.747 78.9205C389.333 79.0795 388.867 79.1591 388.35 79.1591ZM394.47 74.4062V79H393.297V68.8182H394.47V72.5568H394.569C394.748 72.1624 395.017 71.8492 395.375 71.6172C395.736 71.3819 396.217 71.2642 396.816 71.2642C397.337 71.2642 397.792 71.3686 398.184 71.5774C398.575 71.7829 398.878 72.0994 399.093 72.527C399.312 72.9512 399.422 73.4915 399.422 74.1477V79H398.248V74.2273C398.248 73.6207 398.091 73.1518 397.776 72.8203C397.464 72.4856 397.032 72.3182 396.478 72.3182C396.094 72.3182 395.749 72.3994 395.444 72.5618C395.143 72.7242 394.904 72.9612 394.728 73.2727C394.556 73.5843 394.47 73.9621 394.47 74.4062ZM404.67 79.1591C403.981 79.1591 403.376 78.995 402.856 78.6669C402.339 78.3388 401.934 77.8797 401.643 77.2898C401.354 76.6998 401.21 76.0104 401.21 75.2216C401.21 74.4261 401.354 73.7318 401.643 73.1385C401.934 72.5452 402.339 72.0845 402.856 71.7564C403.376 71.4283 403.981 71.2642 404.67 71.2642C405.36 71.2642 405.963 71.4283 406.48 71.7564C407 72.0845 407.405 72.5452 407.693 73.1385C407.985 73.7318 408.131 74.4261 408.131 75.2216C408.131 76.0104 407.985 76.6998 407.693 77.2898C407.405 77.8797 407 78.3388 406.48 78.6669C405.963 78.995 405.36 79.1591 404.67 79.1591ZM404.67 78.1051C405.194 78.1051 405.625 77.9709 405.963 77.7024C406.301 77.4339 406.551 77.081 406.714 76.6435C406.876 76.206 406.957 75.732 406.957 75.2216C406.957 74.7112 406.876 74.2356 406.714 73.7947C406.551 73.3539 406.301 72.9976 405.963 72.7259C405.625 72.4541 405.194 72.3182 404.67 72.3182C404.147 72.3182 403.716 72.4541 403.378 72.7259C403.04 72.9976 402.789 73.3539 402.627 73.7947C402.465 74.2356 402.383 74.7112 402.383 75.2216C402.383 75.732 402.465 76.206 402.627 76.6435C402.789 77.081 403.04 77.4339 403.378 77.7024C403.716 77.9709 404.147 78.1051 404.67 78.1051ZM411.095 68.8182V79H409.922V68.8182H411.095ZM416.127 79.1591C415.491 79.1591 414.929 78.9983 414.442 78.6768C413.955 78.352 413.574 77.8946 413.298 77.3047C413.023 76.7114 412.886 76.0104 412.886 75.2017C412.886 74.3996 413.023 73.7036 413.298 73.1136C413.574 72.5237 413.956 72.0679 414.447 71.7464C414.937 71.425 415.504 71.2642 416.147 71.2642C416.644 71.2642 417.037 71.3471 417.325 71.5128C417.617 71.6752 417.839 71.8608 417.992 72.0696C418.147 72.2751 418.268 72.4441 418.355 72.5767H418.454V68.8182H419.627V79H418.494V77.8267H418.355C418.268 77.9659 418.146 78.1416 417.987 78.3537C417.828 78.5625 417.601 78.7498 417.306 78.9155C417.011 79.0779 416.618 79.1591 416.127 79.1591ZM416.286 78.1051C416.757 78.1051 417.155 77.9825 417.48 77.7372C417.804 77.4886 418.051 77.1456 418.22 76.7081C418.389 76.2673 418.474 75.7585 418.474 75.1818C418.474 74.6117 418.391 74.1129 418.225 73.6854C418.06 73.2545 417.814 72.9197 417.49 72.6811C417.165 72.4392 416.764 72.3182 416.286 72.3182C415.789 72.3182 415.375 72.4458 415.044 72.701C414.715 72.9529 414.468 73.2959 414.303 73.7301C414.14 74.161 414.059 74.6449 414.059 75.1818C414.059 75.7254 414.142 76.2192 414.308 76.6634C414.477 77.1042 414.725 77.4555 415.053 77.7173C415.385 77.9759 415.796 78.1051 416.286 78.1051ZM425.141 79.1591C424.405 79.1591 423.77 78.9967 423.237 78.6719C422.706 78.3438 422.297 77.8864 422.009 77.2997C421.724 76.7098 421.581 76.0237 421.581 75.2415C421.581 74.4593 421.724 73.7699 422.009 73.1733C422.297 72.5734 422.698 72.1061 423.212 71.7713C423.729 71.4332 424.332 71.2642 425.021 71.2642C425.419 71.2642 425.812 71.3305 426.2 71.4631C426.588 71.5956 426.941 71.8111 427.259 72.1094C427.577 72.4044 427.83 72.7955 428.019 73.2827C428.208 73.7699 428.303 74.3698 428.303 75.0824V75.5795H422.416V74.5653H427.11C427.11 74.1345 427.023 73.75 426.851 73.4119C426.682 73.0739 426.44 72.8071 426.125 72.6115C425.814 72.416 425.446 72.3182 425.021 72.3182C424.554 72.3182 424.15 72.4342 423.808 72.6662C423.47 72.8949 423.21 73.1932 423.028 73.5611C422.846 73.929 422.754 74.3234 422.754 74.7443V75.4205C422.754 75.9972 422.854 76.486 423.053 76.8871C423.255 77.2848 423.535 77.5881 423.893 77.7969C424.251 78.0024 424.667 78.1051 425.141 78.1051C425.449 78.1051 425.727 78.062 425.976 77.9759C426.228 77.8864 426.445 77.7538 426.627 77.5781C426.81 77.3991 426.95 77.1771 427.05 76.9119L428.183 77.2301C428.064 77.6146 427.864 77.9527 427.582 78.2443C427.3 78.5327 426.952 78.758 426.538 78.9205C426.124 79.0795 425.658 79.1591 425.141 79.1591ZM430.088 79V71.3636H431.221V72.517H431.301C431.44 72.1392 431.692 71.8326 432.056 71.5973C432.421 71.362 432.832 71.2443 433.289 71.2443C433.375 71.2443 433.483 71.246 433.612 71.2493C433.742 71.2526 433.839 71.2576 433.906 71.2642V72.4574C433.866 72.4474 433.775 72.4325 433.632 72.4126C433.493 72.3894 433.346 72.3778 433.19 72.3778C432.819 72.3778 432.487 72.4557 432.195 72.6115C431.907 72.764 431.678 72.9761 431.509 73.2479C431.344 73.5163 431.261 73.8229 431.261 74.1676V79H430.088Z" fill="#FAD9C0"/>
<path fill-rule="evenodd" clip-rule="evenodd" d="M344.581 252.506C340.239 252.506 336.719 256.026 336.719 260.368C336.719 264.71 340.239 268.229 344.581 268.229C348.922 268.229 352.442 264.71 352.442 260.368C352.442 256.026 348.922 252.506 344.581 252.506ZM344.581 266.657C341.107 266.657 338.291 263.841 338.291 260.368C338.291 256.894 341.107 254.078 344.581 254.078C348.054 254.078 350.87 256.894 350.87 260.368C350.87 263.841 348.054 266.657 344.581 266.657ZM340.65 260.368C340.65 258.197 342.41 256.437 344.581 256.437C346.752 256.437 348.511 258.197 348.511 260.368C348.511 262.539 346.752 264.299 344.581 264.299C342.41 264.299 340.65 262.539 340.65 260.368Z" fill="#FAD9C0"/>
<path d="M370.129 260.776C370.129 261.85 369.935 262.778 369.547 263.56C369.159 264.343 368.627 264.946 367.951 265.37C367.275 265.794 366.503 266.006 365.634 266.006C364.766 266.006 363.994 265.794 363.317 265.37C362.641 264.946 362.109 264.343 361.722 263.56C361.334 262.778 361.14 261.85 361.14 260.776C361.14 259.702 361.334 258.774 361.722 257.992C362.109 257.21 362.641 256.607 363.317 256.183C363.994 255.758 364.766 255.546 365.634 255.546C366.503 255.546 367.275 255.758 367.951 256.183C368.627 256.607 369.159 257.21 369.547 257.992C369.935 258.774 370.129 259.702 370.129 260.776ZM368.935 260.776C368.935 259.895 368.788 259.151 368.493 258.544C368.201 257.938 367.805 257.478 367.305 257.167C366.808 256.855 366.251 256.7 365.634 256.7C365.018 256.7 364.459 256.855 363.959 257.167C363.462 257.478 363.066 257.938 362.771 258.544C362.479 259.151 362.333 259.895 362.333 260.776C362.333 261.658 362.479 262.402 362.771 263.009C363.066 263.615 363.462 264.074 363.959 264.386C364.459 264.697 365.018 264.853 365.634 264.853C366.251 264.853 366.808 264.697 367.305 264.386C367.805 264.074 368.201 263.615 368.493 263.009C368.788 262.402 368.935 261.658 368.935 260.776ZM375.364 258.231V259.225H371.406V258.231H375.364ZM372.56 256.401H373.733V263.68C373.733 264.011 373.781 264.26 373.877 264.425C373.977 264.588 374.103 264.697 374.255 264.754C374.411 264.807 374.575 264.833 374.747 264.833C374.876 264.833 374.982 264.826 375.065 264.813C375.148 264.797 375.214 264.783 375.264 264.773L375.503 265.827C375.423 265.857 375.312 265.887 375.17 265.917C375.027 265.95 374.847 265.967 374.628 265.967C374.296 265.967 373.972 265.895 373.653 265.753C373.339 265.61 373.077 265.393 372.868 265.102C372.662 264.81 372.56 264.442 372.56 263.998V256.401ZM378.466 261.273V265.867H377.293V255.685H378.466V259.424H378.565C378.744 259.03 379.013 258.716 379.371 258.484C379.732 258.249 380.213 258.131 380.812 258.131C381.333 258.131 381.789 258.236 382.18 258.445C382.571 258.65 382.874 258.967 383.089 259.394C383.308 259.818 383.418 260.359 383.418 261.015V265.867H382.244V261.094C382.244 260.488 382.087 260.019 381.772 259.688C381.46 259.353 381.028 259.185 380.474 259.185C380.09 259.185 379.745 259.267 379.44 259.429C379.139 259.591 378.9 259.828 378.724 260.14C378.552 260.451 378.466 260.829 378.466 261.273ZM388.766 266.026C388.03 266.026 387.395 265.864 386.862 265.539C386.331 265.211 385.922 264.754 385.634 264.167C385.349 263.577 385.206 262.891 385.206 262.109C385.206 261.326 385.349 260.637 385.634 260.04C385.922 259.441 386.323 258.973 386.837 258.638C387.354 258.3 387.957 258.131 388.646 258.131C389.044 258.131 389.437 258.198 389.825 258.33C390.213 258.463 390.566 258.678 390.884 258.977C391.202 259.272 391.455 259.663 391.644 260.15C391.833 260.637 391.928 261.237 391.928 261.95V262.447H386.041V261.433H390.735C390.735 261.002 390.648 260.617 390.476 260.279C390.307 259.941 390.065 259.674 389.75 259.479C389.439 259.283 389.071 259.185 388.646 259.185C388.179 259.185 387.775 259.301 387.433 259.533C387.095 259.762 386.835 260.06 386.653 260.428C386.471 260.796 386.379 261.191 386.379 261.612V262.288C386.379 262.864 386.479 263.353 386.678 263.754C386.88 264.152 387.16 264.455 387.518 264.664C387.876 264.87 388.292 264.972 388.766 264.972C389.074 264.972 389.352 264.929 389.601 264.843C389.853 264.754 390.07 264.621 390.252 264.445C390.435 264.266 390.575 264.044 390.675 263.779L391.808 264.097C391.689 264.482 391.489 264.82 391.207 265.112C390.925 265.4 390.577 265.625 390.163 265.788C389.749 265.947 389.283 266.026 388.766 266.026ZM393.713 265.867V258.231H394.846V259.384H394.926C395.065 259.006 395.317 258.7 395.681 258.464C396.046 258.229 396.457 258.112 396.914 258.112C397 258.112 397.108 258.113 397.237 258.116C397.367 258.12 397.464 258.125 397.531 258.131V259.325C397.491 259.315 397.4 259.3 397.257 259.28C397.118 259.257 396.971 259.245 396.815 259.245C396.444 259.245 396.112 259.323 395.82 259.479C395.532 259.631 395.303 259.843 395.134 260.115C394.969 260.384 394.886 260.69 394.886 261.035V265.867H393.713Z" fill="#333333"/>
</g>
<rect x="0.5" y="0.5" width="724" height="371" rx="7.5" stroke="#333333"/>
<defs>
<clipPath id="clip0_2192_73188">
<rect width="725" height="372" rx="8" fill="white"/>
</clipPath>
</defs>
</svg>
