<svg width="725" height="286" viewBox="0 0 725 286" fill="none" xmlns="http://www.w3.org/2000/svg">
<g clip-path="url(#clip0_2192_73124)">
<rect width="725" height="286" rx="8" fill="#111111"/>
<rect x="40" y="40" width="91" height="33" rx="4" fill="#EF8435"/>
<path d="M62.8849 62V51.8182H66.9616C67.7107 51.8182 68.3355 51.9292 68.8359 52.1513C69.3364 52.3733 69.7126 52.6816 69.9645 53.076C70.2164 53.4671 70.3423 53.9179 70.3423 54.4283C70.3423 54.826 70.2628 55.1757 70.1037 55.4773C69.9446 55.7756 69.7259 56.0208 69.4474 56.2131C69.1723 56.402 68.8575 56.5362 68.5028 56.6158V56.7152C68.8906 56.7318 69.2536 56.8411 69.5916 57.0433C69.933 57.2455 70.2098 57.5289 70.4219 57.8935C70.634 58.2547 70.7401 58.6856 70.7401 59.1861C70.7401 59.7263 70.6058 60.2086 70.3374 60.6328C70.0722 61.0537 69.6795 61.3868 69.1591 61.6321C68.6387 61.8774 67.9974 62 67.2351 62H62.8849ZM65.0376 60.2401H66.7926C67.3925 60.2401 67.83 60.1257 68.1051 59.897C68.3802 59.665 68.5178 59.3568 68.5178 58.9723C68.5178 58.6906 68.4498 58.442 68.3139 58.2266C68.178 58.0111 67.9841 57.8421 67.7322 57.7195C67.4837 57.5968 67.187 57.5355 66.8423 57.5355H65.0376V60.2401ZM65.0376 56.0788H66.6335C66.9285 56.0788 67.1903 56.0275 67.419 55.9247C67.651 55.8187 67.8333 55.6695 67.9659 55.4773C68.1018 55.285 68.1697 55.0547 68.1697 54.7862C68.1697 54.4183 68.0388 54.1217 67.777 53.8963C67.5185 53.6709 67.1506 53.5582 66.6733 53.5582H65.0376V56.0788ZM76.998 58.7486V54.3636H79.1159V62H77.0826V60.6129H77.003C76.8307 61.0604 76.544 61.42 76.1429 61.6918C75.7452 61.9635 75.2596 62.0994 74.6863 62.0994C74.1758 62.0994 73.7267 61.9834 73.339 61.7514C72.9512 61.5194 72.6479 61.1896 72.4292 60.7621C72.2137 60.3345 72.1043 59.8224 72.101 59.2259V54.3636H74.2189V58.848C74.2222 59.2988 74.3432 59.6551 74.5819 59.9169C74.8205 60.1787 75.1403 60.3097 75.5414 60.3097C75.7966 60.3097 76.0352 60.2517 76.2573 60.1357C76.4793 60.0163 76.6583 59.8407 76.7942 59.6087C76.9334 59.3767 77.0014 59.09 76.998 58.7486ZM84.8718 54.3636V55.9545H80.2731V54.3636H84.8718ZM81.3171 52.5341H83.435V59.6534C83.435 59.849 83.4648 60.0014 83.5245 60.1108C83.5842 60.2169 83.667 60.2914 83.7731 60.3345C83.8825 60.3776 84.0084 60.3991 84.1509 60.3991C84.2504 60.3991 84.3498 60.3909 84.4492 60.3743C84.5487 60.3544 84.6249 60.3395 84.6779 60.3295L85.011 61.9055C84.9049 61.9387 84.7558 61.9768 84.5636 62.0199C84.3713 62.0663 84.1377 62.0945 83.8626 62.1044C83.3522 62.1243 82.9047 62.0563 82.5202 61.9006C82.1391 61.7448 81.8424 61.5028 81.6303 61.1747C81.4182 60.8466 81.3138 60.4323 81.3171 59.9318V52.5341ZM90.3132 54.3636V55.9545H85.7145V54.3636H90.3132ZM86.7585 52.5341H88.8764V59.6534C88.8764 59.849 88.9063 60.0014 88.9659 60.1108C89.0256 60.2169 89.1084 60.2914 89.2145 60.3345C89.3239 60.3776 89.4498 60.3991 89.5923 60.3991C89.6918 60.3991 89.7912 60.3909 89.8906 60.3743C89.9901 60.3544 90.0663 60.3395 90.1193 60.3295L90.4524 61.9055C90.3464 61.9387 90.1972 61.9768 90.005 62.0199C89.8127 62.0663 89.5791 62.0945 89.304 62.1044C88.7936 62.1243 88.3461 62.0563 87.9616 61.9006C87.5805 61.7448 87.2839 61.5028 87.0717 61.1747C86.8596 60.8466 86.7552 60.4323 86.7585 59.9318V52.5341ZM95.0611 62.1491C94.2888 62.1491 93.621 61.9851 93.0575 61.657C92.4974 61.3255 92.0649 60.8648 91.7599 60.2749C91.455 59.6816 91.3026 58.9938 91.3026 58.2116C91.3026 57.4228 91.455 56.7334 91.7599 56.1435C92.0649 55.5502 92.4974 55.0895 93.0575 54.7614C93.621 54.4299 94.2888 54.2642 95.0611 54.2642C95.8333 54.2642 96.4995 54.4299 97.0597 54.7614C97.6231 55.0895 98.0573 55.5502 98.3622 56.1435C98.6671 56.7334 98.8196 57.4228 98.8196 58.2116C98.8196 58.9938 98.6671 59.6816 98.3622 60.2749C98.0573 60.8648 97.6231 61.3255 97.0597 61.657C96.4995 61.9851 95.8333 62.1491 95.0611 62.1491ZM95.071 60.5085C95.4223 60.5085 95.7157 60.4091 95.951 60.2102C96.1863 60.008 96.3636 59.733 96.483 59.3849C96.6056 59.0369 96.6669 58.6409 96.6669 58.1967C96.6669 57.7526 96.6056 57.3565 96.483 57.0085C96.3636 56.6605 96.1863 56.3854 95.951 56.1832C95.7157 55.9811 95.4223 55.88 95.071 55.88C94.7164 55.88 94.4181 55.9811 94.1761 56.1832C93.9375 56.3854 93.7569 56.6605 93.6342 57.0085C93.5149 57.3565 93.4553 57.7526 93.4553 58.1967C93.4553 58.6409 93.5149 59.0369 93.6342 59.3849C93.7569 59.733 93.9375 60.008 94.1761 60.2102C94.4181 60.4091 94.7164 60.5085 95.071 60.5085ZM102.315 57.5852V62H100.197V54.3636H102.215V55.7109H102.305C102.474 55.2668 102.757 54.9155 103.155 54.657C103.553 54.3951 104.035 54.2642 104.602 54.2642C105.132 54.2642 105.594 54.3802 105.989 54.6122C106.383 54.8442 106.69 55.1757 106.908 55.6065C107.127 56.0341 107.237 56.5445 107.237 57.1378V62H105.119V57.5156C105.122 57.0483 105.003 56.6837 104.761 56.4219C104.519 56.1567 104.186 56.0241 103.761 56.0241C103.476 56.0241 103.224 56.0855 103.006 56.2081C102.79 56.3307 102.621 56.5097 102.499 56.745C102.379 56.977 102.318 57.2571 102.315 57.5852Z" fill="white"/>
<rect x="544" y="40" width="91" height="31" rx="4" fill="#BF6A2A"/>
<path d="M566.885 61V50.8182H570.962C571.711 50.8182 572.335 50.9292 572.836 51.1513C573.336 51.3733 573.713 51.6816 573.964 52.076C574.216 52.4671 574.342 52.9179 574.342 53.4283C574.342 53.826 574.263 54.1757 574.104 54.4773C573.945 54.7756 573.726 55.0208 573.447 55.2131C573.172 55.402 572.857 55.5362 572.503 55.6158V55.7152C572.891 55.7318 573.254 55.8411 573.592 56.0433C573.933 56.2455 574.21 56.5289 574.422 56.8935C574.634 57.2547 574.74 57.6856 574.74 58.1861C574.74 58.7263 574.606 59.2086 574.337 59.6328C574.072 60.0537 573.679 60.3868 573.159 60.6321C572.639 60.8774 571.997 61 571.235 61H566.885ZM569.038 59.2401H570.793C571.393 59.2401 571.83 59.1257 572.105 58.897C572.38 58.665 572.518 58.3568 572.518 57.9723C572.518 57.6906 572.45 57.442 572.314 57.2266C572.178 57.0111 571.984 56.8421 571.732 56.7195C571.484 56.5968 571.187 56.5355 570.842 56.5355H569.038V59.2401ZM569.038 55.0788H570.634C570.929 55.0788 571.19 55.0275 571.419 54.9247C571.651 54.8187 571.833 54.6695 571.966 54.4773C572.102 54.285 572.17 54.0547 572.17 53.7862C572.17 53.4183 572.039 53.1217 571.777 52.8963C571.518 52.6709 571.151 52.5582 570.673 52.5582H569.038V55.0788ZM580.998 57.7486V53.3636H583.116V61H581.083V59.6129H581.003C580.831 60.0604 580.544 60.42 580.143 60.6918C579.745 60.9635 579.26 61.0994 578.686 61.0994C578.176 61.0994 577.727 60.9834 577.339 60.7514C576.951 60.5194 576.648 60.1896 576.429 59.7621C576.214 59.3345 576.104 58.8224 576.101 58.2259V53.3636H578.219V57.848C578.222 58.2988 578.343 58.6551 578.582 58.9169C578.82 59.1787 579.14 59.3097 579.541 59.3097C579.797 59.3097 580.035 59.2517 580.257 59.1357C580.479 59.0163 580.658 58.8407 580.794 58.6087C580.933 58.3767 581.001 58.09 580.998 57.7486ZM588.872 53.3636V54.9545H584.273V53.3636H588.872ZM585.317 51.5341H587.435V58.6534C587.435 58.849 587.465 59.0014 587.525 59.1108C587.584 59.2169 587.667 59.2914 587.773 59.3345C587.882 59.3776 588.008 59.3991 588.151 59.3991C588.25 59.3991 588.35 59.3909 588.449 59.3743C588.549 59.3544 588.625 59.3395 588.678 59.3295L589.011 60.9055C588.905 60.9387 588.756 60.9768 588.564 61.0199C588.371 61.0663 588.138 61.0945 587.863 61.1044C587.352 61.1243 586.905 61.0563 586.52 60.9006C586.139 60.7448 585.842 60.5028 585.63 60.1747C585.418 59.8466 585.314 59.4323 585.317 58.9318V51.5341ZM594.313 53.3636V54.9545H589.714V53.3636H594.313ZM590.759 51.5341H592.876V58.6534C592.876 58.849 592.906 59.0014 592.966 59.1108C593.026 59.2169 593.108 59.2914 593.214 59.3345C593.324 59.3776 593.45 59.3991 593.592 59.3991C593.692 59.3991 593.791 59.3909 593.891 59.3743C593.99 59.3544 594.066 59.3395 594.119 59.3295L594.452 60.9055C594.346 60.9387 594.197 60.9768 594.005 61.0199C593.813 61.0663 593.579 61.0945 593.304 61.1044C592.794 61.1243 592.346 61.0563 591.962 60.9006C591.58 60.7448 591.284 60.5028 591.072 60.1747C590.86 59.8466 590.755 59.4323 590.759 58.9318V51.5341ZM599.061 61.1491C598.289 61.1491 597.621 60.9851 597.058 60.657C596.497 60.3255 596.065 59.8648 595.76 59.2749C595.455 58.6816 595.303 57.9938 595.303 57.2116C595.303 56.4228 595.455 55.7334 595.76 55.1435C596.065 54.5502 596.497 54.0895 597.058 53.7614C597.621 53.4299 598.289 53.2642 599.061 53.2642C599.833 53.2642 600.5 53.4299 601.06 53.7614C601.623 54.0895 602.057 54.5502 602.362 55.1435C602.667 55.7334 602.82 56.4228 602.82 57.2116C602.82 57.9938 602.667 58.6816 602.362 59.2749C602.057 59.8648 601.623 60.3255 601.06 60.657C600.5 60.9851 599.833 61.1491 599.061 61.1491ZM599.071 59.5085C599.422 59.5085 599.716 59.4091 599.951 59.2102C600.186 59.008 600.364 58.733 600.483 58.3849C600.606 58.0369 600.667 57.6409 600.667 57.1967C600.667 56.7526 600.606 56.3565 600.483 56.0085C600.364 55.6605 600.186 55.3854 599.951 55.1832C599.716 54.9811 599.422 54.88 599.071 54.88C598.716 54.88 598.418 54.9811 598.176 55.1832C597.938 55.3854 597.757 55.6605 597.634 56.0085C597.515 56.3565 597.455 56.7526 597.455 57.1967C597.455 57.6409 597.515 58.0369 597.634 58.3849C597.757 58.733 597.938 59.008 598.176 59.2102C598.418 59.4091 598.716 59.5085 599.071 59.5085ZM606.315 56.5852V61H604.197V53.3636H606.215V54.7109H606.305C606.474 54.2668 606.757 53.9155 607.155 53.657C607.553 53.3951 608.035 53.2642 608.602 53.2642C609.132 53.2642 609.594 53.3802 609.989 53.6122C610.383 53.8442 610.69 54.1757 610.908 54.6065C611.127 55.0341 611.237 55.5445 611.237 56.1378V61H609.119V56.5156C609.122 56.0483 609.003 55.6837 608.761 55.4219C608.519 55.1567 608.186 55.0241 607.761 55.0241C607.476 55.0241 607.224 55.0855 607.006 55.2081C606.79 55.3307 606.621 55.5097 606.499 55.745C606.379 55.977 606.318 56.2571 606.315 56.5852Z" fill="white"/>
<rect x="711" y="39" width="93" height="33" rx="5" fill="#EF8435"/>
<rect x="711" y="39" width="93" height="33" rx="5" stroke="#B36328" stroke-width="2"/>
<rect x="208" y="40" width="91" height="31" rx="4" fill="#D77730"/>
<path d="M230.885 61V50.8182H234.962C235.711 50.8182 236.335 50.9292 236.836 51.1513C237.336 51.3733 237.713 51.6816 237.964 52.076C238.216 52.4671 238.342 52.9179 238.342 53.4283C238.342 53.826 238.263 54.1757 238.104 54.4773C237.945 54.7756 237.726 55.0208 237.447 55.2131C237.172 55.402 236.857 55.5362 236.503 55.6158V55.7152C236.891 55.7318 237.254 55.8411 237.592 56.0433C237.933 56.2455 238.21 56.5289 238.422 56.8935C238.634 57.2547 238.74 57.6856 238.74 58.1861C238.74 58.7263 238.606 59.2086 238.337 59.6328C238.072 60.0537 237.679 60.3868 237.159 60.6321C236.639 60.8774 235.997 61 235.235 61H230.885ZM233.038 59.2401H234.793C235.393 59.2401 235.83 59.1257 236.105 58.897C236.38 58.665 236.518 58.3568 236.518 57.9723C236.518 57.6906 236.45 57.442 236.314 57.2266C236.178 57.0111 235.984 56.8421 235.732 56.7195C235.484 56.5968 235.187 56.5355 234.842 56.5355H233.038V59.2401ZM233.038 55.0788H234.634C234.929 55.0788 235.19 55.0275 235.419 54.9247C235.651 54.8187 235.833 54.6695 235.966 54.4773C236.102 54.285 236.17 54.0547 236.17 53.7862C236.17 53.4183 236.039 53.1217 235.777 52.8963C235.518 52.6709 235.151 52.5582 234.673 52.5582H233.038V55.0788ZM244.998 57.7486V53.3636H247.116V61H245.083V59.6129H245.003C244.831 60.0604 244.544 60.42 244.143 60.6918C243.745 60.9635 243.26 61.0994 242.686 61.0994C242.176 61.0994 241.727 60.9834 241.339 60.7514C240.951 60.5194 240.648 60.1896 240.429 59.7621C240.214 59.3345 240.104 58.8224 240.101 58.2259V53.3636H242.219V57.848C242.222 58.2988 242.343 58.6551 242.582 58.9169C242.82 59.1787 243.14 59.3097 243.541 59.3097C243.797 59.3097 244.035 59.2517 244.257 59.1357C244.479 59.0163 244.658 58.8407 244.794 58.6087C244.933 58.3767 245.001 58.09 244.998 57.7486ZM252.872 53.3636V54.9545H248.273V53.3636H252.872ZM249.317 51.5341H251.435V58.6534C251.435 58.849 251.465 59.0014 251.525 59.1108C251.584 59.2169 251.667 59.2914 251.773 59.3345C251.882 59.3776 252.008 59.3991 252.151 59.3991C252.25 59.3991 252.35 59.3909 252.449 59.3743C252.549 59.3544 252.625 59.3395 252.678 59.3295L253.011 60.9055C252.905 60.9387 252.756 60.9768 252.564 61.0199C252.371 61.0663 252.138 61.0945 251.863 61.1044C251.352 61.1243 250.905 61.0563 250.52 60.9006C250.139 60.7448 249.842 60.5028 249.63 60.1747C249.418 59.8466 249.314 59.4323 249.317 58.9318V51.5341ZM258.313 53.3636V54.9545H253.714V53.3636H258.313ZM254.759 51.5341H256.876V58.6534C256.876 58.849 256.906 59.0014 256.966 59.1108C257.026 59.2169 257.108 59.2914 257.214 59.3345C257.324 59.3776 257.45 59.3991 257.592 59.3991C257.692 59.3991 257.791 59.3909 257.891 59.3743C257.99 59.3544 258.066 59.3395 258.119 59.3295L258.452 60.9055C258.346 60.9387 258.197 60.9768 258.005 61.0199C257.813 61.0663 257.579 61.0945 257.304 61.1044C256.794 61.1243 256.346 61.0563 255.962 60.9006C255.58 60.7448 255.284 60.5028 255.072 60.1747C254.86 59.8466 254.755 59.4323 254.759 58.9318V51.5341ZM263.061 61.1491C262.289 61.1491 261.621 60.9851 261.058 60.657C260.497 60.3255 260.065 59.8648 259.76 59.2749C259.455 58.6816 259.303 57.9938 259.303 57.2116C259.303 56.4228 259.455 55.7334 259.76 55.1435C260.065 54.5502 260.497 54.0895 261.058 53.7614C261.621 53.4299 262.289 53.2642 263.061 53.2642C263.833 53.2642 264.5 53.4299 265.06 53.7614C265.623 54.0895 266.057 54.5502 266.362 55.1435C266.667 55.7334 266.82 56.4228 266.82 57.2116C266.82 57.9938 266.667 58.6816 266.362 59.2749C266.057 59.8648 265.623 60.3255 265.06 60.657C264.5 60.9851 263.833 61.1491 263.061 61.1491ZM263.071 59.5085C263.422 59.5085 263.716 59.4091 263.951 59.2102C264.186 59.008 264.364 58.733 264.483 58.3849C264.606 58.0369 264.667 57.6409 264.667 57.1967C264.667 56.7526 264.606 56.3565 264.483 56.0085C264.364 55.6605 264.186 55.3854 263.951 55.1832C263.716 54.9811 263.422 54.88 263.071 54.88C262.716 54.88 262.418 54.9811 262.176 55.1832C261.938 55.3854 261.757 55.6605 261.634 56.0085C261.515 56.3565 261.455 56.7526 261.455 57.1967C261.455 57.6409 261.515 58.0369 261.634 58.3849C261.757 58.733 261.938 59.008 262.176 59.2102C262.418 59.4091 262.716 59.5085 263.071 59.5085ZM270.315 56.5852V61H268.197V53.3636H270.215V54.7109H270.305C270.474 54.2668 270.757 53.9155 271.155 53.657C271.553 53.3951 272.035 53.2642 272.602 53.2642C273.132 53.2642 273.594 53.3802 273.989 53.6122C274.383 53.8442 274.69 54.1757 274.908 54.6065C275.127 55.0341 275.237 55.5445 275.237 56.1378V61H273.119V56.5156C273.122 56.0483 273.003 55.6837 272.761 55.4219C272.519 55.1567 272.186 55.0241 271.761 55.0241C271.476 55.0241 271.224 55.0855 271.006 55.2081C270.79 55.3307 270.621 55.5097 270.499 55.745C270.379 55.977 270.318 56.2571 270.315 56.5852Z" fill="white"/>
<rect x="376" y="40" width="91" height="31" rx="4" fill="#FAD9C0"/>
<path d="M398.885 61V50.8182H402.962C403.711 50.8182 404.335 50.9292 404.836 51.1513C405.336 51.3733 405.713 51.6816 405.964 52.076C406.216 52.4671 406.342 52.9179 406.342 53.4283C406.342 53.826 406.263 54.1757 406.104 54.4773C405.945 54.7756 405.726 55.0208 405.447 55.2131C405.172 55.402 404.857 55.5362 404.503 55.6158V55.7152C404.891 55.7318 405.254 55.8411 405.592 56.0433C405.933 56.2455 406.21 56.5289 406.422 56.8935C406.634 57.2547 406.74 57.6856 406.74 58.1861C406.74 58.7263 406.606 59.2086 406.337 59.6328C406.072 60.0537 405.679 60.3868 405.159 60.6321C404.639 60.8774 403.997 61 403.235 61H398.885ZM401.038 59.2401H402.793C403.393 59.2401 403.83 59.1257 404.105 58.897C404.38 58.665 404.518 58.3568 404.518 57.9723C404.518 57.6906 404.45 57.442 404.314 57.2266C404.178 57.0111 403.984 56.8421 403.732 56.7195C403.484 56.5968 403.187 56.5355 402.842 56.5355H401.038V59.2401ZM401.038 55.0788H402.634C402.929 55.0788 403.19 55.0275 403.419 54.9247C403.651 54.8187 403.833 54.6695 403.966 54.4773C404.102 54.285 404.17 54.0547 404.17 53.7862C404.17 53.4183 404.039 53.1217 403.777 52.8963C403.518 52.6709 403.151 52.5582 402.673 52.5582H401.038V55.0788ZM412.998 57.7486V53.3636H415.116V61H413.083V59.6129H413.003C412.831 60.0604 412.544 60.42 412.143 60.6918C411.745 60.9635 411.26 61.0994 410.686 61.0994C410.176 61.0994 409.727 60.9834 409.339 60.7514C408.951 60.5194 408.648 60.1896 408.429 59.7621C408.214 59.3345 408.104 58.8224 408.101 58.2259V53.3636H410.219V57.848C410.222 58.2988 410.343 58.6551 410.582 58.9169C410.82 59.1787 411.14 59.3097 411.541 59.3097C411.797 59.3097 412.035 59.2517 412.257 59.1357C412.479 59.0163 412.658 58.8407 412.794 58.6087C412.933 58.3767 413.001 58.09 412.998 57.7486ZM420.872 53.3636V54.9545H416.273V53.3636H420.872ZM417.317 51.5341H419.435V58.6534C419.435 58.849 419.465 59.0014 419.525 59.1108C419.584 59.2169 419.667 59.2914 419.773 59.3345C419.882 59.3776 420.008 59.3991 420.151 59.3991C420.25 59.3991 420.35 59.3909 420.449 59.3743C420.549 59.3544 420.625 59.3395 420.678 59.3295L421.011 60.9055C420.905 60.9387 420.756 60.9768 420.564 61.0199C420.371 61.0663 420.138 61.0945 419.863 61.1044C419.352 61.1243 418.905 61.0563 418.52 60.9006C418.139 60.7448 417.842 60.5028 417.63 60.1747C417.418 59.8466 417.314 59.4323 417.317 58.9318V51.5341ZM426.313 53.3636V54.9545H421.714V53.3636H426.313ZM422.759 51.5341H424.876V58.6534C424.876 58.849 424.906 59.0014 424.966 59.1108C425.026 59.2169 425.108 59.2914 425.214 59.3345C425.324 59.3776 425.45 59.3991 425.592 59.3991C425.692 59.3991 425.791 59.3909 425.891 59.3743C425.99 59.3544 426.066 59.3395 426.119 59.3295L426.452 60.9055C426.346 60.9387 426.197 60.9768 426.005 61.0199C425.813 61.0663 425.579 61.0945 425.304 61.1044C424.794 61.1243 424.346 61.0563 423.962 60.9006C423.58 60.7448 423.284 60.5028 423.072 60.1747C422.86 59.8466 422.755 59.4323 422.759 58.9318V51.5341ZM431.061 61.1491C430.289 61.1491 429.621 60.9851 429.058 60.657C428.497 60.3255 428.065 59.8648 427.76 59.2749C427.455 58.6816 427.303 57.9938 427.303 57.2116C427.303 56.4228 427.455 55.7334 427.76 55.1435C428.065 54.5502 428.497 54.0895 429.058 53.7614C429.621 53.4299 430.289 53.2642 431.061 53.2642C431.833 53.2642 432.5 53.4299 433.06 53.7614C433.623 54.0895 434.057 54.5502 434.362 55.1435C434.667 55.7334 434.82 56.4228 434.82 57.2116C434.82 57.9938 434.667 58.6816 434.362 59.2749C434.057 59.8648 433.623 60.3255 433.06 60.657C432.5 60.9851 431.833 61.1491 431.061 61.1491ZM431.071 59.5085C431.422 59.5085 431.716 59.4091 431.951 59.2102C432.186 59.008 432.364 58.733 432.483 58.3849C432.606 58.0369 432.667 57.6409 432.667 57.1967C432.667 56.7526 432.606 56.3565 432.483 56.0085C432.364 55.6605 432.186 55.3854 431.951 55.1832C431.716 54.9811 431.422 54.88 431.071 54.88C430.716 54.88 430.418 54.9811 430.176 55.1832C429.938 55.3854 429.757 55.6605 429.634 56.0085C429.515 56.3565 429.455 56.7526 429.455 57.1967C429.455 57.6409 429.515 58.0369 429.634 58.3849C429.757 58.733 429.938 59.008 430.176 59.2102C430.418 59.4091 430.716 59.5085 431.071 59.5085ZM438.315 56.5852V61H436.197V53.3636H438.215V54.7109H438.305C438.474 54.2668 438.757 53.9155 439.155 53.657C439.553 53.3951 440.035 53.2642 440.602 53.2642C441.132 53.2642 441.594 53.3802 441.989 53.6122C442.383 53.8442 442.69 54.1757 442.908 54.6065C443.127 55.0341 443.237 55.5445 443.237 56.1378V61H441.119V56.5156C441.122 56.0483 441.003 55.6837 440.761 55.4219C440.519 55.1567 440.186 55.0241 439.761 55.0241C439.476 55.0241 439.224 55.0855 439.006 55.2081C438.79 55.3307 438.621 55.5097 438.499 55.745C438.379 55.977 438.318 56.2571 438.315 56.5852Z" fill="white"/>
<rect x="40" y="96" width="107" height="31" rx="4" fill="#EF8435"/>
<g clip-path="url(#clip1_2192_73124)">
<path fill-rule="evenodd" clip-rule="evenodd" d="M68.6641 110.833H64.6641V106.833C64.6641 106.464 64.3656 106.166 63.9974 106.166C63.6292 106.166 63.3307 106.464 63.3307 106.833V110.833H59.3307C58.9625 110.833 58.6641 111.131 58.6641 111.499C58.6641 111.868 58.9625 112.166 59.3307 112.166H63.3307V116.166C63.3307 116.534 63.6292 116.833 63.9974 116.833C64.3656 116.833 64.6641 116.534 64.6641 116.166V112.166H68.6641C69.0323 112.166 69.3307 111.868 69.3307 111.499C69.3307 111.131 69.0323 110.833 68.6641 110.833Z" fill="white"/>
</g>
<path d="M78.8849 117V106.818H82.9616C83.7107 106.818 84.3355 106.929 84.8359 107.151C85.3364 107.373 85.7126 107.682 85.9645 108.076C86.2164 108.467 86.3423 108.918 86.3423 109.428C86.3423 109.826 86.2628 110.176 86.1037 110.477C85.9446 110.776 85.7259 111.021 85.4474 111.213C85.1723 111.402 84.8575 111.536 84.5028 111.616V111.715C84.8906 111.732 85.2536 111.841 85.5916 112.043C85.933 112.246 86.2098 112.529 86.4219 112.893C86.634 113.255 86.7401 113.686 86.7401 114.186C86.7401 114.726 86.6058 115.209 86.3374 115.633C86.0722 116.054 85.6795 116.387 85.1591 116.632C84.6387 116.877 83.9974 117 83.2351 117H78.8849ZM81.0376 115.24H82.7926C83.3925 115.24 83.83 115.126 84.1051 114.897C84.3802 114.665 84.5178 114.357 84.5178 113.972C84.5178 113.691 84.4498 113.442 84.3139 113.227C84.178 113.011 83.9841 112.842 83.7322 112.719C83.4837 112.597 83.187 112.536 82.8423 112.536H81.0376V115.24ZM81.0376 111.079H82.6335C82.9285 111.079 83.1903 111.027 83.419 110.925C83.651 110.819 83.8333 110.67 83.9659 110.477C84.1018 110.285 84.1697 110.055 84.1697 109.786C84.1697 109.418 84.0388 109.122 83.777 108.896C83.5185 108.671 83.1506 108.558 82.6733 108.558H81.0376V111.079ZM92.998 113.749V109.364H95.1159V117H93.0826V115.613H93.003C92.8307 116.06 92.544 116.42 92.1429 116.692C91.7452 116.964 91.2596 117.099 90.6863 117.099C90.1758 117.099 89.7267 116.983 89.339 116.751C88.9512 116.519 88.6479 116.19 88.4292 115.762C88.2137 115.335 88.1043 114.822 88.101 114.226V109.364H90.2189V113.848C90.2222 114.299 90.3432 114.655 90.5819 114.917C90.8205 115.179 91.1403 115.31 91.5414 115.31C91.7966 115.31 92.0352 115.252 92.2573 115.136C92.4793 115.016 92.6583 114.841 92.7942 114.609C92.9334 114.377 93.0014 114.09 92.998 113.749ZM100.872 109.364V110.955H96.2731V109.364H100.872ZM97.3171 107.534H99.435V114.653C99.435 114.849 99.4648 115.001 99.5245 115.111C99.5842 115.217 99.667 115.291 99.7731 115.335C99.8825 115.378 100.008 115.399 100.151 115.399C100.25 115.399 100.35 115.391 100.449 115.374C100.549 115.354 100.625 115.339 100.678 115.33L101.011 116.906C100.905 116.939 100.756 116.977 100.564 117.02C100.371 117.066 100.138 117.094 99.8626 117.104C99.3522 117.124 98.9047 117.056 98.5202 116.901C98.1391 116.745 97.8424 116.503 97.6303 116.175C97.4182 115.847 97.3138 115.432 97.3171 114.932V107.534ZM106.313 109.364V110.955H101.714V109.364H106.313ZM102.759 107.534H104.876V114.653C104.876 114.849 104.906 115.001 104.966 115.111C105.026 115.217 105.108 115.291 105.214 115.335C105.324 115.378 105.45 115.399 105.592 115.399C105.692 115.399 105.791 115.391 105.891 115.374C105.99 115.354 106.066 115.339 106.119 115.33L106.452 116.906C106.346 116.939 106.197 116.977 106.005 117.02C105.813 117.066 105.579 117.094 105.304 117.104C104.794 117.124 104.346 117.056 103.962 116.901C103.58 116.745 103.284 116.503 103.072 116.175C102.86 115.847 102.755 115.432 102.759 114.932V107.534ZM111.061 117.149C110.289 117.149 109.621 116.985 109.058 116.657C108.497 116.326 108.065 115.865 107.76 115.275C107.455 114.682 107.303 113.994 107.303 113.212C107.303 112.423 107.455 111.733 107.76 111.143C108.065 110.55 108.497 110.089 109.058 109.761C109.621 109.43 110.289 109.264 111.061 109.264C111.833 109.264 112.5 109.43 113.06 109.761C113.623 110.089 114.057 110.55 114.362 111.143C114.667 111.733 114.82 112.423 114.82 113.212C114.82 113.994 114.667 114.682 114.362 115.275C114.057 115.865 113.623 116.326 113.06 116.657C112.5 116.985 111.833 117.149 111.061 117.149ZM111.071 115.509C111.422 115.509 111.716 115.409 111.951 115.21C112.186 115.008 112.364 114.733 112.483 114.385C112.606 114.037 112.667 113.641 112.667 113.197C112.667 112.753 112.606 112.357 112.483 112.009C112.364 111.661 112.186 111.385 111.951 111.183C111.716 110.981 111.422 110.88 111.071 110.88C110.716 110.88 110.418 110.981 110.176 111.183C109.938 111.385 109.757 111.661 109.634 112.009C109.515 112.357 109.455 112.753 109.455 113.197C109.455 113.641 109.515 114.037 109.634 114.385C109.757 114.733 109.938 115.008 110.176 115.21C110.418 115.409 110.716 115.509 111.071 115.509ZM118.315 112.585V117H116.197V109.364H118.215V110.711H118.305C118.474 110.267 118.757 109.915 119.155 109.657C119.553 109.395 120.035 109.264 120.602 109.264C121.132 109.264 121.594 109.38 121.989 109.612C122.383 109.844 122.69 110.176 122.908 110.607C123.127 111.034 123.237 111.545 123.237 112.138V117H121.119V112.516C121.122 112.048 121.003 111.684 120.761 111.422C120.519 111.157 120.186 111.024 119.761 111.024C119.476 111.024 119.224 111.085 119.006 111.208C118.79 111.331 118.621 111.51 118.499 111.745C118.379 111.977 118.318 112.257 118.315 112.585Z" fill="white"/>
<rect x="208" y="96" width="107" height="31" rx="4" fill="#D77730"/>
<g clip-path="url(#clip2_2192_73124)">
<path fill-rule="evenodd" clip-rule="evenodd" d="M236.664 110.833H232.664V106.833C232.664 106.464 232.366 106.166 231.997 106.166C231.629 106.166 231.331 106.464 231.331 106.833V110.833H227.331C226.963 110.833 226.664 111.131 226.664 111.499C226.664 111.868 226.963 112.166 227.331 112.166H231.331V116.166C231.331 116.534 231.629 116.833 231.997 116.833C232.366 116.833 232.664 116.534 232.664 116.166V112.166H236.664C237.032 112.166 237.331 111.868 237.331 111.499C237.331 111.131 237.032 110.833 236.664 110.833Z" fill="white"/>
</g>
<path d="M246.885 117V106.818H250.962C251.711 106.818 252.335 106.929 252.836 107.151C253.336 107.373 253.713 107.682 253.964 108.076C254.216 108.467 254.342 108.918 254.342 109.428C254.342 109.826 254.263 110.176 254.104 110.477C253.945 110.776 253.726 111.021 253.447 111.213C253.172 111.402 252.857 111.536 252.503 111.616V111.715C252.891 111.732 253.254 111.841 253.592 112.043C253.933 112.246 254.21 112.529 254.422 112.893C254.634 113.255 254.74 113.686 254.74 114.186C254.74 114.726 254.606 115.209 254.337 115.633C254.072 116.054 253.679 116.387 253.159 116.632C252.639 116.877 251.997 117 251.235 117H246.885ZM249.038 115.24H250.793C251.393 115.24 251.83 115.126 252.105 114.897C252.38 114.665 252.518 114.357 252.518 113.972C252.518 113.691 252.45 113.442 252.314 113.227C252.178 113.011 251.984 112.842 251.732 112.719C251.484 112.597 251.187 112.536 250.842 112.536H249.038V115.24ZM249.038 111.079H250.634C250.929 111.079 251.19 111.027 251.419 110.925C251.651 110.819 251.833 110.67 251.966 110.477C252.102 110.285 252.17 110.055 252.17 109.786C252.17 109.418 252.039 109.122 251.777 108.896C251.518 108.671 251.151 108.558 250.673 108.558H249.038V111.079ZM260.998 113.749V109.364H263.116V117H261.083V115.613H261.003C260.831 116.06 260.544 116.42 260.143 116.692C259.745 116.964 259.26 117.099 258.686 117.099C258.176 117.099 257.727 116.983 257.339 116.751C256.951 116.519 256.648 116.19 256.429 115.762C256.214 115.335 256.104 114.822 256.101 114.226V109.364H258.219V113.848C258.222 114.299 258.343 114.655 258.582 114.917C258.82 115.179 259.14 115.31 259.541 115.31C259.797 115.31 260.035 115.252 260.257 115.136C260.479 115.016 260.658 114.841 260.794 114.609C260.933 114.377 261.001 114.09 260.998 113.749ZM268.872 109.364V110.955H264.273V109.364H268.872ZM265.317 107.534H267.435V114.653C267.435 114.849 267.465 115.001 267.525 115.111C267.584 115.217 267.667 115.291 267.773 115.335C267.882 115.378 268.008 115.399 268.151 115.399C268.25 115.399 268.35 115.391 268.449 115.374C268.549 115.354 268.625 115.339 268.678 115.33L269.011 116.906C268.905 116.939 268.756 116.977 268.564 117.02C268.371 117.066 268.138 117.094 267.863 117.104C267.352 117.124 266.905 117.056 266.52 116.901C266.139 116.745 265.842 116.503 265.63 116.175C265.418 115.847 265.314 115.432 265.317 114.932V107.534ZM274.313 109.364V110.955H269.714V109.364H274.313ZM270.759 107.534H272.876V114.653C272.876 114.849 272.906 115.001 272.966 115.111C273.026 115.217 273.108 115.291 273.214 115.335C273.324 115.378 273.45 115.399 273.592 115.399C273.692 115.399 273.791 115.391 273.891 115.374C273.99 115.354 274.066 115.339 274.119 115.33L274.452 116.906C274.346 116.939 274.197 116.977 274.005 117.02C273.813 117.066 273.579 117.094 273.304 117.104C272.794 117.124 272.346 117.056 271.962 116.901C271.58 116.745 271.284 116.503 271.072 116.175C270.86 115.847 270.755 115.432 270.759 114.932V107.534ZM279.061 117.149C278.289 117.149 277.621 116.985 277.058 116.657C276.497 116.326 276.065 115.865 275.76 115.275C275.455 114.682 275.303 113.994 275.303 113.212C275.303 112.423 275.455 111.733 275.76 111.143C276.065 110.55 276.497 110.089 277.058 109.761C277.621 109.43 278.289 109.264 279.061 109.264C279.833 109.264 280.5 109.43 281.06 109.761C281.623 110.089 282.057 110.55 282.362 111.143C282.667 111.733 282.82 112.423 282.82 113.212C282.82 113.994 282.667 114.682 282.362 115.275C282.057 115.865 281.623 116.326 281.06 116.657C280.5 116.985 279.833 117.149 279.061 117.149ZM279.071 115.509C279.422 115.509 279.716 115.409 279.951 115.21C280.186 115.008 280.364 114.733 280.483 114.385C280.606 114.037 280.667 113.641 280.667 113.197C280.667 112.753 280.606 112.357 280.483 112.009C280.364 111.661 280.186 111.385 279.951 111.183C279.716 110.981 279.422 110.88 279.071 110.88C278.716 110.88 278.418 110.981 278.176 111.183C277.938 111.385 277.757 111.661 277.634 112.009C277.515 112.357 277.455 112.753 277.455 113.197C277.455 113.641 277.515 114.037 277.634 114.385C277.757 114.733 277.938 115.008 278.176 115.21C278.418 115.409 278.716 115.509 279.071 115.509ZM286.315 112.585V117H284.197V109.364H286.215V110.711H286.305C286.474 110.267 286.757 109.915 287.155 109.657C287.553 109.395 288.035 109.264 288.602 109.264C289.132 109.264 289.594 109.38 289.989 109.612C290.383 109.844 290.69 110.176 290.908 110.607C291.127 111.034 291.237 111.545 291.237 112.138V117H289.119V112.516C289.122 112.048 289.003 111.684 288.761 111.422C288.519 111.157 288.186 111.024 287.761 111.024C287.476 111.024 287.224 111.085 287.006 111.208C286.79 111.331 286.621 111.51 286.499 111.745C286.379 111.977 286.318 112.257 286.315 112.585Z" fill="white"/>
<rect x="376" y="96" width="107" height="31" rx="4" fill="#FAD9C0"/>
<g clip-path="url(#clip3_2192_73124)">
<path fill-rule="evenodd" clip-rule="evenodd" d="M404.664 110.833H400.664V106.833C400.664 106.464 400.366 106.166 399.997 106.166C399.629 106.166 399.331 106.464 399.331 106.833V110.833H395.331C394.963 110.833 394.664 111.131 394.664 111.499C394.664 111.868 394.963 112.166 395.331 112.166H399.331V116.166C399.331 116.534 399.629 116.833 399.997 116.833C400.366 116.833 400.664 116.534 400.664 116.166V112.166H404.664C405.032 112.166 405.331 111.868 405.331 111.499C405.331 111.131 405.032 110.833 404.664 110.833Z" fill="white"/>
</g>
<path d="M414.885 117V106.818H418.962C419.711 106.818 420.335 106.929 420.836 107.151C421.336 107.373 421.713 107.682 421.964 108.076C422.216 108.467 422.342 108.918 422.342 109.428C422.342 109.826 422.263 110.176 422.104 110.477C421.945 110.776 421.726 111.021 421.447 111.213C421.172 111.402 420.857 111.536 420.503 111.616V111.715C420.891 111.732 421.254 111.841 421.592 112.043C421.933 112.246 422.21 112.529 422.422 112.893C422.634 113.255 422.74 113.686 422.74 114.186C422.74 114.726 422.606 115.209 422.337 115.633C422.072 116.054 421.679 116.387 421.159 116.632C420.639 116.877 419.997 117 419.235 117H414.885ZM417.038 115.24H418.793C419.393 115.24 419.83 115.126 420.105 114.897C420.38 114.665 420.518 114.357 420.518 113.972C420.518 113.691 420.45 113.442 420.314 113.227C420.178 113.011 419.984 112.842 419.732 112.719C419.484 112.597 419.187 112.536 418.842 112.536H417.038V115.24ZM417.038 111.079H418.634C418.929 111.079 419.19 111.027 419.419 110.925C419.651 110.819 419.833 110.67 419.966 110.477C420.102 110.285 420.17 110.055 420.17 109.786C420.17 109.418 420.039 109.122 419.777 108.896C419.518 108.671 419.151 108.558 418.673 108.558H417.038V111.079ZM428.998 113.749V109.364H431.116V117H429.083V115.613H429.003C428.831 116.06 428.544 116.42 428.143 116.692C427.745 116.964 427.26 117.099 426.686 117.099C426.176 117.099 425.727 116.983 425.339 116.751C424.951 116.519 424.648 116.19 424.429 115.762C424.214 115.335 424.104 114.822 424.101 114.226V109.364H426.219V113.848C426.222 114.299 426.343 114.655 426.582 114.917C426.82 115.179 427.14 115.31 427.541 115.31C427.797 115.31 428.035 115.252 428.257 115.136C428.479 115.016 428.658 114.841 428.794 114.609C428.933 114.377 429.001 114.09 428.998 113.749ZM436.872 109.364V110.955H432.273V109.364H436.872ZM433.317 107.534H435.435V114.653C435.435 114.849 435.465 115.001 435.525 115.111C435.584 115.217 435.667 115.291 435.773 115.335C435.882 115.378 436.008 115.399 436.151 115.399C436.25 115.399 436.35 115.391 436.449 115.374C436.549 115.354 436.625 115.339 436.678 115.33L437.011 116.906C436.905 116.939 436.756 116.977 436.564 117.02C436.371 117.066 436.138 117.094 435.863 117.104C435.352 117.124 434.905 117.056 434.52 116.901C434.139 116.745 433.842 116.503 433.63 116.175C433.418 115.847 433.314 115.432 433.317 114.932V107.534ZM442.313 109.364V110.955H437.714V109.364H442.313ZM438.759 107.534H440.876V114.653C440.876 114.849 440.906 115.001 440.966 115.111C441.026 115.217 441.108 115.291 441.214 115.335C441.324 115.378 441.45 115.399 441.592 115.399C441.692 115.399 441.791 115.391 441.891 115.374C441.99 115.354 442.066 115.339 442.119 115.33L442.452 116.906C442.346 116.939 442.197 116.977 442.005 117.02C441.813 117.066 441.579 117.094 441.304 117.104C440.794 117.124 440.346 117.056 439.962 116.901C439.58 116.745 439.284 116.503 439.072 116.175C438.86 115.847 438.755 115.432 438.759 114.932V107.534ZM447.061 117.149C446.289 117.149 445.621 116.985 445.058 116.657C444.497 116.326 444.065 115.865 443.76 115.275C443.455 114.682 443.303 113.994 443.303 113.212C443.303 112.423 443.455 111.733 443.76 111.143C444.065 110.55 444.497 110.089 445.058 109.761C445.621 109.43 446.289 109.264 447.061 109.264C447.833 109.264 448.5 109.43 449.06 109.761C449.623 110.089 450.057 110.55 450.362 111.143C450.667 111.733 450.82 112.423 450.82 113.212C450.82 113.994 450.667 114.682 450.362 115.275C450.057 115.865 449.623 116.326 449.06 116.657C448.5 116.985 447.833 117.149 447.061 117.149ZM447.071 115.509C447.422 115.509 447.716 115.409 447.951 115.21C448.186 115.008 448.364 114.733 448.483 114.385C448.606 114.037 448.667 113.641 448.667 113.197C448.667 112.753 448.606 112.357 448.483 112.009C448.364 111.661 448.186 111.385 447.951 111.183C447.716 110.981 447.422 110.88 447.071 110.88C446.716 110.88 446.418 110.981 446.176 111.183C445.938 111.385 445.757 111.661 445.634 112.009C445.515 112.357 445.455 112.753 445.455 113.197C445.455 113.641 445.515 114.037 445.634 114.385C445.757 114.733 445.938 115.008 446.176 115.21C446.418 115.409 446.716 115.509 447.071 115.509ZM454.315 112.585V117H452.197V109.364H454.215V110.711H454.305C454.474 110.267 454.757 109.915 455.155 109.657C455.553 109.395 456.035 109.264 456.602 109.264C457.132 109.264 457.594 109.38 457.989 109.612C458.383 109.844 458.69 110.176 458.908 110.607C459.127 111.034 459.237 111.545 459.237 112.138V117H457.119V112.516C457.122 112.048 457.003 111.684 456.761 111.422C456.519 111.157 456.186 111.024 455.761 111.024C455.476 111.024 455.224 111.085 455.006 111.208C454.79 111.331 454.621 111.51 454.499 111.745C454.379 111.977 454.318 112.257 454.315 112.585Z" fill="white"/>
<rect x="544" y="96" width="107" height="31" rx="4" fill="#BF6A2A"/>
<g clip-path="url(#clip4_2192_73124)">
<path fill-rule="evenodd" clip-rule="evenodd" d="M572.664 110.833H568.664V106.833C568.664 106.464 568.366 106.166 567.997 106.166C567.629 106.166 567.331 106.464 567.331 106.833V110.833H563.331C562.963 110.833 562.664 111.131 562.664 111.499C562.664 111.868 562.963 112.166 563.331 112.166H567.331V116.166C567.331 116.534 567.629 116.833 567.997 116.833C568.366 116.833 568.664 116.534 568.664 116.166V112.166H572.664C573.032 112.166 573.331 111.868 573.331 111.499C573.331 111.131 573.032 110.833 572.664 110.833Z" fill="white"/>
</g>
<path d="M582.885 117V106.818H586.962C587.711 106.818 588.335 106.929 588.836 107.151C589.336 107.373 589.713 107.682 589.964 108.076C590.216 108.467 590.342 108.918 590.342 109.428C590.342 109.826 590.263 110.176 590.104 110.477C589.945 110.776 589.726 111.021 589.447 111.213C589.172 111.402 588.857 111.536 588.503 111.616V111.715C588.891 111.732 589.254 111.841 589.592 112.043C589.933 112.246 590.21 112.529 590.422 112.893C590.634 113.255 590.74 113.686 590.74 114.186C590.74 114.726 590.606 115.209 590.337 115.633C590.072 116.054 589.679 116.387 589.159 116.632C588.639 116.877 587.997 117 587.235 117H582.885ZM585.038 115.24H586.793C587.393 115.24 587.83 115.126 588.105 114.897C588.38 114.665 588.518 114.357 588.518 113.972C588.518 113.691 588.45 113.442 588.314 113.227C588.178 113.011 587.984 112.842 587.732 112.719C587.484 112.597 587.187 112.536 586.842 112.536H585.038V115.24ZM585.038 111.079H586.634C586.929 111.079 587.19 111.027 587.419 110.925C587.651 110.819 587.833 110.67 587.966 110.477C588.102 110.285 588.17 110.055 588.17 109.786C588.17 109.418 588.039 109.122 587.777 108.896C587.518 108.671 587.151 108.558 586.673 108.558H585.038V111.079ZM596.998 113.749V109.364H599.116V117H597.083V115.613H597.003C596.831 116.06 596.544 116.42 596.143 116.692C595.745 116.964 595.26 117.099 594.686 117.099C594.176 117.099 593.727 116.983 593.339 116.751C592.951 116.519 592.648 116.19 592.429 115.762C592.214 115.335 592.104 114.822 592.101 114.226V109.364H594.219V113.848C594.222 114.299 594.343 114.655 594.582 114.917C594.82 115.179 595.14 115.31 595.541 115.31C595.797 115.31 596.035 115.252 596.257 115.136C596.479 115.016 596.658 114.841 596.794 114.609C596.933 114.377 597.001 114.09 596.998 113.749ZM604.872 109.364V110.955H600.273V109.364H604.872ZM601.317 107.534H603.435V114.653C603.435 114.849 603.465 115.001 603.525 115.111C603.584 115.217 603.667 115.291 603.773 115.335C603.882 115.378 604.008 115.399 604.151 115.399C604.25 115.399 604.35 115.391 604.449 115.374C604.549 115.354 604.625 115.339 604.678 115.33L605.011 116.906C604.905 116.939 604.756 116.977 604.564 117.02C604.371 117.066 604.138 117.094 603.863 117.104C603.352 117.124 602.905 117.056 602.52 116.901C602.139 116.745 601.842 116.503 601.63 116.175C601.418 115.847 601.314 115.432 601.317 114.932V107.534ZM610.313 109.364V110.955H605.714V109.364H610.313ZM606.759 107.534H608.876V114.653C608.876 114.849 608.906 115.001 608.966 115.111C609.026 115.217 609.108 115.291 609.214 115.335C609.324 115.378 609.45 115.399 609.592 115.399C609.692 115.399 609.791 115.391 609.891 115.374C609.99 115.354 610.066 115.339 610.119 115.33L610.452 116.906C610.346 116.939 610.197 116.977 610.005 117.02C609.813 117.066 609.579 117.094 609.304 117.104C608.794 117.124 608.346 117.056 607.962 116.901C607.58 116.745 607.284 116.503 607.072 116.175C606.86 115.847 606.755 115.432 606.759 114.932V107.534ZM615.061 117.149C614.289 117.149 613.621 116.985 613.058 116.657C612.497 116.326 612.065 115.865 611.76 115.275C611.455 114.682 611.303 113.994 611.303 113.212C611.303 112.423 611.455 111.733 611.76 111.143C612.065 110.55 612.497 110.089 613.058 109.761C613.621 109.43 614.289 109.264 615.061 109.264C615.833 109.264 616.5 109.43 617.06 109.761C617.623 110.089 618.057 110.55 618.362 111.143C618.667 111.733 618.82 112.423 618.82 113.212C618.82 113.994 618.667 114.682 618.362 115.275C618.057 115.865 617.623 116.326 617.06 116.657C616.5 116.985 615.833 117.149 615.061 117.149ZM615.071 115.509C615.422 115.509 615.716 115.409 615.951 115.21C616.186 115.008 616.364 114.733 616.483 114.385C616.606 114.037 616.667 113.641 616.667 113.197C616.667 112.753 616.606 112.357 616.483 112.009C616.364 111.661 616.186 111.385 615.951 111.183C615.716 110.981 615.422 110.88 615.071 110.88C614.716 110.88 614.418 110.981 614.176 111.183C613.938 111.385 613.757 111.661 613.634 112.009C613.515 112.357 613.455 112.753 613.455 113.197C613.455 113.641 613.515 114.037 613.634 114.385C613.757 114.733 613.938 115.008 614.176 115.21C614.418 115.409 614.716 115.509 615.071 115.509ZM622.315 112.585V117H620.197V109.364H622.215V110.711H622.305C622.474 110.267 622.757 109.915 623.155 109.657C623.553 109.395 624.035 109.264 624.602 109.264C625.132 109.264 625.594 109.38 625.989 109.612C626.383 109.844 626.69 110.176 626.908 110.607C627.127 111.034 627.237 111.545 627.237 112.138V117H625.119V112.516C625.122 112.048 625.003 111.684 624.761 111.422C624.519 111.157 624.186 111.024 623.761 111.024C623.476 111.024 623.224 111.085 623.006 111.208C622.79 111.331 622.621 111.51 622.499 111.745C622.379 111.977 622.318 112.257 622.315 112.585Z" fill="white"/>
<rect x="711" y="95" width="109" height="33" rx="5" fill="#EF8435"/>
<rect x="711" y="95" width="109" height="33" rx="5" stroke="#B36328" stroke-width="2"/>
<rect x="40" y="208" width="125" height="31" rx="4" fill="#EF8435"/>
<g clip-path="url(#clip5_2192_73124)">
<path fill-rule="evenodd" clip-rule="evenodd" d="M68.6641 222.833H64.6641V218.833C64.6641 218.464 64.3656 218.166 63.9974 218.166C63.6292 218.166 63.3307 218.464 63.3307 218.833V222.833H59.3307C58.9625 222.833 58.6641 223.131 58.6641 223.499C58.6641 223.868 58.9625 224.166 59.3307 224.166H63.3307V228.166C63.3307 228.534 63.6292 228.833 63.9974 228.833C64.3656 228.833 64.6641 228.534 64.6641 228.166V224.166H68.6641C69.0323 224.166 69.3307 223.868 69.3307 223.499C69.3307 223.131 69.0323 222.833 68.6641 222.833Z" fill="white"/>
</g>
<path d="M78.8849 229V218.818H82.9616C83.7107 218.818 84.3355 218.929 84.8359 219.151C85.3364 219.373 85.7126 219.682 85.9645 220.076C86.2164 220.467 86.3423 220.918 86.3423 221.428C86.3423 221.826 86.2628 222.176 86.1037 222.477C85.9446 222.776 85.7259 223.021 85.4474 223.213C85.1723 223.402 84.8575 223.536 84.5028 223.616V223.715C84.8906 223.732 85.2536 223.841 85.5916 224.043C85.933 224.246 86.2098 224.529 86.4219 224.893C86.634 225.255 86.7401 225.686 86.7401 226.186C86.7401 226.726 86.6058 227.209 86.3374 227.633C86.0722 228.054 85.6795 228.387 85.1591 228.632C84.6387 228.877 83.9974 229 83.2351 229H78.8849ZM81.0376 227.24H82.7926C83.3925 227.24 83.83 227.126 84.1051 226.897C84.3802 226.665 84.5178 226.357 84.5178 225.972C84.5178 225.691 84.4498 225.442 84.3139 225.227C84.178 225.011 83.9841 224.842 83.7322 224.719C83.4837 224.597 83.187 224.536 82.8423 224.536H81.0376V227.24ZM81.0376 223.079H82.6335C82.9285 223.079 83.1903 223.027 83.419 222.925C83.651 222.819 83.8333 222.67 83.9659 222.477C84.1018 222.285 84.1697 222.055 84.1697 221.786C84.1697 221.418 84.0388 221.122 83.777 220.896C83.5185 220.671 83.1506 220.558 82.6733 220.558H81.0376V223.079ZM92.998 225.749V221.364H95.1159V229H93.0826V227.613H93.003C92.8307 228.06 92.544 228.42 92.1429 228.692C91.7452 228.964 91.2596 229.099 90.6863 229.099C90.1758 229.099 89.7267 228.983 89.339 228.751C88.9512 228.519 88.6479 228.19 88.4292 227.762C88.2137 227.335 88.1043 226.822 88.101 226.226V221.364H90.2189V225.848C90.2222 226.299 90.3432 226.655 90.5819 226.917C90.8205 227.179 91.1403 227.31 91.5414 227.31C91.7966 227.31 92.0352 227.252 92.2573 227.136C92.4793 227.016 92.6583 226.841 92.7942 226.609C92.9334 226.377 93.0014 226.09 92.998 225.749ZM100.872 221.364V222.955H96.2731V221.364H100.872ZM97.3171 219.534H99.435V226.653C99.435 226.849 99.4648 227.001 99.5245 227.111C99.5842 227.217 99.667 227.291 99.7731 227.335C99.8825 227.378 100.008 227.399 100.151 227.399C100.25 227.399 100.35 227.391 100.449 227.374C100.549 227.354 100.625 227.339 100.678 227.33L101.011 228.906C100.905 228.939 100.756 228.977 100.564 229.02C100.371 229.066 100.138 229.094 99.8626 229.104C99.3522 229.124 98.9047 229.056 98.5202 228.901C98.1391 228.745 97.8424 228.503 97.6303 228.175C97.4182 227.847 97.3138 227.432 97.3171 226.932V219.534ZM106.313 221.364V222.955H101.714V221.364H106.313ZM102.759 219.534H104.876V226.653C104.876 226.849 104.906 227.001 104.966 227.111C105.026 227.217 105.108 227.291 105.214 227.335C105.324 227.378 105.45 227.399 105.592 227.399C105.692 227.399 105.791 227.391 105.891 227.374C105.99 227.354 106.066 227.339 106.119 227.33L106.452 228.906C106.346 228.939 106.197 228.977 106.005 229.02C105.813 229.066 105.579 229.094 105.304 229.104C104.794 229.124 104.346 229.056 103.962 228.901C103.58 228.745 103.284 228.503 103.072 228.175C102.86 227.847 102.755 227.432 102.759 226.932V219.534ZM111.061 229.149C110.289 229.149 109.621 228.985 109.058 228.657C108.497 228.326 108.065 227.865 107.76 227.275C107.455 226.682 107.303 225.994 107.303 225.212C107.303 224.423 107.455 223.733 107.76 223.143C108.065 222.55 108.497 222.089 109.058 221.761C109.621 221.43 110.289 221.264 111.061 221.264C111.833 221.264 112.5 221.43 113.06 221.761C113.623 222.089 114.057 222.55 114.362 223.143C114.667 223.733 114.82 224.423 114.82 225.212C114.82 225.994 114.667 226.682 114.362 227.275C114.057 227.865 113.623 228.326 113.06 228.657C112.5 228.985 111.833 229.149 111.061 229.149ZM111.071 227.509C111.422 227.509 111.716 227.409 111.951 227.21C112.186 227.008 112.364 226.733 112.483 226.385C112.606 226.037 112.667 225.641 112.667 225.197C112.667 224.753 112.606 224.357 112.483 224.009C112.364 223.661 112.186 223.385 111.951 223.183C111.716 222.981 111.422 222.88 111.071 222.88C110.716 222.88 110.418 222.981 110.176 223.183C109.938 223.385 109.757 223.661 109.634 224.009C109.515 224.357 109.455 224.753 109.455 225.197C109.455 225.641 109.515 226.037 109.634 226.385C109.757 226.733 109.938 227.008 110.176 227.21C110.418 227.409 110.716 227.509 111.071 227.509ZM118.315 224.585V229H116.197V221.364H118.215V222.711H118.305C118.474 222.267 118.757 221.915 119.155 221.657C119.553 221.395 120.035 221.264 120.602 221.264C121.132 221.264 121.594 221.38 121.989 221.612C122.383 221.844 122.69 222.176 122.908 222.607C123.127 223.034 123.237 223.545 123.237 224.138V229H121.119V224.516C121.122 224.048 121.003 223.684 120.761 223.422C120.519 223.157 120.186 223.024 119.761 223.024C119.476 223.024 119.224 223.085 119.006 223.208C118.79 223.331 118.621 223.51 118.499 223.745C118.379 223.977 118.318 224.257 118.315 224.585Z" fill="white"/>
<g clip-path="url(#clip6_2192_73124)">
<path fill-rule="evenodd" clip-rule="evenodd" d="M138.396 228C138.188 227.999 137.99 227.912 137.848 227.76L134.203 223.882H134.203C133.92 223.58 133.935 223.105 134.237 222.821C134.539 222.537 135.015 222.552 135.298 222.855L138.388 226.147L144.696 219.247V219.247C144.955 218.924 145.427 218.873 145.75 219.132C146.073 219.391 146.125 219.863 145.865 220.186C145.847 220.21 145.827 220.231 145.806 220.252L138.951 227.752C138.811 227.907 138.612 227.997 138.403 228L138.396 228Z" fill="white"/>
</g>
<rect x="208" y="208" width="125" height="31" rx="4" fill="#D77730"/>
<g clip-path="url(#clip7_2192_73124)">
<path fill-rule="evenodd" clip-rule="evenodd" d="M236.664 222.833H232.664V218.833C232.664 218.464 232.366 218.166 231.997 218.166C231.629 218.166 231.331 218.464 231.331 218.833V222.833H227.331C226.963 222.833 226.664 223.131 226.664 223.499C226.664 223.868 226.963 224.166 227.331 224.166H231.331V228.166C231.331 228.534 231.629 228.833 231.997 228.833C232.366 228.833 232.664 228.534 232.664 228.166V224.166H236.664C237.032 224.166 237.331 223.868 237.331 223.499C237.331 223.131 237.032 222.833 236.664 222.833Z" fill="white"/>
</g>
<path d="M246.885 229V218.818H250.962C251.711 218.818 252.335 218.929 252.836 219.151C253.336 219.373 253.713 219.682 253.964 220.076C254.216 220.467 254.342 220.918 254.342 221.428C254.342 221.826 254.263 222.176 254.104 222.477C253.945 222.776 253.726 223.021 253.447 223.213C253.172 223.402 252.857 223.536 252.503 223.616V223.715C252.891 223.732 253.254 223.841 253.592 224.043C253.933 224.246 254.21 224.529 254.422 224.893C254.634 225.255 254.74 225.686 254.74 226.186C254.74 226.726 254.606 227.209 254.337 227.633C254.072 228.054 253.679 228.387 253.159 228.632C252.639 228.877 251.997 229 251.235 229H246.885ZM249.038 227.24H250.793C251.393 227.24 251.83 227.126 252.105 226.897C252.38 226.665 252.518 226.357 252.518 225.972C252.518 225.691 252.45 225.442 252.314 225.227C252.178 225.011 251.984 224.842 251.732 224.719C251.484 224.597 251.187 224.536 250.842 224.536H249.038V227.24ZM249.038 223.079H250.634C250.929 223.079 251.19 223.027 251.419 222.925C251.651 222.819 251.833 222.67 251.966 222.477C252.102 222.285 252.17 222.055 252.17 221.786C252.17 221.418 252.039 221.122 251.777 220.896C251.518 220.671 251.151 220.558 250.673 220.558H249.038V223.079ZM260.998 225.749V221.364H263.116V229H261.083V227.613H261.003C260.831 228.06 260.544 228.42 260.143 228.692C259.745 228.964 259.26 229.099 258.686 229.099C258.176 229.099 257.727 228.983 257.339 228.751C256.951 228.519 256.648 228.19 256.429 227.762C256.214 227.335 256.104 226.822 256.101 226.226V221.364H258.219V225.848C258.222 226.299 258.343 226.655 258.582 226.917C258.82 227.179 259.14 227.31 259.541 227.31C259.797 227.31 260.035 227.252 260.257 227.136C260.479 227.016 260.658 226.841 260.794 226.609C260.933 226.377 261.001 226.09 260.998 225.749ZM268.872 221.364V222.955H264.273V221.364H268.872ZM265.317 219.534H267.435V226.653C267.435 226.849 267.465 227.001 267.525 227.111C267.584 227.217 267.667 227.291 267.773 227.335C267.882 227.378 268.008 227.399 268.151 227.399C268.25 227.399 268.35 227.391 268.449 227.374C268.549 227.354 268.625 227.339 268.678 227.33L269.011 228.906C268.905 228.939 268.756 228.977 268.564 229.02C268.371 229.066 268.138 229.094 267.863 229.104C267.352 229.124 266.905 229.056 266.52 228.901C266.139 228.745 265.842 228.503 265.63 228.175C265.418 227.847 265.314 227.432 265.317 226.932V219.534ZM274.313 221.364V222.955H269.714V221.364H274.313ZM270.759 219.534H272.876V226.653C272.876 226.849 272.906 227.001 272.966 227.111C273.026 227.217 273.108 227.291 273.214 227.335C273.324 227.378 273.45 227.399 273.592 227.399C273.692 227.399 273.791 227.391 273.891 227.374C273.99 227.354 274.066 227.339 274.119 227.33L274.452 228.906C274.346 228.939 274.197 228.977 274.005 229.02C273.813 229.066 273.579 229.094 273.304 229.104C272.794 229.124 272.346 229.056 271.962 228.901C271.58 228.745 271.284 228.503 271.072 228.175C270.86 227.847 270.755 227.432 270.759 226.932V219.534ZM279.061 229.149C278.289 229.149 277.621 228.985 277.058 228.657C276.497 228.326 276.065 227.865 275.76 227.275C275.455 226.682 275.303 225.994 275.303 225.212C275.303 224.423 275.455 223.733 275.76 223.143C276.065 222.55 276.497 222.089 277.058 221.761C277.621 221.43 278.289 221.264 279.061 221.264C279.833 221.264 280.5 221.43 281.06 221.761C281.623 222.089 282.057 222.55 282.362 223.143C282.667 223.733 282.82 224.423 282.82 225.212C282.82 225.994 282.667 226.682 282.362 227.275C282.057 227.865 281.623 228.326 281.06 228.657C280.5 228.985 279.833 229.149 279.061 229.149ZM279.071 227.509C279.422 227.509 279.716 227.409 279.951 227.21C280.186 227.008 280.364 226.733 280.483 226.385C280.606 226.037 280.667 225.641 280.667 225.197C280.667 224.753 280.606 224.357 280.483 224.009C280.364 223.661 280.186 223.385 279.951 223.183C279.716 222.981 279.422 222.88 279.071 222.88C278.716 222.88 278.418 222.981 278.176 223.183C277.938 223.385 277.757 223.661 277.634 224.009C277.515 224.357 277.455 224.753 277.455 225.197C277.455 225.641 277.515 226.037 277.634 226.385C277.757 226.733 277.938 227.008 278.176 227.21C278.418 227.409 278.716 227.509 279.071 227.509ZM286.315 224.585V229H284.197V221.364H286.215V222.711H286.305C286.474 222.267 286.757 221.915 287.155 221.657C287.553 221.395 288.035 221.264 288.602 221.264C289.132 221.264 289.594 221.38 289.989 221.612C290.383 221.844 290.69 222.176 290.908 222.607C291.127 223.034 291.237 223.545 291.237 224.138V229H289.119V224.516C289.122 224.048 289.003 223.684 288.761 223.422C288.519 223.157 288.186 223.024 287.761 223.024C287.476 223.024 287.224 223.085 287.006 223.208C286.79 223.331 286.621 223.51 286.499 223.745C286.379 223.977 286.318 224.257 286.315 224.585Z" fill="white"/>
<g clip-path="url(#clip8_2192_73124)">
<path fill-rule="evenodd" clip-rule="evenodd" d="M306.396 228C306.188 227.999 305.99 227.912 305.848 227.76L302.203 223.882H302.203C301.92 223.58 301.935 223.105 302.237 222.821C302.539 222.537 303.015 222.552 303.298 222.855L306.388 226.147L312.696 219.247V219.247C312.955 218.924 313.427 218.873 313.75 219.132C314.073 219.391 314.125 219.863 313.865 220.186C313.847 220.21 313.827 220.231 313.806 220.252L306.951 227.752C306.811 227.907 306.612 227.997 306.403 228L306.396 228Z" fill="white"/>
</g>
<rect x="376" y="208" width="125" height="31" rx="4" fill="#FAD9C0"/>
<g clip-path="url(#clip9_2192_73124)">
<path fill-rule="evenodd" clip-rule="evenodd" d="M404.664 222.833H400.664V218.833C400.664 218.464 400.366 218.166 399.997 218.166C399.629 218.166 399.331 218.464 399.331 218.833V222.833H395.331C394.963 222.833 394.664 223.131 394.664 223.499C394.664 223.868 394.963 224.166 395.331 224.166H399.331V228.166C399.331 228.534 399.629 228.833 399.997 228.833C400.366 228.833 400.664 228.534 400.664 228.166V224.166H404.664C405.032 224.166 405.331 223.868 405.331 223.499C405.331 223.131 405.032 222.833 404.664 222.833Z" fill="white"/>
</g>
<path d="M414.885 229V218.818H418.962C419.711 218.818 420.335 218.929 420.836 219.151C421.336 219.373 421.713 219.682 421.964 220.076C422.216 220.467 422.342 220.918 422.342 221.428C422.342 221.826 422.263 222.176 422.104 222.477C421.945 222.776 421.726 223.021 421.447 223.213C421.172 223.402 420.857 223.536 420.503 223.616V223.715C420.891 223.732 421.254 223.841 421.592 224.043C421.933 224.246 422.21 224.529 422.422 224.893C422.634 225.255 422.74 225.686 422.74 226.186C422.74 226.726 422.606 227.209 422.337 227.633C422.072 228.054 421.679 228.387 421.159 228.632C420.639 228.877 419.997 229 419.235 229H414.885ZM417.038 227.24H418.793C419.393 227.24 419.83 227.126 420.105 226.897C420.38 226.665 420.518 226.357 420.518 225.972C420.518 225.691 420.45 225.442 420.314 225.227C420.178 225.011 419.984 224.842 419.732 224.719C419.484 224.597 419.187 224.536 418.842 224.536H417.038V227.24ZM417.038 223.079H418.634C418.929 223.079 419.19 223.027 419.419 222.925C419.651 222.819 419.833 222.67 419.966 222.477C420.102 222.285 420.17 222.055 420.17 221.786C420.17 221.418 420.039 221.122 419.777 220.896C419.518 220.671 419.151 220.558 418.673 220.558H417.038V223.079ZM428.998 225.749V221.364H431.116V229H429.083V227.613H429.003C428.831 228.06 428.544 228.42 428.143 228.692C427.745 228.964 427.26 229.099 426.686 229.099C426.176 229.099 425.727 228.983 425.339 228.751C424.951 228.519 424.648 228.19 424.429 227.762C424.214 227.335 424.104 226.822 424.101 226.226V221.364H426.219V225.848C426.222 226.299 426.343 226.655 426.582 226.917C426.82 227.179 427.14 227.31 427.541 227.31C427.797 227.31 428.035 227.252 428.257 227.136C428.479 227.016 428.658 226.841 428.794 226.609C428.933 226.377 429.001 226.09 428.998 225.749ZM436.872 221.364V222.955H432.273V221.364H436.872ZM433.317 219.534H435.435V226.653C435.435 226.849 435.465 227.001 435.525 227.111C435.584 227.217 435.667 227.291 435.773 227.335C435.882 227.378 436.008 227.399 436.151 227.399C436.25 227.399 436.35 227.391 436.449 227.374C436.549 227.354 436.625 227.339 436.678 227.33L437.011 228.906C436.905 228.939 436.756 228.977 436.564 229.02C436.371 229.066 436.138 229.094 435.863 229.104C435.352 229.124 434.905 229.056 434.52 228.901C434.139 228.745 433.842 228.503 433.63 228.175C433.418 227.847 433.314 227.432 433.317 226.932V219.534ZM442.313 221.364V222.955H437.714V221.364H442.313ZM438.759 219.534H440.876V226.653C440.876 226.849 440.906 227.001 440.966 227.111C441.026 227.217 441.108 227.291 441.214 227.335C441.324 227.378 441.45 227.399 441.592 227.399C441.692 227.399 441.791 227.391 441.891 227.374C441.99 227.354 442.066 227.339 442.119 227.33L442.452 228.906C442.346 228.939 442.197 228.977 442.005 229.02C441.813 229.066 441.579 229.094 441.304 229.104C440.794 229.124 440.346 229.056 439.962 228.901C439.58 228.745 439.284 228.503 439.072 228.175C438.86 227.847 438.755 227.432 438.759 226.932V219.534ZM447.061 229.149C446.289 229.149 445.621 228.985 445.058 228.657C444.497 228.326 444.065 227.865 443.76 227.275C443.455 226.682 443.303 225.994 443.303 225.212C443.303 224.423 443.455 223.733 443.76 223.143C444.065 222.55 444.497 222.089 445.058 221.761C445.621 221.43 446.289 221.264 447.061 221.264C447.833 221.264 448.5 221.43 449.06 221.761C449.623 222.089 450.057 222.55 450.362 223.143C450.667 223.733 450.82 224.423 450.82 225.212C450.82 225.994 450.667 226.682 450.362 227.275C450.057 227.865 449.623 228.326 449.06 228.657C448.5 228.985 447.833 229.149 447.061 229.149ZM447.071 227.509C447.422 227.509 447.716 227.409 447.951 227.21C448.186 227.008 448.364 226.733 448.483 226.385C448.606 226.037 448.667 225.641 448.667 225.197C448.667 224.753 448.606 224.357 448.483 224.009C448.364 223.661 448.186 223.385 447.951 223.183C447.716 222.981 447.422 222.88 447.071 222.88C446.716 222.88 446.418 222.981 446.176 223.183C445.938 223.385 445.757 223.661 445.634 224.009C445.515 224.357 445.455 224.753 445.455 225.197C445.455 225.641 445.515 226.037 445.634 226.385C445.757 226.733 445.938 227.008 446.176 227.21C446.418 227.409 446.716 227.509 447.071 227.509ZM454.315 224.585V229H452.197V221.364H454.215V222.711H454.305C454.474 222.267 454.757 221.915 455.155 221.657C455.553 221.395 456.035 221.264 456.602 221.264C457.132 221.264 457.594 221.38 457.989 221.612C458.383 221.844 458.69 222.176 458.908 222.607C459.127 223.034 459.237 223.545 459.237 224.138V229H457.119V224.516C457.122 224.048 457.003 223.684 456.761 223.422C456.519 223.157 456.186 223.024 455.761 223.024C455.476 223.024 455.224 223.085 455.006 223.208C454.79 223.331 454.621 223.51 454.499 223.745C454.379 223.977 454.318 224.257 454.315 224.585Z" fill="white"/>
<g clip-path="url(#clip10_2192_73124)">
<path fill-rule="evenodd" clip-rule="evenodd" d="M474.396 228C474.188 227.999 473.99 227.912 473.848 227.76L470.203 223.882H470.203C469.92 223.58 469.935 223.105 470.237 222.821C470.539 222.537 471.015 222.552 471.298 222.855L474.388 226.147L480.696 219.247V219.247C480.955 218.924 481.427 218.873 481.75 219.132C482.073 219.391 482.125 219.863 481.865 220.186C481.847 220.21 481.827 220.231 481.806 220.252L474.951 227.752C474.811 227.907 474.612 227.997 474.403 228L474.396 228Z" fill="white"/>
</g>
<rect x="544" y="208" width="125" height="31" rx="4" fill="#BF6A2A"/>
<g clip-path="url(#clip11_2192_73124)">
<path fill-rule="evenodd" clip-rule="evenodd" d="M572.664 222.833H568.664V218.833C568.664 218.464 568.366 218.166 567.997 218.166C567.629 218.166 567.331 218.464 567.331 218.833V222.833H563.331C562.963 222.833 562.664 223.131 562.664 223.499C562.664 223.868 562.963 224.166 563.331 224.166H567.331V228.166C567.331 228.534 567.629 228.833 567.997 228.833C568.366 228.833 568.664 228.534 568.664 228.166V224.166H572.664C573.032 224.166 573.331 223.868 573.331 223.499C573.331 223.131 573.032 222.833 572.664 222.833Z" fill="white"/>
</g>
<path d="M582.885 229V218.818H586.962C587.711 218.818 588.335 218.929 588.836 219.151C589.336 219.373 589.713 219.682 589.964 220.076C590.216 220.467 590.342 220.918 590.342 221.428C590.342 221.826 590.263 222.176 590.104 222.477C589.945 222.776 589.726 223.021 589.447 223.213C589.172 223.402 588.857 223.536 588.503 223.616V223.715C588.891 223.732 589.254 223.841 589.592 224.043C589.933 224.246 590.21 224.529 590.422 224.893C590.634 225.255 590.74 225.686 590.74 226.186C590.74 226.726 590.606 227.209 590.337 227.633C590.072 228.054 589.679 228.387 589.159 228.632C588.639 228.877 587.997 229 587.235 229H582.885ZM585.038 227.24H586.793C587.393 227.24 587.83 227.126 588.105 226.897C588.38 226.665 588.518 226.357 588.518 225.972C588.518 225.691 588.45 225.442 588.314 225.227C588.178 225.011 587.984 224.842 587.732 224.719C587.484 224.597 587.187 224.536 586.842 224.536H585.038V227.24ZM585.038 223.079H586.634C586.929 223.079 587.19 223.027 587.419 222.925C587.651 222.819 587.833 222.67 587.966 222.477C588.102 222.285 588.17 222.055 588.17 221.786C588.17 221.418 588.039 221.122 587.777 220.896C587.518 220.671 587.151 220.558 586.673 220.558H585.038V223.079ZM596.998 225.749V221.364H599.116V229H597.083V227.613H597.003C596.831 228.06 596.544 228.42 596.143 228.692C595.745 228.964 595.26 229.099 594.686 229.099C594.176 229.099 593.727 228.983 593.339 228.751C592.951 228.519 592.648 228.19 592.429 227.762C592.214 227.335 592.104 226.822 592.101 226.226V221.364H594.219V225.848C594.222 226.299 594.343 226.655 594.582 226.917C594.82 227.179 595.14 227.31 595.541 227.31C595.797 227.31 596.035 227.252 596.257 227.136C596.479 227.016 596.658 226.841 596.794 226.609C596.933 226.377 597.001 226.09 596.998 225.749ZM604.872 221.364V222.955H600.273V221.364H604.872ZM601.317 219.534H603.435V226.653C603.435 226.849 603.465 227.001 603.525 227.111C603.584 227.217 603.667 227.291 603.773 227.335C603.882 227.378 604.008 227.399 604.151 227.399C604.25 227.399 604.35 227.391 604.449 227.374C604.549 227.354 604.625 227.339 604.678 227.33L605.011 228.906C604.905 228.939 604.756 228.977 604.564 229.02C604.371 229.066 604.138 229.094 603.863 229.104C603.352 229.124 602.905 229.056 602.52 228.901C602.139 228.745 601.842 228.503 601.63 228.175C601.418 227.847 601.314 227.432 601.317 226.932V219.534ZM610.313 221.364V222.955H605.714V221.364H610.313ZM606.759 219.534H608.876V226.653C608.876 226.849 608.906 227.001 608.966 227.111C609.026 227.217 609.108 227.291 609.214 227.335C609.324 227.378 609.45 227.399 609.592 227.399C609.692 227.399 609.791 227.391 609.891 227.374C609.99 227.354 610.066 227.339 610.119 227.33L610.452 228.906C610.346 228.939 610.197 228.977 610.005 229.02C609.813 229.066 609.579 229.094 609.304 229.104C608.794 229.124 608.346 229.056 607.962 228.901C607.58 228.745 607.284 228.503 607.072 228.175C606.86 227.847 606.755 227.432 606.759 226.932V219.534ZM615.061 229.149C614.289 229.149 613.621 228.985 613.058 228.657C612.497 228.326 612.065 227.865 611.76 227.275C611.455 226.682 611.303 225.994 611.303 225.212C611.303 224.423 611.455 223.733 611.76 223.143C612.065 222.55 612.497 222.089 613.058 221.761C613.621 221.43 614.289 221.264 615.061 221.264C615.833 221.264 616.5 221.43 617.06 221.761C617.623 222.089 618.057 222.55 618.362 223.143C618.667 223.733 618.82 224.423 618.82 225.212C618.82 225.994 618.667 226.682 618.362 227.275C618.057 227.865 617.623 228.326 617.06 228.657C616.5 228.985 615.833 229.149 615.061 229.149ZM615.071 227.509C615.422 227.509 615.716 227.409 615.951 227.21C616.186 227.008 616.364 226.733 616.483 226.385C616.606 226.037 616.667 225.641 616.667 225.197C616.667 224.753 616.606 224.357 616.483 224.009C616.364 223.661 616.186 223.385 615.951 223.183C615.716 222.981 615.422 222.88 615.071 222.88C614.716 222.88 614.418 222.981 614.176 223.183C613.938 223.385 613.757 223.661 613.634 224.009C613.515 224.357 613.455 224.753 613.455 225.197C613.455 225.641 613.515 226.037 613.634 226.385C613.757 226.733 613.938 227.008 614.176 227.21C614.418 227.409 614.716 227.509 615.071 227.509ZM622.315 224.585V229H620.197V221.364H622.215V222.711H622.305C622.474 222.267 622.757 221.915 623.155 221.657C623.553 221.395 624.035 221.264 624.602 221.264C625.132 221.264 625.594 221.38 625.989 221.612C626.383 221.844 626.69 222.176 626.908 222.607C627.127 223.034 627.237 223.545 627.237 224.138V229H625.119V224.516C625.122 224.048 625.003 223.684 624.761 223.422C624.519 223.157 624.186 223.024 623.761 223.024C623.476 223.024 623.224 223.085 623.006 223.208C622.79 223.331 622.621 223.51 622.499 223.745C622.379 223.977 622.318 224.257 622.315 224.585Z" fill="white"/>
<g clip-path="url(#clip12_2192_73124)">
<path fill-rule="evenodd" clip-rule="evenodd" d="M642.396 228C642.188 227.999 641.99 227.912 641.848 227.76L638.203 223.882H638.203C637.92 223.58 637.935 223.105 638.237 222.821C638.539 222.537 639.015 222.552 639.298 222.855L642.388 226.147L648.696 219.247V219.247C648.955 218.924 649.427 218.873 649.75 219.132C650.073 219.391 650.125 219.863 649.865 220.186C649.847 220.21 649.827 220.231 649.806 220.252L642.951 227.752C642.811 227.907 642.612 227.997 642.403 228L642.396 228Z" fill="white"/>
</g>
<rect x="711" y="207" width="127" height="33" rx="5" fill="#EF8435"/>
<rect x="711" y="207" width="127" height="33" rx="5" stroke="#B36328" stroke-width="2"/>
<rect x="40" y="152" width="109" height="31" rx="4" fill="#EF8435"/>
<path d="M62.8849 173V162.818H66.9616C67.7107 162.818 68.3355 162.929 68.8359 163.151C69.3364 163.373 69.7126 163.682 69.9645 164.076C70.2164 164.467 70.3423 164.918 70.3423 165.428C70.3423 165.826 70.2628 166.176 70.1037 166.477C69.9446 166.776 69.7259 167.021 69.4474 167.213C69.1723 167.402 68.8575 167.536 68.5028 167.616V167.715C68.8906 167.732 69.2536 167.841 69.5916 168.043C69.933 168.246 70.2098 168.529 70.4219 168.893C70.634 169.255 70.7401 169.686 70.7401 170.186C70.7401 170.726 70.6058 171.209 70.3374 171.633C70.0722 172.054 69.6795 172.387 69.1591 172.632C68.6387 172.877 67.9974 173 67.2351 173H62.8849ZM65.0376 171.24H66.7926C67.3925 171.24 67.83 171.126 68.1051 170.897C68.3802 170.665 68.5178 170.357 68.5178 169.972C68.5178 169.691 68.4498 169.442 68.3139 169.227C68.178 169.011 67.9841 168.842 67.7322 168.719C67.4837 168.597 67.187 168.536 66.8423 168.536H65.0376V171.24ZM65.0376 167.079H66.6335C66.9285 167.079 67.1903 167.027 67.419 166.925C67.651 166.819 67.8333 166.67 67.9659 166.477C68.1018 166.285 68.1697 166.055 68.1697 165.786C68.1697 165.418 68.0388 165.122 67.777 164.896C67.5185 164.671 67.1506 164.558 66.6733 164.558H65.0376V167.079ZM76.998 169.749V165.364H79.1159V173H77.0826V171.613H77.003C76.8307 172.06 76.544 172.42 76.1429 172.692C75.7452 172.964 75.2596 173.099 74.6863 173.099C74.1758 173.099 73.7267 172.983 73.339 172.751C72.9512 172.519 72.6479 172.19 72.4292 171.762C72.2137 171.335 72.1043 170.822 72.101 170.226V165.364H74.2189V169.848C74.2222 170.299 74.3432 170.655 74.5819 170.917C74.8205 171.179 75.1403 171.31 75.5414 171.31C75.7966 171.31 76.0352 171.252 76.2573 171.136C76.4793 171.016 76.6583 170.841 76.7942 170.609C76.9334 170.377 77.0014 170.09 76.998 169.749ZM84.8718 165.364V166.955H80.2731V165.364H84.8718ZM81.3171 163.534H83.435V170.653C83.435 170.849 83.4648 171.001 83.5245 171.111C83.5842 171.217 83.667 171.291 83.7731 171.335C83.8825 171.378 84.0084 171.399 84.1509 171.399C84.2504 171.399 84.3498 171.391 84.4492 171.374C84.5487 171.354 84.6249 171.339 84.6779 171.33L85.011 172.906C84.9049 172.939 84.7558 172.977 84.5636 173.02C84.3713 173.066 84.1377 173.094 83.8626 173.104C83.3522 173.124 82.9047 173.056 82.5202 172.901C82.1391 172.745 81.8424 172.503 81.6303 172.175C81.4182 171.847 81.3138 171.432 81.3171 170.932V163.534ZM90.3132 165.364V166.955H85.7145V165.364H90.3132ZM86.7585 163.534H88.8764V170.653C88.8764 170.849 88.9063 171.001 88.9659 171.111C89.0256 171.217 89.1084 171.291 89.2145 171.335C89.3239 171.378 89.4498 171.399 89.5923 171.399C89.6918 171.399 89.7912 171.391 89.8906 171.374C89.9901 171.354 90.0663 171.339 90.1193 171.33L90.4524 172.906C90.3464 172.939 90.1972 172.977 90.005 173.02C89.8127 173.066 89.5791 173.094 89.304 173.104C88.7936 173.124 88.3461 173.056 87.9616 172.901C87.5805 172.745 87.2839 172.503 87.0717 172.175C86.8596 171.847 86.7552 171.432 86.7585 170.932V163.534ZM95.0611 173.149C94.2888 173.149 93.621 172.985 93.0575 172.657C92.4974 172.326 92.0649 171.865 91.7599 171.275C91.455 170.682 91.3026 169.994 91.3026 169.212C91.3026 168.423 91.455 167.733 91.7599 167.143C92.0649 166.55 92.4974 166.089 93.0575 165.761C93.621 165.43 94.2888 165.264 95.0611 165.264C95.8333 165.264 96.4995 165.43 97.0597 165.761C97.6231 166.089 98.0573 166.55 98.3622 167.143C98.6671 167.733 98.8196 168.423 98.8196 169.212C98.8196 169.994 98.6671 170.682 98.3622 171.275C98.0573 171.865 97.6231 172.326 97.0597 172.657C96.4995 172.985 95.8333 173.149 95.0611 173.149ZM95.071 171.509C95.4223 171.509 95.7157 171.409 95.951 171.21C96.1863 171.008 96.3636 170.733 96.483 170.385C96.6056 170.037 96.6669 169.641 96.6669 169.197C96.6669 168.753 96.6056 168.357 96.483 168.009C96.3636 167.661 96.1863 167.385 95.951 167.183C95.7157 166.981 95.4223 166.88 95.071 166.88C94.7164 166.88 94.4181 166.981 94.1761 167.183C93.9375 167.385 93.7569 167.661 93.6342 168.009C93.5149 168.357 93.4553 168.753 93.4553 169.197C93.4553 169.641 93.5149 170.037 93.6342 170.385C93.7569 170.733 93.9375 171.008 94.1761 171.21C94.4181 171.409 94.7164 171.509 95.071 171.509ZM102.315 168.585V173H100.197V165.364H102.215V166.711H102.305C102.474 166.267 102.757 165.915 103.155 165.657C103.553 165.395 104.035 165.264 104.602 165.264C105.132 165.264 105.594 165.38 105.989 165.612C106.383 165.844 106.69 166.176 106.908 166.607C107.127 167.034 107.237 167.545 107.237 168.138V173H105.119V168.516C105.122 168.048 105.003 167.684 104.761 167.422C104.519 167.157 104.186 167.024 103.761 167.024C103.476 167.024 103.224 167.085 103.006 167.208C102.79 167.331 102.621 167.51 102.499 167.745C102.379 167.977 102.318 168.257 102.315 168.585Z" fill="white"/>
<g clip-path="url(#clip13_2192_73124)">
<path fill-rule="evenodd" clip-rule="evenodd" d="M122.396 172C122.188 171.999 121.99 171.912 121.848 171.76L118.203 167.882H118.203C117.92 167.58 117.935 167.105 118.237 166.821C118.539 166.537 119.015 166.552 119.298 166.855L122.388 170.147L128.696 163.247V163.247C128.955 162.924 129.427 162.873 129.75 163.132C130.073 163.391 130.125 163.863 129.865 164.186C129.847 164.21 129.827 164.231 129.806 164.252L122.951 171.752C122.811 171.907 122.612 171.997 122.403 172L122.396 172Z" fill="white"/>
</g>
<rect x="208" y="152" width="109" height="31" rx="4" fill="#D77730"/>
<path d="M230.885 173V162.818H234.962C235.711 162.818 236.335 162.929 236.836 163.151C237.336 163.373 237.713 163.682 237.964 164.076C238.216 164.467 238.342 164.918 238.342 165.428C238.342 165.826 238.263 166.176 238.104 166.477C237.945 166.776 237.726 167.021 237.447 167.213C237.172 167.402 236.857 167.536 236.503 167.616V167.715C236.891 167.732 237.254 167.841 237.592 168.043C237.933 168.246 238.21 168.529 238.422 168.893C238.634 169.255 238.74 169.686 238.74 170.186C238.74 170.726 238.606 171.209 238.337 171.633C238.072 172.054 237.679 172.387 237.159 172.632C236.639 172.877 235.997 173 235.235 173H230.885ZM233.038 171.24H234.793C235.393 171.24 235.83 171.126 236.105 170.897C236.38 170.665 236.518 170.357 236.518 169.972C236.518 169.691 236.45 169.442 236.314 169.227C236.178 169.011 235.984 168.842 235.732 168.719C235.484 168.597 235.187 168.536 234.842 168.536H233.038V171.24ZM233.038 167.079H234.634C234.929 167.079 235.19 167.027 235.419 166.925C235.651 166.819 235.833 166.67 235.966 166.477C236.102 166.285 236.17 166.055 236.17 165.786C236.17 165.418 236.039 165.122 235.777 164.896C235.518 164.671 235.151 164.558 234.673 164.558H233.038V167.079ZM244.998 169.749V165.364H247.116V173H245.083V171.613H245.003C244.831 172.06 244.544 172.42 244.143 172.692C243.745 172.964 243.26 173.099 242.686 173.099C242.176 173.099 241.727 172.983 241.339 172.751C240.951 172.519 240.648 172.19 240.429 171.762C240.214 171.335 240.104 170.822 240.101 170.226V165.364H242.219V169.848C242.222 170.299 242.343 170.655 242.582 170.917C242.82 171.179 243.14 171.31 243.541 171.31C243.797 171.31 244.035 171.252 244.257 171.136C244.479 171.016 244.658 170.841 244.794 170.609C244.933 170.377 245.001 170.09 244.998 169.749ZM252.872 165.364V166.955H248.273V165.364H252.872ZM249.317 163.534H251.435V170.653C251.435 170.849 251.465 171.001 251.525 171.111C251.584 171.217 251.667 171.291 251.773 171.335C251.882 171.378 252.008 171.399 252.151 171.399C252.25 171.399 252.35 171.391 252.449 171.374C252.549 171.354 252.625 171.339 252.678 171.33L253.011 172.906C252.905 172.939 252.756 172.977 252.564 173.02C252.371 173.066 252.138 173.094 251.863 173.104C251.352 173.124 250.905 173.056 250.52 172.901C250.139 172.745 249.842 172.503 249.63 172.175C249.418 171.847 249.314 171.432 249.317 170.932V163.534ZM258.313 165.364V166.955H253.714V165.364H258.313ZM254.759 163.534H256.876V170.653C256.876 170.849 256.906 171.001 256.966 171.111C257.026 171.217 257.108 171.291 257.214 171.335C257.324 171.378 257.45 171.399 257.592 171.399C257.692 171.399 257.791 171.391 257.891 171.374C257.99 171.354 258.066 171.339 258.119 171.33L258.452 172.906C258.346 172.939 258.197 172.977 258.005 173.02C257.813 173.066 257.579 173.094 257.304 173.104C256.794 173.124 256.346 173.056 255.962 172.901C255.58 172.745 255.284 172.503 255.072 172.175C254.86 171.847 254.755 171.432 254.759 170.932V163.534ZM263.061 173.149C262.289 173.149 261.621 172.985 261.058 172.657C260.497 172.326 260.065 171.865 259.76 171.275C259.455 170.682 259.303 169.994 259.303 169.212C259.303 168.423 259.455 167.733 259.76 167.143C260.065 166.55 260.497 166.089 261.058 165.761C261.621 165.43 262.289 165.264 263.061 165.264C263.833 165.264 264.5 165.43 265.06 165.761C265.623 166.089 266.057 166.55 266.362 167.143C266.667 167.733 266.82 168.423 266.82 169.212C266.82 169.994 266.667 170.682 266.362 171.275C266.057 171.865 265.623 172.326 265.06 172.657C264.5 172.985 263.833 173.149 263.061 173.149ZM263.071 171.509C263.422 171.509 263.716 171.409 263.951 171.21C264.186 171.008 264.364 170.733 264.483 170.385C264.606 170.037 264.667 169.641 264.667 169.197C264.667 168.753 264.606 168.357 264.483 168.009C264.364 167.661 264.186 167.385 263.951 167.183C263.716 166.981 263.422 166.88 263.071 166.88C262.716 166.88 262.418 166.981 262.176 167.183C261.938 167.385 261.757 167.661 261.634 168.009C261.515 168.357 261.455 168.753 261.455 169.197C261.455 169.641 261.515 170.037 261.634 170.385C261.757 170.733 261.938 171.008 262.176 171.21C262.418 171.409 262.716 171.509 263.071 171.509ZM270.315 168.585V173H268.197V165.364H270.215V166.711H270.305C270.474 166.267 270.757 165.915 271.155 165.657C271.553 165.395 272.035 165.264 272.602 165.264C273.132 165.264 273.594 165.38 273.989 165.612C274.383 165.844 274.69 166.176 274.908 166.607C275.127 167.034 275.237 167.545 275.237 168.138V173H273.119V168.516C273.122 168.048 273.003 167.684 272.761 167.422C272.519 167.157 272.186 167.024 271.761 167.024C271.476 167.024 271.224 167.085 271.006 167.208C270.79 167.331 270.621 167.51 270.499 167.745C270.379 167.977 270.318 168.257 270.315 168.585Z" fill="white"/>
<g clip-path="url(#clip14_2192_73124)">
<path fill-rule="evenodd" clip-rule="evenodd" d="M290.396 172C290.188 171.999 289.99 171.912 289.848 171.76L286.203 167.882H286.203C285.92 167.58 285.935 167.105 286.237 166.821C286.539 166.537 287.015 166.552 287.298 166.855L290.388 170.147L296.696 163.247V163.247C296.955 162.924 297.427 162.873 297.75 163.132C298.073 163.391 298.125 163.863 297.865 164.186C297.847 164.21 297.827 164.231 297.806 164.252L290.951 171.752C290.811 171.907 290.612 171.997 290.403 172L290.396 172Z" fill="white"/>
</g>
<rect x="376" y="152" width="109" height="31" rx="4" fill="#FAD9C0"/>
<path d="M398.885 173V162.818H402.962C403.711 162.818 404.335 162.929 404.836 163.151C405.336 163.373 405.713 163.682 405.964 164.076C406.216 164.467 406.342 164.918 406.342 165.428C406.342 165.826 406.263 166.176 406.104 166.477C405.945 166.776 405.726 167.021 405.447 167.213C405.172 167.402 404.857 167.536 404.503 167.616V167.715C404.891 167.732 405.254 167.841 405.592 168.043C405.933 168.246 406.21 168.529 406.422 168.893C406.634 169.255 406.74 169.686 406.74 170.186C406.74 170.726 406.606 171.209 406.337 171.633C406.072 172.054 405.679 172.387 405.159 172.632C404.639 172.877 403.997 173 403.235 173H398.885ZM401.038 171.24H402.793C403.393 171.24 403.83 171.126 404.105 170.897C404.38 170.665 404.518 170.357 404.518 169.972C404.518 169.691 404.45 169.442 404.314 169.227C404.178 169.011 403.984 168.842 403.732 168.719C403.484 168.597 403.187 168.536 402.842 168.536H401.038V171.24ZM401.038 167.079H402.634C402.929 167.079 403.19 167.027 403.419 166.925C403.651 166.819 403.833 166.67 403.966 166.477C404.102 166.285 404.17 166.055 404.17 165.786C404.17 165.418 404.039 165.122 403.777 164.896C403.518 164.671 403.151 164.558 402.673 164.558H401.038V167.079ZM412.998 169.749V165.364H415.116V173H413.083V171.613H413.003C412.831 172.06 412.544 172.42 412.143 172.692C411.745 172.964 411.26 173.099 410.686 173.099C410.176 173.099 409.727 172.983 409.339 172.751C408.951 172.519 408.648 172.19 408.429 171.762C408.214 171.335 408.104 170.822 408.101 170.226V165.364H410.219V169.848C410.222 170.299 410.343 170.655 410.582 170.917C410.82 171.179 411.14 171.31 411.541 171.31C411.797 171.31 412.035 171.252 412.257 171.136C412.479 171.016 412.658 170.841 412.794 170.609C412.933 170.377 413.001 170.09 412.998 169.749ZM420.872 165.364V166.955H416.273V165.364H420.872ZM417.317 163.534H419.435V170.653C419.435 170.849 419.465 171.001 419.525 171.111C419.584 171.217 419.667 171.291 419.773 171.335C419.882 171.378 420.008 171.399 420.151 171.399C420.25 171.399 420.35 171.391 420.449 171.374C420.549 171.354 420.625 171.339 420.678 171.33L421.011 172.906C420.905 172.939 420.756 172.977 420.564 173.02C420.371 173.066 420.138 173.094 419.863 173.104C419.352 173.124 418.905 173.056 418.52 172.901C418.139 172.745 417.842 172.503 417.63 172.175C417.418 171.847 417.314 171.432 417.317 170.932V163.534ZM426.313 165.364V166.955H421.714V165.364H426.313ZM422.759 163.534H424.876V170.653C424.876 170.849 424.906 171.001 424.966 171.111C425.026 171.217 425.108 171.291 425.214 171.335C425.324 171.378 425.45 171.399 425.592 171.399C425.692 171.399 425.791 171.391 425.891 171.374C425.99 171.354 426.066 171.339 426.119 171.33L426.452 172.906C426.346 172.939 426.197 172.977 426.005 173.02C425.813 173.066 425.579 173.094 425.304 173.104C424.794 173.124 424.346 173.056 423.962 172.901C423.58 172.745 423.284 172.503 423.072 172.175C422.86 171.847 422.755 171.432 422.759 170.932V163.534ZM431.061 173.149C430.289 173.149 429.621 172.985 429.058 172.657C428.497 172.326 428.065 171.865 427.76 171.275C427.455 170.682 427.303 169.994 427.303 169.212C427.303 168.423 427.455 167.733 427.76 167.143C428.065 166.55 428.497 166.089 429.058 165.761C429.621 165.43 430.289 165.264 431.061 165.264C431.833 165.264 432.5 165.43 433.06 165.761C433.623 166.089 434.057 166.55 434.362 167.143C434.667 167.733 434.82 168.423 434.82 169.212C434.82 169.994 434.667 170.682 434.362 171.275C434.057 171.865 433.623 172.326 433.06 172.657C432.5 172.985 431.833 173.149 431.061 173.149ZM431.071 171.509C431.422 171.509 431.716 171.409 431.951 171.21C432.186 171.008 432.364 170.733 432.483 170.385C432.606 170.037 432.667 169.641 432.667 169.197C432.667 168.753 432.606 168.357 432.483 168.009C432.364 167.661 432.186 167.385 431.951 167.183C431.716 166.981 431.422 166.88 431.071 166.88C430.716 166.88 430.418 166.981 430.176 167.183C429.938 167.385 429.757 167.661 429.634 168.009C429.515 168.357 429.455 168.753 429.455 169.197C429.455 169.641 429.515 170.037 429.634 170.385C429.757 170.733 429.938 171.008 430.176 171.21C430.418 171.409 430.716 171.509 431.071 171.509ZM438.315 168.585V173H436.197V165.364H438.215V166.711H438.305C438.474 166.267 438.757 165.915 439.155 165.657C439.553 165.395 440.035 165.264 440.602 165.264C441.132 165.264 441.594 165.38 441.989 165.612C442.383 165.844 442.69 166.176 442.908 166.607C443.127 167.034 443.237 167.545 443.237 168.138V173H441.119V168.516C441.122 168.048 441.003 167.684 440.761 167.422C440.519 167.157 440.186 167.024 439.761 167.024C439.476 167.024 439.224 167.085 439.006 167.208C438.79 167.331 438.621 167.51 438.499 167.745C438.379 167.977 438.318 168.257 438.315 168.585Z" fill="white"/>
<g clip-path="url(#clip15_2192_73124)">
<path fill-rule="evenodd" clip-rule="evenodd" d="M458.396 172C458.188 171.999 457.99 171.912 457.848 171.76L454.203 167.882H454.203C453.92 167.58 453.935 167.105 454.237 166.821C454.539 166.537 455.015 166.552 455.298 166.855L458.388 170.147L464.696 163.247V163.247C464.955 162.924 465.427 162.873 465.75 163.132C466.073 163.391 466.125 163.863 465.865 164.186C465.847 164.21 465.827 164.231 465.806 164.252L458.951 171.752C458.811 171.907 458.612 171.997 458.403 172L458.396 172Z" fill="white"/>
</g>
<rect x="544" y="152" width="109" height="31" rx="4" fill="#BF6A2A"/>
<path d="M566.885 173V162.818H570.962C571.711 162.818 572.335 162.929 572.836 163.151C573.336 163.373 573.713 163.682 573.964 164.076C574.216 164.467 574.342 164.918 574.342 165.428C574.342 165.826 574.263 166.176 574.104 166.477C573.945 166.776 573.726 167.021 573.447 167.213C573.172 167.402 572.857 167.536 572.503 167.616V167.715C572.891 167.732 573.254 167.841 573.592 168.043C573.933 168.246 574.21 168.529 574.422 168.893C574.634 169.255 574.74 169.686 574.74 170.186C574.74 170.726 574.606 171.209 574.337 171.633C574.072 172.054 573.679 172.387 573.159 172.632C572.639 172.877 571.997 173 571.235 173H566.885ZM569.038 171.24H570.793C571.393 171.24 571.83 171.126 572.105 170.897C572.38 170.665 572.518 170.357 572.518 169.972C572.518 169.691 572.45 169.442 572.314 169.227C572.178 169.011 571.984 168.842 571.732 168.719C571.484 168.597 571.187 168.536 570.842 168.536H569.038V171.24ZM569.038 167.079H570.634C570.929 167.079 571.19 167.027 571.419 166.925C571.651 166.819 571.833 166.67 571.966 166.477C572.102 166.285 572.17 166.055 572.17 165.786C572.17 165.418 572.039 165.122 571.777 164.896C571.518 164.671 571.151 164.558 570.673 164.558H569.038V167.079ZM580.998 169.749V165.364H583.116V173H581.083V171.613H581.003C580.831 172.06 580.544 172.42 580.143 172.692C579.745 172.964 579.26 173.099 578.686 173.099C578.176 173.099 577.727 172.983 577.339 172.751C576.951 172.519 576.648 172.19 576.429 171.762C576.214 171.335 576.104 170.822 576.101 170.226V165.364H578.219V169.848C578.222 170.299 578.343 170.655 578.582 170.917C578.82 171.179 579.14 171.31 579.541 171.31C579.797 171.31 580.035 171.252 580.257 171.136C580.479 171.016 580.658 170.841 580.794 170.609C580.933 170.377 581.001 170.09 580.998 169.749ZM588.872 165.364V166.955H584.273V165.364H588.872ZM585.317 163.534H587.435V170.653C587.435 170.849 587.465 171.001 587.525 171.111C587.584 171.217 587.667 171.291 587.773 171.335C587.882 171.378 588.008 171.399 588.151 171.399C588.25 171.399 588.35 171.391 588.449 171.374C588.549 171.354 588.625 171.339 588.678 171.33L589.011 172.906C588.905 172.939 588.756 172.977 588.564 173.02C588.371 173.066 588.138 173.094 587.863 173.104C587.352 173.124 586.905 173.056 586.52 172.901C586.139 172.745 585.842 172.503 585.63 172.175C585.418 171.847 585.314 171.432 585.317 170.932V163.534ZM594.313 165.364V166.955H589.714V165.364H594.313ZM590.759 163.534H592.876V170.653C592.876 170.849 592.906 171.001 592.966 171.111C593.026 171.217 593.108 171.291 593.214 171.335C593.324 171.378 593.45 171.399 593.592 171.399C593.692 171.399 593.791 171.391 593.891 171.374C593.99 171.354 594.066 171.339 594.119 171.33L594.452 172.906C594.346 172.939 594.197 172.977 594.005 173.02C593.813 173.066 593.579 173.094 593.304 173.104C592.794 173.124 592.346 173.056 591.962 172.901C591.58 172.745 591.284 172.503 591.072 172.175C590.86 171.847 590.755 171.432 590.759 170.932V163.534ZM599.061 173.149C598.289 173.149 597.621 172.985 597.058 172.657C596.497 172.326 596.065 171.865 595.76 171.275C595.455 170.682 595.303 169.994 595.303 169.212C595.303 168.423 595.455 167.733 595.76 167.143C596.065 166.55 596.497 166.089 597.058 165.761C597.621 165.43 598.289 165.264 599.061 165.264C599.833 165.264 600.5 165.43 601.06 165.761C601.623 166.089 602.057 166.55 602.362 167.143C602.667 167.733 602.82 168.423 602.82 169.212C602.82 169.994 602.667 170.682 602.362 171.275C602.057 171.865 601.623 172.326 601.06 172.657C600.5 172.985 599.833 173.149 599.061 173.149ZM599.071 171.509C599.422 171.509 599.716 171.409 599.951 171.21C600.186 171.008 600.364 170.733 600.483 170.385C600.606 170.037 600.667 169.641 600.667 169.197C600.667 168.753 600.606 168.357 600.483 168.009C600.364 167.661 600.186 167.385 599.951 167.183C599.716 166.981 599.422 166.88 599.071 166.88C598.716 166.88 598.418 166.981 598.176 167.183C597.938 167.385 597.757 167.661 597.634 168.009C597.515 168.357 597.455 168.753 597.455 169.197C597.455 169.641 597.515 170.037 597.634 170.385C597.757 170.733 597.938 171.008 598.176 171.21C598.418 171.409 598.716 171.509 599.071 171.509ZM606.315 168.585V173H604.197V165.364H606.215V166.711H606.305C606.474 166.267 606.757 165.915 607.155 165.657C607.553 165.395 608.035 165.264 608.602 165.264C609.132 165.264 609.594 165.38 609.989 165.612C610.383 165.844 610.69 166.176 610.908 166.607C611.127 167.034 611.237 167.545 611.237 168.138V173H609.119V168.516C609.122 168.048 609.003 167.684 608.761 167.422C608.519 167.157 608.186 167.024 607.761 167.024C607.476 167.024 607.224 167.085 607.006 167.208C606.79 167.331 606.621 167.51 606.499 167.745C606.379 167.977 606.318 168.257 606.315 168.585Z" fill="white"/>
<g clip-path="url(#clip16_2192_73124)">
<path fill-rule="evenodd" clip-rule="evenodd" d="M626.396 172C626.188 171.999 625.99 171.912 625.848 171.76L622.203 167.882H622.203C621.92 167.58 621.935 167.105 622.237 166.821C622.539 166.537 623.015 166.552 623.298 166.855L626.388 170.147L632.696 163.247V163.247C632.955 162.924 633.427 162.873 633.75 163.132C634.073 163.391 634.125 163.863 633.865 164.186C633.847 164.21 633.827 164.231 633.806 164.252L626.951 171.752C626.811 171.907 626.612 171.997 626.403 172L626.396 172Z" fill="white"/>
</g>
<rect x="711" y="151" width="111" height="33" rx="5" fill="#EF8435"/>
<rect x="711" y="151" width="111" height="33" rx="5" stroke="#B36328" stroke-width="2"/>
</g>
<rect x="0.5" y="0.5" width="724" height="285" rx="7.5" stroke="#333333"/>
<defs>
<clipPath id="clip0_2192_73124">
<rect width="725" height="286" rx="8" fill="white"/>
</clipPath>
<clipPath id="clip1_2192_73124">
<rect width="16" height="16" fill="white" transform="translate(56 103.5)"/>
</clipPath>
<clipPath id="clip2_2192_73124">
<rect width="16" height="16" fill="white" transform="translate(224 103.5)"/>
</clipPath>
<clipPath id="clip3_2192_73124">
<rect width="16" height="16" fill="white" transform="translate(392 103.5)"/>
</clipPath>
<clipPath id="clip4_2192_73124">
<rect width="16" height="16" fill="white" transform="translate(560 103.5)"/>
</clipPath>
<clipPath id="clip5_2192_73124">
<rect width="16" height="16" fill="white" transform="translate(56 215.5)"/>
</clipPath>
<clipPath id="clip6_2192_73124">
<rect width="18" height="18" fill="white" transform="translate(131 214.5)"/>
</clipPath>
<clipPath id="clip7_2192_73124">
<rect width="16" height="16" fill="white" transform="translate(224 215.5)"/>
</clipPath>
<clipPath id="clip8_2192_73124">
<rect width="18" height="18" fill="white" transform="translate(299 214.5)"/>
</clipPath>
<clipPath id="clip9_2192_73124">
<rect width="16" height="16" fill="white" transform="translate(392 215.5)"/>
</clipPath>
<clipPath id="clip10_2192_73124">
<rect width="18" height="18" fill="white" transform="translate(467 214.5)"/>
</clipPath>
<clipPath id="clip11_2192_73124">
<rect width="16" height="16" fill="white" transform="translate(560 215.5)"/>
</clipPath>
<clipPath id="clip12_2192_73124">
<rect width="18" height="18" fill="white" transform="translate(635 214.5)"/>
</clipPath>
<clipPath id="clip13_2192_73124">
<rect width="18" height="18" fill="white" transform="translate(115 158.5)"/>
</clipPath>
<clipPath id="clip14_2192_73124">
<rect width="18" height="18" fill="white" transform="translate(283 158.5)"/>
</clipPath>
<clipPath id="clip15_2192_73124">
<rect width="18" height="18" fill="white" transform="translate(451 158.5)"/>
</clipPath>
<clipPath id="clip16_2192_73124">
<rect width="18" height="18" fill="white" transform="translate(619 158.5)"/>
</clipPath>
</defs>
</svg>
