<svg width="138" height="137" viewBox="0 0 138 137" fill="none" xmlns="http://www.w3.org/2000/svg">
<path d="M116.49 47.5193C119.315 53.6828 120.884 60.3362 121.109 67.0995C121.333 73.8628 120.208 80.6036 117.799 86.9371C115.389 93.2706 111.741 99.0727 107.064 104.012C102.387 108.951 96.7715 112.931 90.5389 115.725C84.3062 118.518 77.5783 120.07 70.7391 120.292C63.8999 120.514 57.0835 119.402 50.679 117.019C44.2745 114.636 38.4073 111.029 33.4125 106.404C28.4177 101.778 24.393 96.2253 21.5683 90.0618L69.0291 68.7905L116.49 47.5193Z" fill="#EF8435"/>
<mask id="path-2-inside-1_2197_74828" fill="white">
<path d="M111.549 46.4386C114.21 52.243 115.688 58.5088 115.899 64.8782C116.11 71.2475 115.051 77.5957 112.782 83.5602C110.513 89.5247 107.077 94.9888 102.673 99.6405C98.2678 104.292 92.9797 108.04 87.1101 110.671C81.2405 113.302 74.9045 114.763 68.4637 114.972C62.0229 115.182 55.6036 114.134 49.5721 111.89C43.5407 109.646 38.0153 106.249 33.3115 101.893C28.6076 97.5368 24.8174 92.3073 22.1573 86.5028L66.8533 66.4707L111.549 46.4386Z"/>
</mask>
<path d="M111.549 46.4386C114.21 52.243 115.688 58.5088 115.899 64.8782C116.11 71.2475 115.051 77.5957 112.782 83.5602C110.513 89.5247 107.077 94.9888 102.673 99.6405C98.2678 104.292 92.9797 108.04 87.1101 110.671C81.2405 113.302 74.9045 114.763 68.4637 114.972C62.0229 115.182 55.6036 114.134 49.5721 111.89C43.5407 109.646 38.0153 106.249 33.3115 101.893C28.6076 97.5368 24.8174 92.3073 22.1573 86.5028L66.8533 66.4707L111.549 46.4386Z" stroke="white" stroke-width="2.00368" mask="url(#path-2-inside-1_2197_74828)"/>
<path d="M45.3117 84.9208C51.7691 99.0108 68.5578 105.262 82.8141 98.8722C97.0704 92.4827 103.384 75.8777 96.9268 61.7876C90.4694 47.6976 73.6808 41.4467 59.4245 47.8362C45.1682 54.2257 38.8543 70.8307 45.3117 84.9208Z" fill="#5C2860" stroke="white" stroke-width="1.00184"/>
</svg>
