<svg width="138" height="137" viewBox="0 0 138 137" fill="none" xmlns="http://www.w3.org/2000/svg">
<path d="M116.49 47.5201C119.315 53.6836 120.884 60.3368 121.109 67.1001C121.333 73.8634 120.208 80.6041 117.799 86.9375C115.389 93.271 111.741 99.073 107.064 104.012C102.387 108.952 96.7715 112.932 90.5389 115.725C84.3062 118.518 77.5783 120.07 70.7391 120.293C63.8999 120.515 57.0835 119.402 50.679 117.019C44.2745 114.636 38.4073 111.029 33.4125 106.404C28.4177 101.779 24.393 96.2256 21.5683 90.0622L69.0291 68.7911L116.49 47.5201Z" fill="#5C2860"/>
<mask id="path-2-inside-1_2197_74856" fill="white">
<path d="M111.549 46.4393C114.21 52.2437 115.688 58.5095 115.899 64.8787C116.11 71.248 115.051 77.5961 112.782 83.5606C110.513 89.5251 107.077 94.9891 102.673 99.6408C98.2678 104.292 92.9797 108.041 87.1101 110.671C81.2405 113.302 74.9045 114.763 68.4637 114.973C62.0229 115.182 55.6036 114.134 49.5721 111.89C43.5407 109.646 38.0153 106.249 33.3115 101.893C28.6076 97.5371 24.8174 92.3076 22.1573 86.5032L66.8533 66.4713L111.549 46.4393Z"/>
</mask>
<path d="M111.549 46.4393C114.21 52.2437 115.688 58.5095 115.899 64.8787C116.11 71.248 115.051 77.5961 112.782 83.5606C110.513 89.5251 107.077 94.9891 102.673 99.6408C98.2678 104.292 92.9797 108.041 87.1101 110.671C81.2405 113.302 74.9045 114.763 68.4637 114.973C62.0229 115.182 55.6036 114.134 49.5721 111.89C43.5407 109.646 38.0153 106.249 33.3115 101.893C28.6076 97.5371 24.8174 92.3076 22.1573 86.5032L66.8533 66.4713L111.549 46.4393Z" stroke="white" stroke-width="2.00368" mask="url(#path-2-inside-1_2197_74856)"/>
<ellipse cx="36.8149" cy="36.545" rx="36.8149" ry="36.545" transform="matrix(-0.912541 0.408984 0.41663 0.909076 83.4023 14.5781)" fill="#4AA35C"/>
</svg>
