<svg width="138" height="137" viewBox="0 0 138 137" fill="none" xmlns="http://www.w3.org/2000/svg">
<path d="M116.49 47.5162C119.315 53.6796 120.884 60.3329 121.109 67.0962C121.333 73.8594 120.208 80.6002 117.799 86.9336C115.389 93.2671 111.741 99.0691 107.064 104.008C102.387 108.948 96.7715 112.928 90.5389 115.721C84.3062 118.515 77.5783 120.067 70.7391 120.289C63.8999 120.511 57.0835 119.398 50.679 117.015C44.2745 114.632 38.4073 111.025 33.4125 106.4C28.4177 101.775 24.393 96.2217 21.5683 90.0583L69.0291 68.7872L116.49 47.5162Z" fill="#EF8435"/>
<mask id="path-2-inside-1_2197_74841" fill="white">
<path d="M111.549 46.4354C114.21 52.2398 115.688 58.5056 115.899 64.8748C116.11 71.2441 115.051 77.5922 112.782 83.5567C110.513 89.5212 107.077 94.9852 102.673 99.6369C98.2678 104.289 92.9797 108.037 87.1101 110.667C81.2405 113.298 74.9045 114.76 68.4637 114.969C62.0229 115.178 55.6036 114.13 49.5721 111.886C43.5407 109.642 38.0153 106.245 33.3115 101.889C28.6076 97.5332 24.8174 92.3037 22.1573 86.4993L66.8533 66.4674L111.549 46.4354Z"/>
</mask>
<path d="M111.549 46.4354C114.21 52.2398 115.688 58.5056 115.899 64.8748C116.11 71.2441 115.051 77.5922 112.782 83.5567C110.513 89.5212 107.077 94.9852 102.673 99.6369C98.2678 104.289 92.9797 108.037 87.1101 110.667C81.2405 113.298 74.9045 114.76 68.4637 114.969C62.0229 115.178 55.6036 114.13 49.5721 111.886C43.5407 109.642 38.0153 106.245 33.3115 101.889C28.6076 97.5332 24.8174 92.3037 22.1573 86.4993L66.8533 66.4674L111.549 46.4354Z" stroke="white" stroke-width="2.00368" mask="url(#path-2-inside-1_2197_74841)"/>
<ellipse cx="28.7818" cy="28.5705" rx="28.7818" ry="28.5705" transform="matrix(-0.912541 0.408984 0.41663 0.909076 85.4805 35.6016)" fill="#5C2860"/>
</svg>
