<svg width="58" height="53" viewBox="0 0 58 53" fill="none" xmlns="http://www.w3.org/2000/svg">
<path d="M57.716 2.58599L56.246 12.778C53.2407 12.5167 50.856 13.0393 49.092 14.346C47.328 15.5873 46.1193 17.384 45.466 19.736C44.878 22.0227 44.78 24.636 45.172 27.576H57.716V52.762H33.51V26.596C33.51 18.0373 35.5353 11.5693 39.586 7.192C43.6367 2.74933 49.68 1.21399 57.716 2.58599ZM24.886 2.58599L23.416 12.778C20.4107 12.5167 18.026 13.0393 16.262 14.346C14.498 15.5873 13.2893 17.384 12.636 19.736C12.048 22.0227 11.95 24.636 12.342 27.576H24.886V52.762H0.680001V26.596C0.680001 18.0373 2.70533 11.5693 6.756 7.192C10.8067 2.74933 16.85 1.21399 24.886 2.58599Z" fill="#EBE8E5"/>
</svg>
