<svg width="46" height="45" viewBox="0 0 46 45" fill="none" xmlns="http://www.w3.org/2000/svg">
<path d="M43.8386 22.7976C43.8386 34.0785 34.5666 43.2571 23.0873 43.2571C11.6079 43.2571 2.33594 34.0785 2.33594 22.7976C2.33594 11.5167 11.6079 2.33807 23.0873 2.33807C34.5666 2.33807 43.8386 11.5167 43.8386 22.7976Z" stroke="#EF8435" stroke-width="3"/>
<g clip-path="url(#clip0_2113_59687)">
<path d="M27.1438 25.1942C27.359 25.1942 27.5653 25.2786 27.7175 25.4287C27.8696 25.5789 27.9551 25.7825 27.9551 25.9948C27.9551 26.2072 27.8696 26.4108 27.7175 26.5609C27.5653 26.7111 27.359 26.7954 27.1438 26.7954L19.0314 26.7954C18.8162 26.7954 18.6099 26.7111 18.4577 26.5609C18.3056 26.4108 18.2201 26.2072 18.2201 25.9948C18.2201 25.7825 18.3056 25.5789 18.4577 25.4287C18.6099 25.2786 18.8162 25.1942 19.0314 25.1942L27.1438 25.1942ZM27.1438 18.7894C27.359 18.7894 27.5653 18.8737 27.7175 19.0239C27.8696 19.174 27.9551 19.3776 27.9551 19.59C27.9551 19.8023 27.8696 20.0059 27.7175 20.1561C27.5653 20.3062 27.359 20.3906 27.1438 20.3906L19.0314 20.3906C18.8162 20.3906 18.6099 20.3062 18.4577 20.1561C18.3056 20.0059 18.2201 19.8023 18.2201 19.59C18.2201 19.3776 18.3056 19.174 18.4577 19.0239C18.6099 18.8737 18.8162 18.7894 19.0314 18.7894L27.1438 18.7894Z" fill="#EF8435"/>
</g>
<defs>
<clipPath id="clip0_2113_59687">
<rect width="19.2146" height="19.4699" fill="white" transform="translate(32.8223 13.1903) rotate(90)"/>
</clipPath>
</defs>
</svg>
