<svg width="297" height="210" viewBox="0 0 297 210" fill="none" xmlns="http://www.w3.org/2000/svg">
<rect x="1.125" y="0.5" width="295" height="209" rx="7.5" fill="#111111"/>
<rect x="26" y="24" width="32" height="32" rx="16" fill="#EF8435"/>
<path fill-rule="evenodd" clip-rule="evenodd" d="M49 39H43V33C43 32.4477 42.5523 32 42 32C41.4477 32 41 32.4477 41 33V39H35C34.4477 39 34 39.4477 34 40C34 40.5523 34.4477 41 35 41H41V47C41 47.5523 41.4477 48 42 48C42.5523 48 43 47.5523 43 47V41H49C49.5523 41 50 40.5523 50 40C50 39.4477 49.5523 39 49 39Z" fill="white"/>
<rect x="98" y="24" width="32" height="32" rx="16" fill="#D77730"/>
<path fill-rule="evenodd" clip-rule="evenodd" d="M121 39H115V33C115 32.4477 114.552 32 114 32C113.448 32 113 32.4477 113 33V39H107C106.448 39 106 39.4477 106 40C106 40.5523 106.448 41 107 41H113V47C113 47.5523 113.448 48 114 48C114.552 48 115 47.5523 115 47V41H121C121.552 41 122 40.5523 122 40C122 39.4477 121.552 39 121 39Z" fill="white"/>
<rect x="170" y="24" width="32" height="32" rx="16" fill="#FAD9C0"/>
<path fill-rule="evenodd" clip-rule="evenodd" d="M193 39H187V33C187 32.4477 186.552 32 186 32C185.448 32 185 32.4477 185 33V39H179C178.448 39 178 39.4477 178 40C178 40.5523 178.448 41 179 41H185V47C185 47.5523 185.448 48 186 48C186.552 48 187 47.5523 187 47V41H193C193.552 41 194 40.5523 194 40C194 39.4477 193.552 39 193 39Z" fill="white"/>
<rect x="242" y="24" width="32" height="32" rx="16" fill="#BF6A2A"/>
<path fill-rule="evenodd" clip-rule="evenodd" d="M265 39H259V33C259 32.4477 258.552 32 258 32C257.448 32 257 32.4477 257 33V39H251C250.448 39 250 39.4477 250 40C250 40.5523 250.448 41 251 41H257V47C257 47.5523 257.448 48 258 48C258.552 48 259 47.5523 259 47V41H265C265.552 41 266 40.5523 266 40C266 39.4477 265.552 39 265 39Z" fill="white"/>
<rect x="25" y="96" width="34" height="34" rx="17" fill="#EF8435"/>
<path fill-rule="evenodd" clip-rule="evenodd" d="M49 112H43V106C43 105.448 42.5523 105 42 105C41.4477 105 41 105.448 41 106V112H35C34.4477 112 34 112.448 34 113C34 113.552 34.4477 114 35 114H41V120C41 120.552 41.4477 121 42 121C42.5523 121 43 120.552 43 120V114H49C49.5523 114 50 113.552 50 113C50 112.448 49.5523 112 49 112Z" fill="white"/>
<rect x="25" y="96" width="34" height="34" rx="17" stroke="#B36328" stroke-width="2"/>
<path fill-rule="evenodd" clip-rule="evenodd" d="M49 178H43V172C43 171.448 42.5523 171 42 171C41.4477 171 41 171.448 41 172V178H35C34.4477 178 34 178.448 34 179C34 179.552 34.4477 180 35 180H41V186C41 186.552 41.4477 187 42 187C42.5523 187 43 186.552 43 186V180H49C49.5523 180 50 179.552 50 179C50 178.448 49.5523 178 49 178Z" fill="#EF8435"/>
<rect x="26.5" y="163.5" width="31" height="31" rx="15.5" stroke="#BF6A2A"/>
<path fill-rule="evenodd" clip-rule="evenodd" d="M121 174H115V168C115 167.448 114.552 167 114 167C113.448 167 113 167.448 113 168V174H107C106.448 174 106 174.448 106 175C106 175.552 106.448 176 107 176H113V182C113 182.552 113.448 183 114 183C114.552 183 115 182.552 115 182V176H121C121.552 176 122 175.552 122 175C122 174.448 121.552 174 121 174Z" fill="#EF8435"/>
<rect x="97" y="158" width="34" height="34" rx="17" stroke="#B36328" stroke-width="2"/>
<path fill-rule="evenodd" clip-rule="evenodd" d="M125 112H119V106C119 105.448 118.552 105 118 105C117.448 105 117 105.448 117 106V112H111C110.448 112 110 112.448 110 113C110 113.552 110.448 114 111 114H117V120C117 120.552 117.448 121 118 121C118.552 121 119 120.552 119 120V114H125C125.552 114 126 113.552 126 113C126 112.448 125.552 112 125 112Z" fill="#EF8435"/>
<rect x="102.5" y="97.5" width="31" height="31" rx="15.5" stroke="#EF8435"/>
<path fill-rule="evenodd" clip-rule="evenodd" d="M197 112H191V106C191 105.448 190.552 105 190 105C189.448 105 189 105.448 189 106V112H183C182.448 112 182 112.448 182 113C182 113.552 182.448 114 183 114H189V120C189 120.552 189.448 121 190 121C190.552 121 191 120.552 191 120V114H197C197.552 114 198 113.552 198 113C198 112.448 197.552 112 197 112Z" fill="#D77730"/>
<rect x="174.5" y="97.5" width="31" height="31" rx="15.5" stroke="#D77730"/>
<path fill-rule="evenodd" clip-rule="evenodd" d="M261 112H255V106C255 105.448 254.552 105 254 105C253.448 105 253 105.448 253 106V112H247C246.448 112 246 112.448 246 113C246 113.552 246.448 114 247 114H253V120C253 120.552 253.448 121 254 121C254.552 121 255 120.552 255 120V114H261C261.552 114 262 113.552 262 113C262 112.448 261.552 112 261 112Z" fill="#FAD9C0"/>
<rect x="238.5" y="97.5" width="31" height="31" rx="15.5" stroke="#FAD9C0"/>
<rect x="1.125" y="0.5" width="295" height="209" rx="7.5" stroke="#333333"/>
</svg>
