<svg width="296" height="210" viewBox="0 0 296 210" fill="none" xmlns="http://www.w3.org/2000/svg">
<g clip-path="url(#clip0_2192_71028)">
<rect width="296" height="210" rx="8" fill="#111111"/>
<rect x="31" y="45" width="125" height="31" rx="4" fill="#EF8435"/>
<g clip-path="url(#clip1_2192_71028)">
<path fill-rule="evenodd" clip-rule="evenodd" d="M59.6641 59.8327H55.6641V55.8327C55.6641 55.4645 55.3656 55.166 54.9974 55.166C54.6292 55.166 54.3307 55.4645 54.3307 55.8327V59.8327H50.3307C49.9625 59.8327 49.6641 60.1312 49.6641 60.4993C49.6641 60.8675 49.9625 61.166 50.3307 61.166H54.3307V65.166C54.3307 65.5342 54.6292 65.8327 54.9974 65.8327C55.3656 65.8327 55.6641 65.5342 55.6641 65.166V61.166H59.6641C60.0323 61.166 60.3307 60.8675 60.3307 60.4993C60.3307 60.1312 60.0323 59.8327 59.6641 59.8327Z" fill="white"/>
</g>
<rect x="47.5" y="53" width="15" height="15" stroke="white"/>
<path d="M69.8849 66V55.8182H73.9616C74.7107 55.8182 75.3355 55.9292 75.8359 56.1513C76.3364 56.3733 76.7126 56.6816 76.9645 57.076C77.2164 57.4671 77.3423 57.9179 77.3423 58.4283C77.3423 58.826 77.2628 59.1757 77.1037 59.4773C76.9446 59.7756 76.7259 60.0208 76.4474 60.2131C76.1723 60.402 75.8575 60.5362 75.5028 60.6158V60.7152C75.8906 60.7318 76.2536 60.8411 76.5916 61.0433C76.933 61.2455 77.2098 61.5289 77.4219 61.8935C77.634 62.2547 77.7401 62.6856 77.7401 63.1861C77.7401 63.7263 77.6058 64.2086 77.3374 64.6328C77.0722 65.0537 76.6795 65.3868 76.1591 65.6321C75.6387 65.8774 74.9974 66 74.2351 66H69.8849ZM72.0376 64.2401H73.7926C74.3925 64.2401 74.83 64.1257 75.1051 63.897C75.3802 63.665 75.5178 63.3568 75.5178 62.9723C75.5178 62.6906 75.4498 62.442 75.3139 62.2266C75.178 62.0111 74.9841 61.8421 74.7322 61.7195C74.4837 61.5968 74.187 61.5355 73.8423 61.5355H72.0376V64.2401ZM72.0376 60.0788H73.6335C73.9285 60.0788 74.1903 60.0275 74.419 59.9247C74.651 59.8187 74.8333 59.6695 74.9659 59.4773C75.1018 59.285 75.1697 59.0547 75.1697 58.7862C75.1697 58.4183 75.0388 58.1217 74.777 57.8963C74.5185 57.6709 74.1506 57.5582 73.6733 57.5582H72.0376V60.0788ZM83.998 62.7486V58.3636H86.1159V66H84.0826V64.6129H84.003C83.8307 65.0604 83.544 65.42 83.1429 65.6918C82.7452 65.9635 82.2596 66.0994 81.6863 66.0994C81.1758 66.0994 80.7267 65.9834 80.339 65.7514C79.9512 65.5194 79.6479 65.1896 79.4292 64.7621C79.2137 64.3345 79.1043 63.8224 79.101 63.2259V58.3636H81.2189V62.848C81.2222 63.2988 81.3432 63.6551 81.5819 63.9169C81.8205 64.1787 82.1403 64.3097 82.5414 64.3097C82.7966 64.3097 83.0352 64.2517 83.2573 64.1357C83.4793 64.0163 83.6583 63.8407 83.7942 63.6087C83.9334 63.3767 84.0014 63.09 83.998 62.7486ZM91.8718 58.3636V59.9545H87.2731V58.3636H91.8718ZM88.3171 56.5341H90.435V63.6534C90.435 63.849 90.4648 64.0014 90.5245 64.1108C90.5842 64.2169 90.667 64.2914 90.7731 64.3345C90.8825 64.3776 91.0084 64.3991 91.1509 64.3991C91.2504 64.3991 91.3498 64.3909 91.4492 64.3743C91.5487 64.3544 91.6249 64.3395 91.6779 64.3295L92.011 65.9055C91.9049 65.9387 91.7558 65.9768 91.5636 66.0199C91.3713 66.0663 91.1377 66.0945 90.8626 66.1044C90.3522 66.1243 89.9047 66.0563 89.5202 65.9006C89.1391 65.7448 88.8424 65.5028 88.6303 65.1747C88.4182 64.8466 88.3138 64.4323 88.3171 63.9318V56.5341ZM97.3132 58.3636V59.9545H92.7145V58.3636H97.3132ZM93.7585 56.5341H95.8764V63.6534C95.8764 63.849 95.9063 64.0014 95.9659 64.1108C96.0256 64.2169 96.1084 64.2914 96.2145 64.3345C96.3239 64.3776 96.4498 64.3991 96.5923 64.3991C96.6918 64.3991 96.7912 64.3909 96.8906 64.3743C96.9901 64.3544 97.0663 64.3395 97.1193 64.3295L97.4524 65.9055C97.3464 65.9387 97.1972 65.9768 97.005 66.0199C96.8127 66.0663 96.5791 66.0945 96.304 66.1044C95.7936 66.1243 95.3461 66.0563 94.9616 65.9006C94.5805 65.7448 94.2839 65.5028 94.0717 65.1747C93.8596 64.8466 93.7552 64.4323 93.7585 63.9318V56.5341ZM102.061 66.1491C101.289 66.1491 100.621 65.9851 100.058 65.657C99.4974 65.3255 99.0649 64.8648 98.7599 64.2749C98.455 63.6816 98.3026 62.9938 98.3026 62.2116C98.3026 61.4228 98.455 60.7334 98.7599 60.1435C99.0649 59.5502 99.4974 59.0895 100.058 58.7614C100.621 58.4299 101.289 58.2642 102.061 58.2642C102.833 58.2642 103.5 58.4299 104.06 58.7614C104.623 59.0895 105.057 59.5502 105.362 60.1435C105.667 60.7334 105.82 61.4228 105.82 62.2116C105.82 62.9938 105.667 63.6816 105.362 64.2749C105.057 64.8648 104.623 65.3255 104.06 65.657C103.5 65.9851 102.833 66.1491 102.061 66.1491ZM102.071 64.5085C102.422 64.5085 102.716 64.4091 102.951 64.2102C103.186 64.008 103.364 63.733 103.483 63.3849C103.606 63.0369 103.667 62.6409 103.667 62.1967C103.667 61.7526 103.606 61.3565 103.483 61.0085C103.364 60.6605 103.186 60.3854 102.951 60.1832C102.716 59.9811 102.422 59.88 102.071 59.88C101.716 59.88 101.418 59.9811 101.176 60.1832C100.938 60.3854 100.757 60.6605 100.634 61.0085C100.515 61.3565 100.455 61.7526 100.455 62.1967C100.455 62.6409 100.515 63.0369 100.634 63.3849C100.757 63.733 100.938 64.008 101.176 64.2102C101.418 64.4091 101.716 64.5085 102.071 64.5085ZM109.315 61.5852V66H107.197V58.3636H109.215V59.7109H109.305C109.474 59.2668 109.757 58.9155 110.155 58.657C110.553 58.3951 111.035 58.2642 111.602 58.2642C112.132 58.2642 112.594 58.3802 112.989 58.6122C113.383 58.8442 113.69 59.1757 113.908 59.6065C114.127 60.0341 114.237 60.5445 114.237 61.1378V66H112.119V61.5156C112.122 61.0483 112.003 60.6837 111.761 60.4219C111.519 60.1567 111.186 60.0241 110.761 60.0241C110.476 60.0241 110.224 60.0855 110.006 60.2081C109.79 60.3307 109.621 60.5097 109.499 60.745C109.379 60.977 109.318 61.2571 109.315 61.5852Z" fill="white"/>
<g clip-path="url(#clip2_2192_71028)">
<path fill-rule="evenodd" clip-rule="evenodd" d="M129.396 64.9997C129.188 64.999 128.99 64.9121 128.848 64.7597L125.203 60.8822H125.203C124.92 60.5798 124.935 60.1047 125.237 59.821C125.539 59.5372 126.015 59.5523 126.298 59.8547L129.388 63.1472L135.696 56.2472V56.2472C135.955 55.9243 136.427 55.8727 136.75 56.132C137.073 56.3914 137.125 56.8635 136.865 57.1864C136.847 57.2095 136.827 57.2315 136.806 57.2522L129.951 64.7522C129.811 64.9074 129.612 64.9971 129.403 64.9997L129.396 64.9997Z" fill="white"/>
</g>
<rect x="172" y="44" width="133" height="33" rx="4" fill="#EF8435"/>
<path fill-rule="evenodd" clip-rule="evenodd" d="M202.25 59.75H197.75V55.25C197.75 54.8358 197.414 54.5 197 54.5C196.586 54.5 196.25 54.8358 196.25 55.25V59.75H191.75C191.336 59.75 191 60.0858 191 60.5C191 60.9142 191.336 61.25 191.75 61.25H196.25V65.75C196.25 66.1642 196.586 66.5 197 66.5C197.414 66.5 197.75 66.1642 197.75 65.75V61.25H202.25C202.664 61.25 203 60.9142 203 60.5C203 60.0858 202.664 59.75 202.25 59.75Z" fill="white"/>
<path d="M213.011 66V54.3636H217.67C218.527 54.3636 219.241 54.4905 219.812 54.7443C220.384 54.9981 220.814 55.3504 221.102 55.8011C221.39 56.2481 221.534 56.7633 221.534 57.3466C221.534 57.8011 221.443 58.2008 221.261 58.5455C221.08 58.8864 220.83 59.1667 220.511 59.3864C220.197 59.6023 219.837 59.7557 219.432 59.8466V59.9602C219.875 59.9792 220.29 60.1042 220.676 60.3352C221.066 60.5663 221.383 60.8902 221.625 61.3068C221.867 61.7197 221.989 62.2121 221.989 62.7841C221.989 63.4015 221.835 63.9527 221.528 64.4375C221.225 64.9186 220.777 65.2992 220.182 65.5795C219.587 65.8598 218.854 66 217.983 66H213.011ZM215.472 63.9886H217.477C218.163 63.9886 218.663 63.858 218.977 63.5966C219.292 63.3314 219.449 62.9792 219.449 62.5398C219.449 62.2178 219.371 61.9337 219.216 61.6875C219.061 61.4413 218.839 61.2481 218.551 61.108C218.267 60.9678 217.928 60.8977 217.534 60.8977H215.472V63.9886ZM215.472 59.233H217.295C217.633 59.233 217.932 59.1742 218.193 59.0568C218.458 58.9356 218.667 58.7652 218.818 58.5455C218.973 58.3258 219.051 58.0625 219.051 57.7557C219.051 57.3352 218.902 56.9962 218.602 56.7386C218.307 56.4811 217.886 56.3523 217.341 56.3523H215.472V59.233ZM229.141 62.2841V57.2727H231.561V66H229.237V64.4148H229.146C228.949 64.9261 228.622 65.3371 228.163 65.6477C227.709 65.9583 227.154 66.1136 226.499 66.1136C225.915 66.1136 225.402 65.9811 224.959 65.7159C224.516 65.4508 224.169 65.0739 223.919 64.5852C223.673 64.0966 223.548 63.5114 223.544 62.8295V57.2727H225.964V62.3977C225.968 62.9129 226.107 63.3201 226.379 63.6193C226.652 63.9186 227.018 64.0682 227.476 64.0682C227.768 64.0682 228.04 64.0019 228.294 63.8693C228.548 63.733 228.752 63.5322 228.908 63.267C229.067 63.0019 229.144 62.6742 229.141 62.2841ZM238.139 57.2727V59.0909H232.884V57.2727H238.139ZM234.077 55.1818H236.497V63.3182C236.497 63.5417 236.531 63.7159 236.599 63.8409C236.668 63.9621 236.762 64.0473 236.884 64.0966C237.009 64.1458 237.152 64.1705 237.315 64.1705C237.429 64.1705 237.543 64.161 237.656 64.142C237.77 64.1193 237.857 64.1023 237.918 64.0909L238.298 65.892C238.177 65.9299 238.007 65.9735 237.787 66.0227C237.567 66.0758 237.3 66.108 236.986 66.1193C236.402 66.142 235.891 66.0644 235.452 65.8864C235.016 65.7083 234.677 65.4318 234.435 65.0568C234.192 64.6818 234.073 64.2083 234.077 63.6364V55.1818ZM244.358 57.2727V59.0909H239.102V57.2727H244.358ZM240.295 55.1818H242.716V63.3182C242.716 63.5417 242.75 63.7159 242.818 63.8409C242.886 63.9621 242.981 64.0473 243.102 64.0966C243.227 64.1458 243.371 64.1705 243.534 64.1705C243.648 64.1705 243.761 64.161 243.875 64.142C243.989 64.1193 244.076 64.1023 244.136 64.0909L244.517 65.892C244.396 65.9299 244.225 65.9735 244.006 66.0227C243.786 66.0758 243.519 66.108 243.205 66.1193C242.621 66.142 242.11 66.0644 241.67 65.8864C241.235 65.7083 240.896 65.4318 240.653 65.0568C240.411 64.6818 240.292 64.2083 240.295 63.6364V55.1818ZM249.784 66.1705C248.902 66.1705 248.138 65.983 247.494 65.608C246.854 65.2292 246.36 64.7027 246.011 64.0284C245.663 63.3504 245.489 62.5644 245.489 61.6705C245.489 60.7689 245.663 59.9811 246.011 59.3068C246.36 58.6288 246.854 58.1023 247.494 57.7273C248.138 57.3485 248.902 57.1591 249.784 57.1591C250.667 57.1591 251.428 57.3485 252.068 57.7273C252.712 58.1023 253.208 58.6288 253.557 59.3068C253.905 59.9811 254.08 60.7689 254.08 61.6705C254.08 62.5644 253.905 63.3504 253.557 64.0284C253.208 64.7027 252.712 65.2292 252.068 65.608C251.428 65.983 250.667 66.1705 249.784 66.1705ZM249.795 64.2955C250.197 64.2955 250.532 64.1818 250.801 63.9545C251.07 63.7235 251.273 63.4091 251.409 63.0114C251.549 62.6136 251.619 62.161 251.619 61.6534C251.619 61.1458 251.549 60.6932 251.409 60.2955C251.273 59.8977 251.07 59.5833 250.801 59.3523C250.532 59.1212 250.197 59.0057 249.795 59.0057C249.39 59.0057 249.049 59.1212 248.773 59.3523C248.5 59.5833 248.294 59.8977 248.153 60.2955C248.017 60.6932 247.949 61.1458 247.949 61.6534C247.949 62.161 248.017 62.6136 248.153 63.0114C248.294 63.4091 248.5 63.7235 248.773 63.9545C249.049 64.1818 249.39 64.2955 249.795 64.2955ZM258.074 60.9545V66H255.653V57.2727H257.96V58.8125H258.062C258.256 58.3049 258.58 57.9034 259.034 57.608C259.489 57.3087 260.04 57.1591 260.688 57.1591C261.294 57.1591 261.822 57.2917 262.273 57.5568C262.723 57.822 263.074 58.2008 263.324 58.6932C263.574 59.1818 263.699 59.7652 263.699 60.4432V66H261.278V60.875C261.282 60.3409 261.146 59.9242 260.869 59.625C260.593 59.322 260.212 59.1705 259.727 59.1705C259.402 59.1705 259.114 59.2405 258.864 59.3807C258.617 59.5208 258.424 59.7254 258.284 59.9943C258.148 60.2595 258.078 60.5795 258.074 60.9545Z" fill="white"/>
<g clip-path="url(#clip3_2192_71028)">
<path fill-rule="evenodd" clip-rule="evenodd" d="M278.396 64.9997C278.188 64.999 277.99 64.9121 277.848 64.7597L274.203 60.8822H274.203C273.92 60.5798 273.935 60.1047 274.237 59.821C274.539 59.5372 275.015 59.5523 275.298 59.8547L278.388 63.1472L284.696 56.2472V56.2472C284.955 55.9243 285.427 55.8727 285.75 56.132C286.073 56.3914 286.125 56.8635 285.865 57.1864C285.847 57.2095 285.827 57.2315 285.806 57.2522L278.951 64.7522C278.811 64.9074 278.612 64.9971 278.403 64.9997L278.396 64.9997Z" fill="white"/>
</g>
<rect x="85" y="119" width="154" height="44" rx="4" fill="#EF8435"/>
<path fill-rule="evenodd" clip-rule="evenodd" d="M120.836 140.167H115.836V135.167C115.836 134.707 115.463 134.334 115.003 134.334C114.542 134.334 114.169 134.707 114.169 135.167V140.167H109.169C108.709 140.167 108.336 140.54 108.336 141.001C108.336 141.461 108.709 141.834 109.169 141.834H114.169V146.834C114.169 147.294 114.542 147.667 115.003 147.667C115.463 147.667 115.836 147.294 115.836 146.834V141.834H120.836C121.296 141.834 121.669 141.461 121.669 141.001C121.669 140.54 121.296 140.167 120.836 140.167Z" fill="white"/>
<path d="M134.438 148V134.909H139.232C140.161 134.909 140.93 135.062 141.54 135.369C142.149 135.672 142.605 136.083 142.908 136.603C143.21 137.119 143.362 137.7 143.362 138.348C143.362 138.893 143.261 139.354 143.061 139.729C142.861 140.099 142.592 140.398 142.256 140.624C141.923 140.845 141.557 141.007 141.156 141.109V141.237C141.591 141.259 142.015 141.399 142.428 141.659C142.846 141.915 143.191 142.279 143.464 142.752C143.737 143.225 143.873 143.8 143.873 144.478C143.873 145.147 143.715 145.748 143.4 146.281C143.089 146.809 142.607 147.229 141.955 147.54C141.303 147.847 140.47 148 139.456 148H134.438ZM136.413 146.306H139.264C140.21 146.306 140.888 146.123 141.297 145.756C141.706 145.39 141.911 144.932 141.911 144.382C141.911 143.969 141.806 143.589 141.597 143.244C141.388 142.899 141.09 142.624 140.702 142.42C140.319 142.215 139.863 142.113 139.335 142.113H136.413V146.306ZM136.413 140.572H139.06C139.503 140.572 139.901 140.487 140.255 140.317C140.613 140.146 140.896 139.908 141.105 139.601C141.318 139.29 141.425 138.923 141.425 138.501C141.425 137.96 141.235 137.506 140.856 137.14C140.477 136.773 139.895 136.59 139.111 136.59H136.413V140.572ZM152.282 143.928V138.182H154.199V148H152.32V146.3H152.218C151.992 146.824 151.63 147.261 151.131 147.61C150.637 147.955 150.021 148.128 149.284 148.128C148.653 148.128 148.095 147.989 147.609 147.712C147.127 147.431 146.748 147.016 146.471 146.466C146.199 145.916 146.062 145.237 146.062 144.427V138.182H147.973V144.197C147.973 144.866 148.159 145.398 148.529 145.795C148.9 146.191 149.382 146.389 149.974 146.389C150.332 146.389 150.688 146.3 151.042 146.121C151.4 145.942 151.696 145.671 151.93 145.309C152.169 144.947 152.286 144.487 152.282 143.928ZM161.35 138.182V139.716H155.987V138.182H161.35ZM157.426 135.83H159.337V145.117C159.337 145.488 159.392 145.767 159.503 145.955C159.614 146.138 159.757 146.263 159.931 146.332C160.11 146.396 160.304 146.428 160.513 146.428C160.666 146.428 160.801 146.417 160.916 146.396C161.031 146.374 161.12 146.357 161.184 146.344L161.529 147.923C161.419 147.966 161.261 148.009 161.056 148.051C160.852 148.098 160.596 148.124 160.289 148.128C159.786 148.136 159.318 148.047 158.883 147.859C158.448 147.672 158.097 147.382 157.828 146.99C157.56 146.598 157.426 146.106 157.426 145.513V135.83ZM168.048 138.182V139.716H162.685V138.182H168.048ZM164.123 135.83H166.034V145.117C166.034 145.488 166.089 145.767 166.2 145.955C166.311 146.138 166.454 146.263 166.629 146.332C166.808 146.396 167.001 146.428 167.21 146.428C167.364 146.428 167.498 146.417 167.613 146.396C167.728 146.374 167.817 146.357 167.881 146.344L168.227 147.923C168.116 147.966 167.958 148.009 167.754 148.051C167.549 148.098 167.293 148.124 166.987 148.128C166.484 148.136 166.015 148.047 165.58 147.859C165.146 147.672 164.794 147.382 164.526 146.99C164.257 146.598 164.123 146.106 164.123 145.513V135.83ZM174.192 148.198C173.271 148.198 172.468 147.987 171.782 147.565C171.096 147.143 170.563 146.553 170.184 145.795C169.805 145.036 169.615 144.15 169.615 143.136C169.615 142.117 169.805 141.227 170.184 140.464C170.563 139.701 171.096 139.109 171.782 138.687C172.468 138.265 173.271 138.054 174.192 138.054C175.112 138.054 175.916 138.265 176.602 138.687C177.288 139.109 177.82 139.701 178.2 140.464C178.579 141.227 178.769 142.117 178.769 143.136C178.769 144.15 178.579 145.036 178.2 145.795C177.82 146.553 177.288 147.143 176.602 147.565C175.916 147.987 175.112 148.198 174.192 148.198ZM174.198 146.594C174.795 146.594 175.289 146.436 175.681 146.121C176.073 145.805 176.363 145.386 176.551 144.862C176.742 144.337 176.838 143.76 176.838 143.129C176.838 142.503 176.742 141.928 176.551 141.403C176.363 140.875 176.073 140.451 175.681 140.131C175.289 139.812 174.795 139.652 174.198 139.652C173.597 139.652 173.099 139.812 172.703 140.131C172.311 140.451 172.019 140.875 171.827 141.403C171.639 141.928 171.546 142.503 171.546 143.129C171.546 143.76 171.639 144.337 171.827 144.862C172.019 145.386 172.311 145.805 172.703 146.121C173.099 146.436 173.597 146.594 174.198 146.594ZM182.813 142.17V148H180.902V138.182H182.737V139.78H182.858C183.084 139.26 183.438 138.842 183.919 138.527C184.405 138.212 185.016 138.054 185.754 138.054C186.423 138.054 187.009 138.195 187.511 138.476C188.014 138.753 188.404 139.166 188.681 139.716C188.958 140.266 189.097 140.945 189.097 141.755V148H187.185V141.985C187.185 141.273 187 140.717 186.629 140.317C186.259 139.912 185.749 139.71 185.102 139.71C184.658 139.71 184.264 139.805 183.919 139.997C183.578 140.189 183.308 140.47 183.107 140.841C182.911 141.207 182.813 141.651 182.813 142.17Z" fill="white"/>
<g clip-path="url(#clip4_2192_71028)">
<path fill-rule="evenodd" clip-rule="evenodd" d="M207.22 145.999C206.989 145.999 206.769 145.902 206.612 145.733L202.562 141.424H202.562C202.247 141.088 202.263 140.561 202.599 140.245C202.935 139.93 203.463 139.947 203.778 140.283L207.212 143.941L214.22 136.274V136.274C214.508 135.916 215.033 135.858 215.392 136.146C215.751 136.435 215.808 136.959 215.52 137.318C215.499 137.344 215.477 137.368 215.453 137.391L207.837 145.724C207.681 145.897 207.461 145.997 207.228 145.999L207.22 145.999Z" fill="white"/>
</g>
</g>
<rect x="0.5" y="0.5" width="295" height="209" rx="7.5" stroke="#333333"/>
<defs>
<clipPath id="clip0_2192_71028">
<rect width="296" height="210" rx="8" fill="white"/>
</clipPath>
<clipPath id="clip1_2192_71028">
<rect x="47" y="52.5" width="16" height="16" fill="white"/>
</clipPath>
<clipPath id="clip2_2192_71028">
<rect width="18" height="18" fill="white" transform="translate(122 51.5)"/>
</clipPath>
<clipPath id="clip3_2192_71028">
<rect width="18" height="18" fill="white" transform="translate(271 51.5)"/>
</clipPath>
<clipPath id="clip4_2192_71028">
<rect width="20" height="20" fill="white" transform="translate(199 131)"/>
</clipPath>
</defs>
</svg>
