<svg width="533" height="354" viewBox="0 0 533 354" fill="none" xmlns="http://www.w3.org/2000/svg">
<g filter="url(#filter0_d_2186_65289)">
<rect x="31" y="26" width="471" height="292" rx="12" fill="#111111"/>
</g>
<ellipse cx="52.323" cy="44" rx="6.78395" ry="7" fill="#ED6A5D"/>
<ellipse cx="73.6433" cy="44" rx="6.78395" ry="7" fill="#F5C04F"/>
<ellipse cx="94.9636" cy="44" rx="6.78395" ry="7" fill="#61C654"/>
<line x1="31" y1="61.5" x2="122.099" y2="61.5" stroke="#333333"/>
<line x1="216.102" y1="61.5" x2="501.997" y2="61.5" stroke="#333333"/>
<line x1="121.602" y1="61" x2="121.602" y2="26" stroke="#333333"/>
<line x1="216.57" y1="61" x2="216.57" y2="26" stroke="#333333"/>
<path opacity="0.7" d="M136.644 56V45.92H142.713V47.607H138.331V50.12H141.873V51.8H138.331V56H136.644ZM145.813 56.21C145.267 56.21 144.805 56.1073 144.427 55.902C144.049 55.692 143.762 55.4143 143.566 55.069C143.374 54.7237 143.279 54.3433 143.279 53.928C143.279 53.564 143.339 53.2373 143.461 52.948C143.582 52.654 143.769 52.402 144.021 52.192C144.273 51.9773 144.599 51.8023 145.001 51.667C145.304 51.569 145.659 51.4803 146.065 51.401C146.475 51.3217 146.919 51.2493 147.395 51.184C147.875 51.114 148.377 51.0393 148.9 50.96L148.298 51.303C148.302 50.7803 148.186 50.3953 147.948 50.148C147.71 49.9007 147.308 49.777 146.744 49.777C146.403 49.777 146.074 49.8563 145.757 50.015C145.439 50.1737 145.218 50.4467 145.092 50.834L143.552 50.351C143.738 49.7117 144.093 49.1983 144.616 48.811C145.143 48.4237 145.852 48.23 146.744 48.23C147.416 48.23 148.006 48.3397 148.515 48.559C149.028 48.7783 149.408 49.1377 149.656 49.637C149.791 49.903 149.873 50.176 149.901 50.456C149.929 50.7313 149.943 51.0323 149.943 51.359V56H148.466V54.362L148.711 54.628C148.37 55.174 147.971 55.5753 147.514 55.832C147.061 56.084 146.494 56.21 145.813 56.21ZM146.149 54.866C146.531 54.866 146.858 54.7983 147.129 54.663C147.399 54.5277 147.614 54.362 147.773 54.166C147.936 53.97 148.046 53.7857 148.102 53.613C148.19 53.3983 148.239 53.1533 148.249 52.878C148.263 52.598 148.27 52.3717 148.27 52.199L148.788 52.353C148.279 52.4323 147.843 52.5023 147.479 52.563C147.115 52.6237 146.802 52.682 146.541 52.738C146.279 52.7893 146.048 52.8477 145.848 52.913C145.652 52.983 145.486 53.0647 145.351 53.158C145.215 53.2513 145.11 53.3587 145.036 53.48C144.966 53.6013 144.931 53.7437 144.931 53.907C144.931 54.0937 144.977 54.2593 145.071 54.404C145.164 54.544 145.299 54.656 145.477 54.74C145.659 54.824 145.883 54.866 146.149 54.866ZM154.684 56.21C153.751 56.21 152.992 56 152.409 55.58C151.826 55.16 151.471 54.5697 151.345 53.809L153.067 53.543C153.156 53.9163 153.352 54.2103 153.655 54.425C153.958 54.6397 154.341 54.747 154.803 54.747C155.209 54.747 155.522 54.6677 155.741 54.509C155.965 54.3457 156.077 54.124 156.077 53.844C156.077 53.6713 156.035 53.5337 155.951 53.431C155.872 53.3237 155.694 53.221 155.419 53.123C155.144 53.025 154.721 52.9013 154.152 52.752C153.517 52.584 153.013 52.4043 152.64 52.213C152.267 52.017 151.998 51.786 151.835 51.52C151.672 51.254 151.59 50.932 151.59 50.554C151.59 50.0827 151.714 49.672 151.961 49.322C152.208 48.972 152.554 48.7037 152.997 48.517C153.44 48.3257 153.963 48.23 154.565 48.23C155.153 48.23 155.673 48.321 156.126 48.503C156.583 48.685 156.952 48.944 157.232 49.28C157.512 49.616 157.685 50.0103 157.75 50.463L156.028 50.771C155.986 50.449 155.839 50.1947 155.587 50.008C155.34 49.8213 155.008 49.7163 154.593 49.693C154.196 49.6697 153.877 49.7303 153.634 49.875C153.391 50.015 153.27 50.2133 153.27 50.47C153.27 50.6147 153.319 50.7383 153.417 50.841C153.515 50.9437 153.711 51.0463 154.005 51.149C154.304 51.2517 154.747 51.3777 155.335 51.527C155.937 51.681 156.418 51.8583 156.777 52.059C157.141 52.255 157.402 52.4907 157.561 52.766C157.724 53.0413 157.806 53.375 157.806 53.767C157.806 54.5277 157.528 55.125 156.973 55.559C156.422 55.993 155.659 56.21 154.684 56.21ZM163.77 56C163.271 56.0933 162.781 56.133 162.3 56.119C161.824 56.1097 161.397 56.0233 161.019 55.86C160.641 55.692 160.354 55.4283 160.158 55.069C159.986 54.7423 159.895 54.4087 159.885 54.068C159.876 53.7273 159.871 53.3423 159.871 52.913V46.34H161.551V52.815C161.551 53.1183 161.554 53.3843 161.558 53.613C161.568 53.8417 161.617 54.0283 161.705 54.173C161.873 54.453 162.142 54.6093 162.51 54.642C162.879 54.6747 163.299 54.656 163.77 54.586V56ZM158.499 49.763V48.44H163.77V49.763H158.499ZM170.625 56V52.36C170.625 52.122 170.609 51.8583 170.576 51.569C170.543 51.2797 170.466 51.002 170.345 50.736C170.228 50.4653 170.051 50.2437 169.813 50.071C169.58 49.8983 169.262 49.812 168.861 49.812C168.646 49.812 168.434 49.847 168.224 49.917C168.014 49.987 167.823 50.1083 167.65 50.281C167.482 50.449 167.347 50.6823 167.244 50.981C167.141 51.275 167.09 51.653 167.09 52.115L166.089 51.688C166.089 51.044 166.213 50.4607 166.46 49.938C166.712 49.4153 167.081 49 167.566 48.692C168.051 48.3793 168.649 48.223 169.358 48.223C169.918 48.223 170.38 48.3163 170.744 48.503C171.108 48.6897 171.397 48.9277 171.612 49.217C171.827 49.5063 171.985 49.8143 172.088 50.141C172.191 50.4677 172.256 50.778 172.284 51.072C172.317 51.3613 172.333 51.597 172.333 51.779V56H170.625ZM165.382 56V48.44H166.887V50.785H167.09V56H165.382ZM174.44 56V54.271H176.169V56H174.44ZM181.695 56.21C180.915 56.21 180.25 56.0373 179.7 55.692C179.149 55.342 178.727 54.866 178.433 54.264C178.143 53.662 177.996 52.9807 177.992 52.22C177.996 51.4453 178.148 50.7593 178.447 50.162C178.75 49.56 179.179 49.0887 179.735 48.748C180.29 48.4027 180.95 48.23 181.716 48.23C182.574 48.23 183.3 48.447 183.893 48.881C184.49 49.3103 184.88 49.8983 185.062 50.645L183.382 51.1C183.251 50.694 183.034 50.379 182.731 50.155C182.427 49.9263 182.082 49.812 181.695 49.812C181.256 49.812 180.894 49.917 180.61 50.127C180.325 50.3323 180.115 50.617 179.98 50.981C179.844 51.345 179.777 51.758 179.777 52.22C179.777 52.9387 179.938 53.5197 180.26 53.963C180.582 54.4063 181.06 54.628 181.695 54.628C182.143 54.628 182.495 54.5253 182.752 54.32C183.013 54.1147 183.209 53.8183 183.34 53.431L185.062 53.816C184.828 54.586 184.42 55.1787 183.837 55.594C183.253 56.0047 182.539 56.21 181.695 56.21ZM189.598 56.21C188.842 56.21 188.182 56.0397 187.617 55.699C187.053 55.3583 186.614 54.8893 186.301 54.292C185.993 53.69 185.839 52.9993 185.839 52.22C185.839 51.4267 185.998 50.7313 186.315 50.134C186.633 49.5367 187.074 49.07 187.638 48.734C188.203 48.398 188.856 48.23 189.598 48.23C190.359 48.23 191.022 48.4003 191.586 48.741C192.151 49.0817 192.59 49.553 192.902 50.155C193.215 50.7523 193.371 51.4407 193.371 52.22C193.371 53.004 193.213 53.697 192.895 54.299C192.583 54.8963 192.144 55.3653 191.579 55.706C191.015 56.042 190.354 56.21 189.598 56.21ZM189.598 54.628C190.27 54.628 190.77 54.404 191.096 53.956C191.423 53.508 191.586 52.9293 191.586 52.22C191.586 51.4873 191.421 50.904 191.089 50.47C190.758 50.0313 190.261 49.812 189.598 49.812C189.146 49.812 188.772 49.9147 188.478 50.12C188.189 50.3207 187.974 50.603 187.834 50.967C187.694 51.3263 187.624 51.744 187.624 52.22C187.624 52.9527 187.79 53.5383 188.121 53.977C188.457 54.411 188.95 54.628 189.598 54.628ZM203.993 56V51.408C203.993 50.89 203.864 50.4863 203.608 50.197C203.351 49.903 203.003 49.756 202.565 49.756C202.294 49.756 202.051 49.819 201.837 49.945C201.622 50.0663 201.452 50.2483 201.326 50.491C201.2 50.729 201.137 51.0137 201.137 51.345L200.388 50.904C200.383 50.3813 200.5 49.9217 200.738 49.525C200.98 49.1237 201.307 48.811 201.718 48.587C202.128 48.363 202.586 48.251 203.09 48.251C203.925 48.251 204.564 48.503 205.008 49.007C205.456 49.5063 205.68 50.1643 205.68 50.981V56H203.993ZM194.9 56V48.44H196.391V50.785H196.601V56H194.9ZM199.457 56V51.429C199.457 50.9017 199.328 50.491 199.072 50.197C198.815 49.903 198.465 49.756 198.022 49.756C197.592 49.756 197.247 49.903 196.986 50.197C196.729 50.491 196.601 50.8737 196.601 51.345L195.845 50.841C195.845 50.351 195.966 49.91 196.209 49.518C196.451 49.126 196.778 48.818 197.189 48.594C197.604 48.3653 198.068 48.251 198.582 48.251C199.146 48.251 199.618 48.3723 199.996 48.615C200.378 48.853 200.663 49.1797 200.85 49.595C201.041 50.0057 201.137 50.47 201.137 50.988V56H199.457Z" fill="white"/>
<path d="M53.7243 121.816V120.304H61.7163V121.816H53.7243ZM64.5173 121.816V120.304H72.5093V121.816H64.5173ZM90.0452 127V119.8H86.2112V118.162H92.1152V127H90.0452ZM90.9272 116.542C90.5072 116.542 90.1532 116.416 89.8652 116.164C89.5892 115.912 89.4512 115.576 89.4512 115.156C89.4512 114.736 89.5892 114.4 89.8652 114.148C90.1532 113.884 90.5072 113.752 90.9272 113.752C91.3592 113.752 91.7132 113.884 91.9892 114.148C92.2652 114.4 92.4032 114.736 92.4032 115.156C92.4032 115.576 92.2652 115.912 91.9892 116.164C91.7132 116.416 91.3592 116.542 90.9272 116.542ZM96.3202 127V118.162H97.9222L98.0842 119.278H98.1382C98.3302 118.894 98.5762 118.576 98.8762 118.324C99.1762 118.072 99.5842 117.946 100.1 117.946C100.508 117.946 100.85 118.072 101.126 118.324C101.402 118.564 101.594 118.93 101.702 119.422C101.906 118.99 102.164 118.636 102.476 118.36C102.788 118.084 103.202 117.946 103.718 117.946C104.342 117.946 104.822 118.192 105.158 118.684C105.506 119.164 105.68 119.848 105.68 120.736V127H103.682V120.88C103.682 120.1 103.448 119.71 102.98 119.71C102.74 119.71 102.536 119.8 102.368 119.98C102.212 120.16 102.044 120.442 101.864 120.826V127H100.136V120.88C100.136 120.496 100.082 120.208 99.9742 120.016C99.8662 119.812 99.6862 119.71 99.4342 119.71C99.2062 119.71 99.0082 119.8 98.8402 119.98C98.6722 120.16 98.5042 120.442 98.3362 120.826V127H96.3202ZM107.761 130.492V118.162H109.471L109.633 119.17H109.687C110.071 118.81 110.509 118.516 111.001 118.288C111.505 118.06 112.009 117.946 112.513 117.946C113.293 117.946 113.947 118.132 114.475 118.504C115.003 118.876 115.411 119.398 115.699 120.07C115.987 120.742 116.131 121.534 116.131 122.446C116.131 123.454 115.945 124.312 115.573 125.02C115.201 125.728 114.715 126.274 114.115 126.658C113.527 127.03 112.891 127.216 112.207 127.216C111.811 127.216 111.397 127.126 110.965 126.946C110.545 126.766 110.155 126.508 109.795 126.172H109.741L109.849 127.72V130.492H107.761ZM111.775 125.506C112.195 125.506 112.573 125.392 112.909 125.164C113.245 124.936 113.509 124.6 113.701 124.156C113.893 123.7 113.989 123.136 113.989 122.464C113.989 121.876 113.917 121.372 113.773 120.952C113.629 120.532 113.407 120.214 113.107 119.998C112.819 119.77 112.429 119.656 111.937 119.656C111.601 119.656 111.259 119.74 110.911 119.908C110.563 120.076 110.209 120.346 109.849 120.718V124.696C110.173 124.984 110.509 125.194 110.857 125.326C111.205 125.446 111.511 125.506 111.775 125.506ZM122.478 127.216C121.698 127.216 120.972 127.036 120.3 126.676C119.628 126.304 119.082 125.776 118.662 125.092C118.242 124.396 118.032 123.562 118.032 122.59C118.032 121.606 118.242 120.772 118.662 120.088C119.082 119.392 119.628 118.864 120.3 118.504C120.972 118.132 121.698 117.946 122.478 117.946C123.258 117.946 123.984 118.132 124.656 118.504C125.328 118.864 125.874 119.392 126.294 120.088C126.714 120.772 126.924 121.606 126.924 122.59C126.924 123.562 126.714 124.396 126.294 125.092C125.874 125.776 125.328 126.304 124.656 126.676C123.984 127.036 123.258 127.216 122.478 127.216ZM122.478 125.524C122.958 125.524 123.372 125.404 123.72 125.164C124.068 124.924 124.332 124.582 124.512 124.138C124.692 123.694 124.782 123.178 124.782 122.59C124.782 122.002 124.692 121.486 124.512 121.042C124.332 120.598 124.068 120.256 123.72 120.016C123.372 119.764 122.958 119.638 122.478 119.638C121.998 119.638 121.584 119.764 121.236 120.016C120.9 120.256 120.636 120.598 120.444 121.042C120.264 121.486 120.174 122.002 120.174 122.59C120.174 123.178 120.264 123.694 120.444 124.138C120.636 124.582 120.9 124.924 121.236 125.164C121.584 125.404 121.998 125.524 122.478 125.524ZM130.211 127V118.162H131.921L132.101 120.16H132.155C132.599 119.44 133.145 118.894 133.793 118.522C134.453 118.138 135.161 117.946 135.917 117.946C136.277 117.946 136.589 117.976 136.853 118.036C137.117 118.096 137.375 118.186 137.627 118.306L137.195 120.052C136.907 119.956 136.649 119.89 136.421 119.854C136.205 119.806 135.929 119.782 135.593 119.782C134.993 119.782 134.405 119.956 133.829 120.304C133.265 120.652 132.755 121.258 132.299 122.122V127H130.211ZM145.702 127.216C144.802 127.216 144.088 127.06 143.56 126.748C143.032 126.424 142.654 125.98 142.426 125.416C142.198 124.852 142.084 124.198 142.084 123.454V119.8H139.726V118.252L142.174 118.162L142.444 115.39H144.154V118.162H148.186V119.8H144.154V123.436C144.154 123.916 144.22 124.318 144.352 124.642C144.484 124.954 144.7 125.188 145 125.344C145.3 125.488 145.696 125.56 146.188 125.56C146.572 125.56 146.92 125.53 147.232 125.47C147.544 125.41 147.844 125.326 148.132 125.218L148.528 126.712C148.132 126.844 147.706 126.958 147.25 127.054C146.794 127.162 146.278 127.216 145.702 127.216ZM154.857 121.096C154.353 121.096 153.927 120.922 153.579 120.574C153.243 120.226 153.075 119.794 153.075 119.278C153.075 118.75 153.243 118.318 153.579 117.982C153.927 117.634 154.353 117.46 154.857 117.46C155.373 117.46 155.799 117.634 156.135 117.982C156.471 118.318 156.639 118.75 156.639 119.278C156.639 119.794 156.471 120.226 156.135 120.574C155.799 120.922 155.373 121.096 154.857 121.096ZM154.857 127.216C154.353 127.216 153.927 127.042 153.579 126.694C153.243 126.346 153.075 125.914 153.075 125.398C153.075 124.87 153.243 124.438 153.579 124.102C153.927 123.754 154.353 123.58 154.857 123.58C155.373 123.58 155.799 123.754 156.135 124.102C156.471 124.438 156.639 124.87 156.639 125.398C156.639 125.914 156.471 126.346 156.135 126.694C155.799 127.042 155.373 127.216 154.857 127.216ZM175.147 127V117.676C175.147 116.98 175.279 116.362 175.543 115.822C175.807 115.27 176.215 114.844 176.767 114.544C177.319 114.232 178.027 114.076 178.891 114.076C179.371 114.076 179.827 114.124 180.259 114.22C180.703 114.304 181.123 114.418 181.519 114.562L181.087 116.092C180.763 115.96 180.445 115.864 180.133 115.804C179.833 115.744 179.503 115.714 179.143 115.714C178.471 115.714 177.979 115.882 177.667 116.218C177.355 116.542 177.199 117.016 177.199 117.64V127H175.147ZM172.699 119.8V118.252L175.201 118.162H180.565V119.8H172.699ZM183.312 130.492V118.162H185.022L185.184 119.17H185.238C185.622 118.81 186.06 118.516 186.552 118.288C187.056 118.06 187.56 117.946 188.064 117.946C188.844 117.946 189.498 118.132 190.026 118.504C190.554 118.876 190.962 119.398 191.25 120.07C191.538 120.742 191.682 121.534 191.682 122.446C191.682 123.454 191.496 124.312 191.124 125.02C190.752 125.728 190.266 126.274 189.666 126.658C189.078 127.03 188.442 127.216 187.758 127.216C187.362 127.216 186.948 127.126 186.516 126.946C186.096 126.766 185.706 126.508 185.346 126.172H185.292L185.4 127.72V130.492H183.312ZM187.326 125.506C187.746 125.506 188.124 125.392 188.46 125.164C188.796 124.936 189.06 124.6 189.252 124.156C189.444 123.7 189.54 123.136 189.54 122.464C189.54 121.876 189.468 121.372 189.324 120.952C189.18 120.532 188.958 120.214 188.658 119.998C188.37 119.77 187.98 119.656 187.488 119.656C187.152 119.656 186.81 119.74 186.462 119.908C186.114 120.076 185.76 120.346 185.4 120.718V124.696C185.724 124.984 186.06 125.194 186.408 125.326C186.756 125.446 187.062 125.506 187.326 125.506ZM193.457 127V118.162H195.059L195.221 119.278H195.275C195.467 118.894 195.713 118.576 196.013 118.324C196.313 118.072 196.721 117.946 197.237 117.946C197.645 117.946 197.987 118.072 198.263 118.324C198.539 118.564 198.731 118.93 198.839 119.422C199.043 118.99 199.301 118.636 199.613 118.36C199.925 118.084 200.339 117.946 200.855 117.946C201.479 117.946 201.959 118.192 202.295 118.684C202.643 119.164 202.817 119.848 202.817 120.736V127H200.819V120.88C200.819 120.1 200.585 119.71 200.117 119.71C199.877 119.71 199.673 119.8 199.505 119.98C199.349 120.16 199.181 120.442 199.001 120.826V127H197.273V120.88C197.273 120.496 197.219 120.208 197.111 120.016C197.003 119.812 196.823 119.71 196.571 119.71C196.343 119.71 196.145 119.8 195.977 119.98C195.809 120.16 195.641 120.442 195.473 120.826V127H193.457ZM215.619 121.816V120.304H223.611V121.816H215.619ZM226.412 121.816V120.304H234.404V121.816H226.412ZM250.698 127V117.676C250.698 116.98 250.83 116.362 251.094 115.822C251.358 115.27 251.766 114.844 252.318 114.544C252.87 114.232 253.578 114.076 254.442 114.076C254.922 114.076 255.378 114.124 255.81 114.22C256.254 114.304 256.674 114.418 257.07 114.562L256.638 116.092C256.314 115.96 255.996 115.864 255.684 115.804C255.384 115.744 255.054 115.714 254.694 115.714C254.022 115.714 253.53 115.882 253.218 116.218C252.906 116.542 252.75 117.016 252.75 117.64V127H250.698ZM248.25 119.8V118.252L250.752 118.162H256.116V119.8H248.25ZM258.863 130.492V118.162H260.573L260.735 119.17H260.789C261.173 118.81 261.611 118.516 262.103 118.288C262.607 118.06 263.111 117.946 263.615 117.946C264.395 117.946 265.049 118.132 265.577 118.504C266.105 118.876 266.513 119.398 266.801 120.07C267.089 120.742 267.233 121.534 267.233 122.446C267.233 123.454 267.047 124.312 266.675 125.02C266.303 125.728 265.817 126.274 265.217 126.658C264.629 127.03 263.993 127.216 263.309 127.216C262.913 127.216 262.499 127.126 262.067 126.946C261.647 126.766 261.257 126.508 260.897 126.172H260.843L260.951 127.72V130.492H258.863ZM262.877 125.506C263.297 125.506 263.675 125.392 264.011 125.164C264.347 124.936 264.611 124.6 264.803 124.156C264.995 123.7 265.091 123.136 265.091 122.464C265.091 121.876 265.019 121.372 264.875 120.952C264.731 120.532 264.509 120.214 264.209 119.998C263.921 119.77 263.531 119.656 263.039 119.656C262.703 119.656 262.361 119.74 262.013 119.908C261.665 120.076 261.311 120.346 260.951 120.718V124.696C261.275 124.984 261.611 125.194 261.959 125.326C262.307 125.446 262.613 125.506 262.877 125.506ZM269.008 127V118.162H270.61L270.772 119.278H270.826C271.018 118.894 271.264 118.576 271.564 118.324C271.864 118.072 272.272 117.946 272.788 117.946C273.196 117.946 273.538 118.072 273.814 118.324C274.09 118.564 274.282 118.93 274.39 119.422C274.594 118.99 274.852 118.636 275.164 118.36C275.476 118.084 275.89 117.946 276.406 117.946C277.03 117.946 277.51 118.192 277.846 118.684C278.194 119.164 278.368 119.848 278.368 120.736V127H276.37V120.88C276.37 120.1 276.136 119.71 275.668 119.71C275.428 119.71 275.224 119.8 275.056 119.98C274.9 120.16 274.732 120.442 274.552 120.826V127H272.824V120.88C272.824 120.496 272.77 120.208 272.662 120.016C272.554 119.812 272.374 119.71 272.122 119.71C271.894 119.71 271.696 119.8 271.528 119.98C271.36 120.16 271.192 120.442 271.024 120.826V127H269.008ZM284.373 127.216C283.869 127.216 283.443 127.042 283.095 126.694C282.759 126.346 282.591 125.914 282.591 125.398C282.591 124.87 282.759 124.438 283.095 124.102C283.443 123.754 283.869 123.58 284.373 123.58C284.889 123.58 285.315 123.754 285.651 124.102C285.987 124.438 286.155 124.87 286.155 125.398C286.155 125.914 285.987 126.346 285.651 126.694C285.315 127.042 284.889 127.216 284.373 127.216ZM291.242 130.492V118.162H292.952L293.114 119.17H293.168C293.552 118.81 293.99 118.516 294.482 118.288C294.986 118.06 295.49 117.946 295.994 117.946C296.774 117.946 297.428 118.132 297.956 118.504C298.484 118.876 298.892 119.398 299.18 120.07C299.468 120.742 299.612 121.534 299.612 122.446C299.612 123.454 299.426 124.312 299.054 125.02C298.682 125.728 298.196 126.274 297.596 126.658C297.008 127.03 296.372 127.216 295.688 127.216C295.292 127.216 294.878 127.126 294.446 126.946C294.026 126.766 293.636 126.508 293.276 126.172H293.222L293.33 127.72V130.492H291.242ZM295.256 125.506C295.676 125.506 296.054 125.392 296.39 125.164C296.726 124.936 296.99 124.6 297.182 124.156C297.374 123.7 297.47 123.136 297.47 122.464C297.47 121.876 297.398 121.372 297.254 120.952C297.11 120.532 296.888 120.214 296.588 119.998C296.3 119.77 295.91 119.656 295.418 119.656C295.082 119.656 294.74 119.74 294.392 119.908C294.044 120.076 293.69 120.346 293.33 120.718V124.696C293.654 124.984 293.99 125.194 294.338 125.326C294.686 125.446 294.992 125.506 295.256 125.506ZM304.789 127.216C304.213 127.216 303.703 127.108 303.259 126.892C302.815 126.664 302.467 126.358 302.215 125.974C301.963 125.59 301.837 125.14 301.837 124.624C301.837 123.64 302.305 122.89 303.241 122.374C304.189 121.846 305.755 121.504 307.939 121.348C307.915 121.024 307.825 120.73 307.669 120.466C307.525 120.202 307.303 119.998 307.003 119.854C306.703 119.698 306.313 119.62 305.833 119.62C305.497 119.62 305.167 119.662 304.843 119.746C304.519 119.83 304.195 119.944 303.871 120.088C303.559 120.232 303.247 120.388 302.935 120.556L302.179 119.17C302.539 118.954 302.935 118.756 303.367 118.576C303.799 118.384 304.255 118.234 304.735 118.126C305.215 118.006 305.707 117.946 306.211 117.946C307.039 117.946 307.729 118.096 308.281 118.396C308.845 118.684 309.271 119.116 309.559 119.692C309.859 120.256 310.009 120.946 310.009 121.762V127H308.317L308.155 125.902H308.101C307.633 126.262 307.111 126.574 306.535 126.838C305.971 127.09 305.389 127.216 304.789 127.216ZM305.419 125.596C305.863 125.596 306.289 125.5 306.697 125.308C307.117 125.104 307.531 124.84 307.939 124.516V122.644C306.883 122.716 306.055 122.836 305.455 123.004C304.855 123.16 304.435 123.364 304.195 123.616C303.955 123.868 303.835 124.15 303.835 124.462C303.835 124.726 303.907 124.942 304.051 125.11C304.195 125.278 304.381 125.404 304.609 125.488C304.849 125.56 305.119 125.596 305.419 125.596ZM317.544 127.216C316.62 127.216 315.786 127.036 315.042 126.676C314.31 126.304 313.728 125.776 313.296 125.092C312.876 124.396 312.666 123.562 312.666 122.59C312.666 121.606 312.894 120.772 313.35 120.088C313.818 119.392 314.436 118.864 315.204 118.504C315.972 118.132 316.8 117.946 317.688 117.946C318.408 117.946 319.044 118.066 319.596 118.306C320.148 118.534 320.604 118.828 320.964 119.188L319.974 120.484C319.626 120.208 319.272 119.998 318.912 119.854C318.564 119.71 318.192 119.638 317.796 119.638C317.208 119.638 316.686 119.764 316.23 120.016C315.786 120.256 315.438 120.598 315.186 121.042C314.934 121.486 314.808 122.002 314.808 122.59C314.808 123.178 314.928 123.694 315.168 124.138C315.42 124.582 315.762 124.924 316.194 125.164C316.638 125.404 317.154 125.524 317.742 125.524C318.246 125.524 318.708 125.428 319.128 125.236C319.548 125.044 319.926 124.816 320.262 124.552L321.126 125.884C320.622 126.316 320.058 126.646 319.434 126.874C318.81 127.102 318.18 127.216 317.544 127.216ZM323.765 127V114.292H325.853V122.248H325.925L329.903 118.162H332.207L325.853 124.696V127H323.765ZM330.317 127L327.311 122.644L328.517 121.348L332.585 127H330.317ZM337.168 127.216C336.592 127.216 336.082 127.108 335.638 126.892C335.194 126.664 334.846 126.358 334.594 125.974C334.342 125.59 334.216 125.14 334.216 124.624C334.216 123.64 334.684 122.89 335.62 122.374C336.568 121.846 338.134 121.504 340.318 121.348C340.294 121.024 340.204 120.73 340.048 120.466C339.904 120.202 339.682 119.998 339.382 119.854C339.082 119.698 338.692 119.62 338.212 119.62C337.876 119.62 337.546 119.662 337.222 119.746C336.898 119.83 336.574 119.944 336.25 120.088C335.938 120.232 335.626 120.388 335.313 120.556L334.558 119.17C334.918 118.954 335.314 118.756 335.746 118.576C336.178 118.384 336.634 118.234 337.114 118.126C337.594 118.006 338.086 117.946 338.59 117.946C339.418 117.946 340.108 118.096 340.66 118.396C341.224 118.684 341.65 119.116 341.938 119.692C342.238 120.256 342.388 120.946 342.388 121.762V127H340.696L340.534 125.902H340.48C340.012 126.262 339.49 126.574 338.914 126.838C338.35 127.09 337.768 127.216 337.168 127.216ZM337.798 125.596C338.242 125.596 338.668 125.5 339.076 125.308C339.496 125.104 339.91 124.84 340.318 124.516V122.644C339.262 122.716 338.434 122.836 337.834 123.004C337.234 123.16 336.814 123.364 336.574 123.616C336.334 123.868 336.214 124.15 336.214 124.462C336.214 124.726 336.286 124.942 336.43 125.11C336.574 125.278 336.76 125.404 336.988 125.488C337.228 125.56 337.498 125.596 337.798 125.596ZM348.878 130.906C348.062 130.906 347.354 130.816 346.754 130.636C346.154 130.468 345.686 130.21 345.35 129.862C345.014 129.514 344.846 129.076 344.846 128.548C344.846 128.2 344.966 127.864 345.206 127.54C345.446 127.216 345.794 126.934 346.25 126.694V126.622C346.022 126.478 345.812 126.292 345.62 126.064C345.44 125.824 345.35 125.518 345.35 125.146C345.35 124.858 345.446 124.564 345.638 124.264C345.83 123.964 346.088 123.706 346.412 123.49V123.418C346.1 123.19 345.83 122.884 345.602 122.5C345.386 122.104 345.278 121.648 345.278 121.132C345.278 120.448 345.446 119.872 345.782 119.404C346.118 118.924 346.562 118.564 347.114 118.324C347.666 118.072 348.266 117.946 348.914 117.946C349.442 117.946 349.904 118.018 350.3 118.162H353.918V119.746H351.884C352.04 119.914 352.172 120.13 352.28 120.394C352.4 120.646 352.46 120.916 352.46 121.204C352.46 121.852 352.298 122.404 351.974 122.86C351.662 123.304 351.242 123.64 350.714 123.868C350.186 124.096 349.586 124.21 348.914 124.21C348.71 124.21 348.488 124.192 348.248 124.156C348.02 124.108 347.792 124.042 347.564 123.958C347.384 124.066 347.246 124.186 347.15 124.318C347.066 124.45 347.024 124.606 347.024 124.786C347.024 125.062 347.162 125.272 347.438 125.416C347.726 125.548 348.146 125.614 348.698 125.614H350.498C351.65 125.614 352.514 125.782 353.09 126.118C353.678 126.442 353.972 126.994 353.972 127.774C353.972 128.35 353.762 128.878 353.342 129.358C352.934 129.838 352.346 130.216 351.578 130.492C350.822 130.768 349.922 130.906 348.878 130.906ZM348.914 122.896C349.226 122.896 349.508 122.83 349.76 122.698C350.012 122.554 350.21 122.35 350.354 122.086C350.51 121.822 350.588 121.504 350.588 121.132C350.588 120.772 350.51 120.466 350.354 120.214C350.21 119.95 350.012 119.746 349.76 119.602C349.508 119.458 349.226 119.386 348.914 119.386C348.614 119.386 348.338 119.458 348.086 119.602C347.834 119.746 347.63 119.95 347.474 120.214C347.318 120.466 347.24 120.772 347.24 121.132C347.24 121.504 347.318 121.822 347.474 122.086C347.63 122.35 347.834 122.554 348.086 122.698C348.338 122.83 348.614 122.896 348.914 122.896ZM349.13 129.538C349.706 129.538 350.204 129.472 350.624 129.34C351.056 129.208 351.386 129.034 351.614 128.818C351.854 128.602 351.974 128.368 351.974 128.116C351.974 127.768 351.824 127.534 351.524 127.414C351.236 127.306 350.792 127.252 350.192 127.252H348.788C348.5 127.252 348.248 127.24 348.032 127.216C347.816 127.192 347.618 127.162 347.438 127.126C347.126 127.306 346.904 127.492 346.772 127.684C346.64 127.876 346.574 128.074 346.574 128.278C346.574 128.674 346.796 128.98 347.24 129.196C347.684 129.424 348.314 129.538 349.13 129.538ZM360.463 127.216C359.563 127.216 358.747 127.036 358.015 126.676C357.283 126.304 356.701 125.776 356.269 125.092C355.837 124.396 355.621 123.556 355.621 122.572C355.621 121.612 355.837 120.79 356.269 120.106C356.701 119.41 357.265 118.876 357.961 118.504C358.657 118.132 359.401 117.946 360.193 117.946C361.069 117.946 361.807 118.126 362.407 118.486C363.019 118.846 363.481 119.344 363.793 119.98C364.117 120.604 364.279 121.324 364.279 122.14C364.279 122.344 364.267 122.542 364.243 122.734C364.231 122.914 364.213 123.064 364.189 123.184H357.115V121.708H362.857L362.461 122.176C362.461 121.3 362.263 120.646 361.867 120.214C361.483 119.77 360.943 119.548 360.247 119.548C359.755 119.548 359.311 119.662 358.915 119.89C358.531 120.118 358.225 120.46 357.997 120.916C357.769 121.36 357.655 121.912 357.655 122.572C357.655 123.256 357.781 123.82 358.033 124.264C358.297 124.708 358.657 125.044 359.113 125.272C359.581 125.5 360.121 125.614 360.733 125.614C361.201 125.614 361.633 125.548 362.029 125.416C362.425 125.284 362.821 125.104 363.217 124.876L363.919 126.172C363.451 126.472 362.923 126.724 362.335 126.928C361.747 127.12 361.123 127.216 360.463 127.216ZM370.716 121.096C370.212 121.096 369.786 120.922 369.438 120.574C369.102 120.226 368.934 119.794 368.934 119.278C368.934 118.75 369.102 118.318 369.438 117.982C369.786 117.634 370.212 117.46 370.716 117.46C371.232 117.46 371.658 117.634 371.994 117.982C372.33 118.318 372.498 118.75 372.498 119.278C372.498 119.794 372.33 120.226 371.994 120.574C371.658 120.922 371.232 121.096 370.716 121.096ZM370.716 127.216C370.212 127.216 369.786 127.042 369.438 126.694C369.102 126.346 368.934 125.914 368.934 125.398C368.934 124.87 369.102 124.438 369.438 124.102C369.786 123.754 370.212 123.58 370.716 123.58C371.232 123.58 371.658 123.754 371.994 124.102C372.33 124.438 372.498 124.87 372.498 125.398C372.498 125.914 372.33 126.346 371.994 126.694C371.658 127.042 371.232 127.216 370.716 127.216ZM61.2843 156.298L54.4443 151.762V150.286L61.2843 145.75V147.676L56.1903 150.988V151.06L61.2843 154.372V156.298ZM67.3253 157.216C66.2933 157.216 65.5433 156.904 65.0753 156.28C64.6073 155.656 64.3733 154.774 64.3733 153.634V148.162H66.4433V153.364C66.4433 154.072 66.5633 154.594 66.8033 154.93C67.0553 155.266 67.4873 155.434 68.0993 155.434C68.5073 155.434 68.8793 155.338 69.2153 155.146C69.5633 154.942 69.9293 154.6 70.3133 154.12V148.162H72.3833V157H70.6913L70.5293 155.596H70.4573C70.0373 156.076 69.5753 156.466 69.0713 156.766C68.5673 157.066 67.9853 157.216 67.3253 157.216ZM79.3603 157.216C78.5323 157.216 77.7403 157.084 76.9843 156.82C76.2283 156.544 75.5743 156.22 75.0223 155.848L75.9223 154.534C76.4503 154.882 77.0203 155.158 77.6323 155.362C78.2443 155.554 78.9103 155.65 79.6303 155.65C80.2423 155.65 80.6923 155.548 80.9803 155.344C81.2803 155.128 81.4303 154.876 81.4303 154.588C81.4303 154.444 81.3943 154.312 81.3223 154.192C81.2623 154.072 81.1483 153.964 80.9803 153.868C80.8123 153.76 80.5663 153.658 80.2423 153.562C79.9183 153.466 79.4983 153.364 78.9823 153.256C77.8063 153.004 76.9423 152.662 76.3903 152.23C75.8383 151.798 75.5623 151.252 75.5623 150.592C75.5623 149.812 75.8983 149.176 76.5703 148.684C77.2543 148.192 78.2143 147.946 79.4503 147.946C80.1823 147.946 80.8663 148.066 81.5023 148.306C82.1503 148.546 82.6963 148.816 83.1403 149.116L82.1863 150.394C81.7663 150.106 81.3043 149.89 80.8003 149.746C80.2963 149.59 79.7863 149.512 79.2703 149.512C78.8743 149.512 78.5563 149.554 78.3163 149.638C78.0883 149.722 77.9143 149.842 77.7943 149.998C77.6863 150.142 77.6323 150.304 77.6323 150.484C77.6323 150.796 77.8123 151.03 78.1723 151.186C78.5323 151.342 79.1203 151.51 79.9363 151.69C80.8843 151.894 81.6163 152.128 82.1323 152.392C82.6483 152.644 83.0023 152.938 83.1943 153.274C83.3983 153.598 83.5003 154 83.5003 154.48C83.5003 154.984 83.3383 155.446 83.0143 155.866C82.7023 156.274 82.2403 156.604 81.6283 156.856C81.0163 157.096 80.2603 157.216 79.3603 157.216ZM90.6392 157.216C89.7392 157.216 88.9232 157.036 88.1912 156.676C87.4592 156.304 86.8772 155.776 86.4452 155.092C86.0132 154.396 85.7972 153.556 85.7972 152.572C85.7972 151.612 86.0132 150.79 86.4452 150.106C86.8772 149.41 87.4412 148.876 88.1372 148.504C88.8332 148.132 89.5772 147.946 90.3692 147.946C91.2452 147.946 91.9832 148.126 92.5832 148.486C93.1952 148.846 93.6572 149.344 93.9692 149.98C94.2932 150.604 94.4552 151.324 94.4552 152.14C94.4552 152.344 94.4432 152.542 94.4192 152.734C94.4072 152.914 94.3892 153.064 94.3652 153.184H87.2912V151.708H93.0332L92.6372 152.176C92.6372 151.3 92.4392 150.646 92.0432 150.214C91.6592 149.77 91.1192 149.548 90.4232 149.548C89.9312 149.548 89.4872 149.662 89.0912 149.89C88.7072 150.118 88.4012 150.46 88.1732 150.916C87.9452 151.36 87.8312 151.912 87.8312 152.572C87.8312 153.256 87.9572 153.82 88.2092 154.264C88.4732 154.708 88.8332 155.044 89.2892 155.272C89.7572 155.5 90.2972 155.614 90.9092 155.614C91.3772 155.614 91.8092 155.548 92.2052 155.416C92.6012 155.284 92.9972 155.104 93.3932 154.876L94.0952 156.172C93.6272 156.472 93.0992 156.724 92.5112 156.928C91.9232 157.12 91.2992 157.216 90.6392 157.216ZM97.8322 157V148.162H99.5422L99.7222 150.16H99.7762C100.22 149.44 100.766 148.894 101.414 148.522C102.074 148.138 102.782 147.946 103.538 147.946C103.898 147.946 104.21 147.976 104.474 148.036C104.738 148.096 104.996 148.186 105.248 148.306L104.816 150.052C104.528 149.956 104.27 149.89 104.042 149.854C103.826 149.806 103.55 149.782 103.214 149.782C102.614 149.782 102.026 149.956 101.45 150.304C100.886 150.652 100.376 151.258 99.9202 152.122V157H97.8322ZM107.761 157V148.162H109.471L109.633 149.494H109.705C110.125 149.062 110.587 148.696 111.091 148.396C111.607 148.096 112.207 147.946 112.891 147.946C113.911 147.946 114.661 148.258 115.141 148.882C115.621 149.506 115.861 150.388 115.861 151.528V157H113.773V151.798C113.773 151.09 113.647 150.568 113.395 150.232C113.143 149.896 112.717 149.728 112.117 149.728C111.685 149.728 111.301 149.83 110.965 150.034C110.629 150.238 110.257 150.55 109.849 150.97V157H107.761ZM121.308 157.216C120.732 157.216 120.222 157.108 119.778 156.892C119.334 156.664 118.986 156.358 118.734 155.974C118.482 155.59 118.356 155.14 118.356 154.624C118.356 153.64 118.824 152.89 119.76 152.374C120.708 151.846 122.274 151.504 124.458 151.348C124.434 151.024 124.344 150.73 124.188 150.466C124.044 150.202 123.822 149.998 123.522 149.854C123.222 149.698 122.832 149.62 122.352 149.62C122.016 149.62 121.686 149.662 121.362 149.746C121.038 149.83 120.714 149.944 120.39 150.088C120.078 150.232 119.766 150.388 119.454 150.556L118.698 149.17C119.058 148.954 119.454 148.756 119.886 148.576C120.318 148.384 120.774 148.234 121.254 148.126C121.734 148.006 122.226 147.946 122.73 147.946C123.558 147.946 124.248 148.096 124.8 148.396C125.364 148.684 125.79 149.116 126.078 149.692C126.378 150.256 126.528 150.946 126.528 151.762V157H124.836L124.674 155.902H124.62C124.152 156.262 123.63 156.574 123.054 156.838C122.49 157.09 121.908 157.216 121.308 157.216ZM121.938 155.596C122.382 155.596 122.808 155.5 123.216 155.308C123.636 155.104 124.05 154.84 124.458 154.516V152.644C123.402 152.716 122.574 152.836 121.974 153.004C121.374 153.16 120.954 153.364 120.714 153.616C120.474 153.868 120.354 154.15 120.354 154.462C120.354 154.726 120.426 154.942 120.57 155.11C120.714 155.278 120.9 155.404 121.128 155.488C121.368 155.56 121.638 155.596 121.938 155.596ZM128.699 157V148.162H130.301L130.463 149.278H130.517C130.709 148.894 130.955 148.576 131.255 148.324C131.555 148.072 131.963 147.946 132.479 147.946C132.887 147.946 133.229 148.072 133.505 148.324C133.781 148.564 133.973 148.93 134.081 149.422C134.285 148.99 134.543 148.636 134.855 148.36C135.167 148.084 135.581 147.946 136.097 147.946C136.721 147.946 137.201 148.192 137.537 148.684C137.885 149.164 138.059 149.848 138.059 150.736V157H136.061V150.88C136.061 150.1 135.827 149.71 135.359 149.71C135.119 149.71 134.915 149.8 134.747 149.98C134.591 150.16 134.423 150.442 134.243 150.826V157H132.515V150.88C132.515 150.496 132.461 150.208 132.353 150.016C132.245 149.812 132.065 149.71 131.813 149.71C131.585 149.71 131.387 149.8 131.219 149.98C131.051 150.16 130.883 150.442 130.715 150.826V157H128.699ZM144.604 157.216C143.704 157.216 142.888 157.036 142.156 156.676C141.424 156.304 140.842 155.776 140.41 155.092C139.978 154.396 139.762 153.556 139.762 152.572C139.762 151.612 139.978 150.79 140.41 150.106C140.842 149.41 141.406 148.876 142.102 148.504C142.798 148.132 143.542 147.946 144.334 147.946C145.21 147.946 145.948 148.126 146.548 148.486C147.16 148.846 147.622 149.344 147.934 149.98C148.258 150.604 148.42 151.324 148.42 152.14C148.42 152.344 148.408 152.542 148.384 152.734C148.372 152.914 148.354 153.064 148.33 153.184H141.256V151.708H146.998L146.602 152.176C146.602 151.3 146.404 150.646 146.008 150.214C145.624 149.77 145.084 149.548 144.388 149.548C143.896 149.548 143.452 149.662 143.056 149.89C142.672 150.118 142.366 150.46 142.138 150.916C141.91 151.36 141.796 151.912 141.796 152.572C141.796 153.256 141.922 153.82 142.174 154.264C142.438 154.708 142.798 155.044 143.254 155.272C143.722 155.5 144.262 155.614 144.874 155.614C145.342 155.614 145.774 155.548 146.17 155.416C146.566 155.284 146.962 155.104 147.358 154.876L148.06 156.172C147.592 156.472 147.064 156.724 146.476 156.928C145.888 157.12 145.264 157.216 144.604 157.216ZM150.537 159.736V158.116H159.177V159.736H150.537ZM165.65 157.216C164.87 157.216 164.144 157.036 163.472 156.676C162.8 156.304 162.254 155.776 161.834 155.092C161.414 154.396 161.204 153.562 161.204 152.59C161.204 151.606 161.414 150.772 161.834 150.088C162.254 149.392 162.8 148.864 163.472 148.504C164.144 148.132 164.87 147.946 165.65 147.946C166.43 147.946 167.156 148.132 167.828 148.504C168.5 148.864 169.046 149.392 169.466 150.088C169.886 150.772 170.096 151.606 170.096 152.59C170.096 153.562 169.886 154.396 169.466 155.092C169.046 155.776 168.5 156.304 167.828 156.676C167.156 157.036 166.43 157.216 165.65 157.216ZM165.65 155.524C166.13 155.524 166.544 155.404 166.892 155.164C167.24 154.924 167.504 154.582 167.684 154.138C167.864 153.694 167.954 153.178 167.954 152.59C167.954 152.002 167.864 151.486 167.684 151.042C167.504 150.598 167.24 150.256 166.892 150.016C166.544 149.764 166.13 149.638 165.65 149.638C165.17 149.638 164.756 149.764 164.408 150.016C164.072 150.256 163.808 150.598 163.616 151.042C163.436 151.486 163.346 152.002 163.346 152.59C163.346 153.178 163.436 153.694 163.616 154.138C163.808 154.582 164.072 154.924 164.408 155.164C164.756 155.404 165.17 155.524 165.65 155.524ZM173.383 157V148.162H175.093L175.273 150.16H175.327C175.771 149.44 176.317 148.894 176.965 148.522C177.625 148.138 178.333 147.946 179.089 147.946C179.449 147.946 179.761 147.976 180.025 148.036C180.289 148.096 180.547 148.186 180.799 148.306L180.367 150.052C180.079 149.956 179.821 149.89 179.593 149.854C179.377 149.806 179.101 149.782 178.765 149.782C178.165 149.782 177.577 149.956 177.001 150.304C176.437 150.652 175.927 151.258 175.471 152.122V157H173.383ZM182.916 159.736V158.116H191.556V159.736H182.916ZM198.029 157.216C197.249 157.216 196.523 157.036 195.851 156.676C195.179 156.304 194.633 155.776 194.213 155.092C193.793 154.396 193.583 153.562 193.583 152.59C193.583 151.606 193.793 150.772 194.213 150.088C194.633 149.392 195.179 148.864 195.851 148.504C196.523 148.132 197.249 147.946 198.029 147.946C198.809 147.946 199.535 148.132 200.207 148.504C200.879 148.864 201.425 149.392 201.845 150.088C202.265 150.772 202.475 151.606 202.475 152.59C202.475 153.562 202.265 154.396 201.845 155.092C201.425 155.776 200.879 156.304 200.207 156.676C199.535 157.036 198.809 157.216 198.029 157.216ZM198.029 155.524C198.509 155.524 198.923 155.404 199.271 155.164C199.619 154.924 199.883 154.582 200.063 154.138C200.243 153.694 200.333 153.178 200.333 152.59C200.333 152.002 200.243 151.486 200.063 151.042C199.883 150.598 199.619 150.256 199.271 150.016C198.923 149.764 198.509 149.638 198.029 149.638C197.549 149.638 197.135 149.764 196.787 150.016C196.451 150.256 196.187 150.598 195.995 151.042C195.815 151.486 195.725 152.002 195.725 152.59C195.725 153.178 195.815 153.694 195.995 154.138C196.187 154.582 196.451 154.924 196.787 155.164C197.135 155.404 197.549 155.524 198.029 155.524ZM205.762 157V148.162H207.472L207.652 150.16H207.706C208.15 149.44 208.696 148.894 209.344 148.522C210.004 148.138 210.712 147.946 211.468 147.946C211.828 147.946 212.14 147.976 212.404 148.036C212.668 148.096 212.926 148.186 213.178 148.306L212.746 150.052C212.458 149.956 212.2 149.89 211.972 149.854C211.756 149.806 211.48 149.782 211.144 149.782C210.544 149.782 209.956 149.956 209.38 150.304C208.816 150.652 208.306 151.258 207.85 152.122V157H205.762ZM219.363 160.906C218.547 160.906 217.839 160.816 217.239 160.636C216.639 160.468 216.171 160.21 215.835 159.862C215.499 159.514 215.331 159.076 215.331 158.548C215.331 158.2 215.451 157.864 215.691 157.54C215.931 157.216 216.279 156.934 216.735 156.694V156.622C216.507 156.478 216.297 156.292 216.105 156.064C215.925 155.824 215.835 155.518 215.835 155.146C215.835 154.858 215.931 154.564 216.123 154.264C216.315 153.964 216.573 153.706 216.897 153.49V153.418C216.585 153.19 216.315 152.884 216.087 152.5C215.871 152.104 215.763 151.648 215.763 151.132C215.763 150.448 215.931 149.872 216.267 149.404C216.603 148.924 217.047 148.564 217.599 148.324C218.151 148.072 218.751 147.946 219.399 147.946C219.927 147.946 220.389 148.018 220.785 148.162H224.403V149.746H222.369C222.525 149.914 222.657 150.13 222.765 150.394C222.885 150.646 222.945 150.916 222.945 151.204C222.945 151.852 222.783 152.404 222.459 152.86C222.147 153.304 221.727 153.64 221.199 153.868C220.671 154.096 220.071 154.21 219.399 154.21C219.195 154.21 218.973 154.192 218.733 154.156C218.505 154.108 218.277 154.042 218.049 153.958C217.869 154.066 217.731 154.186 217.635 154.318C217.551 154.45 217.509 154.606 217.509 154.786C217.509 155.062 217.647 155.272 217.923 155.416C218.211 155.548 218.631 155.614 219.183 155.614H220.983C222.135 155.614 222.999 155.782 223.575 156.118C224.163 156.442 224.457 156.994 224.457 157.774C224.457 158.35 224.247 158.878 223.827 159.358C223.419 159.838 222.831 160.216 222.063 160.492C221.307 160.768 220.407 160.906 219.363 160.906ZM219.399 152.896C219.711 152.896 219.993 152.83 220.245 152.698C220.497 152.554 220.695 152.35 220.839 152.086C220.995 151.822 221.073 151.504 221.073 151.132C221.073 150.772 220.995 150.466 220.839 150.214C220.695 149.95 220.497 149.746 220.245 149.602C219.993 149.458 219.711 149.386 219.399 149.386C219.099 149.386 218.823 149.458 218.571 149.602C218.319 149.746 218.115 149.95 217.959 150.214C217.803 150.466 217.725 150.772 217.725 151.132C217.725 151.504 217.803 151.822 217.959 152.086C218.115 152.35 218.319 152.554 218.571 152.698C218.823 152.83 219.099 152.896 219.399 152.896ZM219.615 159.538C220.191 159.538 220.689 159.472 221.109 159.34C221.541 159.208 221.871 159.034 222.099 158.818C222.339 158.602 222.459 158.368 222.459 158.116C222.459 157.768 222.309 157.534 222.009 157.414C221.721 157.306 221.277 157.252 220.677 157.252H219.273C218.985 157.252 218.733 157.24 218.517 157.216C218.301 157.192 218.103 157.162 217.923 157.126C217.611 157.306 217.389 157.492 217.257 157.684C217.125 157.876 217.059 158.074 217.059 158.278C217.059 158.674 217.281 158.98 217.725 159.196C218.169 159.424 218.799 159.538 219.615 159.538ZM226.484 157V148.162H228.194L228.356 149.494H228.428C228.848 149.062 229.31 148.696 229.814 148.396C230.33 148.096 230.93 147.946 231.614 147.946C232.634 147.946 233.384 148.258 233.864 148.882C234.344 149.506 234.584 150.388 234.584 151.528V157H232.496V151.798C232.496 151.09 232.37 150.568 232.118 150.232C231.866 149.896 231.44 149.728 230.84 149.728C230.408 149.728 230.024 149.83 229.688 150.034C229.352 150.238 228.98 150.55 228.572 150.97V157H226.484ZM240.031 157.216C239.455 157.216 238.945 157.108 238.501 156.892C238.057 156.664 237.709 156.358 237.457 155.974C237.205 155.59 237.079 155.14 237.079 154.624C237.079 153.64 237.547 152.89 238.483 152.374C239.431 151.846 240.997 151.504 243.181 151.348C243.157 151.024 243.067 150.73 242.911 150.466C242.767 150.202 242.545 149.998 242.245 149.854C241.945 149.698 241.555 149.62 241.075 149.62C240.739 149.62 240.409 149.662 240.085 149.746C239.761 149.83 239.437 149.944 239.113 150.088C238.801 150.232 238.489 150.388 238.177 150.556L237.421 149.17C237.781 148.954 238.177 148.756 238.609 148.576C239.041 148.384 239.497 148.234 239.977 148.126C240.457 148.006 240.949 147.946 241.453 147.946C242.281 147.946 242.971 148.096 243.523 148.396C244.087 148.684 244.513 149.116 244.801 149.692C245.101 150.256 245.251 150.946 245.251 151.762V157H243.559L243.397 155.902H243.343C242.875 156.262 242.353 156.574 241.777 156.838C241.213 157.09 240.631 157.216 240.031 157.216ZM240.661 155.596C241.105 155.596 241.531 155.5 241.939 155.308C242.359 155.104 242.773 154.84 243.181 154.516V152.644C242.125 152.716 241.297 152.836 240.697 153.004C240.097 153.16 239.677 153.364 239.437 153.616C239.197 153.868 239.077 154.15 239.077 154.462C239.077 154.726 239.149 154.942 239.293 155.11C239.437 155.278 239.623 155.404 239.851 155.488C240.091 155.56 240.361 155.596 240.661 155.596ZM247.422 157V148.162H249.024L249.186 149.278H249.24C249.432 148.894 249.678 148.576 249.978 148.324C250.278 148.072 250.686 147.946 251.202 147.946C251.61 147.946 251.952 148.072 252.228 148.324C252.504 148.564 252.696 148.93 252.804 149.422C253.008 148.99 253.266 148.636 253.578 148.36C253.89 148.084 254.304 147.946 254.82 147.946C255.444 147.946 255.924 148.192 256.26 148.684C256.608 149.164 256.782 149.848 256.782 150.736V157H254.784V150.88C254.784 150.1 254.55 149.71 254.082 149.71C253.842 149.71 253.638 149.8 253.47 149.98C253.314 150.16 253.146 150.442 252.966 150.826V157H251.238V150.88C251.238 150.496 251.184 150.208 251.076 150.016C250.968 149.812 250.788 149.71 250.536 149.71C250.308 149.71 250.11 149.8 249.942 149.98C249.774 150.16 249.606 150.442 249.438 150.826V157H247.422ZM263.327 157.216C262.427 157.216 261.611 157.036 260.879 156.676C260.147 156.304 259.565 155.776 259.133 155.092C258.701 154.396 258.485 153.556 258.485 152.572C258.485 151.612 258.701 150.79 259.133 150.106C259.565 149.41 260.129 148.876 260.825 148.504C261.521 148.132 262.265 147.946 263.057 147.946C263.933 147.946 264.671 148.126 265.271 148.486C265.883 148.846 266.345 149.344 266.657 149.98C266.981 150.604 267.143 151.324 267.143 152.14C267.143 152.344 267.131 152.542 267.107 152.734C267.095 152.914 267.077 153.064 267.053 153.184H259.979V151.708H265.721L265.325 152.176C265.325 151.3 265.127 150.646 264.731 150.214C264.347 149.77 263.807 149.548 263.111 149.548C262.619 149.548 262.175 149.662 261.779 149.89C261.395 150.118 261.089 150.46 260.861 150.916C260.633 151.36 260.519 151.912 260.519 152.572C260.519 153.256 260.645 153.82 260.897 154.264C261.161 154.708 261.521 155.044 261.977 155.272C262.445 155.5 262.985 155.614 263.597 155.614C264.065 155.614 264.497 155.548 264.893 155.416C265.289 155.284 265.685 155.104 266.081 154.876L266.783 156.172C266.315 156.472 265.787 156.724 265.199 156.928C264.611 157.12 263.987 157.216 263.327 157.216ZM270.016 156.298V154.372L275.11 151.06V150.988L270.016 147.676V145.75L276.856 150.286V151.762L270.016 156.298ZM284.373 157.216C283.869 157.216 283.443 157.042 283.095 156.694C282.759 156.346 282.591 155.914 282.591 155.398C282.591 154.87 282.759 154.438 283.095 154.102C283.443 153.754 283.869 153.58 284.373 153.58C284.889 153.58 285.315 153.754 285.651 154.102C285.987 154.438 286.155 154.87 286.155 155.398C286.155 155.914 285.987 156.346 285.651 156.694C285.315 157.042 284.889 157.216 284.373 157.216ZM294.914 160.906C294.098 160.906 293.39 160.816 292.79 160.636C292.19 160.468 291.722 160.21 291.386 159.862C291.05 159.514 290.882 159.076 290.882 158.548C290.882 158.2 291.002 157.864 291.242 157.54C291.482 157.216 291.83 156.934 292.286 156.694V156.622C292.058 156.478 291.848 156.292 291.656 156.064C291.476 155.824 291.386 155.518 291.386 155.146C291.386 154.858 291.482 154.564 291.674 154.264C291.866 153.964 292.124 153.706 292.448 153.49V153.418C292.136 153.19 291.866 152.884 291.638 152.5C291.422 152.104 291.314 151.648 291.314 151.132C291.314 150.448 291.482 149.872 291.818 149.404C292.154 148.924 292.598 148.564 293.15 148.324C293.702 148.072 294.302 147.946 294.95 147.946C295.478 147.946 295.94 148.018 296.336 148.162H299.954V149.746H297.92C298.076 149.914 298.208 150.13 298.316 150.394C298.436 150.646 298.496 150.916 298.496 151.204C298.496 151.852 298.334 152.404 298.01 152.86C297.698 153.304 297.278 153.64 296.75 153.868C296.222 154.096 295.622 154.21 294.95 154.21C294.746 154.21 294.524 154.192 294.284 154.156C294.056 154.108 293.828 154.042 293.6 153.958C293.42 154.066 293.282 154.186 293.186 154.318C293.102 154.45 293.06 154.606 293.06 154.786C293.06 155.062 293.198 155.272 293.474 155.416C293.762 155.548 294.182 155.614 294.734 155.614H296.534C297.686 155.614 298.55 155.782 299.126 156.118C299.714 156.442 300.008 156.994 300.008 157.774C300.008 158.35 299.798 158.878 299.378 159.358C298.97 159.838 298.382 160.216 297.614 160.492C296.858 160.768 295.958 160.906 294.914 160.906ZM294.95 152.896C295.262 152.896 295.544 152.83 295.796 152.698C296.048 152.554 296.246 152.35 296.39 152.086C296.546 151.822 296.624 151.504 296.624 151.132C296.624 150.772 296.546 150.466 296.39 150.214C296.246 149.95 296.048 149.746 295.796 149.602C295.544 149.458 295.262 149.386 294.95 149.386C294.65 149.386 294.374 149.458 294.122 149.602C293.87 149.746 293.666 149.95 293.51 150.214C293.354 150.466 293.276 150.772 293.276 151.132C293.276 151.504 293.354 151.822 293.51 152.086C293.666 152.35 293.87 152.554 294.122 152.698C294.374 152.83 294.65 152.896 294.95 152.896ZM295.166 159.538C295.742 159.538 296.24 159.472 296.66 159.34C297.092 159.208 297.422 159.034 297.65 158.818C297.89 158.602 298.01 158.368 298.01 158.116C298.01 157.768 297.86 157.534 297.56 157.414C297.272 157.306 296.828 157.252 296.228 157.252H294.824C294.536 157.252 294.284 157.24 294.068 157.216C293.852 157.192 293.654 157.162 293.474 157.126C293.162 157.306 292.94 157.492 292.808 157.684C292.676 157.876 292.61 158.074 292.61 158.278C292.61 158.674 292.832 158.98 293.276 159.196C293.72 159.424 294.35 159.538 295.166 159.538ZM305.905 157V149.8H302.071V148.162H307.975V157H305.905ZM306.787 146.542C306.367 146.542 306.013 146.416 305.725 146.164C305.449 145.912 305.311 145.576 305.311 145.156C305.311 144.736 305.449 144.4 305.725 144.148C306.013 143.884 306.367 143.752 306.787 143.752C307.219 143.752 307.573 143.884 307.849 144.148C308.125 144.4 308.263 144.736 308.263 145.156C308.263 145.576 308.125 145.912 307.849 146.164C307.573 146.416 307.219 146.542 306.787 146.542ZM318.39 157.216C317.49 157.216 316.776 157.06 316.248 156.748C315.72 156.424 315.342 155.98 315.114 155.416C314.886 154.852 314.772 154.198 314.772 153.454V149.8H312.414V148.252L314.862 148.162L315.132 145.39H316.842V148.162H320.874V149.8H316.842V153.436C316.842 153.916 316.908 154.318 317.04 154.642C317.172 154.954 317.388 155.188 317.688 155.344C317.988 155.488 318.384 155.56 318.876 155.56C319.26 155.56 319.608 155.53 319.92 155.47C320.232 155.41 320.532 155.326 320.82 155.218L321.216 156.712C320.82 156.844 320.394 156.958 319.938 157.054C319.482 157.162 318.966 157.216 318.39 157.216ZM323.621 157V144.292H325.709V147.568L325.583 149.458H325.637C326.021 149.05 326.465 148.696 326.969 148.396C327.485 148.096 328.079 147.946 328.751 147.946C329.771 147.946 330.521 148.258 331.001 148.882C331.481 149.506 331.721 150.388 331.721 151.528V157H329.633V151.798C329.633 151.09 329.507 150.568 329.255 150.232C329.003 149.896 328.577 149.728 327.977 149.728C327.545 149.728 327.161 149.83 326.825 150.034C326.489 150.238 326.117 150.55 325.709 150.97V157H323.621ZM337.15 157.216C336.118 157.216 335.368 156.904 334.9 156.28C334.432 155.656 334.198 154.774 334.198 153.634V148.162H336.268V153.364C336.268 154.072 336.388 154.594 336.628 154.93C336.88 155.266 337.312 155.434 337.924 155.434C338.332 155.434 338.704 155.338 339.04 155.146C339.388 154.942 339.754 154.6 340.138 154.12V148.162H342.208V157H340.516L340.354 155.596H340.282C339.862 156.076 339.4 156.466 338.896 156.766C338.392 157.066 337.81 157.216 337.15 157.216ZM349.652 157.216C349.232 157.216 348.794 157.114 348.338 156.91C347.894 156.706 347.474 156.412 347.078 156.028H347.024L346.844 157H345.206V144.292H347.294V147.568L347.204 149.116H347.258C347.63 148.756 348.05 148.474 348.518 148.27C348.998 148.054 349.478 147.946 349.958 147.946C350.726 147.946 351.374 148.132 351.902 148.504C352.442 148.876 352.856 149.398 353.144 150.07C353.432 150.73 353.576 151.516 353.576 152.428C353.576 153.436 353.39 154.3 353.018 155.02C352.646 155.728 352.16 156.274 351.56 156.658C350.972 157.03 350.336 157.216 349.652 157.216ZM349.238 155.506C349.646 155.506 350.018 155.392 350.354 155.164C350.69 154.936 350.954 154.6 351.146 154.156C351.338 153.7 351.434 153.136 351.434 152.464C351.434 151.876 351.362 151.372 351.218 150.952C351.074 150.532 350.852 150.214 350.552 149.998C350.264 149.77 349.874 149.656 349.382 149.656C349.046 149.656 348.704 149.74 348.356 149.908C348.008 150.076 347.654 150.346 347.294 150.718V154.696C347.618 154.984 347.954 155.194 348.302 155.326C348.65 155.446 348.962 155.506 349.238 155.506ZM359.923 157.216C359.419 157.216 358.993 157.042 358.645 156.694C358.309 156.346 358.141 155.914 358.141 155.398C358.141 154.87 358.309 154.438 358.645 154.102C358.993 153.754 359.419 153.58 359.923 153.58C360.439 153.58 360.865 153.754 361.201 154.102C361.537 154.438 361.705 154.87 361.705 155.398C361.705 155.914 361.537 156.346 361.201 156.694C360.865 157.042 360.439 157.216 359.923 157.216ZM370.662 157V149.8H366.828V148.162H372.732V157H370.662ZM371.544 146.542C371.124 146.542 370.77 146.416 370.482 146.164C370.206 145.912 370.068 145.576 370.068 145.156C370.068 144.736 370.206 144.4 370.482 144.148C370.77 143.884 371.124 143.752 371.544 143.752C371.976 143.752 372.33 143.884 372.606 144.148C372.882 144.4 373.02 144.736 373.02 145.156C373.02 145.576 372.882 145.912 372.606 146.164C372.33 146.416 371.976 146.542 371.544 146.542ZM57.7203 187.216C56.9403 187.216 56.2143 187.036 55.5423 186.676C54.8703 186.304 54.3243 185.776 53.9043 185.092C53.4843 184.396 53.2743 183.562 53.2743 182.59C53.2743 181.606 53.4843 180.772 53.9043 180.088C54.3243 179.392 54.8703 178.864 55.5423 178.504C56.2143 178.132 56.9403 177.946 57.7203 177.946C58.5003 177.946 59.2263 178.132 59.8983 178.504C60.5703 178.864 61.1163 179.392 61.5363 180.088C61.9563 180.772 62.1663 181.606 62.1663 182.59C62.1663 183.562 61.9563 184.396 61.5363 185.092C61.1163 185.776 60.5703 186.304 59.8983 186.676C59.2263 187.036 58.5003 187.216 57.7203 187.216ZM57.7203 185.524C58.2003 185.524 58.6143 185.404 58.9623 185.164C59.3103 184.924 59.5743 184.582 59.7543 184.138C59.9343 183.694 60.0243 183.178 60.0243 182.59C60.0243 182.002 59.9343 181.486 59.7543 181.042C59.5743 180.598 59.3103 180.256 58.9623 180.016C58.6143 179.764 58.2003 179.638 57.7203 179.638C57.2403 179.638 56.8263 179.764 56.4783 180.016C56.1423 180.256 55.8783 180.598 55.6863 181.042C55.5063 181.486 55.4163 182.002 55.4163 182.59C55.4163 183.178 55.5063 183.694 55.6863 184.138C55.8783 184.582 56.1423 184.924 56.4783 185.164C56.8263 185.404 57.2403 185.524 57.7203 185.524ZM64.6613 189.88L70.5833 174.22H72.3653L66.4433 189.88H64.6613ZM82.8703 186.298L76.0303 181.762V180.286L82.8703 175.75V177.676L77.7763 180.988V181.06L82.8703 184.372V186.298ZM87.0392 187V178.162H88.7492L88.9292 180.16H88.9832C89.4272 179.44 89.9732 178.894 90.6212 178.522C91.2812 178.138 91.9892 177.946 92.7452 177.946C93.1052 177.946 93.4172 177.976 93.6812 178.036C93.9452 178.096 94.2032 178.186 94.4552 178.306L94.0232 180.052C93.7352 179.956 93.4772 179.89 93.2492 179.854C93.0332 179.806 92.7572 179.782 92.4212 179.782C91.8212 179.782 91.2332 179.956 90.6572 180.304C90.0932 180.652 89.5832 181.258 89.1272 182.122V187H87.0392ZM101.432 187.216C100.532 187.216 99.7162 187.036 98.9842 186.676C98.2522 186.304 97.6702 185.776 97.2382 185.092C96.8062 184.396 96.5902 183.556 96.5902 182.572C96.5902 181.612 96.8062 180.79 97.2382 180.106C97.6702 179.41 98.2342 178.876 98.9302 178.504C99.6262 178.132 100.37 177.946 101.162 177.946C102.038 177.946 102.776 178.126 103.376 178.486C103.988 178.846 104.45 179.344 104.762 179.98C105.086 180.604 105.248 181.324 105.248 182.14C105.248 182.344 105.236 182.542 105.212 182.734C105.2 182.914 105.182 183.064 105.158 183.184H98.0842V181.708H103.826L103.43 182.176C103.43 181.3 103.232 180.646 102.836 180.214C102.452 179.77 101.912 179.548 101.216 179.548C100.724 179.548 100.28 179.662 99.8842 179.89C99.5002 180.118 99.1942 180.46 98.9662 180.916C98.7382 181.36 98.6242 181.912 98.6242 182.572C98.6242 183.256 98.7502 183.82 99.0022 184.264C99.2662 184.708 99.6262 185.044 100.082 185.272C100.55 185.5 101.09 185.614 101.702 185.614C102.17 185.614 102.602 185.548 102.998 185.416C103.394 185.284 103.79 185.104 104.186 184.876L104.888 186.172C104.42 186.472 103.892 186.724 103.304 186.928C102.716 187.12 102.092 187.216 101.432 187.216ZM107.761 190.492V178.162H109.471L109.633 179.17H109.687C110.071 178.81 110.509 178.516 111.001 178.288C111.505 178.06 112.009 177.946 112.513 177.946C113.293 177.946 113.947 178.132 114.475 178.504C115.003 178.876 115.411 179.398 115.699 180.07C115.987 180.742 116.131 181.534 116.131 182.446C116.131 183.454 115.945 184.312 115.573 185.02C115.201 185.728 114.715 186.274 114.115 186.658C113.527 187.03 112.891 187.216 112.207 187.216C111.811 187.216 111.397 187.126 110.965 186.946C110.545 186.766 110.155 186.508 109.795 186.172H109.741L109.849 187.72V190.492H107.761ZM111.775 185.506C112.195 185.506 112.573 185.392 112.909 185.164C113.245 184.936 113.509 184.6 113.701 184.156C113.893 183.7 113.989 183.136 113.989 182.464C113.989 181.876 113.917 181.372 113.773 180.952C113.629 180.532 113.407 180.214 113.107 179.998C112.819 179.77 112.429 179.656 111.937 179.656C111.601 179.656 111.259 179.74 110.911 179.908C110.563 180.076 110.209 180.346 109.849 180.718V184.696C110.173 184.984 110.509 185.194 110.857 185.326C111.205 185.446 111.511 185.506 111.775 185.506ZM122.478 187.216C121.698 187.216 120.972 187.036 120.3 186.676C119.628 186.304 119.082 185.776 118.662 185.092C118.242 184.396 118.032 183.562 118.032 182.59C118.032 181.606 118.242 180.772 118.662 180.088C119.082 179.392 119.628 178.864 120.3 178.504C120.972 178.132 121.698 177.946 122.478 177.946C123.258 177.946 123.984 178.132 124.656 178.504C125.328 178.864 125.874 179.392 126.294 180.088C126.714 180.772 126.924 181.606 126.924 182.59C126.924 183.562 126.714 184.396 126.294 185.092C125.874 185.776 125.328 186.304 124.656 186.676C123.984 187.036 123.258 187.216 122.478 187.216ZM122.478 185.524C122.958 185.524 123.372 185.404 123.72 185.164C124.068 184.924 124.332 184.582 124.512 184.138C124.692 183.694 124.782 183.178 124.782 182.59C124.782 182.002 124.692 181.486 124.512 181.042C124.332 180.598 124.068 180.256 123.72 180.016C123.372 179.764 122.958 179.638 122.478 179.638C121.998 179.638 121.584 179.764 121.236 180.016C120.9 180.256 120.636 180.598 120.444 181.042C120.264 181.486 120.174 182.002 120.174 182.59C120.174 183.178 120.264 183.694 120.444 184.138C120.636 184.582 120.9 184.924 121.236 185.164C121.584 185.404 121.998 185.524 122.478 185.524ZM128.951 189.736V188.116H137.591V189.736H128.951ZM140.14 187V178.162H141.85L142.012 179.494H142.084C142.504 179.062 142.966 178.696 143.47 178.396C143.986 178.096 144.586 177.946 145.27 177.946C146.29 177.946 147.04 178.258 147.52 178.882C148 179.506 148.24 180.388 148.24 181.528V187H146.152V181.798C146.152 181.09 146.026 180.568 145.774 180.232C145.522 179.896 145.096 179.728 144.496 179.728C144.064 179.728 143.68 179.83 143.344 180.034C143.008 180.238 142.636 180.55 142.228 180.97V187H140.14ZM153.687 187.216C153.111 187.216 152.601 187.108 152.157 186.892C151.713 186.664 151.365 186.358 151.113 185.974C150.861 185.59 150.735 185.14 150.735 184.624C150.735 183.64 151.203 182.89 152.139 182.374C153.087 181.846 154.653 181.504 156.837 181.348C156.813 181.024 156.723 180.73 156.567 180.466C156.423 180.202 156.201 179.998 155.901 179.854C155.601 179.698 155.211 179.62 154.731 179.62C154.395 179.62 154.065 179.662 153.741 179.746C153.417 179.83 153.093 179.944 152.769 180.088C152.457 180.232 152.145 180.388 151.833 180.556L151.077 179.17C151.437 178.954 151.833 178.756 152.265 178.576C152.697 178.384 153.153 178.234 153.633 178.126C154.113 178.006 154.605 177.946 155.109 177.946C155.937 177.946 156.627 178.096 157.179 178.396C157.743 178.684 158.169 179.116 158.457 179.692C158.757 180.256 158.907 180.946 158.907 181.762V187H157.215L157.053 185.902H156.999C156.531 186.262 156.009 186.574 155.433 186.838C154.869 187.09 154.287 187.216 153.687 187.216ZM154.317 185.596C154.761 185.596 155.187 185.5 155.595 185.308C156.015 185.104 156.429 184.84 156.837 184.516V182.644C155.781 182.716 154.953 182.836 154.353 183.004C153.753 183.16 153.333 183.364 153.093 183.616C152.853 183.868 152.733 184.15 152.733 184.462C152.733 184.726 152.805 184.942 152.949 185.11C153.093 185.278 153.279 185.404 153.507 185.488C153.747 185.56 154.017 185.596 154.317 185.596ZM161.078 187V178.162H162.68L162.842 179.278H162.896C163.088 178.894 163.334 178.576 163.634 178.324C163.934 178.072 164.342 177.946 164.858 177.946C165.266 177.946 165.608 178.072 165.884 178.324C166.16 178.564 166.352 178.93 166.46 179.422C166.664 178.99 166.922 178.636 167.234 178.36C167.546 178.084 167.96 177.946 168.476 177.946C169.1 177.946 169.58 178.192 169.916 178.684C170.264 179.164 170.438 179.848 170.438 180.736V187H168.44V180.88C168.44 180.1 168.206 179.71 167.738 179.71C167.498 179.71 167.294 179.8 167.126 179.98C166.97 180.16 166.802 180.442 166.622 180.826V187H164.894V180.88C164.894 180.496 164.84 180.208 164.732 180.016C164.624 179.812 164.444 179.71 164.192 179.71C163.964 179.71 163.766 179.8 163.598 179.98C163.43 180.16 163.262 180.442 163.094 180.826V187H161.078ZM176.983 187.216C176.083 187.216 175.267 187.036 174.535 186.676C173.803 186.304 173.221 185.776 172.789 185.092C172.357 184.396 172.141 183.556 172.141 182.572C172.141 181.612 172.357 180.79 172.789 180.106C173.221 179.41 173.785 178.876 174.481 178.504C175.177 178.132 175.921 177.946 176.713 177.946C177.589 177.946 178.327 178.126 178.927 178.486C179.539 178.846 180.001 179.344 180.313 179.98C180.637 180.604 180.799 181.324 180.799 182.14C180.799 182.344 180.787 182.542 180.763 182.734C180.751 182.914 180.733 183.064 180.709 183.184H173.635V181.708H179.377L178.981 182.176C178.981 181.3 178.783 180.646 178.387 180.214C178.003 179.77 177.463 179.548 176.767 179.548C176.275 179.548 175.831 179.662 175.435 179.89C175.051 180.118 174.745 180.46 174.517 180.916C174.289 181.36 174.175 181.912 174.175 182.572C174.175 183.256 174.301 183.82 174.553 184.264C174.817 184.708 175.177 185.044 175.633 185.272C176.101 185.5 176.641 185.614 177.253 185.614C177.721 185.614 178.153 185.548 178.549 185.416C178.945 185.284 179.341 185.104 179.737 184.876L180.439 186.172C179.971 186.472 179.443 186.724 178.855 186.928C178.267 187.12 177.643 187.216 176.983 187.216ZM183.672 186.298V184.372L188.766 181.06V180.988L183.672 177.676V175.75L190.512 180.286V181.762L183.672 186.298ZM204.7 187V185.884L210.01 179.8H205.294V178.162H212.926V179.26L207.598 185.344H213.07V187H204.7ZM219.561 187V179.8H215.727V178.162H221.631V187H219.561ZM220.443 176.542C220.023 176.542 219.669 176.416 219.381 176.164C219.105 175.912 218.967 175.576 218.967 175.156C218.967 174.736 219.105 174.4 219.381 174.148C219.669 173.884 220.023 173.752 220.443 173.752C220.875 173.752 221.229 173.884 221.505 174.148C221.781 174.4 221.919 174.736 221.919 175.156C221.919 175.576 221.781 175.912 221.505 176.164C221.229 176.416 220.875 176.542 220.443 176.542ZM226.484 190.492V178.162H228.194L228.356 179.17H228.41C228.794 178.81 229.232 178.516 229.724 178.288C230.228 178.06 230.732 177.946 231.236 177.946C232.016 177.946 232.67 178.132 233.198 178.504C233.726 178.876 234.134 179.398 234.422 180.07C234.71 180.742 234.854 181.534 234.854 182.446C234.854 183.454 234.668 184.312 234.296 185.02C233.924 185.728 233.438 186.274 232.838 186.658C232.25 187.03 231.614 187.216 230.93 187.216C230.534 187.216 230.12 187.126 229.688 186.946C229.268 186.766 228.878 186.508 228.518 186.172H228.464L228.572 187.72V190.492H226.484ZM230.498 185.506C230.918 185.506 231.296 185.392 231.632 185.164C231.968 184.936 232.232 184.6 232.424 184.156C232.616 183.7 232.712 183.136 232.712 182.464C232.712 181.876 232.64 181.372 232.496 180.952C232.352 180.532 232.13 180.214 231.83 179.998C231.542 179.77 231.152 179.656 230.66 179.656C230.324 179.656 229.982 179.74 229.634 179.908C229.286 180.076 228.932 180.346 228.572 180.718V184.696C228.896 184.984 229.232 185.194 229.58 185.326C229.928 185.446 230.234 185.506 230.498 185.506ZM241.201 181.096C240.697 181.096 240.271 180.922 239.923 180.574C239.587 180.226 239.419 179.794 239.419 179.278C239.419 178.75 239.587 178.318 239.923 177.982C240.271 177.634 240.697 177.46 241.201 177.46C241.717 177.46 242.143 177.634 242.479 177.982C242.815 178.318 242.983 178.75 242.983 179.278C242.983 179.794 242.815 180.226 242.479 180.574C242.143 180.922 241.717 181.096 241.201 181.096ZM241.201 187.216C240.697 187.216 240.271 187.042 239.923 186.694C239.587 186.346 239.419 185.914 239.419 185.398C239.419 184.87 239.587 184.438 239.923 184.102C240.271 183.754 240.697 183.58 241.201 183.58C241.717 183.58 242.143 183.754 242.479 184.102C242.815 184.438 242.983 184.87 242.983 185.398C242.983 185.914 242.815 186.346 242.479 186.694C242.143 187.042 241.717 187.216 241.201 187.216ZM262.535 190.906C261.719 190.906 261.011 190.816 260.411 190.636C259.811 190.468 259.343 190.21 259.007 189.862C258.671 189.514 258.503 189.076 258.503 188.548C258.503 188.2 258.623 187.864 258.863 187.54C259.103 187.216 259.451 186.934 259.907 186.694V186.622C259.679 186.478 259.469 186.292 259.277 186.064C259.097 185.824 259.007 185.518 259.007 185.146C259.007 184.858 259.103 184.564 259.295 184.264C259.487 183.964 259.745 183.706 260.069 183.49V183.418C259.757 183.19 259.487 182.884 259.259 182.5C259.043 182.104 258.935 181.648 258.935 181.132C258.935 180.448 259.103 179.872 259.439 179.404C259.775 178.924 260.219 178.564 260.771 178.324C261.323 178.072 261.923 177.946 262.571 177.946C263.099 177.946 263.561 178.018 263.957 178.162H267.575V179.746H265.541C265.697 179.914 265.829 180.13 265.937 180.394C266.057 180.646 266.117 180.916 266.117 181.204C266.117 181.852 265.955 182.404 265.631 182.86C265.319 183.304 264.899 183.64 264.371 183.868C263.843 184.096 263.243 184.21 262.571 184.21C262.367 184.21 262.145 184.192 261.905 184.156C261.677 184.108 261.449 184.042 261.221 183.958C261.041 184.066 260.903 184.186 260.807 184.318C260.723 184.45 260.681 184.606 260.681 184.786C260.681 185.062 260.819 185.272 261.095 185.416C261.383 185.548 261.803 185.614 262.355 185.614H264.155C265.307 185.614 266.171 185.782 266.747 186.118C267.335 186.442 267.629 186.994 267.629 187.774C267.629 188.35 267.419 188.878 266.999 189.358C266.591 189.838 266.003 190.216 265.235 190.492C264.479 190.768 263.579 190.906 262.535 190.906ZM262.571 182.896C262.883 182.896 263.165 182.83 263.417 182.698C263.669 182.554 263.867 182.35 264.011 182.086C264.167 181.822 264.245 181.504 264.245 181.132C264.245 180.772 264.167 180.466 264.011 180.214C263.867 179.95 263.669 179.746 263.417 179.602C263.165 179.458 262.883 179.386 262.571 179.386C262.271 179.386 261.995 179.458 261.743 179.602C261.491 179.746 261.287 179.95 261.131 180.214C260.975 180.466 260.897 180.772 260.897 181.132C260.897 181.504 260.975 181.822 261.131 182.086C261.287 182.35 261.491 182.554 261.743 182.698C261.995 182.83 262.271 182.896 262.571 182.896ZM262.787 189.538C263.363 189.538 263.861 189.472 264.281 189.34C264.713 189.208 265.043 189.034 265.271 188.818C265.511 188.602 265.631 188.368 265.631 188.116C265.631 187.768 265.481 187.534 265.181 187.414C264.893 187.306 264.449 187.252 263.849 187.252H262.445C262.157 187.252 261.905 187.24 261.689 187.216C261.473 187.192 261.275 187.162 261.095 187.126C260.783 187.306 260.561 187.492 260.429 187.684C260.297 187.876 260.231 188.074 260.231 188.278C260.231 188.674 260.453 188.98 260.897 189.196C261.341 189.424 261.971 189.538 262.787 189.538ZM273.526 187V179.8H269.692V178.162H275.596V187H273.526ZM274.408 176.542C273.988 176.542 273.634 176.416 273.346 176.164C273.07 175.912 272.932 175.576 272.932 175.156C272.932 174.736 273.07 174.4 273.346 174.148C273.634 173.884 273.988 173.752 274.408 173.752C274.84 173.752 275.194 173.884 275.47 174.148C275.746 174.4 275.884 174.736 275.884 175.156C275.884 175.576 275.746 175.912 275.47 176.164C275.194 176.416 274.84 176.542 274.408 176.542ZM286.011 187.216C285.111 187.216 284.397 187.06 283.869 186.748C283.341 186.424 282.963 185.98 282.735 185.416C282.507 184.852 282.393 184.198 282.393 183.454V179.8H280.035V178.252L282.483 178.162L282.753 175.39H284.463V178.162H288.495V179.8H284.463V183.436C284.463 183.916 284.529 184.318 284.661 184.642C284.793 184.954 285.009 185.188 285.309 185.344C285.609 185.488 286.005 185.56 286.497 185.56C286.881 185.56 287.229 185.53 287.541 185.47C287.853 185.41 288.153 185.326 288.441 185.218L288.837 186.712C288.441 186.844 288.015 186.958 287.559 187.054C287.103 187.162 286.587 187.216 286.011 187.216ZM291.242 187V174.292H293.33V177.568L293.204 179.458H293.258C293.642 179.05 294.086 178.696 294.59 178.396C295.106 178.096 295.7 177.946 296.372 177.946C297.392 177.946 298.142 178.258 298.622 178.882C299.102 179.506 299.342 180.388 299.342 181.528V187H297.254V181.798C297.254 181.09 297.128 180.568 296.876 180.232C296.624 179.896 296.198 179.728 295.598 179.728C295.166 179.728 294.782 179.83 294.446 180.034C294.11 180.238 293.738 180.55 293.33 180.97V187H291.242ZM304.771 187.216C303.739 187.216 302.989 186.904 302.521 186.28C302.053 185.656 301.819 184.774 301.819 183.634V178.162H303.889V183.364C303.889 184.072 304.009 184.594 304.249 184.93C304.501 185.266 304.933 185.434 305.545 185.434C305.953 185.434 306.325 185.338 306.661 185.146C307.009 184.942 307.375 184.6 307.759 184.12V178.162H309.829V187H308.137L307.975 185.596H307.903C307.483 186.076 307.021 186.466 306.517 186.766C306.013 187.066 305.431 187.216 304.771 187.216ZM317.274 187.216C316.854 187.216 316.416 187.114 315.96 186.91C315.516 186.706 315.096 186.412 314.7 186.028H314.646L314.466 187H312.828V174.292H314.916V177.568L314.826 179.116H314.88C315.252 178.756 315.672 178.474 316.14 178.27C316.62 178.054 317.1 177.946 317.58 177.946C318.348 177.946 318.996 178.132 319.524 178.504C320.064 178.876 320.478 179.398 320.766 180.07C321.054 180.73 321.198 181.516 321.198 182.428C321.198 183.436 321.012 184.3 320.64 185.02C320.268 185.728 319.782 186.274 319.182 186.658C318.594 187.03 317.958 187.216 317.274 187.216ZM316.86 185.506C317.268 185.506 317.64 185.392 317.976 185.164C318.312 184.936 318.576 184.6 318.768 184.156C318.96 183.7 319.056 183.136 319.056 182.464C319.056 181.876 318.984 181.372 318.84 180.952C318.696 180.532 318.474 180.214 318.174 179.998C317.886 179.77 317.496 179.656 317.004 179.656C316.668 179.656 316.326 179.74 315.978 179.908C315.63 180.076 315.276 180.346 314.916 180.718V184.696C315.24 184.984 315.576 185.194 315.924 185.326C316.272 185.446 316.584 185.506 316.86 185.506ZM327.545 187.216C327.041 187.216 326.615 187.042 326.267 186.694C325.931 186.346 325.763 185.914 325.763 185.398C325.763 184.87 325.931 184.438 326.267 184.102C326.615 183.754 327.041 183.58 327.545 183.58C328.061 183.58 328.487 183.754 328.823 184.102C329.159 184.438 329.327 184.87 329.327 185.398C329.327 185.914 329.159 186.346 328.823 186.694C328.487 187.042 328.061 187.216 327.545 187.216ZM339.13 187.216C338.206 187.216 337.372 187.036 336.628 186.676C335.896 186.304 335.314 185.776 334.882 185.092C334.462 184.396 334.252 183.562 334.252 182.59C334.252 181.606 334.48 180.772 334.936 180.088C335.404 179.392 336.022 178.864 336.79 178.504C337.558 178.132 338.386 177.946 339.274 177.946C339.994 177.946 340.63 178.066 341.182 178.306C341.734 178.534 342.19 178.828 342.55 179.188L341.56 180.484C341.212 180.208 340.858 179.998 340.498 179.854C340.15 179.71 339.778 179.638 339.382 179.638C338.794 179.638 338.272 179.764 337.816 180.016C337.372 180.256 337.024 180.598 336.772 181.042C336.52 181.486 336.394 182.002 336.394 182.59C336.394 183.178 336.514 183.694 336.754 184.138C337.006 184.582 337.348 184.924 337.78 185.164C338.224 185.404 338.74 185.524 339.328 185.524C339.832 185.524 340.294 185.428 340.714 185.236C341.134 185.044 341.512 184.816 341.848 184.552L342.712 185.884C342.208 186.316 341.644 186.646 341.02 186.874C340.396 187.102 339.766 187.216 339.13 187.216ZM349.13 187.216C348.35 187.216 347.624 187.036 346.952 186.676C346.28 186.304 345.734 185.776 345.314 185.092C344.894 184.396 344.684 183.562 344.684 182.59C344.684 181.606 344.894 180.772 345.314 180.088C345.734 179.392 346.28 178.864 346.952 178.504C347.624 178.132 348.35 177.946 349.13 177.946C349.91 177.946 350.636 178.132 351.308 178.504C351.98 178.864 352.526 179.392 352.946 180.088C353.366 180.772 353.576 181.606 353.576 182.59C353.576 183.562 353.366 184.396 352.946 185.092C352.526 185.776 351.98 186.304 351.308 186.676C350.636 187.036 349.91 187.216 349.13 187.216ZM349.13 185.524C349.61 185.524 350.024 185.404 350.372 185.164C350.72 184.924 350.984 184.582 351.164 184.138C351.344 183.694 351.434 183.178 351.434 182.59C351.434 182.002 351.344 181.486 351.164 181.042C350.984 180.598 350.72 180.256 350.372 180.016C350.024 179.764 349.61 179.638 349.13 179.638C348.65 179.638 348.236 179.764 347.888 180.016C347.552 180.256 347.288 180.598 347.096 181.042C346.916 181.486 346.826 182.002 346.826 182.59C346.826 183.178 346.916 183.694 347.096 184.138C347.288 184.582 347.552 184.924 347.888 185.164C348.236 185.404 348.65 185.524 349.13 185.524ZM355.351 187V178.162H356.953L357.115 179.278H357.169C357.361 178.894 357.607 178.576 357.907 178.324C358.207 178.072 358.615 177.946 359.131 177.946C359.539 177.946 359.881 178.072 360.157 178.324C360.433 178.564 360.625 178.93 360.733 179.422C360.937 178.99 361.195 178.636 361.507 178.36C361.819 178.084 362.233 177.946 362.749 177.946C363.373 177.946 363.853 178.192 364.189 178.684C364.537 179.164 364.711 179.848 364.711 180.736V187H362.713V180.88C362.713 180.1 362.479 179.71 362.011 179.71C361.771 179.71 361.567 179.8 361.399 179.98C361.243 180.16 361.075 180.442 360.895 180.826V187H359.167V180.88C359.167 180.496 359.113 180.208 359.005 180.016C358.897 179.812 358.717 179.71 358.465 179.71C358.237 179.71 358.039 179.8 357.871 179.98C357.703 180.16 357.535 180.442 357.367 180.826V187H355.351ZM366.864 189.88L372.786 174.22H374.568L368.646 189.88H366.864ZM61.2843 216.298L54.4443 211.762V210.286L61.2843 205.75V207.676L56.1903 210.988V211.06L61.2843 214.372V216.298ZM67.3253 217.216C66.2933 217.216 65.5433 216.904 65.0753 216.28C64.6073 215.656 64.3733 214.774 64.3733 213.634V208.162H66.4433V213.364C66.4433 214.072 66.5633 214.594 66.8033 214.93C67.0553 215.266 67.4873 215.434 68.0993 215.434C68.5073 215.434 68.8793 215.338 69.2153 215.146C69.5633 214.942 69.9293 214.6 70.3133 214.12V208.162H72.3833V217H70.6913L70.5293 215.596H70.4573C70.0373 216.076 69.5753 216.466 69.0713 216.766C68.5673 217.066 67.9853 217.216 67.3253 217.216ZM79.3603 217.216C78.5323 217.216 77.7403 217.084 76.9843 216.82C76.2283 216.544 75.5743 216.22 75.0223 215.848L75.9223 214.534C76.4503 214.882 77.0203 215.158 77.6323 215.362C78.2443 215.554 78.9103 215.65 79.6303 215.65C80.2423 215.65 80.6923 215.548 80.9803 215.344C81.2803 215.128 81.4303 214.876 81.4303 214.588C81.4303 214.444 81.3943 214.312 81.3223 214.192C81.2623 214.072 81.1483 213.964 80.9803 213.868C80.8123 213.76 80.5663 213.658 80.2423 213.562C79.9183 213.466 79.4983 213.364 78.9823 213.256C77.8063 213.004 76.9423 212.662 76.3903 212.23C75.8383 211.798 75.5623 211.252 75.5623 210.592C75.5623 209.812 75.8983 209.176 76.5703 208.684C77.2543 208.192 78.2143 207.946 79.4503 207.946C80.1823 207.946 80.8663 208.066 81.5023 208.306C82.1503 208.546 82.6963 208.816 83.1403 209.116L82.1863 210.394C81.7663 210.106 81.3043 209.89 80.8003 209.746C80.2963 209.59 79.7863 209.512 79.2703 209.512C78.8743 209.512 78.5563 209.554 78.3163 209.638C78.0883 209.722 77.9143 209.842 77.7943 209.998C77.6863 210.142 77.6323 210.304 77.6323 210.484C77.6323 210.796 77.8123 211.03 78.1723 211.186C78.5323 211.342 79.1203 211.51 79.9363 211.69C80.8843 211.894 81.6163 212.128 82.1323 212.392C82.6483 212.644 83.0023 212.938 83.1943 213.274C83.3983 213.598 83.5003 214 83.5003 214.48C83.5003 214.984 83.3383 215.446 83.0143 215.866C82.7023 216.274 82.2403 216.604 81.6283 216.856C81.0163 217.096 80.2603 217.216 79.3603 217.216ZM90.6392 217.216C89.7392 217.216 88.9232 217.036 88.1912 216.676C87.4592 216.304 86.8772 215.776 86.4452 215.092C86.0132 214.396 85.7972 213.556 85.7972 212.572C85.7972 211.612 86.0132 210.79 86.4452 210.106C86.8772 209.41 87.4412 208.876 88.1372 208.504C88.8332 208.132 89.5772 207.946 90.3692 207.946C91.2452 207.946 91.9832 208.126 92.5832 208.486C93.1952 208.846 93.6572 209.344 93.9692 209.98C94.2932 210.604 94.4552 211.324 94.4552 212.14C94.4552 212.344 94.4432 212.542 94.4192 212.734C94.4072 212.914 94.3892 213.064 94.3652 213.184H87.2912V211.708H93.0332L92.6372 212.176C92.6372 211.3 92.4392 210.646 92.0432 210.214C91.6592 209.77 91.1192 209.548 90.4232 209.548C89.9312 209.548 89.4872 209.662 89.0912 209.89C88.7072 210.118 88.4012 210.46 88.1732 210.916C87.9452 211.36 87.8312 211.912 87.8312 212.572C87.8312 213.256 87.9572 213.82 88.2092 214.264C88.4732 214.708 88.8332 215.044 89.2892 215.272C89.7572 215.5 90.2972 215.614 90.9092 215.614C91.3772 215.614 91.8092 215.548 92.2052 215.416C92.6012 215.284 92.9972 215.104 93.3932 214.876L94.0952 216.172C93.6272 216.472 93.0992 216.724 92.5112 216.928C91.9232 217.12 91.2992 217.216 90.6392 217.216ZM97.8322 217V208.162H99.5422L99.7222 210.16H99.7762C100.22 209.44 100.766 208.894 101.414 208.522C102.074 208.138 102.782 207.946 103.538 207.946C103.898 207.946 104.21 207.976 104.474 208.036C104.738 208.096 104.996 208.186 105.248 208.306L104.816 210.052C104.528 209.956 104.27 209.89 104.042 209.854C103.826 209.806 103.55 209.782 103.214 209.782C102.614 209.782 102.026 209.956 101.45 210.304C100.886 210.652 100.376 211.258 99.9202 212.122V217H97.8322ZM107.761 217V208.162H109.471L109.633 209.494H109.705C110.125 209.062 110.587 208.696 111.091 208.396C111.607 208.096 112.207 207.946 112.891 207.946C113.911 207.946 114.661 208.258 115.141 208.882C115.621 209.506 115.861 210.388 115.861 211.528V217H113.773V211.798C113.773 211.09 113.647 210.568 113.395 210.232C113.143 209.896 112.717 209.728 112.117 209.728C111.685 209.728 111.301 209.83 110.965 210.034C110.629 210.238 110.257 210.55 109.849 210.97V217H107.761ZM121.308 217.216C120.732 217.216 120.222 217.108 119.778 216.892C119.334 216.664 118.986 216.358 118.734 215.974C118.482 215.59 118.356 215.14 118.356 214.624C118.356 213.64 118.824 212.89 119.76 212.374C120.708 211.846 122.274 211.504 124.458 211.348C124.434 211.024 124.344 210.73 124.188 210.466C124.044 210.202 123.822 209.998 123.522 209.854C123.222 209.698 122.832 209.62 122.352 209.62C122.016 209.62 121.686 209.662 121.362 209.746C121.038 209.83 120.714 209.944 120.39 210.088C120.078 210.232 119.766 210.388 119.454 210.556L118.698 209.17C119.058 208.954 119.454 208.756 119.886 208.576C120.318 208.384 120.774 208.234 121.254 208.126C121.734 208.006 122.226 207.946 122.73 207.946C123.558 207.946 124.248 208.096 124.8 208.396C125.364 208.684 125.79 209.116 126.078 209.692C126.378 210.256 126.528 210.946 126.528 211.762V217H124.836L124.674 215.902H124.62C124.152 216.262 123.63 216.574 123.054 216.838C122.49 217.09 121.908 217.216 121.308 217.216ZM121.938 215.596C122.382 215.596 122.808 215.5 123.216 215.308C123.636 215.104 124.05 214.84 124.458 214.516V212.644C123.402 212.716 122.574 212.836 121.974 213.004C121.374 213.16 120.954 213.364 120.714 213.616C120.474 213.868 120.354 214.15 120.354 214.462C120.354 214.726 120.426 214.942 120.57 215.11C120.714 215.278 120.9 215.404 121.128 215.488C121.368 215.56 121.638 215.596 121.938 215.596ZM128.699 217V208.162H130.301L130.463 209.278H130.517C130.709 208.894 130.955 208.576 131.255 208.324C131.555 208.072 131.963 207.946 132.479 207.946C132.887 207.946 133.229 208.072 133.505 208.324C133.781 208.564 133.973 208.93 134.081 209.422C134.285 208.99 134.543 208.636 134.855 208.36C135.167 208.084 135.581 207.946 136.097 207.946C136.721 207.946 137.201 208.192 137.537 208.684C137.885 209.164 138.059 209.848 138.059 210.736V217H136.061V210.88C136.061 210.1 135.827 209.71 135.359 209.71C135.119 209.71 134.915 209.8 134.747 209.98C134.591 210.16 134.423 210.442 134.243 210.826V217H132.515V210.88C132.515 210.496 132.461 210.208 132.353 210.016C132.245 209.812 132.065 209.71 131.813 209.71C131.585 209.71 131.387 209.8 131.219 209.98C131.051 210.16 130.883 210.442 130.715 210.826V217H128.699ZM144.604 217.216C143.704 217.216 142.888 217.036 142.156 216.676C141.424 216.304 140.842 215.776 140.41 215.092C139.978 214.396 139.762 213.556 139.762 212.572C139.762 211.612 139.978 210.79 140.41 210.106C140.842 209.41 141.406 208.876 142.102 208.504C142.798 208.132 143.542 207.946 144.334 207.946C145.21 207.946 145.948 208.126 146.548 208.486C147.16 208.846 147.622 209.344 147.934 209.98C148.258 210.604 148.42 211.324 148.42 212.14C148.42 212.344 148.408 212.542 148.384 212.734C148.372 212.914 148.354 213.064 148.33 213.184H141.256V211.708H146.998L146.602 212.176C146.602 211.3 146.404 210.646 146.008 210.214C145.624 209.77 145.084 209.548 144.388 209.548C143.896 209.548 143.452 209.662 143.056 209.89C142.672 210.118 142.366 210.46 142.138 210.916C141.91 211.36 141.796 211.912 141.796 212.572C141.796 213.256 141.922 213.82 142.174 214.264C142.438 214.708 142.798 215.044 143.254 215.272C143.722 215.5 144.262 215.614 144.874 215.614C145.342 215.614 145.774 215.548 146.17 215.416C146.566 215.284 146.962 215.104 147.358 214.876L148.06 216.172C147.592 216.472 147.064 216.724 146.476 216.928C145.888 217.12 145.264 217.216 144.604 217.216ZM150.537 219.736V218.116H159.177V219.736H150.537ZM165.65 217.216C164.87 217.216 164.144 217.036 163.472 216.676C162.8 216.304 162.254 215.776 161.834 215.092C161.414 214.396 161.204 213.562 161.204 212.59C161.204 211.606 161.414 210.772 161.834 210.088C162.254 209.392 162.8 208.864 163.472 208.504C164.144 208.132 164.87 207.946 165.65 207.946C166.43 207.946 167.156 208.132 167.828 208.504C168.5 208.864 169.046 209.392 169.466 210.088C169.886 210.772 170.096 211.606 170.096 212.59C170.096 213.562 169.886 214.396 169.466 215.092C169.046 215.776 168.5 216.304 167.828 216.676C167.156 217.036 166.43 217.216 165.65 217.216ZM165.65 215.524C166.13 215.524 166.544 215.404 166.892 215.164C167.24 214.924 167.504 214.582 167.684 214.138C167.864 213.694 167.954 213.178 167.954 212.59C167.954 212.002 167.864 211.486 167.684 211.042C167.504 210.598 167.24 210.256 166.892 210.016C166.544 209.764 166.13 209.638 165.65 209.638C165.17 209.638 164.756 209.764 164.408 210.016C164.072 210.256 163.808 210.598 163.616 211.042C163.436 211.486 163.346 212.002 163.346 212.59C163.346 213.178 163.436 213.694 163.616 214.138C163.808 214.582 164.072 214.924 164.408 215.164C164.756 215.404 165.17 215.524 165.65 215.524ZM173.383 217V208.162H175.093L175.273 210.16H175.327C175.771 209.44 176.317 208.894 176.965 208.522C177.625 208.138 178.333 207.946 179.089 207.946C179.449 207.946 179.761 207.976 180.025 208.036C180.289 208.096 180.547 208.186 180.799 208.306L180.367 210.052C180.079 209.956 179.821 209.89 179.593 209.854C179.377 209.806 179.101 209.782 178.765 209.782C178.165 209.782 177.577 209.956 177.001 210.304C176.437 210.652 175.927 211.258 175.471 212.122V217H173.383ZM182.916 219.736V218.116H191.556V219.736H182.916ZM198.029 217.216C197.249 217.216 196.523 217.036 195.851 216.676C195.179 216.304 194.633 215.776 194.213 215.092C193.793 214.396 193.583 213.562 193.583 212.59C193.583 211.606 193.793 210.772 194.213 210.088C194.633 209.392 195.179 208.864 195.851 208.504C196.523 208.132 197.249 207.946 198.029 207.946C198.809 207.946 199.535 208.132 200.207 208.504C200.879 208.864 201.425 209.392 201.845 210.088C202.265 210.772 202.475 211.606 202.475 212.59C202.475 213.562 202.265 214.396 201.845 215.092C201.425 215.776 200.879 216.304 200.207 216.676C199.535 217.036 198.809 217.216 198.029 217.216ZM198.029 215.524C198.509 215.524 198.923 215.404 199.271 215.164C199.619 214.924 199.883 214.582 200.063 214.138C200.243 213.694 200.333 213.178 200.333 212.59C200.333 212.002 200.243 211.486 200.063 211.042C199.883 210.598 199.619 210.256 199.271 210.016C198.923 209.764 198.509 209.638 198.029 209.638C197.549 209.638 197.135 209.764 196.787 210.016C196.451 210.256 196.187 210.598 195.995 211.042C195.815 211.486 195.725 212.002 195.725 212.59C195.725 213.178 195.815 213.694 195.995 214.138C196.187 214.582 196.451 214.924 196.787 215.164C197.135 215.404 197.549 215.524 198.029 215.524ZM205.762 217V208.162H207.472L207.652 210.16H207.706C208.15 209.44 208.696 208.894 209.344 208.522C210.004 208.138 210.712 207.946 211.468 207.946C211.828 207.946 212.14 207.976 212.404 208.036C212.668 208.096 212.926 208.186 213.178 208.306L212.746 210.052C212.458 209.956 212.2 209.89 211.972 209.854C211.756 209.806 211.48 209.782 211.144 209.782C210.544 209.782 209.956 209.956 209.38 210.304C208.816 210.652 208.306 211.258 207.85 212.122V217H205.762ZM219.363 220.906C218.547 220.906 217.839 220.816 217.239 220.636C216.639 220.468 216.171 220.21 215.835 219.862C215.499 219.514 215.331 219.076 215.331 218.548C215.331 218.2 215.451 217.864 215.691 217.54C215.931 217.216 216.279 216.934 216.735 216.694V216.622C216.507 216.478 216.297 216.292 216.105 216.064C215.925 215.824 215.835 215.518 215.835 215.146C215.835 214.858 215.931 214.564 216.123 214.264C216.315 213.964 216.573 213.706 216.897 213.49V213.418C216.585 213.19 216.315 212.884 216.087 212.5C215.871 212.104 215.763 211.648 215.763 211.132C215.763 210.448 215.931 209.872 216.267 209.404C216.603 208.924 217.047 208.564 217.599 208.324C218.151 208.072 218.751 207.946 219.399 207.946C219.927 207.946 220.389 208.018 220.785 208.162H224.403V209.746H222.369C222.525 209.914 222.657 210.13 222.765 210.394C222.885 210.646 222.945 210.916 222.945 211.204C222.945 211.852 222.783 212.404 222.459 212.86C222.147 213.304 221.727 213.64 221.199 213.868C220.671 214.096 220.071 214.21 219.399 214.21C219.195 214.21 218.973 214.192 218.733 214.156C218.505 214.108 218.277 214.042 218.049 213.958C217.869 214.066 217.731 214.186 217.635 214.318C217.551 214.45 217.509 214.606 217.509 214.786C217.509 215.062 217.647 215.272 217.923 215.416C218.211 215.548 218.631 215.614 219.183 215.614H220.983C222.135 215.614 222.999 215.782 223.575 216.118C224.163 216.442 224.457 216.994 224.457 217.774C224.457 218.35 224.247 218.878 223.827 219.358C223.419 219.838 222.831 220.216 222.063 220.492C221.307 220.768 220.407 220.906 219.363 220.906ZM219.399 212.896C219.711 212.896 219.993 212.83 220.245 212.698C220.497 212.554 220.695 212.35 220.839 212.086C220.995 211.822 221.073 211.504 221.073 211.132C221.073 210.772 220.995 210.466 220.839 210.214C220.695 209.95 220.497 209.746 220.245 209.602C219.993 209.458 219.711 209.386 219.399 209.386C219.099 209.386 218.823 209.458 218.571 209.602C218.319 209.746 218.115 209.95 217.959 210.214C217.803 210.466 217.725 210.772 217.725 211.132C217.725 211.504 217.803 211.822 217.959 212.086C218.115 212.35 218.319 212.554 218.571 212.698C218.823 212.83 219.099 212.896 219.399 212.896ZM219.615 219.538C220.191 219.538 220.689 219.472 221.109 219.34C221.541 219.208 221.871 219.034 222.099 218.818C222.339 218.602 222.459 218.368 222.459 218.116C222.459 217.768 222.309 217.534 222.009 217.414C221.721 217.306 221.277 217.252 220.677 217.252H219.273C218.985 217.252 218.733 217.24 218.517 217.216C218.301 217.192 218.103 217.162 217.923 217.126C217.611 217.306 217.389 217.492 217.257 217.684C217.125 217.876 217.059 218.074 217.059 218.278C217.059 218.674 217.281 218.98 217.725 219.196C218.169 219.424 218.799 219.538 219.615 219.538ZM226.484 217V208.162H228.194L228.356 209.494H228.428C228.848 209.062 229.31 208.696 229.814 208.396C230.33 208.096 230.93 207.946 231.614 207.946C232.634 207.946 233.384 208.258 233.864 208.882C234.344 209.506 234.584 210.388 234.584 211.528V217H232.496V211.798C232.496 211.09 232.37 210.568 232.118 210.232C231.866 209.896 231.44 209.728 230.84 209.728C230.408 209.728 230.024 209.83 229.688 210.034C229.352 210.238 228.98 210.55 228.572 210.97V217H226.484ZM240.031 217.216C239.455 217.216 238.945 217.108 238.501 216.892C238.057 216.664 237.709 216.358 237.457 215.974C237.205 215.59 237.079 215.14 237.079 214.624C237.079 213.64 237.547 212.89 238.483 212.374C239.431 211.846 240.997 211.504 243.181 211.348C243.157 211.024 243.067 210.73 242.911 210.466C242.767 210.202 242.545 209.998 242.245 209.854C241.945 209.698 241.555 209.62 241.075 209.62C240.739 209.62 240.409 209.662 240.085 209.746C239.761 209.83 239.437 209.944 239.113 210.088C238.801 210.232 238.489 210.388 238.177 210.556L237.421 209.17C237.781 208.954 238.177 208.756 238.609 208.576C239.041 208.384 239.497 208.234 239.977 208.126C240.457 208.006 240.949 207.946 241.453 207.946C242.281 207.946 242.971 208.096 243.523 208.396C244.087 208.684 244.513 209.116 244.801 209.692C245.101 210.256 245.251 210.946 245.251 211.762V217H243.559L243.397 215.902H243.343C242.875 216.262 242.353 216.574 241.777 216.838C241.213 217.09 240.631 217.216 240.031 217.216ZM240.661 215.596C241.105 215.596 241.531 215.5 241.939 215.308C242.359 215.104 242.773 214.84 243.181 214.516V212.644C242.125 212.716 241.297 212.836 240.697 213.004C240.097 213.16 239.677 213.364 239.437 213.616C239.197 213.868 239.077 214.15 239.077 214.462C239.077 214.726 239.149 214.942 239.293 215.11C239.437 215.278 239.623 215.404 239.851 215.488C240.091 215.56 240.361 215.596 240.661 215.596ZM247.422 217V208.162H249.024L249.186 209.278H249.24C249.432 208.894 249.678 208.576 249.978 208.324C250.278 208.072 250.686 207.946 251.202 207.946C251.61 207.946 251.952 208.072 252.228 208.324C252.504 208.564 252.696 208.93 252.804 209.422C253.008 208.99 253.266 208.636 253.578 208.36C253.89 208.084 254.304 207.946 254.82 207.946C255.444 207.946 255.924 208.192 256.26 208.684C256.608 209.164 256.782 209.848 256.782 210.736V217H254.784V210.88C254.784 210.1 254.55 209.71 254.082 209.71C253.842 209.71 253.638 209.8 253.47 209.98C253.314 210.16 253.146 210.442 252.966 210.826V217H251.238V210.88C251.238 210.496 251.184 210.208 251.076 210.016C250.968 209.812 250.788 209.71 250.536 209.71C250.308 209.71 250.11 209.8 249.942 209.98C249.774 210.16 249.606 210.442 249.438 210.826V217H247.422ZM263.327 217.216C262.427 217.216 261.611 217.036 260.879 216.676C260.147 216.304 259.565 215.776 259.133 215.092C258.701 214.396 258.485 213.556 258.485 212.572C258.485 211.612 258.701 210.79 259.133 210.106C259.565 209.41 260.129 208.876 260.825 208.504C261.521 208.132 262.265 207.946 263.057 207.946C263.933 207.946 264.671 208.126 265.271 208.486C265.883 208.846 266.345 209.344 266.657 209.98C266.981 210.604 267.143 211.324 267.143 212.14C267.143 212.344 267.131 212.542 267.107 212.734C267.095 212.914 267.077 213.064 267.053 213.184H259.979V211.708H265.721L265.325 212.176C265.325 211.3 265.127 210.646 264.731 210.214C264.347 209.77 263.807 209.548 263.111 209.548C262.619 209.548 262.175 209.662 261.779 209.89C261.395 210.118 261.089 210.46 260.861 210.916C260.633 211.36 260.519 211.912 260.519 212.572C260.519 213.256 260.645 213.82 260.897 214.264C261.161 214.708 261.521 215.044 261.977 215.272C262.445 215.5 262.985 215.614 263.597 215.614C264.065 215.614 264.497 215.548 264.893 215.416C265.289 215.284 265.685 215.104 266.081 214.876L266.783 216.172C266.315 216.472 265.787 216.724 265.199 216.928C264.611 217.12 263.987 217.216 263.327 217.216ZM270.016 216.298V214.372L275.11 211.06V210.988L270.016 207.676V205.75L276.856 210.286V211.762L270.016 216.298Z" fill="white"/>
<defs>
<filter id="filter0_d_2186_65289" x="0" y="0" width="533" height="354" filterUnits="userSpaceOnUse" color-interpolation-filters="sRGB">
<feFlood flood-opacity="0" result="BackgroundImageFix"/>
<feColorMatrix in="SourceAlpha" type="matrix" values="0 0 0 0 0 0 0 0 0 0 0 0 0 0 0 0 0 0 127 0" result="hardAlpha"/>
<feOffset dy="5"/>
<feGaussianBlur stdDeviation="15.5"/>
<feComposite in2="hardAlpha" operator="out"/>
<feColorMatrix type="matrix" values="0 0 0 0 0 0 0 0 0 0 0 0 0 0 0 0 0 0 0.1 0"/>
<feBlend mode="normal" in2="BackgroundImageFix" result="effect1_dropShadow_2186_65289"/>
<feBlend mode="normal" in="SourceGraphic" in2="effect1_dropShadow_2186_65289" result="shape"/>
</filter>
</defs>
</svg>
