<svg width="548" height="354" viewBox="0 0 548 354" fill="none" xmlns="http://www.w3.org/2000/svg">
<g filter="url(#filter0_d_2186_65300)">
<rect x="31" y="26" width="486" height="292" rx="12" fill="#111111"/>
</g>
<circle cx="53" cy="44" r="7" fill="#ED6A5D"/>
<circle cx="75" cy="44" r="7" fill="#F5C04F"/>
<circle cx="97" cy="44" r="7" fill="#61C654"/>
<line x1="31" y1="61.5" x2="125" y2="61.5" stroke="#333333"/>
<line x1="222" y1="61.5" x2="517" y2="61.5" stroke="#333333"/>
<line x1="124.5" y1="61" x2="124.5" y2="26" stroke="#333333"/>
<line x1="222.5" y1="61" x2="222.5" y2="26" stroke="#333333"/>
<path opacity="0.7" d="M139.98 56V45.92H146.049V47.607H141.667V50.12H145.209V51.8H141.667V56H139.98ZM149.149 56.21C148.603 56.21 148.141 56.1073 147.763 55.902C147.385 55.692 147.098 55.4143 146.902 55.069C146.71 54.7237 146.615 54.3433 146.615 53.928C146.615 53.564 146.675 53.2373 146.797 52.948C146.918 52.654 147.105 52.402 147.357 52.192C147.609 51.9773 147.935 51.8023 148.337 51.667C148.64 51.569 148.995 51.4803 149.401 51.401C149.811 51.3217 150.255 51.2493 150.731 51.184C151.211 51.114 151.713 51.0393 152.236 50.96L151.634 51.303C151.638 50.7803 151.522 50.3953 151.284 50.148C151.046 49.9007 150.644 49.777 150.08 49.777C149.739 49.777 149.41 49.8563 149.093 50.015C148.775 50.1737 148.554 50.4467 148.428 50.834L146.888 50.351C147.074 49.7117 147.429 49.1983 147.952 48.811C148.479 48.4237 149.188 48.23 150.08 48.23C150.752 48.23 151.342 48.3397 151.851 48.559C152.364 48.7783 152.744 49.1377 152.992 49.637C153.127 49.903 153.209 50.176 153.237 50.456C153.265 50.7313 153.279 51.0323 153.279 51.359V56H151.802V54.362L152.047 54.628C151.706 55.174 151.307 55.5753 150.85 55.832C150.397 56.084 149.83 56.21 149.149 56.21ZM149.485 54.866C149.867 54.866 150.194 54.7983 150.465 54.663C150.735 54.5277 150.95 54.362 151.109 54.166C151.272 53.97 151.382 53.7857 151.438 53.613C151.526 53.3983 151.575 53.1533 151.585 52.878C151.599 52.598 151.606 52.3717 151.606 52.199L152.124 52.353C151.615 52.4323 151.179 52.5023 150.815 52.563C150.451 52.6237 150.138 52.682 149.877 52.738C149.615 52.7893 149.384 52.8477 149.184 52.913C148.988 52.983 148.822 53.0647 148.687 53.158C148.551 53.2513 148.446 53.3587 148.372 53.48C148.302 53.6013 148.267 53.7437 148.267 53.907C148.267 54.0937 148.313 54.2593 148.407 54.404C148.5 54.544 148.635 54.656 148.813 54.74C148.995 54.824 149.219 54.866 149.485 54.866ZM158.02 56.21C157.087 56.21 156.328 56 155.745 55.58C155.162 55.16 154.807 54.5697 154.681 53.809L156.403 53.543C156.492 53.9163 156.688 54.2103 156.991 54.425C157.294 54.6397 157.677 54.747 158.139 54.747C158.545 54.747 158.858 54.6677 159.077 54.509C159.301 54.3457 159.413 54.124 159.413 53.844C159.413 53.6713 159.371 53.5337 159.287 53.431C159.208 53.3237 159.03 53.221 158.755 53.123C158.48 53.025 158.057 52.9013 157.488 52.752C156.853 52.584 156.349 52.4043 155.976 52.213C155.603 52.017 155.334 51.786 155.171 51.52C155.008 51.254 154.926 50.932 154.926 50.554C154.926 50.0827 155.05 49.672 155.297 49.322C155.544 48.972 155.89 48.7037 156.333 48.517C156.776 48.3257 157.299 48.23 157.901 48.23C158.489 48.23 159.009 48.321 159.462 48.503C159.919 48.685 160.288 48.944 160.568 49.28C160.848 49.616 161.021 50.0103 161.086 50.463L159.364 50.771C159.322 50.449 159.175 50.1947 158.923 50.008C158.676 49.8213 158.344 49.7163 157.929 49.693C157.532 49.6697 157.213 49.7303 156.97 49.875C156.727 50.015 156.606 50.2133 156.606 50.47C156.606 50.6147 156.655 50.7383 156.753 50.841C156.851 50.9437 157.047 51.0463 157.341 51.149C157.64 51.2517 158.083 51.3777 158.671 51.527C159.273 51.681 159.754 51.8583 160.113 52.059C160.477 52.255 160.738 52.4907 160.897 52.766C161.06 53.0413 161.142 53.375 161.142 53.767C161.142 54.5277 160.864 55.125 160.309 55.559C159.758 55.993 158.995 56.21 158.02 56.21ZM167.106 56C166.607 56.0933 166.117 56.133 165.636 56.119C165.16 56.1097 164.733 56.0233 164.355 55.86C163.977 55.692 163.69 55.4283 163.494 55.069C163.322 54.7423 163.231 54.4087 163.221 54.068C163.212 53.7273 163.207 53.3423 163.207 52.913V46.34H164.887V52.815C164.887 53.1183 164.89 53.3843 164.894 53.613C164.904 53.8417 164.953 54.0283 165.041 54.173C165.209 54.453 165.478 54.6093 165.846 54.642C166.215 54.6747 166.635 54.656 167.106 54.586V56ZM161.835 49.763V48.44H167.106V49.763H161.835ZM173.961 56V52.36C173.961 52.122 173.945 51.8583 173.912 51.569C173.879 51.2797 173.802 51.002 173.681 50.736C173.564 50.4653 173.387 50.2437 173.149 50.071C172.916 49.8983 172.598 49.812 172.197 49.812C171.982 49.812 171.77 49.847 171.56 49.917C171.35 49.987 171.159 50.1083 170.986 50.281C170.818 50.449 170.683 50.6823 170.58 50.981C170.477 51.275 170.426 51.653 170.426 52.115L169.425 51.688C169.425 51.044 169.549 50.4607 169.796 49.938C170.048 49.4153 170.417 49 170.902 48.692C171.387 48.3793 171.985 48.223 172.694 48.223C173.254 48.223 173.716 48.3163 174.08 48.503C174.444 48.6897 174.733 48.9277 174.948 49.217C175.163 49.5063 175.321 49.8143 175.424 50.141C175.527 50.4677 175.592 50.778 175.62 51.072C175.653 51.3613 175.669 51.597 175.669 51.779V56H173.961ZM168.718 56V48.44H170.223V50.785H170.426V56H168.718ZM177.776 56V54.271H179.505V56H177.776ZM185.031 56.21C184.251 56.21 183.586 56.0373 183.036 55.692C182.485 55.342 182.063 54.866 181.769 54.264C181.479 53.662 181.332 52.9807 181.328 52.22C181.332 51.4453 181.484 50.7593 181.783 50.162C182.086 49.56 182.515 49.0887 183.071 48.748C183.626 48.4027 184.286 48.23 185.052 48.23C185.91 48.23 186.636 48.447 187.229 48.881C187.826 49.3103 188.216 49.8983 188.398 50.645L186.718 51.1C186.587 50.694 186.37 50.379 186.067 50.155C185.763 49.9263 185.418 49.812 185.031 49.812C184.592 49.812 184.23 49.917 183.946 50.127C183.661 50.3323 183.451 50.617 183.316 50.981C183.18 51.345 183.113 51.758 183.113 52.22C183.113 52.9387 183.274 53.5197 183.596 53.963C183.918 54.4063 184.396 54.628 185.031 54.628C185.479 54.628 185.831 54.5253 186.088 54.32C186.349 54.1147 186.545 53.8183 186.676 53.431L188.398 53.816C188.164 54.586 187.756 55.1787 187.173 55.594C186.589 56.0047 185.875 56.21 185.031 56.21ZM192.934 56.21C192.178 56.21 191.518 56.0397 190.953 55.699C190.389 55.3583 189.95 54.8893 189.637 54.292C189.329 53.69 189.175 52.9993 189.175 52.22C189.175 51.4267 189.334 50.7313 189.651 50.134C189.969 49.5367 190.41 49.07 190.974 48.734C191.539 48.398 192.192 48.23 192.934 48.23C193.695 48.23 194.358 48.4003 194.922 48.741C195.487 49.0817 195.926 49.553 196.238 50.155C196.551 50.7523 196.707 51.4407 196.707 52.22C196.707 53.004 196.549 53.697 196.231 54.299C195.919 54.8963 195.48 55.3653 194.915 55.706C194.351 56.042 193.69 56.21 192.934 56.21ZM192.934 54.628C193.606 54.628 194.106 54.404 194.432 53.956C194.759 53.508 194.922 52.9293 194.922 52.22C194.922 51.4873 194.757 50.904 194.425 50.47C194.094 50.0313 193.597 49.812 192.934 49.812C192.482 49.812 192.108 49.9147 191.814 50.12C191.525 50.3207 191.31 50.603 191.17 50.967C191.03 51.3263 190.96 51.744 190.96 52.22C190.96 52.9527 191.126 53.5383 191.457 53.977C191.793 54.411 192.286 54.628 192.934 54.628ZM207.329 56V51.408C207.329 50.89 207.2 50.4863 206.944 50.197C206.687 49.903 206.339 49.756 205.901 49.756C205.63 49.756 205.387 49.819 205.173 49.945C204.958 50.0663 204.788 50.2483 204.662 50.491C204.536 50.729 204.473 51.0137 204.473 51.345L203.724 50.904C203.719 50.3813 203.836 49.9217 204.074 49.525C204.316 49.1237 204.643 48.811 205.054 48.587C205.464 48.363 205.922 48.251 206.426 48.251C207.261 48.251 207.9 48.503 208.344 49.007C208.792 49.5063 209.016 50.1643 209.016 50.981V56H207.329ZM198.236 56V48.44H199.727V50.785H199.937V56H198.236ZM202.793 56V51.429C202.793 50.9017 202.664 50.491 202.408 50.197C202.151 49.903 201.801 49.756 201.358 49.756C200.928 49.756 200.583 49.903 200.322 50.197C200.065 50.491 199.937 50.8737 199.937 51.345L199.181 50.841C199.181 50.351 199.302 49.91 199.545 49.518C199.787 49.126 200.114 48.818 200.525 48.594C200.94 48.3653 201.404 48.251 201.918 48.251C202.482 48.251 202.954 48.3723 203.332 48.615C203.714 48.853 203.999 49.1797 204.186 49.595C204.377 50.0057 204.473 50.47 204.473 50.988V56H202.793Z" fill="white"/>
<path d="M54.404 121.816V120.304H62.396V121.816H54.404ZM65.197 121.816V120.304H73.189V121.816H65.197ZM90.7249 127V119.8H86.8909V118.162H92.7949V127H90.7249ZM91.6069 116.542C91.1869 116.542 90.8329 116.416 90.5449 116.164C90.2689 115.912 90.1309 115.576 90.1309 115.156C90.1309 114.736 90.2689 114.4 90.5449 114.148C90.8329 113.884 91.1869 113.752 91.6069 113.752C92.0389 113.752 92.3929 113.884 92.6689 114.148C92.9449 114.4 93.0829 114.736 93.0829 115.156C93.0829 115.576 92.9449 115.912 92.6689 116.164C92.3929 116.416 92.0389 116.542 91.6069 116.542ZM96.9999 127V118.162H98.6019L98.7639 119.278H98.8179C99.0099 118.894 99.2559 118.576 99.5559 118.324C99.8559 118.072 100.264 117.946 100.78 117.946C101.188 117.946 101.53 118.072 101.806 118.324C102.082 118.564 102.274 118.93 102.382 119.422C102.586 118.99 102.844 118.636 103.156 118.36C103.468 118.084 103.882 117.946 104.398 117.946C105.022 117.946 105.502 118.192 105.838 118.684C106.186 119.164 106.36 119.848 106.36 120.736V127H104.362V120.88C104.362 120.1 104.128 119.71 103.66 119.71C103.42 119.71 103.216 119.8 103.048 119.98C102.892 120.16 102.724 120.442 102.544 120.826V127H100.816V120.88C100.816 120.496 100.762 120.208 100.654 120.016C100.546 119.812 100.366 119.71 100.114 119.71C99.8859 119.71 99.6879 119.8 99.5199 119.98C99.3519 120.16 99.1839 120.442 99.0159 120.826V127H96.9999ZM108.441 130.492V118.162H110.151L110.313 119.17H110.367C110.751 118.81 111.189 118.516 111.681 118.288C112.185 118.06 112.689 117.946 113.193 117.946C113.973 117.946 114.627 118.132 115.155 118.504C115.683 118.876 116.091 119.398 116.379 120.07C116.667 120.742 116.811 121.534 116.811 122.446C116.811 123.454 116.625 124.312 116.253 125.02C115.881 125.728 115.395 126.274 114.795 126.658C114.207 127.03 113.571 127.216 112.887 127.216C112.491 127.216 112.077 127.126 111.645 126.946C111.225 126.766 110.835 126.508 110.475 126.172H110.421L110.529 127.72V130.492H108.441ZM112.455 125.506C112.875 125.506 113.253 125.392 113.589 125.164C113.925 124.936 114.189 124.6 114.381 124.156C114.573 123.7 114.669 123.136 114.669 122.464C114.669 121.876 114.597 121.372 114.453 120.952C114.309 120.532 114.087 120.214 113.787 119.998C113.499 119.77 113.109 119.656 112.617 119.656C112.281 119.656 111.939 119.74 111.591 119.908C111.243 120.076 110.889 120.346 110.529 120.718V124.696C110.853 124.984 111.189 125.194 111.537 125.326C111.885 125.446 112.191 125.506 112.455 125.506ZM123.158 127.216C122.378 127.216 121.652 127.036 120.98 126.676C120.308 126.304 119.762 125.776 119.342 125.092C118.922 124.396 118.712 123.562 118.712 122.59C118.712 121.606 118.922 120.772 119.342 120.088C119.762 119.392 120.308 118.864 120.98 118.504C121.652 118.132 122.378 117.946 123.158 117.946C123.938 117.946 124.664 118.132 125.336 118.504C126.008 118.864 126.554 119.392 126.974 120.088C127.394 120.772 127.604 121.606 127.604 122.59C127.604 123.562 127.394 124.396 126.974 125.092C126.554 125.776 126.008 126.304 125.336 126.676C124.664 127.036 123.938 127.216 123.158 127.216ZM123.158 125.524C123.638 125.524 124.052 125.404 124.4 125.164C124.748 124.924 125.012 124.582 125.192 124.138C125.372 123.694 125.462 123.178 125.462 122.59C125.462 122.002 125.372 121.486 125.192 121.042C125.012 120.598 124.748 120.256 124.4 120.016C124.052 119.764 123.638 119.638 123.158 119.638C122.678 119.638 122.264 119.764 121.916 120.016C121.58 120.256 121.316 120.598 121.124 121.042C120.944 121.486 120.854 122.002 120.854 122.59C120.854 123.178 120.944 123.694 121.124 124.138C121.316 124.582 121.58 124.924 121.916 125.164C122.264 125.404 122.678 125.524 123.158 125.524ZM130.891 127V118.162H132.601L132.781 120.16H132.835C133.279 119.44 133.825 118.894 134.473 118.522C135.133 118.138 135.841 117.946 136.597 117.946C136.957 117.946 137.269 117.976 137.533 118.036C137.797 118.096 138.055 118.186 138.307 118.306L137.875 120.052C137.587 119.956 137.329 119.89 137.101 119.854C136.885 119.806 136.609 119.782 136.273 119.782C135.673 119.782 135.085 119.956 134.509 120.304C133.945 120.652 133.435 121.258 132.979 122.122V127H130.891ZM146.382 127.216C145.482 127.216 144.768 127.06 144.24 126.748C143.712 126.424 143.334 125.98 143.106 125.416C142.878 124.852 142.764 124.198 142.764 123.454V119.8H140.406V118.252L142.854 118.162L143.124 115.39H144.834V118.162H148.866V119.8H144.834V123.436C144.834 123.916 144.9 124.318 145.032 124.642C145.164 124.954 145.38 125.188 145.68 125.344C145.98 125.488 146.376 125.56 146.868 125.56C147.252 125.56 147.6 125.53 147.912 125.47C148.224 125.41 148.524 125.326 148.812 125.218L149.208 126.712C148.812 126.844 148.386 126.958 147.93 127.054C147.474 127.162 146.958 127.216 146.382 127.216ZM155.537 121.096C155.033 121.096 154.607 120.922 154.259 120.574C153.923 120.226 153.755 119.794 153.755 119.278C153.755 118.75 153.923 118.318 154.259 117.982C154.607 117.634 155.033 117.46 155.537 117.46C156.053 117.46 156.479 117.634 156.815 117.982C157.151 118.318 157.319 118.75 157.319 119.278C157.319 119.794 157.151 120.226 156.815 120.574C156.479 120.922 156.053 121.096 155.537 121.096ZM155.537 127.216C155.033 127.216 154.607 127.042 154.259 126.694C153.923 126.346 153.755 125.914 153.755 125.398C153.755 124.87 153.923 124.438 154.259 124.102C154.607 123.754 155.033 123.58 155.537 123.58C156.053 123.58 156.479 123.754 156.815 124.102C157.151 124.438 157.319 124.87 157.319 125.398C157.319 125.914 157.151 126.346 156.815 126.694C156.479 127.042 156.053 127.216 155.537 127.216ZM175.827 127V117.676C175.827 116.98 175.959 116.362 176.223 115.822C176.487 115.27 176.895 114.844 177.447 114.544C177.999 114.232 178.707 114.076 179.571 114.076C180.051 114.076 180.507 114.124 180.939 114.22C181.383 114.304 181.803 114.418 182.199 114.562L181.767 116.092C181.443 115.96 181.125 115.864 180.813 115.804C180.513 115.744 180.183 115.714 179.823 115.714C179.151 115.714 178.659 115.882 178.347 116.218C178.035 116.542 177.879 117.016 177.879 117.64V127H175.827ZM173.379 119.8V118.252L175.881 118.162H181.245V119.8H173.379ZM183.992 130.492V118.162H185.702L185.864 119.17H185.918C186.302 118.81 186.74 118.516 187.232 118.288C187.736 118.06 188.24 117.946 188.744 117.946C189.524 117.946 190.178 118.132 190.706 118.504C191.234 118.876 191.642 119.398 191.93 120.07C192.218 120.742 192.362 121.534 192.362 122.446C192.362 123.454 192.176 124.312 191.804 125.02C191.432 125.728 190.946 126.274 190.346 126.658C189.758 127.03 189.122 127.216 188.438 127.216C188.042 127.216 187.628 127.126 187.196 126.946C186.776 126.766 186.386 126.508 186.026 126.172H185.972L186.08 127.72V130.492H183.992ZM188.006 125.506C188.426 125.506 188.804 125.392 189.14 125.164C189.476 124.936 189.74 124.6 189.932 124.156C190.124 123.7 190.22 123.136 190.22 122.464C190.22 121.876 190.148 121.372 190.004 120.952C189.86 120.532 189.638 120.214 189.338 119.998C189.05 119.77 188.66 119.656 188.168 119.656C187.832 119.656 187.49 119.74 187.142 119.908C186.794 120.076 186.44 120.346 186.08 120.718V124.696C186.404 124.984 186.74 125.194 187.088 125.326C187.436 125.446 187.742 125.506 188.006 125.506ZM194.137 127V118.162H195.739L195.901 119.278H195.955C196.147 118.894 196.393 118.576 196.693 118.324C196.993 118.072 197.401 117.946 197.917 117.946C198.325 117.946 198.667 118.072 198.943 118.324C199.219 118.564 199.411 118.93 199.519 119.422C199.723 118.99 199.981 118.636 200.293 118.36C200.605 118.084 201.019 117.946 201.535 117.946C202.159 117.946 202.639 118.192 202.975 118.684C203.323 119.164 203.497 119.848 203.497 120.736V127H201.499V120.88C201.499 120.1 201.265 119.71 200.797 119.71C200.557 119.71 200.353 119.8 200.185 119.98C200.029 120.16 199.861 120.442 199.681 120.826V127H197.953V120.88C197.953 120.496 197.899 120.208 197.791 120.016C197.683 119.812 197.503 119.71 197.251 119.71C197.023 119.71 196.825 119.8 196.657 119.98C196.489 120.16 196.321 120.442 196.153 120.826V127H194.137ZM216.299 121.816V120.304H224.291V121.816H216.299ZM227.092 121.816V120.304H235.084V121.816H227.092ZM251.377 127V117.676C251.377 116.98 251.509 116.362 251.773 115.822C252.037 115.27 252.445 114.844 252.997 114.544C253.549 114.232 254.257 114.076 255.121 114.076C255.601 114.076 256.057 114.124 256.489 114.22C256.933 114.304 257.353 114.418 257.749 114.562L257.317 116.092C256.993 115.96 256.675 115.864 256.363 115.804C256.063 115.744 255.733 115.714 255.373 115.714C254.701 115.714 254.209 115.882 253.897 116.218C253.585 116.542 253.429 117.016 253.429 117.64V127H251.377ZM248.929 119.8V118.252L251.431 118.162H256.795V119.8H248.929ZM259.542 130.492V118.162H261.252L261.414 119.17H261.468C261.852 118.81 262.29 118.516 262.782 118.288C263.286 118.06 263.79 117.946 264.294 117.946C265.074 117.946 265.728 118.132 266.256 118.504C266.784 118.876 267.192 119.398 267.48 120.07C267.768 120.742 267.912 121.534 267.912 122.446C267.912 123.454 267.726 124.312 267.354 125.02C266.982 125.728 266.496 126.274 265.896 126.658C265.308 127.03 264.672 127.216 263.988 127.216C263.592 127.216 263.178 127.126 262.746 126.946C262.326 126.766 261.936 126.508 261.576 126.172H261.522L261.63 127.72V130.492H259.542ZM263.556 125.506C263.976 125.506 264.354 125.392 264.69 125.164C265.026 124.936 265.29 124.6 265.482 124.156C265.674 123.7 265.77 123.136 265.77 122.464C265.77 121.876 265.698 121.372 265.554 120.952C265.41 120.532 265.188 120.214 264.888 119.998C264.6 119.77 264.21 119.656 263.718 119.656C263.382 119.656 263.04 119.74 262.692 119.908C262.344 120.076 261.99 120.346 261.63 120.718V124.696C261.954 124.984 262.29 125.194 262.638 125.326C262.986 125.446 263.292 125.506 263.556 125.506ZM269.687 127V118.162H271.289L271.451 119.278H271.505C271.697 118.894 271.943 118.576 272.243 118.324C272.543 118.072 272.951 117.946 273.467 117.946C273.875 117.946 274.217 118.072 274.493 118.324C274.769 118.564 274.961 118.93 275.069 119.422C275.273 118.99 275.531 118.636 275.843 118.36C276.155 118.084 276.569 117.946 277.085 117.946C277.709 117.946 278.189 118.192 278.525 118.684C278.873 119.164 279.047 119.848 279.047 120.736V127H277.049V120.88C277.049 120.1 276.815 119.71 276.347 119.71C276.107 119.71 275.903 119.8 275.735 119.98C275.579 120.16 275.411 120.442 275.231 120.826V127H273.503V120.88C273.503 120.496 273.449 120.208 273.341 120.016C273.233 119.812 273.053 119.71 272.801 119.71C272.573 119.71 272.375 119.8 272.207 119.98C272.039 120.16 271.871 120.442 271.703 120.826V127H269.687ZM285.052 127.216C284.548 127.216 284.122 127.042 283.774 126.694C283.438 126.346 283.27 125.914 283.27 125.398C283.27 124.87 283.438 124.438 283.774 124.102C284.122 123.754 284.548 123.58 285.052 123.58C285.568 123.58 285.994 123.754 286.33 124.102C286.666 124.438 286.834 124.87 286.834 125.398C286.834 125.914 286.666 126.346 286.33 126.694C285.994 127.042 285.568 127.216 285.052 127.216ZM291.921 130.492V118.162H293.631L293.793 119.17H293.847C294.231 118.81 294.669 118.516 295.161 118.288C295.665 118.06 296.169 117.946 296.673 117.946C297.453 117.946 298.107 118.132 298.635 118.504C299.163 118.876 299.571 119.398 299.859 120.07C300.147 120.742 300.291 121.534 300.291 122.446C300.291 123.454 300.105 124.312 299.733 125.02C299.361 125.728 298.875 126.274 298.275 126.658C297.687 127.03 297.051 127.216 296.367 127.216C295.971 127.216 295.557 127.126 295.125 126.946C294.705 126.766 294.315 126.508 293.955 126.172H293.901L294.009 127.72V130.492H291.921ZM295.935 125.506C296.355 125.506 296.733 125.392 297.069 125.164C297.405 124.936 297.669 124.6 297.861 124.156C298.053 123.7 298.149 123.136 298.149 122.464C298.149 121.876 298.077 121.372 297.933 120.952C297.789 120.532 297.567 120.214 297.267 119.998C296.979 119.77 296.589 119.656 296.097 119.656C295.761 119.656 295.419 119.74 295.071 119.908C294.723 120.076 294.369 120.346 294.009 120.718V124.696C294.333 124.984 294.669 125.194 295.017 125.326C295.365 125.446 295.671 125.506 295.935 125.506ZM305.468 127.216C304.892 127.216 304.382 127.108 303.938 126.892C303.494 126.664 303.146 126.358 302.894 125.974C302.642 125.59 302.516 125.14 302.516 124.624C302.516 123.64 302.984 122.89 303.92 122.374C304.868 121.846 306.434 121.504 308.618 121.348C308.594 121.024 308.504 120.73 308.348 120.466C308.204 120.202 307.982 119.998 307.682 119.854C307.382 119.698 306.992 119.62 306.512 119.62C306.176 119.62 305.846 119.662 305.522 119.746C305.198 119.83 304.874 119.944 304.55 120.088C304.238 120.232 303.926 120.388 303.614 120.556L302.858 119.17C303.218 118.954 303.614 118.756 304.046 118.576C304.478 118.384 304.934 118.234 305.414 118.126C305.894 118.006 306.386 117.946 306.89 117.946C307.718 117.946 308.408 118.096 308.96 118.396C309.524 118.684 309.95 119.116 310.238 119.692C310.538 120.256 310.688 120.946 310.688 121.762V127H308.996L308.834 125.902H308.78C308.312 126.262 307.79 126.574 307.214 126.838C306.65 127.09 306.068 127.216 305.468 127.216ZM306.098 125.596C306.542 125.596 306.968 125.5 307.376 125.308C307.796 125.104 308.21 124.84 308.618 124.516V122.644C307.562 122.716 306.734 122.836 306.134 123.004C305.534 123.16 305.114 123.364 304.874 123.616C304.634 123.868 304.514 124.15 304.514 124.462C304.514 124.726 304.586 124.942 304.73 125.11C304.874 125.278 305.06 125.404 305.288 125.488C305.528 125.56 305.798 125.596 306.098 125.596ZM318.223 127.216C317.299 127.216 316.465 127.036 315.721 126.676C314.989 126.304 314.407 125.776 313.975 125.092C313.555 124.396 313.345 123.562 313.345 122.59C313.345 121.606 313.573 120.772 314.029 120.088C314.497 119.392 315.115 118.864 315.883 118.504C316.651 118.132 317.479 117.946 318.367 117.946C319.087 117.946 319.723 118.066 320.275 118.306C320.827 118.534 321.283 118.828 321.643 119.188L320.653 120.484C320.305 120.208 319.951 119.998 319.591 119.854C319.243 119.71 318.871 119.638 318.475 119.638C317.887 119.638 317.365 119.764 316.909 120.016C316.465 120.256 316.117 120.598 315.865 121.042C315.613 121.486 315.487 122.002 315.487 122.59C315.487 123.178 315.607 123.694 315.847 124.138C316.099 124.582 316.441 124.924 316.873 125.164C317.317 125.404 317.833 125.524 318.421 125.524C318.925 125.524 319.387 125.428 319.807 125.236C320.227 125.044 320.605 124.816 320.941 124.552L321.805 125.884C321.301 126.316 320.737 126.646 320.113 126.874C319.489 127.102 318.859 127.216 318.223 127.216ZM324.444 127V114.292H326.532V122.248H326.604L330.582 118.162H332.886L326.532 124.696V127H324.444ZM330.996 127L327.99 122.644L329.196 121.348L333.264 127H330.996ZM337.847 127.216C337.271 127.216 336.761 127.108 336.317 126.892C335.873 126.664 335.525 126.358 335.273 125.974C335.021 125.59 334.895 125.14 334.895 124.624C334.895 123.64 335.363 122.89 336.299 122.374C337.247 121.846 338.813 121.504 340.997 121.348C340.973 121.024 340.883 120.73 340.727 120.466C340.583 120.202 340.361 119.998 340.061 119.854C339.761 119.698 339.371 119.62 338.891 119.62C338.555 119.62 338.225 119.662 337.901 119.746C337.577 119.83 337.253 119.944 336.929 120.088C336.617 120.232 336.305 120.388 335.993 120.556L335.237 119.17C335.597 118.954 335.993 118.756 336.425 118.576C336.857 118.384 337.313 118.234 337.793 118.126C338.273 118.006 338.765 117.946 339.269 117.946C340.097 117.946 340.787 118.096 341.339 118.396C341.903 118.684 342.329 119.116 342.617 119.692C342.917 120.256 343.067 120.946 343.067 121.762V127H341.375L341.213 125.902H341.159C340.691 126.262 340.169 126.574 339.593 126.838C339.029 127.09 338.447 127.216 337.847 127.216ZM338.477 125.596C338.921 125.596 339.347 125.5 339.755 125.308C340.175 125.104 340.589 124.84 340.997 124.516V122.644C339.941 122.716 339.113 122.836 338.513 123.004C337.913 123.16 337.493 123.364 337.253 123.616C337.013 123.868 336.893 124.15 336.893 124.462C336.893 124.726 336.965 124.942 337.109 125.11C337.253 125.278 337.439 125.404 337.667 125.488C337.907 125.56 338.177 125.596 338.477 125.596ZM349.558 130.906C348.742 130.906 348.034 130.816 347.434 130.636C346.834 130.468 346.366 130.21 346.03 129.862C345.694 129.514 345.526 129.076 345.526 128.548C345.526 128.2 345.646 127.864 345.886 127.54C346.126 127.216 346.474 126.934 346.93 126.694V126.622C346.702 126.478 346.492 126.292 346.3 126.064C346.12 125.824 346.03 125.518 346.03 125.146C346.03 124.858 346.126 124.564 346.318 124.264C346.51 123.964 346.768 123.706 347.092 123.49V123.418C346.78 123.19 346.51 122.884 346.282 122.5C346.066 122.104 345.958 121.648 345.958 121.132C345.958 120.448 346.126 119.872 346.462 119.404C346.798 118.924 347.242 118.564 347.794 118.324C348.346 118.072 348.946 117.946 349.594 117.946C350.122 117.946 350.584 118.018 350.98 118.162H354.598V119.746H352.564C352.72 119.914 352.852 120.13 352.96 120.394C353.08 120.646 353.14 120.916 353.14 121.204C353.14 121.852 352.978 122.404 352.654 122.86C352.342 123.304 351.922 123.64 351.394 123.868C350.866 124.096 350.266 124.21 349.594 124.21C349.39 124.21 349.168 124.192 348.928 124.156C348.7 124.108 348.472 124.042 348.244 123.958C348.064 124.066 347.926 124.186 347.83 124.318C347.746 124.45 347.704 124.606 347.704 124.786C347.704 125.062 347.842 125.272 348.118 125.416C348.406 125.548 348.826 125.614 349.378 125.614H351.178C352.33 125.614 353.194 125.782 353.77 126.118C354.358 126.442 354.652 126.994 354.652 127.774C354.652 128.35 354.442 128.878 354.022 129.358C353.614 129.838 353.026 130.216 352.258 130.492C351.502 130.768 350.602 130.906 349.558 130.906ZM349.594 122.896C349.906 122.896 350.188 122.83 350.44 122.698C350.692 122.554 350.89 122.35 351.034 122.086C351.19 121.822 351.268 121.504 351.268 121.132C351.268 120.772 351.19 120.466 351.034 120.214C350.89 119.95 350.692 119.746 350.44 119.602C350.188 119.458 349.906 119.386 349.594 119.386C349.294 119.386 349.018 119.458 348.766 119.602C348.514 119.746 348.31 119.95 348.154 120.214C347.998 120.466 347.92 120.772 347.92 121.132C347.92 121.504 347.998 121.822 348.154 122.086C348.31 122.35 348.514 122.554 348.766 122.698C349.018 122.83 349.294 122.896 349.594 122.896ZM349.81 129.538C350.386 129.538 350.884 129.472 351.304 129.34C351.736 129.208 352.066 129.034 352.294 128.818C352.534 128.602 352.654 128.368 352.654 128.116C352.654 127.768 352.504 127.534 352.204 127.414C351.916 127.306 351.472 127.252 350.872 127.252H349.468C349.18 127.252 348.928 127.24 348.712 127.216C348.496 127.192 348.298 127.162 348.118 127.126C347.806 127.306 347.584 127.492 347.452 127.684C347.32 127.876 347.254 128.074 347.254 128.278C347.254 128.674 347.476 128.98 347.92 129.196C348.364 129.424 348.994 129.538 349.81 129.538ZM361.143 127.216C360.243 127.216 359.427 127.036 358.695 126.676C357.963 126.304 357.381 125.776 356.949 125.092C356.517 124.396 356.301 123.556 356.301 122.572C356.301 121.612 356.517 120.79 356.949 120.106C357.381 119.41 357.945 118.876 358.641 118.504C359.337 118.132 360.081 117.946 360.873 117.946C361.749 117.946 362.487 118.126 363.087 118.486C363.699 118.846 364.161 119.344 364.473 119.98C364.797 120.604 364.959 121.324 364.959 122.14C364.959 122.344 364.947 122.542 364.923 122.734C364.911 122.914 364.893 123.064 364.869 123.184H357.795V121.708H363.537L363.141 122.176C363.141 121.3 362.943 120.646 362.547 120.214C362.163 119.77 361.623 119.548 360.927 119.548C360.435 119.548 359.991 119.662 359.595 119.89C359.211 120.118 358.905 120.46 358.677 120.916C358.449 121.36 358.335 121.912 358.335 122.572C358.335 123.256 358.461 123.82 358.713 124.264C358.977 124.708 359.337 125.044 359.793 125.272C360.261 125.5 360.801 125.614 361.413 125.614C361.881 125.614 362.313 125.548 362.709 125.416C363.105 125.284 363.501 125.104 363.897 124.876L364.599 126.172C364.131 126.472 363.603 126.724 363.015 126.928C362.427 127.12 361.803 127.216 361.143 127.216ZM371.396 121.096C370.892 121.096 370.466 120.922 370.118 120.574C369.782 120.226 369.614 119.794 369.614 119.278C369.614 118.75 369.782 118.318 370.118 117.982C370.466 117.634 370.892 117.46 371.396 117.46C371.912 117.46 372.338 117.634 372.674 117.982C373.01 118.318 373.178 118.75 373.178 119.278C373.178 119.794 373.01 120.226 372.674 120.574C372.338 120.922 371.912 121.096 371.396 121.096ZM371.396 127.216C370.892 127.216 370.466 127.042 370.118 126.694C369.782 126.346 369.614 125.914 369.614 125.398C369.614 124.87 369.782 124.438 370.118 124.102C370.466 123.754 370.892 123.58 371.396 123.58C371.912 123.58 372.338 123.754 372.674 124.102C373.01 124.438 373.178 124.87 373.178 125.398C373.178 125.914 373.01 126.346 372.674 126.694C372.338 127.042 371.912 127.216 371.396 127.216ZM61.964 156.298L55.124 151.762V150.286L61.964 145.75V147.676L56.87 150.988V151.06L61.964 154.372V156.298ZM68.005 157.216C66.973 157.216 66.223 156.904 65.755 156.28C65.287 155.656 65.053 154.774 65.053 153.634V148.162H67.123V153.364C67.123 154.072 67.243 154.594 67.483 154.93C67.735 155.266 68.167 155.434 68.779 155.434C69.187 155.434 69.559 155.338 69.895 155.146C70.243 154.942 70.609 154.6 70.993 154.12V148.162H73.063V157H71.371L71.209 155.596H71.137C70.717 156.076 70.255 156.466 69.751 156.766C69.247 157.066 68.665 157.216 68.005 157.216ZM80.0399 157.216C79.2119 157.216 78.4199 157.084 77.6639 156.82C76.9079 156.544 76.2539 156.22 75.7019 155.848L76.6019 154.534C77.1299 154.882 77.6999 155.158 78.3119 155.362C78.9239 155.554 79.5899 155.65 80.3099 155.65C80.9219 155.65 81.3719 155.548 81.6599 155.344C81.9599 155.128 82.1099 154.876 82.1099 154.588C82.1099 154.444 82.0739 154.312 82.0019 154.192C81.9419 154.072 81.8279 153.964 81.6599 153.868C81.4919 153.76 81.2459 153.658 80.9219 153.562C80.5979 153.466 80.1779 153.364 79.6619 153.256C78.4859 153.004 77.6219 152.662 77.0699 152.23C76.5179 151.798 76.2419 151.252 76.2419 150.592C76.2419 149.812 76.5779 149.176 77.2499 148.684C77.9339 148.192 78.8939 147.946 80.1299 147.946C80.8619 147.946 81.5459 148.066 82.1819 148.306C82.8299 148.546 83.3759 148.816 83.8199 149.116L82.8659 150.394C82.4459 150.106 81.9839 149.89 81.4799 149.746C80.9759 149.59 80.4659 149.512 79.9499 149.512C79.5539 149.512 79.2359 149.554 78.9959 149.638C78.7679 149.722 78.5939 149.842 78.4739 149.998C78.3659 150.142 78.3119 150.304 78.3119 150.484C78.3119 150.796 78.4919 151.03 78.8519 151.186C79.2119 151.342 79.7999 151.51 80.6159 151.69C81.5639 151.894 82.2959 152.128 82.8119 152.392C83.3279 152.644 83.6819 152.938 83.8739 153.274C84.0779 153.598 84.1799 154 84.1799 154.48C84.1799 154.984 84.0179 155.446 83.6939 155.866C83.3819 156.274 82.9199 156.604 82.3079 156.856C81.6959 157.096 80.9399 157.216 80.0399 157.216ZM91.3189 157.216C90.4189 157.216 89.6029 157.036 88.8709 156.676C88.1389 156.304 87.5569 155.776 87.1249 155.092C86.6929 154.396 86.4769 153.556 86.4769 152.572C86.4769 151.612 86.6929 150.79 87.1249 150.106C87.5569 149.41 88.1209 148.876 88.8169 148.504C89.5129 148.132 90.2569 147.946 91.0489 147.946C91.9249 147.946 92.6629 148.126 93.2629 148.486C93.8749 148.846 94.3369 149.344 94.6489 149.98C94.9729 150.604 95.1349 151.324 95.1349 152.14C95.1349 152.344 95.1229 152.542 95.0989 152.734C95.0869 152.914 95.0689 153.064 95.0449 153.184H87.9709V151.708H93.7129L93.3169 152.176C93.3169 151.3 93.1189 150.646 92.7229 150.214C92.3389 149.77 91.7989 149.548 91.1029 149.548C90.6109 149.548 90.1669 149.662 89.7709 149.89C89.3869 150.118 89.0809 150.46 88.8529 150.916C88.6249 151.36 88.5109 151.912 88.5109 152.572C88.5109 153.256 88.6369 153.82 88.8889 154.264C89.1529 154.708 89.5129 155.044 89.9689 155.272C90.4369 155.5 90.9769 155.614 91.5889 155.614C92.0569 155.614 92.4889 155.548 92.8849 155.416C93.2809 155.284 93.6769 155.104 94.0729 154.876L94.7749 156.172C94.3069 156.472 93.7789 156.724 93.1909 156.928C92.6029 157.12 91.9789 157.216 91.3189 157.216ZM98.5119 157V148.162H100.222L100.402 150.16H100.456C100.9 149.44 101.446 148.894 102.094 148.522C102.754 148.138 103.462 147.946 104.218 147.946C104.578 147.946 104.89 147.976 105.154 148.036C105.418 148.096 105.676 148.186 105.928 148.306L105.496 150.052C105.208 149.956 104.95 149.89 104.722 149.854C104.506 149.806 104.23 149.782 103.894 149.782C103.294 149.782 102.706 149.956 102.13 150.304C101.566 150.652 101.056 151.258 100.6 152.122V157H98.5119ZM108.441 157V148.162H110.151L110.313 149.494H110.385C110.805 149.062 111.267 148.696 111.771 148.396C112.287 148.096 112.887 147.946 113.571 147.946C114.591 147.946 115.341 148.258 115.821 148.882C116.301 149.506 116.541 150.388 116.541 151.528V157H114.453V151.798C114.453 151.09 114.327 150.568 114.075 150.232C113.823 149.896 113.397 149.728 112.797 149.728C112.365 149.728 111.981 149.83 111.645 150.034C111.309 150.238 110.937 150.55 110.529 150.97V157H108.441ZM121.988 157.216C121.412 157.216 120.902 157.108 120.458 156.892C120.014 156.664 119.666 156.358 119.414 155.974C119.162 155.59 119.036 155.14 119.036 154.624C119.036 153.64 119.504 152.89 120.44 152.374C121.388 151.846 122.954 151.504 125.138 151.348C125.114 151.024 125.024 150.73 124.868 150.466C124.724 150.202 124.502 149.998 124.202 149.854C123.902 149.698 123.512 149.62 123.032 149.62C122.696 149.62 122.366 149.662 122.042 149.746C121.718 149.83 121.394 149.944 121.07 150.088C120.758 150.232 120.446 150.388 120.134 150.556L119.378 149.17C119.738 148.954 120.134 148.756 120.566 148.576C120.998 148.384 121.454 148.234 121.934 148.126C122.414 148.006 122.906 147.946 123.41 147.946C124.238 147.946 124.928 148.096 125.48 148.396C126.044 148.684 126.47 149.116 126.758 149.692C127.058 150.256 127.208 150.946 127.208 151.762V157H125.516L125.354 155.902H125.3C124.832 156.262 124.31 156.574 123.734 156.838C123.17 157.09 122.588 157.216 121.988 157.216ZM122.618 155.596C123.062 155.596 123.488 155.5 123.896 155.308C124.316 155.104 124.73 154.84 125.138 154.516V152.644C124.082 152.716 123.254 152.836 122.654 153.004C122.054 153.16 121.634 153.364 121.394 153.616C121.154 153.868 121.034 154.15 121.034 154.462C121.034 154.726 121.106 154.942 121.25 155.11C121.394 155.278 121.58 155.404 121.808 155.488C122.048 155.56 122.318 155.596 122.618 155.596ZM129.379 157V148.162H130.981L131.143 149.278H131.197C131.389 148.894 131.635 148.576 131.935 148.324C132.235 148.072 132.643 147.946 133.159 147.946C133.567 147.946 133.909 148.072 134.185 148.324C134.461 148.564 134.653 148.93 134.761 149.422C134.965 148.99 135.223 148.636 135.535 148.36C135.847 148.084 136.261 147.946 136.777 147.946C137.401 147.946 137.881 148.192 138.217 148.684C138.565 149.164 138.739 149.848 138.739 150.736V157H136.741V150.88C136.741 150.1 136.507 149.71 136.039 149.71C135.799 149.71 135.595 149.8 135.427 149.98C135.271 150.16 135.103 150.442 134.923 150.826V157H133.195V150.88C133.195 150.496 133.141 150.208 133.033 150.016C132.925 149.812 132.745 149.71 132.493 149.71C132.265 149.71 132.067 149.8 131.899 149.98C131.731 150.16 131.563 150.442 131.395 150.826V157H129.379ZM145.284 157.216C144.384 157.216 143.568 157.036 142.836 156.676C142.104 156.304 141.522 155.776 141.09 155.092C140.658 154.396 140.442 153.556 140.442 152.572C140.442 151.612 140.658 150.79 141.09 150.106C141.522 149.41 142.086 148.876 142.782 148.504C143.478 148.132 144.222 147.946 145.014 147.946C145.89 147.946 146.628 148.126 147.228 148.486C147.84 148.846 148.302 149.344 148.614 149.98C148.938 150.604 149.1 151.324 149.1 152.14C149.1 152.344 149.088 152.542 149.064 152.734C149.052 152.914 149.034 153.064 149.01 153.184H141.936V151.708H147.678L147.282 152.176C147.282 151.3 147.084 150.646 146.688 150.214C146.304 149.77 145.764 149.548 145.068 149.548C144.576 149.548 144.132 149.662 143.736 149.89C143.352 150.118 143.046 150.46 142.818 150.916C142.59 151.36 142.476 151.912 142.476 152.572C142.476 153.256 142.602 153.82 142.854 154.264C143.118 154.708 143.478 155.044 143.934 155.272C144.402 155.5 144.942 155.614 145.554 155.614C146.022 155.614 146.454 155.548 146.85 155.416C147.246 155.284 147.642 155.104 148.038 154.876L148.74 156.172C148.272 156.472 147.744 156.724 147.156 156.928C146.568 157.12 145.944 157.216 145.284 157.216ZM151.217 159.736V158.116H159.857V159.736H151.217ZM166.33 157.216C165.55 157.216 164.824 157.036 164.152 156.676C163.48 156.304 162.934 155.776 162.514 155.092C162.094 154.396 161.884 153.562 161.884 152.59C161.884 151.606 162.094 150.772 162.514 150.088C162.934 149.392 163.48 148.864 164.152 148.504C164.824 148.132 165.55 147.946 166.33 147.946C167.11 147.946 167.836 148.132 168.508 148.504C169.18 148.864 169.726 149.392 170.146 150.088C170.566 150.772 170.776 151.606 170.776 152.59C170.776 153.562 170.566 154.396 170.146 155.092C169.726 155.776 169.18 156.304 168.508 156.676C167.836 157.036 167.11 157.216 166.33 157.216ZM166.33 155.524C166.81 155.524 167.224 155.404 167.572 155.164C167.92 154.924 168.184 154.582 168.364 154.138C168.544 153.694 168.634 153.178 168.634 152.59C168.634 152.002 168.544 151.486 168.364 151.042C168.184 150.598 167.92 150.256 167.572 150.016C167.224 149.764 166.81 149.638 166.33 149.638C165.85 149.638 165.436 149.764 165.088 150.016C164.752 150.256 164.488 150.598 164.296 151.042C164.116 151.486 164.026 152.002 164.026 152.59C164.026 153.178 164.116 153.694 164.296 154.138C164.488 154.582 164.752 154.924 165.088 155.164C165.436 155.404 165.85 155.524 166.33 155.524ZM174.063 157V148.162H175.773L175.953 150.16H176.007C176.451 149.44 176.997 148.894 177.645 148.522C178.305 148.138 179.013 147.946 179.769 147.946C180.129 147.946 180.441 147.976 180.705 148.036C180.969 148.096 181.227 148.186 181.479 148.306L181.047 150.052C180.759 149.956 180.501 149.89 180.273 149.854C180.057 149.806 179.781 149.782 179.445 149.782C178.845 149.782 178.257 149.956 177.681 150.304C177.117 150.652 176.607 151.258 176.151 152.122V157H174.063ZM183.596 159.736V158.116H192.236V159.736H183.596ZM198.709 157.216C197.929 157.216 197.203 157.036 196.531 156.676C195.859 156.304 195.313 155.776 194.893 155.092C194.473 154.396 194.263 153.562 194.263 152.59C194.263 151.606 194.473 150.772 194.893 150.088C195.313 149.392 195.859 148.864 196.531 148.504C197.203 148.132 197.929 147.946 198.709 147.946C199.489 147.946 200.215 148.132 200.887 148.504C201.559 148.864 202.105 149.392 202.525 150.088C202.945 150.772 203.155 151.606 203.155 152.59C203.155 153.562 202.945 154.396 202.525 155.092C202.105 155.776 201.559 156.304 200.887 156.676C200.215 157.036 199.489 157.216 198.709 157.216ZM198.709 155.524C199.189 155.524 199.603 155.404 199.951 155.164C200.299 154.924 200.563 154.582 200.743 154.138C200.923 153.694 201.013 153.178 201.013 152.59C201.013 152.002 200.923 151.486 200.743 151.042C200.563 150.598 200.299 150.256 199.951 150.016C199.603 149.764 199.189 149.638 198.709 149.638C198.229 149.638 197.815 149.764 197.467 150.016C197.131 150.256 196.867 150.598 196.675 151.042C196.495 151.486 196.405 152.002 196.405 152.59C196.405 153.178 196.495 153.694 196.675 154.138C196.867 154.582 197.131 154.924 197.467 155.164C197.815 155.404 198.229 155.524 198.709 155.524ZM206.442 157V148.162H208.152L208.332 150.16H208.386C208.83 149.44 209.376 148.894 210.024 148.522C210.684 148.138 211.392 147.946 212.148 147.946C212.508 147.946 212.82 147.976 213.084 148.036C213.348 148.096 213.606 148.186 213.858 148.306L213.426 150.052C213.138 149.956 212.88 149.89 212.652 149.854C212.436 149.806 212.16 149.782 211.824 149.782C211.224 149.782 210.636 149.956 210.06 150.304C209.496 150.652 208.986 151.258 208.53 152.122V157H206.442ZM220.043 160.906C219.227 160.906 218.519 160.816 217.919 160.636C217.319 160.468 216.851 160.21 216.515 159.862C216.179 159.514 216.011 159.076 216.011 158.548C216.011 158.2 216.131 157.864 216.371 157.54C216.611 157.216 216.959 156.934 217.415 156.694V156.622C217.187 156.478 216.977 156.292 216.785 156.064C216.605 155.824 216.515 155.518 216.515 155.146C216.515 154.858 216.611 154.564 216.803 154.264C216.995 153.964 217.253 153.706 217.577 153.49V153.418C217.265 153.19 216.995 152.884 216.767 152.5C216.551 152.104 216.443 151.648 216.443 151.132C216.443 150.448 216.611 149.872 216.947 149.404C217.283 148.924 217.727 148.564 218.279 148.324C218.831 148.072 219.431 147.946 220.079 147.946C220.607 147.946 221.069 148.018 221.465 148.162H225.083V149.746H223.049C223.205 149.914 223.337 150.13 223.445 150.394C223.565 150.646 223.625 150.916 223.625 151.204C223.625 151.852 223.463 152.404 223.139 152.86C222.827 153.304 222.407 153.64 221.879 153.868C221.351 154.096 220.751 154.21 220.079 154.21C219.875 154.21 219.653 154.192 219.413 154.156C219.185 154.108 218.957 154.042 218.729 153.958C218.549 154.066 218.411 154.186 218.315 154.318C218.231 154.45 218.189 154.606 218.189 154.786C218.189 155.062 218.327 155.272 218.603 155.416C218.891 155.548 219.311 155.614 219.863 155.614H221.663C222.815 155.614 223.679 155.782 224.255 156.118C224.843 156.442 225.137 156.994 225.137 157.774C225.137 158.35 224.927 158.878 224.507 159.358C224.099 159.838 223.511 160.216 222.743 160.492C221.987 160.768 221.087 160.906 220.043 160.906ZM220.079 152.896C220.391 152.896 220.673 152.83 220.925 152.698C221.177 152.554 221.375 152.35 221.519 152.086C221.675 151.822 221.753 151.504 221.753 151.132C221.753 150.772 221.675 150.466 221.519 150.214C221.375 149.95 221.177 149.746 220.925 149.602C220.673 149.458 220.391 149.386 220.079 149.386C219.779 149.386 219.503 149.458 219.251 149.602C218.999 149.746 218.795 149.95 218.639 150.214C218.483 150.466 218.405 150.772 218.405 151.132C218.405 151.504 218.483 151.822 218.639 152.086C218.795 152.35 218.999 152.554 219.251 152.698C219.503 152.83 219.779 152.896 220.079 152.896ZM220.295 159.538C220.871 159.538 221.369 159.472 221.789 159.34C222.221 159.208 222.551 159.034 222.779 158.818C223.019 158.602 223.139 158.368 223.139 158.116C223.139 157.768 222.989 157.534 222.689 157.414C222.401 157.306 221.957 157.252 221.357 157.252H219.953C219.665 157.252 219.413 157.24 219.197 157.216C218.981 157.192 218.783 157.162 218.603 157.126C218.291 157.306 218.069 157.492 217.937 157.684C217.805 157.876 217.739 158.074 217.739 158.278C217.739 158.674 217.961 158.98 218.405 159.196C218.849 159.424 219.479 159.538 220.295 159.538ZM227.164 157V148.162H228.874L229.036 149.494H229.108C229.528 149.062 229.99 148.696 230.494 148.396C231.01 148.096 231.61 147.946 232.294 147.946C233.314 147.946 234.064 148.258 234.544 148.882C235.024 149.506 235.264 150.388 235.264 151.528V157H233.176V151.798C233.176 151.09 233.05 150.568 232.798 150.232C232.546 149.896 232.12 149.728 231.52 149.728C231.088 149.728 230.704 149.83 230.368 150.034C230.032 150.238 229.66 150.55 229.252 150.97V157H227.164ZM240.71 157.216C240.134 157.216 239.624 157.108 239.18 156.892C238.736 156.664 238.388 156.358 238.136 155.974C237.884 155.59 237.758 155.14 237.758 154.624C237.758 153.64 238.226 152.89 239.162 152.374C240.11 151.846 241.676 151.504 243.86 151.348C243.836 151.024 243.746 150.73 243.59 150.466C243.446 150.202 243.224 149.998 242.924 149.854C242.624 149.698 242.234 149.62 241.754 149.62C241.418 149.62 241.088 149.662 240.764 149.746C240.44 149.83 240.116 149.944 239.792 150.088C239.48 150.232 239.168 150.388 238.856 150.556L238.1 149.17C238.46 148.954 238.856 148.756 239.288 148.576C239.72 148.384 240.176 148.234 240.656 148.126C241.136 148.006 241.628 147.946 242.132 147.946C242.96 147.946 243.65 148.096 244.202 148.396C244.766 148.684 245.192 149.116 245.48 149.692C245.78 150.256 245.93 150.946 245.93 151.762V157H244.238L244.076 155.902H244.022C243.554 156.262 243.032 156.574 242.456 156.838C241.892 157.09 241.31 157.216 240.71 157.216ZM241.34 155.596C241.784 155.596 242.21 155.5 242.618 155.308C243.038 155.104 243.452 154.84 243.86 154.516V152.644C242.804 152.716 241.976 152.836 241.376 153.004C240.776 153.16 240.356 153.364 240.116 153.616C239.876 153.868 239.756 154.15 239.756 154.462C239.756 154.726 239.828 154.942 239.972 155.11C240.116 155.278 240.302 155.404 240.53 155.488C240.77 155.56 241.04 155.596 241.34 155.596ZM248.101 157V148.162H249.703L249.865 149.278H249.919C250.111 148.894 250.357 148.576 250.657 148.324C250.957 148.072 251.365 147.946 251.881 147.946C252.289 147.946 252.631 148.072 252.907 148.324C253.183 148.564 253.375 148.93 253.483 149.422C253.687 148.99 253.945 148.636 254.257 148.36C254.569 148.084 254.983 147.946 255.499 147.946C256.123 147.946 256.603 148.192 256.939 148.684C257.287 149.164 257.461 149.848 257.461 150.736V157H255.463V150.88C255.463 150.1 255.229 149.71 254.761 149.71C254.521 149.71 254.317 149.8 254.149 149.98C253.993 150.16 253.825 150.442 253.645 150.826V157H251.917V150.88C251.917 150.496 251.863 150.208 251.755 150.016C251.647 149.812 251.467 149.71 251.215 149.71C250.987 149.71 250.789 149.8 250.621 149.98C250.453 150.16 250.285 150.442 250.117 150.826V157H248.101ZM264.006 157.216C263.106 157.216 262.29 157.036 261.558 156.676C260.826 156.304 260.244 155.776 259.812 155.092C259.38 154.396 259.164 153.556 259.164 152.572C259.164 151.612 259.38 150.79 259.812 150.106C260.244 149.41 260.808 148.876 261.504 148.504C262.2 148.132 262.944 147.946 263.736 147.946C264.612 147.946 265.35 148.126 265.95 148.486C266.562 148.846 267.024 149.344 267.336 149.98C267.66 150.604 267.822 151.324 267.822 152.14C267.822 152.344 267.81 152.542 267.786 152.734C267.774 152.914 267.756 153.064 267.732 153.184H260.658V151.708H266.4L266.004 152.176C266.004 151.3 265.806 150.646 265.41 150.214C265.026 149.77 264.486 149.548 263.79 149.548C263.298 149.548 262.854 149.662 262.458 149.89C262.074 150.118 261.768 150.46 261.54 150.916C261.312 151.36 261.198 151.912 261.198 152.572C261.198 153.256 261.324 153.82 261.576 154.264C261.84 154.708 262.2 155.044 262.656 155.272C263.124 155.5 263.664 155.614 264.276 155.614C264.744 155.614 265.176 155.548 265.572 155.416C265.968 155.284 266.364 155.104 266.76 154.876L267.462 156.172C266.994 156.472 266.466 156.724 265.878 156.928C265.29 157.12 264.666 157.216 264.006 157.216ZM270.695 156.298V154.372L275.789 151.06V150.988L270.695 147.676V145.75L277.535 150.286V151.762L270.695 156.298ZM285.052 157.216C284.548 157.216 284.122 157.042 283.774 156.694C283.438 156.346 283.27 155.914 283.27 155.398C283.27 154.87 283.438 154.438 283.774 154.102C284.122 153.754 284.548 153.58 285.052 153.58C285.568 153.58 285.994 153.754 286.33 154.102C286.666 154.438 286.834 154.87 286.834 155.398C286.834 155.914 286.666 156.346 286.33 156.694C285.994 157.042 285.568 157.216 285.052 157.216ZM295.593 160.906C294.777 160.906 294.069 160.816 293.469 160.636C292.869 160.468 292.401 160.21 292.065 159.862C291.729 159.514 291.561 159.076 291.561 158.548C291.561 158.2 291.681 157.864 291.921 157.54C292.161 157.216 292.509 156.934 292.965 156.694V156.622C292.737 156.478 292.527 156.292 292.335 156.064C292.155 155.824 292.065 155.518 292.065 155.146C292.065 154.858 292.161 154.564 292.353 154.264C292.545 153.964 292.803 153.706 293.127 153.49V153.418C292.815 153.19 292.545 152.884 292.317 152.5C292.101 152.104 291.993 151.648 291.993 151.132C291.993 150.448 292.161 149.872 292.497 149.404C292.833 148.924 293.277 148.564 293.829 148.324C294.381 148.072 294.981 147.946 295.629 147.946C296.157 147.946 296.619 148.018 297.015 148.162H300.633V149.746H298.599C298.755 149.914 298.887 150.13 298.995 150.394C299.115 150.646 299.175 150.916 299.175 151.204C299.175 151.852 299.013 152.404 298.689 152.86C298.377 153.304 297.957 153.64 297.429 153.868C296.901 154.096 296.301 154.21 295.629 154.21C295.425 154.21 295.203 154.192 294.963 154.156C294.735 154.108 294.507 154.042 294.279 153.958C294.099 154.066 293.961 154.186 293.865 154.318C293.781 154.45 293.739 154.606 293.739 154.786C293.739 155.062 293.877 155.272 294.153 155.416C294.441 155.548 294.861 155.614 295.413 155.614H297.213C298.365 155.614 299.229 155.782 299.805 156.118C300.393 156.442 300.687 156.994 300.687 157.774C300.687 158.35 300.477 158.878 300.057 159.358C299.649 159.838 299.061 160.216 298.293 160.492C297.537 160.768 296.637 160.906 295.593 160.906ZM295.629 152.896C295.941 152.896 296.223 152.83 296.475 152.698C296.727 152.554 296.925 152.35 297.069 152.086C297.225 151.822 297.303 151.504 297.303 151.132C297.303 150.772 297.225 150.466 297.069 150.214C296.925 149.95 296.727 149.746 296.475 149.602C296.223 149.458 295.941 149.386 295.629 149.386C295.329 149.386 295.053 149.458 294.801 149.602C294.549 149.746 294.345 149.95 294.189 150.214C294.033 150.466 293.955 150.772 293.955 151.132C293.955 151.504 294.033 151.822 294.189 152.086C294.345 152.35 294.549 152.554 294.801 152.698C295.053 152.83 295.329 152.896 295.629 152.896ZM295.845 159.538C296.421 159.538 296.919 159.472 297.339 159.34C297.771 159.208 298.101 159.034 298.329 158.818C298.569 158.602 298.689 158.368 298.689 158.116C298.689 157.768 298.539 157.534 298.239 157.414C297.951 157.306 297.507 157.252 296.907 157.252H295.503C295.215 157.252 294.963 157.24 294.747 157.216C294.531 157.192 294.333 157.162 294.153 157.126C293.841 157.306 293.619 157.492 293.487 157.684C293.355 157.876 293.289 158.074 293.289 158.278C293.289 158.674 293.511 158.98 293.955 159.196C294.399 159.424 295.029 159.538 295.845 159.538ZM306.584 157V149.8H302.75V148.162H308.654V157H306.584ZM307.466 146.542C307.046 146.542 306.692 146.416 306.404 146.164C306.128 145.912 305.99 145.576 305.99 145.156C305.99 144.736 306.128 144.4 306.404 144.148C306.692 143.884 307.046 143.752 307.466 143.752C307.898 143.752 308.252 143.884 308.528 144.148C308.804 144.4 308.942 144.736 308.942 145.156C308.942 145.576 308.804 145.912 308.528 146.164C308.252 146.416 307.898 146.542 307.466 146.542ZM319.069 157.216C318.169 157.216 317.455 157.06 316.927 156.748C316.399 156.424 316.021 155.98 315.793 155.416C315.565 154.852 315.451 154.198 315.451 153.454V149.8H313.093V148.252L315.541 148.162L315.811 145.39H317.521V148.162H321.553V149.8H317.521V153.436C317.521 153.916 317.587 154.318 317.719 154.642C317.851 154.954 318.067 155.188 318.367 155.344C318.667 155.488 319.063 155.56 319.555 155.56C319.939 155.56 320.287 155.53 320.599 155.47C320.911 155.41 321.211 155.326 321.499 155.218L321.895 156.712C321.499 156.844 321.073 156.958 320.617 157.054C320.161 157.162 319.645 157.216 319.069 157.216ZM324.3 157V144.292H326.388V147.568L326.262 149.458H326.316C326.7 149.05 327.144 148.696 327.648 148.396C328.164 148.096 328.758 147.946 329.43 147.946C330.45 147.946 331.2 148.258 331.68 148.882C332.16 149.506 332.4 150.388 332.4 151.528V157H330.312V151.798C330.312 151.09 330.186 150.568 329.934 150.232C329.682 149.896 329.256 149.728 328.656 149.728C328.224 149.728 327.84 149.83 327.504 150.034C327.168 150.238 326.796 150.55 326.388 150.97V157H324.3ZM337.829 157.216C336.797 157.216 336.047 156.904 335.579 156.28C335.111 155.656 334.877 154.774 334.877 153.634V148.162H336.947V153.364C336.947 154.072 337.067 154.594 337.307 154.93C337.559 155.266 337.991 155.434 338.603 155.434C339.011 155.434 339.383 155.338 339.719 155.146C340.067 154.942 340.433 154.6 340.817 154.12V148.162H342.887V157H341.195L341.033 155.596H340.961C340.541 156.076 340.079 156.466 339.575 156.766C339.071 157.066 338.489 157.216 337.829 157.216ZM350.332 157.216C349.912 157.216 349.474 157.114 349.018 156.91C348.574 156.706 348.154 156.412 347.758 156.028H347.704L347.524 157H345.886V144.292H347.974V147.568L347.884 149.116H347.938C348.31 148.756 348.73 148.474 349.198 148.27C349.678 148.054 350.158 147.946 350.638 147.946C351.406 147.946 352.054 148.132 352.582 148.504C353.122 148.876 353.536 149.398 353.824 150.07C354.112 150.73 354.256 151.516 354.256 152.428C354.256 153.436 354.07 154.3 353.698 155.02C353.326 155.728 352.84 156.274 352.24 156.658C351.652 157.03 351.016 157.216 350.332 157.216ZM349.918 155.506C350.326 155.506 350.698 155.392 351.034 155.164C351.37 154.936 351.634 154.6 351.826 154.156C352.018 153.7 352.114 153.136 352.114 152.464C352.114 151.876 352.042 151.372 351.898 150.952C351.754 150.532 351.532 150.214 351.232 149.998C350.944 149.77 350.554 149.656 350.062 149.656C349.726 149.656 349.384 149.74 349.036 149.908C348.688 150.076 348.334 150.346 347.974 150.718V154.696C348.298 154.984 348.634 155.194 348.982 155.326C349.33 155.446 349.642 155.506 349.918 155.506ZM360.603 157.216C360.099 157.216 359.673 157.042 359.325 156.694C358.989 156.346 358.821 155.914 358.821 155.398C358.821 154.87 358.989 154.438 359.325 154.102C359.673 153.754 360.099 153.58 360.603 153.58C361.119 153.58 361.545 153.754 361.881 154.102C362.217 154.438 362.385 154.87 362.385 155.398C362.385 155.914 362.217 156.346 361.881 156.694C361.545 157.042 361.119 157.216 360.603 157.216ZM371.342 157V149.8H367.508V148.162H373.412V157H371.342ZM372.224 146.542C371.804 146.542 371.45 146.416 371.162 146.164C370.886 145.912 370.748 145.576 370.748 145.156C370.748 144.736 370.886 144.4 371.162 144.148C371.45 143.884 371.804 143.752 372.224 143.752C372.656 143.752 373.01 143.884 373.286 144.148C373.562 144.4 373.7 144.736 373.7 145.156C373.7 145.576 373.562 145.912 373.286 146.164C373.01 146.416 372.656 146.542 372.224 146.542ZM382.189 157.216C381.409 157.216 380.683 157.036 380.011 156.676C379.339 156.304 378.793 155.776 378.373 155.092C377.953 154.396 377.743 153.562 377.743 152.59C377.743 151.606 377.953 150.772 378.373 150.088C378.793 149.392 379.339 148.864 380.011 148.504C380.683 148.132 381.409 147.946 382.189 147.946C382.969 147.946 383.695 148.132 384.367 148.504C385.039 148.864 385.585 149.392 386.005 150.088C386.425 150.772 386.635 151.606 386.635 152.59C386.635 153.562 386.425 154.396 386.005 155.092C385.585 155.776 385.039 156.304 384.367 156.676C383.695 157.036 382.969 157.216 382.189 157.216ZM382.189 155.524C382.669 155.524 383.083 155.404 383.431 155.164C383.779 154.924 384.043 154.582 384.223 154.138C384.403 153.694 384.493 153.178 384.493 152.59C384.493 152.002 384.403 151.486 384.223 151.042C384.043 150.598 383.779 150.256 383.431 150.016C383.083 149.764 382.669 149.638 382.189 149.638C381.709 149.638 381.295 149.764 380.947 150.016C380.611 150.256 380.347 150.598 380.155 151.042C379.975 151.486 379.885 152.002 379.885 152.59C379.885 153.178 379.975 153.694 380.155 154.138C380.347 154.582 380.611 154.924 380.947 155.164C381.295 155.404 381.709 155.524 382.189 155.524ZM54.548 189.88L60.47 174.22H62.252L56.33 189.88H54.548ZM72.757 186.298L65.917 181.762V180.286L72.757 175.75V177.676L67.663 180.988V181.06L72.757 184.372V186.298ZM76.9259 187V178.162H78.6359L78.8159 180.16H78.8699C79.3139 179.44 79.8599 178.894 80.5079 178.522C81.1679 178.138 81.8759 177.946 82.6319 177.946C82.9919 177.946 83.3039 177.976 83.5679 178.036C83.8319 178.096 84.0899 178.186 84.3419 178.306L83.9099 180.052C83.6219 179.956 83.3639 179.89 83.1359 179.854C82.9199 179.806 82.6439 179.782 82.3079 179.782C81.7079 179.782 81.1199 179.956 80.5439 180.304C79.9799 180.652 79.4699 181.258 79.0139 182.122V187H76.9259ZM91.3189 187.216C90.4189 187.216 89.6029 187.036 88.8709 186.676C88.1389 186.304 87.5569 185.776 87.1249 185.092C86.6929 184.396 86.4769 183.556 86.4769 182.572C86.4769 181.612 86.6929 180.79 87.1249 180.106C87.5569 179.41 88.1209 178.876 88.8169 178.504C89.5129 178.132 90.2569 177.946 91.0489 177.946C91.9249 177.946 92.6629 178.126 93.2629 178.486C93.8749 178.846 94.3369 179.344 94.6489 179.98C94.9729 180.604 95.1349 181.324 95.1349 182.14C95.1349 182.344 95.1229 182.542 95.0989 182.734C95.0869 182.914 95.0689 183.064 95.0449 183.184H87.9709V181.708H93.7129L93.3169 182.176C93.3169 181.3 93.1189 180.646 92.7229 180.214C92.3389 179.77 91.7989 179.548 91.1029 179.548C90.6109 179.548 90.1669 179.662 89.7709 179.89C89.3869 180.118 89.0809 180.46 88.8529 180.916C88.6249 181.36 88.5109 181.912 88.5109 182.572C88.5109 183.256 88.6369 183.82 88.8889 184.264C89.1529 184.708 89.5129 185.044 89.9689 185.272C90.4369 185.5 90.9769 185.614 91.5889 185.614C92.0569 185.614 92.4889 185.548 92.8849 185.416C93.2809 185.284 93.6769 185.104 94.0729 184.876L94.7749 186.172C94.3069 186.472 93.7789 186.724 93.1909 186.928C92.6029 187.12 91.9789 187.216 91.3189 187.216ZM97.6479 190.492V178.162H99.3579L99.5199 179.17H99.5739C99.9579 178.81 100.396 178.516 100.888 178.288C101.392 178.06 101.896 177.946 102.4 177.946C103.18 177.946 103.834 178.132 104.362 178.504C104.89 178.876 105.298 179.398 105.586 180.07C105.874 180.742 106.018 181.534 106.018 182.446C106.018 183.454 105.832 184.312 105.46 185.02C105.088 185.728 104.602 186.274 104.002 186.658C103.414 187.03 102.778 187.216 102.094 187.216C101.698 187.216 101.284 187.126 100.852 186.946C100.432 186.766 100.042 186.508 99.6819 186.172H99.6279L99.7359 187.72V190.492H97.6479ZM101.662 185.506C102.082 185.506 102.46 185.392 102.796 185.164C103.132 184.936 103.396 184.6 103.588 184.156C103.78 183.7 103.876 183.136 103.876 182.464C103.876 181.876 103.804 181.372 103.66 180.952C103.516 180.532 103.294 180.214 102.994 179.998C102.706 179.77 102.316 179.656 101.824 179.656C101.488 179.656 101.146 179.74 100.798 179.908C100.45 180.076 100.096 180.346 99.7359 180.718V184.696C100.06 184.984 100.396 185.194 100.744 185.326C101.092 185.446 101.398 185.506 101.662 185.506ZM112.365 187.216C111.585 187.216 110.859 187.036 110.187 186.676C109.515 186.304 108.969 185.776 108.549 185.092C108.129 184.396 107.919 183.562 107.919 182.59C107.919 181.606 108.129 180.772 108.549 180.088C108.969 179.392 109.515 178.864 110.187 178.504C110.859 178.132 111.585 177.946 112.365 177.946C113.145 177.946 113.871 178.132 114.543 178.504C115.215 178.864 115.761 179.392 116.181 180.088C116.601 180.772 116.811 181.606 116.811 182.59C116.811 183.562 116.601 184.396 116.181 185.092C115.761 185.776 115.215 186.304 114.543 186.676C113.871 187.036 113.145 187.216 112.365 187.216ZM112.365 185.524C112.845 185.524 113.259 185.404 113.607 185.164C113.955 184.924 114.219 184.582 114.399 184.138C114.579 183.694 114.669 183.178 114.669 182.59C114.669 182.002 114.579 181.486 114.399 181.042C114.219 180.598 113.955 180.256 113.607 180.016C113.259 179.764 112.845 179.638 112.365 179.638C111.885 179.638 111.471 179.764 111.123 180.016C110.787 180.256 110.523 180.598 110.331 181.042C110.151 181.486 110.061 182.002 110.061 182.59C110.061 183.178 110.151 183.694 110.331 184.138C110.523 184.582 110.787 184.924 111.123 185.164C111.471 185.404 111.885 185.524 112.365 185.524ZM118.838 189.736V188.116H127.478V189.736H118.838ZM130.027 187V178.162H131.737L131.899 179.494H131.971C132.391 179.062 132.853 178.696 133.357 178.396C133.873 178.096 134.473 177.946 135.157 177.946C136.177 177.946 136.927 178.258 137.407 178.882C137.887 179.506 138.127 180.388 138.127 181.528V187H136.039V181.798C136.039 181.09 135.913 180.568 135.661 180.232C135.409 179.896 134.983 179.728 134.383 179.728C133.951 179.728 133.567 179.83 133.231 180.034C132.895 180.238 132.523 180.55 132.115 180.97V187H130.027ZM143.574 187.216C142.998 187.216 142.488 187.108 142.044 186.892C141.6 186.664 141.252 186.358 141 185.974C140.748 185.59 140.622 185.14 140.622 184.624C140.622 183.64 141.09 182.89 142.026 182.374C142.974 181.846 144.54 181.504 146.724 181.348C146.7 181.024 146.61 180.73 146.454 180.466C146.31 180.202 146.088 179.998 145.788 179.854C145.488 179.698 145.098 179.62 144.618 179.62C144.282 179.62 143.952 179.662 143.628 179.746C143.304 179.83 142.98 179.944 142.656 180.088C142.344 180.232 142.032 180.388 141.72 180.556L140.964 179.17C141.324 178.954 141.72 178.756 142.152 178.576C142.584 178.384 143.04 178.234 143.52 178.126C144 178.006 144.492 177.946 144.996 177.946C145.824 177.946 146.514 178.096 147.066 178.396C147.63 178.684 148.056 179.116 148.344 179.692C148.644 180.256 148.794 180.946 148.794 181.762V187H147.102L146.94 185.902H146.886C146.418 186.262 145.896 186.574 145.32 186.838C144.756 187.09 144.174 187.216 143.574 187.216ZM144.204 185.596C144.648 185.596 145.074 185.5 145.482 185.308C145.902 185.104 146.316 184.84 146.724 184.516V182.644C145.668 182.716 144.84 182.836 144.24 183.004C143.64 183.16 143.22 183.364 142.98 183.616C142.74 183.868 142.62 184.15 142.62 184.462C142.62 184.726 142.692 184.942 142.836 185.11C142.98 185.278 143.166 185.404 143.394 185.488C143.634 185.56 143.904 185.596 144.204 185.596ZM150.965 187V178.162H152.567L152.729 179.278H152.783C152.975 178.894 153.221 178.576 153.521 178.324C153.821 178.072 154.229 177.946 154.745 177.946C155.153 177.946 155.495 178.072 155.771 178.324C156.047 178.564 156.239 178.93 156.347 179.422C156.551 178.99 156.809 178.636 157.121 178.36C157.433 178.084 157.847 177.946 158.363 177.946C158.987 177.946 159.467 178.192 159.803 178.684C160.151 179.164 160.325 179.848 160.325 180.736V187H158.327V180.88C158.327 180.1 158.093 179.71 157.625 179.71C157.385 179.71 157.181 179.8 157.013 179.98C156.857 180.16 156.689 180.442 156.509 180.826V187H154.781V180.88C154.781 180.496 154.727 180.208 154.619 180.016C154.511 179.812 154.331 179.71 154.079 179.71C153.851 179.71 153.653 179.8 153.485 179.98C153.317 180.16 153.149 180.442 152.981 180.826V187H150.965ZM166.87 187.216C165.97 187.216 165.154 187.036 164.422 186.676C163.69 186.304 163.108 185.776 162.676 185.092C162.244 184.396 162.028 183.556 162.028 182.572C162.028 181.612 162.244 180.79 162.676 180.106C163.108 179.41 163.672 178.876 164.368 178.504C165.064 178.132 165.808 177.946 166.6 177.946C167.476 177.946 168.214 178.126 168.814 178.486C169.426 178.846 169.888 179.344 170.2 179.98C170.524 180.604 170.686 181.324 170.686 182.14C170.686 182.344 170.674 182.542 170.65 182.734C170.638 182.914 170.62 183.064 170.596 183.184H163.522V181.708H169.264L168.868 182.176C168.868 181.3 168.67 180.646 168.274 180.214C167.89 179.77 167.35 179.548 166.654 179.548C166.162 179.548 165.718 179.662 165.322 179.89C164.938 180.118 164.632 180.46 164.404 180.916C164.176 181.36 164.062 181.912 164.062 182.572C164.062 183.256 164.188 183.82 164.44 184.264C164.704 184.708 165.064 185.044 165.52 185.272C165.988 185.5 166.528 185.614 167.14 185.614C167.608 185.614 168.04 185.548 168.436 185.416C168.832 185.284 169.228 185.104 169.624 184.876L170.326 186.172C169.858 186.472 169.33 186.724 168.742 186.928C168.154 187.12 167.53 187.216 166.87 187.216ZM173.559 186.298V184.372L178.653 181.06V180.988L173.559 177.676V175.75L180.399 180.286V181.762L173.559 186.298ZM194.587 187V185.884L199.897 179.8H195.181V178.162H202.813V179.26L197.485 185.344H202.957V187H194.587ZM209.448 187V179.8H205.614V178.162H211.518V187H209.448ZM210.33 176.542C209.91 176.542 209.556 176.416 209.268 176.164C208.992 175.912 208.854 175.576 208.854 175.156C208.854 174.736 208.992 174.4 209.268 174.148C209.556 173.884 209.91 173.752 210.33 173.752C210.762 173.752 211.116 173.884 211.392 174.148C211.668 174.4 211.806 174.736 211.806 175.156C211.806 175.576 211.668 175.912 211.392 176.164C211.116 176.416 210.762 176.542 210.33 176.542ZM216.371 190.492V178.162H218.081L218.243 179.17H218.297C218.681 178.81 219.119 178.516 219.611 178.288C220.115 178.06 220.619 177.946 221.123 177.946C221.903 177.946 222.557 178.132 223.085 178.504C223.613 178.876 224.021 179.398 224.309 180.07C224.597 180.742 224.741 181.534 224.741 182.446C224.741 183.454 224.555 184.312 224.183 185.02C223.811 185.728 223.325 186.274 222.725 186.658C222.137 187.03 221.501 187.216 220.817 187.216C220.421 187.216 220.007 187.126 219.575 186.946C219.155 186.766 218.765 186.508 218.405 186.172H218.351L218.459 187.72V190.492H216.371ZM220.385 185.506C220.805 185.506 221.183 185.392 221.519 185.164C221.855 184.936 222.119 184.6 222.311 184.156C222.503 183.7 222.599 183.136 222.599 182.464C222.599 181.876 222.527 181.372 222.383 180.952C222.239 180.532 222.017 180.214 221.717 179.998C221.429 179.77 221.039 179.656 220.547 179.656C220.211 179.656 219.869 179.74 219.521 179.908C219.173 180.076 218.819 180.346 218.459 180.718V184.696C218.783 184.984 219.119 185.194 219.467 185.326C219.815 185.446 220.121 185.506 220.385 185.506ZM231.088 181.096C230.584 181.096 230.158 180.922 229.81 180.574C229.474 180.226 229.306 179.794 229.306 179.278C229.306 178.75 229.474 178.318 229.81 177.982C230.158 177.634 230.584 177.46 231.088 177.46C231.604 177.46 232.03 177.634 232.366 177.982C232.702 178.318 232.87 178.75 232.87 179.278C232.87 179.794 232.702 180.226 232.366 180.574C232.03 180.922 231.604 181.096 231.088 181.096ZM231.088 187.216C230.584 187.216 230.158 187.042 229.81 186.694C229.474 186.346 229.306 185.914 229.306 185.398C229.306 184.87 229.474 184.438 229.81 184.102C230.158 183.754 230.584 183.58 231.088 183.58C231.604 183.58 232.03 183.754 232.366 184.102C232.702 184.438 232.87 184.87 232.87 185.398C232.87 185.914 232.702 186.346 232.366 186.694C232.03 187.042 231.604 187.216 231.088 187.216ZM252.421 190.906C251.605 190.906 250.897 190.816 250.297 190.636C249.697 190.468 249.229 190.21 248.893 189.862C248.557 189.514 248.389 189.076 248.389 188.548C248.389 188.2 248.509 187.864 248.749 187.54C248.989 187.216 249.337 186.934 249.793 186.694V186.622C249.565 186.478 249.355 186.292 249.163 186.064C248.983 185.824 248.893 185.518 248.893 185.146C248.893 184.858 248.989 184.564 249.181 184.264C249.373 183.964 249.631 183.706 249.955 183.49V183.418C249.643 183.19 249.373 182.884 249.145 182.5C248.929 182.104 248.821 181.648 248.821 181.132C248.821 180.448 248.989 179.872 249.325 179.404C249.661 178.924 250.105 178.564 250.657 178.324C251.209 178.072 251.809 177.946 252.457 177.946C252.985 177.946 253.447 178.018 253.843 178.162H257.461V179.746H255.427C255.583 179.914 255.715 180.13 255.823 180.394C255.943 180.646 256.003 180.916 256.003 181.204C256.003 181.852 255.841 182.404 255.517 182.86C255.205 183.304 254.785 183.64 254.257 183.868C253.729 184.096 253.129 184.21 252.457 184.21C252.253 184.21 252.031 184.192 251.791 184.156C251.563 184.108 251.335 184.042 251.107 183.958C250.927 184.066 250.789 184.186 250.693 184.318C250.609 184.45 250.567 184.606 250.567 184.786C250.567 185.062 250.705 185.272 250.981 185.416C251.269 185.548 251.689 185.614 252.241 185.614H254.041C255.193 185.614 256.057 185.782 256.633 186.118C257.221 186.442 257.515 186.994 257.515 187.774C257.515 188.35 257.305 188.878 256.885 189.358C256.477 189.838 255.889 190.216 255.121 190.492C254.365 190.768 253.465 190.906 252.421 190.906ZM252.457 182.896C252.769 182.896 253.051 182.83 253.303 182.698C253.555 182.554 253.753 182.35 253.897 182.086C254.053 181.822 254.131 181.504 254.131 181.132C254.131 180.772 254.053 180.466 253.897 180.214C253.753 179.95 253.555 179.746 253.303 179.602C253.051 179.458 252.769 179.386 252.457 179.386C252.157 179.386 251.881 179.458 251.629 179.602C251.377 179.746 251.173 179.95 251.017 180.214C250.861 180.466 250.783 180.772 250.783 181.132C250.783 181.504 250.861 181.822 251.017 182.086C251.173 182.35 251.377 182.554 251.629 182.698C251.881 182.83 252.157 182.896 252.457 182.896ZM252.673 189.538C253.249 189.538 253.747 189.472 254.167 189.34C254.599 189.208 254.929 189.034 255.157 188.818C255.397 188.602 255.517 188.368 255.517 188.116C255.517 187.768 255.367 187.534 255.067 187.414C254.779 187.306 254.335 187.252 253.735 187.252H252.331C252.043 187.252 251.791 187.24 251.575 187.216C251.359 187.192 251.161 187.162 250.981 187.126C250.669 187.306 250.447 187.492 250.315 187.684C250.183 187.876 250.117 188.074 250.117 188.278C250.117 188.674 250.339 188.98 250.783 189.196C251.227 189.424 251.857 189.538 252.673 189.538ZM263.412 187V179.8H259.578V178.162H265.482V187H263.412ZM264.294 176.542C263.874 176.542 263.52 176.416 263.232 176.164C262.956 175.912 262.818 175.576 262.818 175.156C262.818 174.736 262.956 174.4 263.232 174.148C263.52 173.884 263.874 173.752 264.294 173.752C264.726 173.752 265.08 173.884 265.356 174.148C265.632 174.4 265.77 174.736 265.77 175.156C265.77 175.576 265.632 175.912 265.356 176.164C265.08 176.416 264.726 176.542 264.294 176.542ZM275.897 187.216C274.997 187.216 274.283 187.06 273.755 186.748C273.227 186.424 272.849 185.98 272.621 185.416C272.393 184.852 272.279 184.198 272.279 183.454V179.8H269.921V178.252L272.369 178.162L272.639 175.39H274.349V178.162H278.381V179.8H274.349V183.436C274.349 183.916 274.415 184.318 274.547 184.642C274.679 184.954 274.895 185.188 275.195 185.344C275.495 185.488 275.891 185.56 276.383 185.56C276.767 185.56 277.115 185.53 277.427 185.47C277.739 185.41 278.039 185.326 278.327 185.218L278.723 186.712C278.327 186.844 277.901 186.958 277.445 187.054C276.989 187.162 276.473 187.216 275.897 187.216ZM281.128 187V174.292H283.216V177.568L283.09 179.458H283.144C283.528 179.05 283.972 178.696 284.476 178.396C284.992 178.096 285.586 177.946 286.258 177.946C287.278 177.946 288.028 178.258 288.508 178.882C288.988 179.506 289.228 180.388 289.228 181.528V187H287.14V181.798C287.14 181.09 287.014 180.568 286.762 180.232C286.51 179.896 286.084 179.728 285.484 179.728C285.052 179.728 284.668 179.83 284.332 180.034C283.996 180.238 283.624 180.55 283.216 180.97V187H281.128ZM294.657 187.216C293.625 187.216 292.875 186.904 292.407 186.28C291.939 185.656 291.705 184.774 291.705 183.634V178.162H293.775V183.364C293.775 184.072 293.895 184.594 294.135 184.93C294.387 185.266 294.819 185.434 295.431 185.434C295.839 185.434 296.211 185.338 296.547 185.146C296.895 184.942 297.261 184.6 297.645 184.12V178.162H299.715V187H298.023L297.861 185.596H297.789C297.369 186.076 296.907 186.466 296.403 186.766C295.899 187.066 295.317 187.216 294.657 187.216ZM307.16 187.216C306.74 187.216 306.302 187.114 305.846 186.91C305.402 186.706 304.982 186.412 304.586 186.028H304.532L304.352 187H302.714V174.292H304.802V177.568L304.712 179.116H304.766C305.138 178.756 305.558 178.474 306.026 178.27C306.506 178.054 306.986 177.946 307.466 177.946C308.234 177.946 308.882 178.132 309.41 178.504C309.95 178.876 310.364 179.398 310.652 180.07C310.94 180.73 311.084 181.516 311.084 182.428C311.084 183.436 310.898 184.3 310.526 185.02C310.154 185.728 309.668 186.274 309.068 186.658C308.48 187.03 307.844 187.216 307.16 187.216ZM306.746 185.506C307.154 185.506 307.526 185.392 307.862 185.164C308.198 184.936 308.462 184.6 308.654 184.156C308.846 183.7 308.942 183.136 308.942 182.464C308.942 181.876 308.87 181.372 308.726 180.952C308.582 180.532 308.36 180.214 308.06 179.998C307.772 179.77 307.382 179.656 306.89 179.656C306.554 179.656 306.212 179.74 305.864 179.908C305.516 180.076 305.162 180.346 304.802 180.718V184.696C305.126 184.984 305.462 185.194 305.81 185.326C306.158 185.446 306.47 185.506 306.746 185.506ZM317.431 187.216C316.927 187.216 316.501 187.042 316.153 186.694C315.817 186.346 315.649 185.914 315.649 185.398C315.649 184.87 315.817 184.438 316.153 184.102C316.501 183.754 316.927 183.58 317.431 183.58C317.947 183.58 318.373 183.754 318.709 184.102C319.045 184.438 319.213 184.87 319.213 185.398C319.213 185.914 319.045 186.346 318.709 186.694C318.373 187.042 317.947 187.216 317.431 187.216ZM329.016 187.216C328.092 187.216 327.258 187.036 326.514 186.676C325.782 186.304 325.2 185.776 324.768 185.092C324.348 184.396 324.138 183.562 324.138 182.59C324.138 181.606 324.366 180.772 324.822 180.088C325.29 179.392 325.908 178.864 326.676 178.504C327.444 178.132 328.272 177.946 329.16 177.946C329.88 177.946 330.516 178.066 331.068 178.306C331.62 178.534 332.076 178.828 332.436 179.188L331.446 180.484C331.098 180.208 330.744 179.998 330.384 179.854C330.036 179.71 329.664 179.638 329.268 179.638C328.68 179.638 328.158 179.764 327.702 180.016C327.258 180.256 326.91 180.598 326.658 181.042C326.406 181.486 326.28 182.002 326.28 182.59C326.28 183.178 326.4 183.694 326.64 184.138C326.892 184.582 327.234 184.924 327.666 185.164C328.11 185.404 328.626 185.524 329.214 185.524C329.718 185.524 330.18 185.428 330.6 185.236C331.02 185.044 331.398 184.816 331.734 184.552L332.598 185.884C332.094 186.316 331.53 186.646 330.906 186.874C330.282 187.102 329.652 187.216 329.016 187.216ZM339.017 187.216C338.237 187.216 337.511 187.036 336.839 186.676C336.167 186.304 335.621 185.776 335.201 185.092C334.781 184.396 334.571 183.562 334.571 182.59C334.571 181.606 334.781 180.772 335.201 180.088C335.621 179.392 336.167 178.864 336.839 178.504C337.511 178.132 338.237 177.946 339.017 177.946C339.797 177.946 340.523 178.132 341.195 178.504C341.867 178.864 342.413 179.392 342.833 180.088C343.253 180.772 343.463 181.606 343.463 182.59C343.463 183.562 343.253 184.396 342.833 185.092C342.413 185.776 341.867 186.304 341.195 186.676C340.523 187.036 339.797 187.216 339.017 187.216ZM339.017 185.524C339.497 185.524 339.911 185.404 340.259 185.164C340.607 184.924 340.871 184.582 341.051 184.138C341.231 183.694 341.321 183.178 341.321 182.59C341.321 182.002 341.231 181.486 341.051 181.042C340.871 180.598 340.607 180.256 340.259 180.016C339.911 179.764 339.497 179.638 339.017 179.638C338.537 179.638 338.123 179.764 337.775 180.016C337.439 180.256 337.175 180.598 336.983 181.042C336.803 181.486 336.713 182.002 336.713 182.59C336.713 183.178 336.803 183.694 336.983 184.138C337.175 184.582 337.439 184.924 337.775 185.164C338.123 185.404 338.537 185.524 339.017 185.524ZM345.238 187V178.162H346.84L347.002 179.278H347.056C347.248 178.894 347.494 178.576 347.794 178.324C348.094 178.072 348.502 177.946 349.018 177.946C349.426 177.946 349.768 178.072 350.044 178.324C350.32 178.564 350.512 178.93 350.62 179.422C350.824 178.99 351.082 178.636 351.394 178.36C351.706 178.084 352.12 177.946 352.636 177.946C353.26 177.946 353.74 178.192 354.076 178.684C354.424 179.164 354.598 179.848 354.598 180.736V187H352.6V180.88C352.6 180.1 352.366 179.71 351.898 179.71C351.658 179.71 351.454 179.8 351.286 179.98C351.13 180.16 350.962 180.442 350.782 180.826V187H349.054V180.88C349.054 180.496 349 180.208 348.892 180.016C348.784 179.812 348.604 179.71 348.352 179.71C348.124 179.71 347.926 179.8 347.758 179.98C347.59 180.16 347.422 180.442 347.254 180.826V187H345.238ZM356.751 189.88L362.673 174.22H364.455L358.533 189.88H356.751ZM61.964 216.298L55.124 211.762V210.286L61.964 205.75V207.676L56.87 210.988V211.06L61.964 214.372V216.298ZM68.005 217.216C66.973 217.216 66.223 216.904 65.755 216.28C65.287 215.656 65.053 214.774 65.053 213.634V208.162H67.123V213.364C67.123 214.072 67.243 214.594 67.483 214.93C67.735 215.266 68.167 215.434 68.779 215.434C69.187 215.434 69.559 215.338 69.895 215.146C70.243 214.942 70.609 214.6 70.993 214.12V208.162H73.063V217H71.371L71.209 215.596H71.137C70.717 216.076 70.255 216.466 69.751 216.766C69.247 217.066 68.665 217.216 68.005 217.216ZM80.0399 217.216C79.2119 217.216 78.4199 217.084 77.6639 216.82C76.9079 216.544 76.2539 216.22 75.7019 215.848L76.6019 214.534C77.1299 214.882 77.6999 215.158 78.3119 215.362C78.9239 215.554 79.5899 215.65 80.3099 215.65C80.9219 215.65 81.3719 215.548 81.6599 215.344C81.9599 215.128 82.1099 214.876 82.1099 214.588C82.1099 214.444 82.0739 214.312 82.0019 214.192C81.9419 214.072 81.8279 213.964 81.6599 213.868C81.4919 213.76 81.2459 213.658 80.9219 213.562C80.5979 213.466 80.1779 213.364 79.6619 213.256C78.4859 213.004 77.6219 212.662 77.0699 212.23C76.5179 211.798 76.2419 211.252 76.2419 210.592C76.2419 209.812 76.5779 209.176 77.2499 208.684C77.9339 208.192 78.8939 207.946 80.1299 207.946C80.8619 207.946 81.5459 208.066 82.1819 208.306C82.8299 208.546 83.3759 208.816 83.8199 209.116L82.8659 210.394C82.4459 210.106 81.9839 209.89 81.4799 209.746C80.9759 209.59 80.4659 209.512 79.9499 209.512C79.5539 209.512 79.2359 209.554 78.9959 209.638C78.7679 209.722 78.5939 209.842 78.4739 209.998C78.3659 210.142 78.3119 210.304 78.3119 210.484C78.3119 210.796 78.4919 211.03 78.8519 211.186C79.2119 211.342 79.7999 211.51 80.6159 211.69C81.5639 211.894 82.2959 212.128 82.8119 212.392C83.3279 212.644 83.6819 212.938 83.8739 213.274C84.0779 213.598 84.1799 214 84.1799 214.48C84.1799 214.984 84.0179 215.446 83.6939 215.866C83.3819 216.274 82.9199 216.604 82.3079 216.856C81.6959 217.096 80.9399 217.216 80.0399 217.216ZM91.3189 217.216C90.4189 217.216 89.6029 217.036 88.8709 216.676C88.1389 216.304 87.5569 215.776 87.1249 215.092C86.6929 214.396 86.4769 213.556 86.4769 212.572C86.4769 211.612 86.6929 210.79 87.1249 210.106C87.5569 209.41 88.1209 208.876 88.8169 208.504C89.5129 208.132 90.2569 207.946 91.0489 207.946C91.9249 207.946 92.6629 208.126 93.2629 208.486C93.8749 208.846 94.3369 209.344 94.6489 209.98C94.9729 210.604 95.1349 211.324 95.1349 212.14C95.1349 212.344 95.1229 212.542 95.0989 212.734C95.0869 212.914 95.0689 213.064 95.0449 213.184H87.9709V211.708H93.7129L93.3169 212.176C93.3169 211.3 93.1189 210.646 92.7229 210.214C92.3389 209.77 91.7989 209.548 91.1029 209.548C90.6109 209.548 90.1669 209.662 89.7709 209.89C89.3869 210.118 89.0809 210.46 88.8529 210.916C88.6249 211.36 88.5109 211.912 88.5109 212.572C88.5109 213.256 88.6369 213.82 88.8889 214.264C89.1529 214.708 89.5129 215.044 89.9689 215.272C90.4369 215.5 90.9769 215.614 91.5889 215.614C92.0569 215.614 92.4889 215.548 92.8849 215.416C93.2809 215.284 93.6769 215.104 94.0729 214.876L94.7749 216.172C94.3069 216.472 93.7789 216.724 93.1909 216.928C92.6029 217.12 91.9789 217.216 91.3189 217.216ZM98.5119 217V208.162H100.222L100.402 210.16H100.456C100.9 209.44 101.446 208.894 102.094 208.522C102.754 208.138 103.462 207.946 104.218 207.946C104.578 207.946 104.89 207.976 105.154 208.036C105.418 208.096 105.676 208.186 105.928 208.306L105.496 210.052C105.208 209.956 104.95 209.89 104.722 209.854C104.506 209.806 104.23 209.782 103.894 209.782C103.294 209.782 102.706 209.956 102.13 210.304C101.566 210.652 101.056 211.258 100.6 212.122V217H98.5119ZM108.441 217V208.162H110.151L110.313 209.494H110.385C110.805 209.062 111.267 208.696 111.771 208.396C112.287 208.096 112.887 207.946 113.571 207.946C114.591 207.946 115.341 208.258 115.821 208.882C116.301 209.506 116.541 210.388 116.541 211.528V217H114.453V211.798C114.453 211.09 114.327 210.568 114.075 210.232C113.823 209.896 113.397 209.728 112.797 209.728C112.365 209.728 111.981 209.83 111.645 210.034C111.309 210.238 110.937 210.55 110.529 210.97V217H108.441ZM121.988 217.216C121.412 217.216 120.902 217.108 120.458 216.892C120.014 216.664 119.666 216.358 119.414 215.974C119.162 215.59 119.036 215.14 119.036 214.624C119.036 213.64 119.504 212.89 120.44 212.374C121.388 211.846 122.954 211.504 125.138 211.348C125.114 211.024 125.024 210.73 124.868 210.466C124.724 210.202 124.502 209.998 124.202 209.854C123.902 209.698 123.512 209.62 123.032 209.62C122.696 209.62 122.366 209.662 122.042 209.746C121.718 209.83 121.394 209.944 121.07 210.088C120.758 210.232 120.446 210.388 120.134 210.556L119.378 209.17C119.738 208.954 120.134 208.756 120.566 208.576C120.998 208.384 121.454 208.234 121.934 208.126C122.414 208.006 122.906 207.946 123.41 207.946C124.238 207.946 124.928 208.096 125.48 208.396C126.044 208.684 126.47 209.116 126.758 209.692C127.058 210.256 127.208 210.946 127.208 211.762V217H125.516L125.354 215.902H125.3C124.832 216.262 124.31 216.574 123.734 216.838C123.17 217.09 122.588 217.216 121.988 217.216ZM122.618 215.596C123.062 215.596 123.488 215.5 123.896 215.308C124.316 215.104 124.73 214.84 125.138 214.516V212.644C124.082 212.716 123.254 212.836 122.654 213.004C122.054 213.16 121.634 213.364 121.394 213.616C121.154 213.868 121.034 214.15 121.034 214.462C121.034 214.726 121.106 214.942 121.25 215.11C121.394 215.278 121.58 215.404 121.808 215.488C122.048 215.56 122.318 215.596 122.618 215.596ZM129.379 217V208.162H130.981L131.143 209.278H131.197C131.389 208.894 131.635 208.576 131.935 208.324C132.235 208.072 132.643 207.946 133.159 207.946C133.567 207.946 133.909 208.072 134.185 208.324C134.461 208.564 134.653 208.93 134.761 209.422C134.965 208.99 135.223 208.636 135.535 208.36C135.847 208.084 136.261 207.946 136.777 207.946C137.401 207.946 137.881 208.192 138.217 208.684C138.565 209.164 138.739 209.848 138.739 210.736V217H136.741V210.88C136.741 210.1 136.507 209.71 136.039 209.71C135.799 209.71 135.595 209.8 135.427 209.98C135.271 210.16 135.103 210.442 134.923 210.826V217H133.195V210.88C133.195 210.496 133.141 210.208 133.033 210.016C132.925 209.812 132.745 209.71 132.493 209.71C132.265 209.71 132.067 209.8 131.899 209.98C131.731 210.16 131.563 210.442 131.395 210.826V217H129.379ZM145.284 217.216C144.384 217.216 143.568 217.036 142.836 216.676C142.104 216.304 141.522 215.776 141.09 215.092C140.658 214.396 140.442 213.556 140.442 212.572C140.442 211.612 140.658 210.79 141.09 210.106C141.522 209.41 142.086 208.876 142.782 208.504C143.478 208.132 144.222 207.946 145.014 207.946C145.89 207.946 146.628 208.126 147.228 208.486C147.84 208.846 148.302 209.344 148.614 209.98C148.938 210.604 149.1 211.324 149.1 212.14C149.1 212.344 149.088 212.542 149.064 212.734C149.052 212.914 149.034 213.064 149.01 213.184H141.936V211.708H147.678L147.282 212.176C147.282 211.3 147.084 210.646 146.688 210.214C146.304 209.77 145.764 209.548 145.068 209.548C144.576 209.548 144.132 209.662 143.736 209.89C143.352 210.118 143.046 210.46 142.818 210.916C142.59 211.36 142.476 211.912 142.476 212.572C142.476 213.256 142.602 213.82 142.854 214.264C143.118 214.708 143.478 215.044 143.934 215.272C144.402 215.5 144.942 215.614 145.554 215.614C146.022 215.614 146.454 215.548 146.85 215.416C147.246 215.284 147.642 215.104 148.038 214.876L148.74 216.172C148.272 216.472 147.744 216.724 147.156 216.928C146.568 217.12 145.944 217.216 145.284 217.216ZM151.217 219.736V218.116H159.857V219.736H151.217ZM166.33 217.216C165.55 217.216 164.824 217.036 164.152 216.676C163.48 216.304 162.934 215.776 162.514 215.092C162.094 214.396 161.884 213.562 161.884 212.59C161.884 211.606 162.094 210.772 162.514 210.088C162.934 209.392 163.48 208.864 164.152 208.504C164.824 208.132 165.55 207.946 166.33 207.946C167.11 207.946 167.836 208.132 168.508 208.504C169.18 208.864 169.726 209.392 170.146 210.088C170.566 210.772 170.776 211.606 170.776 212.59C170.776 213.562 170.566 214.396 170.146 215.092C169.726 215.776 169.18 216.304 168.508 216.676C167.836 217.036 167.11 217.216 166.33 217.216ZM166.33 215.524C166.81 215.524 167.224 215.404 167.572 215.164C167.92 214.924 168.184 214.582 168.364 214.138C168.544 213.694 168.634 213.178 168.634 212.59C168.634 212.002 168.544 211.486 168.364 211.042C168.184 210.598 167.92 210.256 167.572 210.016C167.224 209.764 166.81 209.638 166.33 209.638C165.85 209.638 165.436 209.764 165.088 210.016C164.752 210.256 164.488 210.598 164.296 211.042C164.116 211.486 164.026 212.002 164.026 212.59C164.026 213.178 164.116 213.694 164.296 214.138C164.488 214.582 164.752 214.924 165.088 215.164C165.436 215.404 165.85 215.524 166.33 215.524ZM174.063 217V208.162H175.773L175.953 210.16H176.007C176.451 209.44 176.997 208.894 177.645 208.522C178.305 208.138 179.013 207.946 179.769 207.946C180.129 207.946 180.441 207.976 180.705 208.036C180.969 208.096 181.227 208.186 181.479 208.306L181.047 210.052C180.759 209.956 180.501 209.89 180.273 209.854C180.057 209.806 179.781 209.782 179.445 209.782C178.845 209.782 178.257 209.956 177.681 210.304C177.117 210.652 176.607 211.258 176.151 212.122V217H174.063ZM183.596 219.736V218.116H192.236V219.736H183.596ZM198.709 217.216C197.929 217.216 197.203 217.036 196.531 216.676C195.859 216.304 195.313 215.776 194.893 215.092C194.473 214.396 194.263 213.562 194.263 212.59C194.263 211.606 194.473 210.772 194.893 210.088C195.313 209.392 195.859 208.864 196.531 208.504C197.203 208.132 197.929 207.946 198.709 207.946C199.489 207.946 200.215 208.132 200.887 208.504C201.559 208.864 202.105 209.392 202.525 210.088C202.945 210.772 203.155 211.606 203.155 212.59C203.155 213.562 202.945 214.396 202.525 215.092C202.105 215.776 201.559 216.304 200.887 216.676C200.215 217.036 199.489 217.216 198.709 217.216ZM198.709 215.524C199.189 215.524 199.603 215.404 199.951 215.164C200.299 214.924 200.563 214.582 200.743 214.138C200.923 213.694 201.013 213.178 201.013 212.59C201.013 212.002 200.923 211.486 200.743 211.042C200.563 210.598 200.299 210.256 199.951 210.016C199.603 209.764 199.189 209.638 198.709 209.638C198.229 209.638 197.815 209.764 197.467 210.016C197.131 210.256 196.867 210.598 196.675 211.042C196.495 211.486 196.405 212.002 196.405 212.59C196.405 213.178 196.495 213.694 196.675 214.138C196.867 214.582 197.131 214.924 197.467 215.164C197.815 215.404 198.229 215.524 198.709 215.524ZM206.442 217V208.162H208.152L208.332 210.16H208.386C208.83 209.44 209.376 208.894 210.024 208.522C210.684 208.138 211.392 207.946 212.148 207.946C212.508 207.946 212.82 207.976 213.084 208.036C213.348 208.096 213.606 208.186 213.858 208.306L213.426 210.052C213.138 209.956 212.88 209.89 212.652 209.854C212.436 209.806 212.16 209.782 211.824 209.782C211.224 209.782 210.636 209.956 210.06 210.304C209.496 210.652 208.986 211.258 208.53 212.122V217H206.442ZM220.043 220.906C219.227 220.906 218.519 220.816 217.919 220.636C217.319 220.468 216.851 220.21 216.515 219.862C216.179 219.514 216.011 219.076 216.011 218.548C216.011 218.2 216.131 217.864 216.371 217.54C216.611 217.216 216.959 216.934 217.415 216.694V216.622C217.187 216.478 216.977 216.292 216.785 216.064C216.605 215.824 216.515 215.518 216.515 215.146C216.515 214.858 216.611 214.564 216.803 214.264C216.995 213.964 217.253 213.706 217.577 213.49V213.418C217.265 213.19 216.995 212.884 216.767 212.5C216.551 212.104 216.443 211.648 216.443 211.132C216.443 210.448 216.611 209.872 216.947 209.404C217.283 208.924 217.727 208.564 218.279 208.324C218.831 208.072 219.431 207.946 220.079 207.946C220.607 207.946 221.069 208.018 221.465 208.162H225.083V209.746H223.049C223.205 209.914 223.337 210.13 223.445 210.394C223.565 210.646 223.625 210.916 223.625 211.204C223.625 211.852 223.463 212.404 223.139 212.86C222.827 213.304 222.407 213.64 221.879 213.868C221.351 214.096 220.751 214.21 220.079 214.21C219.875 214.21 219.653 214.192 219.413 214.156C219.185 214.108 218.957 214.042 218.729 213.958C218.549 214.066 218.411 214.186 218.315 214.318C218.231 214.45 218.189 214.606 218.189 214.786C218.189 215.062 218.327 215.272 218.603 215.416C218.891 215.548 219.311 215.614 219.863 215.614H221.663C222.815 215.614 223.679 215.782 224.255 216.118C224.843 216.442 225.137 216.994 225.137 217.774C225.137 218.35 224.927 218.878 224.507 219.358C224.099 219.838 223.511 220.216 222.743 220.492C221.987 220.768 221.087 220.906 220.043 220.906ZM220.079 212.896C220.391 212.896 220.673 212.83 220.925 212.698C221.177 212.554 221.375 212.35 221.519 212.086C221.675 211.822 221.753 211.504 221.753 211.132C221.753 210.772 221.675 210.466 221.519 210.214C221.375 209.95 221.177 209.746 220.925 209.602C220.673 209.458 220.391 209.386 220.079 209.386C219.779 209.386 219.503 209.458 219.251 209.602C218.999 209.746 218.795 209.95 218.639 210.214C218.483 210.466 218.405 210.772 218.405 211.132C218.405 211.504 218.483 211.822 218.639 212.086C218.795 212.35 218.999 212.554 219.251 212.698C219.503 212.83 219.779 212.896 220.079 212.896ZM220.295 219.538C220.871 219.538 221.369 219.472 221.789 219.34C222.221 219.208 222.551 219.034 222.779 218.818C223.019 218.602 223.139 218.368 223.139 218.116C223.139 217.768 222.989 217.534 222.689 217.414C222.401 217.306 221.957 217.252 221.357 217.252H219.953C219.665 217.252 219.413 217.24 219.197 217.216C218.981 217.192 218.783 217.162 218.603 217.126C218.291 217.306 218.069 217.492 217.937 217.684C217.805 217.876 217.739 218.074 217.739 218.278C217.739 218.674 217.961 218.98 218.405 219.196C218.849 219.424 219.479 219.538 220.295 219.538ZM227.164 217V208.162H228.874L229.036 209.494H229.108C229.528 209.062 229.99 208.696 230.494 208.396C231.01 208.096 231.61 207.946 232.294 207.946C233.314 207.946 234.064 208.258 234.544 208.882C235.024 209.506 235.264 210.388 235.264 211.528V217H233.176V211.798C233.176 211.09 233.05 210.568 232.798 210.232C232.546 209.896 232.12 209.728 231.52 209.728C231.088 209.728 230.704 209.83 230.368 210.034C230.032 210.238 229.66 210.55 229.252 210.97V217H227.164ZM240.71 217.216C240.134 217.216 239.624 217.108 239.18 216.892C238.736 216.664 238.388 216.358 238.136 215.974C237.884 215.59 237.758 215.14 237.758 214.624C237.758 213.64 238.226 212.89 239.162 212.374C240.11 211.846 241.676 211.504 243.86 211.348C243.836 211.024 243.746 210.73 243.59 210.466C243.446 210.202 243.224 209.998 242.924 209.854C242.624 209.698 242.234 209.62 241.754 209.62C241.418 209.62 241.088 209.662 240.764 209.746C240.44 209.83 240.116 209.944 239.792 210.088C239.48 210.232 239.168 210.388 238.856 210.556L238.1 209.17C238.46 208.954 238.856 208.756 239.288 208.576C239.72 208.384 240.176 208.234 240.656 208.126C241.136 208.006 241.628 207.946 242.132 207.946C242.96 207.946 243.65 208.096 244.202 208.396C244.766 208.684 245.192 209.116 245.48 209.692C245.78 210.256 245.93 210.946 245.93 211.762V217H244.238L244.076 215.902H244.022C243.554 216.262 243.032 216.574 242.456 216.838C241.892 217.09 241.31 217.216 240.71 217.216ZM241.34 215.596C241.784 215.596 242.21 215.5 242.618 215.308C243.038 215.104 243.452 214.84 243.86 214.516V212.644C242.804 212.716 241.976 212.836 241.376 213.004C240.776 213.16 240.356 213.364 240.116 213.616C239.876 213.868 239.756 214.15 239.756 214.462C239.756 214.726 239.828 214.942 239.972 215.11C240.116 215.278 240.302 215.404 240.53 215.488C240.77 215.56 241.04 215.596 241.34 215.596ZM248.101 217V208.162H249.703L249.865 209.278H249.919C250.111 208.894 250.357 208.576 250.657 208.324C250.957 208.072 251.365 207.946 251.881 207.946C252.289 207.946 252.631 208.072 252.907 208.324C253.183 208.564 253.375 208.93 253.483 209.422C253.687 208.99 253.945 208.636 254.257 208.36C254.569 208.084 254.983 207.946 255.499 207.946C256.123 207.946 256.603 208.192 256.939 208.684C257.287 209.164 257.461 209.848 257.461 210.736V217H255.463V210.88C255.463 210.1 255.229 209.71 254.761 209.71C254.521 209.71 254.317 209.8 254.149 209.98C253.993 210.16 253.825 210.442 253.645 210.826V217H251.917V210.88C251.917 210.496 251.863 210.208 251.755 210.016C251.647 209.812 251.467 209.71 251.215 209.71C250.987 209.71 250.789 209.8 250.621 209.98C250.453 210.16 250.285 210.442 250.117 210.826V217H248.101ZM264.006 217.216C263.106 217.216 262.29 217.036 261.558 216.676C260.826 216.304 260.244 215.776 259.812 215.092C259.38 214.396 259.164 213.556 259.164 212.572C259.164 211.612 259.38 210.79 259.812 210.106C260.244 209.41 260.808 208.876 261.504 208.504C262.2 208.132 262.944 207.946 263.736 207.946C264.612 207.946 265.35 208.126 265.95 208.486C266.562 208.846 267.024 209.344 267.336 209.98C267.66 210.604 267.822 211.324 267.822 212.14C267.822 212.344 267.81 212.542 267.786 212.734C267.774 212.914 267.756 213.064 267.732 213.184H260.658V211.708H266.4L266.004 212.176C266.004 211.3 265.806 210.646 265.41 210.214C265.026 209.77 264.486 209.548 263.79 209.548C263.298 209.548 262.854 209.662 262.458 209.89C262.074 210.118 261.768 210.46 261.54 210.916C261.312 211.36 261.198 211.912 261.198 212.572C261.198 213.256 261.324 213.82 261.576 214.264C261.84 214.708 262.2 215.044 262.656 215.272C263.124 215.5 263.664 215.614 264.276 215.614C264.744 215.614 265.176 215.548 265.572 215.416C265.968 215.284 266.364 215.104 266.76 214.876L267.462 216.172C266.994 216.472 266.466 216.724 265.878 216.928C265.29 217.12 264.666 217.216 264.006 217.216ZM270.695 216.298V214.372L275.789 211.06V210.988L270.695 207.676V205.75L277.535 210.286V211.762L270.695 216.298Z" fill="white"/>
<defs>
<filter id="filter0_d_2186_65300" x="0" y="0" width="548" height="354" filterUnits="userSpaceOnUse" color-interpolation-filters="sRGB">
<feFlood flood-opacity="0" result="BackgroundImageFix"/>
<feColorMatrix in="SourceAlpha" type="matrix" values="0 0 0 0 0 0 0 0 0 0 0 0 0 0 0 0 0 0 127 0" result="hardAlpha"/>
<feOffset dy="5"/>
<feGaussianBlur stdDeviation="15.5"/>
<feComposite in2="hardAlpha" operator="out"/>
<feColorMatrix type="matrix" values="0 0 0 0 0 0 0 0 0 0 0 0 0 0 0 0 0 0 0.1 0"/>
<feBlend mode="normal" in2="BackgroundImageFix" result="effect1_dropShadow_2186_65300"/>
<feBlend mode="normal" in="SourceGraphic" in2="effect1_dropShadow_2186_65300" result="shape"/>
</filter>
</defs>
</svg>
