<svg width="86" height="86" viewBox="0 0 86 86" fill="none" xmlns="http://www.w3.org/2000/svg">
<path d="M59.6606 27.1824C56.5069 25.6743 53.1777 24.6044 49.7578 24C49.2898 24.8738 48.8664 25.7729 48.4893 26.6934C44.8465 26.1201 41.142 26.1201 37.4992 26.6934C37.1219 25.773 36.6985 24.8739 36.2307 24C32.8087 24.6095 29.4772 25.6819 26.3204 27.1903C20.0533 36.8757 18.3544 46.3205 19.2038 55.6312C22.874 58.4637 26.982 60.6178 31.3492 62C32.3325 60.6185 33.2027 59.1529 33.9504 57.6187C32.5302 57.0647 31.1595 56.3811 29.8541 55.576C30.1977 55.3157 30.5337 55.0475 30.8584 54.7873C34.6567 56.6531 38.8025 57.6205 42.9999 57.6205C47.1974 57.6205 51.3431 56.6531 55.1415 54.7873C55.4699 55.0672 55.8059 55.3354 56.1457 55.576C54.8378 56.3824 53.4646 57.0673 52.0419 57.6227C52.7887 59.1561 53.6589 60.6205 54.6431 62C59.014 60.6234 63.1252 58.4702 66.796 55.6351C67.7927 44.8377 65.0933 35.4797 59.6606 27.1824ZM35.0264 49.9051C32.6592 49.9051 30.7036 47.6613 30.7036 44.9008C30.7036 42.1403 32.5913 39.8767 35.0188 39.8767C37.4464 39.8767 39.3869 42.1403 39.3454 44.9008C39.3038 47.6613 37.4388 49.9051 35.0264 49.9051ZM50.9735 49.9051C48.6025 49.9051 46.6545 47.6613 46.6545 44.9008C46.6545 42.1403 48.5421 39.8767 50.9735 39.8767C53.4048 39.8767 55.3302 42.1403 55.2887 44.9008C55.2472 47.6613 53.3859 49.9051 50.9735 49.9051Z" fill="#5865F2"/>
<rect x="0.5375" y="0.5375" width="84.925" height="84.925" rx="12.3625" stroke="#333333" stroke-width="1.075"/>
</svg>
