<svg width="86" height="86" viewBox="0 0 86 86" fill="none" xmlns="http://www.w3.org/2000/svg">
<g clip-path="url(#clip0_2197_74909)">
<path d="M43 23C31.95 23 23 31.95 23 43C22.9977 47.1985 24.3176 51.2912 26.7724 54.6973C29.2272 58.1035 32.6923 60.6501 36.676 61.976C37.676 62.15 38.05 61.55 38.05 61.024C38.05 60.55 38.024 58.976 38.024 57.3C33 58.226 31.7 56.076 31.3 54.95C31.074 54.374 30.1 52.6 29.25 52.124C28.55 51.75 27.55 50.824 29.224 50.8C30.8 50.774 31.924 52.25 32.3 52.85C34.1 55.874 36.976 55.024 38.124 54.5C38.3 53.2 38.824 52.326 39.4 51.826C34.95 51.326 30.3 49.6 30.3 41.95C30.3 39.774 31.074 37.976 32.35 36.574C32.15 36.074 31.45 34.024 32.55 31.274C32.55 31.274 34.224 30.75 38.05 33.326C39.6781 32.8741 41.3603 32.6467 43.05 32.65C44.75 32.65 46.45 32.874 48.05 33.324C51.874 30.724 53.55 31.276 53.55 31.276C54.65 34.026 53.95 36.076 53.75 36.576C55.024 37.976 55.8 39.75 55.8 41.95C55.8 49.626 51.126 51.326 46.676 51.826C47.4 52.45 48.026 53.65 48.026 55.526C48.026 58.2 48 60.35 48 61.026C48 61.55 48.376 62.174 49.376 61.974C53.3461 60.6336 56.7958 58.082 59.2398 54.6783C61.6838 51.2746 62.9989 47.1902 63 43C63 31.95 54.05 23 43 23Z" fill="white"/>
</g>
<rect x="0.5375" y="0.5375" width="84.925" height="84.925" rx="12.3625" stroke="#333333" stroke-width="1.075"/>
<defs>
<clipPath id="clip0_2197_74909">
<rect width="48" height="48" fill="white" transform="translate(19 19)"/>
</clipPath>
</defs>
</svg>
