<svg width="1129" height="373" viewBox="0 0 1129 373" fill="none" xmlns="http://www.w3.org/2000/svg">
<path d="M1.6 59L19.76 1.4H33.88L52.04 59H42.12L25.64 7.32H27.8L11.52 59H1.6ZM11.72 46.52V37.52H41.96V46.52H11.72ZM80.0319 60.2C75.8185 60.2 72.2852 59.2 69.4319 57.2C66.5785 55.2 64.4319 52.48 62.9919 49.04C61.5519 45.5733 60.8319 41.6933 60.8319 37.4C60.8319 33.0533 61.5519 29.16 62.9919 25.72C64.4319 22.28 66.5385 19.5733 69.3119 17.6C72.1119 15.6 75.5652 14.6 79.6719 14.6C83.7519 14.6 87.2852 15.6 90.2719 17.6C93.2852 19.5733 95.6185 22.28 97.2719 25.72C98.9252 29.1333 99.7519 33.0267 99.7519 37.4C99.7519 41.72 98.9385 45.6 97.3119 49.04C95.6852 52.48 93.3919 55.2 90.4319 57.2C87.4719 59.2 84.0052 60.2 80.0319 60.2ZM59.1919 59V1.4H68.9119V28.68H67.7119V59H59.1919ZM78.5519 51.56C81.0585 51.56 83.1252 50.9333 84.7519 49.68C86.3785 48.4267 87.5785 46.7333 88.3519 44.6C89.1519 42.44 89.5519 40.04 89.5519 37.4C89.5519 34.7867 89.1519 32.4133 88.3519 30.28C87.5519 28.12 86.3119 26.4133 84.6319 25.16C82.9519 23.88 80.8185 23.24 78.2319 23.24C75.7785 23.24 73.7785 23.84 72.2319 25.04C70.6852 26.2133 69.5385 27.8667 68.7919 30C68.0719 32.1067 67.7119 34.5733 67.7119 37.4C67.7119 40.2 68.0719 42.6667 68.7919 44.8C69.5385 46.9333 70.6985 48.6 72.2719 49.8C73.8719 50.9733 75.9652 51.56 78.5519 51.56ZM140.6 59V1.4H163.44C167.333 1.4 170.52 2.18666 173 3.76C175.507 5.30666 177.36 7.29333 178.56 9.72C179.787 12.1467 180.4 14.6533 180.4 17.24C180.4 20.4133 179.64 23.1067 178.12 25.32C176.627 27.5333 174.587 29.0267 172 29.8V27.8C175.627 28.6267 178.373 30.3467 180.24 32.96C182.133 35.5733 183.08 38.5467 183.08 41.88C183.08 45.2933 182.427 48.28 181.12 50.84C179.813 53.4 177.867 55.4 175.28 56.84C172.72 58.28 169.547 59 165.76 59H140.6ZM150.36 49.92H164.56C166.24 49.92 167.747 49.5867 169.08 48.92C170.413 48.2267 171.453 47.2667 172.2 46.04C172.973 44.7867 173.36 43.3067 173.36 41.6C173.36 40.0533 173.027 38.6667 172.36 37.44C171.693 36.2133 170.72 35.24 169.44 34.52C168.16 33.7733 166.627 33.4 164.84 33.4H150.36V49.92ZM150.36 24.4H163.32C164.707 24.4 165.947 24.1333 167.04 23.6C168.133 23.0667 169 22.28 169.64 21.24C170.28 20.2 170.6 18.92 170.6 17.4C170.6 15.4 169.96 13.7333 168.68 12.4C167.4 11.0667 165.613 10.4 163.32 10.4H150.36V24.4ZM211.829 60.2C207.615 60.2 204.082 59.2 201.229 57.2C198.375 55.2 196.229 52.48 194.789 49.04C193.349 45.5733 192.629 41.6933 192.629 37.4C192.629 33.0533 193.349 29.16 194.789 25.72C196.229 22.28 198.335 19.5733 201.109 17.6C203.909 15.6 207.362 14.6 211.469 14.6C215.549 14.6 219.082 15.6 222.069 17.6C225.082 19.5733 227.415 22.28 229.069 25.72C230.722 29.1333 231.549 33.0267 231.549 37.4C231.549 41.72 230.735 45.6 229.109 49.04C227.482 52.48 225.189 55.2 222.229 57.2C219.269 59.2 215.802 60.2 211.829 60.2ZM190.989 59V1.4H200.709V28.68H199.509V59H190.989ZM210.349 51.56C212.855 51.56 214.922 50.9333 216.549 49.68C218.175 48.4267 219.375 46.7333 220.149 44.6C220.949 42.44 221.349 40.04 221.349 37.4C221.349 34.7867 220.949 32.4133 220.149 30.28C219.349 28.12 218.109 26.4133 216.429 25.16C214.749 23.88 212.615 23.24 210.029 23.24C207.575 23.24 205.575 23.84 204.029 25.04C202.482 26.2133 201.335 27.8667 200.589 30C199.869 32.1067 199.509 34.5733 199.509 37.4C199.509 40.2 199.869 42.6667 200.589 44.8C201.335 46.9333 202.495 48.6 204.069 49.8C205.669 50.9733 207.762 51.56 210.349 51.56ZM296.757 60.2C290.997 60.2 286.064 58.9467 281.957 56.44C277.85 53.9067 274.69 50.3867 272.477 45.88C270.29 41.3733 269.197 36.1467 269.197 30.2C269.197 24.2533 270.29 19.0267 272.477 14.52C274.69 10.0133 277.85 6.50666 281.957 4C286.064 1.46666 290.997 0.199999 296.757 0.199999C303.397 0.199999 308.93 1.86667 313.357 5.2C317.784 8.50666 320.89 12.9733 322.677 18.6L312.957 21.28C311.837 17.52 309.93 14.5867 307.237 12.48C304.544 10.3467 301.05 9.28 296.757 9.28C292.89 9.28 289.664 10.1467 287.077 11.88C284.517 13.6133 282.584 16.0533 281.277 19.2C279.997 22.32 279.344 25.9867 279.317 30.2C279.317 34.4133 279.957 38.0933 281.237 41.24C282.544 44.36 284.49 46.7867 287.077 48.52C289.664 50.2533 292.89 51.12 296.757 51.12C301.05 51.12 304.544 50.0533 307.237 47.92C309.93 45.7867 311.837 42.8533 312.957 39.12L322.677 41.8C320.89 47.4267 317.784 51.9067 313.357 55.24C308.93 58.5467 303.397 60.2 296.757 60.2ZM350.219 60.2C345.766 60.2 341.966 59.2133 338.819 57.24C335.673 55.24 333.259 52.52 331.579 49.08C329.926 45.64 329.086 41.7467 329.059 37.4C329.086 32.9733 329.953 29.0533 331.659 25.64C333.393 22.2 335.846 19.5067 339.019 17.56C342.193 15.5867 345.966 14.6 350.339 14.6C355.246 14.6 359.393 15.84 362.779 18.32C366.193 20.7733 368.419 24.1333 369.459 28.4L359.859 31C359.113 28.68 357.873 26.88 356.139 25.6C354.406 24.2933 352.433 23.64 350.219 23.64C347.713 23.64 345.646 24.24 344.019 25.44C342.393 26.6133 341.193 28.24 340.419 30.32C339.646 32.4 339.259 34.76 339.259 37.4C339.259 41.5067 340.179 44.8267 342.019 47.36C343.859 49.8933 346.593 51.16 350.219 51.16C352.779 51.16 354.793 50.5733 356.259 49.4C357.753 48.2267 358.873 46.5333 359.619 44.32L369.459 46.52C368.126 50.92 365.793 54.3067 362.459 56.68C359.126 59.0267 355.046 60.2 350.219 60.2ZM409.506 59V1.4H427.866C428.346 1.4 429.293 1.41333 430.706 1.44C432.146 1.46666 433.533 1.56 434.866 1.72C439.426 2.30666 443.28 3.93333 446.426 6.6C449.6 9.24 452 12.6133 453.626 16.72C455.253 20.8267 456.066 25.32 456.066 30.2C456.066 35.08 455.253 39.5733 453.626 43.68C452 47.7867 449.6 51.1733 446.426 53.84C443.28 56.48 439.426 58.0933 434.866 58.68C433.56 58.84 432.186 58.9333 430.746 58.96C429.306 58.9867 428.346 59 427.866 59H409.506ZM419.306 49.92H427.866C428.666 49.92 429.68 49.8933 430.906 49.84C432.16 49.7867 433.266 49.6667 434.226 49.48C436.946 48.9733 439.16 47.76 440.866 45.84C442.573 43.92 443.826 41.5867 444.626 38.84C445.453 36.0933 445.866 33.2133 445.866 30.2C445.866 27.08 445.453 24.1467 444.626 21.4C443.8 18.6533 442.52 16.3467 440.786 14.48C439.08 12.6133 436.893 11.4267 434.226 10.92C433.266 10.7067 432.16 10.5867 430.906 10.56C429.68 10.5067 428.666 10.48 427.866 10.48H419.306V49.92ZM482.842 60.2C478.869 60.2 475.402 59.2 472.442 57.2C469.482 55.2 467.189 52.48 465.562 49.04C463.935 45.6 463.122 41.72 463.122 37.4C463.122 33.0267 463.935 29.1333 465.562 25.72C467.215 22.28 469.549 19.5733 472.562 17.6C475.575 15.6 479.122 14.6 483.202 14.6C487.309 14.6 490.749 15.6 493.522 17.6C496.322 19.5733 498.442 22.28 499.882 25.72C501.322 29.16 502.042 33.0533 502.042 37.4C502.042 41.6933 501.322 45.5733 499.882 49.04C498.442 52.48 496.295 55.2 493.442 57.2C490.589 59.2 487.055 60.2 482.842 60.2ZM484.322 51.56C486.909 51.56 488.989 50.9733 490.562 49.8C492.162 48.6 493.322 46.9333 494.042 44.8C494.789 42.6667 495.162 40.2 495.162 37.4C495.162 34.5733 494.789 32.1067 494.042 30C493.322 27.8667 492.189 26.2133 490.642 25.04C489.095 23.84 487.095 23.24 484.642 23.24C482.055 23.24 479.922 23.88 478.242 25.16C476.562 26.4133 475.322 28.12 474.522 30.28C473.722 32.4133 473.322 34.7867 473.322 37.4C473.322 40.04 473.709 42.44 474.482 44.6C475.282 46.7333 476.495 48.4267 478.122 49.68C479.749 50.9333 481.815 51.56 484.322 51.56ZM495.162 59V28.68H493.962V1.4H503.682V59H495.162ZM546.928 59V1.4H584.128V10.44H556.568V24.64H579.328V33.68H556.568V49.96H584.128V59H546.928ZM613.365 60.2C608.992 60.2 605.152 59.2533 601.845 57.36C598.538 55.4667 595.952 52.84 594.085 49.48C592.245 46.12 591.325 42.2533 591.325 37.88C591.325 33.16 592.232 29.0667 594.045 25.6C595.858 22.1067 598.378 19.4 601.605 17.48C604.832 15.56 608.565 14.6 612.805 14.6C617.285 14.6 621.085 15.6533 624.205 17.76C627.352 19.84 629.685 22.7867 631.205 26.6C632.725 30.4133 633.298 34.9067 632.925 40.08H623.365V36.56C623.338 31.8667 622.512 28.44 620.885 26.28C619.258 24.12 616.698 23.04 613.205 23.04C609.258 23.04 606.325 24.2667 604.405 26.72C602.485 29.1467 601.525 32.7067 601.525 37.4C601.525 41.7733 602.485 45.16 604.405 47.56C606.325 49.96 609.125 51.16 612.805 51.16C615.178 51.16 617.218 50.64 618.925 49.6C620.658 48.5333 621.992 47 622.925 45L632.445 47.88C630.792 51.7733 628.232 54.8 624.765 56.96C621.325 59.12 617.525 60.2 613.365 60.2ZM598.485 40.08V32.8H628.205V40.08H598.485ZM673.881 59V1.4H708.561V11.04H683.521V25.4H703.761V35H683.521V59H673.881ZM719.516 59V15.12C719.516 14.0267 719.556 12.8267 719.636 11.52C719.716 10.1867 719.943 8.86666 720.316 7.56C720.69 6.25333 721.37 5.06666 722.356 4C723.583 2.64 724.903 1.70666 726.316 1.2C727.756 0.666665 729.17 0.373331 730.556 0.319995C731.943 0.239998 733.156 0.199999 734.196 0.199999H739.596V8.04H734.596C732.756 8.04 731.383 8.50666 730.476 9.44C729.596 10.3467 729.156 11.5467 729.156 13.04V59H719.516ZM712.556 23.36V15.8H739.596V23.36H712.556ZM801.782 60.2C798.049 60.2 794.542 59.5467 791.262 58.24C788.009 56.9067 785.142 54.96 782.662 52.4C780.209 49.84 778.289 46.7067 776.902 43C775.515 39.2667 774.822 35 774.822 30.2C774.822 23.9067 775.995 18.5333 778.342 14.08C780.689 9.6 783.902 6.17333 787.982 3.8C792.062 1.4 796.662 0.199999 801.782 0.199999C808.875 0.199999 814.489 1.85333 818.622 5.16C822.782 8.44 825.595 13.0533 827.062 19L817.222 20.56C816.129 17.1467 814.342 14.4267 811.862 12.4C809.382 10.3467 806.222 9.32 802.382 9.32C798.515 9.26666 795.302 10.1067 792.742 11.84C790.182 13.5733 788.249 16.0133 786.942 19.16C785.662 22.3067 785.022 25.9867 785.022 30.2C785.022 34.4133 785.662 38.08 786.942 41.2C788.222 44.2933 790.142 46.7067 792.702 48.44C795.289 50.1733 798.515 51.0667 802.382 51.12C805.289 51.1467 807.835 50.6267 810.022 49.56C812.209 48.4667 813.995 46.8267 815.382 44.64C816.769 42.4267 817.702 39.6667 818.182 36.36H808.022V28.8H828.422C828.475 29.2267 828.515 29.8533 828.542 30.68C828.569 31.5067 828.582 32 828.582 32.16C828.582 37.6 827.502 42.44 825.342 46.68C823.209 50.8933 820.142 54.2 816.142 56.6C812.142 59 807.355 60.2 801.782 60.2ZM854.776 79.4C852.376 79.4 850.069 79.0267 847.856 78.28C845.669 77.5333 843.696 76.4533 841.936 75.04C840.176 73.6533 838.736 71.9733 837.616 70L846.496 65.6C847.322 67.1733 848.482 68.3333 849.976 69.08C851.496 69.8533 853.109 70.24 854.816 70.24C856.816 70.24 858.602 69.88 860.176 69.16C861.749 68.4667 862.962 67.4267 863.816 66.04C864.696 64.68 865.109 62.9733 865.056 60.92V48.64H866.256V15.8H874.696V61.08C874.696 62.1733 874.642 63.2133 874.536 64.2C874.456 65.2133 874.309 66.2 874.096 67.16C873.456 69.96 872.229 72.2533 870.416 74.04C868.602 75.8533 866.349 77.2 863.656 78.08C860.989 78.96 858.029 79.4 854.776 79.4ZM853.936 60.2C849.962 60.2 846.496 59.2 843.536 57.2C840.576 55.2 838.282 52.48 836.656 49.04C835.029 45.6 834.216 41.72 834.216 37.4C834.216 33.0267 835.029 29.1333 836.656 25.72C838.309 22.28 840.642 19.5733 843.656 17.6C846.669 15.6 850.216 14.6 854.296 14.6C858.402 14.6 861.842 15.6 864.616 17.6C867.416 19.5733 869.536 22.28 870.976 25.72C872.416 29.16 873.136 33.0533 873.136 37.4C873.136 41.6933 872.416 45.5733 870.976 49.04C869.536 52.48 867.389 55.2 864.536 57.2C861.682 59.2 858.149 60.2 853.936 60.2ZM855.416 51.56C858.002 51.56 860.082 50.9733 861.656 49.8C863.256 48.6 864.416 46.9333 865.136 44.8C865.882 42.6667 866.256 40.2 866.256 37.4C866.256 34.5733 865.882 32.1067 865.136 30C864.416 27.8667 863.282 26.2133 861.736 25.04C860.189 23.84 858.189 23.24 855.736 23.24C853.149 23.24 851.016 23.88 849.336 25.16C847.656 26.4133 846.416 28.12 845.616 30.28C844.816 32.4133 844.416 34.7867 844.416 37.4C844.416 40.04 844.802 42.44 845.576 44.6C846.376 46.7333 847.589 48.4267 849.216 49.68C850.842 50.9333 852.909 51.56 855.416 51.56ZM917.944 59V1.4H927.584V25.64H954.864V1.4H964.464V59H954.864V34.68H927.584V59H917.944ZM1005.56 59V38.2C1005.56 36.84 1005.46 35.3333 1005.28 33.68C1005.09 32.0267 1004.65 30.44 1003.96 28.92C1003.29 27.3733 1002.28 26.1067 1000.92 25.12C999.585 24.1333 997.771 23.64 995.478 23.64C994.251 23.64 993.038 23.84 991.838 24.24C990.638 24.64 989.545 25.3333 988.558 26.32C987.598 27.28 986.825 28.6133 986.238 30.32C985.651 32 985.358 34.16 985.358 36.8L979.638 34.36C979.638 30.68 980.345 27.3467 981.758 24.36C983.198 21.3733 985.305 19 988.078 17.24C990.851 15.4533 994.265 14.56 998.318 14.56C1001.52 14.56 1004.16 15.0933 1006.24 16.16C1008.32 17.2267 1009.97 18.5867 1011.2 20.24C1012.42 21.8933 1013.33 23.6533 1013.92 25.52C1014.5 27.3867 1014.88 29.16 1015.04 30.84C1015.22 32.4933 1015.32 33.84 1015.32 34.88V59H1005.56ZM975.598 59V1.4H984.198V31.72H985.358V59H975.598ZM1058.59 59V1.4H1068.23V59H1058.59ZM1081.01 9.24V0.399999H1090.65V9.24H1081.01ZM1081.01 59V15.8H1090.65V59H1081.01ZM17.12 164.2C12.72 164.2 9.05333 163.053 6.12 160.76C3.21333 158.467 1.17333 155.373 0 151.48L9.52 149.2C9.81333 150.827 10.6667 152.227 12.08 153.4C13.4933 154.573 15.0533 155.16 16.76 155.16C17.88 155.16 19.0667 154.867 20.32 154.28C21.5733 153.667 22.5067 152.693 23.12 151.36C23.4933 150.507 23.7067 149.493 23.76 148.32C23.84 147.12 23.88 145.733 23.88 144.16V105.4H33.64V144.16C33.64 145.947 33.6267 147.52 33.6 148.88C33.6 150.213 33.4667 151.48 33.2 152.68C32.96 153.853 32.4667 155.067 31.72 156.32C30.1467 159.04 28.0933 161.04 25.56 162.32C23.0267 163.573 20.2133 164.2 17.12 164.2ZM39.2781 182.2V173.16H41.3181C43.6648 173.16 45.3315 172.613 46.3181 171.52C47.3048 170.427 47.7981 168.813 47.7981 166.68V119.8H57.3981V171C57.3981 174.493 56.3715 177.227 54.3181 179.2C52.2915 181.2 49.4648 182.2 45.8381 182.2H39.2781ZM47.7981 113.24V104.4H57.3981V113.24H47.7981ZM100.756 163V105.4H110.396V132.12L133.396 105.4H145.236L120.476 133.64L146.916 163H134.676L110.396 136.12V163H100.756ZM152.473 163L152.553 105.4H162.313V140.6L178.113 119.8H190.153L173.393 141.4L191.593 163H178.833L162.313 142.2V163H152.473ZM228.431 163V105.4H238.071V153.96H263.511V163H228.431ZM271.088 163V104.2H280.728V163H271.088ZM324.741 163V105.4H333.421L353.341 146.2L373.261 105.4H381.941V163H372.941V126.08L355.261 163H351.421L333.781 126.08V163H324.741ZM445.058 163V136.76C445.058 133.8 444.325 131.493 442.858 129.84C441.391 128.16 439.405 127.32 436.898 127.32C435.351 127.32 433.965 127.68 432.738 128.4C431.511 129.093 430.538 130.133 429.818 131.52C429.098 132.88 428.738 134.507 428.738 136.4L424.458 133.88C424.431 130.893 425.098 128.267 426.458 126C427.845 123.707 429.711 121.92 432.058 120.64C434.405 119.36 437.018 118.72 439.898 118.72C444.671 118.72 448.325 120.16 450.858 123.04C453.418 125.893 454.698 129.653 454.698 134.32V163H445.058ZM393.098 163V119.8H401.618V133.2H402.818V163H393.098ZM419.138 163V136.88C419.138 133.867 418.405 131.52 416.938 129.84C415.471 128.16 413.471 127.32 410.938 127.32C408.485 127.32 406.511 128.16 405.018 129.84C403.551 131.52 402.818 133.707 402.818 136.4L398.498 133.52C398.498 130.72 399.191 128.2 400.578 125.96C401.965 123.72 403.831 121.96 406.178 120.68C408.551 119.373 411.205 118.72 414.138 118.72C417.365 118.72 420.058 119.413 422.218 120.8C424.405 122.16 426.031 124.027 427.098 126.4C428.191 128.747 428.738 131.4 428.738 134.36V163H419.138ZM497.163 163V105.4H506.923L533.643 146V105.4H543.403V163H533.643L506.923 122.4V163H497.163ZM584.464 163V142.2C584.464 140.84 584.371 139.333 584.184 137.68C583.998 136.027 583.558 134.44 582.864 132.92C582.198 131.373 581.184 130.107 579.824 129.12C578.491 128.133 576.678 127.64 574.384 127.64C573.158 127.64 571.944 127.84 570.744 128.24C569.544 128.64 568.451 129.333 567.464 130.32C566.504 131.28 565.731 132.613 565.144 134.32C564.558 136 564.264 138.16 564.264 140.8L558.544 138.36C558.544 134.68 559.251 131.347 560.664 128.36C562.104 125.373 564.211 123 566.984 121.24C569.758 119.453 573.171 118.56 577.224 118.56C580.424 118.56 583.064 119.093 585.144 120.16C587.224 121.227 588.878 122.587 590.104 124.24C591.331 125.893 592.238 127.653 592.824 129.52C593.411 131.387 593.784 133.16 593.944 134.84C594.131 136.493 594.224 137.84 594.224 138.88V163H584.464ZM554.504 163V119.8H563.104V133.2H564.264V163H554.504ZM661.054 164.2C655.294 164.2 650.36 162.947 646.254 160.44C642.147 157.907 638.987 154.387 636.774 149.88C634.587 145.373 633.494 140.147 633.494 134.2C633.494 128.253 634.587 123.027 636.774 118.52C638.987 114.013 642.147 110.507 646.254 108C650.36 105.467 655.294 104.2 661.054 104.2C666.814 104.2 671.747 105.467 675.854 108C679.987 110.507 683.147 114.013 685.334 118.52C687.547 123.027 688.654 128.253 688.654 134.2C688.654 140.147 687.547 145.373 685.334 149.88C683.147 154.387 679.987 157.907 675.854 160.44C671.747 162.947 666.814 164.2 661.054 164.2ZM661.054 155.12C664.92 155.147 668.134 154.293 670.694 152.56C673.28 150.827 675.214 148.387 676.494 145.24C677.8 142.093 678.454 138.413 678.454 134.2C678.454 129.987 677.8 126.333 676.494 123.24C675.214 120.12 673.28 117.693 670.694 115.96C668.134 114.227 664.92 113.333 661.054 113.28C657.187 113.253 653.974 114.107 651.414 115.84C648.854 117.573 646.92 120.013 645.614 123.16C644.334 126.307 643.694 129.987 643.694 134.2C643.694 138.413 644.334 142.08 645.614 145.2C646.894 148.293 648.814 150.707 651.374 152.44C653.96 154.173 657.187 155.067 661.054 155.12ZM715.696 164.2C711.376 164.2 707.602 163.227 704.376 161.28C701.149 159.333 698.642 156.653 696.856 153.24C695.096 149.8 694.216 145.853 694.216 141.4C694.216 136.867 695.122 132.893 696.936 129.48C698.749 126.067 701.269 123.4 704.496 121.48C707.722 119.56 711.456 118.6 715.696 118.6C720.042 118.6 723.829 119.573 727.056 121.52C730.282 123.467 732.789 126.16 734.576 129.6C736.362 133.013 737.256 136.947 737.256 141.4C737.256 145.88 736.349 149.84 734.536 153.28C732.749 156.693 730.242 159.373 727.016 161.32C723.789 163.24 720.016 164.2 715.696 164.2ZM715.696 155.16C719.536 155.16 722.389 153.88 724.256 151.32C726.122 148.76 727.056 145.453 727.056 141.4C727.056 137.213 726.109 133.88 724.216 131.4C722.322 128.893 719.482 127.64 715.696 127.64C713.109 127.64 710.976 128.227 709.296 129.4C707.642 130.547 706.416 132.16 705.616 134.24C704.816 136.293 704.416 138.68 704.416 141.4C704.416 145.587 705.362 148.933 707.256 151.44C709.176 153.92 711.989 155.16 715.696 155.16ZM778.1 163V105.4H801.9C802.46 105.4 803.18 105.427 804.06 105.48C804.94 105.507 805.753 105.587 806.5 105.72C809.833 106.227 812.58 107.333 814.74 109.04C816.927 110.747 818.54 112.907 819.58 115.52C820.647 118.107 821.18 120.987 821.18 124.16C821.18 127.307 820.647 130.187 819.58 132.8C818.513 135.387 816.887 137.533 814.7 139.24C812.54 140.947 809.807 142.053 806.5 142.56C805.753 142.667 804.927 142.747 804.02 142.8C803.14 142.853 802.433 142.88 801.9 142.88H787.74V163H778.1ZM787.74 133.88H801.5C802.033 133.88 802.633 133.853 803.3 133.8C803.967 133.747 804.58 133.64 805.14 133.48C806.74 133.08 807.993 132.373 808.9 131.36C809.833 130.347 810.487 129.2 810.86 127.92C811.26 126.64 811.46 125.387 811.46 124.16C811.46 122.933 811.26 121.68 810.86 120.4C810.487 119.093 809.833 117.933 808.9 116.92C807.993 115.907 806.74 115.2 805.14 114.8C804.58 114.64 803.967 114.547 803.3 114.52C802.633 114.467 802.033 114.44 801.5 114.44H787.74V133.88ZM849.954 164.2C845.74 164.2 842.207 163.2 839.354 161.2C836.5 159.2 834.354 156.48 832.914 153.04C831.474 149.573 830.754 145.693 830.754 141.4C830.754 137.053 831.474 133.16 832.914 129.72C834.354 126.28 836.46 123.573 839.234 121.6C842.034 119.6 845.487 118.6 849.594 118.6C853.674 118.6 857.207 119.6 860.194 121.6C863.207 123.573 865.54 126.28 867.194 129.72C868.847 133.133 869.674 137.027 869.674 141.4C869.674 145.72 868.86 149.6 867.234 153.04C865.607 156.48 863.314 159.2 860.354 161.2C857.394 163.2 853.927 164.2 849.954 164.2ZM829.114 182.2V119.8H837.634V150.12H838.834V182.2H829.114ZM848.474 155.56C850.98 155.56 853.047 154.933 854.674 153.68C856.3 152.427 857.5 150.733 858.274 148.6C859.074 146.44 859.474 144.04 859.474 141.4C859.474 138.787 859.074 136.413 858.274 134.28C857.474 132.12 856.234 130.413 854.554 129.16C852.874 127.88 850.74 127.24 848.154 127.24C845.7 127.24 843.7 127.84 842.154 129.04C840.607 130.213 839.46 131.867 838.714 134C837.994 136.107 837.634 138.573 837.634 141.4C837.634 144.2 837.994 146.667 838.714 148.8C839.46 150.933 840.62 152.6 842.194 153.8C843.794 154.973 845.887 155.56 848.474 155.56ZM955.602 164.2L939.162 147.84L945.202 141.8L961.562 158.16L955.602 164.2ZM934.882 164.2C929.122 164.2 924.189 162.947 920.082 160.44C915.975 157.907 912.815 154.387 910.602 149.88C908.415 145.373 907.322 140.147 907.322 134.2C907.322 128.253 908.415 123.027 910.602 118.52C912.815 114.013 915.975 110.507 920.082 108C924.189 105.467 929.122 104.2 934.882 104.2C940.642 104.2 945.575 105.467 949.682 108C953.815 110.507 956.975 114.013 959.162 118.52C961.375 123.027 962.482 128.253 962.482 134.2C962.482 140.147 961.375 145.373 959.162 149.88C956.975 154.387 953.815 157.907 949.682 160.44C945.575 162.947 940.642 164.2 934.882 164.2ZM934.882 155.12C938.749 155.147 941.962 154.293 944.522 152.56C947.109 150.827 949.042 148.387 950.322 145.24C951.629 142.093 952.282 138.413 952.282 134.2C952.282 129.987 951.629 126.333 950.322 123.24C949.042 120.12 947.109 117.693 944.522 115.96C941.962 114.227 938.749 113.333 934.882 113.28C931.015 113.253 927.802 114.107 925.242 115.84C922.682 117.573 920.749 120.013 919.442 123.16C918.162 126.307 917.522 129.987 917.522 134.2C917.522 138.413 918.162 142.08 919.442 145.2C920.722 148.293 922.642 150.707 925.202 152.44C927.789 154.173 931.015 155.067 934.882 155.12ZM987.764 164.2C983.79 164.2 980.324 163.2 977.364 161.2C974.404 159.2 972.11 156.48 970.484 153.04C968.857 149.6 968.044 145.72 968.044 141.4C968.044 137.027 968.857 133.133 970.484 129.72C972.137 126.28 974.47 123.573 977.484 121.6C980.497 119.6 984.044 118.6 988.124 118.6C992.23 118.6 995.67 119.6 998.444 121.6C1001.24 123.573 1003.36 126.28 1004.8 129.72C1006.24 133.16 1006.96 137.053 1006.96 141.4C1006.96 145.693 1006.24 149.573 1004.8 153.04C1003.36 156.48 1001.22 159.2 998.364 161.2C995.51 163.2 991.977 164.2 987.764 164.2ZM989.244 155.56C991.83 155.56 993.91 154.973 995.484 153.8C997.084 152.6 998.244 150.933 998.964 148.8C999.71 146.667 1000.08 144.2 1000.08 141.4C1000.08 138.573 999.71 136.107 998.964 134C998.244 131.867 997.11 130.213 995.564 129.04C994.017 127.84 992.017 127.24 989.564 127.24C986.977 127.24 984.844 127.88 983.164 129.16C981.484 130.413 980.244 132.12 979.444 134.28C978.644 136.413 978.244 138.787 978.244 141.4C978.244 144.04 978.63 146.44 979.404 148.6C980.204 150.733 981.417 152.427 983.044 153.68C984.67 154.933 986.737 155.56 989.244 155.56ZM998.884 182.2V150.12H1000.08V119.8H1008.6V182.2H998.884ZM1051.85 163V105.4H1075.65C1076.21 105.4 1076.93 105.427 1077.81 105.48C1078.69 105.507 1079.5 105.587 1080.25 105.72C1083.58 106.227 1086.33 107.333 1088.49 109.04C1090.68 110.747 1092.29 112.907 1093.33 115.52C1094.4 118.107 1094.93 120.987 1094.93 124.16C1094.93 128.853 1093.74 132.893 1091.37 136.28C1089 139.64 1085.36 141.72 1080.45 142.52L1076.33 142.88H1061.49V163H1051.85ZM1084.93 163L1073.57 139.56L1083.37 137.4L1095.85 163H1084.93ZM1061.49 133.88H1075.25C1075.78 133.88 1076.38 133.853 1077.05 133.8C1077.72 133.747 1078.33 133.64 1078.89 133.48C1080.49 133.08 1081.74 132.373 1082.65 131.36C1083.58 130.347 1084.24 129.2 1084.61 127.92C1085.01 126.64 1085.21 125.387 1085.21 124.16C1085.21 122.933 1085.01 121.68 1084.61 120.4C1084.24 119.093 1083.58 117.933 1082.65 116.92C1081.74 115.907 1080.49 115.2 1078.89 114.8C1078.33 114.64 1077.72 114.547 1077.05 114.52C1076.38 114.467 1075.78 114.44 1075.25 114.44H1061.49V133.88ZM1104.66 163V119.8H1113.18V130.32L1112.14 128.96C1112.68 127.52 1113.38 126.213 1114.26 125.04C1115.17 123.84 1116.25 122.853 1117.5 122.08C1118.57 121.36 1119.74 120.8 1121.02 120.4C1122.33 119.973 1123.66 119.72 1125.02 119.64C1126.38 119.533 1127.7 119.587 1128.98 119.8V128.8C1127.7 128.427 1126.22 128.307 1124.54 128.44C1122.89 128.573 1121.4 129.04 1120.06 129.84C1118.73 130.56 1117.64 131.48 1116.78 132.6C1115.96 133.72 1115.34 135 1114.94 136.44C1114.54 137.853 1114.34 139.387 1114.34 141.04V163H1104.66ZM26.92 268.2C22.7067 268.2 18.9067 267.467 15.52 266C12.16 264.533 9.38667 262.44 7.2 259.72C5.04 256.973 3.66667 253.72 3.08 249.96L13.08 248.44C13.9333 251.853 15.68 254.493 18.32 256.36C20.9867 258.227 24.0533 259.16 27.52 259.16C29.5733 259.16 31.5067 258.84 33.32 258.2C35.1333 257.56 36.6 256.627 37.72 255.4C38.8667 254.173 39.44 252.667 39.44 250.88C39.44 250.08 39.3067 249.347 39.04 248.68C38.7733 247.987 38.3733 247.373 37.84 246.84C37.3333 246.307 36.6667 245.827 35.84 245.4C35.04 244.947 34.1067 244.56 33.04 244.24L18.16 239.84C16.88 239.467 15.4933 238.973 14 238.36C12.5333 237.72 11.1333 236.853 9.8 235.76C8.49333 234.64 7.41333 233.227 6.56 231.52C5.73333 229.787 5.32 227.653 5.32 225.12C5.32 221.413 6.25333 218.307 8.12 215.8C10.0133 213.267 12.5467 211.373 15.72 210.12C18.92 208.867 22.4667 208.253 26.36 208.28C30.3067 208.307 33.8267 208.987 36.92 210.32C40.0133 211.627 42.6 213.533 44.68 216.04C46.76 218.547 48.2267 221.573 49.08 225.12L38.72 226.92C38.2933 224.893 37.4667 223.173 36.24 221.76C35.04 220.32 33.56 219.227 31.8 218.48C30.0667 217.733 28.2133 217.333 26.24 217.28C24.32 217.253 22.5333 217.547 20.88 218.16C19.2533 218.747 17.9333 219.6 16.92 220.72C15.9333 221.84 15.44 223.147 15.44 224.64C15.44 226.053 15.8667 227.213 16.72 228.12C17.5733 229 18.6267 229.707 19.88 230.24C21.16 230.747 22.4533 231.173 23.76 231.52L34.08 234.4C35.4933 234.773 37.08 235.28 38.84 235.92C40.6 236.56 42.2933 237.453 43.92 238.6C45.5467 239.747 46.88 241.253 47.92 243.12C48.9867 244.987 49.52 247.36 49.52 250.24C49.52 253.227 48.8933 255.853 47.64 258.12C46.4133 260.36 44.7467 262.227 42.64 263.72C40.5333 265.213 38.12 266.333 35.4 267.08C32.7067 267.827 29.88 268.2 26.92 268.2ZM74.8581 268.2C69.5248 268.2 65.1915 267 61.8581 264.6C58.5248 262.2 56.4981 258.827 55.7781 254.48L65.6181 252.96C66.1248 255.093 67.2448 256.773 68.9781 258C70.7115 259.227 72.8981 259.84 75.5381 259.84C77.8581 259.84 79.6448 259.387 80.8981 258.48C82.1781 257.547 82.8181 256.28 82.8181 254.68C82.8181 253.693 82.5781 252.907 82.0981 252.32C81.6448 251.707 80.6315 251.12 79.0581 250.56C77.4848 250 75.0715 249.293 71.8181 248.44C68.1915 247.48 65.3115 246.453 63.1781 245.36C61.0448 244.24 59.5115 242.92 58.5781 241.4C57.6448 239.88 57.1781 238.04 57.1781 235.88C57.1781 233.187 57.8848 230.84 59.2981 228.84C60.7115 226.84 62.6848 225.307 65.2181 224.24C67.7515 223.147 70.7381 222.6 74.1781 222.6C77.5381 222.6 80.5115 223.12 83.0981 224.16C85.7115 225.2 87.8181 226.68 89.4181 228.6C91.0181 230.52 92.0048 232.773 92.3781 235.36L82.5381 237.12C82.2981 235.28 81.4581 233.827 80.0181 232.76C78.6048 231.693 76.7115 231.093 74.3381 230.96C72.0715 230.827 70.2448 231.173 68.8581 232C67.4715 232.8 66.7781 233.933 66.7781 235.4C66.7781 236.227 67.0581 236.933 67.6181 237.52C68.1781 238.107 69.2981 238.693 70.9781 239.28C72.6848 239.867 75.2181 240.587 78.5781 241.44C82.0181 242.32 84.7648 243.333 86.8181 244.48C88.8981 245.6 90.3915 246.947 91.2981 248.52C92.2315 250.093 92.6981 252 92.6981 254.24C92.6981 258.587 91.1115 262 87.9381 264.48C84.7915 266.96 80.4315 268.2 74.8581 268.2ZM147.331 267V218.44H128.691V209.4H175.611V218.44H156.971V267H147.331ZM207.326 267C204.473 267.533 201.673 267.76 198.926 267.68C196.206 267.627 193.766 267.133 191.606 266.2C189.446 265.24 187.806 263.733 186.686 261.68C185.7 259.813 185.18 257.907 185.126 255.96C185.073 254.013 185.046 251.813 185.046 249.36V211.8H194.646V248.8C194.646 250.533 194.66 252.053 194.686 253.36C194.74 254.667 195.02 255.733 195.526 256.56C196.486 258.16 198.02 259.053 200.126 259.24C202.233 259.427 204.633 259.32 207.326 258.92V267ZM177.206 231.36V223.8H207.326V231.36H177.206ZM271.847 268.2C267.26 268.2 263.22 267.267 259.727 265.4C256.26 263.533 253.54 260.907 251.567 257.52C249.62 254.133 248.647 250.16 248.647 245.6V209.48L258.407 209.4V245.36C258.407 247.52 258.767 249.453 259.487 251.16C260.234 252.867 261.234 254.32 262.487 255.52C263.74 256.693 265.18 257.587 266.807 258.2C268.434 258.813 270.114 259.12 271.847 259.12C273.634 259.12 275.327 258.813 276.927 258.2C278.554 257.56 279.994 256.653 281.247 255.48C282.5 254.28 283.487 252.827 284.207 251.12C284.927 249.413 285.287 247.493 285.287 245.36V209.4H295.047V245.6C295.047 250.16 294.06 254.133 292.087 257.52C290.14 260.907 287.42 263.533 283.927 265.4C280.46 267.267 276.434 268.2 271.847 268.2ZM322.425 268.24C319.225 268.24 316.585 267.707 314.505 266.64C312.425 265.573 310.772 264.213 309.545 262.56C308.318 260.907 307.412 259.147 306.825 257.28C306.238 255.413 305.852 253.653 305.665 252C305.505 250.32 305.425 248.96 305.425 247.92V223.8H315.185V244.6C315.185 245.933 315.278 247.44 315.465 249.12C315.652 250.773 316.078 252.373 316.745 253.92C317.438 255.44 318.452 256.693 319.785 257.68C321.145 258.667 322.972 259.16 325.265 259.16C326.492 259.16 327.705 258.96 328.905 258.56C330.105 258.16 331.185 257.48 332.145 256.52C333.132 255.533 333.918 254.187 334.505 252.48C335.092 250.773 335.385 248.613 335.385 246L341.105 248.44C341.105 252.12 340.385 255.453 338.945 258.44C337.532 261.427 335.438 263.813 332.665 265.6C329.892 267.36 326.478 268.24 322.425 268.24ZM336.545 267V253.6H335.385V223.8H345.065V267H336.545ZM401.294 267L383.134 209.4H393.054L408.254 257.64L423.654 209.4H433.574L415.414 267H401.294ZM448.843 267L433.163 223.8H442.803L453.683 255.12L464.523 223.8H474.203L458.523 267H448.843ZM525.573 267L508.733 209.4H518.853L530.333 251L541.773 209.48L551.892 209.4L563.373 251L574.813 209.4H584.933L568.133 267H558.613L546.813 226.04L535.093 267H525.573ZM598.238 267L585.038 223.72L594.478 223.8L602.918 251.52L611.478 223.8H619.598L628.118 251.52L636.598 223.8H646.038L632.838 267H625.318L615.518 237.28L605.758 267H598.238ZM680.488 267L700.008 237.88L681.048 209.4H692.848L705.968 229.68L718.968 209.4H730.848L711.888 237.88L731.328 267H719.528L705.968 246.08L692.368 267H680.488ZM732.909 267L748.709 245.16L733.229 223.8H744.589L754.309 237.6L763.869 223.8H775.229L759.749 245.16L775.629 267H764.269L754.309 252.72L744.269 267H732.909ZM828.038 267V243.4L808.438 209.4H819.678L832.918 232.36L846.118 209.4H857.358L837.798 243.4V267H828.038ZM865.811 286.2L874.131 263.36L874.291 270.08L855.451 223.8H865.491L878.851 258.04H876.291L889.291 223.8H898.931L874.851 286.2H865.811ZM935.328 267V265.68L963.728 218.44H937.328V209.4H980.408V210.76L952.168 257.92H979.728V267H935.328ZM985.975 267V265.68L1008.86 232.24H988.295V223.8H1023.86V225.16L1001.06 258.56H1022.9V267H985.975ZM26.32 372.2C22.24 372.2 18.64 371.333 15.52 369.6C12.4 367.84 9.96 365.4 8.2 362.28C6.46667 359.16 5.6 355.56 5.6 351.48V332.92C5.6 328.84 6.46667 325.24 8.2 322.12C9.96 319 12.4 316.573 15.52 314.84C18.64 313.08 22.24 312.2 26.32 312.2C30.4 312.2 33.9867 313.08 37.08 314.84C40.2 316.573 42.64 319 44.4 322.12C46.16 325.24 47.04 328.84 47.04 332.92V351.48C47.04 355.56 46.16 359.16 44.4 362.28C42.64 365.4 40.2 367.84 37.08 369.6C33.9867 371.333 30.4 372.2 26.32 372.2ZM26.32 363.04C28.3467 363.04 30.1867 362.56 31.84 361.6C33.4933 360.613 34.8 359.307 35.76 357.68C36.72 356.027 37.2 354.187 37.2 352.16V332.2C37.2 330.147 36.72 328.307 35.76 326.68C34.8 325.027 33.4933 323.72 31.84 322.76C30.1867 321.773 28.3467 321.28 26.32 321.28C24.2933 321.28 22.4533 321.773 20.8 322.76C19.1467 323.72 17.84 325.027 16.88 326.68C15.92 328.307 15.44 330.147 15.44 332.2V352.16C15.44 354.187 15.92 356.027 16.88 357.68C17.84 359.307 19.1467 360.613 20.8 361.6C22.4533 362.56 24.2933 363.04 26.32 363.04ZM68.2563 371V323.92L57.4563 330.52V319.88L68.2563 313.4H78.0963V371H68.2563ZM91.7344 370.92V362.52L116.374 340.56C118.294 338.853 119.628 337.24 120.374 335.72C121.121 334.2 121.494 332.733 121.494 331.32C121.494 329.4 121.081 327.693 120.254 326.2C119.428 324.68 118.281 323.48 116.814 322.6C115.374 321.72 113.708 321.28 111.814 321.28C109.814 321.28 108.041 321.747 106.494 322.68C104.974 323.587 103.788 324.8 102.934 326.32C102.081 327.84 101.681 329.48 101.734 331.24H91.8144C91.8144 327.4 92.6677 324.053 94.3744 321.2C96.1077 318.347 98.481 316.133 101.494 314.56C104.534 312.987 108.041 312.2 112.014 312.2C115.694 312.2 119.001 313.027 121.934 314.68C124.868 316.307 127.174 318.573 128.854 321.48C130.534 324.36 131.374 327.68 131.374 331.44C131.374 334.187 131.001 336.493 130.254 338.36C129.508 340.227 128.388 341.947 126.894 343.52C125.428 345.093 123.601 346.84 121.414 348.76L103.934 364.24L103.054 361.84H131.374V370.92H91.7344ZM157.471 372.08C154.591 372.08 151.871 371.52 149.311 370.4C146.751 369.28 144.524 367.693 142.631 365.64C140.764 363.587 139.417 361.16 138.591 358.36L147.911 355.84C148.577 358.133 149.791 359.907 151.551 361.16C153.337 362.387 155.297 362.987 157.431 362.96C159.324 362.96 161.017 362.52 162.511 361.64C164.004 360.76 165.177 359.573 166.031 358.08C166.884 356.56 167.311 354.867 167.311 353C167.311 350.147 166.391 347.76 164.551 345.84C162.711 343.92 160.337 342.96 157.431 342.96C156.551 342.96 155.684 343.08 154.831 343.32C154.004 343.56 153.204 343.893 152.431 344.32L148.031 336.72L167.391 320.16L168.231 322.48H140.831V313.4H176.151V322.52L160.591 337.48L160.511 334.64C164.004 334.88 166.977 335.853 169.431 337.56C171.911 339.267 173.804 341.467 175.111 344.16C176.444 346.853 177.111 349.8 177.111 353C177.111 356.627 176.217 359.88 174.431 362.76C172.671 365.64 170.297 367.92 167.311 369.6C164.351 371.253 161.071 372.08 157.471 372.08ZM211.395 371V361.48H185.875V352.48L204.315 313.4H215.315L196.875 352.48H211.395V337.48H221.155V352.48H226.555V361.48H221.155V371H211.395ZM253.227 372.2C250.294 372.2 247.56 371.6 245.027 370.4C242.494 369.173 240.307 367.493 238.467 365.36C236.654 363.227 235.347 360.747 234.547 357.92L243.827 355.44C244.2 356.987 244.88 358.32 245.867 359.44C246.88 360.56 248.054 361.427 249.387 362.04C250.747 362.653 252.147 362.96 253.587 362.96C255.454 362.96 257.16 362.507 258.707 361.6C260.254 360.693 261.48 359.48 262.387 357.96C263.294 356.413 263.747 354.707 263.747 352.84C263.747 350.973 263.28 349.28 262.347 347.76C261.44 346.213 260.214 345 258.667 344.12C257.12 343.213 255.427 342.76 253.587 342.76C251.374 342.76 249.534 343.16 248.067 343.96C246.627 344.76 245.52 345.613 244.747 346.52L236.507 343.88L238.267 313.4H269.547V322.44H243.427L247.027 319.04L245.747 340.24L243.987 338.08C245.48 336.72 247.214 335.707 249.187 335.04C251.16 334.373 253.067 334.04 254.907 334.04C258.507 334.04 261.694 334.867 264.467 336.52C267.267 338.147 269.454 340.373 271.027 343.2C272.627 346.027 273.427 349.24 273.427 352.84C273.427 356.44 272.494 359.707 270.627 362.64C268.76 365.547 266.294 367.867 263.227 369.6C260.187 371.333 256.854 372.2 253.227 372.2ZM302.942 372.2C299.182 372.2 295.795 371.32 292.782 369.56C289.795 367.773 287.422 365.307 285.662 362.16C283.902 359.013 283.022 355.4 283.022 351.32V333.8C283.022 329.427 283.889 325.627 285.622 322.4C287.382 319.173 289.835 316.68 292.982 314.92C296.155 313.16 299.835 312.28 304.022 312.28C306.929 312.28 309.689 312.773 312.302 313.76C314.915 314.72 317.235 316.267 319.262 318.4L312.302 325.16C311.289 323.96 310.049 323.013 308.582 322.32C307.142 321.627 305.622 321.28 304.022 321.28C301.782 321.28 299.822 321.813 298.142 322.88C296.462 323.92 295.155 325.293 294.222 327C293.315 328.707 292.862 330.533 292.862 332.48V342.04L291.102 340.12C292.755 338.2 294.742 336.707 297.062 335.64C299.382 334.547 301.809 334 304.342 334C307.969 334 311.169 334.827 313.942 336.48C316.715 338.107 318.902 340.347 320.502 343.2C322.102 346.027 322.902 349.253 322.902 352.88C322.902 356.48 321.982 359.747 320.142 362.68C318.329 365.587 315.915 367.907 312.902 369.64C309.889 371.347 306.569 372.2 302.942 372.2ZM302.942 362.96C304.809 362.96 306.515 362.52 308.062 361.64C309.609 360.733 310.835 359.52 311.742 358C312.675 356.453 313.142 354.747 313.142 352.88C313.142 351.013 312.689 349.307 311.782 347.76C310.875 346.213 309.649 344.987 308.102 344.08C306.582 343.147 304.889 342.68 303.022 342.68C301.155 342.68 299.449 343.147 297.902 344.08C296.355 344.987 295.129 346.213 294.222 347.76C293.315 349.307 292.862 351.013 292.862 352.88C292.862 354.693 293.302 356.373 294.182 357.92C295.089 359.44 296.302 360.667 297.822 361.6C299.369 362.507 301.075 362.96 302.942 362.96ZM335.629 371L355.469 322.52H330.309V313.4H365.789V322.52L346.029 371H335.629ZM394.206 372.2C390.392 372.2 387.006 371.427 384.046 369.88C381.086 368.333 378.766 366.187 377.086 363.44C375.406 360.693 374.566 357.547 374.566 354C374.566 350.827 375.299 347.88 376.766 345.16C378.232 342.44 380.379 340.267 383.206 338.64L383.006 341.72C380.792 340.04 379.072 338.107 377.846 335.92C376.646 333.707 376.046 331.227 376.046 328.48C376.046 325.173 376.819 322.307 378.366 319.88C379.939 317.453 382.086 315.573 384.806 314.24C387.526 312.88 390.659 312.2 394.206 312.2C397.752 312.2 400.886 312.88 403.606 314.24C406.352 315.573 408.499 317.453 410.046 319.88C411.619 322.307 412.406 325.173 412.406 328.48C412.406 331.227 411.819 333.693 410.646 335.88C409.499 338.067 407.752 340.04 405.406 341.8L405.366 338.68C408.139 340.253 410.259 342.413 411.726 345.16C413.219 347.88 413.966 350.827 413.966 354C413.966 357.547 413.112 360.693 411.406 363.44C409.726 366.187 407.392 368.333 404.406 369.88C401.446 371.427 398.046 372.2 394.206 372.2ZM394.206 363.12C397.032 363.12 399.326 362.347 401.086 360.8C402.872 359.253 403.766 356.987 403.766 354C403.766 351.013 402.886 348.747 401.126 347.2C399.366 345.627 397.059 344.84 394.206 344.84C391.379 344.84 389.099 345.627 387.366 347.2C385.632 348.747 384.766 351.013 384.766 354C384.766 356.987 385.632 359.253 387.366 360.8C389.099 362.347 391.379 363.12 394.206 363.12ZM394.206 335.68C396.579 335.68 398.499 335.093 399.966 333.92C401.459 332.72 402.206 330.907 402.206 328.48C402.206 326.053 401.459 324.253 399.966 323.08C398.499 321.88 396.579 321.28 394.206 321.28C391.859 321.28 389.939 321.88 388.446 323.08C386.979 324.253 386.246 326.053 386.246 328.48C386.246 330.907 386.979 332.72 388.446 333.92C389.939 335.093 391.859 335.68 394.206 335.68ZM442.95 312.28C446.71 312.28 450.097 313.173 453.11 314.96C456.123 316.72 458.497 319.173 460.23 322.32C461.99 325.44 462.87 329.04 462.87 333.12V350.68C462.87 355.027 461.99 358.827 460.23 362.08C458.497 365.307 456.057 367.8 452.91 369.56C449.763 371.32 446.083 372.2 441.87 372.2C438.963 372.2 436.217 371.707 433.63 370.72C431.043 369.707 428.723 368.16 426.67 366.08L433.59 359.32C434.63 360.52 435.87 361.467 437.31 362.16C438.777 362.827 440.297 363.16 441.87 363.16C444.11 363.16 446.07 362.64 447.75 361.6C449.43 360.533 450.737 359.16 451.67 357.48C452.603 355.773 453.07 353.947 453.07 352V342.44L454.79 344.36C453.163 346.28 451.19 347.787 448.87 348.88C446.55 349.947 444.11 350.48 441.55 350.48C437.95 350.48 434.75 349.653 431.95 348C429.177 346.347 426.99 344.107 425.39 341.28C423.817 338.427 423.03 335.2 423.03 331.6C423.03 328 423.937 324.747 425.75 321.84C427.563 318.907 429.977 316.587 432.99 314.88C436.03 313.147 439.35 312.28 442.95 312.28ZM442.95 321.48C441.083 321.48 439.377 321.933 437.83 322.84C436.283 323.747 435.057 324.973 434.15 326.52C433.243 328.04 432.79 329.733 432.79 331.6C432.79 333.467 433.23 335.173 434.11 336.72C435.017 338.267 436.23 339.493 437.75 340.4C439.297 341.307 441.003 341.76 442.87 341.76C444.737 341.76 446.443 341.307 447.99 340.4C449.537 339.493 450.763 338.267 451.67 336.72C452.603 335.173 453.07 333.467 453.07 331.6C453.07 329.787 452.617 328.12 451.71 326.6C450.803 325.053 449.577 323.813 448.03 322.88C446.51 321.947 444.817 321.48 442.95 321.48ZM494.758 372.2C490.678 372.2 487.078 371.333 483.958 369.6C480.838 367.84 478.398 365.4 476.638 362.28C474.904 359.16 474.038 355.56 474.038 351.48V332.92C474.038 328.84 474.904 325.24 476.638 322.12C478.398 319 480.838 316.573 483.958 314.84C487.078 313.08 490.678 312.2 494.758 312.2C498.838 312.2 502.424 313.08 505.518 314.84C508.638 316.573 511.078 319 512.838 322.12C514.598 325.24 515.477 328.84 515.477 332.92V351.48C515.477 355.56 514.598 359.16 512.838 362.28C511.078 365.4 508.638 367.84 505.518 369.6C502.424 371.333 498.838 372.2 494.758 372.2ZM494.758 363.04C496.784 363.04 498.624 362.56 500.278 361.6C501.931 360.613 503.238 359.307 504.198 357.68C505.158 356.027 505.638 354.187 505.638 352.16V332.2C505.638 330.147 505.158 328.307 504.198 326.68C503.238 325.027 501.931 323.72 500.278 322.76C498.624 321.773 496.784 321.28 494.758 321.28C492.731 321.28 490.891 321.773 489.238 322.76C487.584 323.72 486.278 325.027 485.318 326.68C484.358 328.307 483.878 330.147 483.878 332.2V352.16C483.878 354.187 484.358 356.027 485.318 357.68C486.278 359.307 487.584 360.613 489.238 361.6C490.891 362.56 492.731 363.04 494.758 363.04Z" fill="#333333"/>
</svg>
