<svg width="18" height="18" viewBox="0 0 18 18" fill="none" xmlns="http://www.w3.org/2000/svg">
<g clip-path="url(#clip0_3357_308883)">
<path d="M2.25002 6L6.75227 1.5H14.9985C15.4125 1.5 15.75 1.84125 15.75 2.244V15.756C15.7498 15.9534 15.6713 16.1426 15.5316 16.2821C15.392 16.4216 15.2027 16.5 15.0053 16.5H2.99477C2.89628 16.4993 2.79888 16.4792 2.70815 16.4409C2.61742 16.4026 2.53513 16.3468 2.46597 16.2766C2.39681 16.2065 2.34215 16.1234 2.30509 16.0322C2.26804 15.9409 2.24933 15.8432 2.25002 15.7448V6ZM7.50002 2.625L3.37502 6.75H7.50002V2.625Z" fill="#EF8435"/>
</g>
<defs>
<clipPath id="clip0_3357_308883">
<rect width="18" height="18" fill="white"/>
</clipPath>
</defs>
</svg>
