<svg width="101" height="86" viewBox="0 0 101 86" fill="none" xmlns="http://www.w3.org/2000/svg">
<path d="M1.79252 39.7635C1.79252 52.0262 6.66386 63.7866 15.3349 72.4576C24.0059 81.1287 35.7664 86 48.0291 86C60.2918 86 72.0522 81.1287 80.7232 72.4576C89.3943 63.7866 94.2656 52.0262 94.2656 39.7635L48.0291 39.7635L1.79252 39.7635Z" fill="#EF8435"/>
<path d="M13.8121 5.54276C13.8121 14.6172 17.4169 23.3199 23.8335 29.7365C30.25 36.153 38.9528 39.7578 48.0271 39.7578C57.1015 39.7578 65.8043 36.153 72.2208 29.7365C78.6374 23.3199 82.2422 14.6172 82.2422 5.54276L48.0271 5.54276L13.8121 5.54276Z" fill="#5C2860"/>
<mask id="path-3-inside-1_2241_291656" fill="white">
<path d="M20.599 3.57813C20.599 12.1314 24.2327 20.3343 30.7007 26.3823C37.1688 32.4304 45.9413 35.8281 55.0885 35.8281C64.2357 35.8281 73.0083 32.4304 79.4764 26.3823C85.9444 20.3343 89.5781 12.1314 89.5781 3.57812L55.0885 3.57812L20.599 3.57813Z"/>
</mask>
<path d="M20.599 3.57813C20.599 12.1314 24.2327 20.3343 30.7007 26.3823C37.1688 32.4304 45.9413 35.8281 55.0885 35.8281C64.2357 35.8281 73.0083 32.4304 79.4764 26.3823C85.9444 20.3343 89.5781 12.1314 89.5781 3.57812L55.0885 3.57812L20.599 3.57813Z" stroke="white" stroke-width="1.79167" mask="url(#path-3-inside-1_2241_291656)"/>
<mask id="path-4-inside-2_2241_291656" fill="white">
<path d="M9.84896 43.8906C9.84897 54.5822 14.6153 64.8358 23.0993 72.3959C31.5834 79.9559 43.0903 84.2031 55.0885 84.2031C67.0868 84.2031 78.5937 79.9559 87.0778 72.3959C95.5618 64.8358 100.328 54.5822 100.328 43.8906L55.0885 43.8906L9.84896 43.8906Z"/>
</mask>
<path d="M9.84896 43.8906C9.84897 54.5822 14.6153 64.8358 23.0993 72.3959C31.5834 79.9559 43.0903 84.2031 55.0885 84.2031C67.0868 84.2031 78.5937 79.9559 87.0778 72.3959C95.5618 64.8358 100.328 54.5822 100.328 43.8906L55.0885 43.8906L9.84896 43.8906Z" stroke="white" stroke-width="1.79167" mask="url(#path-4-inside-2_2241_291656)"/>
</svg>
