<svg width="1300" height="874" viewBox="0 0 1300 874" fill="none" xmlns="http://www.w3.org/2000/svg">
<path d="M1176.57 226.79L1176.57 31C1176.57 14.4315 1190 1.00001 1206.57 1.00001L1364 1.00001" stroke="white" stroke-width="1.5" stroke-linecap="square" stroke-linejoin="round"/>
<path d="M1164.57 215.753C1171.29 215.753 1176.74 221.44 1176.74 228.457" stroke="#FDFAF1" stroke-width="1.5"/>
<path d="M1176.74 228.456C1176.74 221.44 1182.19 215.752 1188.91 215.752" stroke="#FDFAF1" stroke-width="1.5"/>
<path d="M855.686 299.044C862.405 299.044 867.852 304.732 867.852 311.748" stroke="#FDFAF1" stroke-width="1.5"/>
<path d="M867.854 311.747C867.854 304.731 873.301 299.043 880.02 299.043" stroke="#FDFAF1" stroke-width="1.5"/>
<path d="M868.681 145.796C869.302 145.796 869.805 145.293 869.805 144.673C869.805 144.053 869.302 143.55 868.681 143.55C868.06 143.55 867.557 144.053 867.557 144.673C867.557 145.293 868.06 145.796 868.681 145.796Z" fill="#FDFAF1" stroke="#FDFAF1" stroke-width="1.75"/>
<ellipse rx="1.99815" ry="1.99927" transform="matrix(4.37357e-08 1 1 -4.36871e-08 599.781 240.584)" fill="#FDFAF1"/>
<path d="M868.681 169.774C869.302 169.774 869.805 169.271 869.805 168.651C869.805 168.031 869.302 167.528 868.681 167.528C868.06 167.528 867.557 168.031 867.557 168.651C867.557 169.271 868.06 169.774 868.681 169.774Z" fill="#FDFAF1" stroke="#FDFAF1" stroke-width="1.75"/>
<ellipse rx="1.99815" ry="1.99927" transform="matrix(4.37357e-08 1 1 -4.36871e-08 599.781 261.565)" fill="#FDFAF1"/>
<path d="M868.681 191.754C869.302 191.754 869.805 191.25 869.805 190.63C869.805 190.011 869.302 189.507 868.681 189.507C868.06 189.507 867.557 190.011 867.557 190.63C867.557 191.25 868.06 191.754 868.681 191.754Z" fill="#FDFAF1" stroke="#FDFAF1" stroke-width="1.75"/>
<ellipse rx="1.99815" ry="1.99927" transform="matrix(4.37357e-08 1 1 -4.36871e-08 599.781 282.546)" fill="#FDFAF1"/>
<path d="M1156.58 43.8904C1157.2 43.8904 1157.7 43.387 1157.7 42.7672C1157.7 42.1474 1157.2 41.644 1156.58 41.644C1155.95 41.644 1155.45 42.1474 1155.45 42.7672C1155.45 43.387 1155.95 43.8904 1156.58 43.8904Z" fill="#FDFAF1" stroke="#FDFAF1" stroke-width="1.75"/>
<ellipse rx="1.99815" ry="1.99927" transform="matrix(4.37357e-08 1 1 -4.36871e-08 599.781 308.522)" fill="#FDFAF1"/>
<path d="M1156.58 69.8664C1157.2 69.8664 1157.7 69.3631 1157.7 68.7433C1157.7 68.1234 1157.2 67.6201 1156.58 67.6201C1155.95 67.6201 1155.45 68.1234 1155.45 68.7433C1155.45 69.3631 1155.95 69.8664 1156.58 69.8664Z" fill="#FDFAF1" stroke="#FDFAF1" stroke-width="1.75"/>
<path d="M1156.58 95.842C1157.2 95.842 1157.7 95.3387 1157.7 94.7189C1157.7 94.099 1157.2 93.5957 1156.58 93.5957C1155.95 93.5957 1155.45 94.099 1155.45 94.7189C1155.45 95.3387 1155.95 95.842 1156.58 95.842Z" fill="#FDFAF1" stroke="#FDFAF1" stroke-width="1.75"/>
<path d="M1156.58 121.818C1157.2 121.818 1157.7 121.315 1157.7 120.695C1157.7 120.075 1157.2 119.572 1156.58 119.572C1155.95 119.572 1155.45 120.075 1155.45 120.695C1155.45 121.315 1155.95 121.818 1156.58 121.818Z" fill="#FDFAF1" stroke="#FDFAF1" stroke-width="1.75"/>
<path d="M1123.46 625.229C1123.46 625.849 1123.97 626.352 1124.59 626.352C1125.21 626.352 1125.71 625.849 1125.71 625.229C1125.71 624.609 1125.21 624.106 1124.59 624.106C1123.97 624.106 1123.46 624.609 1123.46 625.229Z" fill="#FDFAF1" stroke="#FDFAF1" stroke-width="1.75"/>
<path d="M1107.47 625.229C1107.47 625.849 1107.97 626.352 1108.59 626.352C1109.22 626.352 1109.72 625.849 1109.72 625.229C1109.72 624.609 1109.22 624.106 1108.59 624.106C1107.97 624.106 1107.47 624.609 1107.47 625.229Z" fill="#FDFAF1" stroke="#FDFAF1" stroke-width="1.75"/>
<path d="M1091.48 625.229C1091.48 625.849 1091.98 626.352 1092.6 626.352C1093.22 626.352 1093.72 625.849 1093.72 625.229C1093.72 624.609 1093.22 624.106 1092.6 624.106C1091.98 624.106 1091.48 624.609 1091.48 625.229Z" fill="#FDFAF1" stroke="#FDFAF1" stroke-width="1.75"/>
<path d="M1075.48 625.229C1075.48 625.849 1075.98 626.352 1076.61 626.352C1077.23 626.352 1077.73 625.849 1077.73 625.229C1077.73 624.609 1077.23 624.106 1076.61 624.106C1075.98 624.106 1075.48 624.609 1075.48 625.229Z" fill="#FDFAF1" stroke="#FDFAF1" stroke-width="1.75"/>
<path d="M1059.49 625.229C1059.49 625.849 1059.99 626.352 1060.61 626.352C1061.23 626.352 1061.74 625.849 1061.74 625.229C1061.74 624.609 1061.23 624.106 1060.61 624.106C1059.99 624.106 1059.49 624.609 1059.49 625.229Z" fill="#FDFAF1" stroke="#FDFAF1" stroke-width="1.75"/>
<path d="M872.681 603.373C873.302 603.373 873.805 602.87 873.805 602.25C873.805 601.63 873.302 601.127 872.681 601.127C872.06 601.127 871.557 601.63 871.557 602.25C871.557 602.87 872.06 603.373 872.681 603.373Z" fill="#FDFAF1" stroke="#FDFAF1" stroke-width="1.75"/>
<path d="M872.681 620.358C873.302 620.358 873.805 619.854 873.805 619.234C873.805 618.615 873.302 618.111 872.681 618.111C872.06 618.111 871.557 618.615 871.557 619.234C871.557 619.854 872.06 620.358 872.681 620.358Z" fill="#FDFAF1" stroke="#FDFAF1" stroke-width="1.75"/>
<path d="M872.681 637.342C873.302 637.342 873.805 636.839 873.805 636.219C873.805 635.599 873.302 635.096 872.681 635.096C872.06 635.096 871.557 635.599 871.557 636.219C871.557 636.839 872.06 637.342 872.681 637.342Z" fill="#FDFAF1" stroke="#FDFAF1" stroke-width="1.75"/>
<path d="M872.681 654.326C873.302 654.326 873.805 653.823 873.805 653.203C873.805 652.583 873.302 652.08 872.681 652.08C872.06 652.08 871.557 652.583 871.557 653.203C871.557 653.823 872.06 654.326 872.681 654.326Z" fill="#FDFAF1" stroke="#FDFAF1" stroke-width="1.75"/>
<path d="M1042.62 390.98H1197.55C1208.6 390.98 1217.55 399.935 1217.55 410.98V675.183" stroke="white" stroke-width="1.5" stroke-linecap="round" stroke-linejoin="round"/>
<path d="M978.641 450.391H865.689C854.644 450.391 845.689 459.345 845.689 470.391V472.352C845.689 483.398 854.644 492.352 865.689 492.352H918.445C927.908 492.352 935.58 500.023 935.58 509.486V509.486C935.58 519.027 927.787 526.73 918.247 526.619L864.529 525.996C856.234 525.9 849.457 532.598 849.457 540.894V540.894C849.457 549.123 856.128 555.793 864.357 555.793H922.94C932.596 555.793 940.424 563.621 940.424 573.277V573.277C940.424 582.933 932.596 590.761 922.94 590.761H869.457C858.412 590.761 849.457 599.715 849.457 610.761V708.152" stroke="#FDFAF1" stroke-width="1.5" stroke-linecap="round" stroke-linejoin="round"/>
<path d="M598.798 320.998V338.742L542.126 368.452L666.612 408.066L563.923 444.792L677.752 496.373L598.798 531.448V603.248H18.9941" stroke="white" stroke-width="1.5" stroke-linecap="round" stroke-linejoin="round"/>
<path d="M1093.1 104.71H1040.62H895.657C880.759 104.71 868.682 116.787 868.682 131.685V131.685" stroke="white" stroke-width="1.5" stroke-linecap="round" stroke-linejoin="round"/>
<path d="M759.439 218.445V207.482C759.439 190.914 746.008 177.482 729.439 177.482H613.205C605.516 177.482 599.283 183.715 599.283 191.404V191.404V225.099" stroke="white" stroke-width="1.5" stroke-linecap="round" stroke-linejoin="round"/>
<path d="M18.9934 603.249V603.249C9.05592 603.249 1 611.305 1 621.242V630.931V832.537V856.515" stroke="white" stroke-width="1.5" stroke-linecap="round" stroke-linejoin="round"/>
<path d="M849.457 708.152V708.152C849.457 715.05 843.866 720.641 836.969 720.641H651.771C635.203 720.641 621.771 734.072 621.771 750.641V858.014" stroke="white" stroke-width="1.5" stroke-linecap="round" stroke-linejoin="round"/>
<path d="M1217.55 675.183V675.183C1217.55 682.08 1211.96 687.671 1205.07 687.671H1026.63C1010.07 687.671 996.635 701.103 996.635 717.671V825.044V873" stroke="white" stroke-width="1.5" stroke-linecap="round" stroke-linejoin="round"/>
<path d="M925.663 352.48C925.663 360.09 924.163 367.625 921.249 374.656C918.335 381.686 914.065 388.074 908.681 393.455C903.297 398.836 896.906 403.104 889.871 406.016C882.837 408.928 875.298 410.427 867.684 410.427C860.07 410.427 852.531 408.928 845.496 406.016C838.462 403.104 832.07 398.835 826.687 393.455C821.303 388.074 817.032 381.686 814.118 374.656C811.205 367.625 809.705 360.09 809.705 352.48L867.684 352.48L925.663 352.48Z" fill="#EF8435"/>
<mask id="path-35-inside-1_2113_59419" fill="white">
<path d="M921.158 349.105C921.158 356.271 919.745 363.367 917.001 369.988C914.257 376.609 910.236 382.625 905.165 387.692C900.095 392.759 894.076 396.779 887.451 399.521C880.827 402.264 873.727 403.675 866.556 403.675C859.386 403.675 852.286 402.264 845.661 399.521C839.037 396.779 833.018 392.759 827.947 387.692C822.877 382.625 818.855 376.609 816.111 369.988C813.367 363.367 811.955 356.271 811.955 349.105L866.556 349.105L921.158 349.105Z"/>
</mask>
<path d="M921.158 349.105C921.158 356.271 919.745 363.367 917.001 369.988C914.257 376.609 910.236 382.625 905.165 387.692C900.095 392.759 894.076 396.779 887.451 399.521C880.827 402.264 873.727 403.675 866.556 403.675C859.386 403.675 852.286 402.264 845.661 399.521C839.037 396.779 833.018 392.759 827.947 387.692C822.877 382.625 818.855 376.609 816.111 369.988C813.367 363.367 811.955 356.271 811.955 349.105L866.556 349.105L921.158 349.105Z" stroke="white" stroke-width="2.27138" mask="url(#path-35-inside-1_2113_59419)"/>
<ellipse rx="32.0853" ry="32.0674" transform="matrix(-1 0 0 1 867.684 358.107)" fill="#5C2860"/>
<path d="M1120.5 499.974H1108.79C1088.76 499.974 1072.52 516.216 1072.52 536.251V571.699H1084.22C1104.26 571.699 1120.5 555.457 1120.5 535.421V499.974Z" fill="#4AA35C"/>
<path d="M1116.6 495.012H1105.48C1085.79 495.012 1069.84 510.971 1069.84 530.657V565.473H1080.96C1100.64 565.473 1116.6 549.515 1116.6 529.829V495.012Z" stroke="white" stroke-width="1.1139"/>
<path d="M1036.73 499.974H1048.44C1068.47 499.974 1084.72 516.216 1084.72 536.251V571.699H1073.01C1052.98 571.699 1036.73 555.457 1036.73 535.421V499.974Z" fill="#EBBE52"/>
<path d="M1036.73 499.974H1048.44C1068.47 499.974 1084.72 516.216 1084.72 536.251V571.699H1073.01C1052.98 571.699 1036.73 555.457 1036.73 535.421V499.974Z" fill="#EBBE52"/>
<path d="M1033.15 510.52H1037.99C1059.85 510.52 1077.57 528.241 1077.57 550.101V577.758H1072.73C1050.87 577.758 1033.15 560.037 1033.15 538.177V510.52Z" stroke="white" stroke-width="1.2369"/>
<ellipse rx="47.6197" ry="47.9557" transform="matrix(-1 0 0 1 1180.39 308.116)" fill="#EBBE52"/>
<path d="M1126.61 308.114C1126.61 332.422 1146.18 352.121 1170.31 352.121C1194.43 352.121 1214 332.422 1214 308.114C1214 283.806 1194.43 264.107 1170.31 264.107C1146.18 264.107 1126.61 283.806 1126.61 308.114Z" stroke="white" stroke-width="1.12724"/>
<ellipse rx="35.4808" ry="34.9677" transform="matrix(-1 0 0 1 748.232 272.454)" fill="#4AA35C"/>
<path d="M708.156 272.455C708.156 290.169 722.728 304.54 740.717 304.54C758.706 304.54 773.278 290.169 773.278 272.455C773.278 254.742 758.706 240.371 740.717 240.371C722.728 240.371 708.156 254.742 708.156 272.455Z" stroke="white" stroke-width="0.830601"/>
<path d="M1025.3 171.796L966.674 241.4L1056.49 257.178L1025.3 171.796Z" fill="#5C2860"/>
<path d="M1059.87 249.479L1033.09 176.177L982.765 235.933L1059.87 249.479Z" stroke="white" stroke-width="0.990221"/>
<path d="M867.682 309.521V206.616" stroke="white" stroke-width="1.5"/>
</svg>
