<svg width="1440" height="682" viewBox="0 0 1440 682" fill="none" xmlns="http://www.w3.org/2000/svg">
<g clip-path="url(#clip0_2897_331749)">
<path d="M1228 569.982H1483.52V607.714C1483.52 620.875 1472.85 631.545 1459.69 631.545H1251.83C1238.67 631.545 1228 620.875 1228 607.714V569.982Z" fill="black"/>
<path d="M1355.22 503.18C1356.2 505.656 1357.32 507.456 1358.6 508.582C1359.87 509.707 1361.11 510.307 1362.31 510.382V512.633C1357.81 512.408 1352.11 512.295 1345.21 512.295C1337.55 512.295 1331.85 512.408 1328.1 512.633V510.382C1330.95 510.232 1332.98 509.895 1334.18 509.369C1335.38 508.769 1335.98 507.756 1335.98 506.331C1335.98 504.981 1335.53 503.18 1334.63 500.929L1327.88 482.474H1303.34L1300.42 490.239C1298.32 495.64 1297.27 499.804 1297.27 502.73C1297.27 505.506 1298.09 507.456 1299.74 508.582C1301.47 509.632 1303.98 510.232 1307.28 510.382V512.633C1302.18 512.408 1297.53 512.295 1293.33 512.295C1289.88 512.295 1287.03 512.408 1284.78 512.633V510.382C1288.45 509.707 1291.68 505.768 1294.45 498.566L1320.11 432.734C1320.94 432.809 1322.25 432.847 1324.05 432.847C1325.85 432.847 1327.13 432.809 1327.88 432.734L1355.22 503.18ZM1327.09 480.223L1315.95 449.839L1304.24 480.223H1327.09ZM1417.56 465.256C1416.06 465.256 1414.79 464.769 1413.74 463.794C1412.69 462.743 1412.16 461.28 1412.16 459.405C1412.16 457.604 1412.61 455.766 1413.51 453.891C1411.71 454.641 1410.21 455.504 1409.01 456.479C1407.89 457.379 1406.91 458.542 1406.09 459.967C1408.41 462.743 1409.57 466.344 1409.57 470.771C1409.57 476.697 1407.51 481.161 1403.38 484.162C1399.33 487.163 1393.93 488.663 1387.18 488.663H1385.15C1382.08 490.464 1380.54 492.452 1380.54 494.628C1380.54 497.028 1382.04 498.229 1385.04 498.229H1397.31C1403.91 498.229 1409.16 499.466 1413.06 501.942C1417.04 504.343 1419.03 508.056 1419.03 513.083C1419.03 516.909 1417.79 520.36 1415.31 523.436C1412.91 526.587 1409.24 529.1 1404.29 530.976C1399.33 532.851 1393.26 533.789 1386.05 533.789C1378.78 533.789 1372.93 532.851 1368.5 530.976C1364.15 529.175 1361.97 526.549 1361.97 523.098C1361.97 520.773 1363.02 518.672 1365.12 516.797C1367.22 514.996 1370.34 513.571 1374.46 512.52L1375.48 514.321C1372.78 516.571 1371.43 519.16 1371.43 522.086C1371.43 525.237 1372.85 527.637 1375.7 529.288C1378.55 531.013 1382.49 531.876 1387.52 531.876C1392.77 531.876 1397.01 530.826 1400.23 528.725C1403.53 526.624 1405.19 523.661 1405.19 519.835C1405.19 517.359 1404.25 515.409 1402.37 513.983C1400.57 512.558 1397.38 511.845 1392.81 511.845H1385.83C1381.03 511.845 1377.28 511.057 1374.58 509.482C1371.88 507.831 1370.53 505.356 1370.53 502.055C1370.53 499.279 1371.5 496.803 1373.45 494.628C1375.4 492.452 1378.37 490.351 1382.34 488.326C1376.94 487.65 1372.66 485.85 1369.51 482.924C1366.36 479.998 1364.79 475.947 1364.79 470.771C1364.79 464.844 1366.81 460.38 1370.86 457.379C1374.99 454.378 1380.43 452.878 1387.18 452.878C1394.68 452.878 1400.42 454.641 1404.4 458.167C1405.82 456.141 1407.59 454.528 1409.69 453.328C1411.79 452.128 1413.93 451.527 1416.1 451.527C1418.35 451.527 1420.11 452.203 1421.39 453.553C1422.74 454.828 1423.42 456.516 1423.42 458.617C1423.42 460.718 1422.82 462.368 1421.62 463.568C1420.49 464.694 1419.14 465.256 1417.56 465.256ZM1387.18 486.638C1389.28 486.638 1390.86 485.437 1391.91 483.037C1393.03 480.636 1393.59 476.547 1393.59 470.771C1393.59 464.994 1393.03 460.905 1391.91 458.504C1390.86 456.104 1389.28 454.903 1387.18 454.903C1385.08 454.903 1383.47 456.104 1382.34 458.504C1381.29 460.905 1380.77 464.994 1380.77 470.771C1380.77 476.547 1381.29 480.636 1382.34 483.037C1383.47 485.437 1385.08 486.638 1387.18 486.638Z" fill="white"/>
<rect x="1228.33" y="380.331" width="254.854" height="250.882" rx="23.4995" stroke="#EF8435" stroke-width="0.661959"/>
<rect opacity="0.2" x="1389.52" y="587.193" width="63.548" height="27.8023" rx="13.9011" fill="white"/>
<circle cx="1438.5" cy="601.094" r="11.2533" fill="white"/>
<path d="M281.665 606.838C284.231 606.838 286.059 607.095 287.149 607.608C288.304 608.057 288.881 608.923 288.881 610.206C288.881 611.938 286.091 613.702 280.51 615.498C280.638 620.373 280.702 625.056 280.702 629.546C280.702 633.972 280.35 637.308 279.644 639.553C278.938 641.734 277.816 642.825 276.276 642.825C274.737 642.825 273.518 642.055 272.62 640.515C271.786 638.912 271.08 636.314 270.503 632.722C269.99 629.129 269.445 624.382 268.867 618.481C262.324 619.956 257.609 621.143 254.723 622.041C249.719 635.897 246.384 642.825 244.716 642.825C243.369 642.825 241.573 641.927 239.327 640.131C237.146 638.334 236.056 636.474 236.056 634.55C236.056 633.459 237.307 630.059 239.809 624.35C238.718 623.645 237.756 622.65 236.922 621.368C236.152 620.02 235.767 618.737 235.767 617.519C235.767 615.402 238.943 613.381 245.293 611.457C245.806 610.174 246.32 608.73 246.833 607.127C247.41 605.459 248.789 601.61 250.97 595.58C253.215 589.55 254.979 584.515 256.262 580.474C256.84 578.549 258.828 576.753 262.228 575.085C265.692 573.417 268.386 572.583 270.311 572.583C272.556 572.583 274.544 575.695 276.276 581.917C278.072 588.139 279.323 596.446 280.029 606.838H281.665ZM259.438 608.474C261.362 608.217 264.152 607.897 267.809 607.512C267.616 605.651 267.296 602.476 266.847 597.986C266.462 593.496 266.173 590.256 265.981 588.267C264.89 591.86 262.709 598.595 259.438 608.474ZM333.709 614.151C334.671 615.241 335.152 616.556 335.152 618.096C335.152 619.636 334.511 621.528 333.228 623.773C331.624 627.622 330.213 632.401 328.994 638.11C327.775 643.819 326.557 648.374 325.338 651.773C324.183 655.237 322.9 658.188 321.489 660.626C320.142 663.063 318.282 665.084 315.908 666.688C313.535 668.291 310.808 669.093 307.729 669.093C303.431 669.093 299.583 667.682 296.183 664.859C292.783 662.037 291.083 659.599 291.083 657.547C291.083 655.558 291.628 653.73 292.719 652.062C293.809 650.458 294.804 649.656 295.702 649.656C296.664 649.656 297.562 650.17 298.396 651.196C299.294 652.222 300.096 653.313 300.801 654.468C301.571 655.686 302.565 656.809 303.784 657.835C305.003 658.862 306.35 659.375 307.826 659.375C309.301 659.375 310.648 658.413 311.867 656.488C313.086 654.564 314.016 652.479 314.657 650.234C316.261 644.974 317.255 641.221 317.64 638.976C313.278 641.67 309.718 643.017 306.96 643.017C304.265 643.017 301.635 641.542 299.069 638.591C296.504 635.576 295.221 632.754 295.221 630.124C295.221 627.429 295.926 624.094 297.337 620.117C298.813 616.075 300.673 612.066 302.918 608.089C305.228 604.048 308.114 600.584 311.578 597.697C315.106 594.811 318.634 593.367 322.162 593.367C324.536 593.367 326.557 593.977 328.224 595.195C329.892 596.35 331.111 597.922 331.881 599.91C333.228 603.374 333.901 607.287 333.901 611.649C333.901 612.291 333.837 613.125 333.709 614.151ZM307.056 629.643C307.056 630.476 307.409 630.893 308.114 630.893C309.974 630.893 312.989 629.193 317.159 625.794C321.329 622.394 324.119 619.026 325.53 615.69V613.862C325.53 609.693 325.145 607.159 324.376 606.261C323.991 605.812 323.477 605.587 322.836 605.587C319.757 605.587 316.357 608.827 312.637 615.306C308.916 621.784 307.056 626.563 307.056 629.643Z" fill="white"/>
<rect x="167.558" y="525.308" width="237.433" height="233.732" rx="21.8931" stroke="#9747FF" stroke-width="0.616708"/>
</g>
<defs>
<clipPath id="clip0_2897_331749">
<rect width="1440" height="682" fill="white"/>
</clipPath>
</defs>
</svg>
