<svg width="1160" height="338" viewBox="0 0 1160 338" fill="none" xmlns="http://www.w3.org/2000/svg">
<rect x="0.5" y="0.5" width="1159" height="337" rx="7.5" fill="#111111"/>
<path d="M94.0653 53.8182V35.6364H95.2301V53.8182H94.0653ZM97.1548 41.6378C97.098 41.0649 96.8542 40.6198 96.4233 40.3026C95.9924 39.9853 95.4077 39.8267 94.669 39.8267C94.1671 39.8267 93.7434 39.8977 93.3977 40.0398C93.0521 40.1771 92.7869 40.3688 92.6023 40.6151C92.4223 40.8613 92.3324 41.1406 92.3324 41.4531C92.3229 41.7135 92.3774 41.9408 92.4957 42.1349C92.6188 42.3291 92.7869 42.4972 93 42.6392C93.2131 42.7765 93.4593 42.8973 93.7386 43.0014C94.018 43.1009 94.3163 43.1861 94.6335 43.2571L95.9403 43.5696C96.5748 43.7116 97.1572 43.901 97.6875 44.1378C98.2178 44.3745 98.6771 44.6657 99.0653 45.0114C99.4536 45.357 99.7543 45.7642 99.9673 46.233C100.185 46.7017 100.296 47.2391 100.301 47.8452C100.296 48.7353 100.069 49.5071 99.6193 50.1605C99.1742 50.8092 98.5303 51.3134 97.6875 51.6733C96.8494 52.0284 95.8385 52.206 94.6548 52.206C93.4806 52.206 92.4579 52.026 91.5866 51.6662C90.7202 51.3063 90.0431 50.7737 89.5554 50.0682C89.0724 49.358 88.8191 48.4796 88.7955 47.4332H91.7713C91.8045 47.9209 91.9441 48.3281 92.1903 48.6548C92.4413 48.9768 92.7751 49.2206 93.1918 49.3864C93.6132 49.5473 94.089 49.6278 94.6193 49.6278C95.1402 49.6278 95.5923 49.5521 95.9759 49.4006C96.3641 49.2491 96.6648 49.0384 96.8778 48.7685C97.0909 48.4986 97.1974 48.1884 97.1974 47.8381C97.1974 47.5114 97.1004 47.2367 96.9062 47.0142C96.7169 46.7917 96.4375 46.6023 96.0682 46.446C95.7036 46.2898 95.2562 46.1477 94.7259 46.0199L93.142 45.6222C91.9157 45.3239 90.9474 44.8575 90.2372 44.223C89.527 43.5885 89.1742 42.7339 89.179 41.6591C89.1742 40.7784 89.4086 40.009 89.8821 39.3509C90.3603 38.6927 91.0161 38.179 91.8494 37.8097C92.6828 37.4403 93.6297 37.2557 94.6903 37.2557C95.7699 37.2557 96.7121 37.4403 97.517 37.8097C98.3267 38.179 98.9564 38.6927 99.4062 39.3509C99.8561 40.009 100.088 40.7713 100.102 41.6378H97.1548ZM108.179 41.0909V43.3636H101.446V41.0909H108.179ZM102.988 52V40.3026C102.988 39.5118 103.141 38.8561 103.449 38.3352C103.762 37.8144 104.188 37.4238 104.728 37.1634C105.267 36.9029 105.881 36.7727 106.567 36.7727C107.031 36.7727 107.455 36.8082 107.838 36.8793C108.227 36.9503 108.516 37.0142 108.705 37.071L108.165 39.3438C108.047 39.3059 107.9 39.2704 107.725 39.2372C107.554 39.2041 107.379 39.1875 107.199 39.1875C106.754 39.1875 106.444 39.2917 106.269 39.5C106.094 39.7036 106.006 39.9901 106.006 40.3594V52H102.988ZM110.028 56.0909V41.0909H113.011V42.9233H113.146C113.278 42.6297 113.47 42.3314 113.721 42.0284C113.977 41.7206 114.308 41.465 114.715 41.2614C115.127 41.053 115.638 40.9489 116.249 40.9489C117.045 40.9489 117.779 41.1572 118.451 41.5739C119.123 41.9858 119.661 42.6084 120.063 43.4418C120.466 44.2704 120.667 45.3097 120.667 46.5597C120.667 47.7765 120.47 48.804 120.077 49.642C119.689 50.4754 119.159 51.1075 118.487 51.5384C117.819 51.9645 117.071 52.1776 116.242 52.1776C115.655 52.1776 115.156 52.0805 114.744 51.8864C114.336 51.6922 114.003 51.4484 113.742 51.1548C113.482 50.8565 113.283 50.5559 113.146 50.2528H113.053V56.0909H110.028ZM112.989 46.5455C112.989 47.1941 113.079 47.7599 113.259 48.2429C113.439 48.7259 113.7 49.1023 114.04 49.3722C114.381 49.6373 114.796 49.7699 115.283 49.7699C115.776 49.7699 116.192 49.6349 116.533 49.3651C116.874 49.0904 117.132 48.7116 117.308 48.2287C117.487 47.741 117.577 47.1799 117.577 46.5455C117.577 45.9157 117.49 45.3617 117.315 44.8835C117.139 44.4053 116.881 44.0312 116.54 43.7614C116.2 43.4915 115.781 43.3565 115.283 43.3565C114.791 43.3565 114.374 43.4867 114.033 43.7472C113.697 44.0076 113.439 44.3769 113.259 44.8551C113.079 45.3333 112.989 45.8968 112.989 46.5455ZM122.684 52V41.0909H125.567V43.0156H125.695C125.923 42.3764 126.301 41.8722 126.832 41.5028C127.362 41.1335 127.996 40.9489 128.735 40.9489C129.483 40.9489 130.12 41.1359 130.646 41.5099C131.171 41.8793 131.522 42.3812 131.697 43.0156H131.81C132.033 42.3906 132.435 41.8911 133.018 41.517C133.605 41.1383 134.299 40.9489 135.099 40.9489C136.117 40.9489 136.943 41.2732 137.577 41.9219C138.217 42.5658 138.536 43.4796 138.536 44.6634V52H135.518V45.2599C135.518 44.6539 135.357 44.1993 135.035 43.8963C134.713 43.5933 134.31 43.4418 133.827 43.4418C133.278 43.4418 132.85 43.617 132.542 43.9673C132.234 44.313 132.08 44.7699 132.08 45.3381V52H129.147V45.196C129.147 44.661 128.993 44.2348 128.685 43.9176C128.382 43.6004 127.982 43.4418 127.485 43.4418C127.149 43.4418 126.846 43.527 126.576 43.6974C126.311 43.8632 126.1 44.0975 125.944 44.4006C125.788 44.6989 125.71 45.0492 125.71 45.4517V52H122.684ZM142.695 52.1847C142.226 52.1847 141.823 52.0189 141.487 51.6875C141.156 51.3513 140.99 50.9489 140.99 50.4801C140.99 50.0161 141.156 49.6184 141.487 49.2869C141.823 48.9555 142.226 48.7898 142.695 48.7898C143.149 48.7898 143.547 48.9555 143.888 49.2869C144.229 49.6184 144.399 50.0161 144.399 50.4801C144.399 50.7926 144.319 51.0791 144.158 51.3395C144.001 51.5952 143.795 51.8011 143.54 51.9574C143.284 52.1089 143.002 52.1847 142.695 52.1847ZM152.686 41.0909V43.3636H146.116V41.0909H152.686ZM147.608 38.4773H150.633V48.6477C150.633 48.9271 150.676 49.1449 150.761 49.3011C150.846 49.4527 150.965 49.5592 151.116 49.6207C151.272 49.6823 151.452 49.7131 151.656 49.7131C151.798 49.7131 151.94 49.7012 152.082 49.6776C152.224 49.6491 152.333 49.6278 152.409 49.6136L152.885 51.8651C152.733 51.9124 152.52 51.9669 152.245 52.0284C151.971 52.0947 151.637 52.1349 151.244 52.1491C150.515 52.1776 149.876 52.0805 149.326 51.858C148.782 51.6354 148.358 51.2898 148.055 50.821C147.752 50.3523 147.603 49.7604 147.608 49.0455V38.4773ZM156.525 56.0909C156.141 56.0909 155.781 56.0601 155.445 55.9986C155.114 55.9418 154.839 55.8684 154.621 55.7784L155.303 53.5199C155.658 53.6288 155.978 53.688 156.262 53.6974C156.551 53.7069 156.799 53.6406 157.007 53.4986C157.221 53.3565 157.393 53.1151 157.526 52.7741L157.703 52.3125L153.79 41.0909H156.972L159.23 49.1023H159.344L161.624 41.0909H164.827L160.587 53.179C160.383 53.7661 160.106 54.2775 159.756 54.7131C159.41 55.1534 158.972 55.492 158.442 55.7287C157.912 55.9702 157.273 56.0909 156.525 56.0909ZM166.375 56.0909V41.0909H169.358V42.9233H169.493C169.626 42.6297 169.818 42.3314 170.069 42.0284C170.324 41.7206 170.656 41.465 171.063 41.2614C171.475 41.053 171.986 40.9489 172.597 40.9489C173.392 40.9489 174.126 41.1572 174.799 41.5739C175.471 41.9858 176.008 42.6084 176.411 43.4418C176.813 44.2704 177.015 45.3097 177.015 46.5597C177.015 47.7765 176.818 48.804 176.425 49.642C176.037 50.4754 175.507 51.1075 174.834 51.5384C174.167 51.9645 173.418 52.1776 172.59 52.1776C172.003 52.1776 171.503 52.0805 171.091 51.8864C170.684 51.6922 170.35 51.4484 170.09 51.1548C169.829 50.8565 169.631 50.5559 169.493 50.2528H169.401V56.0909H166.375ZM169.337 46.5455C169.337 47.1941 169.427 47.7599 169.607 48.2429C169.787 48.7259 170.047 49.1023 170.388 49.3722C170.729 49.6373 171.143 49.7699 171.631 49.7699C172.123 49.7699 172.54 49.6349 172.881 49.3651C173.222 49.0904 173.48 48.7116 173.655 48.2287C173.835 47.741 173.925 47.1799 173.925 46.5455C173.925 45.9157 173.837 45.3617 173.662 44.8835C173.487 44.4053 173.229 44.0312 172.888 43.7614C172.547 43.4915 172.128 43.3565 171.631 43.3565C171.139 43.3565 170.722 43.4867 170.381 43.7472C170.045 44.0076 169.787 44.3769 169.607 44.8551C169.427 45.3333 169.337 45.8968 169.337 46.5455ZM184.003 52.2131C182.881 52.2131 181.915 51.9858 181.105 51.5312C180.301 51.072 179.68 50.4233 179.245 49.5852C178.809 48.7424 178.591 47.7457 178.591 46.5952C178.591 45.473 178.809 44.4882 179.245 43.6406C179.68 42.7931 180.293 42.1326 181.084 41.6591C181.88 41.1856 182.812 40.9489 183.882 40.9489C184.602 40.9489 185.272 41.0649 185.892 41.2969C186.517 41.5241 187.062 41.8674 187.526 42.3267C187.995 42.786 188.359 43.3636 188.62 44.0597C188.88 44.7509 189.01 45.5606 189.01 46.4886V47.3196H179.799V45.4446H186.162C186.162 45.009 186.068 44.6231 185.878 44.2869C185.689 43.9508 185.426 43.688 185.09 43.4986C184.758 43.3045 184.373 43.2074 183.932 43.2074C183.473 43.2074 183.066 43.3139 182.711 43.527C182.36 43.7353 182.086 44.017 181.887 44.3722C181.688 44.7225 181.586 45.1132 181.581 45.544V47.3267C181.581 47.8665 181.681 48.3329 181.88 48.7259C182.083 49.1188 182.37 49.4219 182.739 49.6349C183.108 49.848 183.546 49.9545 184.053 49.9545C184.389 49.9545 184.697 49.9072 184.976 49.8125C185.256 49.7178 185.495 49.5758 185.694 49.3864C185.892 49.197 186.044 48.965 186.148 48.6903L188.946 48.875C188.804 49.5473 188.513 50.1345 188.073 50.6364C187.637 51.1335 187.074 51.5218 186.382 51.8011C185.696 52.0758 184.903 52.2131 184.003 52.2131ZM192.753 52.1847C192.284 52.1847 191.882 52.0189 191.546 51.6875C191.214 51.3513 191.049 50.9489 191.049 50.4801C191.049 50.0161 191.214 49.6184 191.546 49.2869C191.882 48.9555 192.284 48.7898 192.753 48.7898C193.208 48.7898 193.605 48.9555 193.946 49.2869C194.287 49.6184 194.458 50.0161 194.458 50.4801C194.458 50.7926 194.377 51.0791 194.216 51.3395C194.06 51.5952 193.854 51.8011 193.598 51.9574C193.343 52.1089 193.061 52.1847 192.753 52.1847ZM199.967 45.6932V52H196.942V37.4545H199.882V43.0156H200.01C200.256 42.3717 200.654 41.8674 201.203 41.5028C201.752 41.1335 202.441 40.9489 203.27 40.9489C204.027 40.9489 204.688 41.1146 205.251 41.446C205.82 41.7727 206.26 42.2438 206.572 42.8594C206.89 43.4702 207.046 44.2017 207.041 45.054V52H204.016V45.5938C204.02 44.9214 203.85 44.3982 203.504 44.0241C203.163 43.6501 202.685 43.4631 202.07 43.4631C201.658 43.4631 201.293 43.5507 200.976 43.7259C200.663 43.901 200.417 44.1567 200.237 44.4929C200.062 44.8243 199.972 45.2244 199.967 45.6932ZM214.394 52.2131C213.272 52.2131 212.306 51.9858 211.496 51.5312C210.691 51.072 210.071 50.4233 209.635 49.5852C209.2 48.7424 208.982 47.7457 208.982 46.5952C208.982 45.473 209.2 44.4882 209.635 43.6406C210.071 42.7931 210.684 42.1326 211.475 41.6591C212.27 41.1856 213.203 40.9489 214.273 40.9489C214.993 40.9489 215.663 41.0649 216.283 41.2969C216.908 41.5241 217.453 41.8674 217.917 42.3267C218.385 42.786 218.75 43.3636 219.01 44.0597C219.271 44.7509 219.401 45.5606 219.401 46.4886V47.3196H210.189V45.4446H216.553C216.553 45.009 216.458 44.6231 216.269 44.2869C216.079 43.9508 215.817 43.688 215.48 43.4986C215.149 43.3045 214.763 43.2074 214.323 43.2074C213.864 43.2074 213.456 43.3139 213.101 43.527C212.751 43.7353 212.476 44.017 212.277 44.3722C212.078 44.7225 211.977 45.1132 211.972 45.544V47.3267C211.972 47.8665 212.071 48.3329 212.27 48.7259C212.474 49.1188 212.76 49.4219 213.13 49.6349C213.499 49.848 213.937 49.9545 214.444 49.9545C214.78 49.9545 215.087 49.9072 215.367 49.8125C215.646 49.7178 215.885 49.5758 216.084 49.3864C216.283 49.197 216.435 48.965 216.539 48.6903L219.337 48.875C219.195 49.5473 218.904 50.1345 218.463 50.6364C218.028 51.1335 217.464 51.5218 216.773 51.8011C216.087 52.0758 215.293 52.2131 214.394 52.2131ZM224.486 52.206C223.79 52.206 223.17 52.0852 222.625 51.8438C222.081 51.5975 221.65 51.2353 221.333 50.7571C221.02 50.2741 220.864 49.6728 220.864 48.9531C220.864 48.3471 220.975 47.8381 221.198 47.4261C221.42 47.0142 221.723 46.6828 222.107 46.4318C222.49 46.1809 222.926 45.9915 223.414 45.8636C223.906 45.7358 224.422 45.6458 224.962 45.5938C225.596 45.5275 226.108 45.4659 226.496 45.4091C226.884 45.3475 227.166 45.2576 227.341 45.1392C227.516 45.0208 227.604 44.8456 227.604 44.6136V44.571C227.604 44.1212 227.462 43.7732 227.178 43.527C226.899 43.2808 226.501 43.1577 225.985 43.1577C225.44 43.1577 225.007 43.2784 224.685 43.5199C224.363 43.7566 224.15 44.0549 224.046 44.4148L221.248 44.1875C221.39 43.5246 221.669 42.9517 222.086 42.4688C222.502 41.9811 223.04 41.607 223.698 41.3466C224.361 41.0814 225.128 40.9489 225.999 40.9489C226.605 40.9489 227.185 41.0199 227.739 41.1619C228.298 41.304 228.792 41.5241 229.223 41.8224C229.659 42.1207 230.002 42.5043 230.253 42.973C230.504 43.437 230.63 43.9934 230.63 44.642V52H227.76V50.4872H227.675C227.5 50.8281 227.266 51.1288 226.972 51.3892C226.678 51.6449 226.326 51.8461 225.914 51.9929C225.502 52.1349 225.026 52.206 224.486 52.206ZM225.353 50.1179C225.798 50.1179 226.191 50.0303 226.532 49.8551C226.873 49.6752 227.14 49.4337 227.334 49.1307C227.528 48.8277 227.625 48.4844 227.625 48.1009V46.9432C227.531 47.0047 227.4 47.0616 227.235 47.1136C227.074 47.161 226.891 47.206 226.688 47.2486C226.484 47.2865 226.281 47.322 226.077 47.3551C225.873 47.3835 225.689 47.4096 225.523 47.4332C225.168 47.4853 224.858 47.5682 224.593 47.6818C224.328 47.7955 224.122 47.9493 223.975 48.1435C223.828 48.3329 223.755 48.5696 223.755 48.8537C223.755 49.2656 223.904 49.5805 224.202 49.7983C224.505 50.0114 224.889 50.1179 225.353 50.1179ZM236.997 52.1776C236.168 52.1776 235.418 51.9645 234.745 51.5384C234.078 51.1075 233.547 50.4754 233.154 49.642C232.766 48.804 232.572 47.7765 232.572 46.5597C232.572 45.3097 232.773 44.2704 233.176 43.4418C233.578 42.6084 234.113 41.9858 234.781 41.5739C235.453 41.1572 236.19 40.9489 236.99 40.9489C237.6 40.9489 238.109 41.053 238.517 41.2614C238.929 41.465 239.26 41.7206 239.511 42.0284C239.767 42.3314 239.961 42.6297 240.093 42.9233H240.186V37.4545H243.204V52H240.221V50.2528H240.093C239.951 50.5559 239.75 50.8565 239.49 51.1548C239.234 51.4484 238.9 51.6922 238.488 51.8864C238.081 52.0805 237.584 52.1776 236.997 52.1776ZM237.956 49.7699C238.443 49.7699 238.855 49.6373 239.191 49.3722C239.532 49.1023 239.793 48.7259 239.973 48.2429C240.157 47.7599 240.25 47.1941 240.25 46.5455C240.25 45.8968 240.16 45.3333 239.98 44.8551C239.8 44.3769 239.539 44.0076 239.199 43.7472C238.858 43.4867 238.443 43.3565 237.956 43.3565C237.458 43.3565 237.039 43.4915 236.699 43.7614C236.358 44.0312 236.1 44.4053 235.924 44.8835C235.749 45.3617 235.662 45.9157 235.662 46.5455C235.662 47.1799 235.749 47.741 235.924 48.2287C236.104 48.7116 236.362 49.0904 236.699 49.3651C237.039 49.6349 237.458 49.7699 237.956 49.7699ZM245.692 52V41.0909H248.717V52H245.692ZM247.212 39.6847C246.762 39.6847 246.376 39.5355 246.054 39.2372C245.737 38.9342 245.578 38.572 245.578 38.1506C245.578 37.7339 245.737 37.3764 246.054 37.0781C246.376 36.7751 246.762 36.6236 247.212 36.6236C247.661 36.6236 248.045 36.7751 248.362 37.0781C248.684 37.3764 248.845 37.7339 248.845 38.1506C248.845 38.572 248.684 38.9342 248.362 39.2372C248.045 39.5355 247.661 39.6847 247.212 39.6847ZM254.167 45.6932V52H251.141V41.0909H254.025V43.0156H254.152C254.394 42.3812 254.799 41.8793 255.367 41.5099C255.935 41.1359 256.624 40.9489 257.434 40.9489C258.191 40.9489 258.852 41.1146 259.415 41.446C259.979 41.7775 260.417 42.2509 260.729 42.8665C261.042 43.4773 261.198 44.2064 261.198 45.054V52H258.172V45.5938C258.177 44.9261 258.007 44.4053 257.661 44.0312C257.315 43.6525 256.839 43.4631 256.233 43.4631C255.826 43.4631 255.466 43.5507 255.154 43.7259C254.846 43.901 254.605 44.1567 254.429 44.4929C254.259 44.8243 254.171 45.2244 254.167 45.6932ZM268.497 56.3182C267.517 56.3182 266.677 56.1832 265.976 55.9134C265.28 55.6482 264.726 55.286 264.314 54.8267C263.902 54.3674 263.634 53.8513 263.511 53.2784L266.31 52.902C266.395 53.1198 266.53 53.3234 266.714 53.5128C266.899 53.7022 267.143 53.8537 267.446 53.9673C267.754 54.0857 268.128 54.1449 268.568 54.1449C269.226 54.1449 269.768 53.9839 270.195 53.6619C270.625 53.3447 270.841 52.812 270.841 52.0639V50.0682H270.713C270.58 50.3712 270.382 50.6577 270.116 50.9276C269.851 51.1974 269.51 51.4176 269.094 51.5881C268.677 51.7585 268.18 51.8438 267.602 51.8438C266.783 51.8438 266.037 51.6544 265.365 51.2756C264.697 50.892 264.165 50.3073 263.767 49.5213C263.374 48.7306 263.178 47.7315 263.178 46.5241C263.178 45.2884 263.379 44.2562 263.781 43.4276C264.184 42.599 264.719 41.9787 265.386 41.5668C266.059 41.1548 266.795 40.9489 267.595 40.9489C268.206 40.9489 268.717 41.053 269.129 41.2614C269.541 41.465 269.873 41.7206 270.124 42.0284C270.379 42.3314 270.576 42.6297 270.713 42.9233H270.827V41.0909H273.831V52.1065C273.831 53.0346 273.604 53.8111 273.149 54.4361C272.695 55.0611 272.065 55.5298 271.26 55.8423C270.46 56.1596 269.539 56.3182 268.497 56.3182ZM268.561 49.571C269.049 49.571 269.461 49.4503 269.797 49.2088C270.138 48.9626 270.398 48.6122 270.578 48.1577C270.763 47.6984 270.855 47.1491 270.855 46.5099C270.855 45.8707 270.765 45.3168 270.585 44.848C270.405 44.3745 270.145 44.0076 269.804 43.7472C269.463 43.4867 269.049 43.3565 268.561 43.3565C268.064 43.3565 267.645 43.4915 267.304 43.7614C266.963 44.0265 266.705 44.3958 266.53 44.8693C266.355 45.3428 266.267 45.8897 266.267 46.5099C266.267 47.1397 266.355 47.6842 266.53 48.1435C266.71 48.598 266.968 48.9508 267.304 49.2017C267.645 49.4479 268.064 49.571 268.561 49.571ZM283.036 44.8267V47.2273H276.402V44.8267H283.036ZM288.639 45.6932V52H285.614V37.4545H288.554V43.0156H288.682C288.928 42.3717 289.326 41.8674 289.875 41.5028C290.424 41.1335 291.113 40.9489 291.942 40.9489C292.699 40.9489 293.36 41.1146 293.923 41.446C294.491 41.7727 294.932 42.2438 295.244 42.8594C295.562 43.4702 295.718 44.2017 295.713 45.054V52H292.688V45.5938C292.692 44.9214 292.522 44.3982 292.176 44.0241C291.835 43.6501 291.357 43.4631 290.741 43.4631C290.33 43.4631 289.965 43.5507 289.648 43.7259C289.335 43.901 289.089 44.1567 288.909 44.4929C288.734 44.8243 288.644 45.2244 288.639 45.6932ZM303.066 52.2131C301.944 52.2131 300.978 51.9858 300.168 51.5312C299.363 51.072 298.743 50.4233 298.307 49.5852C297.872 48.7424 297.654 47.7457 297.654 46.5952C297.654 45.473 297.872 44.4882 298.307 43.6406C298.743 42.7931 299.356 42.1326 300.147 41.6591C300.942 41.1856 301.875 40.9489 302.945 40.9489C303.665 40.9489 304.335 41.0649 304.955 41.2969C305.58 41.5241 306.124 41.8674 306.588 42.3267C307.057 42.786 307.422 43.3636 307.682 44.0597C307.943 44.7509 308.073 45.5606 308.073 46.4886V47.3196H298.861V45.4446H305.225C305.225 45.009 305.13 44.6231 304.941 44.2869C304.751 43.9508 304.489 43.688 304.152 43.4986C303.821 43.3045 303.435 43.2074 302.995 43.2074C302.535 43.2074 302.128 43.3139 301.773 43.527C301.423 43.7353 301.148 44.017 300.949 44.3722C300.75 44.7225 300.649 45.1132 300.644 45.544V47.3267C300.644 47.8665 300.743 48.3329 300.942 48.7259C301.146 49.1188 301.432 49.4219 301.801 49.6349C302.171 49.848 302.609 49.9545 303.115 49.9545C303.452 49.9545 303.759 49.9072 304.039 49.8125C304.318 49.7178 304.557 49.5758 304.756 49.3864C304.955 49.197 305.106 48.965 305.211 48.6903L308.009 48.875C307.867 49.5473 307.576 50.1345 307.135 50.6364C306.7 51.1335 306.136 51.5218 305.445 51.8011C304.758 52.0758 303.965 52.2131 303.066 52.2131ZM310.047 52V41.0909H312.98V42.9943H313.094C313.293 42.3172 313.627 41.8059 314.096 41.4602C314.564 41.1098 315.104 40.9347 315.715 40.9347C315.866 40.9347 316.03 40.9441 316.205 40.9631C316.38 40.982 316.534 41.008 316.667 41.0412V43.7259C316.525 43.6832 316.328 43.6454 316.077 43.6122C315.826 43.5791 315.596 43.5625 315.388 43.5625C314.943 43.5625 314.545 43.6596 314.195 43.8537C313.849 44.0431 313.575 44.3082 313.371 44.6491C313.172 44.9901 313.073 45.383 313.073 45.8281V52H310.047ZM322.652 52.2131C321.549 52.2131 320.595 51.9787 319.79 51.5099C318.99 51.0365 318.372 50.3783 317.936 49.5355C317.5 48.688 317.283 47.7055 317.283 46.5881C317.283 45.4612 317.5 44.4763 317.936 43.6335C318.372 42.786 318.99 42.1278 319.79 41.6591C320.595 41.1856 321.549 40.9489 322.652 40.9489C323.755 40.9489 324.707 41.1856 325.507 41.6591C326.312 42.1278 326.932 42.786 327.368 43.6335C327.804 44.4763 328.021 45.4612 328.021 46.5881C328.021 47.7055 327.804 48.688 327.368 49.5355C326.932 50.3783 326.312 51.0365 325.507 51.5099C324.707 51.9787 323.755 52.2131 322.652 52.2131ZM322.666 49.8693C323.168 49.8693 323.587 49.7273 323.923 49.4432C324.259 49.1544 324.513 48.7614 324.683 48.2642C324.858 47.767 324.946 47.2012 324.946 46.5668C324.946 45.9323 324.858 45.3665 324.683 44.8693C324.513 44.3722 324.259 43.9792 323.923 43.6903C323.587 43.4015 323.168 43.2571 322.666 43.2571C322.16 43.2571 321.733 43.4015 321.388 43.6903C321.047 43.9792 320.789 44.3722 320.614 44.8693C320.443 45.3665 320.358 45.9323 320.358 46.5668C320.358 47.2012 320.443 47.767 320.614 48.2642C320.789 48.7614 321.047 49.1544 321.388 49.4432C321.733 49.7273 322.16 49.8693 322.666 49.8693Z" fill="#333333"/>
<path d="M105.358 88.8182V147H93.0568V88.8182H105.358ZM138.717 103.364V112.455H111.786V103.364H138.717ZM117.95 147V100.21C117.95 97.0473 118.566 94.4242 119.797 92.3409C121.047 90.2576 122.751 88.6951 124.911 87.6534C127.07 86.6117 129.522 86.0909 132.268 86.0909C134.125 86.0909 135.82 86.233 137.354 86.517C138.907 86.8011 140.062 87.0568 140.82 87.2841L138.661 96.375C138.187 96.2235 137.6 96.0814 136.899 95.9489C136.217 95.8163 135.517 95.75 134.797 95.75C133.017 95.75 131.776 96.1667 131.075 97C130.375 97.8144 130.024 98.9602 130.024 100.438V147H117.95ZM172.098 163.364C170.564 163.364 169.125 163.241 167.78 162.994C166.454 162.767 165.356 162.473 164.484 162.114L167.212 153.08C168.632 153.515 169.911 153.752 171.047 153.79C172.202 153.828 173.196 153.563 174.03 152.994C174.882 152.426 175.573 151.46 176.104 150.097L176.814 148.25L161.161 103.364H173.888L182.922 135.409H183.376L192.496 103.364H205.308L188.348 151.716C187.534 154.064 186.426 156.11 185.024 157.852C183.642 159.614 181.89 160.968 179.768 161.915C177.647 162.881 175.09 163.364 172.098 163.364ZM229.811 147.852C225.398 147.852 221.582 146.915 218.362 145.04C215.161 143.146 212.69 140.513 210.947 137.142C209.205 133.752 208.334 129.822 208.334 125.352C208.334 120.845 209.205 116.905 210.947 113.534C212.69 110.144 215.161 107.511 218.362 105.636C221.582 103.742 225.398 102.795 229.811 102.795C234.224 102.795 238.031 103.742 241.232 105.636C244.451 107.511 246.932 110.144 248.675 113.534C250.417 116.905 251.288 120.845 251.288 125.352C251.288 129.822 250.417 133.752 248.675 137.142C246.932 140.513 244.451 143.146 241.232 145.04C238.031 146.915 234.224 147.852 229.811 147.852ZM229.868 138.477C231.875 138.477 233.552 137.909 234.896 136.773C236.241 135.617 237.254 134.045 237.936 132.057C238.637 130.068 238.987 127.805 238.987 125.267C238.987 122.729 238.637 120.466 237.936 118.477C237.254 116.489 236.241 114.917 234.896 113.761C233.552 112.606 231.875 112.028 229.868 112.028C227.841 112.028 226.137 112.606 224.754 113.761C223.391 114.917 222.358 116.489 221.658 118.477C220.976 120.466 220.635 122.729 220.635 125.267C220.635 127.805 220.976 130.068 221.658 132.057C222.358 134.045 223.391 135.617 224.754 136.773C226.137 137.909 227.841 138.477 229.868 138.477ZM287.141 128.42V103.364H299.243V147H287.624V139.074H287.169C286.184 141.631 284.546 143.686 282.254 145.239C279.982 146.792 277.207 147.568 273.93 147.568C271.014 147.568 268.447 146.905 266.232 145.58C264.016 144.254 262.283 142.369 261.033 139.926C259.802 137.483 259.177 134.557 259.158 131.148V103.364H271.26V128.989C271.279 131.564 271.97 133.6 273.334 135.097C274.697 136.593 276.525 137.341 278.817 137.341C280.275 137.341 281.639 137.009 282.908 136.347C284.177 135.665 285.199 134.661 285.976 133.335C286.771 132.009 287.16 130.371 287.141 128.42ZM338.405 134.443L338.433 119.926H340.195L354.172 103.364H368.064L349.286 125.295H346.416L338.405 134.443ZM327.439 147V88.8182H339.541V147H327.439ZM354.712 147L341.871 127.994L349.939 119.443L368.888 147H354.712ZM386.104 121.773V147H374.001V103.364H385.536V111.062H386.047C387.013 108.525 388.632 106.517 390.905 105.04C393.178 103.544 395.933 102.795 399.172 102.795C402.202 102.795 404.844 103.458 407.098 104.784C409.352 106.11 411.104 108.004 412.354 110.466C413.604 112.909 414.229 115.826 414.229 119.216V147H402.126V121.375C402.145 118.705 401.464 116.621 400.081 115.125C398.698 113.61 396.795 112.852 394.371 112.852C392.742 112.852 391.303 113.203 390.053 113.903C388.821 114.604 387.856 115.627 387.155 116.972C386.473 118.297 386.123 119.898 386.104 121.773ZM443.483 147.852C439.07 147.852 435.254 146.915 432.034 145.04C428.833 143.146 426.362 140.513 424.619 137.142C422.877 133.752 422.006 129.822 422.006 125.352C422.006 120.845 422.877 116.905 424.619 113.534C426.362 110.144 428.833 107.511 432.034 105.636C435.254 103.742 439.07 102.795 443.483 102.795C447.896 102.795 451.703 103.742 454.903 105.636C458.123 107.511 460.604 110.144 462.347 113.534C464.089 116.905 464.96 120.845 464.96 125.352C464.96 129.822 464.089 133.752 462.347 137.142C460.604 140.513 458.123 143.146 454.903 145.04C451.703 146.915 447.896 147.852 443.483 147.852ZM443.54 138.477C445.547 138.477 447.223 137.909 448.568 136.773C449.913 135.617 450.926 134.045 451.608 132.057C452.309 130.068 452.659 127.805 452.659 125.267C452.659 122.729 452.309 120.466 451.608 118.477C450.926 116.489 449.913 114.917 448.568 113.761C447.223 112.606 445.547 112.028 443.54 112.028C441.513 112.028 439.809 112.606 438.426 113.761C437.063 114.917 436.03 116.489 435.33 118.477C434.648 120.466 434.307 122.729 434.307 125.267C434.307 127.805 434.648 130.068 435.33 132.057C436.03 134.045 437.063 135.617 438.426 136.773C439.809 137.909 441.513 138.477 443.54 138.477ZM480.344 147L468.469 103.364H480.713L487.474 132.682H487.872L494.918 103.364H506.935L514.094 132.511H514.463L521.111 103.364H533.327L521.48 147H508.668L501.168 119.557H500.628L493.128 147H480.344ZM558.526 147V88.8182H597.73V98.9602H570.827V112.824H595.713V122.966H570.827V136.858H597.844V147H558.526ZM617.396 103.364L625.408 118.619L633.618 103.364H646.033L633.391 125.182L646.374 147H634.016L625.408 131.915L616.942 147H604.442L617.396 125.182L604.896 103.364H617.396ZM671.374 147.852C666.904 147.852 663.059 146.905 659.839 145.011C656.639 143.098 654.177 140.447 652.453 137.057C650.749 133.667 649.896 129.765 649.896 125.352C649.896 120.883 650.758 116.962 652.482 113.591C654.224 110.201 656.696 107.559 659.896 105.665C663.097 103.752 666.904 102.795 671.317 102.795C675.124 102.795 678.457 103.487 681.317 104.869C684.177 106.252 686.44 108.193 688.107 110.693C689.773 113.193 690.692 116.129 690.862 119.5H679.442C679.12 117.322 678.268 115.57 676.885 114.244C675.521 112.9 673.732 112.227 671.516 112.227C669.641 112.227 668.002 112.739 666.601 113.761C665.218 114.765 664.139 116.233 663.362 118.165C662.586 120.097 662.197 122.436 662.197 125.182C662.197 127.966 662.576 130.333 663.334 132.284C664.11 134.235 665.199 135.722 666.601 136.744C668.002 137.767 669.641 138.278 671.516 138.278C672.898 138.278 674.139 137.994 675.237 137.426C676.355 136.858 677.273 136.034 677.993 134.955C678.732 133.856 679.214 132.54 679.442 131.006H690.862C690.673 134.339 689.764 137.275 688.135 139.812C686.525 142.331 684.3 144.301 681.459 145.722C678.618 147.142 675.256 147.852 671.374 147.852ZM718.497 147.852C714.009 147.852 710.145 146.943 706.906 145.125C703.687 143.288 701.205 140.693 699.463 137.341C697.721 133.97 696.849 129.983 696.849 125.381C696.849 120.892 697.721 116.953 699.463 113.562C701.205 110.172 703.658 107.53 706.821 105.636C710.003 103.742 713.734 102.795 718.014 102.795C720.893 102.795 723.573 103.259 726.054 104.188C728.554 105.097 730.732 106.47 732.588 108.307C734.463 110.144 735.921 112.455 736.963 115.239C738.005 118.004 738.526 121.242 738.526 124.955V128.278H701.679V120.778H727.134C727.134 119.036 726.755 117.492 725.997 116.148C725.24 114.803 724.188 113.752 722.844 112.994C721.518 112.218 719.974 111.83 718.213 111.83C716.376 111.83 714.747 112.256 713.327 113.108C711.925 113.941 710.827 115.068 710.031 116.489C709.236 117.89 708.829 119.453 708.81 121.176V128.307C708.81 130.466 709.207 132.331 710.003 133.903C710.817 135.475 711.963 136.688 713.44 137.54C714.918 138.392 716.67 138.818 718.696 138.818C720.041 138.818 721.272 138.629 722.389 138.25C723.507 137.871 724.463 137.303 725.259 136.545C726.054 135.788 726.66 134.86 727.077 133.761L738.27 134.5C737.702 137.189 736.537 139.538 734.776 141.545C733.033 143.534 730.779 145.087 728.014 146.205C725.268 147.303 722.096 147.852 718.497 147.852ZM758.526 88.8182V147H746.423V88.8182H758.526ZM781.374 139.045L781.061 142.17C780.815 144.67 780.341 147.161 779.641 149.642C778.959 152.142 778.239 154.405 777.482 156.432C776.743 158.458 776.146 160.049 775.692 161.205H767.851C768.135 160.087 768.523 158.525 769.016 156.517C769.508 154.528 769.972 152.294 770.408 149.812C770.843 147.331 771.118 144.803 771.232 142.227L771.374 139.045H781.374ZM815.692 163.364C814.158 163.364 812.718 163.241 811.374 162.994C810.048 162.767 808.949 162.473 808.078 162.114L810.805 153.08C812.226 153.515 813.504 153.752 814.641 153.79C815.796 153.828 816.79 153.563 817.624 152.994C818.476 152.426 819.167 151.46 819.697 150.097L820.408 148.25L804.754 103.364H817.482L826.516 135.409H826.97L836.089 103.364H848.902L831.942 151.716C831.127 154.064 830.019 156.11 828.618 157.852C827.235 159.614 825.483 160.968 823.362 161.915C821.241 162.881 818.684 163.364 815.692 163.364ZM873.405 147.852C868.992 147.852 865.176 146.915 861.956 145.04C858.755 143.146 856.284 140.513 854.541 137.142C852.799 133.752 851.928 129.822 851.928 125.352C851.928 120.845 852.799 116.905 854.541 113.534C856.284 110.144 858.755 107.511 861.956 105.636C865.176 103.742 868.992 102.795 873.405 102.795C877.818 102.795 881.625 103.742 884.825 105.636C888.045 107.511 890.526 110.144 892.268 113.534C894.011 116.905 894.882 120.845 894.882 125.352C894.882 129.822 894.011 133.752 892.268 137.142C890.526 140.513 888.045 143.146 884.825 145.04C881.625 146.915 877.818 147.852 873.405 147.852ZM873.462 138.477C875.469 138.477 877.145 137.909 878.49 136.773C879.835 135.617 880.848 134.045 881.53 132.057C882.231 130.068 882.581 127.805 882.581 125.267C882.581 122.729 882.231 120.466 881.53 118.477C880.848 116.489 879.835 114.917 878.49 113.761C877.145 112.606 875.469 112.028 873.462 112.028C871.435 112.028 869.731 112.606 868.348 113.761C866.984 114.917 865.952 116.489 865.251 118.477C864.57 120.466 864.229 122.729 864.229 125.267C864.229 127.805 864.57 130.068 865.251 132.057C865.952 134.045 866.984 135.617 868.348 136.773C869.731 137.909 871.435 138.477 873.462 138.477ZM930.734 128.42V103.364H942.837V147H931.217V139.074H930.763C929.778 141.631 928.14 143.686 925.848 145.239C923.575 146.792 920.801 147.568 917.524 147.568C914.607 147.568 912.041 146.905 909.825 145.58C907.609 144.254 905.876 142.369 904.626 139.926C903.395 137.483 902.77 134.557 902.751 131.148V103.364H914.854V128.989C914.873 131.564 915.564 133.6 916.928 135.097C918.291 136.593 920.119 137.341 922.411 137.341C923.869 137.341 925.232 137.009 926.501 136.347C927.77 135.665 928.793 134.661 929.57 133.335C930.365 132.009 930.753 130.371 930.734 128.42ZM103.795 238.443L103.824 223.926H105.585L119.562 207.364H133.455L114.676 229.295H111.807L103.795 238.443ZM92.8295 251V192.818H104.932V251H92.8295ZM120.102 251L107.261 231.994L115.33 223.443L134.278 251H120.102ZM151.494 225.773V251H139.392V207.364H150.926V215.062H151.438C152.403 212.525 154.023 210.517 156.295 209.04C158.568 207.544 161.324 206.795 164.562 206.795C167.593 206.795 170.235 207.458 172.489 208.784C174.742 210.11 176.494 212.004 177.744 214.466C178.994 216.909 179.619 219.826 179.619 223.216V251H167.517V225.375C167.536 222.705 166.854 220.621 165.472 219.125C164.089 217.61 162.186 216.852 159.761 216.852C158.133 216.852 156.693 217.203 155.443 217.903C154.212 218.604 153.246 219.627 152.545 220.972C151.864 222.297 151.513 223.898 151.494 225.773ZM208.874 251.852C204.461 251.852 200.644 250.915 197.425 249.04C194.224 247.146 191.752 244.513 190.01 241.142C188.268 237.752 187.396 233.822 187.396 229.352C187.396 224.845 188.268 220.905 190.01 217.534C191.752 214.144 194.224 211.511 197.425 209.636C200.644 207.742 204.461 206.795 208.874 206.795C213.286 206.795 217.093 207.742 220.294 209.636C223.514 211.511 225.995 214.144 227.737 217.534C229.48 220.905 230.351 224.845 230.351 229.352C230.351 233.822 229.48 237.752 227.737 241.142C225.995 244.513 223.514 247.146 220.294 249.04C217.093 250.915 213.286 251.852 208.874 251.852ZM208.93 242.477C210.938 242.477 212.614 241.909 213.959 240.773C215.304 239.617 216.317 238.045 216.999 236.057C217.699 234.068 218.05 231.805 218.05 229.267C218.05 226.729 217.699 224.466 216.999 222.477C216.317 220.489 215.304 218.917 213.959 217.761C212.614 216.606 210.938 216.028 208.93 216.028C206.904 216.028 205.199 216.606 203.817 217.761C202.453 218.917 201.421 220.489 200.72 222.477C200.038 224.466 199.697 226.729 199.697 229.267C199.697 231.805 200.038 234.068 200.72 236.057C201.421 238.045 202.453 239.617 203.817 240.773C205.199 241.909 206.904 242.477 208.93 242.477ZM245.734 251L233.859 207.364H246.104L252.865 236.682H253.263L260.308 207.364H272.325L279.484 236.511H279.854L286.501 207.364H298.717L286.871 251H274.058L266.558 223.557H266.018L258.518 251H245.734ZM323.916 251V192.818H362.439V202.96H336.217V216.824H359.882V226.966H336.217V251H323.916ZM382.382 251.824C379.598 251.824 377.117 251.341 374.939 250.375C372.761 249.39 371.037 247.941 369.768 246.028C368.518 244.097 367.893 241.691 367.893 238.812C367.893 236.388 368.339 234.352 369.229 232.705C370.119 231.057 371.331 229.731 372.865 228.727C374.399 227.723 376.142 226.966 378.092 226.455C380.062 225.943 382.126 225.583 384.286 225.375C386.823 225.11 388.869 224.864 390.422 224.636C391.975 224.39 393.102 224.03 393.803 223.557C394.503 223.083 394.854 222.383 394.854 221.455V221.284C394.854 219.485 394.286 218.093 393.149 217.108C392.032 216.123 390.441 215.631 388.376 215.631C386.198 215.631 384.465 216.114 383.178 217.08C381.89 218.027 381.037 219.22 380.621 220.659L369.428 219.75C369.996 217.098 371.113 214.807 372.78 212.875C374.446 210.924 376.596 209.428 379.229 208.386C381.88 207.326 384.948 206.795 388.433 206.795C390.857 206.795 393.178 207.08 395.393 207.648C397.628 208.216 399.607 209.097 401.331 210.29C403.073 211.483 404.446 213.017 405.45 214.892C406.454 216.748 406.956 218.973 406.956 221.568V251H395.479V244.949H395.138C394.437 246.312 393.5 247.515 392.325 248.557C391.151 249.58 389.74 250.384 388.092 250.972C386.445 251.54 384.541 251.824 382.382 251.824ZM385.848 243.472C387.628 243.472 389.2 243.121 390.564 242.42C391.928 241.701 392.998 240.735 393.774 239.523C394.551 238.311 394.939 236.937 394.939 235.403V230.773C394.56 231.019 394.039 231.246 393.376 231.455C392.732 231.644 392.003 231.824 391.189 231.994C390.375 232.146 389.56 232.288 388.746 232.42C387.931 232.534 387.193 232.638 386.53 232.733C385.109 232.941 383.869 233.273 382.808 233.727C381.748 234.182 380.924 234.797 380.337 235.574C379.75 236.331 379.456 237.278 379.456 238.415C379.456 240.062 380.053 241.322 381.246 242.193C382.458 243.045 383.992 243.472 385.848 243.472ZM452.652 219.807L441.572 220.489C441.383 219.542 440.976 218.689 440.351 217.932C439.726 217.155 438.902 216.54 437.879 216.085C436.875 215.612 435.673 215.375 434.271 215.375C432.396 215.375 430.815 215.773 429.527 216.568C428.239 217.345 427.595 218.386 427.595 219.693C427.595 220.735 428.012 221.616 428.845 222.335C429.679 223.055 431.108 223.633 433.135 224.068L441.033 225.659C445.275 226.53 448.438 227.932 450.521 229.864C452.605 231.795 453.646 234.333 453.646 237.477C453.646 240.337 452.804 242.847 451.118 245.006C449.451 247.165 447.16 248.85 444.243 250.062C441.345 251.256 438.002 251.852 434.214 251.852C428.438 251.852 423.836 250.65 420.408 248.244C416.999 245.82 415 242.525 414.413 238.358L426.317 237.733C426.677 239.494 427.548 240.839 428.93 241.767C430.313 242.676 432.084 243.131 434.243 243.131C436.364 243.131 438.069 242.723 439.357 241.909C440.663 241.076 441.326 240.006 441.345 238.699C441.326 237.6 440.862 236.701 439.953 236C439.044 235.28 437.643 234.731 435.749 234.352L428.192 232.847C423.93 231.994 420.758 230.517 418.675 228.415C416.61 226.312 415.578 223.633 415.578 220.375C415.578 217.572 416.336 215.157 417.851 213.131C419.385 211.104 421.535 209.542 424.3 208.443C427.084 207.345 430.341 206.795 434.072 206.795C439.584 206.795 443.921 207.96 447.084 210.29C450.266 212.619 452.122 215.792 452.652 219.807ZM484.477 207.364V216.455H458.199V207.364H484.477ZM464.165 196.909H476.267V237.591C476.267 238.708 476.438 239.58 476.778 240.205C477.119 240.811 477.593 241.237 478.199 241.483C478.824 241.729 479.544 241.852 480.358 241.852C480.926 241.852 481.494 241.805 482.062 241.71C482.631 241.597 483.066 241.511 483.369 241.455L485.273 250.46C484.667 250.65 483.814 250.867 482.716 251.114C481.617 251.379 480.282 251.54 478.71 251.597C475.794 251.71 473.237 251.322 471.04 250.432C468.862 249.542 467.167 248.159 465.955 246.284C464.742 244.409 464.146 242.042 464.165 239.182V196.909ZM504.463 225.773V251H492.361V207.364H503.895V215.062H504.406C505.372 212.525 506.991 210.517 509.264 209.04C511.537 207.544 514.293 206.795 517.531 206.795C520.562 206.795 523.204 207.458 525.457 208.784C527.711 210.11 529.463 212.004 530.713 214.466C531.963 216.909 532.588 219.826 532.588 223.216V251H520.486V225.375C520.505 222.705 519.823 220.621 518.44 219.125C517.058 217.61 515.154 216.852 512.73 216.852C511.101 216.852 509.662 217.203 508.412 217.903C507.181 218.604 506.215 219.627 505.514 220.972C504.832 222.297 504.482 223.898 504.463 225.773ZM556.587 192.818L555.479 233.557H545.081L543.945 192.818H556.587ZM550.28 251.739C548.405 251.739 546.795 251.076 545.45 249.75C544.106 248.405 543.443 246.795 543.462 244.92C543.443 243.064 544.106 241.473 545.45 240.148C546.795 238.822 548.405 238.159 550.28 238.159C552.079 238.159 553.661 238.822 555.024 240.148C556.388 241.473 557.079 243.064 557.098 244.92C557.079 246.17 556.748 247.316 556.104 248.358C555.479 249.381 554.655 250.205 553.632 250.83C552.609 251.436 551.492 251.739 550.28 251.739Z" fill="#333333"/>
<path d="M95.4091 289.227L94.2045 289.568C94.1288 289.367 94.017 289.172 93.8693 288.983C93.7254 288.79 93.5284 288.631 93.2784 288.506C93.0284 288.381 92.7083 288.318 92.3182 288.318C91.7841 288.318 91.339 288.441 90.983 288.688C90.6307 288.93 90.4545 289.239 90.4545 289.614C90.4545 289.947 90.5758 290.21 90.8182 290.403C91.0606 290.597 91.4394 290.758 91.9545 290.886L93.25 291.205C94.0303 291.394 94.6117 291.684 94.9943 292.074C95.3769 292.46 95.5682 292.958 95.5682 293.568C95.5682 294.068 95.4242 294.515 95.1364 294.909C94.8523 295.303 94.4545 295.614 93.9432 295.841C93.4318 296.068 92.8371 296.182 92.1591 296.182C91.2689 296.182 90.5322 295.989 89.9489 295.602C89.3655 295.216 88.9962 294.652 88.8409 293.909L90.1136 293.591C90.2348 294.061 90.464 294.413 90.8011 294.648C91.142 294.883 91.5871 295 92.1364 295C92.7614 295 93.2576 294.867 93.625 294.602C93.9962 294.333 94.1818 294.011 94.1818 293.636C94.1818 293.333 94.0758 293.08 93.8636 292.875C93.6515 292.667 93.3258 292.511 92.8864 292.409L91.4318 292.068C90.6326 291.879 90.0455 291.585 89.6705 291.188C89.2992 290.786 89.1136 290.284 89.1136 289.682C89.1136 289.189 89.2519 288.754 89.5284 288.375C89.8087 287.996 90.1894 287.699 90.6705 287.483C91.1553 287.267 91.7045 287.159 92.3182 287.159C93.1818 287.159 93.8598 287.348 94.3523 287.727C94.8485 288.106 95.2008 288.606 95.4091 289.227ZM97.5866 296V287.273H98.9276V296H97.5866ZM98.2685 285.818C98.0071 285.818 97.7817 285.729 97.5923 285.551C97.4067 285.373 97.3139 285.159 97.3139 284.909C97.3139 284.659 97.4067 284.445 97.5923 284.267C97.7817 284.089 98.0071 284 98.2685 284C98.5298 284 98.7533 284.089 98.9389 284.267C99.1283 284.445 99.223 284.659 99.223 284.909C99.223 285.159 99.1283 285.373 98.9389 285.551C98.7533 285.729 98.5298 285.818 98.2685 285.818ZM101.134 296V294.977L106.088 288.614V288.523H101.293V287.273H107.815V288.341L102.997 294.659V294.75H107.974V296H101.134ZM113.449 296.182C112.608 296.182 111.883 295.996 111.273 295.625C110.667 295.25 110.199 294.727 109.869 294.057C109.544 293.383 109.381 292.598 109.381 291.705C109.381 290.811 109.544 290.023 109.869 289.341C110.199 288.655 110.657 288.121 111.244 287.739C111.835 287.352 112.525 287.159 113.312 287.159C113.767 287.159 114.216 287.235 114.659 287.386C115.102 287.538 115.506 287.784 115.869 288.125C116.233 288.462 116.523 288.909 116.739 289.466C116.955 290.023 117.062 290.708 117.062 291.523V292.091H110.335V290.932H115.699C115.699 290.439 115.6 290 115.403 289.614C115.21 289.227 114.934 288.922 114.574 288.699C114.218 288.475 113.797 288.364 113.312 288.364C112.778 288.364 112.316 288.496 111.926 288.761C111.54 289.023 111.242 289.364 111.034 289.784C110.826 290.205 110.722 290.655 110.722 291.136V291.909C110.722 292.568 110.835 293.127 111.062 293.585C111.294 294.04 111.614 294.386 112.023 294.625C112.432 294.86 112.907 294.977 113.449 294.977C113.801 294.977 114.119 294.928 114.403 294.83C114.691 294.727 114.939 294.576 115.148 294.375C115.356 294.17 115.517 293.917 115.631 293.614L116.926 293.977C116.79 294.417 116.561 294.803 116.239 295.136C115.917 295.466 115.519 295.723 115.045 295.909C114.572 296.091 114.04 296.182 113.449 296.182ZM120.08 296.091C119.799 296.091 119.559 295.991 119.358 295.79C119.157 295.589 119.057 295.348 119.057 295.068C119.057 294.788 119.157 294.547 119.358 294.347C119.559 294.146 119.799 294.045 120.08 294.045C120.36 294.045 120.6 294.146 120.801 294.347C121.002 294.547 121.102 294.788 121.102 295.068C121.102 295.254 121.055 295.424 120.96 295.58C120.869 295.735 120.746 295.86 120.591 295.955C120.439 296.045 120.269 296.091 120.08 296.091ZM120.08 289.614C119.799 289.614 119.559 289.513 119.358 289.312C119.157 289.112 119.057 288.871 119.057 288.591C119.057 288.311 119.157 288.07 119.358 287.869C119.559 287.669 119.799 287.568 120.08 287.568C120.36 287.568 120.6 287.669 120.801 287.869C121.002 288.07 121.102 288.311 121.102 288.591C121.102 288.777 121.055 288.947 120.96 289.102C120.869 289.258 120.746 289.383 120.591 289.477C120.439 289.568 120.269 289.614 120.08 289.614ZM131.713 296.159C130.933 296.159 130.243 296.021 129.645 295.744C129.05 295.464 128.586 295.08 128.253 294.591C127.92 294.098 127.755 293.538 127.759 292.909C127.755 292.417 127.851 291.962 128.048 291.545C128.245 291.125 128.514 290.775 128.855 290.494C129.2 290.21 129.584 290.03 130.009 289.955V289.886C129.452 289.742 129.009 289.43 128.679 288.949C128.349 288.464 128.187 287.913 128.19 287.295C128.187 286.705 128.336 286.176 128.639 285.71C128.942 285.244 129.359 284.877 129.889 284.608C130.423 284.339 131.031 284.205 131.713 284.205C132.387 284.205 132.99 284.339 133.52 284.608C134.05 284.877 134.467 285.244 134.77 285.71C135.077 286.176 135.232 286.705 135.236 287.295C135.232 287.913 135.063 288.464 134.73 288.949C134.401 289.43 133.963 289.742 133.418 289.886V289.955C133.838 290.03 134.217 290.21 134.554 290.494C134.891 290.775 135.16 291.125 135.361 291.545C135.562 291.962 135.664 292.417 135.668 292.909C135.664 293.538 135.493 294.098 135.156 294.591C134.823 295.08 134.359 295.464 133.764 295.744C133.173 296.021 132.49 296.159 131.713 296.159ZM131.713 294.909C132.24 294.909 132.694 294.824 133.077 294.653C133.459 294.483 133.755 294.242 133.963 293.932C134.171 293.621 134.277 293.258 134.281 292.841C134.277 292.402 134.164 292.013 133.94 291.676C133.717 291.339 133.412 291.074 133.026 290.881C132.643 290.687 132.205 290.591 131.713 290.591C131.217 290.591 130.774 290.687 130.384 290.881C129.997 291.074 129.692 291.339 129.469 291.676C129.249 292.013 129.141 292.402 129.145 292.841C129.141 293.258 129.241 293.621 129.446 293.932C129.654 294.242 129.952 294.483 130.338 294.653C130.724 294.824 131.183 294.909 131.713 294.909ZM131.713 289.386C132.13 289.386 132.499 289.303 132.821 289.136C133.147 288.97 133.402 288.737 133.588 288.438C133.774 288.138 133.868 287.788 133.872 287.386C133.868 286.992 133.776 286.65 133.594 286.358C133.412 286.062 133.16 285.835 132.838 285.676C132.516 285.513 132.141 285.432 131.713 285.432C131.277 285.432 130.897 285.513 130.571 285.676C130.245 285.835 129.993 286.062 129.815 286.358C129.637 286.65 129.55 286.992 129.554 287.386C129.55 287.788 129.639 288.138 129.821 288.438C130.007 288.737 130.262 288.97 130.588 289.136C130.914 289.303 131.289 289.386 131.713 289.386ZM141.641 296.159C140.785 296.159 140.055 295.926 139.453 295.46C138.851 294.991 138.391 294.311 138.072 293.42C137.754 292.527 137.595 291.447 137.595 290.182C137.595 288.924 137.754 287.85 138.072 286.96C138.394 286.066 138.857 285.384 139.459 284.915C140.065 284.441 140.792 284.205 141.641 284.205C142.489 284.205 143.214 284.441 143.817 284.915C144.423 285.384 144.885 286.066 145.203 286.96C145.525 287.85 145.686 288.924 145.686 290.182C145.686 291.447 145.527 292.527 145.209 293.42C144.891 294.311 144.43 294.991 143.828 295.46C143.226 295.926 142.497 296.159 141.641 296.159ZM141.641 294.909C142.489 294.909 143.148 294.5 143.618 293.682C144.088 292.864 144.322 291.697 144.322 290.182C144.322 289.174 144.214 288.316 143.999 287.608C143.786 286.9 143.48 286.36 143.078 285.989C142.68 285.617 142.201 285.432 141.641 285.432C140.8 285.432 140.143 285.847 139.669 286.676C139.196 287.502 138.959 288.67 138.959 290.182C138.959 291.189 139.065 292.045 139.277 292.75C139.489 293.455 139.794 293.991 140.192 294.358C140.593 294.725 141.076 294.909 141.641 294.909ZM156.482 283.818L152.732 297.75H151.504L155.254 283.818H156.482ZM163.912 284.364V296H162.571V284.364H163.912ZM171.368 290.386V291.636H166.277V290.386H171.368ZM175.068 290.75V296H173.727V284.364H175.068V288.636H175.182C175.386 288.186 175.693 287.828 176.102 287.562C176.515 287.294 177.064 287.159 177.75 287.159C178.345 287.159 178.866 287.278 179.312 287.517C179.759 287.752 180.106 288.114 180.352 288.602C180.602 289.087 180.727 289.705 180.727 290.455V296H179.386V290.545C179.386 289.852 179.206 289.316 178.847 288.938C178.491 288.555 177.996 288.364 177.364 288.364C176.924 288.364 176.53 288.456 176.182 288.642C175.837 288.828 175.564 289.098 175.364 289.455C175.167 289.811 175.068 290.242 175.068 290.75ZM186.839 296.182C185.999 296.182 185.273 295.996 184.663 295.625C184.057 295.25 183.589 294.727 183.26 294.057C182.934 293.383 182.771 292.598 182.771 291.705C182.771 290.811 182.934 290.023 183.26 289.341C183.589 288.655 184.048 288.121 184.635 287.739C185.226 287.352 185.915 287.159 186.703 287.159C187.158 287.159 187.607 287.235 188.05 287.386C188.493 287.538 188.896 287.784 189.26 288.125C189.624 288.462 189.913 288.909 190.129 289.466C190.345 290.023 190.453 290.708 190.453 291.523V292.091H183.726V290.932H189.089C189.089 290.439 188.991 290 188.794 289.614C188.601 289.227 188.324 288.922 187.964 288.699C187.608 288.475 187.188 288.364 186.703 288.364C186.169 288.364 185.707 288.496 185.317 288.761C184.93 289.023 184.633 289.364 184.425 289.784C184.216 290.205 184.112 290.655 184.112 291.136V291.909C184.112 292.568 184.226 293.127 184.453 293.585C184.684 294.04 185.004 294.386 185.413 294.625C185.822 294.86 186.298 294.977 186.839 294.977C187.192 294.977 187.51 294.928 187.794 294.83C188.082 294.727 188.33 294.576 188.538 294.375C188.747 294.17 188.908 293.917 189.021 293.614L190.317 293.977C190.18 294.417 189.951 294.803 189.629 295.136C189.307 295.466 188.91 295.723 188.436 295.909C187.963 296.091 187.43 296.182 186.839 296.182ZM192.493 296V287.273H193.834V296H192.493ZM193.175 285.818C192.913 285.818 192.688 285.729 192.499 285.551C192.313 285.373 192.22 285.159 192.22 284.909C192.22 284.659 192.313 284.445 192.499 284.267C192.688 284.089 192.913 284 193.175 284C193.436 284 193.66 284.089 193.845 284.267C194.035 284.445 194.129 284.659 194.129 284.909C194.129 285.159 194.035 285.373 193.845 285.551C193.66 285.729 193.436 285.818 193.175 285.818ZM199.812 299.455C199.165 299.455 198.608 299.371 198.142 299.205C197.676 299.042 197.288 298.826 196.977 298.557C196.67 298.292 196.426 298.008 196.244 297.705L197.312 296.955C197.434 297.114 197.587 297.295 197.773 297.5C197.958 297.708 198.212 297.888 198.534 298.04C198.86 298.195 199.286 298.273 199.812 298.273C200.517 298.273 201.098 298.102 201.557 297.761C202.015 297.42 202.244 296.886 202.244 296.159V294.386H202.131C202.032 294.545 201.892 294.742 201.71 294.977C201.532 295.208 201.275 295.415 200.938 295.597C200.604 295.775 200.153 295.864 199.585 295.864C198.881 295.864 198.248 295.697 197.688 295.364C197.131 295.03 196.689 294.545 196.364 293.909C196.042 293.273 195.881 292.5 195.881 291.591C195.881 290.697 196.038 289.919 196.352 289.256C196.667 288.589 197.104 288.074 197.665 287.71C198.225 287.343 198.873 287.159 199.608 287.159C200.176 287.159 200.627 287.254 200.96 287.443C201.297 287.629 201.555 287.841 201.733 288.08C201.915 288.314 202.055 288.508 202.153 288.659H202.29V287.273H203.585V296.25C203.585 297 203.415 297.61 203.074 298.08C202.737 298.553 202.282 298.9 201.71 299.119C201.142 299.343 200.509 299.455 199.812 299.455ZM199.767 294.659C200.305 294.659 200.759 294.536 201.131 294.29C201.502 294.044 201.784 293.689 201.977 293.227C202.17 292.765 202.267 292.212 202.267 291.568C202.267 290.939 202.172 290.384 201.983 289.903C201.794 289.422 201.513 289.045 201.142 288.773C200.771 288.5 200.313 288.364 199.767 288.364C199.199 288.364 198.725 288.508 198.347 288.795C197.972 289.083 197.689 289.47 197.5 289.955C197.314 290.439 197.222 290.977 197.222 291.568C197.222 292.174 197.316 292.71 197.506 293.176C197.699 293.638 197.983 294.002 198.358 294.267C198.737 294.528 199.206 294.659 199.767 294.659ZM207.381 290.75V296H206.04V284.364H207.381V288.636H207.494C207.699 288.186 208.006 287.828 208.415 287.562C208.828 287.294 209.377 287.159 210.062 287.159C210.657 287.159 211.178 287.278 211.625 287.517C212.072 287.752 212.419 288.114 212.665 288.602C212.915 289.087 213.04 289.705 213.04 290.455V296H211.699V290.545C211.699 289.852 211.519 289.316 211.159 288.938C210.803 288.555 210.309 288.364 209.676 288.364C209.237 288.364 208.843 288.456 208.494 288.642C208.15 288.828 207.877 289.098 207.676 289.455C207.479 289.811 207.381 290.242 207.381 290.75ZM219.288 287.273V288.409H214.766V287.273H219.288ZM216.084 285.182H217.425V293.5C217.425 293.879 217.48 294.163 217.589 294.352C217.703 294.538 217.847 294.663 218.021 294.727C218.199 294.788 218.387 294.818 218.584 294.818C218.732 294.818 218.853 294.811 218.947 294.795C219.042 294.777 219.118 294.761 219.175 294.75L219.447 295.955C219.357 295.989 219.23 296.023 219.067 296.057C218.904 296.095 218.697 296.114 218.447 296.114C218.069 296.114 217.697 296.032 217.334 295.869C216.974 295.706 216.675 295.458 216.436 295.125C216.201 294.792 216.084 294.371 216.084 293.864V285.182ZM222.283 296.091C222.002 296.091 221.762 295.991 221.561 295.79C221.36 295.589 221.26 295.348 221.26 295.068C221.26 294.788 221.36 294.547 221.561 294.347C221.762 294.146 222.002 294.045 222.283 294.045C222.563 294.045 222.804 294.146 223.004 294.347C223.205 294.547 223.305 294.788 223.305 295.068C223.305 295.254 223.258 295.424 223.163 295.58C223.072 295.735 222.949 295.86 222.794 295.955C222.643 296.045 222.472 296.091 222.283 296.091ZM222.283 289.614C222.002 289.614 221.762 289.513 221.561 289.312C221.36 289.112 221.26 288.871 221.26 288.591C221.26 288.311 221.36 288.07 221.561 287.869C221.762 287.669 222.002 287.568 222.283 287.568C222.563 287.568 222.804 287.669 223.004 287.869C223.205 288.07 223.305 288.311 223.305 288.591C223.305 288.777 223.258 288.947 223.163 289.102C223.072 289.258 222.949 289.383 222.794 289.477C222.643 289.568 222.472 289.614 222.283 289.614ZM234.28 284.364V296H232.871V285.841H232.803L229.962 287.727V286.295L232.871 284.364H234.28ZM241.422 296.159C240.566 296.159 239.837 295.926 239.234 295.46C238.632 294.991 238.172 294.311 237.854 293.42C237.536 292.527 237.376 291.447 237.376 290.182C237.376 288.924 237.536 287.85 237.854 286.96C238.176 286.066 238.638 285.384 239.24 284.915C239.846 284.441 240.573 284.205 241.422 284.205C242.27 284.205 242.996 284.441 243.598 284.915C244.204 285.384 244.666 286.066 244.984 286.96C245.306 287.85 245.467 288.924 245.467 290.182C245.467 291.447 245.308 292.527 244.99 293.42C244.672 294.311 244.212 294.991 243.609 295.46C243.007 295.926 242.278 296.159 241.422 296.159ZM241.422 294.909C242.27 294.909 242.929 294.5 243.399 293.682C243.869 292.864 244.104 291.697 244.104 290.182C244.104 289.174 243.996 288.316 243.78 287.608C243.568 286.9 243.261 286.36 242.859 285.989C242.462 285.617 241.982 285.432 241.422 285.432C240.581 285.432 239.924 285.847 239.45 286.676C238.977 287.502 238.74 288.67 238.74 290.182C238.74 291.189 238.846 292.045 239.058 292.75C239.27 293.455 239.575 293.991 239.973 294.358C240.375 294.725 240.857 294.909 241.422 294.909ZM247.354 293.614V292.455L252.467 284.364H253.308V286.159H252.74L248.876 292.273V292.364H255.763V293.614H247.354ZM252.831 296V293.261V292.722V284.364H254.172V296H252.831ZM266.528 283.818L262.778 297.75H261.551L265.301 283.818H266.528ZM273.959 284.364V296H272.618V284.364H273.959ZM281.415 290.386V291.636H276.324V290.386H281.415ZM285.751 296L283.092 287.273H284.501L286.388 293.955H286.479L288.342 287.273H289.774L291.615 293.932H291.706L293.592 287.273H295.001L292.342 296H291.024L289.115 289.295H288.979L287.07 296H285.751ZM300.136 296.182C299.295 296.182 298.57 295.996 297.96 295.625C297.354 295.25 296.886 294.727 296.557 294.057C296.231 293.383 296.068 292.598 296.068 291.705C296.068 290.811 296.231 290.023 296.557 289.341C296.886 288.655 297.345 288.121 297.932 287.739C298.523 287.352 299.212 287.159 300 287.159C300.455 287.159 300.903 287.235 301.347 287.386C301.79 287.538 302.193 287.784 302.557 288.125C302.92 288.462 303.21 288.909 303.426 289.466C303.642 290.023 303.75 290.708 303.75 291.523V292.091H297.023V290.932H302.386C302.386 290.439 302.288 290 302.091 289.614C301.898 289.227 301.621 288.922 301.261 288.699C300.905 288.475 300.485 288.364 300 288.364C299.466 288.364 299.004 288.496 298.614 288.761C298.227 289.023 297.93 289.364 297.722 289.784C297.513 290.205 297.409 290.655 297.409 291.136V291.909C297.409 292.568 297.523 293.127 297.75 293.585C297.981 294.04 298.301 294.386 298.71 294.625C299.119 294.86 299.595 294.977 300.136 294.977C300.489 294.977 300.807 294.928 301.091 294.83C301.379 294.727 301.627 294.576 301.835 294.375C302.044 294.17 302.205 293.917 302.318 293.614L303.614 293.977C303.477 294.417 303.248 294.803 302.926 295.136C302.604 295.466 302.206 295.723 301.733 295.909C301.259 296.091 300.727 296.182 300.136 296.182ZM305.79 296V287.273H307.131V296H305.79ZM306.472 285.818C306.21 285.818 305.985 285.729 305.795 285.551C305.61 285.373 305.517 285.159 305.517 284.909C305.517 284.659 305.61 284.445 305.795 284.267C305.985 284.089 306.21 284 306.472 284C306.733 284 306.956 284.089 307.142 284.267C307.331 284.445 307.426 284.659 307.426 284.909C307.426 285.159 307.331 285.373 307.142 285.551C306.956 285.729 306.733 285.818 306.472 285.818ZM313.109 299.455C312.462 299.455 311.905 299.371 311.439 299.205C310.973 299.042 310.585 298.826 310.274 298.557C309.967 298.292 309.723 298.008 309.541 297.705L310.609 296.955C310.731 297.114 310.884 297.295 311.07 297.5C311.255 297.708 311.509 297.888 311.831 298.04C312.157 298.195 312.583 298.273 313.109 298.273C313.814 298.273 314.395 298.102 314.854 297.761C315.312 297.42 315.541 296.886 315.541 296.159V294.386H315.428C315.329 294.545 315.189 294.742 315.007 294.977C314.829 295.208 314.571 295.415 314.234 295.597C313.901 295.775 313.45 295.864 312.882 295.864C312.178 295.864 311.545 295.697 310.984 295.364C310.428 295.03 309.986 294.545 309.661 293.909C309.339 293.273 309.178 292.5 309.178 291.591C309.178 290.697 309.335 289.919 309.649 289.256C309.964 288.589 310.401 288.074 310.962 287.71C311.522 287.343 312.17 287.159 312.905 287.159C313.473 287.159 313.924 287.254 314.257 287.443C314.594 287.629 314.852 287.841 315.03 288.08C315.212 288.314 315.352 288.508 315.45 288.659H315.587V287.273H316.882V296.25C316.882 297 316.712 297.61 316.371 298.08C316.034 298.553 315.579 298.9 315.007 299.119C314.439 299.343 313.806 299.455 313.109 299.455ZM313.064 294.659C313.602 294.659 314.056 294.536 314.428 294.29C314.799 294.044 315.081 293.689 315.274 293.227C315.467 292.765 315.564 292.212 315.564 291.568C315.564 290.939 315.469 290.384 315.28 289.903C315.09 289.422 314.81 289.045 314.439 288.773C314.068 288.5 313.609 288.364 313.064 288.364C312.496 288.364 312.022 288.508 311.643 288.795C311.268 289.083 310.986 289.47 310.797 289.955C310.611 290.439 310.518 290.977 310.518 291.568C310.518 292.174 310.613 292.71 310.803 293.176C310.996 293.638 311.28 294.002 311.655 294.267C312.034 294.528 312.503 294.659 313.064 294.659ZM320.678 290.75V296H319.337V284.364H320.678V288.636H320.791C320.996 288.186 321.303 287.828 321.712 287.562C322.125 287.294 322.674 287.159 323.359 287.159C323.954 287.159 324.475 287.278 324.922 287.517C325.369 287.752 325.715 288.114 325.962 288.602C326.212 289.087 326.337 289.705 326.337 290.455V296H324.996V290.545C324.996 289.852 324.816 289.316 324.456 288.938C324.1 288.555 323.606 288.364 322.973 288.364C322.534 288.364 322.14 288.456 321.791 288.642C321.446 288.828 321.174 289.098 320.973 289.455C320.776 289.811 320.678 290.242 320.678 290.75ZM332.585 287.273V288.409H328.062V287.273H332.585ZM329.381 285.182H330.722V293.5C330.722 293.879 330.777 294.163 330.886 294.352C331 294.538 331.144 294.663 331.318 294.727C331.496 294.788 331.684 294.818 331.881 294.818C332.028 294.818 332.15 294.811 332.244 294.795C332.339 294.777 332.415 294.761 332.472 294.75L332.744 295.955C332.653 295.989 332.527 296.023 332.364 296.057C332.201 296.095 331.994 296.114 331.744 296.114C331.366 296.114 330.994 296.032 330.631 295.869C330.271 295.706 329.972 295.458 329.733 295.125C329.498 294.792 329.381 294.371 329.381 293.864V285.182ZM335.58 296.091C335.299 296.091 335.059 295.991 334.858 295.79C334.657 295.589 334.557 295.348 334.557 295.068C334.557 294.788 334.657 294.547 334.858 294.347C335.059 294.146 335.299 294.045 335.58 294.045C335.86 294.045 336.1 294.146 336.301 294.347C336.502 294.547 336.602 294.788 336.602 295.068C336.602 295.254 336.555 295.424 336.46 295.58C336.369 295.735 336.246 295.86 336.091 295.955C335.939 296.045 335.769 296.091 335.58 296.091ZM335.58 289.614C335.299 289.614 335.059 289.513 334.858 289.312C334.657 289.112 334.557 288.871 334.557 288.591C334.557 288.311 334.657 288.07 334.858 287.869C335.059 287.669 335.299 287.568 335.58 287.568C335.86 287.568 336.1 287.669 336.301 287.869C336.502 288.07 336.602 288.311 336.602 288.591C336.602 288.777 336.555 288.947 336.46 289.102C336.369 289.258 336.246 289.383 336.091 289.477C335.939 289.568 335.769 289.614 335.58 289.614ZM347.418 296.159C346.668 296.159 345.999 296.03 345.412 295.773C344.829 295.515 344.365 295.157 344.02 294.699C343.679 294.237 343.493 293.701 343.463 293.091H344.895C344.925 293.466 345.054 293.79 345.281 294.062C345.509 294.331 345.806 294.54 346.173 294.688C346.541 294.835 346.948 294.909 347.395 294.909C347.895 294.909 348.338 294.822 348.724 294.648C349.111 294.473 349.414 294.231 349.634 293.92C349.853 293.61 349.963 293.25 349.963 292.841C349.963 292.413 349.857 292.036 349.645 291.71C349.433 291.381 349.122 291.123 348.713 290.938C348.304 290.752 347.804 290.659 347.213 290.659H346.281V289.409H347.213C347.675 289.409 348.08 289.326 348.429 289.159C348.781 288.992 349.056 288.758 349.253 288.455C349.454 288.152 349.554 287.795 349.554 287.386C349.554 286.992 349.467 286.65 349.293 286.358C349.118 286.066 348.872 285.839 348.554 285.676C348.24 285.513 347.868 285.432 347.44 285.432C347.039 285.432 346.66 285.506 346.304 285.653C345.952 285.797 345.664 286.008 345.44 286.284C345.217 286.557 345.096 286.886 345.077 287.273H343.713C343.736 286.663 343.92 286.129 344.264 285.67C344.609 285.208 345.06 284.848 345.616 284.591C346.177 284.333 346.793 284.205 347.463 284.205C348.183 284.205 348.8 284.35 349.315 284.642C349.83 284.93 350.226 285.311 350.503 285.784C350.779 286.258 350.918 286.769 350.918 287.318C350.918 287.973 350.745 288.532 350.401 288.994C350.06 289.456 349.596 289.777 349.009 289.955V290.045C349.743 290.167 350.317 290.479 350.73 290.983C351.143 291.483 351.349 292.102 351.349 292.841C351.349 293.473 351.177 294.042 350.832 294.545C350.491 295.045 350.026 295.439 349.435 295.727C348.844 296.015 348.171 296.159 347.418 296.159ZM357.469 296.159C356.613 296.159 355.884 295.926 355.281 295.46C354.679 294.991 354.219 294.311 353.901 293.42C353.582 292.527 353.423 291.447 353.423 290.182C353.423 288.924 353.582 287.85 353.901 286.96C354.223 286.066 354.685 285.384 355.287 284.915C355.893 284.441 356.62 284.205 357.469 284.205C358.317 284.205 359.043 284.441 359.645 284.915C360.251 285.384 360.713 286.066 361.031 286.96C361.353 287.85 361.514 288.924 361.514 290.182C361.514 291.447 361.355 292.527 361.037 293.42C360.719 294.311 360.259 294.991 359.656 295.46C359.054 295.926 358.325 296.159 357.469 296.159ZM357.469 294.909C358.317 294.909 358.976 294.5 359.446 293.682C359.916 292.864 360.151 291.697 360.151 290.182C360.151 289.174 360.043 288.316 359.827 287.608C359.615 286.9 359.308 286.36 358.906 285.989C358.509 285.617 358.029 285.432 357.469 285.432C356.628 285.432 355.971 285.847 355.497 286.676C355.024 287.502 354.787 288.67 354.787 290.182C354.787 291.189 354.893 292.045 355.105 292.75C355.317 293.455 355.622 293.991 356.02 294.358C356.421 294.725 356.904 294.909 357.469 294.909ZM367.469 296.159C366.613 296.159 365.884 295.926 365.281 295.46C364.679 294.991 364.219 294.311 363.901 293.42C363.582 292.527 363.423 291.447 363.423 290.182C363.423 288.924 363.582 287.85 363.901 286.96C364.223 286.066 364.685 285.384 365.287 284.915C365.893 284.441 366.62 284.205 367.469 284.205C368.317 284.205 369.043 284.441 369.645 284.915C370.251 285.384 370.713 286.066 371.031 286.96C371.353 287.85 371.514 288.924 371.514 290.182C371.514 291.447 371.355 292.527 371.037 293.42C370.719 294.311 370.259 294.991 369.656 295.46C369.054 295.926 368.325 296.159 367.469 296.159ZM367.469 294.909C368.317 294.909 368.976 294.5 369.446 293.682C369.916 292.864 370.151 291.697 370.151 290.182C370.151 289.174 370.043 288.316 369.827 287.608C369.615 286.9 369.308 286.36 368.906 285.989C368.509 285.617 368.029 285.432 367.469 285.432C366.628 285.432 365.971 285.847 365.497 286.676C365.024 287.502 364.787 288.67 364.787 290.182C364.787 291.189 364.893 292.045 365.105 292.75C365.317 293.455 365.622 293.991 366.02 294.358C366.421 294.725 366.904 294.909 367.469 294.909ZM382.31 283.818L378.56 297.75H377.332L381.082 283.818H382.31ZM388.399 296V287.273H389.695V288.591H389.786C389.945 288.159 390.232 287.809 390.649 287.54C391.066 287.271 391.536 287.136 392.058 287.136C392.157 287.136 392.28 287.138 392.428 287.142C392.575 287.146 392.687 287.152 392.763 287.159V288.523C392.717 288.511 392.613 288.494 392.45 288.472C392.291 288.445 392.123 288.432 391.945 288.432C391.52 288.432 391.142 288.521 390.808 288.699C390.479 288.873 390.217 289.116 390.024 289.426C389.835 289.733 389.74 290.083 389.74 290.477V296H388.399ZM398.712 290.386V291.636H393.621V290.386H398.712ZM403.048 296L400.389 287.273H401.798L403.685 293.955H403.776L405.639 287.273H407.071L408.912 293.932H409.003L410.889 287.273H412.298L409.639 296H408.321L406.412 289.295H406.276L404.366 296H403.048ZM417.433 296.182C416.592 296.182 415.867 295.996 415.257 295.625C414.651 295.25 414.183 294.727 413.854 294.057C413.528 293.383 413.365 292.598 413.365 291.705C413.365 290.811 413.528 290.023 413.854 289.341C414.183 288.655 414.642 288.121 415.229 287.739C415.82 287.352 416.509 287.159 417.297 287.159C417.751 287.159 418.2 287.235 418.643 287.386C419.087 287.538 419.49 287.784 419.854 288.125C420.217 288.462 420.507 288.909 420.723 289.466C420.939 290.023 421.047 290.708 421.047 291.523V292.091H414.32V290.932H419.683C419.683 290.439 419.585 290 419.388 289.614C419.195 289.227 418.918 288.922 418.558 288.699C418.202 288.475 417.782 288.364 417.297 288.364C416.763 288.364 416.301 288.496 415.911 288.761C415.524 289.023 415.227 289.364 415.018 289.784C414.81 290.205 414.706 290.655 414.706 291.136V291.909C414.706 292.568 414.82 293.127 415.047 293.585C415.278 294.04 415.598 294.386 416.007 294.625C416.416 294.86 416.892 294.977 417.433 294.977C417.786 294.977 418.104 294.928 418.388 294.83C418.676 294.727 418.924 294.576 419.132 294.375C419.34 294.17 419.501 293.917 419.615 293.614L420.911 293.977C420.774 294.417 420.545 294.803 420.223 295.136C419.901 295.466 419.503 295.723 419.03 295.909C418.556 296.091 418.024 296.182 417.433 296.182ZM423.087 296V287.273H424.428V296H423.087ZM423.768 285.818C423.507 285.818 423.282 285.729 423.092 285.551C422.907 285.373 422.814 285.159 422.814 284.909C422.814 284.659 422.907 284.445 423.092 284.267C423.282 284.089 423.507 284 423.768 284C424.03 284 424.253 284.089 424.439 284.267C424.628 284.445 424.723 284.659 424.723 284.909C424.723 285.159 424.628 285.373 424.439 285.551C424.253 285.729 424.03 285.818 423.768 285.818ZM430.406 299.455C429.759 299.455 429.202 299.371 428.736 299.205C428.27 299.042 427.882 298.826 427.571 298.557C427.264 298.292 427.02 298.008 426.838 297.705L427.906 296.955C428.027 297.114 428.181 297.295 428.366 297.5C428.552 297.708 428.806 297.888 429.128 298.04C429.454 298.195 429.88 298.273 430.406 298.273C431.111 298.273 431.692 298.102 432.151 297.761C432.609 297.42 432.838 296.886 432.838 296.159V294.386H432.724C432.626 294.545 432.486 294.742 432.304 294.977C432.126 295.208 431.868 295.415 431.531 295.597C431.198 295.775 430.747 295.864 430.179 295.864C429.474 295.864 428.842 295.697 428.281 295.364C427.724 295.03 427.283 294.545 426.957 293.909C426.635 293.273 426.474 292.5 426.474 291.591C426.474 290.697 426.632 289.919 426.946 289.256C427.26 288.589 427.698 288.074 428.259 287.71C428.819 287.343 429.467 287.159 430.202 287.159C430.77 287.159 431.221 287.254 431.554 287.443C431.891 287.629 432.149 287.841 432.327 288.08C432.509 288.314 432.649 288.508 432.747 288.659H432.884V287.273H434.179V296.25C434.179 297 434.009 297.61 433.668 298.08C433.33 298.553 432.876 298.9 432.304 299.119C431.736 299.343 431.103 299.455 430.406 299.455ZM430.361 294.659C430.899 294.659 431.353 294.536 431.724 294.29C432.096 294.044 432.378 293.689 432.571 293.227C432.764 292.765 432.861 292.212 432.861 291.568C432.861 290.939 432.766 290.384 432.577 289.903C432.387 289.422 432.107 289.045 431.736 288.773C431.365 288.5 430.906 288.364 430.361 288.364C429.793 288.364 429.319 288.508 428.94 288.795C428.565 289.083 428.283 289.47 428.094 289.955C427.908 290.439 427.815 290.977 427.815 291.568C427.815 292.174 427.91 292.71 428.099 293.176C428.293 293.638 428.577 294.002 428.952 294.267C429.33 294.528 429.8 294.659 430.361 294.659ZM437.974 290.75V296H436.634V284.364H437.974V288.636H438.088C438.293 288.186 438.599 287.828 439.009 287.562C439.421 287.294 439.971 287.159 440.656 287.159C441.251 287.159 441.772 287.278 442.219 287.517C442.666 287.752 443.012 288.114 443.259 288.602C443.509 289.087 443.634 289.705 443.634 290.455V296H442.293V290.545C442.293 289.852 442.113 289.316 441.753 288.938C441.397 288.555 440.902 288.364 440.27 288.364C439.83 288.364 439.437 288.456 439.088 288.642C438.743 288.828 438.471 289.098 438.27 289.455C438.073 289.811 437.974 290.242 437.974 290.75ZM449.882 287.273V288.409H445.359V287.273H449.882ZM446.678 285.182H448.018V293.5C448.018 293.879 448.073 294.163 448.183 294.352C448.297 294.538 448.441 294.663 448.615 294.727C448.793 294.788 448.981 294.818 449.178 294.818C449.325 294.818 449.446 294.811 449.541 294.795C449.636 294.777 449.712 294.761 449.768 294.75L450.041 295.955C449.95 295.989 449.823 296.023 449.661 296.057C449.498 296.095 449.291 296.114 449.041 296.114C448.662 296.114 448.291 296.032 447.928 295.869C447.568 295.706 447.268 295.458 447.03 295.125C446.795 294.792 446.678 294.371 446.678 293.864V285.182ZM452.876 296.091C452.596 296.091 452.356 295.991 452.155 295.79C451.954 295.589 451.854 295.348 451.854 295.068C451.854 294.788 451.954 294.547 452.155 294.347C452.356 294.146 452.596 294.045 452.876 294.045C453.157 294.045 453.397 294.146 453.598 294.347C453.799 294.547 453.899 294.788 453.899 295.068C453.899 295.254 453.852 295.424 453.757 295.58C453.666 295.735 453.543 295.86 453.388 295.955C453.236 296.045 453.066 296.091 452.876 296.091ZM452.876 289.614C452.596 289.614 452.356 289.513 452.155 289.312C451.954 289.112 451.854 288.871 451.854 288.591C451.854 288.311 451.954 288.07 452.155 287.869C452.356 287.669 452.596 287.568 452.876 287.568C453.157 287.568 453.397 287.669 453.598 287.869C453.799 288.07 453.899 288.311 453.899 288.591C453.899 288.777 453.852 288.947 453.757 289.102C453.666 289.258 453.543 289.383 453.388 289.477C453.236 289.568 453.066 289.614 452.876 289.614ZM460.51 293.614V292.455L465.624 284.364H466.464V286.159H465.896L462.033 292.273V292.364H468.919V293.614H460.51ZM465.987 296V293.261V292.722V284.364H467.328V296H465.987ZM474.844 296.159C473.988 296.159 473.259 295.926 472.656 295.46C472.054 294.991 471.594 294.311 471.276 293.42C470.957 292.527 470.798 291.447 470.798 290.182C470.798 288.924 470.957 287.85 471.276 286.96C471.598 286.066 472.06 285.384 472.662 284.915C473.268 284.441 473.995 284.205 474.844 284.205C475.692 284.205 476.418 284.441 477.02 284.915C477.626 285.384 478.088 286.066 478.406 286.96C478.728 287.85 478.889 288.924 478.889 290.182C478.889 291.447 478.73 292.527 478.412 293.42C478.094 294.311 477.634 294.991 477.031 295.46C476.429 295.926 475.7 296.159 474.844 296.159ZM474.844 294.909C475.692 294.909 476.351 294.5 476.821 293.682C477.291 292.864 477.526 291.697 477.526 290.182C477.526 289.174 477.418 288.316 477.202 287.608C476.99 286.9 476.683 286.36 476.281 285.989C475.884 285.617 475.404 285.432 474.844 285.432C474.003 285.432 473.346 285.847 472.872 286.676C472.399 287.502 472.162 288.67 472.162 290.182C472.162 291.189 472.268 292.045 472.48 292.75C472.692 293.455 472.997 293.991 473.395 294.358C473.796 294.725 474.279 294.909 474.844 294.909ZM484.844 296.159C483.988 296.159 483.259 295.926 482.656 295.46C482.054 294.991 481.594 294.311 481.276 293.42C480.957 292.527 480.798 291.447 480.798 290.182C480.798 288.924 480.957 287.85 481.276 286.96C481.598 286.066 482.06 285.384 482.662 284.915C483.268 284.441 483.995 284.205 484.844 284.205C485.692 284.205 486.418 284.441 487.02 284.915C487.626 285.384 488.088 286.066 488.406 286.96C488.728 287.85 488.889 288.924 488.889 290.182C488.889 291.447 488.73 292.527 488.412 293.42C488.094 294.311 487.634 294.991 487.031 295.46C486.429 295.926 485.7 296.159 484.844 296.159ZM484.844 294.909C485.692 294.909 486.351 294.5 486.821 293.682C487.291 292.864 487.526 291.697 487.526 290.182C487.526 289.174 487.418 288.316 487.202 287.608C486.99 286.9 486.683 286.36 486.281 285.989C485.884 285.617 485.404 285.432 484.844 285.432C484.003 285.432 483.346 285.847 482.872 286.676C482.399 287.502 482.162 288.67 482.162 290.182C482.162 291.189 482.268 292.045 482.48 292.75C482.692 293.455 482.997 293.991 483.395 294.358C483.796 294.725 484.279 294.909 484.844 294.909ZM499.685 283.818L495.935 297.75H494.707L498.457 283.818H499.685ZM505.774 296V287.273H507.07V288.636H507.183C507.365 288.17 507.659 287.809 508.064 287.551C508.469 287.29 508.956 287.159 509.524 287.159C510.1 287.159 510.579 287.29 510.962 287.551C511.348 287.809 511.649 288.17 511.865 288.636H511.956C512.179 288.186 512.515 287.828 512.962 287.562C513.409 287.294 513.945 287.159 514.57 287.159C515.35 287.159 515.988 287.403 516.484 287.892C516.981 288.377 517.229 289.133 517.229 290.159V296H515.888V290.159C515.888 289.515 515.712 289.055 515.359 288.778C515.007 288.502 514.592 288.364 514.115 288.364C513.501 288.364 513.026 288.549 512.689 288.92C512.352 289.288 512.183 289.754 512.183 290.318V296H510.82V290.023C510.82 289.527 510.659 289.127 510.337 288.824C510.015 288.517 509.6 288.364 509.092 288.364C508.744 288.364 508.418 288.456 508.115 288.642C507.816 288.828 507.573 289.085 507.388 289.415C507.206 289.741 507.115 290.117 507.115 290.545V296H505.774ZM524.68 290.386V291.636H519.589V290.386H524.68ZM529.017 296L526.358 287.273H527.767L529.653 293.955H529.744L531.608 287.273H533.04L534.881 293.932H534.972L536.858 287.273H538.267L535.608 296H534.29L532.381 289.295H532.244L530.335 296H529.017ZM543.402 296.182C542.561 296.182 541.836 295.996 541.226 295.625C540.62 295.25 540.152 294.727 539.822 294.057C539.497 293.383 539.334 292.598 539.334 291.705C539.334 290.811 539.497 290.023 539.822 289.341C540.152 288.655 540.61 288.121 541.197 287.739C541.788 287.352 542.478 287.159 543.266 287.159C543.72 287.159 544.169 287.235 544.612 287.386C545.055 287.538 545.459 287.784 545.822 288.125C546.186 288.462 546.476 288.909 546.692 289.466C546.908 290.023 547.016 290.708 547.016 291.523V292.091H540.288V290.932H545.652C545.652 290.439 545.554 290 545.357 289.614C545.163 289.227 544.887 288.922 544.527 288.699C544.171 288.475 543.75 288.364 543.266 288.364C542.732 288.364 542.269 288.496 541.879 288.761C541.493 289.023 541.196 289.364 540.987 289.784C540.779 290.205 540.675 290.655 540.675 291.136V291.909C540.675 292.568 540.788 293.127 541.016 293.585C541.247 294.04 541.567 294.386 541.976 294.625C542.385 294.86 542.86 294.977 543.402 294.977C543.754 294.977 544.072 294.928 544.357 294.83C544.644 294.727 544.893 294.576 545.101 294.375C545.309 294.17 545.47 293.917 545.584 293.614L546.879 293.977C546.743 294.417 546.514 294.803 546.192 295.136C545.87 295.466 545.472 295.723 544.999 295.909C544.525 296.091 543.993 296.182 543.402 296.182ZM549.055 296V287.273H550.396V296H549.055ZM549.737 285.818C549.476 285.818 549.25 285.729 549.061 285.551C548.875 285.373 548.783 285.159 548.783 284.909C548.783 284.659 548.875 284.445 549.061 284.267C549.25 284.089 549.476 284 549.737 284C549.999 284 550.222 284.089 550.408 284.267C550.597 284.445 550.692 284.659 550.692 284.909C550.692 285.159 550.597 285.373 550.408 285.551C550.222 285.729 549.999 285.818 549.737 285.818ZM556.375 299.455C555.727 299.455 555.17 299.371 554.705 299.205C554.239 299.042 553.85 298.826 553.54 298.557C553.233 298.292 552.989 298.008 552.807 297.705L553.875 296.955C553.996 297.114 554.15 297.295 554.335 297.5C554.521 297.708 554.775 297.888 555.097 298.04C555.422 298.195 555.848 298.273 556.375 298.273C557.08 298.273 557.661 298.102 558.119 297.761C558.578 297.42 558.807 296.886 558.807 296.159V294.386H558.693C558.595 294.545 558.455 294.742 558.273 294.977C558.095 295.208 557.837 295.415 557.5 295.597C557.167 295.775 556.716 295.864 556.148 295.864C555.443 295.864 554.811 295.697 554.25 295.364C553.693 295.03 553.252 294.545 552.926 293.909C552.604 293.273 552.443 292.5 552.443 291.591C552.443 290.697 552.6 289.919 552.915 289.256C553.229 288.589 553.667 288.074 554.227 287.71C554.788 287.343 555.436 287.159 556.17 287.159C556.739 287.159 557.189 287.254 557.523 287.443C557.86 287.629 558.117 287.841 558.295 288.08C558.477 288.314 558.617 288.508 558.716 288.659H558.852V287.273H560.148V296.25C560.148 297 559.977 297.61 559.636 298.08C559.299 298.553 558.845 298.9 558.273 299.119C557.705 299.343 557.072 299.455 556.375 299.455ZM556.33 294.659C556.867 294.659 557.322 294.536 557.693 294.29C558.064 294.044 558.347 293.689 558.54 293.227C558.733 292.765 558.83 292.212 558.83 291.568C558.83 290.939 558.735 290.384 558.545 289.903C558.356 289.422 558.076 289.045 557.705 288.773C557.333 288.5 556.875 288.364 556.33 288.364C555.761 288.364 555.288 288.508 554.909 288.795C554.534 289.083 554.252 289.47 554.062 289.955C553.877 290.439 553.784 290.977 553.784 291.568C553.784 292.174 553.879 292.71 554.068 293.176C554.261 293.638 554.545 294.002 554.92 294.267C555.299 294.528 555.769 294.659 556.33 294.659ZM563.943 290.75V296H562.602V284.364H563.943V288.636H564.057C564.261 288.186 564.568 287.828 564.977 287.562C565.39 287.294 565.939 287.159 566.625 287.159C567.22 287.159 567.741 287.278 568.188 287.517C568.634 287.752 568.981 288.114 569.227 288.602C569.477 289.087 569.602 289.705 569.602 290.455V296H568.261V290.545C568.261 289.852 568.081 289.316 567.722 288.938C567.366 288.555 566.871 288.364 566.239 288.364C565.799 288.364 565.405 288.456 565.057 288.642C564.712 288.828 564.439 289.098 564.239 289.455C564.042 289.811 563.943 290.242 563.943 290.75ZM575.851 287.273V288.409H571.328V287.273H575.851ZM572.646 285.182H573.987V293.5C573.987 293.879 574.042 294.163 574.152 294.352C574.266 294.538 574.41 294.663 574.584 294.727C574.762 294.788 574.949 294.818 575.146 294.818C575.294 294.818 575.415 294.811 575.51 294.795C575.605 294.777 575.68 294.761 575.737 294.75L576.01 295.955C575.919 295.989 575.792 296.023 575.629 296.057C575.466 296.095 575.26 296.114 575.01 296.114C574.631 296.114 574.26 296.032 573.896 295.869C573.536 295.706 573.237 295.458 572.999 295.125C572.764 294.792 572.646 294.371 572.646 293.864V285.182ZM578.845 296.091C578.565 296.091 578.324 295.991 578.124 295.79C577.923 295.589 577.822 295.348 577.822 295.068C577.822 294.788 577.923 294.547 578.124 294.347C578.324 294.146 578.565 294.045 578.845 294.045C579.125 294.045 579.366 294.146 579.567 294.347C579.768 294.547 579.868 294.788 579.868 295.068C579.868 295.254 579.821 295.424 579.726 295.58C579.635 295.735 579.512 295.86 579.357 295.955C579.205 296.045 579.035 296.091 578.845 296.091ZM578.845 289.614C578.565 289.614 578.324 289.513 578.124 289.312C577.923 289.112 577.822 288.871 577.822 288.591C577.822 288.311 577.923 288.07 578.124 287.869C578.324 287.669 578.565 287.568 578.845 287.568C579.125 287.568 579.366 287.669 579.567 287.869C579.768 288.07 579.868 288.311 579.868 288.591C579.868 288.777 579.821 288.947 579.726 289.102C579.635 289.258 579.512 289.383 579.357 289.477C579.205 289.568 579.035 289.614 578.845 289.614ZM590.388 296.159C589.721 296.159 589.121 296.027 588.587 295.761C588.053 295.496 587.625 295.133 587.303 294.67C586.981 294.208 586.804 293.682 586.774 293.091H588.138C588.191 293.617 588.429 294.053 588.854 294.398C589.282 294.739 589.793 294.909 590.388 294.909C590.865 294.909 591.289 294.797 591.661 294.574C592.036 294.35 592.329 294.044 592.541 293.653C592.757 293.259 592.865 292.814 592.865 292.318C592.865 291.811 592.753 291.358 592.53 290.96C592.31 290.559 592.007 290.242 591.621 290.011C591.234 289.78 590.793 289.663 590.297 289.659C589.941 289.655 589.575 289.71 589.2 289.824C588.825 289.934 588.517 290.076 588.274 290.25L586.956 290.091L587.661 284.364H593.706V285.614H588.842L588.433 289.045H588.501C588.74 288.856 589.039 288.699 589.399 288.574C589.759 288.449 590.134 288.386 590.524 288.386C591.236 288.386 591.871 288.557 592.428 288.898C592.988 289.235 593.428 289.697 593.746 290.284C594.068 290.871 594.229 291.542 594.229 292.295C594.229 293.038 594.062 293.701 593.729 294.284C593.399 294.864 592.945 295.322 592.365 295.659C591.786 295.992 591.126 296.159 590.388 296.159ZM600.281 296.159C599.425 296.159 598.696 295.926 598.094 295.46C597.491 294.991 597.031 294.311 596.713 293.42C596.395 292.527 596.236 291.447 596.236 290.182C596.236 288.924 596.395 287.85 596.713 286.96C597.035 286.066 597.497 285.384 598.099 284.915C598.705 284.441 599.433 284.205 600.281 284.205C601.13 284.205 601.855 284.441 602.457 284.915C603.063 285.384 603.526 286.066 603.844 286.96C604.166 287.85 604.327 288.924 604.327 290.182C604.327 291.447 604.168 292.527 603.849 293.42C603.531 294.311 603.071 294.991 602.469 295.46C601.866 295.926 601.137 296.159 600.281 296.159ZM600.281 294.909C601.13 294.909 601.789 294.5 602.259 293.682C602.728 292.864 602.963 291.697 602.963 290.182C602.963 289.174 602.855 288.316 602.639 287.608C602.427 286.9 602.12 286.36 601.719 285.989C601.321 285.617 600.842 285.432 600.281 285.432C599.44 285.432 598.783 285.847 598.31 286.676C597.836 287.502 597.599 288.67 597.599 290.182C597.599 291.189 597.705 292.045 597.918 292.75C598.13 293.455 598.435 293.991 598.832 294.358C599.234 294.725 599.717 294.909 600.281 294.909ZM610.281 296.159C609.425 296.159 608.696 295.926 608.094 295.46C607.491 294.991 607.031 294.311 606.713 293.42C606.395 292.527 606.236 291.447 606.236 290.182C606.236 288.924 606.395 287.85 606.713 286.96C607.035 286.066 607.497 285.384 608.099 284.915C608.705 284.441 609.433 284.205 610.281 284.205C611.13 284.205 611.855 284.441 612.457 284.915C613.063 285.384 613.526 286.066 613.844 286.96C614.166 287.85 614.327 288.924 614.327 290.182C614.327 291.447 614.168 292.527 613.849 293.42C613.531 294.311 613.071 294.991 612.469 295.46C611.866 295.926 611.137 296.159 610.281 296.159ZM610.281 294.909C611.13 294.909 611.789 294.5 612.259 293.682C612.728 292.864 612.963 291.697 612.963 290.182C612.963 289.174 612.855 288.316 612.639 287.608C612.427 286.9 612.12 286.36 611.719 285.989C611.321 285.617 610.842 285.432 610.281 285.432C609.44 285.432 608.783 285.847 608.31 286.676C607.836 287.502 607.599 288.67 607.599 290.182C607.599 291.189 607.705 292.045 607.918 292.75C608.13 293.455 608.435 293.991 608.832 294.358C609.234 294.725 609.717 294.909 610.281 294.909ZM625.122 283.818L621.372 297.75H620.145L623.895 283.818H625.122ZM631.393 296V284.364H632.734V288.659H632.848C632.946 288.508 633.083 288.314 633.257 288.08C633.435 287.841 633.689 287.629 634.018 287.443C634.352 287.254 634.803 287.159 635.371 287.159C636.106 287.159 636.753 287.343 637.314 287.71C637.875 288.078 638.312 288.598 638.626 289.273C638.941 289.947 639.098 290.742 639.098 291.659C639.098 292.583 638.941 293.384 638.626 294.062C638.312 294.737 637.876 295.259 637.32 295.631C636.763 295.998 636.121 296.182 635.393 296.182C634.833 296.182 634.384 296.089 634.047 295.903C633.71 295.714 633.45 295.5 633.268 295.261C633.087 295.019 632.946 294.818 632.848 294.659H632.689V296H631.393ZM632.712 291.636C632.712 292.295 632.808 292.877 633.001 293.381C633.195 293.881 633.477 294.273 633.848 294.557C634.219 294.837 634.674 294.977 635.212 294.977C635.772 294.977 636.24 294.83 636.615 294.534C636.994 294.235 637.278 293.833 637.467 293.33C637.661 292.822 637.757 292.258 637.757 291.636C637.757 291.023 637.662 290.47 637.473 289.977C637.287 289.481 637.005 289.089 636.626 288.801C636.251 288.509 635.78 288.364 635.212 288.364C634.666 288.364 634.208 288.502 633.837 288.778C633.465 289.051 633.185 289.434 632.996 289.926C632.806 290.415 632.712 290.985 632.712 291.636ZM646.149 290.386V291.636H641.058V290.386H646.149ZM650.486 296L647.827 287.273H649.236L651.122 293.955H651.213L653.077 287.273H654.509L656.349 293.932H656.44L658.327 287.273H659.736L657.077 296H655.759L653.849 289.295H653.713L651.804 296H650.486ZM664.871 296.182C664.03 296.182 663.304 295.996 662.695 295.625C662.089 295.25 661.621 294.727 661.291 294.057C660.965 293.383 660.803 292.598 660.803 291.705C660.803 290.811 660.965 290.023 661.291 289.341C661.621 288.655 662.079 288.121 662.666 287.739C663.257 287.352 663.946 287.159 664.734 287.159C665.189 287.159 665.638 287.235 666.081 287.386C666.524 287.538 666.928 287.784 667.291 288.125C667.655 288.462 667.945 288.909 668.161 289.466C668.376 290.023 668.484 290.708 668.484 291.523V292.091H661.757V290.932H667.121C667.121 290.439 667.022 290 666.825 289.614C666.632 289.227 666.356 288.922 665.996 288.699C665.64 288.475 665.219 288.364 664.734 288.364C664.2 288.364 663.738 288.496 663.348 288.761C662.962 289.023 662.664 289.364 662.456 289.784C662.248 290.205 662.143 290.655 662.143 291.136V291.909C662.143 292.568 662.257 293.127 662.484 293.585C662.715 294.04 663.036 294.386 663.445 294.625C663.854 294.86 664.329 294.977 664.871 294.977C665.223 294.977 665.541 294.928 665.825 294.83C666.113 294.727 666.361 294.576 666.57 294.375C666.778 294.17 666.939 293.917 667.053 293.614L668.348 293.977C668.212 294.417 667.982 294.803 667.661 295.136C667.339 295.466 666.941 295.723 666.467 295.909C665.994 296.091 665.462 296.182 664.871 296.182ZM670.524 296V287.273H671.865V296H670.524ZM671.206 285.818C670.945 285.818 670.719 285.729 670.53 285.551C670.344 285.373 670.251 285.159 670.251 284.909C670.251 284.659 670.344 284.445 670.53 284.267C670.719 284.089 670.945 284 671.206 284C671.467 284 671.691 284.089 671.876 284.267C672.066 284.445 672.161 284.659 672.161 284.909C672.161 285.159 672.066 285.373 671.876 285.551C671.691 285.729 671.467 285.818 671.206 285.818ZM677.844 299.455C677.196 299.455 676.639 299.371 676.173 299.205C675.707 299.042 675.319 298.826 675.009 298.557C674.702 298.292 674.457 298.008 674.276 297.705L675.344 296.955C675.465 297.114 675.618 297.295 675.804 297.5C675.99 297.708 676.243 297.888 676.565 298.04C676.891 298.195 677.317 298.273 677.844 298.273C678.548 298.273 679.13 298.102 679.588 297.761C680.046 297.42 680.276 296.886 680.276 296.159V294.386H680.162C680.063 294.545 679.923 294.742 679.741 294.977C679.563 295.208 679.306 295.415 678.969 295.597C678.635 295.775 678.185 295.864 677.616 295.864C676.912 295.864 676.279 295.697 675.719 295.364C675.162 295.03 674.721 294.545 674.395 293.909C674.073 293.273 673.912 292.5 673.912 291.591C673.912 290.697 674.069 289.919 674.384 289.256C674.698 288.589 675.135 288.074 675.696 287.71C676.257 287.343 676.904 287.159 677.639 287.159C678.207 287.159 678.658 287.254 678.991 287.443C679.329 287.629 679.586 287.841 679.764 288.08C679.946 288.314 680.086 288.508 680.185 288.659H680.321V287.273H681.616V296.25C681.616 297 681.446 297.61 681.105 298.08C680.768 298.553 680.313 298.9 679.741 299.119C679.173 299.343 678.541 299.455 677.844 299.455ZM677.798 294.659C678.336 294.659 678.791 294.536 679.162 294.29C679.533 294.044 679.815 293.689 680.009 293.227C680.202 292.765 680.298 292.212 680.298 291.568C680.298 290.939 680.204 290.384 680.014 289.903C679.825 289.422 679.545 289.045 679.173 288.773C678.802 288.5 678.344 288.364 677.798 288.364C677.23 288.364 676.757 288.508 676.378 288.795C676.003 289.083 675.721 289.47 675.531 289.955C675.346 290.439 675.253 290.977 675.253 291.568C675.253 292.174 675.348 292.71 675.537 293.176C675.73 293.638 676.014 294.002 676.389 294.267C676.768 294.528 677.238 294.659 677.798 294.659ZM685.412 290.75V296H684.071V284.364H685.412V288.636H685.526C685.73 288.186 686.037 287.828 686.446 287.562C686.859 287.294 687.408 287.159 688.094 287.159C688.688 287.159 689.209 287.278 689.656 287.517C690.103 287.752 690.45 288.114 690.696 288.602C690.946 289.087 691.071 289.705 691.071 290.455V296H689.73V290.545C689.73 289.852 689.55 289.316 689.19 288.938C688.834 288.555 688.34 288.364 687.707 288.364C687.268 288.364 686.874 288.456 686.526 288.642C686.181 288.828 685.908 289.098 685.707 289.455C685.51 289.811 685.412 290.242 685.412 290.75ZM697.32 287.273V288.409H692.797V287.273H697.32ZM694.115 285.182H695.456V293.5C695.456 293.879 695.511 294.163 695.621 294.352C695.734 294.538 695.878 294.663 696.053 294.727C696.231 294.788 696.418 294.818 696.615 294.818C696.763 294.818 696.884 294.811 696.979 294.795C697.073 294.777 697.149 294.761 697.206 294.75L697.479 295.955C697.388 295.989 697.261 296.023 697.098 296.057C696.935 296.095 696.729 296.114 696.479 296.114C696.1 296.114 695.729 296.032 695.365 295.869C695.005 295.706 694.706 295.458 694.467 295.125C694.232 294.792 694.115 294.371 694.115 293.864V285.182ZM700.314 296.091C700.034 296.091 699.793 295.991 699.592 295.79C699.392 295.589 699.291 295.348 699.291 295.068C699.291 294.788 699.392 294.547 699.592 294.347C699.793 294.146 700.034 294.045 700.314 294.045C700.594 294.045 700.835 294.146 701.036 294.347C701.236 294.547 701.337 294.788 701.337 295.068C701.337 295.254 701.289 295.424 701.195 295.58C701.104 295.735 700.981 295.86 700.825 295.955C700.674 296.045 700.503 296.091 700.314 296.091ZM700.314 289.614C700.034 289.614 699.793 289.513 699.592 289.312C699.392 289.112 699.291 288.871 699.291 288.591C699.291 288.311 699.392 288.07 699.592 287.869C699.793 287.669 700.034 287.568 700.314 287.568C700.594 287.568 700.835 287.669 701.036 287.869C701.236 288.07 701.337 288.311 701.337 288.591C701.337 288.777 701.289 288.947 701.195 289.102C701.104 289.258 700.981 289.383 700.825 289.477C700.674 289.568 700.503 289.614 700.314 289.614ZM708.584 296L713.788 285.705V285.614H707.788V284.364H715.243V285.682L710.061 296H708.584ZM720.906 296.159C720.05 296.159 719.321 295.926 718.719 295.46C718.116 294.991 717.656 294.311 717.338 293.42C717.02 292.527 716.861 291.447 716.861 290.182C716.861 288.924 717.02 287.85 717.338 286.96C717.66 286.066 718.122 285.384 718.724 284.915C719.33 284.441 720.058 284.205 720.906 284.205C721.755 284.205 722.48 284.441 723.082 284.915C723.688 285.384 724.151 286.066 724.469 286.96C724.791 287.85 724.952 288.924 724.952 290.182C724.952 291.447 724.793 292.527 724.474 293.42C724.156 294.311 723.696 294.991 723.094 295.46C722.491 295.926 721.762 296.159 720.906 296.159ZM720.906 294.909C721.755 294.909 722.414 294.5 722.884 293.682C723.353 292.864 723.588 291.697 723.588 290.182C723.588 289.174 723.48 288.316 723.264 287.608C723.052 286.9 722.745 286.36 722.344 285.989C721.946 285.617 721.467 285.432 720.906 285.432C720.065 285.432 719.408 285.847 718.935 286.676C718.461 287.502 718.224 288.67 718.224 290.182C718.224 291.189 718.33 292.045 718.543 292.75C718.755 293.455 719.06 293.991 719.457 294.358C719.859 294.725 720.342 294.909 720.906 294.909ZM730.906 296.159C730.05 296.159 729.321 295.926 728.719 295.46C728.116 294.991 727.656 294.311 727.338 293.42C727.02 292.527 726.861 291.447 726.861 290.182C726.861 288.924 727.02 287.85 727.338 286.96C727.66 286.066 728.122 285.384 728.724 284.915C729.33 284.441 730.058 284.205 730.906 284.205C731.755 284.205 732.48 284.441 733.082 284.915C733.688 285.384 734.151 286.066 734.469 286.96C734.791 287.85 734.952 288.924 734.952 290.182C734.952 291.447 734.793 292.527 734.474 293.42C734.156 294.311 733.696 294.991 733.094 295.46C732.491 295.926 731.762 296.159 730.906 296.159ZM730.906 294.909C731.755 294.909 732.414 294.5 732.884 293.682C733.353 292.864 733.588 291.697 733.588 290.182C733.588 289.174 733.48 288.316 733.264 287.608C733.052 286.9 732.745 286.36 732.344 285.989C731.946 285.617 731.467 285.432 730.906 285.432C730.065 285.432 729.408 285.847 728.935 286.676C728.461 287.502 728.224 288.67 728.224 290.182C728.224 291.189 728.33 292.045 728.543 292.75C728.755 293.455 729.06 293.991 729.457 294.358C729.859 294.725 730.342 294.909 730.906 294.909Z" fill="#707070"/>
<rect x="0.5" y="0.5" width="1159" height="337" rx="7.5" stroke="#333333"/>
</svg>
