<svg width="1160" height="608" viewBox="0 0 1160 608" fill="none" xmlns="http://www.w3.org/2000/svg">
<path d="M5.6 83V25.4H14.28L34.2 66.2L54.12 25.4H62.8V83H53.8V46.08L36.12 83H32.28L14.64 46.08V83H5.6ZM86.1175 84.2C82.9975 84.2 80.3575 83.6133 78.1975 82.44C76.0375 81.24 74.3975 79.6533 73.2775 77.68C72.1842 75.7067 71.6375 73.5333 71.6375 71.16C71.6375 69.08 71.9842 67.2133 72.6775 65.56C73.3708 63.88 74.4375 62.44 75.8775 61.24C77.3175 60.0133 79.1842 59.0133 81.4775 58.24C83.2108 57.68 85.2375 57.1733 87.5575 56.72C89.9042 56.2667 92.4375 55.8533 95.1575 55.48C97.9042 55.08 100.771 54.6533 103.758 54.2L100.318 56.16C100.344 53.1733 99.6775 50.9733 98.3175 49.56C96.9575 48.1467 94.6642 47.44 91.4375 47.44C89.4908 47.44 87.6108 47.8933 85.7975 48.8C83.9842 49.7067 82.7175 51.2667 81.9975 53.48L73.1975 50.72C74.2642 47.0667 76.2908 44.1333 79.2775 41.92C82.2908 39.7067 86.3442 38.6 91.4375 38.6C95.2775 38.6 98.6508 39.2267 101.558 40.48C104.491 41.7333 106.664 43.7867 108.078 46.64C108.851 48.16 109.318 49.72 109.478 51.32C109.638 52.8933 109.718 54.6133 109.718 56.48V83H101.278V73.64L102.678 75.16C100.731 78.28 98.4508 80.5733 95.8375 82.04C93.2508 83.48 90.0108 84.2 86.1175 84.2ZM88.0375 76.52C90.2242 76.52 92.0908 76.1333 93.6375 75.36C95.1842 74.5867 96.4108 73.64 97.3175 72.52C98.2508 71.4 98.8775 70.3467 99.1975 69.36C99.7042 68.1333 99.9842 66.7333 100.038 65.16C100.118 63.56 100.158 62.2667 100.158 61.28L103.118 62.16C100.211 62.6133 97.7175 63.0133 95.6375 63.36C93.5575 63.7067 91.7708 64.04 90.2775 64.36C88.7842 64.6533 87.4642 64.9867 86.3175 65.36C85.1975 65.76 84.2508 66.2267 83.4775 66.76C82.7042 67.2933 82.1042 67.9067 81.6775 68.6C81.2775 69.2933 81.0775 70.1067 81.0775 71.04C81.0775 72.1067 81.3442 73.0533 81.8775 73.88C82.4108 74.68 83.1842 75.32 84.1975 75.8C85.2375 76.28 86.5175 76.52 88.0375 76.52ZM150.011 83V62.2C150.011 60.84 149.918 59.3333 149.731 57.68C149.545 56.0267 149.105 54.44 148.411 52.92C147.745 51.3733 146.731 50.1067 145.371 49.12C144.038 48.1333 142.225 47.64 139.931 47.64C138.705 47.64 137.491 47.84 136.291 48.24C135.091 48.64 133.998 49.3333 133.011 50.32C132.051 51.28 131.278 52.6133 130.691 54.32C130.105 56 129.811 58.16 129.811 60.8L124.091 58.36C124.091 54.68 124.798 51.3467 126.211 48.36C127.651 45.3733 129.758 43 132.531 41.24C135.305 39.4533 138.718 38.56 142.771 38.56C145.971 38.56 148.611 39.0933 150.691 40.16C152.771 41.2267 154.425 42.5867 155.651 44.24C156.878 45.8933 157.785 47.6533 158.371 49.52C158.958 51.3867 159.331 53.16 159.491 54.84C159.678 56.4933 159.771 57.84 159.771 58.88V83H150.011ZM120.051 83V39.8H128.651V53.2H129.811V83H120.051ZM170.209 83V39.8H178.729V50.32L177.689 48.96C178.223 47.52 178.929 46.2133 179.809 45.04C180.716 43.84 181.796 42.8533 183.049 42.08C184.116 41.36 185.289 40.8 186.569 40.4C187.876 39.9733 189.209 39.72 190.569 39.64C191.929 39.5333 193.249 39.5867 194.529 39.8V48.8C193.249 48.4267 191.769 48.3067 190.089 48.44C188.436 48.5733 186.943 49.04 185.609 49.84C184.276 50.56 183.183 51.48 182.329 52.6C181.503 53.72 180.889 55 180.489 56.44C180.089 57.8533 179.889 59.3867 179.889 61.04V83H170.209ZM220.461 84.2C216.141 84.2 212.368 83.2267 209.141 81.28C205.915 79.3333 203.408 76.6533 201.621 73.24C199.861 69.8 198.981 65.8533 198.981 61.4C198.981 56.8667 199.888 52.8933 201.701 49.48C203.515 46.0667 206.035 43.4 209.261 41.48C212.488 39.56 216.221 38.6 220.461 38.6C224.808 38.6 228.595 39.5733 231.821 41.52C235.048 43.4667 237.555 46.16 239.341 49.6C241.128 53.0133 242.021 56.9467 242.021 61.4C242.021 65.88 241.115 69.84 239.301 73.28C237.515 76.6933 235.008 79.3733 231.781 81.32C228.555 83.24 224.781 84.2 220.461 84.2ZM220.461 75.16C224.301 75.16 227.155 73.88 229.021 71.32C230.888 68.76 231.821 65.4533 231.821 61.4C231.821 57.2133 230.875 53.88 228.981 51.4C227.088 48.8933 224.248 47.64 220.461 47.64C217.875 47.64 215.741 48.2267 214.061 49.4C212.408 50.5467 211.181 52.16 210.381 54.24C209.581 56.2933 209.181 58.68 209.181 61.4C209.181 65.5867 210.128 68.9333 212.021 71.44C213.941 73.92 216.755 75.16 220.461 75.16ZM271.594 84.2C267.381 84.2 263.848 83.2 260.994 81.2C258.141 79.2 255.994 76.48 254.554 73.04C253.114 69.5733 252.394 65.6933 252.394 61.4C252.394 57.0533 253.114 53.16 254.554 49.72C255.994 46.28 258.101 43.5733 260.874 41.6C263.674 39.6 267.128 38.6 271.234 38.6C275.314 38.6 278.848 39.6 281.834 41.6C284.848 43.5733 287.181 46.28 288.834 49.72C290.488 53.1333 291.314 57.0267 291.314 61.4C291.314 65.72 290.501 69.6 288.874 73.04C287.248 76.48 284.954 79.2 281.994 81.2C279.034 83.2 275.568 84.2 271.594 84.2ZM250.754 102.2V39.8H259.274V70.12H260.474V102.2H250.754ZM270.114 75.56C272.621 75.56 274.688 74.9333 276.314 73.68C277.941 72.4267 279.141 70.7333 279.914 68.6C280.714 66.44 281.114 64.04 281.114 61.4C281.114 58.7867 280.714 56.4133 279.914 54.28C279.114 52.12 277.874 50.4133 276.194 49.16C274.514 47.88 272.381 47.24 269.794 47.24C267.341 47.24 265.341 47.84 263.794 49.04C262.248 50.2133 261.101 51.8667 260.354 54C259.634 56.1067 259.274 58.5733 259.274 61.4C259.274 64.2 259.634 66.6667 260.354 68.8C261.101 70.9333 262.261 72.6 263.834 73.8C265.434 74.9733 267.528 75.56 270.114 75.56ZM319.771 84.2C315.398 84.2 311.558 83.2533 308.251 81.36C304.945 79.4667 302.358 76.84 300.491 73.48C298.651 70.12 297.731 66.2533 297.731 61.88C297.731 57.16 298.638 53.0667 300.451 49.6C302.265 46.1067 304.785 43.4 308.011 41.48C311.238 39.56 314.971 38.6 319.211 38.6C323.691 38.6 327.491 39.6533 330.611 41.76C333.758 43.84 336.091 46.7867 337.611 50.6C339.131 54.4133 339.705 58.9067 339.331 64.08H329.771V60.56C329.745 55.8667 328.918 52.44 327.291 50.28C325.665 48.12 323.105 47.04 319.611 47.04C315.665 47.04 312.731 48.2667 310.811 50.72C308.891 53.1467 307.931 56.7067 307.931 61.4C307.931 65.7733 308.891 69.16 310.811 71.56C312.731 73.96 315.531 75.16 319.211 75.16C321.585 75.16 323.625 74.64 325.331 73.6C327.065 72.5333 328.398 71 329.331 69L338.851 71.88C337.198 75.7733 334.638 78.8 331.171 80.96C327.731 83.12 323.931 84.2 319.771 84.2ZM304.891 64.08V56.8H334.611V64.08H304.891ZM385.032 84.2C380.819 84.2 377.285 83.2 374.432 81.2C371.579 79.2 369.432 76.48 367.992 73.04C366.552 69.5733 365.832 65.6933 365.832 61.4C365.832 57.0533 366.552 53.16 367.992 49.72C369.432 46.28 371.539 43.5733 374.312 41.6C377.112 39.6 380.565 38.6 384.672 38.6C388.752 38.6 392.285 39.6 395.272 41.6C398.285 43.5733 400.619 46.28 402.272 49.72C403.925 53.1333 404.752 57.0267 404.752 61.4C404.752 65.72 403.939 69.6 402.312 73.04C400.685 76.48 398.392 79.2 395.432 81.2C392.472 83.2 389.005 84.2 385.032 84.2ZM364.192 83V25.4H373.912V52.68H372.712V83H364.192ZM383.552 75.56C386.059 75.56 388.125 74.9333 389.752 73.68C391.379 72.4267 392.579 70.7333 393.352 68.6C394.152 66.44 394.552 64.04 394.552 61.4C394.552 58.7867 394.152 56.4133 393.352 54.28C392.552 52.12 391.312 50.4133 389.632 49.16C387.952 47.88 385.819 47.24 383.232 47.24C380.779 47.24 378.779 47.84 377.232 49.04C375.685 50.2133 374.539 51.8667 373.792 54C373.072 56.1067 372.712 58.5733 372.712 61.4C372.712 64.2 373.072 66.6667 373.792 68.8C374.539 70.9333 375.699 72.6 377.272 73.8C378.872 74.9733 380.965 75.56 383.552 75.56ZM432.649 84.2C428.329 84.2 424.555 83.2267 421.329 81.28C418.102 79.3333 415.595 76.6533 413.809 73.24C412.049 69.8 411.169 65.8533 411.169 61.4C411.169 56.8667 412.075 52.8933 413.889 49.48C415.702 46.0667 418.222 43.4 421.449 41.48C424.675 39.56 428.409 38.6 432.649 38.6C436.995 38.6 440.782 39.5733 444.009 41.52C447.235 43.4667 449.742 46.16 451.529 49.6C453.315 53.0133 454.209 56.9467 454.209 61.4C454.209 65.88 453.302 69.84 451.489 73.28C449.702 76.6933 447.195 79.3733 443.969 81.32C440.742 83.24 436.969 84.2 432.649 84.2ZM432.649 75.16C436.489 75.16 439.342 73.88 441.209 71.32C443.075 68.76 444.009 65.4533 444.009 61.4C444.009 57.2133 443.062 53.88 441.169 51.4C439.275 48.8933 436.435 47.64 432.649 47.64C430.062 47.64 427.929 48.2267 426.249 49.4C424.595 50.5467 423.369 52.16 422.569 54.24C421.769 56.2933 421.369 58.68 421.369 61.4C421.369 65.5867 422.315 68.9333 424.209 71.44C426.129 73.92 428.942 75.16 432.649 75.16ZM463.822 83V24.2H473.462V83H463.822ZM502.764 84.2C498.79 84.2 495.324 83.2 492.364 81.2C489.404 79.2 487.11 76.48 485.484 73.04C483.857 69.6 483.044 65.72 483.044 61.4C483.044 57.0267 483.857 53.1333 485.484 49.72C487.137 46.28 489.47 43.5733 492.484 41.6C495.497 39.6 499.044 38.6 503.124 38.6C507.23 38.6 510.67 39.6 513.444 41.6C516.244 43.5733 518.364 46.28 519.804 49.72C521.244 53.16 521.964 57.0533 521.964 61.4C521.964 65.6933 521.244 69.5733 519.804 73.04C518.364 76.48 516.217 79.2 513.364 81.2C510.51 83.2 506.977 84.2 502.764 84.2ZM504.244 75.56C506.83 75.56 508.91 74.9733 510.484 73.8C512.084 72.6 513.244 70.9333 513.964 68.8C514.71 66.6667 515.084 64.2 515.084 61.4C515.084 58.5733 514.71 56.1067 513.964 54C513.244 51.8667 512.11 50.2133 510.564 49.04C509.017 47.84 507.017 47.24 504.564 47.24C501.977 47.24 499.844 47.88 498.164 49.16C496.484 50.4133 495.244 52.12 494.444 54.28C493.644 56.4133 493.244 58.7867 493.244 61.4C493.244 64.04 493.63 66.44 494.404 68.6C495.204 70.7333 496.417 72.4267 498.044 73.68C499.67 74.9333 501.737 75.56 504.244 75.56ZM515.084 83V52.68H513.884V25.4H523.604V83H515.084Z" fill="#333333"/>
<line y1="126.5" x2="1160" y2="126.5" stroke="#CF4C2C" stroke-width="3"/>
<path d="M5.6 243V185.4H13.16L34.04 228.72L54.8 185.4H62.44V242.96H54.52V203.56L35.92 243H32.12L13.48 203.56V243H5.6ZM85.8469 244.2C82.6469 244.2 79.9669 243.613 77.8069 242.44C75.6469 241.24 74.0069 239.667 72.8869 237.72C71.7935 235.747 71.2469 233.587 71.2469 231.24C71.2469 229.053 71.6335 227.133 72.4069 225.48C73.1802 223.827 74.3269 222.427 75.8469 221.28C77.3669 220.107 79.2335 219.16 81.4469 218.44C83.3669 217.88 85.5402 217.387 87.9669 216.96C90.3935 216.533 92.9402 216.133 95.6069 215.76C98.3002 215.387 100.967 215.013 103.607 214.64L100.567 216.32C100.62 212.933 99.9002 210.427 98.4069 208.8C96.9402 207.147 94.4069 206.32 90.8069 206.32C88.5402 206.32 86.4602 206.853 84.5669 207.92C82.6735 208.96 81.3535 210.693 80.6069 213.12L72.8069 210.72C73.8735 207.013 75.9002 204.067 78.8869 201.88C81.9002 199.693 85.9002 198.6 90.8869 198.6C94.7535 198.6 98.1135 199.267 100.967 200.6C103.847 201.907 105.954 203.987 107.287 206.84C107.98 208.253 108.407 209.747 108.567 211.32C108.727 212.893 108.807 214.587 108.807 216.4V243H101.407V233.12L102.847 234.4C101.06 237.707 98.7802 240.173 96.0069 241.8C93.2602 243.4 89.8735 244.2 85.8469 244.2ZM87.3269 237.36C89.7002 237.36 91.7402 236.947 93.4469 236.12C95.1535 235.267 96.5269 234.187 97.5669 232.88C98.6069 231.573 99.2869 230.213 99.6069 228.8C100.06 227.52 100.314 226.08 100.367 224.48C100.447 222.88 100.487 221.6 100.487 220.64L103.207 221.64C100.567 222.04 98.1669 222.4 96.0069 222.72C93.8469 223.04 91.8869 223.36 90.1269 223.68C88.3935 223.973 86.8469 224.333 85.4869 224.76C84.3402 225.16 83.3135 225.64 82.4069 226.2C81.5269 226.76 80.8202 227.44 80.2869 228.24C79.7802 229.04 79.5269 230.013 79.5269 231.16C79.5269 232.28 79.8069 233.32 80.3669 234.28C80.9269 235.213 81.7802 235.96 82.9269 236.52C84.0735 237.08 85.5402 237.36 87.3269 237.36ZM149.514 243V221.76C149.514 220.08 149.367 218.36 149.074 216.6C148.807 214.813 148.274 213.16 147.474 211.64C146.7 210.12 145.594 208.893 144.154 207.96C142.74 207.027 140.887 206.56 138.594 206.56C137.1 206.56 135.687 206.813 134.354 207.32C133.02 207.8 131.847 208.587 130.834 209.68C129.847 210.773 129.06 212.213 128.474 214C127.914 215.787 127.634 217.96 127.634 220.52L122.434 218.56C122.434 214.64 123.167 211.187 124.634 208.2C126.1 205.187 128.207 202.84 130.954 201.16C133.7 199.48 137.02 198.64 140.914 198.64C143.9 198.64 146.407 199.12 148.434 200.08C150.46 201.04 152.1 202.307 153.354 203.88C154.634 205.427 155.607 207.12 156.274 208.96C156.94 210.8 157.394 212.6 157.634 214.36C157.874 216.12 157.994 217.667 157.994 219V243H149.514ZM119.154 243V199.8H126.634V212.28H127.634V243H119.154ZM168.413 243V199.8H175.853V210.28L174.813 208.92C175.346 207.533 176.039 206.267 176.893 205.12C177.746 203.947 178.733 202.987 179.853 202.24C180.946 201.44 182.159 200.827 183.493 200.4C184.853 199.947 186.239 199.68 187.653 199.6C189.066 199.493 190.426 199.56 191.733 199.8V207.64C190.319 207.267 188.746 207.16 187.013 207.32C185.306 207.48 183.733 208.027 182.293 208.96C180.933 209.84 179.853 210.907 179.053 212.16C178.279 213.413 177.719 214.813 177.373 216.36C177.026 217.88 176.853 219.493 176.853 221.2V243H168.413ZM217.329 244.2C213.009 244.2 209.262 243.227 206.089 241.28C202.915 239.333 200.462 236.653 198.729 233.24C197.022 229.8 196.169 225.84 196.169 221.36C196.169 216.853 197.049 212.893 198.809 209.48C200.569 206.04 203.035 203.373 206.209 201.48C209.382 199.56 213.089 198.6 217.329 198.6C221.649 198.6 225.395 199.573 228.569 201.52C231.742 203.467 234.195 206.147 235.929 209.56C237.662 212.973 238.529 216.907 238.529 221.36C238.529 225.867 237.649 229.84 235.889 233.28C234.155 236.693 231.702 239.373 228.529 241.32C225.355 243.24 221.622 244.2 217.329 244.2ZM217.329 236.32C221.462 236.32 224.542 234.933 226.569 232.16C228.622 229.36 229.649 225.76 229.649 221.36C229.649 216.853 228.609 213.253 226.529 210.56C224.475 207.84 221.409 206.48 217.329 206.48C214.529 206.48 212.222 207.12 210.409 208.4C208.595 209.653 207.249 211.4 206.369 213.64C205.489 215.853 205.049 218.427 205.049 221.36C205.049 225.893 206.089 229.52 208.169 232.24C210.249 234.96 213.302 236.32 217.329 236.32ZM267.599 244.2C263.465 244.2 259.999 243.2 257.199 241.2C254.399 239.173 252.279 236.44 250.839 233C249.399 229.56 248.679 225.68 248.679 221.36C248.679 217.04 249.385 213.16 250.799 209.72C252.239 206.28 254.345 203.573 257.119 201.6C259.919 199.6 263.359 198.6 267.439 198.6C271.492 198.6 274.985 199.6 277.919 201.6C280.879 203.573 283.159 206.28 284.759 209.72C286.359 213.133 287.159 217.013 287.159 221.36C287.159 225.68 286.359 229.573 284.759 233.04C283.185 236.48 280.932 239.2 277.999 241.2C275.092 243.2 271.625 244.2 267.599 244.2ZM247.279 262.2V199.8H254.719V230.88H255.679V262.2H247.279ZM266.439 236.64C269.105 236.64 271.305 235.96 273.039 234.6C274.799 233.24 276.105 231.413 276.959 229.12C277.839 226.8 278.279 224.213 278.279 221.36C278.279 218.533 277.839 215.973 276.959 213.68C276.105 211.387 274.785 209.56 272.999 208.2C271.212 206.84 268.932 206.16 266.159 206.16C263.545 206.16 261.385 206.8 259.679 208.08C257.999 209.36 256.745 211.147 255.919 213.44C255.119 215.733 254.719 218.373 254.719 221.36C254.719 224.347 255.119 226.987 255.919 229.28C256.719 231.573 257.985 233.373 259.719 234.68C261.452 235.987 263.692 236.64 266.439 236.64ZM315.151 244.2C310.857 244.2 307.084 243.267 303.831 241.4C300.604 239.507 298.084 236.88 296.271 233.52C294.484 230.133 293.591 226.213 293.591 221.76C293.591 217.04 294.471 212.947 296.231 209.48C298.017 206.013 300.497 203.333 303.671 201.44C306.844 199.547 310.537 198.6 314.751 198.6C319.151 198.6 322.897 199.627 325.991 201.68C329.084 203.707 331.391 206.6 332.911 210.36C334.457 214.12 335.071 218.587 334.751 223.76H326.391V220.72C326.337 215.707 325.377 212 323.511 209.6C321.671 207.2 318.857 206 315.071 206C310.884 206 307.737 207.32 305.631 209.96C303.524 212.6 302.471 216.413 302.471 221.4C302.471 226.147 303.524 229.827 305.631 232.44C307.737 235.027 310.777 236.32 314.751 236.32C317.364 236.32 319.617 235.733 321.511 234.56C323.431 233.36 324.924 231.653 325.991 229.44L334.191 232.04C332.511 235.907 329.964 238.907 326.551 241.04C323.137 243.147 319.337 244.2 315.151 244.2ZM299.751 223.76V217.24H330.591V223.76H299.751ZM376.261 244.16C371.007 244.16 366.727 243 363.421 240.68C360.114 238.36 358.087 235.093 357.341 230.88L365.901 229.56C366.434 231.8 367.661 233.573 369.581 234.88C371.527 236.16 373.941 236.8 376.821 236.8C379.434 236.8 381.474 236.267 382.941 235.2C384.434 234.133 385.181 232.667 385.181 230.8C385.181 229.707 384.914 228.827 384.381 228.16C383.874 227.467 382.794 226.813 381.141 226.2C379.487 225.587 376.967 224.827 373.581 223.92C369.874 222.96 366.927 221.933 364.741 220.84C362.581 219.72 361.034 218.427 360.101 216.96C359.194 215.467 358.741 213.667 358.741 211.56C358.741 208.947 359.434 206.667 360.821 204.72C362.207 202.773 364.154 201.267 366.661 200.2C369.194 199.133 372.154 198.6 375.541 198.6C378.847 198.6 381.794 199.12 384.381 200.16C386.967 201.2 389.061 202.68 390.661 204.6C392.261 206.493 393.221 208.72 393.541 211.28L384.981 212.84C384.687 210.76 383.714 209.12 382.061 207.92C380.407 206.72 378.261 206.067 375.621 205.96C373.087 205.853 371.034 206.28 369.461 207.24C367.887 208.173 367.101 209.467 367.101 211.12C367.101 212.08 367.394 212.893 367.981 213.56C368.594 214.227 369.767 214.867 371.501 215.48C373.234 216.093 375.794 216.827 379.181 217.68C382.807 218.613 385.687 219.653 387.821 220.8C389.954 221.92 391.474 223.267 392.381 224.84C393.314 226.387 393.781 228.267 393.781 230.48C393.781 234.747 392.221 238.093 389.101 240.52C386.007 242.947 381.727 244.16 376.261 244.16ZM421.791 244.2C417.498 244.2 413.725 243.267 410.471 241.4C407.245 239.507 404.725 236.88 402.911 233.52C401.125 230.133 400.231 226.213 400.231 221.76C400.231 217.04 401.111 212.947 402.871 209.48C404.658 206.013 407.138 203.333 410.311 201.44C413.485 199.547 417.178 198.6 421.391 198.6C425.791 198.6 429.538 199.627 432.631 201.68C435.725 203.707 438.031 206.6 439.551 210.36C441.098 214.12 441.711 218.587 441.391 223.76H433.031V220.72C432.978 215.707 432.018 212 430.151 209.6C428.311 207.2 425.498 206 421.711 206C417.525 206 414.378 207.32 412.271 209.96C410.165 212.6 409.111 216.413 409.111 221.4C409.111 226.147 410.165 229.827 412.271 232.44C414.378 235.027 417.418 236.32 421.391 236.32C424.005 236.32 426.258 235.733 428.151 234.56C430.071 233.36 431.565 231.653 432.631 229.44L440.831 232.04C439.151 235.907 436.605 238.907 433.191 241.04C429.778 243.147 425.978 244.2 421.791 244.2ZM406.391 223.76V217.24H437.231V223.76H406.391ZM500.954 243L500.994 216.08C500.994 212.96 500.194 210.533 498.594 208.8C496.994 207.04 494.887 206.16 492.274 206.16C490.674 206.16 489.207 206.533 487.874 207.28C486.567 208 485.5 209.093 484.674 210.56C483.874 212 483.474 213.813 483.474 216L479.434 213.96C479.38 210.92 480.02 208.253 481.354 205.96C482.714 203.667 484.554 201.893 486.874 200.64C489.194 199.36 491.794 198.72 494.674 198.72C499.34 198.72 502.954 200.12 505.514 202.92C508.074 205.72 509.354 209.44 509.354 214.08L509.314 243H500.954ZM449.154 243V199.8H456.594V212.28H457.554V243H449.154ZM475.074 243L475.114 216.24C475.114 213.093 474.314 210.627 472.714 208.84C471.14 207.053 469.02 206.16 466.354 206.16C463.714 206.16 461.58 207.067 459.954 208.88C458.354 210.693 457.554 213.067 457.554 216L453.554 213.44C453.554 210.613 454.234 208.093 455.594 205.88C456.954 203.667 458.794 201.92 461.114 200.64C463.434 199.36 466.06 198.72 468.994 198.72C472.06 198.72 474.674 199.373 476.834 200.68C478.994 201.96 480.634 203.76 481.754 206.08C482.9 208.4 483.474 211.093 483.474 214.16L483.434 243H475.074ZM520.541 192.72V184.6H528.901V192.72H520.541ZM520.541 243V199.8H528.901V243H520.541ZM561.193 244.2C557.059 244.2 553.593 243.2 550.793 241.2C547.993 239.173 545.873 236.44 544.433 233C542.993 229.56 542.273 225.68 542.273 221.36C542.273 217.04 542.979 213.16 544.393 209.72C545.833 206.28 547.939 203.573 550.713 201.6C553.513 199.6 556.953 198.6 561.033 198.6C565.086 198.6 568.579 199.6 571.513 201.6C574.473 203.573 576.753 206.28 578.353 209.72C579.953 213.133 580.753 217.013 580.753 221.36C580.753 225.68 579.953 229.573 578.353 233.04C576.779 236.48 574.526 239.2 571.593 241.2C568.686 243.2 565.219 244.2 561.193 244.2ZM540.873 243V185.4H549.273V211.92H548.313V243H540.873ZM560.033 236.64C562.699 236.64 564.899 235.96 566.633 234.6C568.393 233.24 569.699 231.413 570.553 229.12C571.433 226.8 571.873 224.213 571.873 221.36C571.873 218.533 571.433 215.973 570.553 213.68C569.699 211.387 568.379 209.56 566.593 208.2C564.806 206.84 562.526 206.16 559.753 206.16C557.139 206.16 554.979 206.8 553.273 208.08C551.593 209.36 550.339 211.147 549.513 213.44C548.713 215.733 548.313 218.373 548.313 221.36C548.313 224.347 548.713 226.987 549.513 229.28C550.313 231.573 551.579 233.373 553.313 234.68C555.046 235.987 557.286 236.64 560.033 236.64ZM608.344 244.2C604.024 244.2 600.278 243.227 597.104 241.28C593.931 239.333 591.478 236.653 589.744 233.24C588.038 229.8 587.184 225.84 587.184 221.36C587.184 216.853 588.064 212.893 589.824 209.48C591.584 206.04 594.051 203.373 597.224 201.48C600.398 199.56 604.104 198.6 608.344 198.6C612.664 198.6 616.411 199.573 619.584 201.52C622.758 203.467 625.211 206.147 626.944 209.56C628.678 212.973 629.544 216.907 629.544 221.36C629.544 225.867 628.664 229.84 626.904 233.28C625.171 236.693 622.718 239.373 619.544 241.32C616.371 243.24 612.638 244.2 608.344 244.2ZM608.344 236.32C612.478 236.32 615.558 234.933 617.584 232.16C619.638 229.36 620.664 225.76 620.664 221.36C620.664 216.853 619.624 213.253 617.544 210.56C615.491 207.84 612.424 206.48 608.344 206.48C605.544 206.48 603.238 207.12 601.424 208.4C599.611 209.653 598.264 211.4 597.384 213.64C596.504 215.853 596.064 218.427 596.064 221.36C596.064 225.893 597.104 229.52 599.184 232.24C601.264 234.96 604.318 236.32 608.344 236.32ZM639.134 243V184.2H647.494V243H639.134ZM676.666 244.2C672.64 244.2 669.16 243.2 666.226 241.2C663.32 239.2 661.066 236.48 659.466 233.04C657.893 229.573 657.106 225.68 657.106 221.36C657.106 217.013 657.906 213.133 659.506 209.72C661.106 206.28 663.373 203.573 666.306 201.6C669.266 199.6 672.773 198.6 676.826 198.6C680.906 198.6 684.333 199.6 687.106 201.6C689.906 203.573 692.013 206.28 693.426 209.72C694.866 213.16 695.586 217.04 695.586 221.36C695.586 225.68 694.866 229.56 693.426 233C691.986 236.44 689.866 239.173 687.066 241.2C684.266 243.2 680.8 244.2 676.666 244.2ZM677.826 236.64C680.573 236.64 682.813 235.987 684.546 234.68C686.28 233.373 687.546 231.573 688.346 229.28C689.146 226.987 689.546 224.347 689.546 221.36C689.546 218.373 689.133 215.733 688.306 213.44C687.506 211.147 686.253 209.36 684.546 208.08C682.866 206.8 680.72 206.16 678.106 206.16C675.333 206.16 673.053 206.84 671.266 208.2C669.48 209.56 668.146 211.387 667.266 213.68C666.413 215.973 665.986 218.533 665.986 221.36C665.986 224.213 666.413 226.8 667.266 229.12C668.146 231.413 669.453 233.24 671.186 234.6C672.946 235.96 675.16 236.64 677.826 236.64ZM689.546 243V211.92H688.586V185.4H696.986V243H689.546Z" fill="#333333"/>
<line y1="286.5" x2="1160" y2="286.5" stroke="#CF4C2C" stroke-width="3"/>
<path d="M5.6 403V345.4H12.08L33.84 391.28L55.48 345.4H62.04V402.96H55.28V361.04L35.72 403H31.92L12.36 361.04V403H5.6ZM85.5363 404.2C82.3096 404.2 79.6029 403.613 77.4163 402.44C75.2563 401.24 73.6163 399.667 72.4963 397.72C71.4029 395.773 70.8563 393.64 70.8563 391.32C70.8563 389.053 71.2829 387.093 72.1363 385.44C73.0163 383.76 74.2429 382.373 75.8163 381.28C77.3896 380.16 79.2696 379.28 81.4563 378.64C83.5096 378.08 85.8029 377.6 88.3363 377.2C90.8963 376.773 93.4829 376.387 96.0963 376.04C98.7096 375.693 101.15 375.36 103.416 375.04L100.856 376.52C100.936 372.68 100.163 369.84 98.5363 368C96.9363 366.16 94.1629 365.24 90.2163 365.24C87.6029 365.24 85.3096 365.84 83.3363 367.04C81.3896 368.213 80.0163 370.133 79.2163 372.8L72.4563 370.76C73.4963 366.973 75.5096 364 78.4963 361.84C81.4829 359.68 85.4163 358.6 90.2963 358.6C94.2163 358.6 97.5763 359.307 100.376 360.72C103.203 362.107 105.23 364.213 106.456 367.04C107.07 368.373 107.456 369.827 107.616 371.4C107.776 372.947 107.856 374.573 107.856 376.28V403H101.536V392.64L103.016 393.6C101.39 397.093 99.1096 399.733 96.1763 401.52C93.2696 403.307 89.7229 404.2 85.5363 404.2ZM86.6163 398.24C89.1763 398.24 91.3896 397.787 93.2563 396.88C95.1496 395.947 96.6696 394.733 97.8163 393.24C98.9629 391.72 99.7096 390.067 100.056 388.28C100.456 386.947 100.67 385.467 100.696 383.84C100.75 382.187 100.776 380.92 100.776 380.04L103.256 381.12C100.936 381.44 98.6563 381.747 96.4163 382.04C94.1763 382.333 92.0563 382.653 90.0563 383C88.0563 383.32 86.2563 383.707 84.6563 384.16C83.4829 384.533 82.3763 385.013 81.3363 385.6C80.3229 386.187 79.4963 386.947 78.8563 387.88C78.2429 388.787 77.9362 389.92 77.9362 391.28C77.9362 392.453 78.2296 393.573 78.8163 394.64C79.4296 395.707 80.3629 396.573 81.6163 397.24C82.8963 397.907 84.5629 398.24 86.6163 398.24ZM149.016 403V381.36C149.016 379.307 148.83 377.333 148.456 375.44C148.11 373.547 147.483 371.853 146.576 370.36C145.696 368.84 144.496 367.64 142.976 366.76C141.483 365.88 139.59 365.44 137.296 365.44C135.51 365.44 133.883 365.747 132.416 366.36C130.976 366.947 129.736 367.853 128.696 369.08C127.656 370.307 126.843 371.853 126.256 373.72C125.696 375.56 125.416 377.733 125.416 380.24L120.736 378.8C120.736 374.613 121.483 371.027 122.976 368.04C124.496 365.027 126.616 362.72 129.336 361.12C132.083 359.493 135.31 358.68 139.016 358.68C141.816 358.68 144.203 359.12 146.176 360C148.15 360.88 149.79 362.053 151.096 363.52C152.403 364.96 153.43 366.587 154.176 368.4C154.923 370.187 155.443 372.013 155.736 373.88C156.056 375.72 156.216 377.467 156.216 379.12V403H149.016ZM118.216 403V359.8H124.616V371.36H125.416V403H118.216ZM166.616 403V359.8H172.976V370.24L171.936 368.88C172.442 367.547 173.096 366.32 173.896 365.2C174.722 364.08 175.642 363.16 176.656 362.44C177.776 361.533 179.042 360.84 180.456 360.36C181.869 359.88 183.309 359.6 184.776 359.52C186.242 359.413 187.616 359.507 188.896 359.8V366.48C187.402 366.08 185.762 365.973 183.976 366.16C182.189 366.347 180.536 367 179.016 368.12C177.629 369.107 176.549 370.307 175.776 371.72C175.029 373.133 174.509 374.667 174.216 376.32C173.922 377.947 173.776 379.613 173.776 381.32V403H166.616ZM214.078 404.2C209.785 404.2 206.078 403.227 202.958 401.28C199.865 399.333 197.478 396.64 195.798 393.2C194.118 389.76 193.278 385.813 193.278 381.36C193.278 376.827 194.131 372.853 195.838 369.44C197.545 366.027 199.958 363.373 203.078 361.48C206.198 359.56 209.865 358.6 214.078 358.6C218.398 358.6 222.118 359.573 225.238 361.52C228.358 363.44 230.745 366.12 232.398 369.56C234.078 372.973 234.918 376.907 234.918 381.36C234.918 385.867 234.078 389.84 232.398 393.28C230.718 396.693 228.318 399.373 225.198 401.32C222.078 403.24 218.371 404.2 214.078 404.2ZM214.078 397.44C218.558 397.44 221.891 395.947 224.078 392.96C226.265 389.973 227.358 386.107 227.358 381.36C227.358 376.48 226.251 372.6 224.038 369.72C221.825 366.813 218.505 365.36 214.078 365.36C211.065 365.36 208.585 366.04 206.638 367.4C204.691 368.76 203.238 370.64 202.278 373.04C201.318 375.44 200.838 378.213 200.838 381.36C200.838 386.213 201.958 390.107 204.198 393.04C206.438 395.973 209.731 397.44 214.078 397.44ZM263.565 404.2C259.512 404.2 256.098 403.2 253.325 401.2C250.552 399.173 248.445 396.44 247.005 393C245.592 389.533 244.885 385.653 244.885 381.36C244.885 377.013 245.592 373.12 247.005 369.68C248.445 366.24 250.552 363.533 253.325 361.56C256.125 359.587 259.552 358.6 263.605 358.6C267.605 358.6 271.045 359.6 273.925 361.6C276.832 363.573 279.058 366.28 280.605 369.72C282.152 373.16 282.925 377.04 282.925 381.36C282.925 385.68 282.152 389.56 280.605 393C279.058 396.44 276.832 399.173 273.925 401.2C271.045 403.2 267.592 404.2 263.565 404.2ZM243.685 422.2V359.8H250.045V391.6H250.845V422.2H243.685ZM262.685 397.68C265.538 397.68 267.898 396.96 269.765 395.52C271.632 394.08 273.032 392.133 273.965 389.68C274.898 387.2 275.365 384.427 275.365 381.36C275.365 378.32 274.898 375.573 273.965 373.12C273.058 370.667 271.645 368.72 269.725 367.28C267.832 365.84 265.418 365.12 262.485 365.12C259.685 365.12 257.365 365.813 255.525 367.2C253.685 368.56 252.312 370.467 251.405 372.92C250.498 375.347 250.045 378.16 250.045 381.36C250.045 384.507 250.485 387.32 251.365 389.8C252.272 392.253 253.658 394.187 255.525 395.6C257.392 396.987 259.778 397.68 262.685 397.68ZM310.414 404.2C306.174 404.2 302.467 403.267 299.294 401.4C296.147 399.507 293.694 396.88 291.934 393.52C290.174 390.133 289.294 386.187 289.294 381.68C289.294 376.96 290.16 372.88 291.894 369.44C293.627 365.973 296.04 363.307 299.134 361.44C302.254 359.547 305.907 358.6 310.094 358.6C314.44 358.6 318.134 359.6 321.174 361.6C324.24 363.6 326.534 366.453 328.054 370.16C329.6 373.867 330.267 378.28 330.054 383.4H322.854V380.84C322.774 375.533 321.694 371.573 319.614 368.96C317.534 366.32 314.44 365 310.334 365C305.934 365 302.587 366.413 300.294 369.24C298 372.067 296.854 376.12 296.854 381.4C296.854 386.493 298 390.44 300.294 393.24C302.587 396.04 305.854 397.44 310.094 397.44C312.947 397.44 315.427 396.787 317.534 395.48C319.64 394.173 321.294 392.293 322.494 389.84L329.334 392.2C327.654 396.013 325.12 398.973 321.734 401.08C318.374 403.16 314.6 404.2 310.414 404.2ZM294.454 383.4V377.68H326.374V383.4H294.454ZM406.615 403L406.655 375.36C406.655 372.133 405.788 369.613 404.055 367.8C402.348 365.96 400.122 365.04 397.375 365.04C395.775 365.04 394.255 365.413 392.815 366.16C391.375 366.88 390.202 368.027 389.295 369.6C388.388 371.147 387.935 373.133 387.935 375.56L384.175 374.04C384.122 370.973 384.748 368.293 386.055 366C387.388 363.68 389.202 361.88 391.495 360.6C393.788 359.32 396.375 358.68 399.255 358.68C403.762 358.68 407.308 360.053 409.895 362.8C412.482 365.52 413.775 369.187 413.775 373.8L413.735 403H406.615ZM354.935 403V359.8H361.295V371.36H362.095V403H354.935ZM380.815 403L380.855 375.64C380.855 372.333 380.002 369.747 378.295 367.88C376.588 365.987 374.322 365.04 371.495 365.04C368.695 365.04 366.428 366 364.695 367.92C362.962 369.84 362.095 372.387 362.095 375.56L358.335 373.32C358.335 370.52 359.002 368.013 360.335 365.8C361.668 363.587 363.482 361.853 365.775 360.6C368.068 359.32 370.668 358.68 373.575 358.68C376.482 358.68 379.015 359.293 381.175 360.52C383.335 361.747 385.002 363.507 386.175 365.8C387.348 368.067 387.935 370.773 387.935 373.92L387.895 403H380.815ZM442.523 404.2C438.283 404.2 434.576 403.267 431.403 401.4C428.256 399.507 425.803 396.88 424.043 393.52C422.283 390.133 421.403 386.187 421.403 381.68C421.403 376.96 422.27 372.88 424.003 369.44C425.736 365.973 428.15 363.307 431.243 361.44C434.363 359.547 438.016 358.6 442.203 358.6C446.55 358.6 450.243 359.6 453.283 361.6C456.35 363.6 458.643 366.453 460.163 370.16C461.71 373.867 462.376 378.28 462.163 383.4H454.963V380.84C454.883 375.533 453.803 371.573 451.723 368.96C449.643 366.32 446.55 365 442.443 365C438.043 365 434.696 366.413 432.403 369.24C430.11 372.067 428.963 376.12 428.963 381.4C428.963 386.493 430.11 390.44 432.403 393.24C434.696 396.04 437.963 397.44 442.203 397.44C445.056 397.44 447.536 396.787 449.643 395.48C451.75 394.173 453.403 392.293 454.603 389.84L461.443 392.2C459.763 396.013 457.23 398.973 453.843 401.08C450.483 403.16 446.71 404.2 442.523 404.2ZM426.563 383.4V377.68H458.483V383.4H426.563ZM488.029 404.2C484.002 404.2 480.549 403.2 477.669 401.2C474.789 399.173 472.562 396.44 470.989 393C469.442 389.56 468.669 385.68 468.669 381.36C468.669 377.04 469.442 373.16 470.989 369.72C472.562 366.28 474.789 363.573 477.669 361.6C480.549 359.6 483.989 358.6 487.989 358.6C492.069 358.6 495.495 359.587 498.269 361.56C501.042 363.533 503.135 366.24 504.549 369.68C505.989 373.12 506.709 377.013 506.709 381.36C506.709 385.653 505.989 389.533 504.549 393C503.135 396.44 501.042 399.173 498.269 401.2C495.495 403.2 492.082 404.2 488.029 404.2ZM488.909 397.68C491.815 397.68 494.202 396.987 496.069 395.6C497.935 394.187 499.309 392.253 500.189 389.8C501.095 387.32 501.549 384.507 501.549 381.36C501.549 378.16 501.095 375.347 500.189 372.92C499.309 370.467 497.949 368.56 496.109 367.2C494.269 365.813 491.935 365.12 489.109 365.12C486.175 365.12 483.749 365.84 481.829 367.28C479.935 368.72 478.522 370.667 477.589 373.12C476.682 375.573 476.229 378.32 476.229 381.36C476.229 384.427 476.695 387.2 477.629 389.68C478.562 392.133 479.962 394.08 481.829 395.52C483.722 396.96 486.082 397.68 488.909 397.68ZM501.549 403V371.2H500.749V345.4H507.909V403H501.549ZM519.916 352.16V344.8H527.036V352.16H519.916ZM519.916 403V359.8H527.036V403H519.916ZM555.438 404.12C552.664 404.12 550.278 403.68 548.278 402.8C546.304 401.92 544.664 400.747 543.358 399.28C542.051 397.813 541.024 396.187 540.278 394.4C539.531 392.613 538.998 390.787 538.678 388.92C538.384 387.053 538.238 385.307 538.238 383.68V359.8H545.438V381.44C545.438 383.467 545.624 385.427 545.998 387.32C546.371 389.213 546.998 390.92 547.878 392.44C548.784 393.96 549.984 395.16 551.478 396.04C552.998 396.92 554.891 397.36 557.158 397.36C558.944 397.36 560.571 397.053 562.038 396.44C563.504 395.827 564.758 394.92 565.798 393.72C566.838 392.493 567.638 390.947 568.198 389.08C568.758 387.213 569.038 385.04 569.038 382.56L573.718 384C573.718 388.16 572.958 391.747 571.438 394.76C569.944 397.773 567.824 400.093 565.078 401.72C562.358 403.32 559.144 404.12 555.438 404.12ZM569.838 403V391.44H569.038V359.8H576.198V403H569.838ZM639.037 403L639.077 375.36C639.077 372.133 638.21 369.613 636.477 367.8C634.77 365.96 632.544 365.04 629.797 365.04C628.197 365.04 626.677 365.413 625.237 366.16C623.797 366.88 622.624 368.027 621.717 369.6C620.81 371.147 620.357 373.133 620.357 375.56L616.597 374.04C616.544 370.973 617.17 368.293 618.477 366C619.81 363.68 621.624 361.88 623.917 360.6C626.21 359.32 628.797 358.68 631.677 358.68C636.184 358.68 639.73 360.053 642.317 362.8C644.904 365.52 646.197 369.187 646.197 373.8L646.157 403H639.037ZM587.357 403V359.8H593.717V371.36H594.517V403H587.357ZM613.237 403L613.277 375.64C613.277 372.333 612.424 369.747 610.717 367.88C609.01 365.987 606.744 365.04 603.917 365.04C601.117 365.04 598.85 366 597.117 367.92C595.384 369.84 594.517 372.387 594.517 375.56L590.757 373.32C590.757 370.52 591.424 368.013 592.757 365.8C594.09 363.587 595.904 361.853 598.197 360.6C600.49 359.32 603.09 358.68 605.997 358.68C608.904 358.68 611.437 359.293 613.597 360.52C615.757 361.747 617.424 363.507 618.597 365.8C619.77 368.067 620.357 370.773 620.357 373.92L620.317 403H613.237Z" fill="#333333"/>
<line y1="446.5" x2="1160" y2="446.5" stroke="#CF4C2C" stroke-width="3"/>
<path d="M5.6 563V505.4H11L33.64 553.84L56.16 505.4H61.64V562.96H56.04V518.52L35.52 563H31.72L11.24 518.52V563H5.6ZM85.2256 564.2C81.9723 564.2 79.239 563.613 77.0256 562.44C74.839 561.267 73.199 559.707 72.1056 557.76C71.0123 555.813 70.4656 553.693 70.4656 551.4C70.4656 549.053 70.9323 547.053 71.8656 545.4C72.8256 543.72 74.119 542.347 75.7456 541.28C77.399 540.213 79.3056 539.4 81.4656 538.84C83.6523 538.307 86.0656 537.84 88.7056 537.44C91.3723 537.013 93.9723 536.653 96.5056 536.36C99.0656 536.04 101.306 535.733 103.226 535.44L101.146 536.72C101.226 532.453 100.399 529.293 98.6656 527.24C96.9323 525.187 93.919 524.16 89.6256 524.16C86.6656 524.16 84.159 524.827 82.1056 526.16C80.079 527.493 78.6523 529.6 77.8256 532.48L72.1056 530.8C73.0923 526.933 75.079 523.933 78.0656 521.8C81.0523 519.667 84.9323 518.6 89.7056 518.6C93.6523 518.6 96.999 519.347 99.7456 520.84C102.519 522.307 104.479 524.44 105.626 527.24C106.159 528.493 106.506 529.893 106.666 531.44C106.826 532.987 106.906 534.56 106.906 536.16V563H101.666V552.16L103.186 552.8C101.719 556.507 99.439 559.333 96.3456 561.28C93.2523 563.227 89.5456 564.2 85.2256 564.2ZM85.9056 559.12C88.6523 559.12 91.0523 558.627 93.1056 557.64C95.159 556.653 96.8123 555.307 98.0656 553.6C99.319 551.867 100.132 549.92 100.506 547.76C100.826 546.373 100.999 544.853 101.026 543.2C101.052 541.52 101.066 540.267 101.066 539.44L103.306 540.6C101.306 540.867 99.1323 541.133 96.7856 541.4C94.4656 541.667 92.1723 541.973 89.9056 542.32C87.6656 542.667 85.639 543.08 83.8256 543.56C82.599 543.907 81.4123 544.4 80.2656 545.04C79.119 545.653 78.1723 546.48 77.4256 547.52C76.7056 548.56 76.3456 549.853 76.3456 551.4C76.3456 552.653 76.6523 553.867 77.2656 555.04C77.9056 556.213 78.919 557.187 80.3056 557.96C81.719 558.733 83.5856 559.12 85.9056 559.12ZM148.519 563V540.96C148.519 538.56 148.292 536.36 147.839 534.36C147.385 532.333 146.652 530.573 145.639 529.08C144.652 527.56 143.359 526.387 141.759 525.56C140.185 524.733 138.265 524.32 135.999 524.32C133.919 524.32 132.079 524.68 130.479 525.4C128.905 526.12 127.572 527.16 126.479 528.52C125.412 529.853 124.599 531.48 124.039 533.4C123.479 535.32 123.199 537.507 123.199 539.96L119.039 539.04C119.039 534.613 119.812 530.893 121.359 527.88C122.905 524.867 125.039 522.587 127.759 521.04C130.479 519.493 133.599 518.72 137.119 518.72C139.705 518.72 141.959 519.12 143.879 519.92C145.825 520.72 147.465 521.8 148.799 523.16C150.159 524.52 151.252 526.08 152.079 527.84C152.905 529.573 153.505 531.427 153.879 533.4C154.252 535.347 154.439 537.293 154.439 539.24V563H148.519ZM117.279 563V519.8H122.599V530.44H123.199V563H117.279ZM164.819 563V519.8H170.099V530.2L169.059 528.84C169.539 527.56 170.165 526.387 170.939 525.32C171.712 524.227 172.552 523.333 173.459 522.64C174.579 521.653 175.885 520.907 177.379 520.4C178.872 519.867 180.379 519.56 181.899 519.48C183.419 519.373 184.805 519.48 186.059 519.8V525.32C184.485 524.92 182.765 524.827 180.899 525.04C179.032 525.253 177.312 526 175.739 527.28C174.299 528.4 173.219 529.747 172.499 531.32C171.779 532.867 171.299 534.52 171.059 536.28C170.819 538.013 170.699 539.733 170.699 541.44V563H164.819ZM210.906 564.2C206.612 564.2 202.946 563.227 199.906 561.28C196.866 559.333 194.532 556.64 192.906 553.2C191.279 549.76 190.466 545.813 190.466 541.36C190.466 536.827 191.292 532.853 192.946 529.44C194.599 526.027 196.946 523.373 199.986 521.48C203.052 519.56 206.692 518.6 210.906 518.6C215.226 518.6 218.906 519.573 221.946 521.52C225.012 523.44 227.346 526.12 228.946 529.56C230.572 532.973 231.386 536.907 231.386 541.36C231.386 545.893 230.572 549.88 228.946 553.32C227.319 556.733 224.972 559.4 221.906 561.32C218.839 563.24 215.172 564.2 210.906 564.2ZM210.906 558.56C215.706 558.56 219.279 556.973 221.626 553.8C223.972 550.6 225.146 546.453 225.146 541.36C225.146 536.133 223.959 531.973 221.586 528.88C219.239 525.787 215.679 524.24 210.906 524.24C207.679 524.24 205.012 524.973 202.906 526.44C200.826 527.88 199.266 529.893 198.226 532.48C197.212 535.04 196.706 538 196.706 541.36C196.706 546.56 197.906 550.733 200.306 553.88C202.706 557 206.239 558.56 210.906 558.56ZM259.609 564.2C255.636 564.2 252.276 563.2 249.529 561.2C246.783 559.173 244.703 556.44 243.289 553C241.876 549.533 241.169 545.653 241.169 541.36C241.169 536.987 241.876 533.093 243.289 529.68C244.729 526.24 246.836 523.533 249.609 521.56C252.383 519.587 255.796 518.6 259.849 518.6C263.796 518.6 267.183 519.6 270.009 521.6C272.836 523.6 274.996 526.32 276.489 529.76C278.009 533.2 278.769 537.067 278.769 541.36C278.769 545.68 278.009 549.56 276.489 553C274.969 556.44 272.783 559.173 269.929 561.2C267.076 563.2 263.636 564.2 259.609 564.2ZM240.169 582.2V519.8H245.449V552.32H246.089V582.2H240.169ZM259.009 558.72C262.023 558.72 264.529 557.96 266.529 556.44C268.529 554.92 270.023 552.853 271.009 550.24C272.023 547.6 272.529 544.64 272.529 541.36C272.529 538.107 272.036 535.173 271.049 532.56C270.063 529.947 268.556 527.88 266.529 526.36C264.529 524.84 261.983 524.08 258.889 524.08C255.876 524.08 253.369 524.813 251.369 526.28C249.396 527.747 247.916 529.787 246.929 532.4C245.943 534.987 245.449 537.973 245.449 541.36C245.449 544.693 245.943 547.68 246.929 550.32C247.916 552.933 249.409 554.987 251.409 556.48C253.409 557.973 255.943 558.72 259.009 558.72ZM305.833 564.2C301.62 564.2 297.966 563.267 294.873 561.4C291.806 559.533 289.42 556.907 287.713 553.52C286.006 550.133 285.153 546.16 285.153 541.6C285.153 536.88 285.993 532.8 287.673 529.36C289.353 525.92 291.713 523.267 294.753 521.4C297.82 519.533 301.433 518.6 305.593 518.6C309.86 518.6 313.5 519.587 316.513 521.56C319.526 523.507 321.806 526.307 323.353 529.96C324.9 533.613 325.606 537.973 325.473 543.04H319.473V540.96C319.366 535.36 318.153 531.133 315.833 528.28C313.54 525.427 310.18 524 305.753 524C301.113 524 297.553 525.507 295.073 528.52C292.62 531.533 291.393 535.827 291.393 541.4C291.393 546.84 292.62 551.067 295.073 554.08C297.553 557.067 301.06 558.56 305.593 558.56C308.686 558.56 311.38 557.853 313.673 556.44C315.993 555 317.82 552.933 319.153 550.24L324.633 552.36C322.926 556.12 320.406 559.04 317.073 561.12C313.766 563.173 310.02 564.2 305.833 564.2ZM289.313 543.04V538.12H322.313V543.04H289.313ZM350.366 563V519.8H355.646V530.2L354.606 528.84C355.086 527.56 355.712 526.387 356.486 525.32C357.259 524.227 358.099 523.333 359.006 522.64C360.126 521.653 361.432 520.907 362.926 520.4C364.419 519.867 365.926 519.56 367.446 519.48C368.966 519.373 370.352 519.48 371.606 519.8V525.32C370.032 524.92 368.312 524.827 366.446 525.04C364.579 525.253 362.859 526 361.286 527.28C359.846 528.4 358.766 529.747 358.046 531.32C357.326 532.867 356.846 534.52 356.606 536.28C356.366 538.013 356.246 539.733 356.246 541.44V563H350.366ZM396.693 564.2C392.479 564.2 388.826 563.267 385.733 561.4C382.666 559.533 380.279 556.907 378.573 553.52C376.866 550.133 376.013 546.16 376.013 541.6C376.013 536.88 376.853 532.8 378.533 529.36C380.213 525.92 382.573 523.267 385.613 521.4C388.679 519.533 392.293 518.6 396.453 518.6C400.719 518.6 404.359 519.587 407.373 521.56C410.386 523.507 412.666 526.307 414.213 529.96C415.759 533.613 416.466 537.973 416.333 543.04H410.333V540.96C410.226 535.36 409.013 531.133 406.693 528.28C404.399 525.427 401.039 524 396.613 524C391.973 524 388.413 525.507 385.933 528.52C383.479 531.533 382.253 535.827 382.253 541.4C382.253 546.84 383.479 551.067 385.933 554.08C388.413 557.067 391.919 558.56 396.453 558.56C399.546 558.56 402.239 557.853 404.533 556.44C406.853 555 408.679 552.933 410.013 550.24L415.493 552.36C413.786 556.12 411.266 559.04 407.933 561.12C404.626 563.173 400.879 564.2 396.693 564.2ZM380.173 543.04V538.12H413.173V543.04H380.173ZM442.369 583.4C440.156 583.4 437.969 583.067 435.809 582.4C433.676 581.76 431.703 580.733 429.889 579.32C428.076 577.933 426.556 576.12 425.329 573.88L430.649 570.92C431.849 573.32 433.529 575.04 435.689 576.08C437.876 577.147 440.103 577.68 442.369 577.68C445.489 577.68 448.009 577.093 449.929 575.92C451.876 574.773 453.289 573.067 454.169 570.8C455.049 568.533 455.476 565.707 455.449 562.32V550.8H456.129V519.8H461.369V562.4C461.369 563.627 461.329 564.8 461.249 565.92C461.196 567.067 461.076 568.187 460.889 569.28C460.383 572.507 459.329 575.16 457.729 577.24C456.156 579.32 454.076 580.867 451.489 581.88C448.929 582.893 445.889 583.4 442.369 583.4ZM441.969 564.2C437.943 564.2 434.503 563.2 431.649 561.2C428.796 559.173 426.609 556.44 425.089 553C423.569 549.56 422.809 545.68 422.809 541.36C422.809 537.067 423.556 533.2 425.049 529.76C426.569 526.32 428.743 523.6 431.569 521.6C434.396 519.6 437.783 518.6 441.729 518.6C445.783 518.6 449.196 519.587 451.969 521.56C454.743 523.533 456.836 526.24 458.249 529.68C459.689 533.093 460.409 536.987 460.409 541.36C460.409 545.653 459.703 549.533 458.289 553C456.876 556.44 454.796 559.173 452.049 561.2C449.303 563.2 445.943 564.2 441.969 564.2ZM442.569 558.72C445.636 558.72 448.169 557.973 450.169 556.48C452.169 554.987 453.663 552.933 454.649 550.32C455.636 547.68 456.129 544.693 456.129 541.36C456.129 537.973 455.636 534.987 454.649 532.4C453.663 529.787 452.169 527.747 450.169 526.28C448.196 524.813 445.703 524.08 442.689 524.08C439.596 524.08 437.036 524.84 435.009 526.36C432.983 527.88 431.476 529.947 430.489 532.56C429.529 535.173 429.049 538.107 429.049 541.36C429.049 544.64 429.543 547.6 430.529 550.24C431.543 552.853 433.049 554.92 435.049 556.44C437.049 557.96 439.556 558.72 442.569 558.72ZM489.073 564.08C486.486 564.08 484.22 563.68 482.273 562.88C480.353 562.08 478.713 561 477.353 559.64C476.02 558.28 474.94 556.733 474.113 555C473.286 553.24 472.686 551.387 472.313 549.44C471.94 547.467 471.753 545.507 471.753 543.56V519.8H477.673V541.84C477.673 544.213 477.9 546.413 478.353 548.44C478.806 550.467 479.526 552.24 480.513 553.76C481.526 555.253 482.82 556.413 484.393 557.24C485.993 558.067 487.926 558.48 490.193 558.48C492.273 558.48 494.1 558.12 495.673 557.4C497.273 556.68 498.606 555.653 499.673 554.32C500.766 552.96 501.593 551.32 502.153 549.4C502.713 547.453 502.993 545.267 502.993 542.84L507.153 543.76C507.153 548.187 506.38 551.907 504.833 554.92C503.286 557.933 501.153 560.213 498.433 561.76C495.713 563.307 492.593 564.08 489.073 564.08ZM503.593 563V552.36H502.993V519.8H508.873V563H503.593ZM520.853 563V504.2H526.733V563H520.853ZM551.085 564.2C547.832 564.2 545.098 563.613 542.885 562.44C540.698 561.267 539.058 559.707 537.965 557.76C536.872 555.813 536.325 553.693 536.325 551.4C536.325 549.053 536.792 547.053 537.725 545.4C538.685 543.72 539.978 542.347 541.605 541.28C543.258 540.213 545.165 539.4 547.325 538.84C549.512 538.307 551.925 537.84 554.565 537.44C557.232 537.013 559.832 536.653 562.365 536.36C564.925 536.04 567.165 535.733 569.085 535.44L567.005 536.72C567.085 532.453 566.258 529.293 564.525 527.24C562.792 525.187 559.778 524.16 555.485 524.16C552.525 524.16 550.018 524.827 547.965 526.16C545.938 527.493 544.512 529.6 543.685 532.48L537.965 530.8C538.952 526.933 540.938 523.933 543.925 521.8C546.912 519.667 550.792 518.6 555.565 518.6C559.512 518.6 562.858 519.347 565.605 520.84C568.378 522.307 570.338 524.44 571.485 527.24C572.018 528.493 572.365 529.893 572.525 531.44C572.685 532.987 572.765 534.56 572.765 536.16V563H567.525V552.16L569.045 552.8C567.578 556.507 565.298 559.333 562.205 561.28C559.112 563.227 555.405 564.2 551.085 564.2ZM551.765 559.12C554.512 559.12 556.912 558.627 558.965 557.64C561.018 556.653 562.672 555.307 563.925 553.6C565.178 551.867 565.992 549.92 566.365 547.76C566.685 546.373 566.858 544.853 566.885 543.2C566.912 541.52 566.925 540.267 566.925 539.44L569.165 540.6C567.165 540.867 564.992 541.133 562.645 541.4C560.325 541.667 558.032 541.973 555.765 542.32C553.525 542.667 551.498 543.08 549.685 543.56C548.458 543.907 547.272 544.4 546.125 545.04C544.978 545.653 544.032 546.48 543.285 547.52C542.565 548.56 542.205 549.853 542.205 551.4C542.205 552.653 542.512 553.867 543.125 555.04C543.765 556.213 544.778 557.187 546.165 557.96C547.578 558.733 549.445 559.12 551.765 559.12ZM583.178 563V519.8H588.458V530.2L587.418 528.84C587.898 527.56 588.525 526.387 589.298 525.32C590.071 524.227 590.911 523.333 591.818 522.64C592.938 521.653 594.245 520.907 595.738 520.4C597.231 519.867 598.738 519.56 600.258 519.48C601.778 519.373 603.165 519.48 604.418 519.8V525.32C602.845 524.92 601.125 524.827 599.258 525.04C597.391 525.253 595.671 526 594.098 527.28C592.658 528.4 591.578 529.747 590.858 531.32C590.138 532.867 589.658 534.52 589.418 536.28C589.178 538.013 589.058 539.733 589.058 541.44V563H583.178Z" fill="#333333"/>
<line y1="606.5" x2="1160" y2="606.5" stroke="#CF4C2C" stroke-width="3"/>
</svg>
