<svg width="69" height="72" viewBox="0 0 69 72" fill="none" xmlns="http://www.w3.org/2000/svg">
<g clip-path="url(#clip0_2878_319871)">
<path d="M-0.596877 9.6C-0.596876 13.0669 0.0859802 16.4999 1.4127 19.7028C2.73943 22.9058 4.68404 25.8162 7.13551 28.2676C9.58697 30.7191 12.4973 32.6637 15.7003 33.9904C18.9033 35.3171 22.3362 36 25.8031 36C29.27 36 32.703 35.3171 35.906 33.9904C39.109 32.6637 42.0193 30.7191 44.4707 28.2676C46.9222 25.8162 48.8668 22.9058 50.1935 19.7028C51.5203 16.4998 52.2031 13.0669 52.2031 9.6L39.4841 9.6C39.4841 11.3966 39.1302 13.1756 38.4427 14.8355C37.7552 16.4953 36.7474 18.0035 35.477 19.2739C34.2066 20.5443 32.6985 21.5521 31.0386 22.2396C29.3788 22.9271 27.5997 23.281 25.8031 23.281C24.0065 23.281 22.2275 22.9271 20.5676 22.2396C18.9078 21.5521 17.3996 20.5443 16.1292 19.2739C14.8588 18.0035 13.8511 16.4953 13.1635 14.8355C12.476 13.1756 12.1221 11.3966 12.1221 9.6L-0.596877 9.6Z" fill="#4AA35C"/>
<path d="M52.2023 62.4C52.2023 58.9331 51.5195 55.5001 50.1928 52.2972C48.866 49.0942 46.9214 46.1838 44.47 43.7324C42.0185 41.2809 39.1082 39.3363 35.9052 38.0096C32.7022 36.6829 29.2692 36 25.8023 36C22.3354 36 18.9025 36.6829 15.6995 38.0096C12.4965 39.3363 9.58619 41.2809 7.13472 43.7324C4.68326 46.1838 2.73865 49.0942 1.41192 52.2972C0.085201 55.5002 -0.597655 58.9331 -0.597654 62.4L12.1214 62.4C12.1214 60.6034 12.4752 58.8244 13.1628 57.1645C13.8503 55.5047 14.858 53.9965 16.1284 52.7261C17.3988 51.4557 18.907 50.4479 20.5669 49.7604C22.2267 49.0729 24.0057 48.719 25.8023 48.719C27.599 48.719 29.378 49.0729 31.0378 49.7604C32.6977 50.4479 34.2059 51.4557 35.4763 52.7261C36.7467 53.9965 37.7544 55.5047 38.4419 57.1645C39.1295 58.8244 39.4833 60.6034 39.4833 62.4L52.2023 62.4Z" fill="#EBBE52"/>
</g>
<defs>
<clipPath id="clip0_2878_319871">
<rect width="69" height="72" fill="white"/>
</clipPath>
</defs>
</svg>
