<svg width="64" height="19" viewBox="0 0 64 19" fill="none" xmlns="http://www.w3.org/2000/svg">
<path d="M0.517045 18V0.545454H12.0739V3.58807H4.20739V7.74716H11.3068V10.7898H4.20739V18H0.517045ZM18.0568 18.2472C17.2216 18.2472 16.4773 18.1023 15.8239 17.8125C15.1705 17.517 14.6534 17.0824 14.2727 16.5085C13.8977 15.929 13.7102 15.2074 13.7102 14.3438C13.7102 13.6165 13.8438 13.0057 14.1108 12.5114C14.3778 12.017 14.7415 11.6193 15.2017 11.3182C15.6619 11.017 16.1847 10.7898 16.7699 10.6364C17.3608 10.483 17.9801 10.375 18.6278 10.3125C19.3892 10.233 20.0028 10.1591 20.4688 10.0909C20.9347 10.017 21.2727 9.90909 21.483 9.76705C21.6932 9.625 21.7983 9.41477 21.7983 9.13636V9.08523C21.7983 8.54545 21.6278 8.12784 21.2869 7.83239C20.9517 7.53693 20.4744 7.3892 19.8551 7.3892C19.2017 7.3892 18.6818 7.53409 18.2955 7.82386C17.9091 8.10795 17.6534 8.46591 17.5284 8.89773L14.1705 8.625C14.3409 7.82955 14.6761 7.14205 15.1761 6.5625C15.6761 5.97727 16.321 5.52841 17.1108 5.21591C17.9063 4.89773 18.8267 4.73864 19.8722 4.73864C20.5994 4.73864 21.2955 4.82386 21.9602 4.99432C22.6307 5.16477 23.2244 5.42898 23.7415 5.78693C24.2642 6.14489 24.6761 6.60511 24.9773 7.16761C25.2784 7.72443 25.429 8.39205 25.429 9.17045V18H21.9858V16.1847H21.8835C21.6733 16.5938 21.392 16.9545 21.0398 17.267C20.6875 17.5739 20.2642 17.8153 19.7699 17.9915C19.2756 18.1619 18.7045 18.2472 18.0568 18.2472ZM19.0966 15.7415C19.6307 15.7415 20.1023 15.6364 20.5114 15.4261C20.9205 15.2102 21.2415 14.9205 21.4744 14.5568C21.7074 14.1932 21.8239 13.7812 21.8239 13.321V11.9318C21.7102 12.0057 21.554 12.0739 21.3551 12.1364C21.1619 12.1932 20.9432 12.2472 20.6989 12.2983C20.4545 12.3437 20.2102 12.3864 19.9659 12.4261C19.7216 12.4602 19.5 12.4915 19.3011 12.5199C18.875 12.5824 18.5028 12.6818 18.1847 12.8182C17.8665 12.9545 17.6193 13.1392 17.4432 13.3722C17.267 13.5994 17.179 13.8835 17.179 14.2244C17.179 14.7188 17.358 15.0966 17.7159 15.358C18.0795 15.6136 18.5398 15.7415 19.0966 15.7415ZM39.1378 8.64205L35.8139 8.84659C35.7571 8.5625 35.6349 8.30682 35.4474 8.07955C35.2599 7.84659 35.0128 7.66193 34.706 7.52557C34.4048 7.38352 34.044 7.3125 33.6236 7.3125C33.0611 7.3125 32.5866 7.43182 32.2003 7.67045C31.8139 7.90341 31.6207 8.21591 31.6207 8.60795C31.6207 8.92045 31.7457 9.18466 31.9957 9.40057C32.2457 9.61648 32.6747 9.78977 33.2827 9.92045L35.652 10.3977C36.9247 10.6591 37.8736 11.0795 38.4986 11.6591C39.1236 12.2386 39.4361 13 39.4361 13.9432C39.4361 14.8011 39.1832 15.554 38.6776 16.2017C38.1776 16.8494 37.4901 17.3551 36.6151 17.7188C35.7457 18.0767 34.7429 18.2557 33.6065 18.2557C31.8736 18.2557 30.4929 17.8949 29.4645 17.1733C28.4418 16.446 27.8423 15.4574 27.6662 14.2074L31.2372 14.0199C31.3452 14.5483 31.6065 14.9517 32.0213 15.2301C32.4361 15.5028 32.9673 15.6392 33.6151 15.6392C34.2514 15.6392 34.7628 15.517 35.1491 15.2727C35.5412 15.0227 35.7401 14.7017 35.7457 14.3097C35.7401 13.9801 35.6009 13.7102 35.3281 13.5C35.0554 13.2841 34.6349 13.1193 34.0668 13.0057L31.7997 12.554C30.5213 12.2983 29.5696 11.8551 28.9446 11.2244C28.3253 10.5937 28.0156 9.78977 28.0156 8.8125C28.0156 7.97159 28.2429 7.24716 28.6974 6.6392C29.1577 6.03125 29.8026 5.5625 30.6321 5.23295C31.4673 4.90341 32.4446 4.73864 33.5639 4.73864C35.2173 4.73864 36.5185 5.08807 37.4673 5.78693C38.4219 6.4858 38.9787 7.4375 39.1378 8.64205ZM48.6854 4.90909V7.63636H40.8018V4.90909H48.6854ZM42.5916 1.77273H46.2223V13.9773C46.2223 14.3125 46.2734 14.5739 46.3757 14.7614C46.478 14.9432 46.62 15.071 46.8018 15.1449C46.9893 15.2187 47.2053 15.2557 47.4496 15.2557C47.62 15.2557 47.7905 15.2415 47.9609 15.2131C48.1314 15.179 48.2621 15.1534 48.353 15.1364L48.924 17.8381C48.7422 17.8949 48.4865 17.9602 48.157 18.0341C47.8274 18.1136 47.4268 18.1619 46.9553 18.179C46.0803 18.2131 45.3132 18.0966 44.6541 17.8295C44.0007 17.5625 43.4922 17.1477 43.1286 16.5852C42.7649 16.0227 42.5859 15.3125 42.5916 14.4545V1.77273ZM54.6811 10.4318V18H51.0504V4.90909H54.5107V7.21875H54.6641C54.9538 6.45739 55.4396 5.85511 56.1214 5.41193C56.8033 4.96307 57.63 4.73864 58.6016 4.73864C59.5107 4.73864 60.3033 4.9375 60.9794 5.33523C61.6555 5.73295 62.1811 6.30114 62.5561 7.03977C62.9311 7.77273 63.1186 8.64773 63.1186 9.66477V18H59.4879V10.3125C59.4936 9.51136 59.2891 8.88636 58.8743 8.4375C58.4595 7.98295 57.8885 7.75568 57.1612 7.75568C56.6726 7.75568 56.2408 7.8608 55.8658 8.07102C55.4964 8.28125 55.2067 8.58807 54.9964 8.99148C54.7919 9.3892 54.6868 9.86932 54.6811 10.4318Z" fill="white"/>
</svg>
