<svg width="1332" height="874" viewBox="0 0 1332 874" fill="none" xmlns="http://www.w3.org/2000/svg">
<path d="M1208.57 226.79L1208.57 31C1208.57 14.4315 1222 1.00001 1238.57 1.00001L1396 1.00001" stroke="white" stroke-width="1.5" stroke-linecap="square" stroke-linejoin="round"/>
<path d="M1196.57 215.753C1203.29 215.753 1208.74 221.44 1208.74 228.457" stroke="#FDFAF1" stroke-width="1.5"/>
<path d="M1208.74 228.456C1208.74 221.44 1214.19 215.752 1220.91 215.752" stroke="#FDFAF1" stroke-width="1.5"/>
<path d="M887.686 299.044C894.405 299.044 899.852 304.732 899.852 311.748" stroke="#FDFAF1" stroke-width="1.5"/>
<path d="M899.854 311.747C899.854 304.731 905.301 299.043 912.02 299.043" stroke="#FDFAF1" stroke-width="1.5"/>
<path d="M900.681 145.796C901.302 145.796 901.805 145.293 901.805 144.673C901.805 144.053 901.302 143.55 900.681 143.55C900.06 143.55 899.557 144.053 899.557 144.673C899.557 145.293 900.06 145.796 900.681 145.796Z" fill="#FDFAF1" stroke="#FDFAF1" stroke-width="1.75"/>
<ellipse cx="1.99815" cy="1.99927" rx="1.99815" ry="1.99927" transform="matrix(4.37357e-08 1 1 -4.36871e-08 629.781 238.586)" fill="#FDFAF1"/>
<path d="M900.681 169.774C901.302 169.774 901.805 169.271 901.805 168.651C901.805 168.031 901.302 167.528 900.681 167.528C900.06 167.528 899.557 168.031 899.557 168.651C899.557 169.271 900.06 169.774 900.681 169.774Z" fill="#FDFAF1" stroke="#FDFAF1" stroke-width="1.75"/>
<ellipse cx="1.99815" cy="1.99927" rx="1.99815" ry="1.99927" transform="matrix(4.37357e-08 1 1 -4.36871e-08 629.781 259.567)" fill="#FDFAF1"/>
<path d="M900.681 191.754C901.302 191.754 901.805 191.25 901.805 190.63C901.805 190.011 901.302 189.507 900.681 189.507C900.06 189.507 899.557 190.011 899.557 190.63C899.557 191.25 900.06 191.754 900.681 191.754Z" fill="#FDFAF1" stroke="#FDFAF1" stroke-width="1.75"/>
<ellipse cx="1.99815" cy="1.99927" rx="1.99815" ry="1.99927" transform="matrix(4.37357e-08 1 1 -4.36871e-08 629.781 280.547)" fill="#FDFAF1"/>
<path d="M1188.58 43.8904C1189.2 43.8904 1189.7 43.387 1189.7 42.7672C1189.7 42.1474 1189.2 41.644 1188.58 41.644C1187.95 41.644 1187.45 42.1474 1187.45 42.7672C1187.45 43.387 1187.95 43.8904 1188.58 43.8904Z" fill="#FDFAF1" stroke="#FDFAF1" stroke-width="1.75"/>
<ellipse cx="1.99815" cy="1.99927" rx="1.99815" ry="1.99927" transform="matrix(4.37357e-08 1 1 -4.36871e-08 629.781 306.523)" fill="#FDFAF1"/>
<path d="M1188.58 69.8664C1189.2 69.8664 1189.7 69.3631 1189.7 68.7433C1189.7 68.1234 1189.2 67.6201 1188.58 67.6201C1187.95 67.6201 1187.45 68.1234 1187.45 68.7433C1187.45 69.3631 1187.95 69.8664 1188.58 69.8664Z" fill="#FDFAF1" stroke="#FDFAF1" stroke-width="1.75"/>
<path d="M1188.58 95.842C1189.2 95.842 1189.7 95.3387 1189.7 94.7189C1189.7 94.099 1189.2 93.5957 1188.58 93.5957C1187.95 93.5957 1187.45 94.099 1187.45 94.7189C1187.45 95.3387 1187.95 95.842 1188.58 95.842Z" fill="#FDFAF1" stroke="#FDFAF1" stroke-width="1.75"/>
<path d="M1188.58 121.818C1189.2 121.818 1189.7 121.315 1189.7 120.695C1189.7 120.075 1189.2 119.572 1188.58 119.572C1187.95 119.572 1187.45 120.075 1187.45 120.695C1187.45 121.315 1187.95 121.818 1188.58 121.818Z" fill="#FDFAF1" stroke="#FDFAF1" stroke-width="1.75"/>
<path d="M1155.46 625.229C1155.46 625.849 1155.97 626.352 1156.59 626.352C1157.21 626.352 1157.71 625.849 1157.71 625.229C1157.71 624.609 1157.21 624.106 1156.59 624.106C1155.97 624.106 1155.46 624.609 1155.46 625.229Z" fill="#FDFAF1" stroke="#FDFAF1" stroke-width="1.75"/>
<path d="M1139.47 625.229C1139.47 625.849 1139.97 626.352 1140.59 626.352C1141.22 626.352 1141.72 625.849 1141.72 625.229C1141.72 624.609 1141.22 624.106 1140.59 624.106C1139.97 624.106 1139.47 624.609 1139.47 625.229Z" fill="#FDFAF1" stroke="#FDFAF1" stroke-width="1.75"/>
<path d="M1123.48 625.229C1123.48 625.849 1123.98 626.352 1124.6 626.352C1125.22 626.352 1125.72 625.849 1125.72 625.229C1125.72 624.609 1125.22 624.106 1124.6 624.106C1123.98 624.106 1123.48 624.609 1123.48 625.229Z" fill="#FDFAF1" stroke="#FDFAF1" stroke-width="1.75"/>
<path d="M1107.48 625.229C1107.48 625.849 1107.98 626.352 1108.61 626.352C1109.23 626.352 1109.73 625.849 1109.73 625.229C1109.73 624.609 1109.23 624.106 1108.61 624.106C1107.98 624.106 1107.48 624.609 1107.48 625.229Z" fill="#FDFAF1" stroke="#FDFAF1" stroke-width="1.75"/>
<path d="M1091.49 625.229C1091.49 625.849 1091.99 626.352 1092.61 626.352C1093.23 626.352 1093.74 625.849 1093.74 625.229C1093.74 624.609 1093.23 624.106 1092.61 624.106C1091.99 624.106 1091.49 624.609 1091.49 625.229Z" fill="#FDFAF1" stroke="#FDFAF1" stroke-width="1.75"/>
<path d="M904.681 603.373C905.302 603.373 905.805 602.87 905.805 602.25C905.805 601.63 905.302 601.127 904.681 601.127C904.06 601.127 903.557 601.63 903.557 602.25C903.557 602.87 904.06 603.373 904.681 603.373Z" fill="#FDFAF1" stroke="#FDFAF1" stroke-width="1.75"/>
<path d="M904.681 620.358C905.302 620.358 905.805 619.854 905.805 619.234C905.805 618.615 905.302 618.111 904.681 618.111C904.06 618.111 903.557 618.615 903.557 619.234C903.557 619.854 904.06 620.358 904.681 620.358Z" fill="#FDFAF1" stroke="#FDFAF1" stroke-width="1.75"/>
<path d="M904.681 637.342C905.302 637.342 905.805 636.839 905.805 636.219C905.805 635.599 905.302 635.096 904.681 635.096C904.06 635.096 903.557 635.599 903.557 636.219C903.557 636.839 904.06 637.342 904.681 637.342Z" fill="#FDFAF1" stroke="#FDFAF1" stroke-width="1.75"/>
<path d="M904.681 654.326C905.302 654.326 905.805 653.823 905.805 653.203C905.805 652.583 905.302 652.08 904.681 652.08C904.06 652.08 903.557 652.583 903.557 653.203C903.557 653.823 904.06 654.326 904.681 654.326Z" fill="#FDFAF1" stroke="#FDFAF1" stroke-width="1.75"/>
<path d="M1074.62 390.98H1229.55C1240.6 390.98 1249.55 399.935 1249.55 410.98V675.183" stroke="white" stroke-width="1.5" stroke-linecap="round" stroke-linejoin="round"/>
<path d="M1010.64 450.391H897.689C886.644 450.391 877.689 459.345 877.689 470.391V472.352C877.689 483.398 886.644 492.352 897.689 492.352H950.445C959.908 492.352 967.58 500.023 967.58 509.486V509.486C967.58 519.027 959.787 526.73 950.247 526.619L896.529 525.996C888.234 525.9 881.457 532.598 881.457 540.894V540.894C881.457 549.123 888.128 555.793 896.357 555.793H954.94C964.596 555.793 972.424 563.621 972.424 573.277V573.277C972.424 582.933 964.596 590.761 954.94 590.761H901.457C890.412 590.761 881.457 599.715 881.457 610.761V708.152" stroke="#FDFAF1" stroke-width="1.5" stroke-linecap="round" stroke-linejoin="round"/>
<path d="M630.798 320.998V338.742L574.126 368.452L698.612 408.066L595.923 444.792L709.752 496.373L630.798 531.448V603.248H50.9941" stroke="white" stroke-width="1.5" stroke-linecap="round" stroke-linejoin="round"/>
<path d="M1125.1 104.71H1072.62H927.657C912.759 104.71 900.682 116.787 900.682 131.685V131.685" stroke="white" stroke-width="1.5" stroke-linecap="round" stroke-linejoin="round"/>
<path d="M791.439 218.445V207.482C791.439 190.914 778.008 177.482 761.439 177.482H645.205C637.516 177.482 631.283 183.715 631.283 191.404V191.404V225.099" stroke="white" stroke-width="1.5" stroke-linecap="round" stroke-linejoin="round"/>
<path d="M50.9934 603.249V603.249C41.0559 603.249 33 611.305 33 621.242V630.931V832.537V856.515" stroke="white" stroke-width="1.5" stroke-linecap="round" stroke-linejoin="round"/>
<path d="M881.457 708.152V708.152C881.457 715.05 875.866 720.641 868.969 720.641H683.771C667.203 720.641 653.771 734.072 653.771 750.641V858.014" stroke="white" stroke-width="1.5" stroke-linecap="round" stroke-linejoin="round"/>
<path d="M1249.55 675.183V675.183C1249.55 682.08 1243.96 687.671 1237.07 687.671H1058.63C1042.07 687.671 1028.63 701.103 1028.63 717.671V825.044V873" stroke="white" stroke-width="1.5" stroke-linecap="round" stroke-linejoin="round"/>
<path d="M957.663 352.48C957.663 360.09 956.163 367.625 953.249 374.656C950.335 381.686 946.065 388.074 940.681 393.455C935.297 398.836 928.906 403.104 921.871 406.016C914.837 408.928 907.298 410.427 899.684 410.427C892.07 410.427 884.531 408.928 877.496 406.016C870.462 403.104 864.07 398.835 858.687 393.455C853.303 388.074 849.032 381.686 846.118 374.656C843.205 367.625 841.705 360.09 841.705 352.48L899.684 352.48L957.663 352.48Z" fill="#EF8435"/>
<mask id="path-35-inside-1_3351_320538" fill="white">
<path d="M953.158 349.105C953.158 356.271 951.745 363.367 949.001 369.988C946.257 376.609 942.236 382.625 937.165 387.692C932.095 392.759 926.076 396.779 919.451 399.521C912.827 402.264 905.727 403.675 898.556 403.675C891.386 403.675 884.286 402.264 877.661 399.521C871.037 396.779 865.018 392.759 859.947 387.692C854.877 382.625 850.855 376.609 848.111 369.988C845.367 363.367 843.955 356.271 843.955 349.105L898.556 349.105L953.158 349.105Z"/>
</mask>
<path d="M953.158 349.105C953.158 356.271 951.745 363.367 949.001 369.988C946.257 376.609 942.236 382.625 937.165 387.692C932.095 392.759 926.076 396.779 919.451 399.521C912.827 402.264 905.727 403.675 898.556 403.675C891.386 403.675 884.286 402.264 877.661 399.521C871.037 396.779 865.018 392.759 859.947 387.692C854.877 382.625 850.855 376.609 848.111 369.988C845.367 363.367 843.955 356.271 843.955 349.105L898.556 349.105L953.158 349.105Z" stroke="white" stroke-width="2.27138" mask="url(#path-35-inside-1_3351_320538)"/>
<ellipse cx="32.0853" cy="32.0674" rx="32.0853" ry="32.0674" transform="matrix(-1 0 0 1 931.77 326.04)" fill="#5C2860"/>
<path d="M1152.5 499.974H1140.79C1120.76 499.974 1104.52 516.216 1104.52 536.251V571.699H1116.22C1136.26 571.699 1152.5 555.457 1152.5 535.421V499.974Z" fill="#4AA35C"/>
<path d="M1148.6 495.012H1137.48C1117.79 495.012 1101.84 510.971 1101.84 530.657V565.473H1112.96C1132.64 565.473 1148.6 549.515 1148.6 529.829V495.012Z" stroke="white" stroke-width="1.1139"/>
<path d="M1068.73 499.974H1080.44C1100.47 499.974 1116.72 516.216 1116.72 536.251V571.699H1105.01C1084.98 571.699 1068.73 555.457 1068.73 535.421V499.974Z" fill="#EBBE52"/>
<path d="M1068.73 499.974H1080.44C1100.47 499.974 1116.72 516.216 1116.72 536.251V571.699H1105.01C1084.98 571.699 1068.73 555.457 1068.73 535.421V499.974Z" fill="#EBBE52"/>
<path d="M1065.15 510.52H1069.99C1091.85 510.52 1109.57 528.241 1109.57 550.101V577.758H1104.73C1082.87 577.758 1065.15 560.037 1065.15 538.177V510.52Z" stroke="white" stroke-width="1.2369"/>
<ellipse cx="47.6197" cy="47.9557" rx="47.6197" ry="47.9557" transform="matrix(-1 0 0 1 1260.01 260.16)" fill="#EBBE52"/>
<path d="M1158.61 308.114C1158.61 332.422 1178.18 352.121 1202.31 352.121C1226.43 352.121 1246 332.422 1246 308.114C1246 283.806 1226.43 264.107 1202.31 264.107C1178.18 264.107 1158.61 283.806 1158.61 308.114Z" stroke="white" stroke-width="1.12724"/>
<ellipse cx="35.4808" cy="34.9677" rx="35.4808" ry="34.9677" transform="matrix(-1 0 0 1 815.713 237.486)" fill="#4AA35C"/>
<path d="M740.156 272.455C740.156 290.169 754.728 304.54 772.717 304.54C790.706 304.54 805.278 290.169 805.278 272.455C805.278 254.742 790.706 240.371 772.717 240.371C754.728 240.371 740.156 254.742 740.156 272.455Z" stroke="white" stroke-width="0.830601"/>
<path d="M1057.3 171.796L998.674 241.4L1088.49 257.178L1057.3 171.796Z" fill="#5C2860"/>
<path d="M1091.87 249.479L1065.09 176.177L1014.76 235.933L1091.87 249.479Z" stroke="white" stroke-width="0.990221"/>
<path d="M899.682 309.521V206.616" stroke="white" stroke-width="1.5"/>
<circle cx="33" cy="686" r="33" fill="#EF8435"/>
<path d="M15.456 691.24C14.3893 691.24 13.5227 691 12.856 690.52C12.1893 690.04 11.784 689.365 11.64 688.496L13.608 688.192C13.7093 688.619 13.9333 688.955 14.28 689.2C14.6267 689.445 15.064 689.568 15.592 689.568C16.056 689.568 16.4133 689.477 16.664 689.296C16.92 689.109 17.048 688.856 17.048 688.536C17.048 688.339 17 688.181 16.904 688.064C16.8133 687.941 16.6107 687.824 16.296 687.712C15.9813 687.6 15.4987 687.459 14.848 687.288C14.1227 687.096 13.5467 686.891 13.12 686.672C12.6933 686.448 12.3867 686.184 12.2 685.88C12.0133 685.576 11.92 685.208 11.92 684.776C11.92 684.237 12.0613 683.768 12.344 683.368C12.6267 682.968 13.0213 682.661 13.528 682.448C14.0347 682.229 14.632 682.12 15.32 682.12C15.992 682.12 16.5867 682.224 17.104 682.432C17.6267 682.64 18.048 682.936 18.368 683.32C18.688 683.704 18.8853 684.155 18.96 684.672L16.992 685.024C16.944 684.656 16.776 684.365 16.488 684.152C16.2053 683.939 15.8267 683.819 15.352 683.792C14.8987 683.765 14.5333 683.835 14.256 684C13.9787 684.16 13.84 684.387 13.84 684.68C13.84 684.845 13.896 684.987 14.008 685.104C14.12 685.221 14.344 685.339 14.68 685.456C15.0213 685.573 15.528 685.717 16.2 685.888C16.888 686.064 17.4373 686.267 17.848 686.496C18.264 686.72 18.5627 686.989 18.744 687.304C18.9307 687.619 19.024 688 19.024 688.448C19.024 689.317 18.7067 690 18.072 690.496C17.4427 690.992 16.5707 691.24 15.456 691.24ZM24.5283 691.24C23.6376 691.24 22.8776 691.043 22.2483 690.648C21.6189 690.248 21.1363 689.704 20.8003 689.016C20.4696 688.328 20.3016 687.549 20.2963 686.68C20.3016 685.795 20.4749 685.011 20.8163 684.328C21.1629 683.64 21.6536 683.101 22.2883 682.712C22.9229 682.317 23.6776 682.12 24.5523 682.12C25.5336 682.12 26.3629 682.368 27.0403 682.864C27.7229 683.355 28.1683 684.027 28.3763 684.88L26.4563 685.4C26.3069 684.936 26.0589 684.576 25.7123 684.32C25.3656 684.059 24.9709 683.928 24.5283 683.928C24.0269 683.928 23.6136 684.048 23.2883 684.288C22.9629 684.523 22.7229 684.848 22.5683 685.264C22.4136 685.68 22.3363 686.152 22.3363 686.68C22.3363 687.501 22.5203 688.165 22.8883 688.672C23.2563 689.179 23.8029 689.432 24.5283 689.432C25.0403 689.432 25.4429 689.315 25.7363 689.08C26.0349 688.845 26.2589 688.507 26.4083 688.064L28.3763 688.504C28.1096 689.384 27.6429 690.061 26.9763 690.536C26.3096 691.005 25.4936 691.24 24.5283 691.24ZM29.9794 691V682.36H31.6834V684.464L31.4754 684.192C31.582 683.904 31.7234 683.643 31.8994 683.408C32.0807 683.168 32.2967 682.971 32.5474 682.816C32.7607 682.672 32.9954 682.56 33.2514 682.48C33.5127 682.395 33.7794 682.344 34.0514 682.328C34.3234 682.307 34.5874 682.317 34.8434 682.36V684.16C34.5874 684.085 34.2914 684.061 33.9554 684.088C33.6247 684.115 33.326 684.208 33.0594 684.368C32.7927 684.512 32.574 684.696 32.4034 684.92C32.238 685.144 32.1154 685.4 32.0354 685.688C31.9554 685.971 31.9154 686.277 31.9154 686.608V691H29.9794ZM40.0298 691.24C39.1658 691.24 38.4111 691.045 37.7658 690.656C37.1204 690.267 36.6191 689.731 36.2618 689.048C35.9098 688.36 35.7338 687.571 35.7338 686.68C35.7338 685.773 35.9151 684.979 36.2778 684.296C36.6404 683.613 37.1444 683.08 37.7898 682.696C38.4351 682.312 39.1818 682.12 40.0298 682.12C40.8991 682.12 41.6564 682.315 42.3018 682.704C42.9471 683.093 43.4484 683.632 43.8058 684.32C44.1631 685.003 44.3418 685.789 44.3418 686.68C44.3418 687.576 44.1604 688.368 43.7978 689.056C43.4404 689.739 42.9391 690.275 42.2938 690.664C41.6484 691.048 40.8938 691.24 40.0298 691.24ZM40.0298 689.432C40.7978 689.432 41.3684 689.176 41.7418 688.664C42.1151 688.152 42.3018 687.491 42.3018 686.68C42.3018 685.843 42.1124 685.176 41.7338 684.68C41.3551 684.179 40.7871 683.928 40.0298 683.928C39.5124 683.928 39.0858 684.045 38.7498 684.28C38.4191 684.509 38.1738 684.832 38.0138 685.248C37.8538 685.659 37.7738 686.136 37.7738 686.68C37.7738 687.517 37.9631 688.187 38.3418 688.688C38.7258 689.184 39.2884 689.432 40.0298 689.432ZM46.2644 691V679.24H48.1924V691H46.2644ZM50.7488 691V679.24H52.6768V691H50.7488Z" fill="white"/>
</svg>
