<svg fill="none" height="876" viewBox="0 0 1332 876" width="1332" xmlns="http://www.w3.org/2000/svg" xmlns:xlink="http://www.w3.org/1999/xlink"><mask id="a" fill="#fff"><path d="m959.666 350.621c0 7.173-1.413 14.276-4.157 20.903s-6.766 12.648-11.836 17.72-11.089 9.095-17.714 11.84c-6.624 2.745-13.724 4.158-20.895 4.158-7.17 0-14.27-1.413-20.895-4.158-6.624-2.745-12.644-6.768-17.714-11.84s-9.092-11.093-11.836-17.72-4.156-13.73-4.156-20.903h54.601z" fill="#fff"/></mask><path d="m1208.57 226v-195c0-16.5685 13.43-29.99999 30-29.99999h157.43" stroke="#222" stroke-linecap="square" stroke-linejoin="round" stroke-width="1.5"/><path d="m1196.57 215.001c6.72 0 12.17 5.667 12.17 12.659" stroke="#000" stroke-width="1.5"/><path d="m1208.74 227.66c0-6.992 5.45-12.66 12.17-12.66" stroke="#000" stroke-width="1.5"/><path d="m887.686 298.001c6.719 0 12.166 5.667 12.166 12.659" stroke="#000" stroke-width="1.5"/><path d="m899.854 310.66c0-6.992 5.447-12.66 12.166-12.66" stroke="#000" stroke-width="1.5"/><g fill="#000"><path d="m900.681 147.125c.621 0 1.124-.503 1.124-1.125s-.503-1.125-1.124-1.125-1.124.503-1.124 1.125.503 1.125 1.124 1.125z" stroke="#000" stroke-width="1.75"/><ellipse cx="2" cy="1.99927" rx="2" ry="1.99927" transform="matrix(.00000004 1 1 -.00000004 629.781 240)"/><path d="m900.681 171.125c.621 0 1.124-.503 1.124-1.125s-.503-1.125-1.124-1.125-1.124.503-1.124 1.125.503 1.125 1.124 1.125z" stroke="#000" stroke-width="1.75"/><ellipse cx="2" cy="1.99927" rx="2" ry="1.99927" transform="matrix(.00000004 1 1 -.00000004 629.781 261)"/><path d="m900.681 193.125c.621 0 1.124-.503 1.124-1.125s-.503-1.125-1.124-1.125-1.124.503-1.124 1.125.503 1.125 1.124 1.125z" stroke="#000" stroke-width="1.75"/><ellipse cx="2" cy="1.99927" rx="2" ry="1.99927" transform="matrix(.00000004 1 1 -.00000004 629.781 282)"/><path d="m1188.58 45.125c.62 0 1.12-.5034 1.12-1.125s-.5-1.125-1.12-1.125c-.63 0-1.13.5034-1.13 1.125s.5 1.125 1.13 1.125z" stroke="#000" stroke-width="1.75"/><ellipse cx="2" cy="1.99927" rx="2" ry="1.99927" transform="matrix(.00000004 1 1 -.00000004 629.781 308)"/><path d="m1188.58 71.125c.62 0 1.12-.5034 1.12-1.125s-.5-1.125-1.12-1.125c-.63 0-1.13.5034-1.13 1.125s.5 1.125 1.13 1.125z" stroke="#000" stroke-width="1.75"/><path d="m1188.58 97.125c.62 0 1.12-.5034 1.12-1.125s-.5-1.125-1.12-1.125c-.63 0-1.13.5034-1.13 1.125s.5 1.125 1.13 1.125z" stroke="#000" stroke-width="1.75"/><path d="m1188.58 123.125c.62 0 1.12-.503 1.12-1.125s-.5-1.125-1.12-1.125c-.63 0-1.13.503-1.13 1.125s.5 1.125 1.13 1.125z" stroke="#000" stroke-width="1.75"/><path d="m1155.46 627c0 .622.51 1.125 1.13 1.125s1.12-.503 1.12-1.125-.5-1.125-1.12-1.125-1.13.503-1.13 1.125z" stroke="#000" stroke-width="1.75"/><path d="m1139.47 627c0 .622.5 1.125 1.12 1.125.63 0 1.13-.503 1.13-1.125s-.5-1.125-1.13-1.125c-.62 0-1.12.503-1.12 1.125z" stroke="#000" stroke-width="1.75"/><path d="m1123.48 627c0 .622.5 1.125 1.12 1.125s1.12-.503 1.12-1.125-.5-1.125-1.12-1.125-1.12.503-1.12 1.125z" stroke="#000" stroke-width="1.75"/><path d="m1107.48 627c0 .622.51 1.125 1.13 1.125s1.12-.503 1.12-1.125-.5-1.125-1.12-1.125-1.13.503-1.13 1.125z" stroke="#000" stroke-width="1.75"/><path d="m1091.49 627c0 .622.5 1.125 1.12 1.125s1.13-.503 1.13-1.125-.51-1.125-1.13-1.125-1.12.503-1.12 1.125z" stroke="#000" stroke-width="1.75"/><path d="m904.681 605.125c.621 0 1.124-.503 1.124-1.125s-.503-1.125-1.124-1.125-1.124.503-1.124 1.125.503 1.125 1.124 1.125z" stroke="#000" stroke-width="1.75"/><path d="m904.681 622.125c.621 0 1.124-.503 1.124-1.125s-.503-1.125-1.124-1.125-1.124.503-1.124 1.125.503 1.125 1.124 1.125z" stroke="#000" stroke-width="1.75"/><path d="m904.681 639.125c.621 0 1.124-.503 1.124-1.125s-.503-1.125-1.124-1.125-1.124.503-1.124 1.125.503 1.125 1.124 1.125z" stroke="#000" stroke-width="1.75"/><path d="m904.681 656.125c.621 0 1.124-.503 1.124-1.125s-.503-1.125-1.124-1.125-1.124.503-1.124 1.125.503 1.125 1.124 1.125z" stroke="#000" stroke-width="1.75"/></g><path d="m1074.62 392.535h154.93c11.05 0 20 8.954 20 20v264.465" stroke="#222" stroke-linecap="round" stroke-linejoin="round" stroke-width="1.5"/><path d="m1010.64 452h-112.951c-11.045 0-20 8.954-20 20v2c0 11.046 8.955 20 20 20h52.741c9.471 0 17.15 7.678 17.15 17.15 0 9.549-7.801 17.259-17.349 17.149l-53.688-.624c-8.303-.096-15.086 6.608-15.086 14.912 0 8.236 6.677 14.913 14.913 14.913h58.554c9.665 0 17.5 7.835 17.5 17.5 0 9.665-7.835 17.5-17.5 17.5h-53.467c-11.045 0-20 8.954-20 20v97.5" stroke="#000" stroke-linecap="round" stroke-linejoin="round" stroke-width="1.5"/><path d="m630.798 322.488v17.76l-56.672 29.738 124.486 39.651-102.689 36.759 113.829 51.629-78.954 35.107v71.867h-579.8039" stroke="#222" stroke-linecap="round" stroke-linejoin="round" stroke-width="1.5"/><path d="m1125.1 106h-52.48-144.938c-14.912 0-27 12.088-27 27" stroke="#222" stroke-linecap="round" stroke-linejoin="round" stroke-width="1.5"/><path d="m791.439 219.84v-11c0-16.569-13.431-30-30-30h-116.221c-7.696 0-13.935 6.239-13.935 13.934v33.727" stroke="#222" stroke-linecap="round" stroke-linejoin="round" stroke-width="1.5"/><path d="m50.9934 605c-9.9375 0-17.9934 8.056-17.9934 17.993v9.714 201.793 24" stroke="#222" stroke-linecap="round" stroke-linejoin="round" stroke-width="1.5"/><path d="m881.457 710c0 6.904-5.596 12.5-12.5 12.5h-185.186c-16.568 0-30 13.431-30 30v107.5" stroke="#222" stroke-linecap="round" stroke-linejoin="round" stroke-width="1.5"/><path d="m1249.55 677c0 6.904-5.59 12.5-12.5 12.5h-178.42c-16.56 0-30 13.431-30 30v107.5 48" stroke="#222" stroke-linecap="round" stroke-linejoin="round" stroke-width="1.5"/><path d="m964.17 354c0 7.617-1.499 15.159-4.413 22.196s-7.184 13.43-12.568 18.816-11.776 9.658-18.81 12.573-14.574 4.415-22.187 4.415c-7.614 0-15.154-1.5-22.188-4.415s-13.426-7.187-18.81-12.573c-5.383-5.386-9.654-11.779-12.568-18.816-2.913-7.037-4.413-14.579-4.413-22.196h57.979z" fill="#ef8435"/><path d="m959.666 350.621c0 7.173-1.413 14.276-4.157 20.903s-6.766 12.648-11.836 17.72-11.089 9.095-17.714 11.84c-6.624 2.745-13.724 4.158-20.895 4.158-7.17 0-14.27-1.413-20.895-4.158-6.624-2.745-12.644-6.768-17.714-11.84s-9.092-11.093-11.836-17.72-4.156-13.73-4.156-20.903h54.601z" mask="url(#a)" stroke="#222" stroke-width="2.27138"/><ellipse cx="32.0853" cy="32.097" fill="#5c2860" rx="32.0853" ry="32.097" transform="matrix(-1 0 0 1 938.277 327.535)"/><path d="m1152.5 501.629h-11.71c-20.03 0-36.27 16.242-36.27 36.277v35.514h11.7c20.04 0 36.28-16.242 36.28-36.277z" fill="#4aa35c"/><path d="m1148.6 496.662h-11.12c-19.69 0-35.64 15.959-35.64 35.645v34.883h11.12c19.68 0 35.64-15.959 35.64-35.645z" stroke="#222" stroke-width="1.1139"/><path d="m1068.73 501.629h11.71c20.03 0 36.28 16.242 36.28 36.277v35.514h-11.71c-20.03 0-36.28-16.242-36.28-36.277z" fill="#ebbe52"/><path d="m1068.73 501.629h11.71c20.03 0 36.28 16.242 36.28 36.277v35.514h-11.71c-20.03 0-36.28-16.242-36.28-36.277z" fill="#ebbe52"/><path d="m1065.15 512.185h4.84c21.86 0 39.58 17.721 39.58 39.581v27.719h-4.84c-21.86 0-39.58-17.72-39.58-39.58z" stroke="#222" stroke-width="1.2369"/><ellipse cx="47.6197" cy="48" fill="#ebbe52" rx="47.6197" ry="48" transform="matrix(-1 0 0 1 1260.01 261.594)"/><path d="m1158.61 309.592c0 24.332 19.57 44.048 43.7 44.048 24.12 0 43.69-19.716 43.69-44.048 0-24.331-19.57-44.048-43.69-44.048-24.13 0-43.7 19.717-43.7 44.048z" stroke="#222" stroke-width="1.12724"/><ellipse cx="35.4808" cy="35" fill="#4aa35c" rx="35.4808" ry="35" transform="matrix(-1 0 0 1 815.713 238.898)"/><path d="m740.156 273.901c0 17.73 14.573 32.114 32.561 32.114s32.561-14.384 32.561-32.114c0-17.731-14.573-32.115-32.561-32.115s-32.561 14.384-32.561 32.115z" stroke="#222" stroke-width=".830601"/><path d="m1057.25 173.148-58.621 69.669 89.811 15.792z" fill="#5c2860"/><path d="m1091.83 250.903-26.78-73.371-50.33 59.813z" stroke="#222" stroke-width=".990221"/><path d="m899.682 311v-103" stroke="#222" stroke-width="1.5"/><circle cx="33" cy="686" fill="#ef8435" r="33"/><path d="m15.456 693.24c-1.0667 0-1.9333-.24-2.6-.72s-1.072-1.155-1.216-2.024l1.968-.304c.1013.427.3253.763.672 1.008s.784.368 1.312.368c.464 0 .8213-.091 1.072-.272.256-.187.384-.44.384-.76 0-.197-.048-.355-.144-.472-.0907-.123-.2933-.24-.608-.352s-.7973-.253-1.448-.424c-.7253-.192-1.3013-.397-1.728-.616-.4267-.224-.7333-.488-.92-.792s-.28-.672-.28-1.104c0-.539.1413-1.008.424-1.408s.6773-.707 1.184-.92c.5067-.219 1.104-.328 1.792-.328.672 0 1.2667.104 1.784.312.5227.208.944.504 1.264.888s.5173.835.592 1.352l-1.968.352c-.048-.368-.216-.659-.504-.872-.2827-.213-.6613-.333-1.136-.36-.4533-.027-.8187.043-1.096.208-.2773.16-.416.387-.416.68 0 .165.056.307.168.424s.336.235.672.352c.3413.117.848.261 1.52.432.688.176 1.2373.379 1.648.608.416.224.7147.493.896.808.1867.315.28.696.28 1.144 0 .869-.3173 1.552-.952 2.048-.6293.496-1.5013.744-2.616.744zm9.0723 0c-.8907 0-1.6507-.197-2.28-.592-.6294-.4-1.112-.944-1.448-1.632-.3307-.688-.4987-1.467-.504-2.336.0053-.885.1786-1.669.52-2.352.3466-.688.8373-1.227 1.472-1.616.6346-.395 1.3893-.592 2.264-.592.9813 0 1.8106.248 2.488.744.6826.491 1.128 1.163 1.336 2.016l-1.92.52c-.1494-.464-.3974-.824-.744-1.08-.3467-.261-.7414-.392-1.184-.392-.5014 0-.9147.12-1.24.36-.3254.235-.5654.56-.72.976-.1547.416-.232.888-.232 1.416 0 .821.184 1.485.552 1.992s.9146.76 1.64.76c.512 0 .9146-.117 1.208-.352.2986-.235.5226-.573.672-1.016l1.968.44c-.2667.88-.7334 1.557-1.4 2.032-.6667.469-1.4827.704-2.448.704zm5.4511-.24v-8.64h1.704v2.104l-.208-.272c.1066-.288.248-.549.424-.784.1813-.24.3973-.437.648-.592.2133-.144.448-.256.704-.336.2613-.085.528-.136.8-.152.272-.021.536-.011.792.032v1.8c-.256-.075-.552-.099-.888-.072-.3307.027-.6294.12-.896.28-.2667.144-.4854.328-.656.552-.1654.224-.288.48-.368.768-.08.283-.12.589-.12.92v4.392zm10.0504.24c-.864 0-1.6187-.195-2.264-.584-.6454-.389-1.1467-.925-1.504-1.608-.352-.688-.528-1.477-.528-2.368 0-.907.1813-1.701.544-2.384.3626-.683.8666-1.216 1.512-1.6.6453-.384 1.392-.576 2.24-.576.8693 0 1.6266.195 2.272.584.6453.389 1.1466.928 1.504 1.616.3573.683.536 1.469.536 2.36 0 .896-.1814 1.688-.544 2.376-.3574.683-.8587 1.219-1.504 1.608-.6454.384-1.4.576-2.264.576zm0-1.808c.768 0 1.3386-.256 1.712-.768.3733-.512.56-1.173.56-1.984 0-.837-.1894-1.504-.568-2-.3787-.501-.9467-.752-1.704-.752-.5174 0-.944.117-1.28.352-.3307.229-.576.552-.736.968-.16.411-.24.888-.24 1.432 0 .837.1893 1.507.568 2.008.384.496.9466.744 1.688.744zm6.2346 1.568v-11.76h1.928v11.76zm4.4844 0v-11.76h1.928v11.76z" fill="#fff"/></svg>