<svg width="1259" height="485" viewBox="0 0 1259 485" fill="none" xmlns="http://www.w3.org/2000/svg">
<path d="M90 94V194V207C90 223.569 103.431 237 120 237H146" stroke="white" stroke-linecap="round" stroke-linejoin="round"/>
<path d="M134 45C134 50.9095 132.836 56.7611 130.575 62.2208C128.313 67.6804 124.998 72.6412 120.82 76.8198C116.641 80.9984 111.68 84.3131 106.221 86.5746C100.761 88.836 94.9095 90 89 90C83.0905 90 77.2389 88.836 71.7792 86.5746C66.3196 84.3131 61.3588 80.9984 57.1802 76.8198C53.0016 72.6412 49.6869 67.6804 47.4254 62.2207C45.164 56.7611 44 50.9095 44 45L89 45L134 45Z" fill="#EF8435"/>
<mask id="path-3-inside-1_2567_309469" fill="white">
<path d="M130.507 42.3792C130.507 47.9444 129.411 53.4552 127.281 58.5968C125.152 63.7384 122.03 68.4102 118.095 72.3454C114.16 76.2806 109.488 79.4022 104.346 81.5319C99.2046 83.6617 93.6939 84.7578 88.1286 84.7578C82.5634 84.7578 77.0526 83.6617 71.911 81.5319C66.7694 79.4022 62.0976 76.2806 58.1624 72.3454C54.2272 68.4102 51.1056 63.7384 48.9759 58.5968C46.8462 53.4552 45.75 47.9444 45.75 42.3792L88.1286 42.3792L130.507 42.3792Z"/>
</mask>
<path d="M130.507 42.3792C130.507 47.9444 129.411 53.4552 127.281 58.5968C125.152 63.7384 122.03 68.4102 118.095 72.3454C114.16 76.2806 109.488 79.4022 104.346 81.5319C99.2046 83.6617 93.6939 84.7578 88.1286 84.7578C82.5634 84.7578 77.0526 83.6617 71.911 81.5319C66.7694 79.4022 62.0976 76.2806 58.1624 72.3454C54.2272 68.4102 51.1056 63.7384 48.9759 58.5968C46.8462 53.4552 45.75 47.9444 45.75 42.3792L88.1286 42.3792L130.507 42.3792Z" stroke="white" stroke-width="1.74757" mask="url(#path-3-inside-1_2567_309469)"/>
<circle cx="24.9029" cy="24.9029" r="24.9029" transform="matrix(-1 0 0 1 113.902 24.4668)" fill="#5C2860"/>
<rect x="1134.46" y="53.0176" width="24.527" height="82.9825" fill="#EBBE52"/>
<rect x="1130.37" y="51.8794" width="23.7838" height="82.2392" stroke="#222222" stroke-width="0.743243"/>
<path d="M1196.89 53.0175C1191.91 53.0175 1186.98 54.0126 1182.38 55.9461C1177.79 57.8796 1173.61 60.7135 1170.09 64.2862C1166.57 67.8588 1163.77 72.1001 1161.87 76.7679C1159.96 81.4358 1158.98 86.4387 1158.98 91.4912C1158.98 96.5436 1159.96 101.547 1161.87 106.214C1163.77 110.882 1166.57 115.124 1170.09 118.696C1173.61 122.269 1177.79 125.103 1182.38 127.036C1186.98 128.97 1191.91 129.965 1196.89 129.965L1196.89 91.4912L1196.89 53.0175Z" fill="#EF8435"/>
<mask id="path-8-inside-2_2567_309469" fill="white">
<path d="M1202.09 49.9999C1197.12 49.9999 1192.19 50.995 1187.59 52.9285C1182.99 54.862 1178.81 57.696 1175.29 61.2686C1171.77 64.8412 1168.98 69.0825 1167.07 73.7503C1165.17 78.4182 1164.19 83.4212 1164.19 88.4736C1164.19 93.526 1165.17 98.529 1167.07 103.197C1168.98 107.865 1171.77 112.106 1175.29 115.679C1178.81 119.251 1182.99 122.085 1187.59 124.019C1192.19 125.952 1197.12 126.947 1202.09 126.947L1202.09 88.4736L1202.09 49.9999Z"/>
</mask>
<path d="M1202.09 49.9999C1197.12 49.9999 1192.19 50.995 1187.59 52.9285C1182.99 54.862 1178.81 57.696 1175.29 61.2686C1171.77 64.8412 1168.98 69.0825 1167.07 73.7503C1165.17 78.4182 1164.19 83.4212 1164.19 88.4736C1164.19 93.526 1165.17 98.529 1167.07 103.197C1168.98 107.865 1171.77 112.106 1175.29 115.679C1178.81 119.251 1182.99 122.085 1187.59 124.019C1192.19 125.952 1197.12 126.947 1202.09 126.947L1202.09 88.4736L1202.09 49.9999Z" stroke="#222222" stroke-width="1.48649" mask="url(#path-8-inside-2_2567_309469)"/>
<path d="M165.5 369L215.296 447.75H115.704L165.5 369Z" fill="#5C2860"/>
<path d="M126.816 441.911L176.074 363.967L225.332 441.911H126.816Z" stroke="white"/>
<ellipse cx="1145.97" cy="388.388" rx="40.5641" ry="40.2515" fill="#EF8435"/>
<path d="M1192.64 386.252C1192.64 408.283 1174.64 426.147 1152.44 426.147C1130.23 426.147 1112.23 408.283 1112.23 386.252C1112.23 364.22 1130.23 346.356 1152.44 346.356C1174.64 346.356 1192.64 364.22 1192.64 386.252Z" stroke="white" stroke-width="0.711538"/>
<path d="M1124.79 395.869L1154.02 441.727H1095.57L1124.79 395.869Z" fill="#5C2860"/>
<path d="M1086.17 446.358L1114.74 401.517L1143.32 446.358H1086.17Z" stroke="white" stroke-width="0.711538"/>
<ellipse cx="266.5" cy="246" rx="10.5" ry="11" fill="#EBBE52"/>
<ellipse cx="272.5" cy="246" rx="10.5" ry="11" stroke="white" stroke-linecap="round" stroke-linejoin="round"/>
<ellipse cx="1112.89" cy="220" rx="10.8889" ry="11" fill="#EBBE52"/>
<path d="M1129.5 220C1129.5 225.804 1124.84 230.5 1119.11 230.5C1113.38 230.5 1108.72 225.804 1108.72 220C1108.72 214.196 1113.38 209.5 1119.11 209.5C1124.84 209.5 1129.5 214.196 1129.5 220Z" stroke="white"/>
<rect x="519" y="103.376" width="83.2844" height="17.9633" fill="#EBBE52"/>
<rect x="525.039" y="101.16" width="82.2844" height="16.9633" stroke="white"/>
<rect x="619.824" y="103.376" width="83.2844" height="17.9633" fill="#5C2860"/>
<rect x="625.867" y="101.16" width="82.2844" height="16.9633" stroke="white"/>
<circle cx="770.479" cy="82.6973" r="14.6972" fill="#4AA35C"/>
<circle cx="765.479" cy="82.6973" r="14.1972" stroke="white"/>
<circle cx="770.35" cy="139.303" r="14.6972" fill="#5C2860"/>
<circle cx="765.35" cy="137.697" r="14.1972" stroke="white"/>
<ellipse cx="2" cy="2" rx="2" ry="2" transform="matrix(-1 0 0 1 214 235)" fill="white" stroke="white" stroke-linecap="round" stroke-linejoin="round"/>
<ellipse cx="2" cy="2" rx="2" ry="2" transform="matrix(-1 0 0 1 195 235)" fill="white" stroke="white" stroke-linecap="round" stroke-linejoin="round"/>
<ellipse cx="2" cy="2" rx="2" ry="2" transform="matrix(-1 0 0 1 176 235)" fill="white" stroke="white" stroke-linecap="round" stroke-linejoin="round"/>
<ellipse cx="2" cy="2" rx="2" ry="2" transform="matrix(-1 0 0 1 157 235)" fill="white" stroke="white" stroke-linecap="round" stroke-linejoin="round"/>
<path d="M998 261H1094.5C1105.82 261 1115 251.822 1115 240.5V240.5" stroke="white" stroke-linecap="round" stroke-linejoin="round"/>
<path d="M1209.5 382.5H1225.5C1242.07 382.5 1255.5 369.069 1255.5 352.5V312.5M1258 194.5V129V114C1258 102.402 1248.6 93 1237 93V93" stroke="white" stroke-linecap="round" stroke-linejoin="round"/>
<path d="M1257 203.125C1256.38 203.125 1255.88 202.621 1255.88 202C1255.88 201.379 1256.38 200.875 1257 200.875C1257.62 200.875 1258.12 201.379 1258.12 202C1258.12 202.621 1257.62 203.125 1257 203.125Z" fill="#D9D9D9" stroke="white" stroke-width="1.75"/>
<path d="M1257 283.125C1256.38 283.125 1255.88 282.621 1255.88 282C1255.88 281.379 1256.38 280.875 1257 280.875C1257.62 280.875 1258.12 281.379 1258.12 282C1258.12 282.621 1257.62 283.125 1257 283.125Z" fill="#D9D9D9" stroke="white" stroke-width="1.75"/>
<path d="M1257 222.125C1256.38 222.125 1255.88 221.621 1255.88 221C1255.88 220.379 1256.38 219.875 1257 219.875C1257.62 219.875 1258.12 220.379 1258.12 221C1258.12 221.621 1257.62 222.125 1257 222.125Z" fill="#D9D9D9" stroke="white" stroke-width="1.75"/>
<path d="M1257 302.125C1256.38 302.125 1255.88 301.621 1255.88 301C1255.88 300.379 1256.38 299.875 1257 299.875C1257.62 299.875 1258.12 300.379 1258.12 301C1258.12 301.621 1257.62 302.125 1257 302.125Z" fill="#D9D9D9" stroke="white" stroke-width="1.75"/>
<path d="M1257 241.125C1256.38 241.125 1255.88 240.621 1255.88 240C1255.88 239.379 1256.38 238.875 1257 238.875C1257.62 238.875 1258.12 239.379 1258.12 240C1258.12 240.621 1257.62 241.125 1257 241.125Z" fill="#D9D9D9" stroke="white" stroke-width="1.75"/>
<path d="M1257 260.125C1256.38 260.125 1255.88 259.621 1255.88 259C1255.88 258.379 1256.38 257.875 1257 257.875C1257.62 257.875 1258.12 258.379 1258.12 259C1258.12 259.621 1257.62 260.125 1257 260.125Z" fill="#D9D9D9" stroke="white" stroke-width="1.75"/>
<circle cx="10.5" cy="337.5" r="10.5" fill="#4AA35C"/>
<circle cx="15.5" cy="335.5" r="10.5" stroke="white" stroke-linecap="round" stroke-linejoin="round"/>
</svg>
