<svg width="94" height="91" viewBox="0 0 94 91" fill="none" xmlns="http://www.w3.org/2000/svg">
<ellipse cx="24.2298" cy="23.9354" rx="24.2298" ry="23.9354" transform="matrix(0.340254 -0.940334 0.939045 0.343793 8.14258 58.3799)" fill="#EBBE52"/>
<path d="M65.5454 39.7588C65.5454 52.876 55.0205 63.501 42.0481 63.501C29.0757 63.501 18.5508 52.876 18.5508 39.7588C18.5508 26.6415 29.0757 16.0166 42.0481 16.0166C55.0205 16.0166 65.5454 26.6415 65.5454 39.7588Z" stroke="white"/>
<path d="M51.1267 50.6428L73.6608 53.599L57.934 72.4516L51.1267 50.6428Z" fill="#5C2860"/>
<ellipse cx="72.2197" cy="73.2989" rx="2.51463" ry="2.52941" fill="#EF8435"/>
<ellipse cx="72.2197" cy="85.63" rx="2.51463" ry="2.52941" fill="#EF8435"/>
<rect x="76.6191" y="71.0859" width="17.2881" height="4.11029" fill="#EF8435"/>
<rect x="76.6191" y="83.417" width="17.2881" height="4.74264" fill="#EF8435"/>
</svg>
