<svg width="709" height="327" viewBox="0 0 709 327" fill="none" xmlns="http://www.w3.org/2000/svg">
<path d="M675.438 300.913L691.099 309.862L706.76 300.913L691.099 291.964L675.438 300.913Z" stroke="#D9D9D9" stroke-width="2.23729" stroke-linecap="round" stroke-linejoin="round"/>
<path d="M675.438 306.507L691.099 315.456L706.76 306.507" stroke="#D9D9D9" stroke-width="2.23729" stroke-linecap="round" stroke-linejoin="round"/>
<path d="M3.35938 298.06C3.35938 298.06 7.83395 291.796 14.5458 291.796C29.0882 291.796 27.9695 314.169 14.5458 314.169C5.59666 314.169 5.59666 300.745 19.0204 300.745C27.9695 300.745 33.5628 307.457 33.5628 307.457" stroke="#D9D9D9" stroke-width="2.23729" stroke-linecap="round" stroke-linejoin="round"/>
<path d="M13.3918 205.456C15.5542 205.456 17.3071 203.704 17.3071 201.541C17.3071 199.379 15.5542 197.626 13.3918 197.626C11.2295 197.626 9.47656 199.379 9.47656 201.541C9.47656 203.704 11.2295 205.456 13.3918 205.456Z" stroke="#D9D9D9" stroke-width="2.23729" stroke-linecap="round" stroke-linejoin="round"/>
<path d="M13.3918 219.998C15.5542 219.998 17.3071 218.246 17.3071 216.083C17.3071 213.921 15.5542 212.168 13.3918 212.168C11.2295 212.168 9.47656 213.921 9.47656 216.083C9.47656 218.246 11.2295 219.998 13.3918 219.998Z" stroke="#D9D9D9" stroke-width="2.23729" stroke-linecap="round" stroke-linejoin="round"/>
<path d="M24.0133 208.812L16.6172 213.873" stroke="#D9D9D9" stroke-width="2.23729" stroke-linecap="round" stroke-linejoin="round"/>
<path d="M37.4383 199.627L27.9766 206.101" stroke="#D9D9D9" stroke-width="2.23729" stroke-linecap="round" stroke-linejoin="round"/>
<path d="M37.4371 217.997L16.6172 203.752" stroke="#D9D9D9" stroke-width="2.23729" stroke-linecap="round" stroke-linejoin="round"/>
<path d="M702.288 20.1357H679.916C679.298 20.1357 678.797 20.6366 678.797 21.2544V26.8476C678.797 27.4654 679.298 27.9663 679.916 27.9663H702.288C702.906 27.9663 703.407 27.4654 703.407 26.8476V21.2544C703.407 20.6366 702.906 20.1357 702.288 20.1357Z" stroke="#D9D9D9" stroke-width="2.23729" stroke-linecap="round" stroke-linejoin="round"/>
<path d="M702.288 7.83008H679.916C679.298 7.83008 678.797 8.33091 678.797 8.94872V14.5419C678.797 15.1598 679.298 15.6606 679.916 15.6606H702.288C702.906 15.6606 703.407 15.1598 703.407 14.5419V8.94872C703.407 8.33091 702.906 7.83008 702.288 7.83008Z" stroke="#D9D9D9" stroke-width="2.23729" stroke-linecap="round" stroke-linejoin="round"/>
<path d="M404.727 212.168V225.592" stroke="#D9D9D9" stroke-width="2.23729" stroke-linecap="round" stroke-linejoin="round"/>
<path d="M404.726 212.168C406.271 212.168 407.523 210.916 407.523 209.372C407.523 207.827 406.271 206.575 404.726 206.575C403.182 206.575 401.93 207.827 401.93 209.372C401.93 210.916 403.182 212.168 404.726 212.168Z" stroke="#D9D9D9" stroke-width="2.23729" stroke-linecap="round" stroke-linejoin="round"/>
<path d="M396.898 200.981V195.388C396.898 195.091 397.016 194.807 397.226 194.597C397.436 194.387 397.72 194.27 398.017 194.27H411.441C411.737 194.27 412.022 194.387 412.232 194.597C412.442 194.807 412.559 195.091 412.559 195.388V200.981" stroke="#D9D9D9" stroke-width="2.23729" stroke-linecap="round" stroke-linejoin="round"/>
<path d="M396.891 200.981L393.061 208.732C392.97 208.916 392.932 209.122 392.95 209.326C392.968 209.53 393.041 209.726 393.163 209.891L404.721 225.592L416.279 209.891C416.401 209.726 416.474 209.53 416.492 209.326C416.51 209.122 416.472 208.916 416.381 208.732L412.552 200.981H396.891Z" stroke="#D9D9D9" stroke-width="2.23729" stroke-linecap="round" stroke-linejoin="round"/>
<path d="M307.593 213.287C309.138 213.287 310.39 212.034 310.39 210.49C310.39 208.945 309.138 207.693 307.593 207.693C306.049 207.693 304.797 208.945 304.797 210.49C304.797 212.034 306.049 213.287 307.593 213.287Z" stroke="#D9D9D9" stroke-width="2.23729" stroke-linecap="round" stroke-linejoin="round"/>
<path d="M295.852 222.237L305.619 212.469" stroke="#D9D9D9" stroke-width="2.23729" stroke-linecap="round" stroke-linejoin="round"/>
<path d="M295.852 222.236L315.35 218.986C315.544 218.954 315.726 218.871 315.877 218.746C316.029 218.621 316.145 218.459 316.214 218.275L319.343 209.931L308.157 198.744L299.812 201.873C299.628 201.942 299.466 202.058 299.341 202.21C299.216 202.362 299.134 202.543 299.101 202.737L295.852 222.236Z" stroke="#D9D9D9" stroke-width="2.23729" stroke-linecap="round" stroke-linejoin="round"/>
<path d="M319.343 209.931L323.026 206.247C323.13 206.144 323.213 206.02 323.269 205.885C323.325 205.749 323.354 205.603 323.354 205.456C323.354 205.31 323.325 205.164 323.269 205.028C323.213 204.893 323.13 204.769 323.026 204.665L313.422 195.061C313.212 194.851 312.928 194.733 312.631 194.733C312.334 194.733 312.05 194.851 311.84 195.061L308.156 198.745" stroke="#D9D9D9" stroke-width="2.23729" stroke-linecap="round" stroke-linejoin="round"/>
<path d="M18.4243 125.66H11.7124C11.4157 125.66 11.1312 125.542 10.9214 125.332C10.7116 125.123 10.5938 124.838 10.5938 124.541V118.293C10.5937 118.146 10.6227 118 10.6789 117.865C10.7351 117.729 10.8175 117.606 10.9214 117.502L27.7011 100.722C27.9108 100.512 28.1954 100.395 28.4921 100.395C28.7887 100.395 29.0733 100.512 29.2831 100.722L35.5316 106.971C35.7414 107.18 35.8592 107.465 35.8592 107.762C35.8592 108.058 35.7414 108.343 35.5316 108.553L18.4243 125.66Z" stroke="#D9D9D9" stroke-width="2.23729" stroke-linecap="round" stroke-linejoin="round"/>
<path d="M24.0156 104.406L31.8461 112.237" stroke="#D9D9D9" stroke-width="2.23729" stroke-linecap="round" stroke-linejoin="round"/>
<path d="M209.338 125.66H202.626C202.33 125.66 202.045 125.542 201.835 125.332C201.626 125.123 201.508 124.838 201.508 124.541V118.293C201.508 118.146 201.537 118 201.593 117.865C201.649 117.729 201.732 117.606 201.835 117.502L218.615 100.722C218.825 100.512 219.109 100.395 219.406 100.395C219.703 100.395 219.987 100.512 220.197 100.722L226.446 106.971C226.655 107.18 226.773 107.465 226.773 107.762C226.773 108.058 226.655 108.343 226.446 108.553L209.338 125.66Z" stroke="#D9D9D9" stroke-width="2.23729" stroke-linecap="round" stroke-linejoin="round"/>
<path d="M214.93 104.406L222.76 112.237" stroke="#D9D9D9" stroke-width="2.23729" stroke-linecap="round" stroke-linejoin="round"/>
<path d="M226.117 125.661H209.337L201.578 117.901" stroke="#D9D9D9" stroke-width="2.23729" stroke-linecap="round" stroke-linejoin="round"/>
<path d="M404.728 126.779C412.142 126.779 418.152 120.769 418.152 113.355C418.152 105.942 412.142 99.9316 404.728 99.9316C397.315 99.9316 391.305 105.942 391.305 113.355C391.305 120.769 397.315 126.779 404.728 126.779Z" stroke="#D9D9D9" stroke-width="2.23729" stroke-linecap="round" stroke-linejoin="round"/>
<path d="M411.439 124.983V120.067L404.727 105.524L398.016 120.067V124.984" stroke="#D9D9D9" stroke-width="2.23729" stroke-linecap="round" stroke-linejoin="round"/>
<path d="M404.727 122.304C404.727 121.414 405.08 120.561 405.709 119.931C406.339 119.302 407.192 118.948 408.082 118.948C408.973 118.948 409.826 119.302 410.455 119.931C411.085 120.561 411.438 121.414 411.438 122.304" stroke="#D9D9D9" stroke-width="2.23729" stroke-linecap="round" stroke-linejoin="round"/>
<path d="M404.727 126.779V122.304C404.727 121.414 404.374 120.561 403.745 119.931C403.115 119.302 402.262 118.948 401.372 118.948C400.482 118.948 399.628 119.302 398.999 119.931C398.369 120.561 398.016 121.414 398.016 122.304" stroke="#D9D9D9" stroke-width="2.23729" stroke-linecap="round" stroke-linejoin="round"/>
<path d="M401.117 113.355H408.345" stroke="#D9D9D9" stroke-width="2.23729" stroke-linecap="round" stroke-linejoin="round"/>
<path d="M113.422 125.66H107.173C106.877 125.66 106.592 125.542 106.382 125.332C106.173 125.123 106.055 124.838 106.055 124.541V118.293C106.055 118.146 106.084 118 106.14 117.865C106.196 117.729 106.278 117.606 106.382 117.502L123.162 100.722C123.372 100.512 123.656 100.395 123.953 100.395C124.25 100.395 124.534 100.512 124.744 100.722L130.993 106.971C131.202 107.18 131.32 107.465 131.32 107.762C131.32 108.058 131.202 108.343 130.993 108.553L114.213 125.332C114.109 125.436 113.986 125.519 113.85 125.575C113.714 125.631 113.569 125.66 113.422 125.66Z" stroke="#D9D9D9" stroke-width="2.23729" stroke-linecap="round" stroke-linejoin="round"/>
<path d="M119.477 104.406L127.307 112.237" stroke="#D9D9D9" stroke-width="2.23729" stroke-linecap="round" stroke-linejoin="round"/>
<path d="M113.813 125.589L106.125 117.901" stroke="#D9D9D9" stroke-width="2.23729" stroke-linecap="round" stroke-linejoin="round"/>
<path d="M304.336 125.66H298.087C297.791 125.66 297.506 125.542 297.296 125.332C297.087 125.123 296.969 124.838 296.969 124.541V118.293C296.969 118.146 296.998 118 297.054 117.865C297.11 117.729 297.193 117.606 297.296 117.502L314.076 100.722C314.286 100.512 314.57 100.395 314.867 100.395C315.164 100.395 315.448 100.512 315.658 100.722L321.907 106.971C322.116 107.18 322.234 107.465 322.234 107.762C322.234 108.058 322.116 108.343 321.907 108.553L305.127 125.332C305.023 125.436 304.9 125.519 304.764 125.575C304.628 125.631 304.483 125.66 304.336 125.66Z" stroke="#D9D9D9" stroke-width="2.23729" stroke-linecap="round" stroke-linejoin="round"/>
<path d="M310.391 104.406L318.221 112.237" stroke="#D9D9D9" stroke-width="2.23729" stroke-linecap="round" stroke-linejoin="round"/>
<path d="M313.75 122.304L319.343 116.711L318.225 112.236" stroke="#D9D9D9" stroke-width="2.23729" stroke-linecap="round" stroke-linejoin="round"/>
<path d="M297.039 117.901L304.727 125.59" stroke="#D9D9D9" stroke-width="2.23729" stroke-linecap="round" stroke-linejoin="round"/>
<path d="M513.476 208.181L500.029 221.628C499.609 222.048 499.04 222.283 498.447 222.283C497.853 222.283 497.284 222.048 496.865 221.628L484.999 209.762C484.791 209.555 484.626 209.308 484.514 209.037C484.402 208.765 484.344 208.474 484.344 208.18C484.344 207.887 484.402 207.596 484.514 207.324C484.626 207.053 484.791 206.806 484.999 206.598L498.446 193.151L513.476 208.181Z" stroke="#D9D9D9" stroke-width="2.23729" stroke-linecap="round" stroke-linejoin="round"/>
<path d="M499.625 209.932C501.169 209.932 502.421 208.68 502.421 207.135C502.421 205.591 501.169 204.339 499.625 204.339C498.08 204.339 496.828 205.591 496.828 207.135C496.828 208.68 498.08 209.932 499.625 209.932Z" stroke="#D9D9D9" stroke-width="2.23729" stroke-linecap="round" stroke-linejoin="round"/>
<path d="M511.375 219.44C511.375 216.644 514.172 213.847 514.172 213.847C514.172 213.847 516.968 216.644 516.968 219.44C516.968 220.182 516.674 220.893 516.149 221.417C515.625 221.942 514.913 222.237 514.172 222.237C513.43 222.237 512.719 221.942 512.194 221.417C511.67 220.893 511.375 220.182 511.375 219.44V219.44Z" stroke="#D9D9D9" stroke-width="2.23729" stroke-linecap="round" stroke-linejoin="round"/>
<path d="M497.646 205.158L487.578 195.09" stroke="#D9D9D9" stroke-width="2.23729" stroke-linecap="round" stroke-linejoin="round"/>
<path d="M500.189 126.779C507.603 126.779 513.613 120.769 513.613 113.355C513.613 105.942 507.603 99.9316 500.189 99.9316C492.776 99.9316 486.766 105.942 486.766 113.355C486.766 120.769 492.776 126.779 500.189 126.779Z" stroke="#D9D9D9" stroke-width="2.23729" stroke-linecap="round" stroke-linejoin="round"/>
<path d="M506.9 124.983V120.067C506.9 119.77 506.782 119.486 506.573 119.276C506.363 119.066 506.078 118.948 505.782 118.948H494.595C494.299 118.948 494.014 119.066 493.804 119.276C493.594 119.486 493.477 119.77 493.477 120.067V124.984" stroke="#D9D9D9" stroke-width="2.23729" stroke-linecap="round" stroke-linejoin="round"/>
<path d="M495.711 118.948V115.592C495.711 115.296 495.829 115.011 496.039 114.801C496.248 114.591 496.533 114.474 496.83 114.474H503.541C503.838 114.474 504.123 114.591 504.332 114.801C504.542 115.011 504.66 115.296 504.66 115.592V118.948" stroke="#D9D9D9" stroke-width="2.23729" stroke-linecap="round" stroke-linejoin="round"/>
<path d="M502.962 114.474L501.283 106.415C501.036 105.228 499.34 105.228 499.093 106.415L497.414 114.474" stroke="#D9D9D9" stroke-width="2.23729" stroke-linecap="round" stroke-linejoin="round"/>
<path d="M304.802 308.575C310.362 308.575 314.87 304.068 314.87 298.507C314.87 292.947 310.362 288.439 304.802 288.439C299.242 288.439 294.734 292.947 294.734 298.507C294.734 304.068 299.242 308.575 304.802 308.575Z" stroke="#D9D9D9" stroke-width="2.23729" stroke-linecap="round" stroke-linejoin="round"/>
<path d="M313.747 317.524C319.308 317.524 323.815 313.017 323.815 307.456C323.815 301.896 319.308 297.389 313.747 297.389C308.187 297.389 303.68 301.896 303.68 307.456C303.68 313.017 308.187 317.524 313.747 317.524Z" stroke="#D9D9D9" stroke-width="2.23729" stroke-linecap="round" stroke-linejoin="round"/>
<path d="M308.508 298.86L313.397 303.75" stroke="#D9D9D9" stroke-width="2.23729" stroke-linecap="round" stroke-linejoin="round"/>
<path d="M305.148 302.215L310.038 307.104" stroke="#D9D9D9" stroke-width="2.23729" stroke-linecap="round" stroke-linejoin="round"/>
<path d="M595.642 126.779C603.056 126.779 609.066 120.769 609.066 113.355C609.066 105.942 603.056 99.9316 595.642 99.9316C588.229 99.9316 582.219 105.942 582.219 113.355C582.219 120.769 588.229 126.779 595.642 126.779Z" stroke="#D9D9D9" stroke-width="2.23729" stroke-linecap="round" stroke-linejoin="round"/>
<path d="M592.281 115.592V108.88L598.993 105.524V115.592" stroke="#D9D9D9" stroke-width="2.23729" stroke-linecap="round" stroke-linejoin="round"/>
<path d="M601.233 125.562V116.711C601.233 116.415 601.115 116.13 600.906 115.92C600.696 115.711 600.411 115.593 600.115 115.593H591.166C590.869 115.593 590.584 115.711 590.375 115.92C590.165 116.13 590.047 116.415 590.047 116.711V125.562" stroke="#D9D9D9" stroke-width="2.23729" stroke-linecap="round" stroke-linejoin="round"/>
<path d="M107.172 290.677L129.545 315.287" stroke="#D9D9D9" stroke-width="2.23729" stroke-linecap="round" stroke-linejoin="round"/>
<path d="M122.121 307.121C121.023 308.119 119.574 308.64 118.093 308.569C116.611 308.498 115.218 307.842 114.22 306.745C113.222 305.647 112.701 304.198 112.772 302.716C112.842 301.235 113.499 299.842 114.596 298.844" stroke="#D9D9D9" stroke-width="2.23729" stroke-linecap="round" stroke-linejoin="round"/>
<path d="M110.805 294.676C105.104 297.563 102.695 302.983 102.695 302.983C102.695 302.983 107.17 313.049 118.356 313.049C120.977 313.07 123.566 312.467 125.907 311.288" stroke="#D9D9D9" stroke-width="2.23729" stroke-linecap="round" stroke-linejoin="round"/>
<path d="M129.632 308.729C132.681 305.998 134.022 302.982 134.022 302.982C134.022 302.982 129.547 292.913 118.361 292.913C117.392 292.912 116.425 292.99 115.469 293.149" stroke="#D9D9D9" stroke-width="2.23729" stroke-linecap="round" stroke-linejoin="round"/>
<path d="M119.406 297.488C120.595 297.717 121.678 298.324 122.492 299.22C123.306 300.116 123.808 301.251 123.922 302.456" stroke="#D9D9D9" stroke-width="2.23729" stroke-linecap="round" stroke-linejoin="round"/>
<path d="M221.054 207.106L221.738 207.79C221.945 207.998 222.11 208.244 222.223 208.516C222.335 208.787 222.393 209.078 222.393 209.372C222.393 209.666 222.335 209.957 222.223 210.228C222.11 210.499 221.945 210.746 221.738 210.954L220.755 211.937C220.545 212.147 220.26 212.264 219.964 212.264C219.667 212.264 219.383 212.147 219.173 211.937L210.687 203.451C210.477 203.241 210.359 202.957 210.359 202.66C210.359 202.363 210.477 202.079 210.687 201.869L211.67 200.886C211.878 200.678 212.124 200.514 212.396 200.401C212.667 200.289 212.958 200.231 213.252 200.231C213.546 200.231 213.837 200.289 214.108 200.401C214.38 200.514 214.626 200.678 214.834 200.886L215.517 201.569L219.375 197.712C220.884 196.203 223.341 196.111 224.891 197.577C225.271 197.937 225.576 198.369 225.786 198.848C225.996 199.328 226.109 199.844 226.116 200.368C226.123 200.891 226.026 201.411 225.829 201.896C225.632 202.381 225.34 202.821 224.97 203.191L221.054 207.106Z" stroke="#D9D9D9" stroke-width="2.23729" stroke-linecap="round" stroke-linejoin="round"/>
<path d="M218.094 210.858L210.264 218.689C209.709 219.245 209.017 219.644 208.258 219.848C207.499 220.051 206.7 220.051 205.941 219.848L202.669 221.276C202.463 221.366 202.235 221.392 202.014 221.35C201.793 221.308 201.59 221.201 201.431 221.042V221.042C201.316 220.928 201.239 220.782 201.209 220.623C201.179 220.465 201.198 220.301 201.262 220.153L202.777 216.683C202.574 215.924 202.574 215.125 202.777 214.367C202.98 213.608 203.38 212.916 203.936 212.361L211.766 204.53" stroke="#D9D9D9" stroke-width="2.23729" stroke-linecap="round" stroke-linejoin="round"/>
<path d="M224.047 302.885L227.236 308.409" stroke="#D9D9D9" stroke-width="2.23729" stroke-linecap="round" stroke-linejoin="round"/>
<path d="M217.469 305.955L218.463 311.596" stroke="#D9D9D9" stroke-width="2.23729" stroke-linecap="round" stroke-linejoin="round"/>
<path d="M210.136 305.952L209.141 311.594" stroke="#D9D9D9" stroke-width="2.23729" stroke-linecap="round" stroke-linejoin="round"/>
<path d="M203.58 302.88L200.375 308.431" stroke="#D9D9D9" stroke-width="2.23729" stroke-linecap="round" stroke-linejoin="round"/>
<path d="M200.391 299.749C202.742 302.659 207.051 306.339 213.814 306.339C220.578 306.339 224.887 302.659 227.238 299.749" stroke="#D9D9D9" stroke-width="2.23729" stroke-linecap="round" stroke-linejoin="round"/>
<path d="M113.266 204.835L122.758 214.327" stroke="#D9D9D9" stroke-width="2.23729" stroke-linecap="round" stroke-linejoin="round"/>
<path d="M130.67 221.094H110.544L105.358 215.908C105.151 215.7 104.986 215.453 104.873 215.182C104.761 214.911 104.703 214.62 104.703 214.326C104.703 214.032 104.761 213.741 104.873 213.47C104.986 213.198 105.151 212.952 105.358 212.744L121.178 196.924C121.598 196.504 122.167 196.269 122.76 196.269C123.354 196.269 123.923 196.504 124.342 196.924L130.67 203.252C130.878 203.46 131.043 203.706 131.155 203.978C131.268 204.249 131.326 204.54 131.326 204.834C131.326 205.128 131.268 205.419 131.155 205.69C131.043 205.961 130.878 206.208 130.67 206.416L115.992 221.094" stroke="#D9D9D9" stroke-width="2.23729" stroke-linecap="round" stroke-linejoin="round"/>
<path d="M513.613 309.878V296.085C513.613 295.887 513.56 295.692 513.46 295.52C513.36 295.349 513.216 295.208 513.043 295.11L500.738 288.189C500.57 288.094 500.381 288.045 500.189 288.045C499.997 288.045 499.808 288.094 499.641 288.189L487.336 295.11C487.163 295.208 487.019 295.349 486.919 295.52C486.818 295.692 486.766 295.887 486.766 296.085V309.878C486.766 310.077 486.818 310.272 486.919 310.443C487.019 310.614 487.163 310.756 487.336 310.853L499.641 317.775C499.808 317.869 499.997 317.919 500.189 317.919C500.381 317.919 500.57 317.869 500.738 317.775L513.043 310.853C513.216 310.756 513.36 310.614 513.46 310.443C513.56 310.272 513.613 310.077 513.613 309.878Z" stroke="#D9D9D9" stroke-width="2.23729" stroke-linecap="round" stroke-linejoin="round"/>
<path d="M513.452 295.519L500.316 302.982L486.914 295.518" stroke="#D9D9D9" stroke-width="2.23729" stroke-linecap="round" stroke-linejoin="round"/>
<path d="M500.319 302.982L500.188 317.919" stroke="#D9D9D9" stroke-width="2.23729" stroke-linecap="round" stroke-linejoin="round"/>
<path d="M395.78 294.033H390.188" stroke="#D9D9D9" stroke-width="2.23729" stroke-linecap="round" stroke-linejoin="round"/>
<path d="M395.773 288.439V311.931H419.265" stroke="#D9D9D9" stroke-width="2.23729" stroke-linecap="round" stroke-linejoin="round"/>
<path d="M413.675 307.457V294.033H400.25" stroke="#D9D9D9" stroke-width="2.23729" stroke-linecap="round" stroke-linejoin="round"/>
<path d="M413.672 317.525V311.932" stroke="#D9D9D9" stroke-width="2.23729" stroke-linecap="round" stroke-linejoin="round"/>
<path d="M593.406 29.0843V6.71142C593.406 6.09361 592.905 5.59277 592.288 5.59277H586.694C586.077 5.59277 585.576 6.09361 585.576 6.71142V29.0843C585.576 29.7021 586.077 30.2029 586.694 30.2029H592.288C592.905 30.2029 593.406 29.7021 593.406 29.0843Z" stroke="#D9D9D9" stroke-width="2.23729" stroke-linecap="round" stroke-linejoin="round"/>
<path d="M605.711 29.0843V6.71142C605.711 6.09361 605.21 5.59277 604.592 5.59277H598.999C598.381 5.59277 597.88 6.09361 597.88 6.71142V29.0843C597.88 29.7021 598.381 30.2029 598.999 30.2029H604.592C605.21 30.2029 605.711 29.7021 605.711 29.0843Z" stroke="#D9D9D9" stroke-width="2.23729" stroke-linecap="round" stroke-linejoin="round"/>
<path d="M678.133 109.88C678.741 107.603 679.94 105.527 681.609 103.863" stroke="#D9D9D9" stroke-width="2.23729" stroke-linecap="round" stroke-linejoin="round"/>
<path d="M681.606 122.848C679.937 121.183 678.739 119.107 678.133 116.829" stroke="#D9D9D9" stroke-width="2.23729" stroke-linecap="round" stroke-linejoin="round"/>
<path d="M694.582 126.323C692.306 126.936 689.908 126.935 687.633 126.321" stroke="#D9D9D9" stroke-width="2.23729" stroke-linecap="round" stroke-linejoin="round"/>
<path d="M704.078 116.831C703.47 119.108 702.271 121.184 700.602 122.848" stroke="#D9D9D9" stroke-width="2.23729" stroke-linecap="round" stroke-linejoin="round"/>
<path d="M700.602 103.861C702.27 105.526 703.468 107.603 704.074 109.881" stroke="#D9D9D9" stroke-width="2.23729" stroke-linecap="round" stroke-linejoin="round"/>
<path d="M687.633 100.387C689.909 99.7751 692.306 99.7759 694.582 100.389" stroke="#D9D9D9" stroke-width="2.23729" stroke-linecap="round" stroke-linejoin="round"/>
<path d="M35.2039 5.5918H10.5938" stroke="#D9D9D9" stroke-width="2.23729" stroke-linecap="round" stroke-linejoin="round"/>
<path d="M32.9688 24.6098V11.186C32.9688 10.5682 32.4679 10.0674 31.8501 10.0674H26.2569C25.6391 10.0674 25.1382 10.5682 25.1382 11.186V24.6098C25.1382 25.2276 25.6391 25.7284 26.2569 25.7284H31.8501C32.4679 25.7284 32.9688 25.2276 32.9688 24.6098Z" stroke="#D9D9D9" stroke-width="2.23729" stroke-linecap="round" stroke-linejoin="round"/>
<path d="M19.54 10.0674H13.9468C13.329 10.0674 12.8281 10.5682 12.8281 11.186V30.203C12.8281 30.8208 13.329 31.3216 13.9468 31.3216H19.54C20.1578 31.3216 20.6586 30.8208 20.6586 30.203V11.186C20.6586 10.5682 20.1578 10.0674 19.54 10.0674Z" stroke="#D9D9D9" stroke-width="2.23729" stroke-linecap="round" stroke-linejoin="round"/>
<path d="M321.578 5.59277V30.2029" stroke="#D9D9D9" stroke-width="2.23729" stroke-linecap="round" stroke-linejoin="round"/>
<path d="M302.559 15.6611L315.983 15.6611C316.601 15.6611 317.102 15.1603 317.102 14.5425V8.94927C317.102 8.33146 316.601 7.83062 315.983 7.83062L302.559 7.83062C301.941 7.83062 301.441 8.33146 301.441 8.94927V14.5425C301.441 15.1603 301.941 15.6611 302.559 15.6611Z" stroke="#D9D9D9" stroke-width="2.23729" stroke-linecap="round" stroke-linejoin="round"/>
<path d="M315.987 20.1357H296.97C296.352 20.1357 295.852 20.6366 295.852 21.2544V26.8476C295.852 27.4654 296.352 27.9663 296.97 27.9663H315.987C316.605 27.9663 317.106 27.4654 317.106 26.8476V21.2544C317.106 20.6366 316.605 20.1357 315.987 20.1357Z" stroke="#D9D9D9" stroke-width="2.23729" stroke-linecap="round" stroke-linejoin="round"/>
<path d="M201.508 5.59277V30.2029" stroke="#D9D9D9" stroke-width="2.23729" stroke-linecap="round" stroke-linejoin="round"/>
<path d="M220.527 7.83008H207.103C206.485 7.83008 205.984 8.33091 205.984 8.94872V14.5419C205.984 15.1598 206.485 15.6606 207.103 15.6606H220.527C221.145 15.6606 221.645 15.1598 221.645 14.5419V8.94872C221.645 8.33091 221.145 7.83008 220.527 7.83008Z" stroke="#D9D9D9" stroke-width="2.23729" stroke-linecap="round" stroke-linejoin="round"/>
<path d="M226.12 20.1357H207.103C206.485 20.1357 205.984 20.6366 205.984 21.2544V26.8476C205.984 27.4654 206.485 27.9663 207.103 27.9663H226.12C226.738 27.9663 227.239 27.4654 227.239 26.8476V21.2544C227.239 20.6366 226.738 20.1357 226.12 20.1357Z" stroke="#D9D9D9" stroke-width="2.23729" stroke-linecap="round" stroke-linejoin="round"/>
<path d="M513.614 17.8984H510.258" stroke="#D9D9D9" stroke-width="2.23729" stroke-linecap="round" stroke-linejoin="round"/>
<path d="M490.122 17.8984H486.766" stroke="#D9D9D9" stroke-width="2.23729" stroke-linecap="round" stroke-linejoin="round"/>
<path d="M502.428 17.8984H497.953" stroke="#D9D9D9" stroke-width="2.23729" stroke-linecap="round" stroke-linejoin="round"/>
<path d="M510.258 25.7289V10.0679C510.258 9.45005 509.757 8.94922 509.139 8.94922H503.546C502.928 8.94922 502.427 9.45005 502.427 10.0679V25.7289C502.427 26.3467 502.928 26.8475 503.546 26.8475H509.139C509.757 26.8475 510.258 26.3467 510.258 25.7289Z" stroke="#D9D9D9" stroke-width="2.23729" stroke-linecap="round" stroke-linejoin="round"/>
<path d="M496.829 5.59277H491.236C490.618 5.59277 490.117 6.09361 490.117 6.71142V29.0843C490.117 29.7021 490.618 30.2029 491.236 30.2029H496.829C497.447 30.2029 497.948 29.7021 497.948 29.0843V6.71142C497.948 6.09361 497.447 5.59277 496.829 5.59277Z" stroke="#D9D9D9" stroke-width="2.23729" stroke-linecap="round" stroke-linejoin="round"/>
<path d="M404.727 4.47461V7.83054" stroke="#D9D9D9" stroke-width="2.23729" stroke-linecap="round" stroke-linejoin="round"/>
<path d="M404.727 27.9658V31.3218" stroke="#D9D9D9" stroke-width="2.23729" stroke-linecap="round" stroke-linejoin="round"/>
<path d="M404.727 15.6611V20.1357" stroke="#D9D9D9" stroke-width="2.23729" stroke-linecap="round" stroke-linejoin="round"/>
<path d="M412.553 7.83008H396.892C396.274 7.83008 395.773 8.33091 395.773 8.94872V14.5419C395.773 15.1598 396.274 15.6606 396.892 15.6606H412.553C413.171 15.6606 413.672 15.1598 413.672 14.5419V8.94872C413.672 8.33091 413.171 7.83008 412.553 7.83008Z" stroke="#D9D9D9" stroke-width="2.23729" stroke-linecap="round" stroke-linejoin="round"/>
<path d="M415.913 20.1357H393.541C392.923 20.1357 392.422 20.6366 392.422 21.2544V26.8476C392.422 27.4654 392.923 27.9663 393.541 27.9663H415.913C416.531 27.9663 417.032 27.4654 417.032 26.8476V21.2544C417.032 20.6366 416.531 20.1357 415.913 20.1357Z" stroke="#D9D9D9" stroke-width="2.23729" stroke-linecap="round" stroke-linejoin="round"/>
<path d="M130.665 30.2051H106.055" stroke="#D9D9D9" stroke-width="2.23729" stroke-linecap="round" stroke-linejoin="round"/>
<path d="M120.594 11.1861V24.6099C120.594 25.2277 121.095 25.7285 121.712 25.7285H127.306C127.923 25.7285 128.424 25.2277 128.424 24.6099V11.1861C128.424 10.5683 127.923 10.0675 127.306 10.0675H121.712C121.095 10.0675 120.594 10.5683 120.594 11.1861Z" stroke="#D9D9D9" stroke-width="2.23729" stroke-linecap="round" stroke-linejoin="round"/>
<path d="M115.001 4.47461H109.408C108.79 4.47461 108.289 4.97544 108.289 5.59325V24.6102C108.289 25.228 108.79 25.7288 109.408 25.7288H115.001C115.619 25.7288 116.12 25.228 116.12 24.6102V5.59325C116.12 4.97544 115.619 4.47461 115.001 4.47461Z" stroke="#D9D9D9" stroke-width="2.23729" stroke-linecap="round" stroke-linejoin="round"/>
<path d="M612.055 204.339V223.729" stroke="#D9D9D9" stroke-width="2.98305" stroke-linecap="round" stroke-linejoin="round"/>
<path d="M598.633 204.339H634.429" stroke="#D9D9D9" stroke-width="2.98305" stroke-linecap="round" stroke-linejoin="round"/>
<path d="M632.938 193.898H600.124C599.301 193.898 598.633 194.566 598.633 195.39V222.237C598.633 223.061 599.301 223.729 600.124 223.729H632.938C633.762 223.729 634.429 223.061 634.429 222.237V195.39C634.429 194.566 633.762 193.898 632.938 193.898Z" stroke="#D9D9D9" stroke-width="2.98305" stroke-linecap="round" stroke-linejoin="round"/>
<path d="M538.967 302.837C538.984 305.208 538.528 307.559 537.625 309.752C536.723 311.945 535.391 313.936 533.709 315.608C526.83 322.487 515.569 322.562 508.596 315.776C506.038 313.286 504.282 310.089 503.555 306.594C502.828 303.1 503.162 299.467 504.515 296.164C505.868 292.861 508.178 290.038 511.147 288.057C514.117 286.077 517.611 285.03 521.18 285.05C521.404 285.053 521.624 285.106 521.824 285.205C522.025 285.303 522.201 285.445 522.34 285.62C522.479 285.794 522.578 285.998 522.629 286.215C522.68 286.433 522.682 286.659 522.635 286.877C522.44 287.743 522.442 288.642 522.639 289.508C522.836 290.373 523.224 291.184 523.774 291.88C524.324 292.577 525.023 293.142 525.819 293.535C526.616 293.927 527.489 294.137 528.377 294.148C528.773 294.148 529.152 294.306 529.432 294.585C529.711 294.865 529.869 295.244 529.869 295.64C529.88 296.528 530.09 297.401 530.482 298.198C530.875 298.994 531.44 299.693 532.137 300.243C532.833 300.793 533.644 301.181 534.509 301.378C535.375 301.575 536.274 301.577 537.14 301.382C537.358 301.335 537.584 301.338 537.802 301.389C538.019 301.44 538.223 301.538 538.397 301.677C538.572 301.816 538.714 301.992 538.812 302.193C538.911 302.393 538.964 302.613 538.967 302.837V302.837Z" stroke="#D9D9D9" stroke-width="2.98305" stroke-linecap="round" stroke-linejoin="round"/>
<path d="M526.284 313.389C527.52 313.389 528.521 312.387 528.521 311.151C528.521 309.916 527.52 308.914 526.284 308.914C525.049 308.914 524.047 309.916 524.047 311.151C524.047 312.387 525.049 313.389 526.284 313.389Z" fill="#D9D9D9"/>
<path d="M514.354 311.897C515.59 311.897 516.592 310.896 516.592 309.66C516.592 308.425 515.59 307.423 514.354 307.423C513.119 307.423 512.117 308.425 512.117 309.66C512.117 310.896 513.119 311.897 514.354 311.897Z" fill="#D9D9D9"/>
<path d="M512.862 301.457C514.098 301.457 515.1 300.455 515.1 299.22C515.1 297.984 514.098 296.982 512.862 296.982C511.627 296.982 510.625 297.984 510.625 299.22C510.625 300.455 511.627 301.457 512.862 301.457Z" fill="#D9D9D9"/>
<path d="M522.558 304.44C523.793 304.44 524.795 303.439 524.795 302.203C524.795 300.967 523.793 299.966 522.558 299.966C521.322 299.966 520.32 300.967 520.32 302.203C520.32 303.439 521.322 304.44 522.558 304.44Z" fill="#D9D9D9"/>
</svg>
