<svg width="72" height="85" viewBox="0 0 72 85" fill="none" xmlns="http://www.w3.org/2000/svg">
<path d="M31.5563 27.7442C32.803 28.74 34.3562 29.2713 35.9501 29.249C36.724 29.2448 37.4937 29.1347 38.2375 28.9211C38.4352 29.7761 38.553 30.648 38.5902 31.5252C38.5656 31.6161 38.5403 31.7124 38.5157 31.8056H38.5163C36.3203 40.0957 36.0919 48.7864 37.8506 57.1797C37.9828 57.711 38.5127 58.0401 39.0462 57.9222C39.5798 57.8043 39.9222 57.282 39.8189 56.7447C38.8185 52.1044 38.4826 47.3444 38.8215 42.6089C39.2139 41.9465 39.6591 41.3165 40.1529 40.7251C41.5265 42.0585 43.3537 42.8207 45.2666 42.8588C45.7275 42.8588 46.1871 42.8106 46.6383 42.7144C48.6439 42.2866 52.3307 40.4778 54.493 33.1624C54.639 32.6672 54.3884 32.1413 53.9114 31.944C46.8726 29.0245 43.1492 30.7574 41.5559 32.0493H41.5565C41.0163 32.4879 40.5489 33.0084 40.1715 33.5927C41.1148 29.5408 42.4763 25.598 44.2344 21.8283C45.5947 22.2862 47.0192 22.5233 48.4541 22.5317C50.992 22.5702 53.4596 21.6995 55.4129 20.0773C59.632 16.5008 60.9502 9.69139 59.1249 0.904657V0.905258C59.0203 0.399225 58.5505 0.0544654 58.0374 0.106806C49.121 1.00935 43.0321 4.31086 40.8949 9.41572C39.4114 12.9567 40.0447 17.0903 42.5711 20.6139C42.1926 21.4111 41.8303 22.2161 41.483 23.0303H41.4836C41.4566 22.1765 41.2649 21.336 40.9194 20.555C40.0897 18.6789 37.5595 15.4466 29.9656 14.839C29.4531 14.7974 28.9911 15.15 28.8949 15.6567C27.5004 23.1646 29.9656 26.4505 31.5561 27.7436L31.5563 27.7442ZM42.7504 10.1982C44.5193 5.973 49.6786 3.15649 57.3248 2.21842C58.7314 9.80276 57.597 15.5778 54.108 18.5384H54.1074C51.561 20.5402 48.167 21.0938 45.1178 20.0047C46.892 16.507 49.01 13.1953 51.4403 10.1188C51.7857 9.68193 51.7124 9.04714 51.2762 8.70117C50.84 8.35459 50.2061 8.428 49.8607 8.86483C47.4796 11.8811 45.3881 15.1158 43.6138 18.5257C42.0145 16.0473 41.6936 12.9534 42.7504 10.1988L42.7504 10.1982ZM71.229 63.9161C70.7855 63.1616 69.3538 61.5652 65.6328 63.0454L43.3283 71.909H43.3289C39.6698 72.4157 35.95 72.2616 32.3451 71.4548L33.3424 71.4168C41.4381 71.11 44.9944 70.8386 46.0633 69.9547C46.6942 69.4445 47.1502 68.7495 47.3671 67.9668C47.5834 67.184 47.5503 66.3529 47.2722 65.59C46.6004 63.812 44.7733 62.7951 42.376 62.8607L31.689 62.3607C29.9406 62.2548 28.2607 61.6459 26.8499 60.6073C24.9152 59.3431 22.915 58.0357 16.3569 58.9808H16.3563C15.2153 59.1902 14.09 59.4815 12.9898 59.8527C12.6178 59.9664 12.2411 60.0826 11.8572 60.1951L11.9041 58.9159L11.9047 58.9153C11.9251 58.3587 11.4907 57.89 10.9343 57.8695L4.16467 57.6198H4.16527C3.64074 57.6012 3.18951 57.9874 3.12703 58.5085L0.437144 81.0499C0.402896 81.3297 0.487612 81.6113 0.670863 81.8255C0.853516 82.0403 1.11849 82.1679 1.39968 82.1781L10.0289 82.497H10.0668C10.6087 82.497 11.0539 82.0674 11.0732 81.5246L11.1218 80.1871C14.3796 80.9663 16.7379 81.6841 18.8425 82.3255C22.9479 83.769 27.265 84.5174 31.6163 84.5398C31.9005 84.5446 32.1774 84.547 32.4466 84.5464C39.3231 84.5464 42.0064 83.2124 45.9906 81.2322L46.511 80.9735C56.7263 75.9096 69.2077 69.5329 69.986 68.8975L69.9866 68.8969C70.7382 68.3397 71.273 67.5382 71.5001 66.6296C71.7272 65.7217 71.6329 64.762 71.2321 63.916L71.229 63.9161ZM7.32715 76.1167C7.30733 76.6588 6.86211 77.0878 6.32075 77.0884H6.2823C5.72653 77.0674 5.29213 76.5992 5.31255 76.0421L5.39667 73.7574C5.42851 73.2093 5.89236 72.7869 6.44032 72.8067C6.98888 72.8272 7.42028 73.2827 7.41127 73.832L7.32715 76.1167ZM68.728 67.3162C67.9192 67.8728 57.6918 73.1791 45.6175 79.1636L45.0942 79.4236C41.0793 81.4212 38.6568 82.6239 31.645 82.5217C27.483 82.5042 23.3535 81.7858 19.4295 80.3958C17.3224 79.7532 14.7334 78.9638 11.1974 78.1311L11.7802 62.3179C12.3984 62.1434 12.9969 61.9611 13.5809 61.7824C14.5825 61.4442 15.6063 61.1759 16.6445 60.9779C22.4475 60.1416 23.979 61.1404 25.7484 62.2974H25.749C27.4428 63.5219 29.4484 64.2415 31.5332 64.3727H31.5747L42.3254 64.8709H42.406C43.9201 64.8222 45.0352 65.3529 45.3915 66.2946L45.3921 66.2952C45.6655 67.0467 45.4257 67.8891 44.7972 68.3837C43.7999 68.9968 36.9546 69.2562 33.2714 69.3952C30.4445 69.5023 28.0027 69.5949 26.8989 69.7748H26.8995C26.4573 69.847 26.116 70.2032 26.0619 70.6485C26.0073 71.0937 26.253 71.5216 26.6646 71.6985C32.0396 73.9879 37.941 74.7485 43.7194 73.8953C43.8023 73.8845 43.8834 73.8634 43.9609 73.8327L66.3793 64.9215C67.9325 64.3042 69.1256 64.3114 69.494 64.939L69.4934 64.9384C69.7914 65.8132 69.4796 66.7808 68.7273 67.3157L68.728 67.3162Z" fill="white"/>
</svg>
