<svg width="98" height="83" viewBox="0 0 98 83" fill="none" xmlns="http://www.w3.org/2000/svg">
<path d="M35.7969 69.8828H62.273V75.9606H35.7969V69.8828Z" fill="white"/>
<path d="M70.626 78.152C70.626 80.5818 68.5804 82.5492 66.0614 82.5492H32.0092C29.4884 82.5492 27.4453 80.5818 27.4453 78.152C27.4453 75.7174 29.4885 73.75 32.0092 73.75H66.0614C68.5804 73.75 70.626 75.7183 70.626 78.152Z" fill="white"/>
<path d="M90.3256 0.515625H7.74583C3.9214 0.515625 0.8125 3.67199 0.8125 7.55243V60.1149C0.8125 63.9947 3.9231 67.1486 7.74583 67.1486H90.3256C94.1492 67.1486 97.2589 63.9947 97.2589 60.1149L97.2598 7.55454C97.2606 3.67326 94.1492 0.51689 90.3256 0.51689L90.3256 0.515625ZM49.0378 63.9024C47.4416 63.9024 46.1487 62.613 46.1487 61.0229C46.1487 59.4312 47.4417 58.1418 49.0378 58.1418C50.6324 58.1418 51.9253 59.4337 51.9253 61.0229C51.9261 62.6114 50.6315 63.9024 49.0378 63.9024ZM90.958 54.8931H7.11554V7.55285C7.11554 7.14667 7.40471 6.80393 7.74676 6.80393H90.3265C90.6686 6.80393 90.9569 7.14667 90.9569 7.55285V54.8931H90.958Z" fill="white"/>
<path d="M13.3496 34.8175L21.1348 42.5835C21.5471 42.997 22.2163 42.997 22.6269 42.5835L25.2716 39.9487C25.6838 39.5351 25.6838 38.8727 25.2716 38.4591L18.2317 31.4371C17.8186 31.0259 17.8186 30.3586 18.2317 29.9475L25.2716 22.9254C25.6838 22.5143 25.6838 21.8494 25.2716 21.4383L22.6269 18.7993C22.2147 18.3898 21.5471 18.3898 21.1348 18.7993L13.3496 26.5678L9.9564 29.9481C9.54578 30.3592 9.54578 31.0266 9.9564 31.4353L13.3496 34.8175Z" fill="white"/>
<path d="M88.117 31.4348C88.5276 31.0262 88.5276 30.3588 88.117 29.9477L84.7264 26.5673L76.9388 18.8005C76.524 18.3894 75.8597 18.3894 75.4467 18.8005L72.802 21.4378C72.3889 21.8489 72.3889 22.5147 72.802 22.9274L79.8419 29.9469C80.2525 30.3581 80.2525 31.0254 79.8419 31.4365L72.802 38.4586C72.3889 38.8722 72.3889 39.5346 72.802 39.9482L75.4467 42.5829C75.8597 42.9965 76.5248 42.9965 76.9388 42.5829L84.7264 34.817L88.117 31.4348Z" fill="white"/>
<path d="M42.5333 48.893L38.0975 46.6421C37.7703 46.4757 37.6678 46.0266 37.8678 45.6337L54.5897 12.891C54.7897 12.4988 55.216 12.3184 55.5432 12.4823L59.9799 14.7332C60.3054 14.9013 60.4087 15.3512 60.2087 15.7417L43.4868 48.4865C43.2844 48.8786 42.8589 49.0632 42.5334 48.8943L42.5333 48.893Z" fill="white"/>
<path d="M25.1562 30.699C25.1562 31.9851 26.1964 33.0338 27.4885 33.0338H30.8288V36.3566C30.8288 37.6443 31.8756 38.6857 33.1693 38.6857C34.4606 38.6857 35.5075 37.6476 35.5075 36.3566L35.5067 33.0304H38.8421C40.1318 33.0304 41.1834 31.9841 41.1834 30.6956C41.1834 29.4046 40.1325 28.3616 38.8421 28.3616H35.5067V25.0348C35.5067 23.7495 34.4607 22.7031 33.1685 22.7031C31.8755 22.7031 30.828 23.747 30.828 25.0348V28.3616H27.4877C26.2005 28.3624 25.1562 29.4046 25.1562 30.699Z" fill="white"/>
<path d="M69.9324 33.1667C71.3882 33.1667 72.5714 31.982 72.5714 30.5385C72.5714 29.086 71.3883 27.9062 69.9324 27.9062C68.4792 27.9062 67.2969 29.0877 67.2969 30.5385C67.2985 31.982 68.4791 33.1667 69.9324 33.1667Z" fill="white"/>
<path d="M67.4941 25.7923C67.4941 24.3406 66.3135 23.1641 64.8552 23.1641C63.3994 23.1641 62.2188 24.3406 62.2188 25.7923C62.2188 27.2448 63.3994 28.4205 64.8552 28.4205C66.3134 28.4205 67.4941 27.2457 67.4941 25.7923Z" fill="white"/>
<path d="M67.8197 35.5978C67.8197 37.0495 66.6399 38.2269 65.1833 38.2269C63.7275 38.2269 62.5469 37.0496 62.5469 35.5978C62.5469 34.1453 63.7275 32.9688 65.1833 32.9688C66.6398 32.9688 67.8197 34.1453 67.8197 35.5978Z" fill="white"/>
<path d="M62.7348 30.8601C62.7348 32.3101 61.5558 33.4858 60.1018 33.4858C58.6477 33.4858 57.4688 32.3101 57.4688 30.8601C57.4688 29.4101 58.6477 28.2344 60.1018 28.2344C61.5558 28.2344 62.7348 29.4101 62.7348 30.8601Z" fill="white"/>
</svg>
