<svg width="72" height="86" viewBox="0 0 72 86" fill="none" xmlns="http://www.w3.org/2000/svg">
<path d="M12.6344 60.0401C11.9374 63.4579 11.2223 68.9111 10.6641 73.6909L12.2097 83.2157C12.4489 84.6906 13.7286 85.7747 15.23 85.7747C16.9674 85.7747 18.3564 84.3413 18.2872 82.6139C18.0019 75.472 17.3011 57.9097 16.8931 47.5312C15.1849 51.6426 13.3543 56.5099 12.6344 60.0395V60.0401Z" fill="white"/>
<path d="M32.9487 34.3571H32.3584C27.3862 34.1731 22.9356 32.2043 17.4556 24.3111C17.4556 24.3111 15.2902 21.0703 11.4095 21.0703C11.4095 21.0703 6.23777 21.0703 4.26455 25.5913C4.26455 25.5913 -0.349039 34.8288 0.220594 60.343C0.220594 60.343 0.437899 73.1725 1.56034 82.8632C1.75286 84.5255 3.17164 85.7749 4.85354 85.7749H4.85386C6.55991 85.7746 7.98635 84.4913 8.15186 82.8018C8.48289 79.4251 9.0878 73.7115 9.77625 68.4624C10.2134 65.1277 10.6842 61.9786 11.141 59.7395C11.9102 55.9677 13.8771 50.7843 15.659 46.5281C16.9485 43.4478 18.1379 40.86 18.7102 39.6378C16.6852 38.4054 15.0332 36.8246 13.683 34.844C13.4463 34.4973 13.5372 34.0257 13.8857 33.7905C14.2336 33.5553 14.7079 33.6457 14.9446 33.9925C18.2604 38.856 23.6241 41.1461 32.6289 41.4783H32.9549C32.0043 40.5222 31.4808 39.2569 31.4814 37.9113C31.4818 36.5281 32.0431 35.2739 32.9492 34.3582L32.9487 34.3571Z" fill="white"/>
<path d="M1.8266 13.7167C1.61279 14.2101 1.50858 14.7721 1.55846 15.3923C1.6598 16.6497 2.45788 17.8009 3.61488 18.3171C4.93112 18.9044 6.32706 18.6537 7.31953 17.8736C7.60927 18.0797 7.91044 18.2747 8.23546 18.4432C9.36009 19.0264 10.5642 19.3029 11.7508 19.3029C13.1289 19.3029 14.483 18.9296 15.6626 18.2311C15.9981 19.1101 16.7217 19.8324 17.6526 20.0012C19.0502 20.2547 20.4121 19.3681 20.7282 17.9766C20.8117 17.6084 20.8133 17.2408 20.7453 16.8925C20.692 16.6181 20.7644 16.3279 20.9506 16.1187C21.3315 15.6907 21.6149 15.1676 21.7505 14.5702C22.1692 12.7261 21.0586 10.8979 19.2544 10.3843C19.0651 9.33521 18.6619 8.33005 18.0548 7.44312C18.5752 7.01545 18.9456 6.39815 19.0184 5.65378C19.1271 4.54368 18.4831 3.43648 17.4563 2.98884C17.0976 2.83238 16.7317 2.75905 16.3759 2.75747C15.6582 2.75431 14.9926 2.40029 14.6966 1.75012C14.3226 0.930184 13.5833 0.288264 12.6315 0.0739131C11.5342 -0.172635 10.4455 0.213941 9.74366 0.990225C9.25663 1.52915 8.52022 1.69857 7.8216 1.4928C7.56617 1.41757 7.29327 1.3749 7.00415 1.37174C5.80706 1.35783 4.6669 2.08956 4.20682 3.18923C4.03653 3.59634 3.96124 4.01135 3.96823 4.41375C3.98189 5.20681 3.5241 5.89463 2.78098 6.18164C1.71832 6.5916 0.874204 7.49817 0.603782 8.68912C0.327075 9.90701 0.719107 11.117 1.53655 11.9467C2.00166 12.4202 2.08997 13.1086 1.8266 13.7167ZM17.1654 14.5199C16.7908 15.2352 16.2828 15.8484 15.6874 16.3494C14.6057 17.2594 13.2244 17.7857 11.7506 17.7857C10.7661 17.7857 9.82033 17.5543 8.93936 17.0979C8.88853 17.0716 8.84247 17.0397 8.79259 17.0122C10.0872 16.4625 10.9952 15.1856 10.9952 13.6968C10.9952 12.1678 10.0347 10.8691 8.68426 10.3456C8.76622 10.1149 8.81896 9.87057 8.81896 9.61201C8.81896 9.25642 8.72714 8.92516 8.57719 8.6274C9.26214 8.50034 9.8295 8.06003 10.1396 7.46324C10.6254 7.90639 11.2671 8.18328 11.9781 8.18328C12.9169 8.18328 13.7441 7.71137 14.2353 6.99322C14.3738 6.79061 14.4748 6.56398 14.5546 6.32723C14.5603 6.33007 14.5663 6.33197 14.5717 6.33513C14.8075 6.69294 15.1839 6.9477 15.6233 7.0261C15.9922 7.32701 16.314 7.66901 16.5961 8.03724C17.1101 8.70861 17.4752 9.47515 17.6741 10.2862C18.0121 11.6649 17.8745 13.1651 17.1654 14.5198L17.1654 14.5199Z" fill="white"/>
<path d="M67.8975 27.7058C66.872 22.3917 62.6266 21.0781 60.3332 21.0781C54.2913 21.0781 51.1177 25.6259 51.1177 25.6259L48.7563 28.7189C46.4248 31.7725 42.9739 33.7383 39.2033 34.2314C38.9505 34.2646 38.6963 34.2898 38.4409 34.3098C38.0743 34.3379 37.706 34.3575 37.335 34.3575H36.5728H36.5725C34.5999 34.3578 33.001 35.9483 33 37.9109C32.999 39.8748 34.5989 41.4672 36.5728 41.4672H38.6026C38.8033 41.4672 39.0032 41.4593 39.2033 41.4536C44.1949 41.3154 48.9922 39.4651 52.7707 36.1996C53.7352 35.312 54.5943 34.2876 55.224 33.1093C55.4212 32.7394 55.8829 32.5981 56.2552 32.796C56.6269 32.9926 56.7683 33.4519 56.5701 33.8221C55.6192 35.6006 54.2401 37.0556 52.7419 38.2302C52.4785 43.0236 51.1598 49.2366 50.3283 53.1458C49.7044 56.0787 49.2231 61.2529 48.9639 64.4928C48.8142 66.3616 48.8416 68.2369 49.0414 70.1008L50.43 83.0509C50.5923 84.565 51.8764 85.7136 53.4071 85.7136C55.0645 85.7136 56.4064 84.374 56.401 82.7253L56.359 69.8286C56.354 68.2093 56.5223 66.5941 56.8616 65.0102L58.6017 56.8893C58.677 56.5385 58.9886 56.2948 59.3391 56.2948C59.3756 56.2948 59.4128 56.2973 59.4499 56.303C59.8445 56.3608 60.126 56.7107 60.092 57.1059C59.9198 59.1228 59.5834 62.9689 59.3753 65.3441C59.2558 66.7089 59.2603 68.0798 59.3889 69.444L60.673 83.06C60.8147 84.5636 62.0836 85.7129 63.6016 85.7129H63.6746C65.3629 85.7129 66.7213 84.3686 66.7245 82.7025C66.7312 79.1611 66.7432 73.3404 66.7502 69.9887C66.7537 68.3062 66.944 66.638 67.3199 64.9974C68.2225 61.0555 69.8913 53.2676 69.8913 49.5632C69.8913 45.3555 69.4449 42.2174 69.2374 38.8756C68.7291 30.6794 67.8977 27.7049 67.8977 27.7049L67.8975 27.7058Z" fill="white"/>
<path d="M71.2041 4.24556L69.9797 2.61265C68.8998 1.17255 66.8513 0.876395 65.4039 1.95045C64.2449 2.81084 63.838 4.28565 64.2703 5.57977C63.0126 4.67041 61.4701 4.1277 59.7965 4.1277C55.5855 4.1277 52.1719 7.52406 52.1719 11.7137C52.1719 15.9034 55.5855 19.2998 59.7965 19.2998C64.0075 19.2998 67.4212 15.9034 67.4212 11.7137C67.4212 10.7477 67.2325 9.82738 66.9018 8.97774C68.0051 9.63614 69.4433 9.61086 70.5384 8.79789C71.9858 7.72387 72.2835 5.68539 71.204 4.24562L71.2041 4.24556ZM59.7968 17.7823C56.4334 17.7823 53.697 15.0598 53.697 11.7135C53.697 9.78753 54.6063 8.07184 56.0168 6.95922C56.9702 8.85253 59.6042 12.5508 65.7398 13.0606C65.1212 15.7599 62.6941 17.7823 59.7968 17.7823Z" fill="white"/>
</svg>
