<svg width="123" height="118" viewBox="0 0 123 118" fill="none" xmlns="http://www.w3.org/2000/svg">
<path d="M120.584 46.5908L120.411 46.1517L103.721 2.73816C103.382 1.88728 102.78 1.16547 102.004 0.676304C101.226 0.195449 100.32 -0.0361466 99.4064 0.012788C98.493 0.0617225 97.6166 0.388831 96.8956 0.949946C96.1826 1.52717 95.6654 2.30933 95.4143 3.18999L84.1449 37.5543H38.5118L27.2424 3.18999C26.998 2.30453 26.4797 1.51845 25.7611 0.943581C25.0401 0.382466 24.1637 0.0553574 23.2503 0.00642286C22.3369 -0.0425117 21.4304 0.189084 20.6532 0.669939C19.8782 1.16108 19.2775 1.88226 18.9356 2.7318L2.2135 46.1263L2.04749 46.5654C-0.355137 52.8223 -0.651702 59.6881 1.20251 66.1276C3.05673 72.5671 6.9612 78.2313 12.3272 82.2661L12.3847 82.3106L12.5379 82.4188L37.9627 101.396L50.541 110.884L58.2029 116.649C59.0992 117.328 60.1935 117.695 61.3188 117.695C62.444 117.695 63.5384 117.328 64.4346 116.649L72.0965 110.884L84.6748 101.396L110.253 82.3043L110.317 82.2533C115.671 78.2178 119.566 72.5595 121.417 66.1286C123.269 59.6978 122.976 52.8418 120.584 46.5908Z" fill="#E24329"/>
<path d="M120.584 46.5875L120.411 46.1484C112.279 47.8122 104.615 51.2455 97.9684 56.2032L61.3125 83.8283C73.795 93.2403 84.6622 101.418 84.6622 101.418L110.24 82.3264L110.304 82.2755C115.666 78.2402 119.567 72.5782 121.421 66.1418C123.275 59.7055 122.981 52.8431 120.584 46.5875Z" fill="#FC6D26"/>
<path d="M37.9609 101.418L50.5393 110.906L58.2012 116.671C59.0974 117.35 60.1917 117.717 61.317 117.717C62.4423 117.717 63.5366 117.35 64.4328 116.671L72.0948 110.906L84.6731 101.418C84.6731 101.418 73.7931 93.2147 61.3106 83.8281C48.8281 93.2147 37.9609 101.418 37.9609 101.418Z" fill="#FCA326"/>
<path d="M24.6501 56.2052C18.0085 51.2373 10.3466 47.7951 2.2135 46.125L2.04749 46.5641C-0.355137 52.821 -0.651702 59.6868 1.20251 66.1263C3.05673 72.5659 6.9612 78.23 12.3272 82.2648L12.3847 82.3093L12.5379 82.4175L37.9627 101.394C37.9627 101.394 48.8171 93.2168 61.3124 83.8048L24.6501 56.2052Z" fill="#FC6D26"/>
</svg>
