<svg width="296" height="210" viewBox="0 0 296 210" fill="none" xmlns="http://www.w3.org/2000/svg">
<rect x="0.5" y="0.5" width="295" height="209" rx="7.5" fill="#111111"/>
<rect x="23" y="116" width="64" height="64" rx="32" fill="#EF8435"/>
<path fill-rule="evenodd" clip-rule="evenodd" d="M55 135C52.2386 135 50 137.239 50 140C50 142.761 52.2386 145 55 145C57.7614 145 60 142.761 60 140C60 137.239 57.7614 135 55 135ZM48 140C48 136.134 51.134 133 55 133C58.866 133 62 136.134 62 140C62 143.866 58.866 147 55 147C51.134 147 48 143.866 48 140Z" fill="white"/>
<path fill-rule="evenodd" clip-rule="evenodd" d="M55 151C48.9249 151 44 155.925 44 162C44 162.552 43.5523 163 43 163C42.4477 163 42 162.552 42 162C42 154.82 47.8203 149 55 149C62.1797 149 68 154.82 68 162C68 162.552 67.5523 163 67 163C66.4477 163 66 162.552 66 162C66 155.925 61.0751 151 55 151Z" fill="white"/>
<circle cx="77" cy="124" r="6.5" fill="#D84836" stroke="white"/>
<rect x="128" y="128" width="52" height="52" rx="26" fill="#EF8435"/>
<path fill-rule="evenodd" clip-rule="evenodd" d="M154.002 143.6C151.792 143.6 150.002 145.391 150.002 147.6C150.002 149.809 151.792 151.6 154.002 151.6C156.211 151.6 158.002 149.809 158.002 147.6C158.002 145.391 156.211 143.6 154.002 143.6ZM148.402 147.6C148.402 144.507 150.909 142 154.002 142C157.094 142 159.602 144.507 159.602 147.6C159.602 150.693 157.094 153.2 154.002 153.2C150.909 153.2 148.402 150.693 148.402 147.6Z" fill="white"/>
<path fill-rule="evenodd" clip-rule="evenodd" d="M154.002 156.4C149.141 156.4 145.202 160.34 145.202 165.2C145.202 165.642 144.843 166 144.402 166C143.96 166 143.602 165.642 143.602 165.2C143.602 159.456 148.258 154.8 154.002 154.8C159.745 154.8 164.402 159.456 164.402 165.2C164.402 165.642 164.043 166 163.602 166C163.16 166 162.802 165.642 162.802 165.2C162.802 160.34 158.862 156.4 154.002 156.4Z" fill="white"/>
<circle cx="171" cy="136" r="6.5" fill="#D84836" stroke="white"/>
<rect x="221" y="136" width="44" height="44" rx="22" fill="#EF8435"/>
<path fill-rule="evenodd" clip-rule="evenodd" d="M242.998 148.9C241.065 148.9 239.498 150.467 239.498 152.4C239.498 154.333 241.065 155.9 242.998 155.9C244.931 155.9 246.498 154.333 246.498 152.4C246.498 150.467 244.931 148.9 242.998 148.9ZM238.098 152.4C238.098 149.694 240.292 147.5 242.998 147.5C245.705 147.5 247.898 149.694 247.898 152.4C247.898 155.106 245.705 157.3 242.998 157.3C240.292 157.3 238.098 155.106 238.098 152.4Z" fill="white"/>
<path fill-rule="evenodd" clip-rule="evenodd" d="M242.998 160.1C238.746 160.1 235.298 163.547 235.298 167.8C235.298 168.187 234.985 168.5 234.598 168.5C234.212 168.5 233.898 168.187 233.898 167.8C233.898 162.774 237.973 158.7 242.998 158.7C248.024 158.7 252.098 162.774 252.098 167.8C252.098 168.187 251.785 168.5 251.398 168.5C251.012 168.5 250.698 168.187 250.698 167.8C250.698 163.547 247.251 160.1 242.998 160.1Z" fill="white"/>
<path d="M264.5 143C264.5 146.038 262.038 148.5 259 148.5C255.962 148.5 253.5 146.038 253.5 143C253.5 139.962 255.962 137.5 259 137.5C262.038 137.5 264.5 139.962 264.5 143Z" fill="#D84836" stroke="white"/>
<g opacity="0.2">
<rect x="23" y="41" width="64" height="64" rx="32" fill="#EF8435"/>
<path fill-rule="evenodd" clip-rule="evenodd" d="M55 60C52.2386 60 50 62.2386 50 65C50 67.7614 52.2386 70 55 70C57.7614 70 60 67.7614 60 65C60 62.2386 57.7614 60 55 60ZM48 65C48 61.134 51.134 58 55 58C58.866 58 62 61.134 62 65C62 68.866 58.866 72 55 72C51.134 72 48 68.866 48 65Z" fill="white"/>
<path fill-rule="evenodd" clip-rule="evenodd" d="M55 76C48.9249 76 44 80.9249 44 87C44 87.5523 43.5523 88 43 88C42.4477 88 42 87.5523 42 87C42 79.8203 47.8203 74 55 74C62.1797 74 68 79.8203 68 87C68 87.5523 67.5523 88 67 88C66.4477 88 66 87.5523 66 87C66 80.9249 61.0751 76 55 76Z" fill="white"/>
<circle cx="77" cy="49" r="6.5" fill="#D84836" stroke="white"/>
<rect x="128" y="53" width="52" height="52" rx="26" fill="#EF8435"/>
<path fill-rule="evenodd" clip-rule="evenodd" d="M154.002 68.6C151.792 68.6 150.002 70.3909 150.002 72.6C150.002 74.8091 151.792 76.6 154.002 76.6C156.211 76.6 158.002 74.8091 158.002 72.6C158.002 70.3909 156.211 68.6 154.002 68.6ZM148.402 72.6C148.402 69.5072 150.909 67 154.002 67C157.094 67 159.602 69.5072 159.602 72.6C159.602 75.6928 157.094 78.2 154.002 78.2C150.909 78.2 148.402 75.6928 148.402 72.6Z" fill="white"/>
<path fill-rule="evenodd" clip-rule="evenodd" d="M154.002 81.4C149.141 81.4 145.202 85.3399 145.202 90.2C145.202 90.6418 144.843 91 144.402 91C143.96 91 143.602 90.6418 143.602 90.2C143.602 84.4562 148.258 79.8 154.002 79.8C159.745 79.8 164.402 84.4562 164.402 90.2C164.402 90.6418 164.043 91 163.602 91C163.16 91 162.802 90.6418 162.802 90.2C162.802 85.3399 158.862 81.4 154.002 81.4Z" fill="white"/>
<circle cx="171" cy="61" r="6.5" fill="#D84836" stroke="white"/>
<rect x="221" y="61" width="44" height="44" rx="22" fill="#EF8435"/>
<path fill-rule="evenodd" clip-rule="evenodd" d="M242.998 73.9C241.065 73.9 239.498 75.467 239.498 77.4C239.498 79.333 241.065 80.9 242.998 80.9C244.931 80.9 246.498 79.333 246.498 77.4C246.498 75.467 244.931 73.9 242.998 73.9ZM238.098 77.4C238.098 74.6938 240.292 72.5 242.998 72.5C245.705 72.5 247.898 74.6938 247.898 77.4C247.898 80.1062 245.705 82.3 242.998 82.3C240.292 82.3 238.098 80.1062 238.098 77.4Z" fill="white"/>
<path fill-rule="evenodd" clip-rule="evenodd" d="M242.998 85.1C238.746 85.1 235.298 88.5474 235.298 92.8C235.298 93.1866 234.985 93.5 234.598 93.5C234.212 93.5 233.898 93.1866 233.898 92.8C233.898 87.7742 237.973 83.7 242.998 83.7C248.024 83.7 252.098 87.7742 252.098 92.8C252.098 93.1866 251.785 93.5 251.398 93.5C251.012 93.5 250.698 93.1866 250.698 92.8C250.698 88.5474 247.251 85.1 242.998 85.1Z" fill="white"/>
<path d="M264.5 68C264.5 71.0376 262.038 73.5 259 73.5C255.962 73.5 253.5 71.0376 253.5 68C253.5 64.9624 255.962 62.5 259 62.5C262.038 62.5 264.5 64.9624 264.5 68Z" fill="#D84836" stroke="white"/>
</g>
<rect x="0.5" y="0.5" width="295" height="209" rx="7.5" stroke="#333333"/>
</svg>
