<svg width="106" height="106" viewBox="0 0 106 106" fill="none" xmlns="http://www.w3.org/2000/svg">
<path d="M40.4404 66.7434C37.9924 66.7434 35.8324 66.2234 33.9604 65.1834C32.0884 64.1274 30.6244 62.6634 29.5684 60.7914C28.5284 58.9194 28.0084 56.7594 28.0084 54.3114V43.1754C28.0084 40.7274 28.5284 38.5674 29.5684 36.6954C30.6244 34.8234 32.0884 33.3674 33.9604 32.3274C35.8324 31.2714 37.9924 30.7434 40.4404 30.7434C42.8884 30.7434 45.0404 31.2714 46.8964 32.3274C48.7684 33.3674 50.2324 34.8234 51.2884 36.6954C52.3444 38.5674 52.8724 40.7274 52.8724 43.1754V54.3114C52.8724 56.7594 52.3444 58.9194 51.2884 60.7914C50.2324 62.6634 48.7684 64.1274 46.8964 65.1834C45.0404 66.2234 42.8884 66.7434 40.4404 66.7434ZM40.4404 61.2474C41.6564 61.2474 42.7604 60.9594 43.7524 60.3834C44.7444 59.7914 45.5284 59.0074 46.1044 58.0314C46.6804 57.0394 46.9684 55.9354 46.9684 54.7194V42.7434C46.9684 41.5114 46.6804 40.4074 46.1044 39.4314C45.5284 38.4394 44.7444 37.6554 43.7524 37.0794C42.7604 36.4874 41.6564 36.1914 40.4404 36.1914C39.2244 36.1914 38.1204 36.4874 37.1284 37.0794C36.1364 37.6554 35.3524 38.4394 34.7764 39.4314C34.2004 40.4074 33.9124 41.5114 33.9124 42.7434V54.7194C33.9124 55.9354 34.2004 57.0394 34.7764 58.0314C35.3524 59.0074 36.1364 59.7914 37.1284 60.3834C38.1204 60.9594 39.2244 61.2474 40.4404 61.2474ZM65.6022 66.0234V37.7754L59.1222 41.7354V35.3514L65.6022 31.4634H71.5062V66.0234H65.6022Z" fill="white"/>
<rect x="0.6625" y="0.6625" width="104.675" height="104.675" rx="15.2375" stroke="#333333" stroke-width="1.325"/>
</svg>
