<svg width="106" height="106" viewBox="0 0 106 106" fill="none" xmlns="http://www.w3.org/2000/svg">
<path d="M40.4404 66.7434C37.9924 66.7434 35.8324 66.2234 33.9604 65.1834C32.0884 64.1274 30.6244 62.6634 29.5684 60.7914C28.5284 58.9194 28.0084 56.7594 28.0084 54.3114V43.1754C28.0084 40.7274 28.5284 38.5674 29.5684 36.6954C30.6244 34.8234 32.0884 33.3674 33.9604 32.3274C35.8324 31.2714 37.9924 30.7434 40.4404 30.7434C42.8884 30.7434 45.0404 31.2714 46.8964 32.3274C48.7684 33.3674 50.2324 34.8234 51.2884 36.6954C52.3444 38.5674 52.8724 40.7274 52.8724 43.1754V54.3114C52.8724 56.7594 52.3444 58.9194 51.2884 60.7914C50.2324 62.6634 48.7684 64.1274 46.8964 65.1834C45.0404 66.2234 42.8884 66.7434 40.4404 66.7434ZM40.4404 61.2474C41.6564 61.2474 42.7604 60.9594 43.7524 60.3834C44.7444 59.7914 45.5284 59.0074 46.1044 58.0314C46.6804 57.0394 46.9684 55.9354 46.9684 54.7194V42.7434C46.9684 41.5114 46.6804 40.4074 46.1044 39.4314C45.5284 38.4394 44.7444 37.6554 43.7524 37.0794C42.7604 36.4874 41.6564 36.1914 40.4404 36.1914C39.2244 36.1914 38.1204 36.4874 37.1284 37.0794C36.1364 37.6554 35.3524 38.4394 34.7764 39.4314C34.2004 40.4074 33.9124 41.5114 33.9124 42.7434V54.7194C33.9124 55.9354 34.2004 57.0394 34.7764 58.0314C35.3524 59.0074 36.1364 59.7914 37.1284 60.3834C38.1204 60.9594 39.2244 61.2474 40.4404 61.2474ZM58.6422 65.9754V60.9354L73.4262 47.7594C74.5782 46.7354 75.3782 45.7674 75.8262 44.8554C76.2742 43.9434 76.4982 43.0634 76.4982 42.2154C76.4982 41.0634 76.2502 40.0394 75.7542 39.1434C75.2582 38.2314 74.5702 37.5114 73.6902 36.9834C72.8262 36.4554 71.8262 36.1914 70.6902 36.1914C69.4902 36.1914 68.4262 36.4714 67.4982 37.0314C66.5862 37.5754 65.8742 38.3034 65.3622 39.2154C64.8502 40.1274 64.6102 41.1114 64.6422 42.1674H58.6902C58.6902 39.8634 59.2022 37.8554 60.2262 36.1434C61.2662 34.4314 62.6902 33.1034 64.4982 32.1594C66.3222 31.2154 68.4262 30.7434 70.8102 30.7434C73.0182 30.7434 75.0022 31.2394 76.7622 32.2314C78.5222 33.2074 79.9062 34.5674 80.9142 36.3114C81.9222 38.0394 82.4262 40.0314 82.4262 42.2874C82.4262 43.9354 82.2022 45.3194 81.7542 46.4394C81.3062 47.5594 80.6342 48.5914 79.7382 49.5354C78.8582 50.4794 77.7622 51.5274 76.4502 52.6794L65.9622 61.9674L65.4342 60.5274H82.4262V65.9754H58.6422Z" fill="white"/>
<rect x="0.6625" y="0.6625" width="104.675" height="104.675" rx="15.2375" stroke="#333333" stroke-width="1.325"/>
</svg>
