<svg width="106" height="106" viewBox="0 0 106 106" fill="none" xmlns="http://www.w3.org/2000/svg">
<path d="M40.4404 66.7434C37.9924 66.7434 35.8324 66.2234 33.9604 65.1834C32.0884 64.1274 30.6244 62.6634 29.5684 60.7914C28.5284 58.9194 28.0084 56.7594 28.0084 54.3114V43.1754C28.0084 40.7274 28.5284 38.5674 29.5684 36.6954C30.6244 34.8234 32.0884 33.3674 33.9604 32.3274C35.8324 31.2714 37.9924 30.7434 40.4404 30.7434C42.8884 30.7434 45.0404 31.2714 46.8964 32.3274C48.7684 33.3674 50.2324 34.8234 51.2884 36.6954C52.3444 38.5674 52.8724 40.7274 52.8724 43.1754V54.3114C52.8724 56.7594 52.3444 58.9194 51.2884 60.7914C50.2324 62.6634 48.7684 64.1274 46.8964 65.1834C45.0404 66.2234 42.8884 66.7434 40.4404 66.7434ZM40.4404 61.2474C41.6564 61.2474 42.7604 60.9594 43.7524 60.3834C44.7444 59.7914 45.5284 59.0074 46.1044 58.0314C46.6804 57.0394 46.9684 55.9354 46.9684 54.7194V42.7434C46.9684 41.5114 46.6804 40.4074 46.1044 39.4314C45.5284 38.4394 44.7444 37.6554 43.7524 37.0794C42.7604 36.4874 41.6564 36.1914 40.4404 36.1914C39.2244 36.1914 38.1204 36.4874 37.1284 37.0794C36.1364 37.6554 35.3524 38.4394 34.7764 39.4314C34.2004 40.4074 33.9124 41.5114 33.9124 42.7434V54.7194C33.9124 55.9354 34.2004 57.0394 34.7764 58.0314C35.3524 59.0074 36.1364 59.7914 37.1284 60.3834C38.1204 60.9594 39.2244 61.2474 40.4404 61.2474ZM69.4902 66.6714C67.7622 66.6714 66.1302 66.3354 64.5942 65.6634C63.0582 64.9914 61.7222 64.0394 60.5862 62.8074C59.4662 61.5754 58.6582 60.1194 58.1622 58.4394L63.7542 56.9274C64.1542 58.3034 64.8822 59.3674 65.9382 60.1194C67.0102 60.8554 68.1862 61.2154 69.4662 61.1994C70.6022 61.1994 71.6182 60.9354 72.5142 60.4074C73.4102 59.8794 74.1142 59.1674 74.6262 58.2714C75.1382 57.3594 75.3942 56.3434 75.3942 55.2234C75.3942 53.5114 74.8422 52.0794 73.7382 50.9274C72.6342 49.7754 71.2102 49.1994 69.4662 49.1994C68.9382 49.1994 68.4182 49.2714 67.9062 49.4154C67.4102 49.5594 66.9302 49.7594 66.4662 50.0154L63.8262 45.4554L75.4422 35.5194L75.9462 36.9114H59.5062V31.4634H80.6982V36.9354L71.3622 45.9114L71.3142 44.2074C73.4102 44.3514 75.1942 44.9354 76.6662 45.9594C78.1542 46.9834 79.2902 48.3034 80.0742 49.9194C80.8742 51.5354 81.2742 53.3034 81.2742 55.2234C81.2742 57.3994 80.7382 59.3514 79.6662 61.0794C78.6102 62.8074 77.1862 64.1754 75.3942 65.1834C73.6182 66.1754 71.6502 66.6714 69.4902 66.6714Z" fill="white"/>
<rect x="0.6625" y="0.6625" width="104.675" height="104.675" rx="15.2375" stroke="#333333" stroke-width="1.325"/>
</svg>
