<svg width="256" height="237" viewBox="0 0 256 237" fill="none" xmlns="http://www.w3.org/2000/svg">
<path d="M180.974 93L245.382 201H116.566L180.974 93Z" fill="#EF8435"/>
<rect width="77.3669" height="70.1459" transform="matrix(0.718473 -0.695555 0.718473 0.695555 0.207031 95.8125)" fill="#5C2860"/>
<path d="M213.527 63C213.527 97.5026 184.63 125.5 148.951 125.5C113.271 125.5 84.375 97.5026 84.375 63C84.375 28.4974 113.271 0.5 148.951 0.5C184.63 0.5 213.527 28.4974 213.527 63Z" stroke="#EBBE52"/>
<path d="M190.803 63C190.803 85.3524 172.081 103.5 148.952 103.5C125.823 103.5 107.102 85.3524 107.102 63C107.102 40.6476 125.823 22.5 148.952 22.5C172.081 22.5 190.803 40.6476 190.803 63Z" stroke="#EBBE52"/>
</svg>
