<svg width="1440" height="500" viewBox="0 0 1440 500" fill="none" xmlns="http://www.w3.org/2000/svg">
<rect width="1441" height="500" fill="#5C2860"/>
<line opacity="0.15" x1="110.5" y1="-2.18557e-08" x2="110.5" y2="500" stroke="white" stroke-dasharray="19 19"/>
<line opacity="0.15" x1="220.5" y1="-2.18557e-08" x2="220.5" y2="500" stroke="white" stroke-dasharray="19 19"/>
<line opacity="0.15" x1="330.5" y1="-2.18557e-08" x2="330.5" y2="500" stroke="white" stroke-dasharray="19 19"/>
<line opacity="0.15" x1="440.5" y1="-2.18557e-08" x2="440.5" y2="500" stroke="white" stroke-dasharray="19 19"/>
<line opacity="0.15" x1="550.5" y1="-2.18557e-08" x2="550.5" y2="500" stroke="white" stroke-dasharray="19 19"/>
<line opacity="0.15" x1="660.5" y1="-2.18557e-08" x2="660.5" y2="500" stroke="white" stroke-dasharray="19 19"/>
<line opacity="0.15" x1="770.5" y1="-2.18557e-08" x2="770.5" y2="500" stroke="white" stroke-dasharray="19 19"/>
<line opacity="0.15" x1="880.5" y1="-2.18557e-08" x2="880.5" y2="500" stroke="white" stroke-dasharray="19 19"/>
<line opacity="0.15" x1="990.5" y1="-2.18557e-08" x2="990.5" y2="500" stroke="white" stroke-dasharray="19 19"/>
<line opacity="0.15" x1="1100.5" y1="-2.18557e-08" x2="1100.5" y2="500" stroke="white" stroke-dasharray="19 19"/>
<line opacity="0.15" x1="1210.5" y1="-2.18557e-08" x2="1210.5" y2="500" stroke="white" stroke-dasharray="19 19"/>
<line opacity="0.15" x1="1320.5" y1="-2.18557e-08" x2="1320.5" y2="500" stroke="white" stroke-dasharray="19 19"/>
<line opacity="0.15" x1="1441" y1="109.5" x2="1" y2="109.5" stroke="white" stroke-dasharray="19 19"/>
<line opacity="0.15" x1="1441" y1="218.5" x2="1" y2="218.5" stroke="white" stroke-dasharray="19 19"/>
<line opacity="0.15" x1="1441" y1="327.5" x2="1" y2="327.5" stroke="white" stroke-dasharray="19 19"/>
<line opacity="0.15" x1="1441" y1="436.5" x2="1" y2="436.5" stroke="white" stroke-dasharray="19 19"/>
<path d="M390.934 360.799C392.987 368.463 393.511 376.456 392.476 384.323C391.44 392.189 388.865 399.774 384.898 406.646C380.931 413.517 375.649 419.539 369.354 424.37C363.06 429.2 355.875 432.743 348.211 434.796C340.547 436.85 332.554 437.374 324.688 436.338C316.821 435.302 309.236 432.727 302.365 428.76C295.493 424.793 289.471 419.511 284.641 413.217C279.811 406.922 276.268 399.738 274.214 392.074L332.574 376.436L390.934 360.799Z" fill="white"/>
<mask id="path-19-inside-1_2153_76902" fill="white">
<path d="M396.942 355.186C398.995 362.849 399.519 370.843 398.483 378.709C397.448 386.576 394.873 394.161 390.906 401.032C386.939 407.904 381.657 413.926 375.362 418.756C369.068 423.586 361.883 427.129 354.219 429.183C346.555 431.236 338.562 431.76 330.696 430.725C322.829 429.689 315.244 427.114 308.372 423.147C301.501 419.18 295.479 413.898 290.648 407.603C285.818 401.309 282.275 394.124 280.222 386.46L338.582 370.823L396.942 355.186Z"/>
</mask>
<path d="M396.942 355.186C398.995 362.849 399.519 370.843 398.483 378.709C397.448 386.576 394.873 394.161 390.906 401.032C386.939 407.904 381.657 413.926 375.362 418.756C369.068 423.586 361.883 427.129 354.219 429.183C346.555 431.236 338.562 431.76 330.696 430.725C322.829 429.689 315.244 427.114 308.372 423.147C301.501 419.18 295.479 413.898 290.648 407.603C285.818 401.309 282.275 394.124 280.222 386.46L338.582 370.823L396.942 355.186Z" stroke="white" stroke-width="1.82709" mask="url(#path-19-inside-1_2153_76902)"/>
<circle cx="33.4355" cy="33.4355" r="33.4355" transform="matrix(-0.965926 0.258819 0.258819 0.965926 357.738 341.152)" fill="#5C2860"/>
<circle cx="33.4355" cy="33.4355" r="32.9787" transform="matrix(-0.965926 0.258819 0.258819 0.965926 357.887 341.722)" stroke="white" stroke-width="0.913547"/>
<path d="M142.931 134.732L93.1113 195.187L169.069 208.58L142.931 134.732Z" fill="white"/>
<path d="M177.023 215.939L151.465 143.732L102.753 202.843L177.023 215.939Z" stroke="white"/>
<circle cx="1416" cy="190" r="95" fill="white"/>
<circle cx="1408.68" cy="201.325" r="95" stroke="white"/>
</svg>
