<svg width="563" height="406" viewBox="0 0 563 406" fill="none" xmlns="http://www.w3.org/2000/svg">
<rect y="0.214844" width="563" height="396.301" fill="#111111"/>
<path d="M49.24 96.6523V73.6123H53.096V83.3083H64.008V73.6123H67.848V96.6523H64.008V86.9243H53.096V96.6523H49.24ZM80.1898 97.1323C78.4404 97.1323 76.9044 96.7537 75.5818 95.9963C74.2591 95.239 73.2244 94.1883 72.4778 92.8443C71.7418 91.5003 71.3738 89.9537 71.3738 88.2043C71.3738 86.3163 71.7364 84.679 72.4618 83.2923C73.1871 81.895 74.1951 80.8123 75.4858 80.0443C76.7764 79.2763 78.2698 78.8923 79.9658 78.8923C81.7578 78.8923 83.2778 79.3137 84.5258 80.1563C85.7844 80.9883 86.7178 82.167 87.3258 83.6923C87.9338 85.2177 88.1631 87.015 88.0138 89.0843H84.1898V87.6763C84.1791 85.799 83.8484 84.4283 83.1978 83.5643C82.5471 82.7003 81.5231 82.2683 80.1258 82.2683C78.5471 82.2683 77.3738 82.759 76.6058 83.7403C75.8378 84.711 75.4538 86.135 75.4538 88.0123C75.4538 89.7617 75.8378 91.1163 76.6058 92.0763C77.3738 93.0363 78.4938 93.5163 79.9658 93.5163C80.9151 93.5163 81.7311 93.3083 82.4138 92.8923C83.1071 92.4657 83.6404 91.8523 84.0138 91.0523L87.8218 92.2043C87.1604 93.7617 86.1364 94.9723 84.7498 95.8363C83.3738 96.7003 81.8538 97.1323 80.1898 97.1323ZM74.2378 89.0843V86.1723H86.1258V89.0843H74.2378ZM96.1033 97.1323C94.8553 97.1323 93.7993 96.8977 92.9353 96.4283C92.0713 95.9483 91.4153 95.3137 90.9673 94.5243C90.5299 93.735 90.3113 92.8657 90.3113 91.9163C90.3113 91.0843 90.4499 90.3377 90.7273 89.6763C91.0046 89.0043 91.4313 88.4283 92.0073 87.9483C92.5833 87.4577 93.3299 87.0577 94.2473 86.7483C94.9406 86.5243 95.7513 86.3217 96.6793 86.1403C97.6179 85.959 98.6313 85.7937 99.7193 85.6443C100.818 85.4843 101.965 85.3137 103.159 85.1323L101.783 85.9163C101.794 84.7217 101.527 83.8417 100.983 83.2763C100.439 82.711 99.5219 82.4283 98.2313 82.4283C97.4526 82.4283 96.7006 82.6097 95.9753 82.9723C95.2499 83.335 94.7433 83.959 94.4553 84.8443L90.9353 83.7403C91.3619 82.279 92.1726 81.1057 93.3673 80.2203C94.5726 79.335 96.1939 78.8923 98.2313 78.8923C99.7673 78.8923 101.117 79.143 102.279 79.6443C103.453 80.1457 104.322 80.967 104.887 82.1083C105.197 82.7163 105.383 83.3403 105.447 83.9803C105.511 84.6097 105.543 85.2977 105.543 86.0443V96.6523H102.167V92.9083L102.727 93.5163C101.949 94.7643 101.037 95.6817 99.9913 96.2683C98.9566 96.8443 97.6606 97.1323 96.1033 97.1323ZM96.8713 94.0603C97.7459 94.0603 98.4926 93.9057 99.1113 93.5963C99.7299 93.287 100.221 92.9083 100.583 92.4603C100.957 92.0123 101.207 91.591 101.335 91.1963C101.538 90.7057 101.65 90.1457 101.671 89.5163C101.703 88.8763 101.719 88.359 101.719 87.9643L102.903 88.3163C101.741 88.4977 100.743 88.6577 99.9113 88.7963C99.0793 88.935 98.3646 89.0683 97.7673 89.1963C97.1699 89.3137 96.6419 89.447 96.1833 89.5963C95.7353 89.7563 95.3566 89.943 95.0473 90.1563C94.7379 90.3697 94.4979 90.615 94.3273 90.8923C94.1673 91.1697 94.0873 91.495 94.0873 91.8683C94.0873 92.295 94.1939 92.6737 94.4073 93.0043C94.6206 93.3243 94.9299 93.5803 95.3353 93.7723C95.7513 93.9643 96.2633 94.0603 96.8713 94.0603ZM116.637 97.1323C115.047 97.1323 113.661 96.7323 112.477 95.9323C111.293 95.1323 110.375 94.0443 109.725 92.6683C109.074 91.2923 108.749 89.7403 108.749 88.0123C108.749 86.263 109.074 84.7057 109.725 83.3403C110.386 81.9643 111.319 80.8817 112.525 80.0923C113.73 79.2923 115.149 78.8923 116.781 78.8923C118.423 78.8923 119.799 79.2923 120.909 80.0923C122.029 80.8817 122.877 81.9643 123.453 83.3403C124.029 84.7163 124.317 86.2737 124.317 88.0123C124.317 89.7297 124.029 91.2817 123.453 92.6683C122.877 94.0443 122.018 95.1323 120.877 95.9323C119.735 96.7323 118.322 97.1323 116.637 97.1323ZM117.229 93.6763C118.263 93.6763 119.095 93.4417 119.725 92.9723C120.365 92.4923 120.829 91.8257 121.117 90.9723C121.415 90.119 121.565 89.1323 121.565 88.0123C121.565 86.8817 121.415 85.895 121.117 85.0523C120.829 84.199 120.375 83.5377 119.757 83.0683C119.138 82.5883 118.338 82.3483 117.357 82.3483C116.322 82.3483 115.469 82.6043 114.797 83.1163C114.125 83.6177 113.629 84.3003 113.309 85.1643C112.989 86.0177 112.829 86.967 112.829 88.0123C112.829 89.0683 112.983 90.0283 113.293 90.8923C113.613 91.7457 114.098 92.423 114.749 92.9243C115.399 93.4257 116.226 93.6763 117.229 93.6763ZM121.565 96.6523V84.5243H121.085V73.6123H124.973V96.6523H121.565ZM129.779 76.7483V73.2123H133.635V76.7483H129.779ZM129.779 96.6523V79.3723H133.635V96.6523H129.779ZM150.38 96.6523V88.3323C150.38 87.7883 150.342 87.1857 150.268 86.5243C150.193 85.863 150.017 85.2283 149.74 84.6203C149.473 84.0017 149.068 83.495 148.524 83.1003C147.99 82.7057 147.265 82.5083 146.348 82.5083C145.857 82.5083 145.372 82.5883 144.892 82.7483C144.412 82.9083 143.974 83.1857 143.58 83.5803C143.196 83.9643 142.886 84.4977 142.652 85.1803C142.417 85.8523 142.3 86.7163 142.3 87.7723L140.012 86.7963C140.012 85.3243 140.294 83.991 140.86 82.7963C141.436 81.6017 142.278 80.6523 143.388 79.9483C144.497 79.2337 145.862 78.8763 147.484 78.8763C148.764 78.8763 149.82 79.0897 150.652 79.5163C151.484 79.943 152.145 80.487 152.635 81.1483C153.126 81.8097 153.489 82.5137 153.724 83.2603C153.958 84.007 154.108 84.7163 154.172 85.3883C154.246 86.0497 154.284 86.5883 154.284 87.0043V96.6523H150.38ZM138.396 96.6523V79.3723H141.836V84.7323H142.3V96.6523H138.396ZM165.723 104.812C164.763 104.812 163.84 104.663 162.955 104.364C162.08 104.066 161.291 103.634 160.587 103.068C159.883 102.514 159.307 101.842 158.859 101.052L162.411 99.2923C162.741 99.9217 163.205 100.386 163.803 100.684C164.411 100.994 165.056 101.148 165.739 101.148C166.539 101.148 167.253 101.004 167.883 100.716C168.512 100.439 168.997 100.023 169.339 99.4683C169.691 98.9243 169.856 98.2417 169.835 97.4203V92.5083H170.315V79.3723H173.691V97.4843C173.691 97.9217 173.669 98.3377 173.627 98.7323C173.595 99.1377 173.536 99.5323 173.451 99.9163C173.195 101.036 172.704 101.954 171.979 102.668C171.253 103.394 170.352 103.932 169.275 104.284C168.208 104.636 167.024 104.812 165.723 104.812ZM165.387 97.1323C163.797 97.1323 162.411 96.7323 161.227 95.9323C160.043 95.1323 159.125 94.0443 158.475 92.6683C157.824 91.2923 157.499 89.7403 157.499 88.0123C157.499 86.263 157.824 84.7057 158.475 83.3403C159.136 81.9643 160.069 80.8817 161.275 80.0923C162.48 79.2923 163.899 78.8923 165.531 78.8923C167.173 78.8923 168.549 79.2923 169.659 80.0923C170.779 80.8817 171.627 81.9643 172.203 83.3403C172.779 84.7163 173.067 86.2737 173.067 88.0123C173.067 89.7297 172.779 91.2817 172.203 92.6683C171.627 94.0443 170.768 95.1323 169.627 95.9323C168.485 96.7323 167.072 97.1323 165.387 97.1323ZM165.979 93.6763C167.013 93.6763 167.845 93.4417 168.475 92.9723C169.115 92.4923 169.579 91.8257 169.867 90.9723C170.165 90.119 170.315 89.1323 170.315 88.0123C170.315 86.8817 170.165 85.895 169.867 85.0523C169.579 84.199 169.125 83.5377 168.507 83.0683C167.888 82.5883 167.088 82.3483 166.107 82.3483C165.072 82.3483 164.219 82.6043 163.547 83.1163C162.875 83.6177 162.379 84.3003 162.059 85.1643C161.739 86.0177 161.579 86.967 161.579 88.0123C161.579 89.0683 161.733 90.0283 162.043 90.8923C162.363 91.7457 162.848 92.423 163.499 92.9243C164.149 93.4257 164.976 93.6763 165.979 93.6763ZM201.396 96.6523V77.8203L197.076 80.4603V76.2043L201.396 73.6123H205.332V96.6523H201.396Z" fill="white"/>
<line x1="37.3" y1="60.6523" x2="37.3" y2="107.218" stroke="#3F8AE2" stroke-width="0.6"/>
<line x1="214.3" y1="63.625" x2="214.3" y2="110.19" stroke="#3F8AE2" stroke-width="0.6"/>
<line x1="210" y1="110.488" x2="35" y2="110.488" stroke="#3F8AE2" stroke-width="0.6"/>
<line x1="214" y1="58.9719" x2="39" y2="58.9719" stroke="#3F8AE2" stroke-width="0.6"/>
<line x1="208" y1="96.6203" x2="47" y2="96.6203" stroke="#3F8AE2" stroke-width="0.6"/>
<rect x="32.65" y="105.877" width="8.7" height="8.62603" fill="white" stroke="#3F8AE2" stroke-width="0.7"/>
<rect x="208.65" y="105.877" width="8.7" height="8.62603" fill="white" stroke="#3F8AE2" stroke-width="0.7"/>
<rect x="32.65" y="54.357" width="8.7" height="8.62603" fill="white" stroke="#3F8AE2" stroke-width="0.7"/>
<rect x="208.65" y="54.357" width="8.7" height="8.62603" fill="white" stroke="#3F8AE2" stroke-width="0.7"/>
<path d="M49.24 179.875V156.835H58.376C59.9333 156.835 61.208 157.15 62.2 157.779C63.2027 158.398 63.944 159.192 64.424 160.163C64.9147 161.134 65.16 162.136 65.16 163.171C65.16 164.44 64.856 165.518 64.248 166.403C63.6507 167.288 62.8347 167.886 61.8 168.195V167.395C63.2507 167.726 64.3493 168.414 65.096 169.459C65.8533 170.504 66.232 171.694 66.232 173.027C66.232 174.392 65.9707 175.587 65.448 176.611C64.9253 177.635 64.1467 178.435 63.112 179.011C62.088 179.587 60.8187 179.875 59.304 179.875H49.24ZM53.144 176.243H58.824C59.496 176.243 60.0987 176.11 60.632 175.843C61.1653 175.566 61.5813 175.182 61.88 174.691C62.1893 174.19 62.344 173.598 62.344 172.915C62.344 172.296 62.2107 171.742 61.944 171.251C61.6773 170.76 61.288 170.371 60.776 170.083C60.264 169.784 59.6507 169.635 58.936 169.635H53.144V176.243ZM53.144 166.035H58.328C58.8827 166.035 59.3787 165.928 59.816 165.715C60.2533 165.502 60.6 165.187 60.856 164.771C61.112 164.355 61.24 163.843 61.24 163.235C61.24 162.435 60.984 161.768 60.472 161.235C59.96 160.702 59.2453 160.435 58.328 160.435H53.144V166.035ZM77.0595 180.355C75.3315 180.355 73.8222 179.966 72.5315 179.187C71.2408 178.408 70.2382 177.336 69.5235 175.971C68.8195 174.595 68.4675 173.016 68.4675 171.235C68.4675 169.422 68.8302 167.832 69.5555 166.467C70.2808 165.102 71.2888 164.035 72.5795 163.267C73.8702 162.499 75.3635 162.115 77.0595 162.115C78.7982 162.115 80.3128 162.504 81.6035 163.283C82.8942 164.062 83.8968 165.139 84.6115 166.515C85.3262 167.88 85.6835 169.454 85.6835 171.235C85.6835 173.027 85.3208 174.611 84.5955 175.987C83.8808 177.352 82.8782 178.424 81.5875 179.203C80.2968 179.971 78.7875 180.355 77.0595 180.355ZM77.0595 176.739C78.5955 176.739 79.7368 176.227 80.4835 175.203C81.2302 174.179 81.6035 172.856 81.6035 171.235C81.6035 169.56 81.2248 168.227 80.4675 167.235C79.7102 166.232 78.5742 165.731 77.0595 165.731C76.0248 165.731 75.1715 165.966 74.4995 166.435C73.8382 166.894 73.3475 167.539 73.0275 168.371C72.7075 169.192 72.5475 170.147 72.5475 171.235C72.5475 172.91 72.9262 174.248 73.6835 175.251C74.4515 176.243 75.5768 176.739 77.0595 176.739ZM96.1368 180.355C94.5474 180.355 93.1608 179.955 91.9768 179.155C90.7928 178.355 89.8754 177.267 89.2248 175.891C88.5741 174.515 88.2488 172.963 88.2488 171.235C88.2488 169.486 88.5741 167.928 89.2248 166.563C89.8861 165.187 90.8194 164.104 92.0248 163.315C93.2301 162.515 94.6488 162.115 96.2808 162.115C97.9234 162.115 99.2994 162.515 100.409 163.315C101.529 164.104 102.377 165.187 102.953 166.563C103.529 167.939 103.817 169.496 103.817 171.235C103.817 172.952 103.529 174.504 102.953 175.891C102.377 177.267 101.518 178.355 100.377 179.155C99.2354 179.955 97.8221 180.355 96.1368 180.355ZM96.7288 176.899C97.7634 176.899 98.5954 176.664 99.2248 176.195C99.8648 175.715 100.329 175.048 100.617 174.195C100.915 173.342 101.065 172.355 101.065 171.235C101.065 170.104 100.915 169.118 100.617 168.275C100.329 167.422 99.8754 166.76 99.2568 166.291C98.6381 165.811 97.8381 165.571 96.8568 165.571C95.8221 165.571 94.9688 165.827 94.2968 166.339C93.6248 166.84 93.1288 167.523 92.8088 168.387C92.4888 169.24 92.3288 170.19 92.3288 171.235C92.3288 172.291 92.4834 173.251 92.7928 174.115C93.1128 174.968 93.5981 175.646 94.2488 176.147C94.8994 176.648 95.7261 176.899 96.7288 176.899ZM101.065 179.875V167.747H100.585V156.835H104.473V179.875H101.065ZM111.231 187.555L114.559 178.419L114.623 181.107L107.087 162.595H111.103L116.447 176.291H115.423L120.623 162.595H124.479L114.847 187.555H111.231ZM143.399 179.875C142.258 180.088 141.138 180.179 140.039 180.147C138.951 180.126 137.975 179.928 137.111 179.555C136.247 179.171 135.591 178.568 135.143 177.747C134.749 177 134.541 176.238 134.519 175.459C134.498 174.68 134.487 173.8 134.487 172.819V157.795H138.327V172.595C138.327 173.288 138.333 173.896 138.343 174.419C138.365 174.942 138.477 175.368 138.679 175.699C139.063 176.339 139.677 176.696 140.519 176.771C141.362 176.846 142.322 176.803 143.399 176.643V179.875ZM131.351 165.619V162.595H143.399V165.619H131.351ZM154.096 180.355C152.347 180.355 150.811 179.976 149.488 179.219C148.165 178.462 147.131 177.411 146.384 176.067C145.648 174.723 145.28 173.176 145.28 171.427C145.28 169.539 145.643 167.902 146.368 166.515C147.093 165.118 148.101 164.035 149.392 163.267C150.683 162.499 152.176 162.115 153.872 162.115C155.664 162.115 157.184 162.536 158.432 163.379C159.691 164.211 160.624 165.39 161.232 166.915C161.84 168.44 162.069 170.238 161.92 172.307H158.096V170.899C158.085 169.022 157.755 167.651 157.104 166.787C156.453 165.923 155.429 165.491 154.032 165.491C152.453 165.491 151.28 165.982 150.512 166.963C149.744 167.934 149.36 169.358 149.36 171.235C149.36 172.984 149.744 174.339 150.512 175.299C151.28 176.259 152.4 176.739 153.872 176.739C154.821 176.739 155.637 176.531 156.32 176.115C157.013 175.688 157.547 175.075 157.92 174.275L161.728 175.427C161.067 176.984 160.043 178.195 158.656 179.059C157.28 179.923 155.76 180.355 154.096 180.355ZM148.144 172.307V169.395H160.032V172.307H148.144ZM162.945 179.875L169.265 171.139L163.073 162.595H167.617L171.505 168.115L175.329 162.595H179.873L173.681 171.139L180.033 179.875H175.489L171.505 174.163L167.489 179.875H162.945ZM192.712 179.875C191.57 180.088 190.45 180.179 189.352 180.147C188.264 180.126 187.288 179.928 186.424 179.555C185.56 179.171 184.904 178.568 184.456 177.747C184.061 177 183.853 176.238 183.832 175.459C183.81 174.68 183.8 173.8 183.8 172.819V157.795H187.64V172.595C187.64 173.288 187.645 173.896 187.656 174.419C187.677 174.942 187.789 175.368 187.992 175.699C188.376 176.339 188.989 176.696 189.832 176.771C190.674 176.846 191.634 176.803 192.712 176.643V179.875ZM180.664 165.619V162.595H192.712V165.619H180.664Z" fill="white"/>
<line x1="37.3" y1="143.875" x2="37.3" y2="190.44" stroke="#3F8AE2" stroke-width="0.6"/>
<line x1="214.3" y1="146.848" x2="214.3" y2="193.413" stroke="#3F8AE2" stroke-width="0.6"/>
<line x1="210" y1="193.71" x2="35" y2="193.71" stroke="#3F8AE2" stroke-width="0.6"/>
<line x1="214" y1="142.195" x2="39" y2="142.195" stroke="#3F8AE2" stroke-width="0.6"/>
<line x1="208" y1="179.843" x2="47" y2="179.843" stroke="#3F8AE2" stroke-width="0.6"/>
<rect x="32.65" y="189.099" width="8.7" height="8.62603" fill="white" stroke="#3F8AE2" stroke-width="0.7"/>
<rect x="208.65" y="189.099" width="8.7" height="8.62603" fill="white" stroke="#3F8AE2" stroke-width="0.7"/>
<rect x="32.65" y="137.58" width="8.7" height="8.62603" fill="white" stroke="#3F8AE2" stroke-width="0.7"/>
<rect x="208.65" y="137.58" width="8.7" height="8.62603" fill="white" stroke="#3F8AE2" stroke-width="0.7"/>
<path d="M49.56 263.098V240.058H53.416V259.482H63.592V263.098H49.56ZM71.1345 263.578C69.8865 263.578 68.8305 263.343 67.9665 262.874C67.1025 262.394 66.4465 261.759 65.9985 260.97C65.5612 260.18 65.3425 259.311 65.3425 258.362C65.3425 257.53 65.4812 256.783 65.7585 256.122C66.0358 255.45 66.4625 254.874 67.0385 254.394C67.6145 253.903 68.3612 253.503 69.2785 253.194C69.9718 252.97 70.7825 252.767 71.7105 252.586C72.6492 252.404 73.6625 252.239 74.7505 252.09C75.8492 251.93 76.9958 251.759 78.1905 251.578L76.8145 252.362C76.8252 251.167 76.5585 250.287 76.0145 249.722C75.4705 249.156 74.5532 248.874 73.2625 248.874C72.4838 248.874 71.7318 249.055 71.0065 249.418C70.2812 249.78 69.7745 250.404 69.4865 251.29L65.9665 250.186C66.3932 248.724 67.2038 247.551 68.3985 246.666C69.6038 245.78 71.2252 245.338 73.2625 245.338C74.7985 245.338 76.1478 245.588 77.3105 246.09C78.4838 246.591 79.3532 247.412 79.9185 248.554C80.2278 249.162 80.4145 249.786 80.4785 250.426C80.5425 251.055 80.5745 251.743 80.5745 252.49V263.098H77.1985V259.354L77.7585 259.962C76.9798 261.21 76.0678 262.127 75.0225 262.714C73.9878 263.29 72.6918 263.578 71.1345 263.578ZM71.9025 260.506C72.7772 260.506 73.5238 260.351 74.1425 260.042C74.7612 259.732 75.2518 259.354 75.6145 258.906C75.9878 258.458 76.2385 258.036 76.3665 257.642C76.5692 257.151 76.6812 256.591 76.7025 255.962C76.7345 255.322 76.7505 254.804 76.7505 254.41L77.9345 254.762C76.7718 254.943 75.7745 255.103 74.9425 255.242C74.1105 255.38 73.3958 255.514 72.7985 255.642C72.2012 255.759 71.6732 255.892 71.2145 256.042C70.7665 256.202 70.3878 256.388 70.0785 256.602C69.7692 256.815 69.5292 257.06 69.3585 257.338C69.1985 257.615 69.1185 257.94 69.1185 258.314C69.1185 258.74 69.2252 259.119 69.4385 259.45C69.6518 259.77 69.9612 260.026 70.3665 260.218C70.7825 260.41 71.2945 260.506 71.9025 260.506ZM93.044 263.578C91.3587 263.578 89.9453 263.178 88.804 262.378C87.6627 261.578 86.804 260.49 86.228 259.114C85.652 257.727 85.364 256.175 85.364 254.458C85.364 252.719 85.652 251.162 86.228 249.786C86.804 248.41 87.6467 247.327 88.756 246.538C89.876 245.738 91.2573 245.338 92.9 245.338C94.532 245.338 95.9453 245.738 97.14 246.538C98.3453 247.327 99.2787 248.41 99.94 249.786C100.601 251.151 100.932 252.708 100.932 254.458C100.932 256.186 100.607 257.738 99.956 259.114C99.3053 260.49 98.388 261.578 97.204 262.378C96.02 263.178 94.6333 263.578 93.044 263.578ZM84.708 263.098V240.058H88.596V250.97H88.116V263.098H84.708ZM92.452 260.122C93.4547 260.122 94.2813 259.871 94.932 259.37C95.5827 258.868 96.0627 258.191 96.372 257.338C96.692 256.474 96.852 255.514 96.852 254.458C96.852 253.412 96.692 252.463 96.372 251.61C96.052 250.746 95.556 250.063 94.884 249.562C94.212 249.05 93.3587 248.794 92.324 248.794C91.3427 248.794 90.5427 249.034 89.924 249.514C89.3053 249.983 88.8467 250.644 88.548 251.498C88.26 252.34 88.116 253.327 88.116 254.458C88.116 255.578 88.26 256.564 88.548 257.418C88.8467 258.271 89.3107 258.938 89.94 259.418C90.58 259.887 91.4173 260.122 92.452 260.122ZM112.315 263.578C110.565 263.578 109.029 263.199 107.707 262.442C106.384 261.684 105.349 260.634 104.603 259.29C103.867 257.946 103.499 256.399 103.499 254.65C103.499 252.762 103.861 251.124 104.587 249.738C105.312 248.34 106.32 247.258 107.611 246.49C108.901 245.722 110.395 245.338 112.091 245.338C113.883 245.338 115.403 245.759 116.651 246.602C117.909 247.434 118.843 248.612 119.451 250.138C120.059 251.663 120.288 253.46 120.139 255.53H116.315V254.122C116.304 252.244 115.973 250.874 115.323 250.01C114.672 249.146 113.648 248.714 112.251 248.714C110.672 248.714 109.499 249.204 108.731 250.186C107.963 251.156 107.579 252.58 107.579 254.458C107.579 256.207 107.963 257.562 108.731 258.522C109.499 259.482 110.619 259.962 112.091 259.962C113.04 259.962 113.856 259.754 114.539 259.338C115.232 258.911 115.765 258.298 116.139 257.498L119.947 258.65C119.285 260.207 118.261 261.418 116.875 262.282C115.499 263.146 113.979 263.578 112.315 263.578ZM106.363 255.53V252.618H118.251V255.53H106.363ZM124.029 263.098V239.578H127.885V263.098H124.029Z" fill="white"/>
<line x1="37.3" y1="227.098" x2="37.3" y2="273.663" stroke="#3F8AE2" stroke-width="0.6"/>
<line x1="153.3" y1="230.07" x2="153.3" y2="276.636" stroke="#3F8AE2" stroke-width="0.6"/>
<line x1="150" y1="276.933" x2="35" y2="276.933" stroke="#3F8AE2" stroke-width="0.6"/>
<line x1="153" y1="225.417" x2="38" y2="225.417" stroke="#3F8AE2" stroke-width="0.6"/>
<line x1="139" y1="263.066" x2="47" y2="263.066" stroke="#3F8AE2" stroke-width="0.6"/>
<rect x="32.65" y="272.322" width="8.7" height="8.62603" fill="white" stroke="#3F8AE2" stroke-width="0.7"/>
<rect x="148.65" y="272.322" width="8.7" height="8.62603" fill="white" stroke="#3F8AE2" stroke-width="0.7"/>
<rect x="32.65" y="220.802" width="8.7" height="8.62603" fill="white" stroke="#3F8AE2" stroke-width="0.7"/>
<rect x="148.65" y="220.802" width="8.7" height="8.62603" fill="white" stroke="#3F8AE2" stroke-width="0.7"/>
<path d="M408.207 196.468H379.98L376.621 204.247C375.521 206.84 374.971 208.981 374.971 210.67C374.971 212.909 375.875 214.559 377.682 215.62C378.743 216.249 381.355 216.72 385.52 217.034V219.215H358.943V217.034C361.811 216.602 364.168 215.424 366.014 213.499C367.861 211.534 370.139 207.508 372.85 201.418L401.43 137.658H402.55L431.366 203.186C434.116 209.393 436.375 213.302 438.143 214.913C439.479 216.131 441.364 216.838 443.8 217.034V219.215H405.143V217.034H406.734C409.838 217.034 412.018 216.602 413.275 215.738C414.139 215.109 414.571 214.206 414.571 213.027C414.571 212.32 414.454 211.593 414.218 210.847C414.139 210.493 413.55 209.02 412.45 206.427L408.207 196.468ZM406.204 192.108L394.3 164.588L382.043 192.108H406.204Z" fill="white"/>
<line x1="344" y1="220.715" x2="460" y2="220.715" stroke="#3F8AE2" stroke-width="3"/>
<rect x="315.5" y="115.715" width="170" height="120" stroke="#3F8AE2" stroke-width="3"/>
<rect x="308.5" y="109.715" width="17" height="15" fill="white" stroke="#3F8AE2" stroke-width="3"/>
<rect x="308.5" y="223.715" width="17" height="15" fill="white" stroke="#3F8AE2" stroke-width="3"/>
<rect x="475.5" y="223.715" width="17" height="15" fill="white" stroke="#3F8AE2" stroke-width="3"/>
<rect x="475.5" y="109.715" width="17" height="15" fill="white" stroke="#3F8AE2" stroke-width="3"/>
</svg>
