<svg width="90" height="72" viewBox="0 0 90 72" fill="none" xmlns="http://www.w3.org/2000/svg">
<g clip-path="url(#clip0_2753_314839)">
<g clip-path="url(#clip1_2753_314839)">
<path d="M18.4031 9.6C18.4031 13.0669 19.086 16.4999 20.4127 19.7028C21.7394 22.9058 23.684 25.8162 26.1355 28.2676C28.587 30.7191 31.4973 32.6637 34.7003 33.9904C37.9033 35.3171 41.3362 36 44.8031 36C48.27 36 51.703 35.3171 54.906 33.9904C58.109 32.6637 61.0193 30.7191 63.4707 28.2676C65.9222 25.8162 67.8668 22.9058 69.1935 19.7028C70.5203 16.4998 71.2031 13.0669 71.2031 9.6L58.4841 9.6C58.4841 11.3966 58.1302 13.1756 57.4427 14.8355C56.7552 16.4953 55.7474 18.0035 54.477 19.2739C53.2067 20.5443 51.6985 21.5521 50.0386 22.2396C48.3788 22.9271 46.5997 23.281 44.8031 23.281C43.0065 23.281 41.2275 22.9271 39.5676 22.2396C37.9078 21.5521 36.3996 20.5443 35.1292 19.2739C33.8588 18.0035 32.8511 16.4953 32.1635 14.8355C31.476 13.1756 31.1221 11.3966 31.1221 9.6L18.4031 9.6Z" fill="#4AA35C"/>
<path d="M71.2023 62.4C71.2023 58.9331 70.5195 55.5001 69.1928 52.2972C67.866 49.0942 65.9214 46.1838 63.47 43.7324C61.0185 41.2809 58.1082 39.3363 54.9052 38.0096C51.7022 36.6829 48.2692 36 44.8023 36C41.3354 36 37.9025 36.6829 34.6995 38.0096C31.4965 39.3363 28.5862 41.2809 26.1347 43.7324C23.6833 46.1838 21.7386 49.0942 20.4119 52.2972C19.0852 55.5002 18.4023 58.9331 18.4023 62.4L31.1214 62.4C31.1214 60.6034 31.4752 58.8244 32.1628 57.1645C32.8503 55.5047 33.858 53.9965 35.1284 52.7261C36.3988 51.4557 37.907 50.4479 39.5669 49.7604C41.2267 49.0729 43.0057 48.719 44.8023 48.719C46.599 48.719 48.378 49.0729 50.0378 49.7604C51.6977 50.4479 53.2059 51.4557 54.4763 52.7261C55.7467 53.9965 56.7544 55.5047 57.4419 57.1645C58.1295 58.8244 58.4833 60.6034 58.4833 62.4L71.2023 62.4Z" fill="#EBBE52"/>
</g>
</g>
<defs>
<clipPath id="clip0_2753_314839">
<rect width="90" height="71.3342" fill="white"/>
</clipPath>
<clipPath id="clip1_2753_314839">
<rect width="89.6" height="72" fill="white"/>
</clipPath>
</defs>
</svg>
