<svg width="60" height="42" viewBox="0 0 60 42" fill="none" xmlns="http://www.w3.org/2000/svg">
<circle cx="6.29911" cy="6.29911" r="6.29911" fill="#EF8435"/>
<circle cx="8.52567" cy="6.29911" r="6.11384" stroke="black" stroke-width="0.370536"/>
<circle cx="6.29911" cy="31.4964" r="6.29911" fill="#EF8435"/>
<path d="M36.6797 2.90769e-06C31.1764 3.14824e-06 25.8986 2.18616 22.0072 6.07754C18.1158 9.96892 15.9297 15.2468 15.9297 20.75C15.9297 26.2532 18.1158 31.5311 22.0072 35.4225C25.8986 39.3138 31.1764 41.5 36.6797 41.5L36.6797 20.75L36.6797 2.90769e-06Z" fill="#4AA35C"/>
<mask id="path-5-inside-1_3142_56850" fill="white">
<path d="M40.3895 1.85185C35.3776 1.85185 30.571 3.84281 27.0271 7.38675C23.4831 10.9307 21.4922 15.7373 21.4922 20.7492C21.4922 25.761 23.4831 30.5677 27.0271 34.1116C30.571 37.6555 35.3776 39.6465 40.3895 39.6465L40.3895 20.7492L40.3895 1.85185Z"/>
</mask>
<path d="M40.3895 1.85185C35.3776 1.85185 30.571 3.84281 27.0271 7.38675C23.4831 10.9307 21.4922 15.7373 21.4922 20.7492C21.4922 25.761 23.4831 30.5677 27.0271 34.1116C30.571 37.6555 35.3776 39.6465 40.3895 39.6465L40.3895 20.7492L40.3895 1.85185Z" stroke="#333333" stroke-width="0.741071" mask="url(#path-5-inside-1_3142_56850)"/>
<circle cx="7.78348" cy="31.4964" r="6.11384" stroke="black" stroke-width="0.370536"/>
</svg>
