<svg width="48" height="43" viewBox="0 0 48 43" fill="none" xmlns="http://www.w3.org/2000/svg">
<path d="M42.8009 21.502C42.8009 27.1519 40.5565 32.5703 36.5615 36.5654C32.5664 40.5605 27.148 42.8049 21.4981 42.8049C15.8483 42.8049 10.4298 40.5605 6.43476 36.5654C2.43971 32.5704 0.195313 27.1519 0.195313 21.502L9.25497 21.502C9.25497 24.7491 10.5449 27.8632 12.8409 30.1593C15.1369 32.4553 18.251 33.7452 21.4981 33.7452C24.7452 33.7452 27.8593 32.4553 30.1553 30.1593C32.4514 27.8632 33.7413 24.7491 33.7413 21.502H42.8009Z" fill="#EBBE52"/>
<mask id="path-2-inside-1_3142_56840" fill="white">
<path d="M47.0588 21.502C47.0588 27.1519 44.8144 32.5703 40.8193 36.5654C36.8243 40.5605 31.4058 42.8049 25.7559 42.8049C20.1061 42.8049 14.6876 40.5605 10.6926 36.5654C6.69752 32.5704 4.45313 27.1519 4.45313 21.502L13.5128 21.502C13.5128 24.7491 14.8027 27.8632 17.0987 30.1593C19.3948 32.4553 22.5089 33.7452 25.7559 33.7452C29.003 33.7452 32.1171 32.4553 34.4132 30.1593C36.7092 27.8632 37.9991 24.7491 37.9991 21.502H47.0588Z"/>
</mask>
<path d="M47.0588 21.502C47.0588 27.1519 44.8144 32.5703 40.8193 36.5654C36.8243 40.5605 31.4058 42.8049 25.7559 42.8049C20.1061 42.8049 14.6876 40.5605 10.6926 36.5654C6.69752 32.5704 4.45313 27.1519 4.45313 21.502L13.5128 21.502C13.5128 24.7491 14.8027 27.8632 17.0987 30.1593C19.3948 32.4553 22.5089 33.7452 25.7559 33.7452C29.003 33.7452 32.1171 32.4553 34.4132 30.1593C36.7092 27.8632 37.9991 24.7491 37.9991 21.502H47.0588Z" stroke="#333333" stroke-width="0.774648" mask="url(#path-2-inside-1_3142_56840)"/>
<circle cx="12.3974" cy="12.7881" r="5.6162" fill="#4AA35C"/>
<circle cx="13.5615" cy="12.7881" r="5.42253" stroke="#333333" stroke-width="0.387324"/>
<circle cx="31.374" cy="12.7881" r="5.6162" fill="#4AA35C"/>
<circle cx="33.3115" cy="12.7881" r="5.42253" stroke="#333333" stroke-width="0.387324"/>
</svg>
