<svg width="296" height="210" viewBox="0 0 296 210" fill="none" xmlns="http://www.w3.org/2000/svg">
<rect x="0.5" y="0.5" width="295" height="209" rx="7.5" fill="#111111"/>
<rect x="29" y="30" width="221" height="4.16981" fill="#FAD9C0"/>
<rect x="29" y="44.5938" width="221" height="4.16981" fill="#FAD9C0"/>
<rect x="29" y="44.5938" width="21.8915" height="4.16981" fill="#EF8435"/>
<rect x="29" y="59.1875" width="221" height="4.16981" fill="#FAD9C0"/>
<rect x="29" y="59.1875" width="43.783" height="4.16981" fill="#EF8435"/>
<rect x="29" y="73.7812" width="221" height="4.16981" fill="#FAD9C0"/>
<rect x="29" y="73.7812" width="65.6745" height="4.16981" fill="#EF8435"/>
<rect x="29" y="88.3789" width="221" height="4.16981" fill="#FAD9C0"/>
<rect x="29" y="88.3789" width="87.566" height="4.16981" fill="#EF8435"/>
<rect x="29" y="102.973" width="221" height="4.16981" fill="#FAD9C0"/>
<rect x="29" y="102.973" width="109.458" height="4.16981" fill="#EF8435"/>
<rect x="29" y="117.566" width="221" height="4.16981" fill="#FAD9C0"/>
<rect x="29" y="117.566" width="131.349" height="4.16981" fill="#EF8435"/>
<rect x="29" y="132.16" width="221" height="4.16981" fill="#FAD9C0"/>
<rect x="29" y="132.16" width="153.241" height="4.16981" fill="#EF8435"/>
<rect x="29" y="146.754" width="221" height="4.16981" fill="#FAD9C0"/>
<rect x="29" y="146.754" width="175.132" height="4.16981" fill="#EF8435"/>
<rect x="29" y="161.348" width="221" height="4.16981" fill="#FAD9C0"/>
<rect x="29" y="161.348" width="197.024" height="4.16981" fill="#EF8435"/>
<rect x="29" y="175.945" width="221" height="4.16981" fill="#FAD9C0"/>
<rect x="29" y="175.945" width="221" height="4.16981" fill="#EF8435"/>
<rect x="0.5" y="0.5" width="295" height="209" rx="7.5" stroke="#333333"/>
</svg>
