<svg width="296" height="210" viewBox="0 0 296 210" fill="none" xmlns="http://www.w3.org/2000/svg">
<rect x="0.5" y="0.5" width="295" height="209" rx="7.5" fill="#111111"/>
<path d="M129 104.5C129 128.524 109.524 148 85.5 148C61.4756 148 42 128.524 42 104.5C42 80.4756 61.4756 61 85.5 61C109.524 61 129 80.4756 129 104.5ZM47.22 104.5C47.22 125.641 64.3585 142.78 85.5 142.78C106.641 142.78 123.78 125.641 123.78 104.5C123.78 83.3585 106.641 66.22 85.5 66.22C64.3585 66.22 47.22 83.3585 47.22 104.5Z" fill="#DCEFE4"/>
<path d="M85.5 61C91.2125 61 96.8691 62.1252 102.147 64.3112C107.424 66.4973 112.22 69.7015 116.259 73.7409C120.299 77.7802 123.503 82.5756 125.689 87.8533C127.875 93.1309 129 98.7875 129 104.5H123.78C123.78 99.473 122.79 94.4952 120.866 89.8509C118.942 85.2065 116.123 80.9866 112.568 77.432C109.013 73.8773 104.793 71.0576 100.149 69.1339C95.5048 67.2101 90.527 66.22 85.5 66.22V61Z" fill="#3E8D61"/>
<path d="M254 104.5C254 128.524 234.524 148 210.5 148C186.476 148 167 128.524 167 104.5C167 80.4756 186.476 61 210.5 61C234.524 61 254 80.4756 254 104.5ZM172.22 104.5C172.22 125.641 189.359 142.78 210.5 142.78C231.641 142.78 248.78 125.641 248.78 104.5C248.78 83.3585 231.641 66.22 210.5 66.22C189.359 66.22 172.22 83.3585 172.22 104.5Z" fill="#FAD9C0"/>
<path d="M210.5 61C216.212 61 221.869 62.1252 227.147 64.3112C232.424 66.4973 237.22 69.7015 241.259 73.7409C245.298 77.7802 248.503 82.5756 250.689 87.8533C252.875 93.1309 254 98.7875 254 104.5H248.78C248.78 99.473 247.79 94.4952 245.866 89.8509C243.942 85.2065 241.123 80.9866 237.568 77.432C234.013 73.8773 229.793 71.0576 225.149 69.1339C220.505 67.2101 215.527 66.22 210.5 66.22V61Z" fill="#EF8435"/>
<rect x="0.5" y="0.5" width="295" height="209" rx="7.5" stroke="#333333"/>
</svg>
