<svg width="296" height="210" viewBox="0 0 296 210" fill="none" xmlns="http://www.w3.org/2000/svg">
<g clip-path="url(#clip0_2214_96208)">
<rect width="296" height="210" rx="8" fill="#111111"/>
<path d="M81.1598 183.037C40.7603 183.037 40.7603 176.309 0 176.309V209.949H81.1598H162.32H243.84H325V147.476C284.24 147.476 284.24 173.426 243.84 173.426C203.08 173.426 203.08 129.695 162.32 129.695C121.92 129.695 121.92 183.037 81.1598 183.037Z" fill="#D77730"/>
<path d="M81.1598 109.511C40.7603 109.511 40.7603 170.542 0 170.542V176.309C40.7603 176.309 40.7603 183.037 81.1598 183.037C121.92 183.037 121.92 129.695 162.32 129.695C203.08 129.695 203.08 173.426 243.84 173.426C284.24 173.426 284.24 147.476 325 147.476V53.7667C284.24 53.7667 280.741 129.695 240.342 129.695C199.581 129.695 203.08 48 162.32 48C121.92 48 121.92 109.511 81.1598 109.511Z" fill="#EF8435"/>
<path d="M24.0369 116.581V109.308H24.5028V116.581H24.0369ZM25.6051 111.49C25.571 111.202 25.4328 110.979 25.1903 110.819C24.9479 110.66 24.6506 110.581 24.2983 110.581C24.0407 110.581 23.8153 110.622 23.6222 110.706C23.4309 110.789 23.2813 110.904 23.1733 111.05C23.0672 111.195 23.0142 111.361 23.0142 111.547C23.0142 111.702 23.0511 111.836 23.125 111.947C23.2008 112.057 23.2973 112.149 23.4148 112.223C23.5322 112.295 23.6553 112.354 23.7841 112.402C23.9129 112.447 24.0312 112.484 24.1392 112.513L24.7301 112.672C24.8816 112.711 25.0502 112.766 25.2358 112.836C25.4233 112.907 25.6023 113.002 25.7727 113.123C25.9451 113.243 26.0871 113.396 26.1989 113.584C26.3106 113.771 26.3665 114.001 26.3665 114.274C26.3665 114.588 26.2841 114.872 26.1193 115.126C25.9564 115.38 25.7178 115.582 25.4034 115.731C25.0909 115.881 24.7112 115.956 24.2642 115.956C23.8475 115.956 23.4867 115.889 23.1818 115.754C22.8788 115.62 22.6402 115.432 22.4659 115.192C22.2936 114.951 22.196 114.672 22.1733 114.354H22.9006C22.9195 114.573 22.9934 114.755 23.1222 114.899C23.2528 115.041 23.4176 115.147 23.6165 115.217C23.8172 115.285 24.0331 115.319 24.2642 115.319C24.5331 115.319 24.7746 115.276 24.9886 115.189C25.2027 115.1 25.3722 114.977 25.4972 114.819C25.6222 114.66 25.6847 114.475 25.6847 114.263C25.6847 114.069 25.6307 113.912 25.5227 113.791C25.4148 113.67 25.2727 113.571 25.0966 113.496C24.9205 113.42 24.7301 113.354 24.5256 113.297L23.8097 113.092C23.3551 112.961 22.9953 112.775 22.7301 112.532C22.465 112.29 22.3324 111.973 22.3324 111.581C22.3324 111.255 22.4205 110.971 22.5966 110.729C22.7746 110.484 23.0133 110.295 23.3125 110.16C23.6136 110.024 23.9498 109.956 24.321 109.956C24.696 109.956 25.0294 110.023 25.321 110.157C25.6127 110.29 25.8438 110.472 26.0142 110.703C26.1866 110.934 26.2775 111.196 26.2869 111.49H25.6051ZM27.4226 115.854V115.342L29.343 113.24C29.5684 112.994 29.754 112.78 29.8999 112.598C30.0457 112.414 30.1536 112.242 30.2237 112.081C30.2957 111.918 30.3317 111.747 30.3317 111.569C30.3317 111.365 30.2824 111.188 30.1839 111.038C30.0874 110.889 29.9548 110.773 29.7862 110.692C29.6177 110.61 29.4283 110.569 29.218 110.569C28.9946 110.569 28.7995 110.616 28.6328 110.709C28.468 110.8 28.3402 110.927 28.2493 111.092C28.1603 111.257 28.1158 111.45 28.1158 111.672H27.4453C27.4453 111.331 27.5239 111.032 27.6811 110.774C27.8383 110.516 28.0523 110.316 28.3232 110.172C28.5959 110.028 28.9018 109.956 29.2408 109.956C29.5817 109.956 29.8838 110.028 30.147 110.172C30.4103 110.316 30.6167 110.51 30.7663 110.754C30.916 110.998 30.9908 111.27 30.9908 111.569C30.9908 111.783 30.9519 111.993 30.8743 112.197C30.7985 112.4 30.666 112.626 30.4766 112.876C30.2891 113.124 30.0286 113.427 29.6953 113.785L28.3885 115.183V115.229H31.093V115.854H27.4226ZM34.2322 115.933C33.8572 115.933 33.523 115.869 33.2294 115.74C32.9377 115.611 32.7057 115.432 32.5334 115.203C32.3629 114.972 32.2701 114.704 32.255 114.399H32.9709C32.986 114.586 33.0504 114.748 33.1641 114.885C33.2777 115.019 33.4264 115.123 33.6101 115.197C33.7938 115.271 33.9974 115.308 34.2209 115.308C34.4709 115.308 34.6925 115.265 34.8857 115.177C35.0788 115.09 35.2304 114.969 35.3402 114.814C35.45 114.658 35.505 114.479 35.505 114.274C35.505 114.06 35.4519 113.872 35.3459 113.709C35.2398 113.544 35.0845 113.415 34.88 113.322C34.6754 113.229 34.4254 113.183 34.13 113.183H33.6641V112.558H34.13C34.361 112.558 34.5637 112.516 34.7379 112.433C34.9141 112.35 35.0514 112.232 35.1499 112.081C35.2502 111.929 35.3004 111.751 35.3004 111.547C35.3004 111.35 35.2569 111.178 35.1697 111.032C35.0826 110.887 34.9595 110.773 34.8004 110.692C34.6432 110.61 34.4576 110.569 34.2436 110.569C34.0429 110.569 33.8535 110.606 33.6754 110.68C33.4993 110.752 33.3554 110.857 33.2436 110.996C33.1319 111.132 33.0713 111.297 33.0618 111.49H32.38C32.3913 111.185 32.4832 110.918 32.6555 110.689C32.8279 110.458 33.0533 110.278 33.3317 110.149C33.612 110.02 33.9197 109.956 34.255 109.956C34.6148 109.956 34.9235 110.029 35.1811 110.175C35.4387 110.318 35.6366 110.509 35.7749 110.746C35.9131 110.982 35.9822 111.238 35.9822 111.513C35.9822 111.84 35.8961 112.12 35.7237 112.351C35.5533 112.582 35.3213 112.742 35.0277 112.831V112.876C35.3951 112.937 35.6821 113.093 35.8885 113.345C36.0949 113.595 36.1982 113.905 36.1982 114.274C36.1982 114.59 36.112 114.874 35.9396 115.126C35.7692 115.376 35.5362 115.573 35.2408 115.717C34.9453 115.861 34.6091 115.933 34.2322 115.933ZM39.2578 115.933C38.8298 115.933 38.4652 115.817 38.1641 115.584C37.8629 115.349 37.6328 115.009 37.4737 114.564C37.3146 114.117 37.2351 113.577 37.2351 112.944C37.2351 112.316 37.3146 111.779 37.4737 111.334C37.6347 110.887 37.8658 110.546 38.1669 110.311C38.4699 110.074 38.8336 109.956 39.2578 109.956C39.6821 109.956 40.0447 110.074 40.3459 110.311C40.6489 110.546 40.88 110.887 41.0391 111.334C41.2 111.779 41.2805 112.316 41.2805 112.944C41.2805 113.577 41.201 114.117 41.0419 114.564C40.8828 115.009 40.6527 115.349 40.3516 115.584C40.0504 115.817 39.6858 115.933 39.2578 115.933ZM39.2578 115.308C39.6821 115.308 40.0116 115.104 40.2464 114.694C40.4813 114.285 40.5987 113.702 40.5987 112.944C40.5987 112.441 40.5447 112.012 40.4368 111.657C40.3307 111.303 40.1773 111.033 39.9766 110.848C39.7777 110.662 39.5381 110.569 39.2578 110.569C38.8374 110.569 38.5088 110.777 38.272 111.192C38.0353 111.604 37.9169 112.189 37.9169 112.944C37.9169 113.448 37.9699 113.876 38.076 114.229C38.1821 114.581 38.3345 114.849 38.5334 115.032C38.7341 115.216 38.9756 115.308 39.2578 115.308ZM43.1683 115.058L43.1229 115.365C43.0907 115.581 43.0414 115.812 42.9751 116.058C42.9107 116.304 42.8435 116.536 42.7734 116.754C42.7034 116.972 42.6456 117.145 42.6001 117.274H42.0888C42.1134 117.153 42.1456 116.993 42.1854 116.794C42.2251 116.595 42.2649 116.372 42.3047 116.126C42.3464 115.882 42.3804 115.632 42.407 115.376L42.4411 115.058H43.1683ZM46.0938 115.933C45.6657 115.933 45.3011 115.817 45 115.584C44.6989 115.349 44.4688 115.009 44.3097 114.564C44.1506 114.117 44.071 113.577 44.071 112.944C44.071 112.316 44.1506 111.779 44.3097 111.334C44.4706 110.887 44.7017 110.546 45.0028 110.311C45.3059 110.074 45.6695 109.956 46.0938 109.956C46.518 109.956 46.8807 110.074 47.1818 110.311C47.4848 110.546 47.7159 110.887 47.875 111.334C48.036 111.779 48.1165 112.316 48.1165 112.944C48.1165 113.577 48.0369 114.117 47.8778 114.564C47.7188 115.009 47.4886 115.349 47.1875 115.584C46.8864 115.817 46.5218 115.933 46.0938 115.933ZM46.0938 115.308C46.518 115.308 46.8475 115.104 47.0824 114.694C47.3172 114.285 47.4347 113.702 47.4347 112.944C47.4347 112.441 47.3807 112.012 47.2727 111.657C47.1667 111.303 47.0133 111.033 46.8125 110.848C46.6136 110.662 46.3741 110.569 46.0938 110.569C45.6733 110.569 45.3447 110.777 45.108 111.192C44.8712 111.604 44.7528 112.189 44.7528 112.944C44.7528 113.448 44.8059 113.876 44.9119 114.229C45.018 114.581 45.1705 114.849 45.3693 115.032C45.5701 115.216 45.8116 115.308 46.0938 115.308ZM51.0938 115.933C50.6657 115.933 50.3011 115.817 50 115.584C49.6989 115.349 49.4688 115.009 49.3097 114.564C49.1506 114.117 49.071 113.577 49.071 112.944C49.071 112.316 49.1506 111.779 49.3097 111.334C49.4706 110.887 49.7017 110.546 50.0028 110.311C50.3059 110.074 50.6695 109.956 51.0938 109.956C51.518 109.956 51.8807 110.074 52.1818 110.311C52.4848 110.546 52.7159 110.887 52.875 111.334C53.036 111.779 53.1165 112.316 53.1165 112.944C53.1165 113.577 53.0369 114.117 52.8778 114.564C52.7188 115.009 52.4886 115.349 52.1875 115.584C51.8864 115.817 51.5218 115.933 51.0938 115.933ZM51.0938 115.308C51.518 115.308 51.8475 115.104 52.0824 114.694C52.3172 114.285 52.4347 113.702 52.4347 112.944C52.4347 112.441 52.3807 112.012 52.2727 111.657C52.1667 111.303 52.0133 111.033 51.8125 110.848C51.6136 110.662 51.3741 110.569 51.0938 110.569C50.6733 110.569 50.3447 110.777 50.108 111.192C49.8712 111.604 49.7528 112.189 49.7528 112.944C49.7528 113.448 49.8059 113.876 49.9119 114.229C50.018 114.581 50.1705 114.849 50.3693 115.032C50.5701 115.216 50.8116 115.308 51.0938 115.308Z" fill="#333333"/>
<g filter="url(#filter0_dd_2214_96208)">
<rect x="58.5938" y="105.854" width="14" height="14" rx="7" fill="#D77730"/>
<rect x="59.5938" y="106.854" width="12" height="12" rx="6" stroke="white" stroke-width="2"/>
</g>
<path d="M161.303 162.208V154.935H161.768V162.208H161.303ZM162.871 157.117C162.837 156.829 162.698 156.605 162.456 156.446C162.214 156.287 161.916 156.208 161.564 156.208C161.306 156.208 161.081 156.249 160.888 156.333C160.696 156.416 160.547 156.531 160.439 156.676C160.333 156.822 160.28 156.988 160.28 157.174C160.28 157.329 160.317 157.462 160.391 157.574C160.466 157.684 160.563 157.776 160.68 157.85C160.798 157.922 160.921 157.981 161.05 158.029C161.179 158.074 161.297 158.111 161.405 158.14L161.996 158.299C162.147 158.338 162.316 158.393 162.501 158.463C162.689 158.533 162.868 158.629 163.038 158.75C163.211 158.87 163.353 159.023 163.464 159.211C163.576 159.398 163.632 159.628 163.632 159.901C163.632 160.215 163.55 160.499 163.385 160.753C163.222 161.007 162.983 161.209 162.669 161.358C162.357 161.508 161.977 161.583 161.53 161.583C161.113 161.583 160.752 161.516 160.447 161.381C160.144 161.247 159.906 161.059 159.732 160.819C159.559 160.578 159.462 160.299 159.439 159.98H160.166C160.185 160.2 160.259 160.382 160.388 160.526C160.518 160.668 160.683 160.774 160.882 160.844C161.083 160.912 161.299 160.946 161.53 160.946C161.799 160.946 162.04 160.903 162.254 160.816C162.468 160.727 162.638 160.604 162.763 160.446C162.888 160.287 162.95 160.102 162.95 159.89C162.95 159.696 162.896 159.539 162.788 159.418C162.68 159.297 162.538 159.198 162.362 159.123C162.186 159.047 161.996 158.98 161.791 158.924L161.075 158.719C160.621 158.588 160.261 158.402 159.996 158.159C159.731 157.917 159.598 157.6 159.598 157.208C159.598 156.882 159.686 156.598 159.862 156.355C160.04 156.111 160.279 155.922 160.578 155.787C160.879 155.651 161.215 155.583 161.587 155.583C161.962 155.583 162.295 155.65 162.587 155.784C162.878 155.917 163.109 156.099 163.28 156.33C163.452 156.561 163.543 156.823 163.553 157.117H162.871ZM166.734 155.662V161.48H166.029V156.401H165.995L164.575 157.344V156.628L166.029 155.662H166.734ZM169.075 160.685L169.029 160.992C168.997 161.208 168.948 161.439 168.881 161.685C168.817 161.931 168.75 162.163 168.68 162.381C168.61 162.599 168.552 162.772 168.506 162.901H167.995C168.02 162.78 168.052 162.62 168.092 162.421C168.131 162.222 168.171 161.999 168.211 161.753C168.253 161.509 168.287 161.259 168.313 161.003L168.347 160.685H169.075ZM172 161.56C171.572 161.56 171.207 161.444 170.906 161.211C170.605 160.976 170.375 160.636 170.216 160.191C170.057 159.744 169.977 159.204 169.977 158.571C169.977 157.943 170.057 157.406 170.216 156.961C170.377 156.514 170.608 156.173 170.909 155.938C171.212 155.701 171.576 155.583 172 155.583C172.424 155.583 172.787 155.701 173.088 155.938C173.391 156.173 173.622 156.514 173.781 156.961C173.942 157.406 174.023 157.943 174.023 158.571C174.023 159.204 173.943 159.744 173.784 160.191C173.625 160.636 173.395 160.976 173.094 161.211C172.793 161.444 172.428 161.56 172 161.56ZM172 160.935C172.424 160.935 172.754 160.73 172.989 160.321C173.223 159.912 173.341 159.329 173.341 158.571C173.341 158.068 173.287 157.639 173.179 157.284C173.073 156.93 172.92 156.66 172.719 156.475C172.52 156.289 172.28 156.196 172 156.196C171.58 156.196 171.251 156.404 171.014 156.819C170.777 157.231 170.659 157.816 170.659 158.571C170.659 159.075 170.712 159.503 170.818 159.855C170.924 160.208 171.077 160.476 171.276 160.659C171.476 160.843 171.718 160.935 172 160.935ZM177 161.56C176.572 161.56 176.207 161.444 175.906 161.211C175.605 160.976 175.375 160.636 175.216 160.191C175.057 159.744 174.977 159.204 174.977 158.571C174.977 157.943 175.057 157.406 175.216 156.961C175.377 156.514 175.608 156.173 175.909 155.938C176.212 155.701 176.576 155.583 177 155.583C177.424 155.583 177.787 155.701 178.088 155.938C178.391 156.173 178.622 156.514 178.781 156.961C178.942 157.406 179.023 157.943 179.023 158.571C179.023 159.204 178.943 159.744 178.784 160.191C178.625 160.636 178.395 160.976 178.094 161.211C177.793 161.444 177.428 161.56 177 161.56ZM177 160.935C177.424 160.935 177.754 160.73 177.989 160.321C178.223 159.912 178.341 159.329 178.341 158.571C178.341 158.068 178.287 157.639 178.179 157.284C178.073 156.93 177.92 156.66 177.719 156.475C177.52 156.289 177.28 156.196 177 156.196C176.58 156.196 176.251 156.404 176.014 156.819C175.777 157.231 175.659 157.816 175.659 158.571C175.659 159.075 175.712 159.503 175.818 159.855C175.924 160.208 176.077 160.476 176.276 160.659C176.476 160.843 176.718 160.935 177 160.935ZM181.955 155.583C182.193 155.585 182.432 155.63 182.67 155.719C182.909 155.808 183.127 155.956 183.324 156.162C183.521 156.367 183.679 156.646 183.798 157C183.918 157.355 183.977 157.799 183.977 158.333C183.977 158.85 183.928 159.309 183.83 159.711C183.733 160.11 183.593 160.447 183.409 160.722C183.227 160.997 183.006 161.205 182.744 161.347C182.485 161.489 182.191 161.56 181.864 161.56C181.538 161.56 181.247 161.496 180.991 161.367C180.738 161.236 180.529 161.055 180.366 160.824C180.205 160.591 180.102 160.321 180.057 160.015H180.75C180.812 160.282 180.937 160.502 181.122 160.676C181.31 160.849 181.557 160.935 181.864 160.935C182.313 160.935 182.667 160.739 182.926 160.347C183.188 159.955 183.318 159.401 183.318 158.685H183.273C183.167 158.844 183.041 158.981 182.895 159.097C182.749 159.212 182.587 159.301 182.409 159.364C182.231 159.426 182.042 159.458 181.841 159.458C181.508 159.458 181.202 159.375 180.923 159.211C180.647 159.044 180.425 158.816 180.259 158.526C180.094 158.234 180.011 157.901 180.011 157.526C180.011 157.17 180.091 156.844 180.25 156.549C180.411 156.251 180.636 156.015 180.926 155.838C181.218 155.662 181.561 155.577 181.955 155.583ZM181.955 156.208C181.716 156.208 181.501 156.267 181.31 156.387C181.12 156.504 180.97 156.663 180.858 156.864C180.748 157.063 180.693 157.283 180.693 157.526C180.693 157.768 180.746 157.989 180.852 158.188C180.96 158.385 181.107 158.542 181.293 158.659C181.48 158.775 181.693 158.833 181.932 158.833C182.112 158.833 182.279 158.798 182.435 158.728C182.59 158.656 182.725 158.558 182.841 158.435C182.958 158.31 183.05 158.169 183.116 158.012C183.183 157.853 183.216 157.687 183.216 157.515C183.216 157.287 183.161 157.074 183.051 156.875C182.943 156.676 182.794 156.516 182.602 156.392C182.413 156.269 182.197 156.208 181.955 156.208ZM185.903 160.685L185.857 160.992C185.825 161.208 185.776 161.439 185.71 161.685C185.645 161.931 185.578 162.163 185.508 162.381C185.438 162.599 185.38 162.772 185.335 162.901H184.823C184.848 162.78 184.88 162.62 184.92 162.421C184.96 162.222 184.999 161.999 185.039 161.753C185.081 161.509 185.115 161.259 185.141 161.003L185.175 160.685H185.903ZM188.828 161.56C188.4 161.56 188.036 161.444 187.734 161.211C187.433 160.976 187.203 160.636 187.044 160.191C186.885 159.744 186.805 159.204 186.805 158.571C186.805 157.943 186.885 157.406 187.044 156.961C187.205 156.514 187.436 156.173 187.737 155.938C188.04 155.701 188.404 155.583 188.828 155.583C189.252 155.583 189.615 155.701 189.916 155.938C190.219 156.173 190.45 156.514 190.609 156.961C190.77 157.406 190.851 157.943 190.851 158.571C190.851 159.204 190.771 159.744 190.612 160.191C190.453 160.636 190.223 160.976 189.922 161.211C189.621 161.444 189.256 161.56 188.828 161.56ZM188.828 160.935C189.252 160.935 189.582 160.73 189.817 160.321C190.052 159.912 190.169 159.329 190.169 158.571C190.169 158.068 190.115 157.639 190.007 157.284C189.901 156.93 189.748 156.66 189.547 156.475C189.348 156.289 189.108 156.196 188.828 156.196C188.408 156.196 188.079 156.404 187.842 156.819C187.606 157.231 187.487 157.816 187.487 158.571C187.487 159.075 187.54 159.503 187.646 159.855C187.752 160.208 187.905 160.476 188.104 160.659C188.304 160.843 188.546 160.935 188.828 160.935ZM193.828 161.56C193.4 161.56 193.036 161.444 192.734 161.211C192.433 160.976 192.203 160.636 192.044 160.191C191.885 159.744 191.805 159.204 191.805 158.571C191.805 157.943 191.885 157.406 192.044 156.961C192.205 156.514 192.436 156.173 192.737 155.938C193.04 155.701 193.404 155.583 193.828 155.583C194.252 155.583 194.615 155.701 194.916 155.938C195.219 156.173 195.45 156.514 195.609 156.961C195.77 157.406 195.851 157.943 195.851 158.571C195.851 159.204 195.771 159.744 195.612 160.191C195.453 160.636 195.223 160.976 194.922 161.211C194.621 161.444 194.256 161.56 193.828 161.56ZM193.828 160.935C194.252 160.935 194.582 160.73 194.817 160.321C195.052 159.912 195.169 159.329 195.169 158.571C195.169 158.068 195.115 157.639 195.007 157.284C194.901 156.93 194.748 156.66 194.547 156.475C194.348 156.289 194.108 156.196 193.828 156.196C193.408 156.196 193.079 156.404 192.842 156.819C192.606 157.231 192.487 157.816 192.487 158.571C192.487 159.075 192.54 159.503 192.646 159.855C192.752 160.208 192.905 160.476 193.104 160.659C193.304 160.843 193.546 160.935 193.828 160.935Z" fill="#333333"/>
<g filter="url(#filter1_dd_2214_96208)">
<rect x="201.328" y="151.48" width="14" height="14" rx="7" fill="#EF8435"/>
<rect x="202.328" y="152.48" width="12" height="12" rx="6" stroke="white" stroke-width="2"/>
</g>
</g>
<rect x="0.5" y="0.5" width="295" height="209" rx="7.5" stroke="#333333"/>
<defs>
<filter id="filter0_dd_2214_96208" x="54.5938" y="103.854" width="22" height="22" filterUnits="userSpaceOnUse" color-interpolation-filters="sRGB">
<feFlood flood-opacity="0" result="BackgroundImageFix"/>
<feColorMatrix in="SourceAlpha" type="matrix" values="0 0 0 0 0 0 0 0 0 0 0 0 0 0 0 0 0 0 127 0" result="hardAlpha"/>
<feOffset dy="2"/>
<feGaussianBlur stdDeviation="2"/>
<feColorMatrix type="matrix" values="0 0 0 0 0.196487 0 0 0 0 0.196487 0 0 0 0 0.279476 0 0 0 0.06 0"/>
<feBlend mode="multiply" in2="BackgroundImageFix" result="effect1_dropShadow_2214_96208"/>
<feColorMatrix in="SourceAlpha" type="matrix" values="0 0 0 0 0 0 0 0 0 0 0 0 0 0 0 0 0 0 127 0" result="hardAlpha"/>
<feOffset dy="2"/>
<feGaussianBlur stdDeviation="1"/>
<feColorMatrix type="matrix" values="0 0 0 0 0.196487 0 0 0 0 0.196487 0 0 0 0 0.279476 0 0 0 0.06 0"/>
<feBlend mode="multiply" in2="effect1_dropShadow_2214_96208" result="effect2_dropShadow_2214_96208"/>
<feBlend mode="normal" in="SourceGraphic" in2="effect2_dropShadow_2214_96208" result="shape"/>
</filter>
<filter id="filter1_dd_2214_96208" x="197.328" y="149.48" width="22" height="22" filterUnits="userSpaceOnUse" color-interpolation-filters="sRGB">
<feFlood flood-opacity="0" result="BackgroundImageFix"/>
<feColorMatrix in="SourceAlpha" type="matrix" values="0 0 0 0 0 0 0 0 0 0 0 0 0 0 0 0 0 0 127 0" result="hardAlpha"/>
<feOffset dy="2"/>
<feGaussianBlur stdDeviation="2"/>
<feColorMatrix type="matrix" values="0 0 0 0 0.196487 0 0 0 0 0.196487 0 0 0 0 0.279476 0 0 0 0.06 0"/>
<feBlend mode="multiply" in2="BackgroundImageFix" result="effect1_dropShadow_2214_96208"/>
<feColorMatrix in="SourceAlpha" type="matrix" values="0 0 0 0 0 0 0 0 0 0 0 0 0 0 0 0 0 0 127 0" result="hardAlpha"/>
<feOffset dy="2"/>
<feGaussianBlur stdDeviation="1"/>
<feColorMatrix type="matrix" values="0 0 0 0 0.196487 0 0 0 0 0.196487 0 0 0 0 0.279476 0 0 0 0.06 0"/>
<feBlend mode="multiply" in2="effect1_dropShadow_2214_96208" result="effect2_dropShadow_2214_96208"/>
<feBlend mode="normal" in="SourceGraphic" in2="effect2_dropShadow_2214_96208" result="shape"/>
</filter>
<clipPath id="clip0_2214_96208">
<rect width="296" height="210" rx="8" fill="white"/>
</clipPath>
</defs>
</svg>
