<svg width="296" height="210" viewBox="0 0 296 210" fill="none" xmlns="http://www.w3.org/2000/svg">
<rect x="0.5" y="0.5" width="295" height="209" rx="7.5" fill="#111111"/>
<rect width="46" height="29" transform="translate(161 70)" fill="#ECBFBC"/>
<path d="M171.497 81.593V79.8182H179.859V81.593H176.742V90H174.614V81.593H171.497ZM182.335 90.1442C181.848 90.1442 181.414 90.0597 181.033 89.8906C180.652 89.7183 180.35 89.4647 180.128 89.13C179.909 88.7919 179.8 88.371 179.8 87.8672C179.8 87.4429 179.878 87.0866 180.033 86.7983C180.189 86.5099 180.401 86.2779 180.67 86.1023C180.938 85.9266 181.243 85.794 181.585 85.7045C181.929 85.6151 182.29 85.5521 182.668 85.5156C183.112 85.4692 183.47 85.4261 183.742 85.3864C184.014 85.3433 184.211 85.2803 184.334 85.1974C184.456 85.1146 184.518 84.992 184.518 84.8295V84.7997C184.518 84.4848 184.418 84.2412 184.219 84.0689C184.024 83.8965 183.746 83.8104 183.384 83.8104C183.003 83.8104 182.7 83.8949 182.474 84.0639C182.249 84.2296 182.1 84.4384 182.027 84.6903L180.068 84.5312C180.168 84.0672 180.363 83.6662 180.655 83.3281C180.946 82.9867 181.323 82.7249 181.783 82.5426C182.247 82.357 182.784 82.2642 183.394 82.2642C183.818 82.2642 184.224 82.3139 184.612 82.4134C185.003 82.5128 185.35 82.6669 185.651 82.8757C185.956 83.0845 186.196 83.353 186.372 83.6811C186.548 84.0059 186.636 84.3954 186.636 84.8494V90H184.627V88.9411H184.567C184.445 89.1797 184.281 89.3902 184.075 89.5724C183.87 89.7514 183.623 89.8923 183.335 89.995C183.046 90.0945 182.713 90.1442 182.335 90.1442ZM182.942 88.6825C183.253 88.6825 183.528 88.6212 183.767 88.4986C184.006 88.3726 184.193 88.2036 184.329 87.9915C184.465 87.7794 184.533 87.5391 184.533 87.2706V86.4602C184.466 86.5033 184.375 86.5431 184.259 86.5795C184.147 86.6127 184.019 86.6442 183.876 86.674C183.734 86.7005 183.591 86.7254 183.449 86.7486C183.306 86.7685 183.177 86.7867 183.061 86.8033C182.813 86.8397 182.595 86.8977 182.41 86.9773C182.224 87.0568 182.08 87.1645 181.977 87.3004C181.875 87.433 181.823 87.5987 181.823 87.7976C181.823 88.0859 181.928 88.3063 182.136 88.4588C182.348 88.608 182.617 88.6825 182.942 88.6825ZM191.719 93.0227C191.033 93.0227 190.445 92.9283 189.954 92.7393C189.467 92.5537 189.079 92.3002 188.791 91.9787C188.502 91.6572 188.315 91.2959 188.229 90.8949L190.188 90.6314C190.248 90.7839 190.342 90.9264 190.471 91.0589C190.6 91.1915 190.771 91.2976 190.983 91.3771C191.199 91.46 191.461 91.5014 191.769 91.5014C192.23 91.5014 192.609 91.3887 192.907 91.1634C193.209 90.9413 193.36 90.5684 193.36 90.0447V88.6477H193.27C193.177 88.8598 193.038 89.0604 192.853 89.2493C192.667 89.4382 192.428 89.5923 192.137 89.7116C191.845 89.831 191.497 89.8906 191.093 89.8906C190.519 89.8906 189.997 89.758 189.527 89.4929C189.059 89.2244 188.686 88.8151 188.408 88.2649C188.133 87.7114 187.995 87.0121 187.995 86.1669C187.995 85.3018 188.136 84.5793 188.418 83.9993C188.7 83.4193 189.074 82.9851 189.542 82.6967C190.012 82.4084 190.528 82.2642 191.088 82.2642C191.515 82.2642 191.873 82.3371 192.162 82.483C192.45 82.6255 192.682 82.8045 192.858 83.0199C193.037 83.232 193.174 83.4408 193.27 83.6463H193.35V82.3636H195.453V90.0746C195.453 90.7242 195.294 91.2678 194.975 91.7053C194.657 92.1428 194.217 92.4709 193.653 92.6896C193.093 92.9117 192.448 93.0227 191.719 93.0227ZM191.764 88.2997C192.105 88.2997 192.394 88.2152 192.629 88.0462C192.868 87.8738 193.05 87.6286 193.176 87.3104C193.305 86.9889 193.37 86.6044 193.37 86.157C193.37 85.7095 193.307 85.3217 193.181 84.9936C193.055 84.6622 192.873 84.4053 192.634 84.223C192.395 84.0407 192.105 83.9496 191.764 83.9496C191.416 83.9496 191.123 84.044 190.884 84.233C190.645 84.4186 190.465 84.6771 190.342 85.0085C190.219 85.34 190.158 85.7228 190.158 86.157C190.158 86.5978 190.219 86.9789 190.342 87.3004C190.468 87.6186 190.649 87.8655 190.884 88.0412C191.123 88.2135 191.416 88.2997 191.764 88.2997Z" fill="#B6392C"/>
<rect width="32" height="22" transform="translate(89 27)" fill="#FAD9C0"/>
<path fill-rule="evenodd" clip-rule="evenodd" d="M106.397 33.6992C106.752 33.5579 107.132 33.4905 107.514 33.5011C107.897 33.5117 108.273 33.6002 108.619 33.761C108.966 33.9218 109.277 34.1516 109.531 34.4363C110.563 35.5838 110.384 37.3425 109.331 38.4012L109.33 38.4019L105.533 42.1988L105.268 41.9336L105.532 42.2C105.391 42.34 105.2 42.4185 105.001 42.4185C104.802 42.4185 104.611 42.34 104.47 42.2L104.468 42.1988L100.573 38.3035C100.303 38.033 100.091 37.7102 99.9492 37.3549C99.8079 36.9997 99.7405 36.6193 99.7511 36.2372C99.7617 35.855 99.8502 35.479 100.011 35.1321C100.172 34.7854 100.402 34.4751 100.686 34.2201C101.834 33.1882 103.592 33.3674 104.651 34.4209L104.653 34.4226L105.001 34.7733L105.447 34.324L105.448 34.323C105.719 34.0528 106.041 33.8405 106.397 33.6992ZM105.004 41.6672C105.004 41.6672 105.004 41.6671 105.004 41.6672L108.799 37.8722C108.799 37.8721 108.799 37.8721 108.799 37.872C109.611 37.0558 109.704 35.7493 108.974 34.9375L108.973 34.9369C108.786 34.7279 108.558 34.5594 108.304 34.4414C108.05 34.3235 107.774 34.2586 107.494 34.2508C107.213 34.243 106.934 34.2924 106.674 34.3961C106.414 34.4996 106.177 34.6551 105.979 34.8531C105.979 34.8533 105.979 34.8534 105.978 34.8536L105.267 35.5698C105.196 35.6407 105.101 35.6805 105.001 35.6805C104.901 35.6805 104.805 35.6406 104.735 35.5696L104.121 34.9518C103.305 34.1404 101.999 34.048 101.188 34.778L101.187 34.7786C100.978 34.9656 100.809 35.1933 100.691 35.4476C100.573 35.702 100.509 35.9777 100.501 36.258C100.493 36.5383 100.542 36.8172 100.646 37.0777C100.75 37.3382 100.905 37.5749 101.104 37.7732L104.997 41.6672C104.997 41.6671 104.998 41.6672 104.997 41.6672C104.998 41.668 105 41.6685 105.001 41.6685C105.002 41.6685 105.003 41.668 105.004 41.6672Z" fill="#EF8435"/>
<rect width="46" height="29" transform="translate(161 20)" fill="#FAD9C0"/>
<path d="M171.497 31.593V29.8182H179.859V31.593H176.742V40H174.614V31.593H171.497ZM182.335 40.1442C181.848 40.1442 181.414 40.0597 181.033 39.8906C180.652 39.7183 180.35 39.4647 180.128 39.13C179.909 38.7919 179.8 38.371 179.8 37.8672C179.8 37.4429 179.878 37.0866 180.033 36.7983C180.189 36.5099 180.401 36.2779 180.67 36.1023C180.938 35.9266 181.243 35.794 181.585 35.7045C181.929 35.6151 182.29 35.5521 182.668 35.5156C183.112 35.4692 183.47 35.4261 183.742 35.3864C184.014 35.3433 184.211 35.2803 184.334 35.1974C184.456 35.1146 184.518 34.992 184.518 34.8295V34.7997C184.518 34.4848 184.418 34.2412 184.219 34.0689C184.024 33.8965 183.746 33.8104 183.384 33.8104C183.003 33.8104 182.7 33.8949 182.474 34.0639C182.249 34.2296 182.1 34.4384 182.027 34.6903L180.068 34.5312C180.168 34.0672 180.363 33.6662 180.655 33.3281C180.946 32.9867 181.323 32.7249 181.783 32.5426C182.247 32.357 182.784 32.2642 183.394 32.2642C183.818 32.2642 184.224 32.3139 184.612 32.4134C185.003 32.5128 185.35 32.6669 185.651 32.8757C185.956 33.0845 186.196 33.353 186.372 33.6811C186.548 34.0059 186.636 34.3954 186.636 34.8494V40H184.627V38.9411H184.567C184.445 39.1797 184.281 39.3902 184.075 39.5724C183.87 39.7514 183.623 39.8923 183.335 39.995C183.046 40.0945 182.713 40.1442 182.335 40.1442ZM182.942 38.6825C183.253 38.6825 183.528 38.6212 183.767 38.4986C184.006 38.3726 184.193 38.2036 184.329 37.9915C184.465 37.7794 184.533 37.5391 184.533 37.2706V36.4602C184.466 36.5033 184.375 36.5431 184.259 36.5795C184.147 36.6127 184.019 36.6442 183.876 36.674C183.734 36.7005 183.591 36.7254 183.449 36.7486C183.306 36.7685 183.177 36.7867 183.061 36.8033C182.813 36.8397 182.595 36.8977 182.41 36.9773C182.224 37.0568 182.08 37.1645 181.977 37.3004C181.875 37.433 181.823 37.5987 181.823 37.7976C181.823 38.0859 181.928 38.3063 182.136 38.4588C182.348 38.608 182.617 38.6825 182.942 38.6825ZM191.719 43.0227C191.033 43.0227 190.445 42.9283 189.954 42.7393C189.467 42.5537 189.079 42.3002 188.791 41.9787C188.502 41.6572 188.315 41.2959 188.229 40.8949L190.188 40.6314C190.248 40.7839 190.342 40.9264 190.471 41.0589C190.6 41.1915 190.771 41.2976 190.983 41.3771C191.199 41.46 191.461 41.5014 191.769 41.5014C192.23 41.5014 192.609 41.3887 192.907 41.1634C193.209 40.9413 193.36 40.5684 193.36 40.0447V38.6477H193.27C193.177 38.8598 193.038 39.0604 192.853 39.2493C192.667 39.4382 192.428 39.5923 192.137 39.7116C191.845 39.831 191.497 39.8906 191.093 39.8906C190.519 39.8906 189.997 39.758 189.527 39.4929C189.059 39.2244 188.686 38.8151 188.408 38.2649C188.133 37.7114 187.995 37.0121 187.995 36.1669C187.995 35.3018 188.136 34.5793 188.418 33.9993C188.7 33.4193 189.074 32.9851 189.542 32.6967C190.012 32.4084 190.528 32.2642 191.088 32.2642C191.515 32.2642 191.873 32.3371 192.162 32.483C192.45 32.6255 192.682 32.8045 192.858 33.0199C193.037 33.232 193.174 33.4408 193.27 33.6463H193.35V32.3636H195.453V40.0746C195.453 40.7242 195.294 41.2678 194.975 41.7053C194.657 42.1428 194.217 42.4709 193.653 42.6896C193.093 42.9117 192.448 43.0227 191.719 43.0227ZM191.764 38.2997C192.105 38.2997 192.394 38.2152 192.629 38.0462C192.868 37.8738 193.05 37.6286 193.176 37.3104C193.305 36.9889 193.37 36.6044 193.37 36.157C193.37 35.7095 193.307 35.3217 193.181 34.9936C193.055 34.6622 192.873 34.4053 192.634 34.223C192.395 34.0407 192.105 33.9496 191.764 33.9496C191.416 33.9496 191.123 34.044 190.884 34.233C190.645 34.4186 190.465 34.6771 190.342 35.0085C190.219 35.34 190.158 35.7228 190.158 36.157C190.158 36.5978 190.219 36.9789 190.342 37.3004C190.468 37.6186 190.649 37.8655 190.884 38.0412C191.123 38.2135 191.416 38.2997 191.764 38.2997Z" fill="#EF8435"/>
<rect width="32" height="22" transform="translate(89 77)" fill="#ECBFBC"/>
<path fill-rule="evenodd" clip-rule="evenodd" d="M106.397 83.6992C106.752 83.5579 107.132 83.4905 107.514 83.5011C107.897 83.5117 108.273 83.6002 108.619 83.761C108.966 83.9218 109.277 84.1516 109.531 84.4363C110.563 85.5838 110.384 87.3425 109.331 88.4012L109.33 88.4019L105.533 92.1988L105.268 91.9336L105.532 92.2C105.391 92.34 105.2 92.4185 105.001 92.4185C104.802 92.4185 104.611 92.34 104.47 92.2L104.468 92.1988L100.573 88.3035C100.303 88.033 100.091 87.7102 99.9492 87.3549C99.8079 86.9997 99.7405 86.6193 99.7511 86.2372C99.7617 85.855 99.8502 85.479 100.011 85.1321C100.172 84.7854 100.402 84.4751 100.686 84.2201C101.834 83.1882 103.592 83.3674 104.651 84.4209L104.653 84.4226L105.001 84.7733L105.447 84.324L105.448 84.323C105.719 84.0528 106.041 83.8405 106.397 83.6992ZM105.004 91.6672C105.004 91.6672 105.004 91.6671 105.004 91.6672L108.799 87.8722C108.799 87.8721 108.799 87.8721 108.799 87.872C109.611 87.0558 109.704 85.7493 108.974 84.9375L108.973 84.9369C108.786 84.7279 108.558 84.5594 108.304 84.4414C108.05 84.3235 107.774 84.2586 107.494 84.2508C107.213 84.243 106.934 84.2924 106.674 84.3961C106.414 84.4996 106.177 84.6551 105.979 84.8531C105.979 84.8533 105.979 84.8534 105.978 84.8536L105.267 85.5698C105.196 85.6407 105.101 85.6805 105.001 85.6805C104.901 85.6805 104.805 85.6406 104.735 85.5696L104.121 84.9518C103.305 84.1404 101.999 84.048 101.188 84.778L101.187 84.7786C100.978 84.9656 100.809 85.1933 100.691 85.4476C100.573 85.702 100.509 85.9777 100.501 86.258C100.493 86.5383 100.542 86.8172 100.646 87.0777C100.75 87.3382 100.905 87.5749 101.104 87.7732L104.997 91.6672C104.997 91.6671 104.998 91.6672 104.997 91.6672C104.998 91.668 105 91.6685 105.001 91.6685C105.002 91.6685 105.003 91.668 105.004 91.6672Z" fill="#B6392C"/>
<rect width="32" height="22" transform="translate(89 122)" fill="#E5F0C8"/>
<path fill-rule="evenodd" clip-rule="evenodd" d="M106.397 128.699C106.752 128.558 107.132 128.49 107.514 128.501C107.897 128.512 108.273 128.6 108.619 128.761C108.966 128.922 109.277 129.152 109.531 129.436C110.563 130.584 110.384 132.342 109.331 133.401L109.33 133.402L105.533 137.199L105.268 136.934L105.532 137.2C105.391 137.34 105.2 137.419 105.001 137.419C104.802 137.419 104.611 137.34 104.47 137.2L104.468 137.199L100.573 133.303C100.303 133.033 100.091 132.71 99.9492 132.355C99.8079 132 99.7405 131.619 99.7511 131.237C99.7617 130.855 99.8502 130.479 100.011 130.132C100.172 129.785 100.402 129.475 100.686 129.22C101.834 128.188 103.592 128.367 104.651 129.421L104.653 129.423L105.001 129.773L105.447 129.324L105.448 129.323C105.719 129.053 106.041 128.841 106.397 128.699ZM105.004 136.667C105.004 136.667 105.004 136.667 105.004 136.667L108.799 132.872C108.799 132.872 108.799 132.872 108.799 132.872C109.611 132.056 109.704 130.749 108.974 129.938L108.973 129.937C108.786 129.728 108.558 129.559 108.304 129.441C108.05 129.323 107.774 129.259 107.494 129.251C107.213 129.243 106.934 129.292 106.674 129.396C106.414 129.5 106.177 129.655 105.979 129.853C105.979 129.853 105.979 129.853 105.978 129.854L105.267 130.57C105.196 130.641 105.101 130.681 105.001 130.68C104.901 130.68 104.805 130.641 104.735 130.57L104.121 129.952C103.305 129.14 101.999 129.048 101.188 129.778L101.187 129.779C100.978 129.966 100.809 130.193 100.691 130.448C100.573 130.702 100.509 130.978 100.501 131.258C100.493 131.538 100.542 131.817 100.646 132.078C100.75 132.338 100.905 132.575 101.104 132.773L104.997 136.667C104.997 136.667 104.998 136.667 104.997 136.667C104.998 136.668 105 136.669 105.001 136.669C105.002 136.669 105.003 136.668 105.004 136.667Z" fill="#537A34"/>
<rect width="46" height="29" transform="translate(161 115)" fill="#E5F0C8"/>
<path d="M171.497 126.593V124.818H179.859V126.593H176.742V135H174.614V126.593H171.497ZM182.335 135.144C181.848 135.144 181.414 135.06 181.033 134.891C180.652 134.718 180.35 134.465 180.128 134.13C179.909 133.792 179.8 133.371 179.8 132.867C179.8 132.443 179.878 132.087 180.033 131.798C180.189 131.51 180.401 131.278 180.67 131.102C180.938 130.927 181.243 130.794 181.585 130.705C181.929 130.615 182.29 130.552 182.668 130.516C183.112 130.469 183.47 130.426 183.742 130.386C184.014 130.343 184.211 130.28 184.334 130.197C184.456 130.115 184.518 129.992 184.518 129.83V129.8C184.518 129.485 184.418 129.241 184.219 129.069C184.024 128.897 183.746 128.81 183.384 128.81C183.003 128.81 182.7 128.895 182.474 129.064C182.249 129.23 182.1 129.438 182.027 129.69L180.068 129.531C180.168 129.067 180.363 128.666 180.655 128.328C180.946 127.987 181.323 127.725 181.783 127.543C182.247 127.357 182.784 127.264 183.394 127.264C183.818 127.264 184.224 127.314 184.612 127.413C185.003 127.513 185.35 127.667 185.651 127.876C185.956 128.085 186.196 128.353 186.372 128.681C186.548 129.006 186.636 129.395 186.636 129.849V135H184.627V133.941H184.567C184.445 134.18 184.281 134.39 184.075 134.572C183.87 134.751 183.623 134.892 183.335 134.995C183.046 135.094 182.713 135.144 182.335 135.144ZM182.942 133.683C183.253 133.683 183.528 133.621 183.767 133.499C184.006 133.373 184.193 133.204 184.329 132.991C184.465 132.779 184.533 132.539 184.533 132.271V131.46C184.466 131.503 184.375 131.543 184.259 131.58C184.147 131.613 184.019 131.644 183.876 131.674C183.734 131.701 183.591 131.725 183.449 131.749C183.306 131.768 183.177 131.787 183.061 131.803C182.813 131.84 182.595 131.898 182.41 131.977C182.224 132.057 182.08 132.165 181.977 132.3C181.875 132.433 181.823 132.599 181.823 132.798C181.823 133.086 181.928 133.306 182.136 133.459C182.348 133.608 182.617 133.683 182.942 133.683ZM191.719 138.023C191.033 138.023 190.445 137.928 189.954 137.739C189.467 137.554 189.079 137.3 188.791 136.979C188.502 136.657 188.315 136.296 188.229 135.895L190.188 135.631C190.248 135.784 190.342 135.926 190.471 136.059C190.6 136.192 190.771 136.298 190.983 136.377C191.199 136.46 191.461 136.501 191.769 136.501C192.23 136.501 192.609 136.389 192.907 136.163C193.209 135.941 193.36 135.568 193.36 135.045V133.648H193.27C193.177 133.86 193.038 134.06 192.853 134.249C192.667 134.438 192.428 134.592 192.137 134.712C191.845 134.831 191.497 134.891 191.093 134.891C190.519 134.891 189.997 134.758 189.527 134.493C189.059 134.224 188.686 133.815 188.408 133.265C188.133 132.711 187.995 132.012 187.995 131.167C187.995 130.302 188.136 129.579 188.418 128.999C188.7 128.419 189.074 127.985 189.542 127.697C190.012 127.408 190.528 127.264 191.088 127.264C191.515 127.264 191.873 127.337 192.162 127.483C192.45 127.625 192.682 127.804 192.858 128.02C193.037 128.232 193.174 128.441 193.27 128.646H193.35V127.364H195.453V135.075C195.453 135.724 195.294 136.268 194.975 136.705C194.657 137.143 194.217 137.471 193.653 137.69C193.093 137.912 192.448 138.023 191.719 138.023ZM191.764 133.3C192.105 133.3 192.394 133.215 192.629 133.046C192.868 132.874 193.05 132.629 193.176 132.31C193.305 131.989 193.37 131.604 193.37 131.157C193.37 130.71 193.307 130.322 193.181 129.994C193.055 129.662 192.873 129.405 192.634 129.223C192.395 129.041 192.105 128.95 191.764 128.95C191.416 128.95 191.123 129.044 190.884 129.233C190.645 129.419 190.465 129.677 190.342 130.009C190.219 130.34 190.158 130.723 190.158 131.157C190.158 131.598 190.219 131.979 190.342 132.3C190.468 132.619 190.649 132.866 190.884 133.041C191.123 133.214 191.416 133.3 191.764 133.3Z" fill="#537A34"/>
<rect width="32" height="22" transform="translate(89 167)" fill="#CCECFB"/>
<path fill-rule="evenodd" clip-rule="evenodd" d="M106.397 173.699C106.752 173.558 107.132 173.49 107.514 173.501C107.897 173.512 108.273 173.6 108.619 173.761C108.966 173.922 109.277 174.152 109.531 174.436C110.563 175.584 110.384 177.342 109.331 178.401L109.33 178.402L105.533 182.199L105.268 181.934L105.532 182.2C105.391 182.34 105.2 182.419 105.001 182.419C104.802 182.419 104.611 182.34 104.47 182.2L104.468 182.199L100.573 178.303C100.303 178.033 100.091 177.71 99.9492 177.355C99.8079 177 99.7405 176.619 99.7511 176.237C99.7617 175.855 99.8502 175.479 100.011 175.132C100.172 174.785 100.402 174.475 100.686 174.22C101.834 173.188 103.592 173.367 104.651 174.421L104.653 174.423L105.001 174.773L105.447 174.324L105.448 174.323C105.719 174.053 106.041 173.841 106.397 173.699ZM105.004 181.667C105.004 181.667 105.004 181.667 105.004 181.667L108.799 177.872C108.799 177.872 108.799 177.872 108.799 177.872C109.611 177.056 109.704 175.749 108.974 174.938L108.973 174.937C108.786 174.728 108.558 174.559 108.304 174.441C108.05 174.323 107.774 174.259 107.494 174.251C107.213 174.243 106.934 174.292 106.674 174.396C106.414 174.5 106.177 174.655 105.979 174.853C105.979 174.853 105.979 174.853 105.978 174.854L105.267 175.57C105.196 175.641 105.101 175.681 105.001 175.68C104.901 175.68 104.805 175.641 104.735 175.57L104.121 174.952C103.305 174.14 101.999 174.048 101.188 174.778L101.187 174.779C100.978 174.966 100.809 175.193 100.691 175.448C100.573 175.702 100.509 175.978 100.501 176.258C100.493 176.538 100.542 176.817 100.646 177.078C100.75 177.338 100.905 177.575 101.104 177.773L104.997 181.667C104.997 181.667 104.998 181.667 104.997 181.667C104.998 181.668 105 181.669 105.001 181.669C105.002 181.669 105.003 181.668 105.004 181.667Z" fill="#2F5590"/>
<rect width="46" height="29" transform="translate(161 160)" fill="#CCECFB"/>
<path d="M171.497 171.593V169.818H179.859V171.593H176.742V180H174.614V171.593H171.497ZM182.335 180.144C181.848 180.144 181.414 180.06 181.033 179.891C180.652 179.718 180.35 179.465 180.128 179.13C179.909 178.792 179.8 178.371 179.8 177.867C179.8 177.443 179.878 177.087 180.033 176.798C180.189 176.51 180.401 176.278 180.67 176.102C180.938 175.927 181.243 175.794 181.585 175.705C181.929 175.615 182.29 175.552 182.668 175.516C183.112 175.469 183.47 175.426 183.742 175.386C184.014 175.343 184.211 175.28 184.334 175.197C184.456 175.115 184.518 174.992 184.518 174.83V174.8C184.518 174.485 184.418 174.241 184.219 174.069C184.024 173.897 183.746 173.81 183.384 173.81C183.003 173.81 182.7 173.895 182.474 174.064C182.249 174.23 182.1 174.438 182.027 174.69L180.068 174.531C180.168 174.067 180.363 173.666 180.655 173.328C180.946 172.987 181.323 172.725 181.783 172.543C182.247 172.357 182.784 172.264 183.394 172.264C183.818 172.264 184.224 172.314 184.612 172.413C185.003 172.513 185.35 172.667 185.651 172.876C185.956 173.085 186.196 173.353 186.372 173.681C186.548 174.006 186.636 174.395 186.636 174.849V180H184.627V178.941H184.567C184.445 179.18 184.281 179.39 184.075 179.572C183.87 179.751 183.623 179.892 183.335 179.995C183.046 180.094 182.713 180.144 182.335 180.144ZM182.942 178.683C183.253 178.683 183.528 178.621 183.767 178.499C184.006 178.373 184.193 178.204 184.329 177.991C184.465 177.779 184.533 177.539 184.533 177.271V176.46C184.466 176.503 184.375 176.543 184.259 176.58C184.147 176.613 184.019 176.644 183.876 176.674C183.734 176.701 183.591 176.725 183.449 176.749C183.306 176.768 183.177 176.787 183.061 176.803C182.813 176.84 182.595 176.898 182.41 176.977C182.224 177.057 182.08 177.165 181.977 177.3C181.875 177.433 181.823 177.599 181.823 177.798C181.823 178.086 181.928 178.306 182.136 178.459C182.348 178.608 182.617 178.683 182.942 178.683ZM191.719 183.023C191.033 183.023 190.445 182.928 189.954 182.739C189.467 182.554 189.079 182.3 188.791 181.979C188.502 181.657 188.315 181.296 188.229 180.895L190.188 180.631C190.248 180.784 190.342 180.926 190.471 181.059C190.6 181.192 190.771 181.298 190.983 181.377C191.199 181.46 191.461 181.501 191.769 181.501C192.23 181.501 192.609 181.389 192.907 181.163C193.209 180.941 193.36 180.568 193.36 180.045V178.648H193.27C193.177 178.86 193.038 179.06 192.853 179.249C192.667 179.438 192.428 179.592 192.137 179.712C191.845 179.831 191.497 179.891 191.093 179.891C190.519 179.891 189.997 179.758 189.527 179.493C189.059 179.224 188.686 178.815 188.408 178.265C188.133 177.711 187.995 177.012 187.995 176.167C187.995 175.302 188.136 174.579 188.418 173.999C188.7 173.419 189.074 172.985 189.542 172.697C190.012 172.408 190.528 172.264 191.088 172.264C191.515 172.264 191.873 172.337 192.162 172.483C192.45 172.625 192.682 172.804 192.858 173.02C193.037 173.232 193.174 173.441 193.27 173.646H193.35V172.364H195.453V180.075C195.453 180.724 195.294 181.268 194.975 181.705C194.657 182.143 194.217 182.471 193.653 182.69C193.093 182.912 192.448 183.023 191.719 183.023ZM191.764 178.3C192.105 178.3 192.394 178.215 192.629 178.046C192.868 177.874 193.05 177.629 193.176 177.31C193.305 176.989 193.37 176.604 193.37 176.157C193.37 175.71 193.307 175.322 193.181 174.994C193.055 174.662 192.873 174.405 192.634 174.223C192.395 174.041 192.105 173.95 191.764 173.95C191.416 173.95 191.123 174.044 190.884 174.233C190.645 174.419 190.465 174.677 190.342 175.009C190.219 175.34 190.158 175.723 190.158 176.157C190.158 176.598 190.219 176.979 190.342 177.3C190.468 177.619 190.649 177.866 190.884 178.041C191.123 178.214 191.416 178.3 191.764 178.3Z" fill="#2F5590"/>
<rect x="0.5" y="0.5" width="295" height="209" rx="7.5" stroke="#333333"/>
</svg>
