<svg width="296" height="210" viewBox="0 0 296 210" fill="none" xmlns="http://www.w3.org/2000/svg">
<rect x="0.5" y="0.5" width="295" height="209" rx="7.5" fill="#111111"/>
<rect width="75" height="32" transform="translate(8 69)" fill="#EAEAEA"/>
<circle cx="24" cy="85" r="6" fill="#C6C6C6"/>
<path d="M40.7188 82.5653C40.6733 82.1619 40.4858 81.8494 40.1562 81.6278C39.8267 81.4034 39.4119 81.2912 38.9119 81.2912C38.554 81.2912 38.2443 81.348 37.983 81.4616C37.7216 81.5724 37.5185 81.7259 37.3736 81.9219C37.2315 82.1151 37.1605 82.3352 37.1605 82.5824C37.1605 82.7898 37.2088 82.9687 37.3054 83.1193C37.4048 83.2699 37.5341 83.3963 37.6932 83.4986C37.8551 83.598 38.0284 83.6818 38.2131 83.75C38.3977 83.8153 38.5753 83.8693 38.7457 83.9119L39.598 84.1335C39.8764 84.2017 40.1619 84.294 40.4545 84.4105C40.7472 84.527 41.0185 84.6804 41.2685 84.8707C41.5185 85.0611 41.7202 85.2969 41.8736 85.5781C42.0298 85.8594 42.108 86.196 42.108 86.5881C42.108 87.0824 41.9801 87.5213 41.7244 87.9048C41.4716 88.2884 41.1037 88.5909 40.6207 88.8125C40.1406 89.0341 39.5597 89.1449 38.8778 89.1449C38.2244 89.1449 37.6591 89.0412 37.1818 88.8338C36.7045 88.6264 36.331 88.3324 36.0611 87.9517C35.7912 87.5682 35.642 87.1136 35.6136 86.5881H36.9347C36.9602 86.9034 37.0625 87.1662 37.2415 87.3764C37.4233 87.5838 37.6548 87.7386 37.9361 87.8409C38.2202 87.9403 38.5312 87.9901 38.8693 87.9901C39.2415 87.9901 39.5724 87.9318 39.8622 87.8153C40.1548 87.696 40.3849 87.5312 40.5526 87.321C40.7202 87.108 40.804 86.8594 40.804 86.5753C40.804 86.3168 40.7301 86.1051 40.5824 85.9403C40.4375 85.7756 40.2401 85.6392 39.9901 85.5312C39.7429 85.4233 39.4631 85.3281 39.1506 85.2457L38.1193 84.9645C37.4205 84.7741 36.8665 84.4943 36.4574 84.125C36.0511 83.7557 35.848 83.267 35.848 82.6591C35.848 82.1562 35.9844 81.7173 36.2571 81.3423C36.5298 80.9673 36.8991 80.6761 37.3651 80.4688C37.831 80.2585 38.3565 80.1534 38.9418 80.1534C39.5327 80.1534 40.054 80.2571 40.5057 80.4645C40.9602 80.6719 41.3182 80.9574 41.5795 81.321C41.8409 81.6818 41.9773 82.0966 41.9886 82.5653H40.7188ZM46.6346 82.4545V83.4773H43.0593V82.4545H46.6346ZM44.0181 80.8864H45.2923V87.0781C45.2923 87.3253 45.3292 87.5114 45.4031 87.6364C45.4769 87.7585 45.5721 87.8423 45.6886 87.8878C45.8079 87.9304 45.9371 87.9517 46.0763 87.9517C46.1786 87.9517 46.2681 87.9446 46.3448 87.9304C46.4215 87.9162 46.4812 87.9048 46.5238 87.8963L46.7539 88.9489C46.68 88.9773 46.5749 89.0057 46.4386 89.0341C46.3022 89.0653 46.1317 89.0824 45.9272 89.0852C45.592 89.0909 45.2795 89.0312 44.9897 88.9062C44.6999 88.7812 44.4656 88.5881 44.2866 88.3267C44.1076 88.0653 44.0181 87.7372 44.0181 87.3423V80.8864ZM49.9489 89.1449C49.5341 89.1449 49.1591 89.0682 48.8239 88.9148C48.4886 88.7585 48.223 88.5327 48.027 88.2372C47.8338 87.9418 47.7372 87.5795 47.7372 87.1506C47.7372 86.7812 47.8082 86.4773 47.9503 86.2386C48.0923 86 48.2841 85.8111 48.5256 85.6719C48.767 85.5327 49.0369 85.4276 49.3352 85.3565C49.6335 85.2855 49.9375 85.2315 50.2472 85.1946C50.6392 85.1491 50.9574 85.1122 51.2017 85.0838C51.446 85.0526 51.6236 85.0028 51.7344 84.9347C51.8452 84.8665 51.9006 84.7557 51.9006 84.6023V84.5724C51.9006 84.2003 51.7955 83.9119 51.5852 83.7074C51.3778 83.5028 51.0682 83.4006 50.6562 83.4006C50.2273 83.4006 49.8892 83.4957 49.642 83.6861C49.3977 83.8736 49.2287 84.0824 49.1349 84.3125L47.9375 84.0398C48.0795 83.642 48.2869 83.321 48.5597 83.0767C48.8352 82.8295 49.152 82.6506 49.5099 82.5398C49.8679 82.4261 50.2443 82.3693 50.6392 82.3693C50.9006 82.3693 51.1776 82.4006 51.4702 82.4631C51.7656 82.5227 52.0412 82.6335 52.2969 82.7955C52.5554 82.9574 52.767 83.1889 52.9318 83.4901C53.0966 83.7884 53.179 84.1761 53.179 84.6534V89H51.9347V88.1051H51.8835C51.8011 88.2699 51.6776 88.4318 51.5128 88.5909C51.348 88.75 51.1364 88.8821 50.8778 88.9872C50.6193 89.0923 50.3097 89.1449 49.9489 89.1449ZM50.2259 88.1222C50.5781 88.1222 50.8793 88.0526 51.1293 87.9134C51.3821 87.7741 51.5739 87.5923 51.7045 87.3679C51.8381 87.1406 51.9048 86.8977 51.9048 86.6392V85.7955C51.8594 85.8409 51.7713 85.8835 51.6406 85.9233C51.5128 85.9602 51.3665 85.9929 51.2017 86.0213C51.0369 86.0469 50.8764 86.071 50.7202 86.0938C50.5639 86.1136 50.4332 86.1307 50.3281 86.1449C50.081 86.1761 49.8551 86.2287 49.6506 86.3026C49.4489 86.3764 49.2869 86.483 49.1648 86.6222C49.0455 86.7585 48.9858 86.9403 48.9858 87.1676C48.9858 87.483 49.1023 87.7216 49.3352 87.8835C49.5682 88.0426 49.8651 88.1222 50.2259 88.1222ZM57.9315 82.4545V83.4773H54.3562V82.4545H57.9315ZM55.315 80.8864H56.5891V87.0781C56.5891 87.3253 56.6261 87.5114 56.6999 87.6364C56.7738 87.7585 56.869 87.8423 56.9854 87.8878C57.1048 87.9304 57.234 87.9517 57.3732 87.9517C57.4755 87.9517 57.565 87.9446 57.6417 87.9304C57.7184 87.9162 57.7781 87.9048 57.8207 87.8963L58.0508 88.9489C57.9769 88.9773 57.8718 89.0057 57.7354 89.0341C57.5991 89.0653 57.4286 89.0824 57.2241 89.0852C56.8888 89.0909 56.5763 89.0312 56.2866 88.9062C55.9968 88.7812 55.7624 88.5881 55.5835 88.3267C55.4045 88.0653 55.315 87.7372 55.315 87.3423V80.8864ZM63.4872 86.2855V82.4545H64.7656V89H63.5128V87.8665H63.4446C63.294 88.2159 63.0526 88.5071 62.7202 88.7401C62.3906 88.9702 61.9801 89.0852 61.4886 89.0852C61.0682 89.0852 60.696 88.9929 60.3722 88.8082C60.0511 88.6207 59.7983 88.3438 59.6136 87.9773C59.4318 87.6108 59.3409 87.1577 59.3409 86.6179V82.4545H60.6151V86.4645C60.6151 86.9105 60.7386 87.2656 60.9858 87.5298C61.233 87.794 61.554 87.9261 61.9489 87.9261C62.1875 87.9261 62.4247 87.8665 62.6605 87.7472C62.8991 87.6278 63.0966 87.4474 63.2528 87.206C63.4119 86.9645 63.4901 86.6577 63.4872 86.2855ZM71.3825 84.0526L70.2276 84.2571C70.1793 84.1094 70.1026 83.9687 69.9975 83.8352C69.8952 83.7017 69.756 83.5923 69.5799 83.5071C69.4038 83.4219 69.1836 83.3793 68.9194 83.3793C68.5586 83.3793 68.2575 83.4602 68.016 83.6222C67.7745 83.7812 67.6538 83.9872 67.6538 84.2401C67.6538 84.4588 67.7347 84.6349 67.8967 84.7685C68.0586 84.902 68.32 85.0114 68.6808 85.0966L69.7205 85.3352C70.3228 85.4744 70.7717 85.6889 71.0671 85.9787C71.3626 86.2685 71.5103 86.6449 71.5103 87.108C71.5103 87.5 71.3967 87.8494 71.1694 88.1562C70.945 88.4602 70.631 88.6989 70.2276 88.8722C69.8271 89.0455 69.3626 89.1321 68.8342 89.1321C68.1012 89.1321 67.5032 88.9759 67.0401 88.6634C66.5771 88.348 66.293 87.9006 66.1879 87.321L67.4194 87.1335C67.4961 87.4545 67.6538 87.6974 67.8924 87.8622C68.131 88.0241 68.4421 88.1051 68.8256 88.1051C69.2433 88.1051 69.5771 88.0185 69.8271 87.8452C70.0771 87.669 70.2021 87.4545 70.2021 87.2017C70.2021 86.9972 70.1254 86.8253 69.9719 86.6861C69.8214 86.5469 69.5898 86.4418 69.2773 86.3707L68.1694 86.1278C67.5586 85.9886 67.1069 85.767 66.8143 85.4631C66.5245 85.1591 66.3796 84.7741 66.3796 84.3082C66.3796 83.9219 66.4876 83.5838 66.7035 83.294C66.9194 83.0043 67.2177 82.7784 67.5984 82.6165C67.979 82.4517 68.4151 82.3693 68.9066 82.3693C69.614 82.3693 70.1708 82.5227 70.5771 82.8295C70.9833 83.1335 71.2518 83.5412 71.3825 84.0526Z" fill="#333333"/>
<rect width="32" height="28" transform="translate(8 118)" fill="#EAEAEA"/>
<circle cx="24" cy="132" r="6" fill="#C6C6C6"/>
<rect width="75" height="32" transform="translate(112 69)" fill="#DCEFE4"/>
<circle cx="128" cy="85" r="6" fill="#3E8D61"/>
<path d="M144.719 82.5653C144.673 82.1619 144.486 81.8494 144.156 81.6278C143.827 81.4034 143.412 81.2912 142.912 81.2912C142.554 81.2912 142.244 81.348 141.983 81.4616C141.722 81.5724 141.518 81.7259 141.374 81.9219C141.232 82.1151 141.161 82.3352 141.161 82.5824C141.161 82.7898 141.209 82.9687 141.305 83.1193C141.405 83.2699 141.534 83.3963 141.693 83.4986C141.855 83.598 142.028 83.6818 142.213 83.75C142.398 83.8153 142.575 83.8693 142.746 83.9119L143.598 84.1335C143.876 84.2017 144.162 84.294 144.455 84.4105C144.747 84.527 145.018 84.6804 145.268 84.8707C145.518 85.0611 145.72 85.2969 145.874 85.5781C146.03 85.8594 146.108 86.196 146.108 86.5881C146.108 87.0824 145.98 87.5213 145.724 87.9048C145.472 88.2884 145.104 88.5909 144.621 88.8125C144.141 89.0341 143.56 89.1449 142.878 89.1449C142.224 89.1449 141.659 89.0412 141.182 88.8338C140.705 88.6264 140.331 88.3324 140.061 87.9517C139.791 87.5682 139.642 87.1136 139.614 86.5881H140.935C140.96 86.9034 141.063 87.1662 141.241 87.3764C141.423 87.5838 141.655 87.7386 141.936 87.8409C142.22 87.9403 142.531 87.9901 142.869 87.9901C143.241 87.9901 143.572 87.9318 143.862 87.8153C144.155 87.696 144.385 87.5312 144.553 87.321C144.72 87.108 144.804 86.8594 144.804 86.5753C144.804 86.3168 144.73 86.1051 144.582 85.9403C144.438 85.7756 144.24 85.6392 143.99 85.5312C143.743 85.4233 143.463 85.3281 143.151 85.2457L142.119 84.9645C141.42 84.7741 140.866 84.4943 140.457 84.125C140.051 83.7557 139.848 83.267 139.848 82.6591C139.848 82.1562 139.984 81.7173 140.257 81.3423C140.53 80.9673 140.899 80.6761 141.365 80.4688C141.831 80.2585 142.357 80.1534 142.942 80.1534C143.533 80.1534 144.054 80.2571 144.506 80.4645C144.96 80.6719 145.318 80.9574 145.58 81.321C145.841 81.6818 145.977 82.0966 145.989 82.5653H144.719ZM150.635 82.4545V83.4773H147.059V82.4545H150.635ZM148.018 80.8864H149.292V87.0781C149.292 87.3253 149.329 87.5114 149.403 87.6364C149.477 87.7585 149.572 87.8423 149.689 87.8878C149.808 87.9304 149.937 87.9517 150.076 87.9517C150.179 87.9517 150.268 87.9446 150.345 87.9304C150.422 87.9162 150.481 87.9048 150.524 87.8963L150.754 88.9489C150.68 88.9773 150.575 89.0057 150.439 89.0341C150.302 89.0653 150.132 89.0824 149.927 89.0852C149.592 89.0909 149.279 89.0312 148.99 88.9062C148.7 88.7812 148.466 88.5881 148.287 88.3267C148.108 88.0653 148.018 87.7372 148.018 87.3423V80.8864ZM153.949 89.1449C153.534 89.1449 153.159 89.0682 152.824 88.9148C152.489 88.7585 152.223 88.5327 152.027 88.2372C151.834 87.9418 151.737 87.5795 151.737 87.1506C151.737 86.7812 151.808 86.4773 151.95 86.2386C152.092 86 152.284 85.8111 152.526 85.6719C152.767 85.5327 153.037 85.4276 153.335 85.3565C153.634 85.2855 153.938 85.2315 154.247 85.1946C154.639 85.1491 154.957 85.1122 155.202 85.0838C155.446 85.0526 155.624 85.0028 155.734 84.9347C155.845 84.8665 155.901 84.7557 155.901 84.6023V84.5724C155.901 84.2003 155.795 83.9119 155.585 83.7074C155.378 83.5028 155.068 83.4006 154.656 83.4006C154.227 83.4006 153.889 83.4957 153.642 83.6861C153.398 83.8736 153.229 84.0824 153.135 84.3125L151.938 84.0398C152.08 83.642 152.287 83.321 152.56 83.0767C152.835 82.8295 153.152 82.6506 153.51 82.5398C153.868 82.4261 154.244 82.3693 154.639 82.3693C154.901 82.3693 155.178 82.4006 155.47 82.4631C155.766 82.5227 156.041 82.6335 156.297 82.7955C156.555 82.9574 156.767 83.1889 156.932 83.4901C157.097 83.7884 157.179 84.1761 157.179 84.6534V89H155.935V88.1051H155.884C155.801 88.2699 155.678 88.4318 155.513 88.5909C155.348 88.75 155.136 88.8821 154.878 88.9872C154.619 89.0923 154.31 89.1449 153.949 89.1449ZM154.226 88.1222C154.578 88.1222 154.879 88.0526 155.129 87.9134C155.382 87.7741 155.574 87.5923 155.705 87.3679C155.838 87.1406 155.905 86.8977 155.905 86.6392V85.7955C155.859 85.8409 155.771 85.8835 155.641 85.9233C155.513 85.9602 155.366 85.9929 155.202 86.0213C155.037 86.0469 154.876 86.071 154.72 86.0938C154.564 86.1136 154.433 86.1307 154.328 86.1449C154.081 86.1761 153.855 86.2287 153.651 86.3026C153.449 86.3764 153.287 86.483 153.165 86.6222C153.045 86.7585 152.986 86.9403 152.986 87.1676C152.986 87.483 153.102 87.7216 153.335 87.8835C153.568 88.0426 153.865 88.1222 154.226 88.1222ZM161.931 82.4545V83.4773H158.356V82.4545H161.931ZM159.315 80.8864H160.589V87.0781C160.589 87.3253 160.626 87.5114 160.7 87.6364C160.774 87.7585 160.869 87.8423 160.985 87.8878C161.105 87.9304 161.234 87.9517 161.373 87.9517C161.475 87.9517 161.565 87.9446 161.642 87.9304C161.718 87.9162 161.778 87.9048 161.821 87.8963L162.051 88.9489C161.977 88.9773 161.872 89.0057 161.735 89.0341C161.599 89.0653 161.429 89.0824 161.224 89.0852C160.889 89.0909 160.576 89.0312 160.287 88.9062C159.997 88.7812 159.762 88.5881 159.583 88.3267C159.404 88.0653 159.315 87.7372 159.315 87.3423V80.8864ZM167.487 86.2855V82.4545H168.766V89H167.513V87.8665H167.445C167.294 88.2159 167.053 88.5071 166.72 88.7401C166.391 88.9702 165.98 89.0852 165.489 89.0852C165.068 89.0852 164.696 88.9929 164.372 88.8082C164.051 88.6207 163.798 88.3438 163.614 87.9773C163.432 87.6108 163.341 87.1577 163.341 86.6179V82.4545H164.615V86.4645C164.615 86.9105 164.739 87.2656 164.986 87.5298C165.233 87.794 165.554 87.9261 165.949 87.9261C166.188 87.9261 166.425 87.8665 166.661 87.7472C166.899 87.6278 167.097 87.4474 167.253 87.206C167.412 86.9645 167.49 86.6577 167.487 86.2855ZM175.382 84.0526L174.228 84.2571C174.179 84.1094 174.103 83.9687 173.998 83.8352C173.895 83.7017 173.756 83.5923 173.58 83.5071C173.404 83.4219 173.184 83.3793 172.919 83.3793C172.559 83.3793 172.257 83.4602 172.016 83.6222C171.775 83.7812 171.654 83.9872 171.654 84.2401C171.654 84.4588 171.735 84.6349 171.897 84.7685C172.059 84.902 172.32 85.0114 172.681 85.0966L173.721 85.3352C174.323 85.4744 174.772 85.6889 175.067 85.9787C175.363 86.2685 175.51 86.6449 175.51 87.108C175.51 87.5 175.397 87.8494 175.169 88.1562C174.945 88.4602 174.631 88.6989 174.228 88.8722C173.827 89.0455 173.363 89.1321 172.834 89.1321C172.101 89.1321 171.503 88.9759 171.04 88.6634C170.577 88.348 170.293 87.9006 170.188 87.321L171.419 87.1335C171.496 87.4545 171.654 87.6974 171.892 87.8622C172.131 88.0241 172.442 88.1051 172.826 88.1051C173.243 88.1051 173.577 88.0185 173.827 87.8452C174.077 87.669 174.202 87.4545 174.202 87.2017C174.202 86.9972 174.125 86.8253 173.972 86.6861C173.821 86.5469 173.59 86.4418 173.277 86.3707L172.169 86.1278C171.559 85.9886 171.107 85.767 170.814 85.4631C170.525 85.1591 170.38 84.7741 170.38 84.3082C170.38 83.9219 170.488 83.5838 170.703 83.294C170.919 83.0043 171.218 82.7784 171.598 82.6165C171.979 82.4517 172.415 82.3693 172.907 82.3693C173.614 82.3693 174.171 82.5227 174.577 82.8295C174.983 83.1335 175.252 83.5412 175.382 84.0526Z" fill="#3E8D61"/>
<rect width="32" height="28" transform="translate(112 118)" fill="#DCEFE4"/>
<circle cx="128" cy="132" r="6" fill="#3E8D61"/>
<rect width="75" height="32" transform="translate(213 69)" fill="#F9E4E1"/>
<circle cx="229" cy="85" r="6" fill="#D84836"/>
<path d="M245.719 82.5653C245.673 82.1619 245.486 81.8494 245.156 81.6278C244.827 81.4034 244.412 81.2912 243.912 81.2912C243.554 81.2912 243.244 81.348 242.983 81.4616C242.722 81.5724 242.518 81.7259 242.374 81.9219C242.232 82.1151 242.161 82.3352 242.161 82.5824C242.161 82.7898 242.209 82.9687 242.305 83.1193C242.405 83.2699 242.534 83.3963 242.693 83.4986C242.855 83.598 243.028 83.6818 243.213 83.75C243.398 83.8153 243.575 83.8693 243.746 83.9119L244.598 84.1335C244.876 84.2017 245.162 84.294 245.455 84.4105C245.747 84.527 246.018 84.6804 246.268 84.8707C246.518 85.0611 246.72 85.2969 246.874 85.5781C247.03 85.8594 247.108 86.196 247.108 86.5881C247.108 87.0824 246.98 87.5213 246.724 87.9048C246.472 88.2884 246.104 88.5909 245.621 88.8125C245.141 89.0341 244.56 89.1449 243.878 89.1449C243.224 89.1449 242.659 89.0412 242.182 88.8338C241.705 88.6264 241.331 88.3324 241.061 87.9517C240.791 87.5682 240.642 87.1136 240.614 86.5881H241.935C241.96 86.9034 242.063 87.1662 242.241 87.3764C242.423 87.5838 242.655 87.7386 242.936 87.8409C243.22 87.9403 243.531 87.9901 243.869 87.9901C244.241 87.9901 244.572 87.9318 244.862 87.8153C245.155 87.696 245.385 87.5312 245.553 87.321C245.72 87.108 245.804 86.8594 245.804 86.5753C245.804 86.3168 245.73 86.1051 245.582 85.9403C245.438 85.7756 245.24 85.6392 244.99 85.5312C244.743 85.4233 244.463 85.3281 244.151 85.2457L243.119 84.9645C242.42 84.7741 241.866 84.4943 241.457 84.125C241.051 83.7557 240.848 83.267 240.848 82.6591C240.848 82.1562 240.984 81.7173 241.257 81.3423C241.53 80.9673 241.899 80.6761 242.365 80.4688C242.831 80.2585 243.357 80.1534 243.942 80.1534C244.533 80.1534 245.054 80.2571 245.506 80.4645C245.96 80.6719 246.318 80.9574 246.58 81.321C246.841 81.6818 246.977 82.0966 246.989 82.5653H245.719ZM251.635 82.4545V83.4773H248.059V82.4545H251.635ZM249.018 80.8864H250.292V87.0781C250.292 87.3253 250.329 87.5114 250.403 87.6364C250.477 87.7585 250.572 87.8423 250.689 87.8878C250.808 87.9304 250.937 87.9517 251.076 87.9517C251.179 87.9517 251.268 87.9446 251.345 87.9304C251.422 87.9162 251.481 87.9048 251.524 87.8963L251.754 88.9489C251.68 88.9773 251.575 89.0057 251.439 89.0341C251.302 89.0653 251.132 89.0824 250.927 89.0852C250.592 89.0909 250.279 89.0312 249.99 88.9062C249.7 88.7812 249.466 88.5881 249.287 88.3267C249.108 88.0653 249.018 87.7372 249.018 87.3423V80.8864ZM254.949 89.1449C254.534 89.1449 254.159 89.0682 253.824 88.9148C253.489 88.7585 253.223 88.5327 253.027 88.2372C252.834 87.9418 252.737 87.5795 252.737 87.1506C252.737 86.7812 252.808 86.4773 252.95 86.2386C253.092 86 253.284 85.8111 253.526 85.6719C253.767 85.5327 254.037 85.4276 254.335 85.3565C254.634 85.2855 254.938 85.2315 255.247 85.1946C255.639 85.1491 255.957 85.1122 256.202 85.0838C256.446 85.0526 256.624 85.0028 256.734 84.9347C256.845 84.8665 256.901 84.7557 256.901 84.6023V84.5724C256.901 84.2003 256.795 83.9119 256.585 83.7074C256.378 83.5028 256.068 83.4006 255.656 83.4006C255.227 83.4006 254.889 83.4957 254.642 83.6861C254.398 83.8736 254.229 84.0824 254.135 84.3125L252.938 84.0398C253.08 83.642 253.287 83.321 253.56 83.0767C253.835 82.8295 254.152 82.6506 254.51 82.5398C254.868 82.4261 255.244 82.3693 255.639 82.3693C255.901 82.3693 256.178 82.4006 256.47 82.4631C256.766 82.5227 257.041 82.6335 257.297 82.7955C257.555 82.9574 257.767 83.1889 257.932 83.4901C258.097 83.7884 258.179 84.1761 258.179 84.6534V89H256.935V88.1051H256.884C256.801 88.2699 256.678 88.4318 256.513 88.5909C256.348 88.75 256.136 88.8821 255.878 88.9872C255.619 89.0923 255.31 89.1449 254.949 89.1449ZM255.226 88.1222C255.578 88.1222 255.879 88.0526 256.129 87.9134C256.382 87.7741 256.574 87.5923 256.705 87.3679C256.838 87.1406 256.905 86.8977 256.905 86.6392V85.7955C256.859 85.8409 256.771 85.8835 256.641 85.9233C256.513 85.9602 256.366 85.9929 256.202 86.0213C256.037 86.0469 255.876 86.071 255.72 86.0938C255.564 86.1136 255.433 86.1307 255.328 86.1449C255.081 86.1761 254.855 86.2287 254.651 86.3026C254.449 86.3764 254.287 86.483 254.165 86.6222C254.045 86.7585 253.986 86.9403 253.986 87.1676C253.986 87.483 254.102 87.7216 254.335 87.8835C254.568 88.0426 254.865 88.1222 255.226 88.1222ZM262.931 82.4545V83.4773H259.356V82.4545H262.931ZM260.315 80.8864H261.589V87.0781C261.589 87.3253 261.626 87.5114 261.7 87.6364C261.774 87.7585 261.869 87.8423 261.985 87.8878C262.105 87.9304 262.234 87.9517 262.373 87.9517C262.475 87.9517 262.565 87.9446 262.642 87.9304C262.718 87.9162 262.778 87.9048 262.821 87.8963L263.051 88.9489C262.977 88.9773 262.872 89.0057 262.735 89.0341C262.599 89.0653 262.429 89.0824 262.224 89.0852C261.889 89.0909 261.576 89.0312 261.287 88.9062C260.997 88.7812 260.762 88.5881 260.583 88.3267C260.404 88.0653 260.315 87.7372 260.315 87.3423V80.8864ZM268.487 86.2855V82.4545H269.766V89H268.513V87.8665H268.445C268.294 88.2159 268.053 88.5071 267.72 88.7401C267.391 88.9702 266.98 89.0852 266.489 89.0852C266.068 89.0852 265.696 88.9929 265.372 88.8082C265.051 88.6207 264.798 88.3438 264.614 87.9773C264.432 87.6108 264.341 87.1577 264.341 86.6179V82.4545H265.615V86.4645C265.615 86.9105 265.739 87.2656 265.986 87.5298C266.233 87.794 266.554 87.9261 266.949 87.9261C267.188 87.9261 267.425 87.8665 267.661 87.7472C267.899 87.6278 268.097 87.4474 268.253 87.206C268.412 86.9645 268.49 86.6577 268.487 86.2855ZM276.382 84.0526L275.228 84.2571C275.179 84.1094 275.103 83.9687 274.998 83.8352C274.895 83.7017 274.756 83.5923 274.58 83.5071C274.404 83.4219 274.184 83.3793 273.919 83.3793C273.559 83.3793 273.257 83.4602 273.016 83.6222C272.775 83.7812 272.654 83.9872 272.654 84.2401C272.654 84.4588 272.735 84.6349 272.897 84.7685C273.059 84.902 273.32 85.0114 273.681 85.0966L274.721 85.3352C275.323 85.4744 275.772 85.6889 276.067 85.9787C276.363 86.2685 276.51 86.6449 276.51 87.108C276.51 87.5 276.397 87.8494 276.169 88.1562C275.945 88.4602 275.631 88.6989 275.228 88.8722C274.827 89.0455 274.363 89.1321 273.834 89.1321C273.101 89.1321 272.503 88.9759 272.04 88.6634C271.577 88.348 271.293 87.9006 271.188 87.321L272.419 87.1335C272.496 87.4545 272.654 87.6974 272.892 87.8622C273.131 88.0241 273.442 88.1051 273.826 88.1051C274.243 88.1051 274.577 88.0185 274.827 87.8452C275.077 87.669 275.202 87.4545 275.202 87.2017C275.202 86.9972 275.125 86.8253 274.972 86.6861C274.821 86.5469 274.59 86.4418 274.277 86.3707L273.169 86.1278C272.559 85.9886 272.107 85.767 271.814 85.4631C271.525 85.1591 271.38 84.7741 271.38 84.3082C271.38 83.9219 271.488 83.5838 271.703 83.294C271.919 83.0043 272.218 82.7784 272.598 82.6165C272.979 82.4517 273.415 82.3693 273.907 82.3693C274.614 82.3693 275.171 82.5227 275.577 82.8295C275.983 83.1335 276.252 83.5412 276.382 84.0526Z" fill="#D84836"/>
<rect width="32" height="28" transform="translate(213 118)" fill="#F9E4E1"/>
<circle cx="229" cy="132" r="6" fill="#D84836"/>
<rect x="0.5" y="0.5" width="295" height="209" rx="7.5" stroke="#333333"/>
</svg>
