<svg width="1440" height="195" viewBox="0 0 1440 195" fill="none" xmlns="http://www.w3.org/2000/svg">
<path d="M177.742 64.2228C155.694 64.2228 137.82 82.0964 137.82 104.145L157.781 104.145C157.781 93.1205 166.718 84.1837 177.742 84.1837L177.742 64.2228Z" fill="#4AA35C"/>
<circle cx="188.117" cy="111.525" r="19.9609" fill="#EF8435"/>
<path d="M251.856 86.5V83.644H244.2V80.944L249.732 69.22H253.032L247.5 80.944H251.856V76.444H254.784V80.944H256.404V83.644H254.784V86.5H251.856ZM265.498 86.86C264.274 86.86 263.194 86.6 262.258 86.08C261.322 85.552 260.59 84.82 260.062 83.884C259.542 82.948 259.282 81.868 259.282 80.644V75.076C259.282 73.852 259.542 72.772 260.062 71.836C260.59 70.9 261.322 70.172 262.258 69.652C263.194 69.124 264.274 68.86 265.498 68.86C266.722 68.86 267.798 69.124 268.726 69.652C269.662 70.172 270.394 70.9 270.922 71.836C271.45 72.772 271.714 73.852 271.714 75.076V80.644C271.714 81.868 271.45 82.948 270.922 83.884C270.394 84.82 269.662 85.552 268.726 86.08C267.798 86.6 266.722 86.86 265.498 86.86ZM265.498 84.112C266.106 84.112 266.658 83.968 267.154 83.68C267.65 83.384 268.042 82.992 268.33 82.504C268.618 82.008 268.762 81.456 268.762 80.848V74.86C268.762 74.244 268.618 73.692 268.33 73.204C268.042 72.708 267.65 72.316 267.154 72.028C266.658 71.732 266.106 71.584 265.498 71.584C264.89 71.584 264.338 71.732 263.842 72.028C263.346 72.316 262.954 72.708 262.666 73.204C262.378 73.692 262.234 74.244 262.234 74.86V80.848C262.234 81.456 262.378 82.008 262.666 82.504C262.954 82.992 263.346 83.384 263.842 83.68C264.338 83.968 264.89 84.112 265.498 84.112ZM281.294 86.86C280.07 86.86 278.99 86.6 278.054 86.08C277.118 85.552 276.386 84.82 275.858 83.884C275.338 82.948 275.078 81.868 275.078 80.644V75.076C275.078 73.852 275.338 72.772 275.858 71.836C276.386 70.9 277.118 70.172 278.054 69.652C278.99 69.124 280.07 68.86 281.294 68.86C282.518 68.86 283.594 69.124 284.522 69.652C285.458 70.172 286.19 70.9 286.718 71.836C287.246 72.772 287.51 73.852 287.51 75.076V80.644C287.51 81.868 287.246 82.948 286.718 83.884C286.19 84.82 285.458 85.552 284.522 86.08C283.594 86.6 282.518 86.86 281.294 86.86ZM281.294 84.112C281.902 84.112 282.454 83.968 282.95 83.68C283.446 83.384 283.838 82.992 284.126 82.504C284.414 82.008 284.558 81.456 284.558 80.848V74.86C284.558 74.244 284.414 73.692 284.126 73.204C283.838 72.708 283.446 72.316 282.95 72.028C282.454 71.732 281.902 71.584 281.294 71.584C280.686 71.584 280.134 71.732 279.638 72.028C279.142 72.316 278.75 72.708 278.462 73.204C278.174 73.692 278.03 74.244 278.03 74.86V80.848C278.03 81.456 278.174 82.008 278.462 82.504C278.75 82.992 279.142 83.384 279.638 83.68C280.134 83.968 280.686 84.112 281.294 84.112ZM297.091 86.86C295.867 86.86 294.787 86.6 293.851 86.08C292.915 85.552 292.183 84.82 291.655 83.884C291.135 82.948 290.875 81.868 290.875 80.644V75.076C290.875 73.852 291.135 72.772 291.655 71.836C292.183 70.9 292.915 70.172 293.851 69.652C294.787 69.124 295.867 68.86 297.091 68.86C298.315 68.86 299.391 69.124 300.319 69.652C301.255 70.172 301.987 70.9 302.515 71.836C303.043 72.772 303.307 73.852 303.307 75.076V80.644C303.307 81.868 303.043 82.948 302.515 83.884C301.987 84.82 301.255 85.552 300.319 86.08C299.391 86.6 298.315 86.86 297.091 86.86ZM297.091 84.112C297.699 84.112 298.251 83.968 298.747 83.68C299.243 83.384 299.635 82.992 299.923 82.504C300.211 82.008 300.355 81.456 300.355 80.848V74.86C300.355 74.244 300.211 73.692 299.923 73.204C299.635 72.708 299.243 72.316 298.747 72.028C298.251 71.732 297.699 71.584 297.091 71.584C296.483 71.584 295.931 71.732 295.435 72.028C294.939 72.316 294.547 72.708 294.259 73.204C293.971 73.692 293.827 74.244 293.827 74.86V80.848C293.827 81.456 293.971 82.008 294.259 82.504C294.547 82.992 294.939 83.384 295.435 83.68C295.931 83.968 296.483 84.112 297.091 84.112ZM310.728 83.284V78.988H306.432V76.72H310.728V72.436H312.996V76.72H317.268V78.988H312.996V83.284H310.728Z" fill="white"/>
<path d="M249.507 126.77C248.217 126.77 247.128 126.485 246.24 125.915C245.352 125.339 244.68 124.544 244.224 123.53C243.768 122.516 243.54 121.346 243.54 120.02C243.54 118.694 243.768 117.524 244.224 116.51C244.68 115.496 245.352 114.704 246.24 114.134C247.128 113.558 248.217 113.27 249.507 113.27C251.013 113.27 252.243 113.657 253.197 114.431C254.151 115.199 254.805 116.231 255.159 117.527L253.809 117.878C253.533 116.852 253.038 116.039 252.324 115.439C251.61 114.839 250.671 114.539 249.507 114.539C248.493 114.539 247.65 114.77 246.978 115.232C246.306 115.694 245.799 116.339 245.457 117.167C245.121 117.989 244.947 118.94 244.935 120.02C244.929 121.1 245.094 122.051 245.43 122.873C245.772 123.695 246.282 124.34 246.96 124.808C247.644 125.27 248.493 125.501 249.507 125.501C250.671 125.501 251.61 125.201 252.324 124.601C253.038 123.995 253.533 123.182 253.809 122.162L255.159 122.513C254.805 123.809 254.151 124.844 253.197 125.618C252.243 126.386 251.013 126.77 249.507 126.77ZM261.204 126.77C260.238 126.77 259.413 126.551 258.729 126.113C258.045 125.675 257.52 125.069 257.154 124.295C256.788 123.521 256.605 122.633 256.605 121.631C256.605 120.611 256.791 119.717 257.163 118.949C257.535 118.181 258.063 117.584 258.747 117.158C259.437 116.726 260.256 116.51 261.204 116.51C262.176 116.51 263.004 116.729 263.688 117.167C264.378 117.599 264.903 118.202 265.263 118.976C265.629 119.744 265.812 120.629 265.812 121.631C265.812 122.651 265.629 123.548 265.263 124.322C264.897 125.09 264.369 125.69 263.679 126.122C262.989 126.554 262.164 126.77 261.204 126.77ZM261.204 125.501C262.284 125.501 263.088 125.144 263.616 124.43C264.144 123.71 264.408 122.777 264.408 121.631C264.408 120.455 264.141 119.519 263.607 118.823C263.079 118.127 262.278 117.779 261.204 117.779C260.478 117.779 259.878 117.944 259.404 118.274C258.936 118.598 258.585 119.051 258.351 119.633C258.123 120.209 258.009 120.875 258.009 121.631C258.009 122.801 258.279 123.74 258.819 124.448C259.359 125.15 260.154 125.501 261.204 125.501ZM279.389 126.5L279.398 120.119C279.398 119.369 279.188 118.781 278.768 118.355C278.354 117.923 277.826 117.707 277.184 117.707C276.818 117.707 276.461 117.791 276.113 117.959C275.765 118.127 275.477 118.397 275.249 118.769C275.027 119.141 274.916 119.627 274.916 120.227L274.133 120.002C274.115 119.306 274.25 118.697 274.538 118.175C274.832 117.653 275.234 117.248 275.744 116.96C276.26 116.666 276.842 116.519 277.49 116.519C278.468 116.519 279.251 116.822 279.839 117.428C280.427 118.028 280.721 118.841 280.721 119.867L280.712 126.5H279.389ZM267.788 126.5V116.78H268.976V119.174H269.12V126.5H267.788ZM273.602 126.5L273.611 120.209C273.611 119.435 273.404 118.826 272.99 118.382C272.582 117.932 272.042 117.707 271.37 117.707C270.698 117.707 270.155 117.938 269.741 118.4C269.327 118.856 269.12 119.465 269.12 120.227L268.328 119.795C268.328 119.171 268.475 118.613 268.769 118.121C269.063 117.623 269.465 117.233 269.975 116.951C270.485 116.663 271.064 116.519 271.712 116.519C272.33 116.519 272.879 116.651 273.359 116.915C273.845 117.179 274.226 117.563 274.502 118.067C274.778 118.571 274.916 119.183 274.916 119.903L274.907 126.5H273.602ZM287.42 126.77C286.526 126.77 285.77 126.545 285.152 126.095C284.534 125.639 284.066 125.024 283.748 124.25C283.43 123.47 283.271 122.597 283.271 121.631C283.271 120.647 283.43 119.771 283.748 119.003C284.072 118.229 284.546 117.62 285.17 117.176C285.794 116.732 286.562 116.51 287.474 116.51C288.362 116.51 289.124 116.735 289.76 117.185C290.396 117.635 290.882 118.247 291.218 119.021C291.56 119.795 291.731 120.665 291.731 121.631C291.731 122.603 291.56 123.476 291.218 124.25C290.876 125.024 290.384 125.639 289.742 126.095C289.1 126.545 288.326 126.77 287.42 126.77ZM283.046 130.82V116.78H284.234V124.097H284.378V130.82H283.046ZM287.285 125.537C287.963 125.537 288.527 125.366 288.977 125.024C289.427 124.682 289.763 124.217 289.985 123.629C290.213 123.035 290.327 122.369 290.327 121.631C290.327 120.899 290.216 120.239 289.994 119.651C289.772 119.063 289.433 118.598 288.977 118.256C288.527 117.914 287.954 117.743 287.258 117.743C286.58 117.743 286.016 117.908 285.566 118.238C285.122 118.568 284.789 119.027 284.567 119.615C284.345 120.197 284.234 120.869 284.234 121.631C284.234 122.381 284.345 123.053 284.567 123.647C284.789 124.235 285.125 124.697 285.575 125.033C286.025 125.369 286.595 125.537 287.285 125.537ZM297.766 126.77C296.8 126.77 295.975 126.551 295.291 126.113C294.607 125.675 294.082 125.069 293.716 124.295C293.35 123.521 293.167 122.633 293.167 121.631C293.167 120.611 293.353 119.717 293.725 118.949C294.097 118.181 294.625 117.584 295.309 117.158C295.999 116.726 296.818 116.51 297.766 116.51C298.738 116.51 299.566 116.729 300.25 117.167C300.94 117.599 301.465 118.202 301.825 118.976C302.191 119.744 302.374 120.629 302.374 121.631C302.374 122.651 302.191 123.548 301.825 124.322C301.459 125.09 300.931 125.69 300.241 126.122C299.551 126.554 298.726 126.77 297.766 126.77ZM297.766 125.501C298.846 125.501 299.65 125.144 300.178 124.43C300.706 123.71 300.97 122.777 300.97 121.631C300.97 120.455 300.703 119.519 300.169 118.823C299.641 118.127 298.84 117.779 297.766 117.779C297.04 117.779 296.44 117.944 295.966 118.274C295.498 118.598 295.147 119.051 294.913 119.633C294.685 120.209 294.571 120.875 294.571 121.631C294.571 122.801 294.841 123.74 295.381 124.448C295.921 125.15 296.716 125.501 297.766 125.501ZM311.38 126.5V121.541C311.38 121.001 311.329 120.506 311.227 120.056C311.125 119.6 310.96 119.204 310.732 118.868C310.51 118.526 310.219 118.262 309.859 118.076C309.505 117.89 309.073 117.797 308.563 117.797C308.095 117.797 307.681 117.878 307.321 118.04C306.967 118.202 306.667 118.436 306.421 118.742C306.181 119.042 305.998 119.408 305.872 119.84C305.746 120.272 305.683 120.764 305.683 121.316L304.747 121.109C304.747 120.113 304.921 119.276 305.269 118.598C305.617 117.92 306.097 117.407 306.709 117.059C307.321 116.711 308.023 116.537 308.815 116.537C309.397 116.537 309.904 116.627 310.336 116.807C310.774 116.987 311.143 117.23 311.443 117.536C311.749 117.842 311.995 118.193 312.181 118.589C312.367 118.979 312.502 119.396 312.586 119.84C312.67 120.278 312.712 120.716 312.712 121.154V126.5H311.38ZM304.351 126.5V116.78H305.548V119.174H305.683V126.5H304.351ZM319.107 126.77C318.159 126.77 317.337 126.56 316.641 126.14C315.951 125.72 315.414 125.129 315.03 124.367C314.646 123.605 314.454 122.711 314.454 121.685C314.454 120.623 314.643 119.705 315.021 118.931C315.399 118.157 315.93 117.56 316.614 117.14C317.304 116.72 318.117 116.51 319.053 116.51C320.013 116.51 320.832 116.732 321.51 117.176C322.188 117.614 322.701 118.244 323.049 119.066C323.397 119.888 323.556 120.869 323.526 122.009H322.176V121.541C322.152 120.281 321.879 119.33 321.357 118.688C320.841 118.046 320.085 117.725 319.089 117.725C318.045 117.725 317.244 118.064 316.686 118.742C316.134 119.42 315.858 120.386 315.858 121.64C315.858 122.864 316.134 123.815 316.686 124.493C317.244 125.165 318.033 125.501 319.053 125.501C319.749 125.501 320.355 125.342 320.871 125.024C321.393 124.7 321.804 124.235 322.104 123.629L323.337 124.106C322.953 124.952 322.386 125.609 321.636 126.077C320.892 126.539 320.049 126.77 319.107 126.77ZM315.39 122.009V120.902H322.815V122.009H315.39ZM332.28 126.5V121.541C332.28 121.001 332.229 120.506 332.127 120.056C332.025 119.6 331.86 119.204 331.632 118.868C331.41 118.526 331.119 118.262 330.759 118.076C330.405 117.89 329.973 117.797 329.463 117.797C328.995 117.797 328.581 117.878 328.221 118.04C327.867 118.202 327.567 118.436 327.321 118.742C327.081 119.042 326.898 119.408 326.772 119.84C326.646 120.272 326.583 120.764 326.583 121.316L325.647 121.109C325.647 120.113 325.821 119.276 326.169 118.598C326.517 117.92 326.997 117.407 327.609 117.059C328.221 116.711 328.923 116.537 329.715 116.537C330.297 116.537 330.804 116.627 331.236 116.807C331.674 116.987 332.043 117.23 332.343 117.536C332.649 117.842 332.895 118.193 333.081 118.589C333.267 118.979 333.402 119.396 333.486 119.84C333.57 120.278 333.612 120.716 333.612 121.154V126.5H332.28ZM325.251 126.5V116.78H326.448V119.174H326.583V126.5H325.251ZM341.24 126.5C340.694 126.614 340.154 126.659 339.62 126.635C339.092 126.611 338.618 126.497 338.198 126.293C337.784 126.089 337.469 125.771 337.253 125.339C337.079 124.979 336.983 124.616 336.965 124.25C336.953 123.878 336.947 123.455 336.947 122.981V114.08H338.261V122.927C338.261 123.335 338.264 123.677 338.27 123.953C338.282 124.223 338.345 124.463 338.459 124.673C338.675 125.075 339.017 125.315 339.485 125.393C339.959 125.471 340.544 125.453 341.24 125.339V126.5ZM334.868 117.914V116.78H341.24V117.914H334.868ZM346.782 126.761C345.642 126.761 344.703 126.515 343.965 126.023C343.233 125.531 342.783 124.847 342.615 123.971L343.965 123.746C344.109 124.298 344.436 124.739 344.946 125.069C345.462 125.393 346.098 125.555 346.854 125.555C347.592 125.555 348.174 125.402 348.6 125.096C349.026 124.784 349.239 124.361 349.239 123.827C349.239 123.527 349.17 123.284 349.032 123.098C348.9 122.906 348.627 122.729 348.213 122.567C347.799 122.405 347.181 122.213 346.359 121.991C345.477 121.751 344.787 121.511 344.289 121.271C343.791 121.031 343.437 120.755 343.227 120.443C343.017 120.125 342.912 119.738 342.912 119.282C342.912 118.73 343.068 118.247 343.38 117.833C343.692 117.413 344.124 117.089 344.676 116.861C345.228 116.627 345.87 116.51 346.602 116.51C347.334 116.51 347.988 116.63 348.564 116.87C349.146 117.104 349.614 117.434 349.968 117.86C350.322 118.286 350.532 118.781 350.598 119.345L349.248 119.588C349.158 119.018 348.873 118.568 348.393 118.238C347.919 117.902 347.316 117.728 346.584 117.716C345.894 117.698 345.333 117.83 344.901 118.112C344.469 118.388 344.253 118.757 344.253 119.219C344.253 119.477 344.331 119.699 344.487 119.885C344.643 120.065 344.925 120.236 345.333 120.398C345.747 120.56 346.335 120.737 347.097 120.929C347.991 121.157 348.693 121.397 349.203 121.649C349.713 121.901 350.076 122.198 350.292 122.54C350.508 122.882 350.616 123.305 350.616 123.809C350.616 124.727 350.274 125.45 349.59 125.978C348.912 126.5 347.976 126.761 346.782 126.761Z" fill="#D9D9D9"/>
<g clip-path="url(#clip0_2192_71133)">
<path d="M547.023 124.57C562.797 139.974 588.073 139.673 603.477 123.898L589.195 109.953C581.493 117.84 568.856 117.99 560.968 110.288L547.023 124.57Z" fill="#4AA35C"/>
<circle cx="572.649" cy="83.4743" r="19.9609" transform="rotate(-135.681 572.649 83.4743)" fill="#EF8435"/>
</g>
<path d="M645.68 86.5V69.22H656.084V72.112H648.572V76.42H654.644V79.3H648.572V86.5H645.68ZM663.103 86.872C662.143 86.872 661.351 86.712 660.727 86.392C660.103 86.072 659.607 85.664 659.239 85.168C658.871 84.672 658.599 84.144 658.423 83.584C658.247 83.024 658.131 82.496 658.075 82C658.027 81.496 658.003 81.088 658.003 80.776V73.54H660.931V79.78C660.931 80.18 660.959 80.632 661.015 81.136C661.071 81.632 661.199 82.112 661.399 82.576C661.607 83.032 661.911 83.408 662.311 83.704C662.719 84 663.267 84.148 663.955 84.148C664.323 84.148 664.687 84.088 665.047 83.968C665.407 83.848 665.731 83.644 666.019 83.356C666.315 83.06 666.551 82.656 666.727 82.144C666.903 81.632 666.991 80.984 666.991 80.2L668.707 80.932C668.707 82.036 668.491 83.036 668.059 83.932C667.635 84.828 667.007 85.544 666.175 86.08C665.343 86.608 664.319 86.872 663.103 86.872ZM667.339 86.5V82.48H666.991V73.54H669.895V86.5H667.339ZM673.506 86.5V68.86H676.398V86.5H673.506ZM680.233 86.5V68.86H683.125V86.5H680.233ZM688.423 92.26L690.919 85.408L690.967 87.424L685.315 73.54H688.327L692.335 83.812H691.567L695.467 73.54H698.359L691.135 92.26H688.423ZM709.758 86.5V69.22H716.898C717.066 69.22 717.282 69.228 717.546 69.244C717.81 69.252 718.054 69.276 718.278 69.316C719.278 69.468 720.102 69.8 720.75 70.312C721.406 70.824 721.89 71.472 722.202 72.256C722.522 73.032 722.682 73.896 722.682 74.848C722.682 76.256 722.326 77.468 721.614 78.484C720.902 79.492 719.81 80.116 718.338 80.356L717.102 80.464H712.65V86.5H709.758ZM719.682 86.5L716.274 79.468L719.214 78.82L722.958 86.5H719.682ZM712.65 77.764H716.778C716.938 77.764 717.118 77.756 717.318 77.74C717.518 77.724 717.702 77.692 717.87 77.644C718.35 77.524 718.726 77.312 718.998 77.008C719.278 76.704 719.474 76.36 719.586 75.976C719.706 75.592 719.766 75.216 719.766 74.848C719.766 74.48 719.706 74.104 719.586 73.72C719.474 73.328 719.278 72.98 718.998 72.676C718.726 72.372 718.35 72.16 717.87 72.04C717.702 71.992 717.518 71.964 717.318 71.956C717.118 71.94 716.938 71.932 716.778 71.932H712.65V77.764ZM731.494 86.86C730.182 86.86 729.03 86.576 728.038 86.008C727.046 85.44 726.27 84.652 725.71 83.644C725.158 82.636 724.882 81.476 724.882 80.164C724.882 78.748 725.154 77.52 725.698 76.48C726.242 75.432 726.998 74.62 727.966 74.044C728.934 73.468 730.054 73.18 731.326 73.18C732.67 73.18 733.81 73.496 734.746 74.128C735.69 74.752 736.39 75.636 736.846 76.78C737.302 77.924 737.474 79.272 737.362 80.824H734.494V79.768C734.486 78.36 734.238 77.332 733.75 76.684C733.262 76.036 732.494 75.712 731.446 75.712C730.262 75.712 729.382 76.08 728.806 76.816C728.23 77.544 727.942 78.612 727.942 80.02C727.942 81.332 728.23 82.348 728.806 83.068C729.382 83.788 730.222 84.148 731.326 84.148C732.038 84.148 732.65 83.992 733.162 83.68C733.682 83.36 734.082 82.9 734.362 82.3L737.218 83.164C736.722 84.332 735.954 85.24 734.914 85.888C733.882 86.536 732.742 86.86 731.494 86.86ZM727.03 80.824V78.64H735.946V80.824H727.03ZM745.043 86.86C743.443 86.86 742.143 86.5 741.143 85.78C740.143 85.06 739.535 84.048 739.319 82.744L742.271 82.288C742.423 82.928 742.759 83.432 743.279 83.8C743.799 84.168 744.455 84.352 745.247 84.352C745.943 84.352 746.479 84.216 746.855 83.944C747.239 83.664 747.431 83.284 747.431 82.804C747.431 82.508 747.359 82.272 747.215 82.096C747.079 81.912 746.775 81.736 746.303 81.568C745.831 81.4 745.107 81.188 744.131 80.932C743.043 80.644 742.179 80.336 741.539 80.008C740.899 79.672 740.439 79.276 740.159 78.82C739.879 78.364 739.739 77.812 739.739 77.164C739.739 76.356 739.951 75.652 740.375 75.052C740.799 74.452 741.391 73.992 742.151 73.672C742.911 73.344 743.807 73.18 744.839 73.18C745.847 73.18 746.739 73.336 747.515 73.648C748.299 73.96 748.931 74.404 749.411 74.98C749.891 75.556 750.187 76.232 750.299 77.008L747.347 77.536C747.275 76.984 747.023 76.548 746.591 76.228C746.167 75.908 745.599 75.728 744.887 75.688C744.207 75.648 743.659 75.752 743.243 76C742.827 76.24 742.619 76.58 742.619 77.02C742.619 77.268 742.703 77.48 742.871 77.656C743.039 77.832 743.375 78.008 743.879 78.184C744.391 78.36 745.151 78.576 746.159 78.832C747.191 79.096 748.015 79.4 748.631 79.744C749.255 80.08 749.703 80.484 749.975 80.956C750.255 81.428 750.395 82 750.395 82.672C750.395 83.976 749.919 85 748.967 85.744C748.023 86.488 746.715 86.86 745.043 86.86ZM759.252 86.86C757.988 86.86 756.928 86.56 756.072 85.96C755.216 85.36 754.572 84.544 754.14 83.512C753.708 82.472 753.492 81.308 753.492 80.02C753.492 78.716 753.708 77.548 754.14 76.516C754.572 75.484 755.204 74.672 756.036 74.08C756.876 73.48 757.912 73.18 759.144 73.18C760.368 73.18 761.428 73.48 762.324 74.08C763.228 74.672 763.928 75.484 764.424 76.516C764.92 77.54 765.168 78.708 765.168 80.02C765.168 81.316 764.924 82.48 764.436 83.512C763.948 84.544 763.26 85.36 762.372 85.96C761.484 86.56 760.444 86.86 759.252 86.86ZM753 92.26V73.54H755.556V82.636H755.916V92.26H753ZM758.808 84.268C759.56 84.268 760.18 84.08 760.668 83.704C761.156 83.328 761.516 82.82 761.748 82.18C761.988 81.532 762.108 80.812 762.108 80.02C762.108 79.236 761.988 78.524 761.748 77.884C761.508 77.236 761.136 76.724 760.632 76.348C760.128 75.964 759.488 75.772 758.712 75.772C757.976 75.772 757.376 75.952 756.912 76.312C756.448 76.664 756.104 77.16 755.88 77.8C755.664 78.432 755.556 79.172 755.556 80.02C755.556 80.86 755.664 81.6 755.88 82.24C756.104 82.88 756.452 83.38 756.924 83.74C757.404 84.092 758.032 84.268 758.808 84.268ZM773.537 86.86C772.241 86.86 771.109 86.568 770.141 85.984C769.173 85.4 768.421 84.596 767.885 83.572C767.357 82.54 767.093 81.356 767.093 80.02C767.093 78.66 767.365 77.468 767.909 76.444C768.453 75.42 769.209 74.62 770.177 74.044C771.145 73.468 772.265 73.18 773.537 73.18C774.841 73.18 775.977 73.472 776.945 74.056C777.913 74.64 778.665 75.448 779.201 76.48C779.737 77.504 780.005 78.684 780.005 80.02C780.005 81.364 779.733 82.552 779.189 83.584C778.653 84.608 777.901 85.412 776.933 85.996C775.965 86.572 774.833 86.86 773.537 86.86ZM773.537 84.148C774.689 84.148 775.545 83.764 776.105 82.996C776.665 82.228 776.945 81.236 776.945 80.02C776.945 78.764 776.661 77.764 776.093 77.02C775.525 76.268 774.673 75.892 773.537 75.892C772.761 75.892 772.121 76.068 771.617 76.42C771.121 76.764 770.753 77.248 770.513 77.872C770.273 78.488 770.153 79.204 770.153 80.02C770.153 81.276 770.437 82.28 771.005 83.032C771.581 83.776 772.425 84.148 773.537 84.148ZM791.613 86.5V80.26C791.613 79.852 791.585 79.4 791.529 78.904C791.473 78.408 791.341 77.932 791.133 77.476C790.933 77.012 790.629 76.632 790.221 76.336C789.821 76.04 789.277 75.892 788.589 75.892C788.221 75.892 787.857 75.952 787.497 76.072C787.137 76.192 786.809 76.4 786.513 76.696C786.225 76.984 785.993 77.384 785.817 77.896C785.641 78.4 785.553 79.048 785.553 79.84L783.837 79.108C783.837 78.004 784.049 77.004 784.473 76.108C784.905 75.212 785.537 74.5 786.369 73.972C787.201 73.436 788.225 73.168 789.441 73.168C790.401 73.168 791.193 73.328 791.817 73.648C792.441 73.968 792.937 74.376 793.305 74.872C793.673 75.368 793.945 75.896 794.121 76.456C794.297 77.016 794.409 77.548 794.457 78.052C794.513 78.548 794.541 78.952 794.541 79.264V86.5H791.613ZM782.625 86.5V73.54H785.205V77.56H785.553V86.5H782.625ZM802.676 86.86C801.076 86.86 799.776 86.5 798.776 85.78C797.776 85.06 797.168 84.048 796.952 82.744L799.904 82.288C800.056 82.928 800.392 83.432 800.912 83.8C801.432 84.168 802.088 84.352 802.88 84.352C803.576 84.352 804.112 84.216 804.488 83.944C804.872 83.664 805.064 83.284 805.064 82.804C805.064 82.508 804.992 82.272 804.848 82.096C804.712 81.912 804.408 81.736 803.936 81.568C803.464 81.4 802.74 81.188 801.764 80.932C800.676 80.644 799.812 80.336 799.172 80.008C798.532 79.672 798.072 79.276 797.792 78.82C797.512 78.364 797.372 77.812 797.372 77.164C797.372 76.356 797.584 75.652 798.008 75.052C798.432 74.452 799.024 73.992 799.784 73.672C800.544 73.344 801.44 73.18 802.472 73.18C803.48 73.18 804.372 73.336 805.148 73.648C805.932 73.96 806.564 74.404 807.044 74.98C807.524 75.556 807.82 76.232 807.932 77.008L804.98 77.536C804.908 76.984 804.656 76.548 804.224 76.228C803.8 75.908 803.232 75.728 802.52 75.688C801.84 75.648 801.292 75.752 800.876 76C800.46 76.24 800.252 76.58 800.252 77.02C800.252 77.268 800.336 77.48 800.504 77.656C800.672 77.832 801.008 78.008 801.512 78.184C802.024 78.36 802.784 78.576 803.792 78.832C804.824 79.096 805.648 79.4 806.264 79.744C806.888 80.08 807.336 80.484 807.608 80.956C807.888 81.428 808.028 82 808.028 82.672C808.028 83.976 807.552 85 806.6 85.744C805.656 86.488 804.348 86.86 802.676 86.86ZM810.897 71.572V68.92H813.789V71.572H810.897ZM810.897 86.5V73.54H813.789V86.5H810.897ZM820.887 86.5L816.183 73.54H819.075L822.339 82.936L825.591 73.54H828.495L823.791 86.5H820.887ZM836.072 86.86C834.76 86.86 833.608 86.576 832.616 86.008C831.624 85.44 830.848 84.652 830.288 83.644C829.736 82.636 829.46 81.476 829.46 80.164C829.46 78.748 829.732 77.52 830.276 76.48C830.82 75.432 831.576 74.62 832.544 74.044C833.512 73.468 834.632 73.18 835.904 73.18C837.248 73.18 838.388 73.496 839.324 74.128C840.268 74.752 840.968 75.636 841.424 76.78C841.88 77.924 842.052 79.272 841.94 80.824H839.072V79.768C839.064 78.36 838.816 77.332 838.328 76.684C837.84 76.036 837.072 75.712 836.024 75.712C834.84 75.712 833.96 76.08 833.384 76.816C832.808 77.544 832.52 78.612 832.52 80.02C832.52 81.332 832.808 82.348 833.384 83.068C833.96 83.788 834.8 84.148 835.904 84.148C836.616 84.148 837.228 83.992 837.74 83.68C838.26 83.36 838.66 82.9 838.94 82.3L841.796 83.164C841.3 84.332 840.532 85.24 839.492 85.888C838.46 86.536 837.32 86.86 836.072 86.86ZM831.608 80.824V78.64H840.524V80.824H831.608Z" fill="white"/>
<path d="M650.507 126.77C649.217 126.77 648.128 126.485 647.24 125.915C646.352 125.339 645.68 124.544 645.224 123.53C644.768 122.516 644.54 121.346 644.54 120.02C644.54 118.694 644.768 117.524 645.224 116.51C645.68 115.496 646.352 114.704 647.24 114.134C648.128 113.558 649.217 113.27 650.507 113.27C652.013 113.27 653.243 113.657 654.197 114.431C655.151 115.199 655.805 116.231 656.159 117.527L654.809 117.878C654.533 116.852 654.038 116.039 653.324 115.439C652.61 114.839 651.671 114.539 650.507 114.539C649.493 114.539 648.65 114.77 647.978 115.232C647.306 115.694 646.799 116.339 646.457 117.167C646.121 117.989 645.947 118.94 645.935 120.02C645.929 121.1 646.094 122.051 646.43 122.873C646.772 123.695 647.282 124.34 647.96 124.808C648.644 125.27 649.493 125.501 650.507 125.501C651.671 125.501 652.61 125.201 653.324 124.601C654.038 123.995 654.533 123.182 654.809 122.162L656.159 122.513C655.805 123.809 655.151 124.844 654.197 125.618C653.243 126.386 652.013 126.77 650.507 126.77ZM662.204 126.77C661.238 126.77 660.413 126.551 659.729 126.113C659.045 125.675 658.52 125.069 658.154 124.295C657.788 123.521 657.605 122.633 657.605 121.631C657.605 120.611 657.791 119.717 658.163 118.949C658.535 118.181 659.063 117.584 659.747 117.158C660.437 116.726 661.256 116.51 662.204 116.51C663.176 116.51 664.004 116.729 664.688 117.167C665.378 117.599 665.903 118.202 666.263 118.976C666.629 119.744 666.812 120.629 666.812 121.631C666.812 122.651 666.629 123.548 666.263 124.322C665.897 125.09 665.369 125.69 664.679 126.122C663.989 126.554 663.164 126.77 662.204 126.77ZM662.204 125.501C663.284 125.501 664.088 125.144 664.616 124.43C665.144 123.71 665.408 122.777 665.408 121.631C665.408 120.455 665.141 119.519 664.607 118.823C664.079 118.127 663.278 117.779 662.204 117.779C661.478 117.779 660.878 117.944 660.404 118.274C659.936 118.598 659.585 119.051 659.351 119.633C659.123 120.209 659.009 120.875 659.009 121.631C659.009 122.801 659.279 123.74 659.819 124.448C660.359 125.15 661.154 125.501 662.204 125.501ZM680.389 126.5L680.398 120.119C680.398 119.369 680.188 118.781 679.768 118.355C679.354 117.923 678.826 117.707 678.184 117.707C677.818 117.707 677.461 117.791 677.113 117.959C676.765 118.127 676.477 118.397 676.249 118.769C676.027 119.141 675.916 119.627 675.916 120.227L675.133 120.002C675.115 119.306 675.25 118.697 675.538 118.175C675.832 117.653 676.234 117.248 676.744 116.96C677.26 116.666 677.842 116.519 678.49 116.519C679.468 116.519 680.251 116.822 680.839 117.428C681.427 118.028 681.721 118.841 681.721 119.867L681.712 126.5H680.389ZM668.788 126.5V116.78H669.976V119.174H670.12V126.5H668.788ZM674.602 126.5L674.611 120.209C674.611 119.435 674.404 118.826 673.99 118.382C673.582 117.932 673.042 117.707 672.37 117.707C671.698 117.707 671.155 117.938 670.741 118.4C670.327 118.856 670.12 119.465 670.12 120.227L669.328 119.795C669.328 119.171 669.475 118.613 669.769 118.121C670.063 117.623 670.465 117.233 670.975 116.951C671.485 116.663 672.064 116.519 672.712 116.519C673.33 116.519 673.879 116.651 674.359 116.915C674.845 117.179 675.226 117.563 675.502 118.067C675.778 118.571 675.916 119.183 675.916 119.903L675.907 126.5H674.602ZM688.42 126.77C687.526 126.77 686.77 126.545 686.152 126.095C685.534 125.639 685.066 125.024 684.748 124.25C684.43 123.47 684.271 122.597 684.271 121.631C684.271 120.647 684.43 119.771 684.748 119.003C685.072 118.229 685.546 117.62 686.17 117.176C686.794 116.732 687.562 116.51 688.474 116.51C689.362 116.51 690.124 116.735 690.76 117.185C691.396 117.635 691.882 118.247 692.218 119.021C692.56 119.795 692.731 120.665 692.731 121.631C692.731 122.603 692.56 123.476 692.218 124.25C691.876 125.024 691.384 125.639 690.742 126.095C690.1 126.545 689.326 126.77 688.42 126.77ZM684.046 130.82V116.78H685.234V124.097H685.378V130.82H684.046ZM688.285 125.537C688.963 125.537 689.527 125.366 689.977 125.024C690.427 124.682 690.763 124.217 690.985 123.629C691.213 123.035 691.327 122.369 691.327 121.631C691.327 120.899 691.216 120.239 690.994 119.651C690.772 119.063 690.433 118.598 689.977 118.256C689.527 117.914 688.954 117.743 688.258 117.743C687.58 117.743 687.016 117.908 686.566 118.238C686.122 118.568 685.789 119.027 685.567 119.615C685.345 120.197 685.234 120.869 685.234 121.631C685.234 122.381 685.345 123.053 685.567 123.647C685.789 124.235 686.125 124.697 686.575 125.033C687.025 125.369 687.595 125.537 688.285 125.537ZM698.766 126.77C697.8 126.77 696.975 126.551 696.291 126.113C695.607 125.675 695.082 125.069 694.716 124.295C694.35 123.521 694.167 122.633 694.167 121.631C694.167 120.611 694.353 119.717 694.725 118.949C695.097 118.181 695.625 117.584 696.309 117.158C696.999 116.726 697.818 116.51 698.766 116.51C699.738 116.51 700.566 116.729 701.25 117.167C701.94 117.599 702.465 118.202 702.825 118.976C703.191 119.744 703.374 120.629 703.374 121.631C703.374 122.651 703.191 123.548 702.825 124.322C702.459 125.09 701.931 125.69 701.241 126.122C700.551 126.554 699.726 126.77 698.766 126.77ZM698.766 125.501C699.846 125.501 700.65 125.144 701.178 124.43C701.706 123.71 701.97 122.777 701.97 121.631C701.97 120.455 701.703 119.519 701.169 118.823C700.641 118.127 699.84 117.779 698.766 117.779C698.04 117.779 697.44 117.944 696.966 118.274C696.498 118.598 696.147 119.051 695.913 119.633C695.685 120.209 695.571 120.875 695.571 121.631C695.571 122.801 695.841 123.74 696.381 124.448C696.921 125.15 697.716 125.501 698.766 125.501ZM712.38 126.5V121.541C712.38 121.001 712.329 120.506 712.227 120.056C712.125 119.6 711.96 119.204 711.732 118.868C711.51 118.526 711.219 118.262 710.859 118.076C710.505 117.89 710.073 117.797 709.563 117.797C709.095 117.797 708.681 117.878 708.321 118.04C707.967 118.202 707.667 118.436 707.421 118.742C707.181 119.042 706.998 119.408 706.872 119.84C706.746 120.272 706.683 120.764 706.683 121.316L705.747 121.109C705.747 120.113 705.921 119.276 706.269 118.598C706.617 117.92 707.097 117.407 707.709 117.059C708.321 116.711 709.023 116.537 709.815 116.537C710.397 116.537 710.904 116.627 711.336 116.807C711.774 116.987 712.143 117.23 712.443 117.536C712.749 117.842 712.995 118.193 713.181 118.589C713.367 118.979 713.502 119.396 713.586 119.84C713.67 120.278 713.712 120.716 713.712 121.154V126.5H712.38ZM705.351 126.5V116.78H706.548V119.174H706.683V126.5H705.351ZM720.107 126.77C719.159 126.77 718.337 126.56 717.641 126.14C716.951 125.72 716.414 125.129 716.03 124.367C715.646 123.605 715.454 122.711 715.454 121.685C715.454 120.623 715.643 119.705 716.021 118.931C716.399 118.157 716.93 117.56 717.614 117.14C718.304 116.72 719.117 116.51 720.053 116.51C721.013 116.51 721.832 116.732 722.51 117.176C723.188 117.614 723.701 118.244 724.049 119.066C724.397 119.888 724.556 120.869 724.526 122.009H723.176V121.541C723.152 120.281 722.879 119.33 722.357 118.688C721.841 118.046 721.085 117.725 720.089 117.725C719.045 117.725 718.244 118.064 717.686 118.742C717.134 119.42 716.858 120.386 716.858 121.64C716.858 122.864 717.134 123.815 717.686 124.493C718.244 125.165 719.033 125.501 720.053 125.501C720.749 125.501 721.355 125.342 721.871 125.024C722.393 124.7 722.804 124.235 723.104 123.629L724.337 124.106C723.953 124.952 723.386 125.609 722.636 126.077C721.892 126.539 721.049 126.77 720.107 126.77ZM716.39 122.009V120.902H723.815V122.009H716.39ZM733.28 126.5V121.541C733.28 121.001 733.229 120.506 733.127 120.056C733.025 119.6 732.86 119.204 732.632 118.868C732.41 118.526 732.119 118.262 731.759 118.076C731.405 117.89 730.973 117.797 730.463 117.797C729.995 117.797 729.581 117.878 729.221 118.04C728.867 118.202 728.567 118.436 728.321 118.742C728.081 119.042 727.898 119.408 727.772 119.84C727.646 120.272 727.583 120.764 727.583 121.316L726.647 121.109C726.647 120.113 726.821 119.276 727.169 118.598C727.517 117.92 727.997 117.407 728.609 117.059C729.221 116.711 729.923 116.537 730.715 116.537C731.297 116.537 731.804 116.627 732.236 116.807C732.674 116.987 733.043 117.23 733.343 117.536C733.649 117.842 733.895 118.193 734.081 118.589C734.267 118.979 734.402 119.396 734.486 119.84C734.57 120.278 734.612 120.716 734.612 121.154V126.5H733.28ZM726.251 126.5V116.78H727.448V119.174H727.583V126.5H726.251ZM742.24 126.5C741.694 126.614 741.154 126.659 740.62 126.635C740.092 126.611 739.618 126.497 739.198 126.293C738.784 126.089 738.469 125.771 738.253 125.339C738.079 124.979 737.983 124.616 737.965 124.25C737.953 123.878 737.947 123.455 737.947 122.981V114.08H739.261V122.927C739.261 123.335 739.264 123.677 739.27 123.953C739.282 124.223 739.345 124.463 739.459 124.673C739.675 125.075 740.017 125.315 740.485 125.393C740.959 125.471 741.544 125.453 742.24 125.339V126.5ZM735.868 117.914V116.78H742.24V117.914H735.868ZM747.782 126.761C746.642 126.761 745.703 126.515 744.965 126.023C744.233 125.531 743.783 124.847 743.615 123.971L744.965 123.746C745.109 124.298 745.436 124.739 745.946 125.069C746.462 125.393 747.098 125.555 747.854 125.555C748.592 125.555 749.174 125.402 749.6 125.096C750.026 124.784 750.239 124.361 750.239 123.827C750.239 123.527 750.17 123.284 750.032 123.098C749.9 122.906 749.627 122.729 749.213 122.567C748.799 122.405 748.181 122.213 747.359 121.991C746.477 121.751 745.787 121.511 745.289 121.271C744.791 121.031 744.437 120.755 744.227 120.443C744.017 120.125 743.912 119.738 743.912 119.282C743.912 118.73 744.068 118.247 744.38 117.833C744.692 117.413 745.124 117.089 745.676 116.861C746.228 116.627 746.87 116.51 747.602 116.51C748.334 116.51 748.988 116.63 749.564 116.87C750.146 117.104 750.614 117.434 750.968 117.86C751.322 118.286 751.532 118.781 751.598 119.345L750.248 119.588C750.158 119.018 749.873 118.568 749.393 118.238C748.919 117.902 748.316 117.728 747.584 117.716C746.894 117.698 746.333 117.83 745.901 118.112C745.469 118.388 745.253 118.757 745.253 119.219C745.253 119.477 745.331 119.699 745.487 119.885C745.643 120.065 745.925 120.236 746.333 120.398C746.747 120.56 747.335 120.737 748.097 120.929C748.991 121.157 749.693 121.397 750.203 121.649C750.713 121.901 751.076 122.198 751.292 122.54C751.508 122.882 751.616 123.305 751.616 123.809C751.616 124.727 751.274 125.45 750.59 125.978C749.912 126.5 748.976 126.761 747.782 126.761Z" fill="#D9D9D9"/>
<g clip-path="url(#clip1_2192_71133)">
<path d="M1098.53 147.239C1114.12 131.649 1114.12 106.372 1098.53 90.7812L1084.42 104.896C1092.21 112.691 1092.21 125.329 1084.42 133.125L1098.53 147.239Z" fill="#4AA35C"/>
<circle cx="1057.74" cy="121.129" r="19.9609" transform="rotate(135 1057.74 121.129)" fill="#EF8435"/>
</g>
<path d="M1136.92 86.5V69.22H1139.81V83.788H1147.44V86.5H1136.92ZM1155.2 86.86C1153.9 86.86 1152.77 86.568 1151.8 85.984C1150.84 85.4 1150.08 84.596 1149.55 83.572C1149.02 82.54 1148.76 81.356 1148.76 80.02C1148.76 78.66 1149.03 77.468 1149.57 76.444C1150.12 75.42 1150.87 74.62 1151.84 74.044C1152.81 73.468 1153.93 73.18 1155.2 73.18C1156.5 73.18 1157.64 73.472 1158.61 74.056C1159.58 74.64 1160.33 75.448 1160.86 76.48C1161.4 77.504 1161.67 78.684 1161.67 80.02C1161.67 81.364 1161.4 82.552 1160.85 83.584C1160.32 84.608 1159.56 85.412 1158.6 85.996C1157.63 86.572 1156.5 86.86 1155.2 86.86ZM1155.2 84.148C1156.35 84.148 1157.21 83.764 1157.77 82.996C1158.33 82.228 1158.61 81.236 1158.61 80.02C1158.61 78.764 1158.32 77.764 1157.76 77.02C1157.19 76.268 1156.34 75.892 1155.2 75.892C1154.42 75.892 1153.78 76.068 1153.28 76.42C1152.78 76.764 1152.42 77.248 1152.18 77.872C1151.94 78.488 1151.82 79.204 1151.82 80.02C1151.82 81.276 1152.1 82.28 1152.67 83.032C1153.24 83.776 1154.09 84.148 1155.2 84.148ZM1164.31 86.5V73.54H1166.87V76.696L1166.56 76.288C1166.72 75.856 1166.93 75.464 1167.19 75.112C1167.46 74.752 1167.79 74.456 1168.16 74.224C1168.48 74.008 1168.84 73.84 1169.22 73.72C1169.61 73.592 1170.01 73.516 1170.42 73.492C1170.83 73.46 1171.22 73.476 1171.61 73.54V76.24C1171.22 76.128 1170.78 76.092 1170.28 76.132C1169.78 76.172 1169.33 76.312 1168.93 76.552C1168.53 76.768 1168.2 77.044 1167.95 77.38C1167.7 77.716 1167.52 78.1 1167.4 78.532C1167.28 78.956 1167.22 79.416 1167.22 79.912V86.5H1164.31ZM1179.56 86.86C1178.24 86.86 1177.09 86.576 1176.1 86.008C1175.11 85.44 1174.33 84.652 1173.77 83.644C1173.22 82.636 1172.94 81.476 1172.94 80.164C1172.94 78.748 1173.22 77.52 1173.76 76.48C1174.3 75.432 1175.06 74.62 1176.03 74.044C1177 73.468 1178.12 73.18 1179.39 73.18C1180.73 73.18 1181.87 73.496 1182.81 74.128C1183.75 74.752 1184.45 75.636 1184.91 76.78C1185.36 77.924 1185.54 79.272 1185.42 80.824H1182.56V79.768C1182.55 78.36 1182.3 77.332 1181.81 76.684C1181.32 76.036 1180.56 75.712 1179.51 75.712C1178.32 75.712 1177.44 76.08 1176.87 76.816C1176.29 77.544 1176 78.612 1176 80.02C1176 81.332 1176.29 82.348 1176.87 83.068C1177.44 83.788 1178.28 84.148 1179.39 84.148C1180.1 84.148 1180.71 83.992 1181.22 83.68C1181.74 83.36 1182.14 82.9 1182.42 82.3L1185.28 83.164C1184.78 84.332 1184.02 85.24 1182.98 85.888C1181.94 86.536 1180.8 86.86 1179.56 86.86ZM1175.09 80.824V78.64H1184.01V80.824H1175.09ZM1192.96 86.872C1192 86.872 1191.21 86.712 1190.59 86.392C1189.96 86.072 1189.47 85.664 1189.1 85.168C1188.73 84.672 1188.46 84.144 1188.28 83.584C1188.11 83.024 1187.99 82.496 1187.93 82C1187.89 81.496 1187.86 81.088 1187.86 80.776V73.54H1190.79V79.78C1190.79 80.18 1190.82 80.632 1190.87 81.136C1190.93 81.632 1191.06 82.112 1191.26 82.576C1191.47 83.032 1191.77 83.408 1192.17 83.704C1192.58 84 1193.13 84.148 1193.81 84.148C1194.18 84.148 1194.55 84.088 1194.91 83.968C1195.27 83.848 1195.59 83.644 1195.88 83.356C1196.17 83.06 1196.41 82.656 1196.59 82.144C1196.76 81.632 1196.85 80.984 1196.85 80.2L1198.57 80.932C1198.57 82.036 1198.35 83.036 1197.92 83.932C1197.49 84.828 1196.87 85.544 1196.03 86.08C1195.2 86.608 1194.18 86.872 1192.96 86.872ZM1197.2 86.5V82.48H1196.85V73.54H1199.75V86.5H1197.2ZM1218.69 86.5V78.628C1218.69 77.74 1218.47 77.048 1218.03 76.552C1217.59 76.048 1216.99 75.796 1216.24 75.796C1215.78 75.796 1215.36 75.904 1214.99 76.12C1214.63 76.328 1214.33 76.64 1214.12 77.056C1213.9 77.464 1213.79 77.952 1213.79 78.52L1212.51 77.764C1212.5 76.868 1212.7 76.08 1213.11 75.4C1213.53 74.712 1214.09 74.176 1214.79 73.792C1215.49 73.408 1216.28 73.216 1217.14 73.216C1218.57 73.216 1219.67 73.648 1220.43 74.512C1221.2 75.368 1221.58 76.496 1221.58 77.896V86.5H1218.69ZM1203.1 86.5V73.54H1205.66V77.56H1206.02V86.5H1203.1ZM1210.91 86.5V78.664C1210.91 77.76 1210.69 77.056 1210.25 76.552C1209.81 76.048 1209.21 75.796 1208.45 75.796C1207.72 75.796 1207.13 76.048 1206.68 76.552C1206.24 77.056 1206.02 77.712 1206.02 78.52L1204.72 77.656C1204.72 76.816 1204.93 76.06 1205.35 75.388C1205.76 74.716 1206.32 74.188 1207.03 73.804C1207.74 73.412 1208.53 73.216 1209.41 73.216C1210.38 73.216 1211.19 73.424 1211.84 73.84C1212.49 74.248 1212.98 74.808 1213.3 75.52C1213.63 76.224 1213.79 77.02 1213.79 77.908V86.5H1210.91ZM1229.76 86.5V69.22H1232.65V86.5H1229.76ZM1242.47 86.86C1241.21 86.86 1240.15 86.56 1239.29 85.96C1238.43 85.36 1237.79 84.544 1237.36 83.512C1236.93 82.472 1236.71 81.308 1236.71 80.02C1236.71 78.716 1236.93 77.548 1237.36 76.516C1237.79 75.484 1238.42 74.672 1239.25 74.08C1240.09 73.48 1241.13 73.18 1242.36 73.18C1243.59 73.18 1244.65 73.48 1245.54 74.08C1246.45 74.672 1247.15 75.484 1247.64 76.516C1248.14 77.54 1248.39 78.708 1248.39 80.02C1248.39 81.316 1248.14 82.48 1247.65 83.512C1247.17 84.544 1246.48 85.36 1245.59 85.96C1244.7 86.56 1243.66 86.86 1242.47 86.86ZM1236.22 92.26V73.54H1238.77V82.636H1239.13V92.26H1236.22ZM1242.03 84.268C1242.78 84.268 1243.4 84.08 1243.89 83.704C1244.37 83.328 1244.73 82.82 1244.97 82.18C1245.21 81.532 1245.33 80.812 1245.33 80.02C1245.33 79.236 1245.21 78.524 1244.97 77.884C1244.73 77.236 1244.35 76.724 1243.85 76.348C1243.35 75.964 1242.71 75.772 1241.93 75.772C1241.19 75.772 1240.59 75.952 1240.13 76.312C1239.67 76.664 1239.32 77.16 1239.1 77.8C1238.88 78.432 1238.77 79.172 1238.77 80.02C1238.77 80.86 1238.88 81.6 1239.1 82.24C1239.32 82.88 1239.67 83.38 1240.14 83.74C1240.62 84.092 1241.25 84.268 1242.03 84.268ZM1255.73 86.86C1254.13 86.86 1252.83 86.5 1251.83 85.78C1250.83 85.06 1250.22 84.048 1250.01 82.744L1252.96 82.288C1253.11 82.928 1253.45 83.432 1253.97 83.8C1254.49 84.168 1255.14 84.352 1255.93 84.352C1256.63 84.352 1257.17 84.216 1257.54 83.944C1257.93 83.664 1258.12 83.284 1258.12 82.804C1258.12 82.508 1258.05 82.272 1257.9 82.096C1257.77 81.912 1257.46 81.736 1256.99 81.568C1256.52 81.4 1255.79 81.188 1254.82 80.932C1253.73 80.644 1252.87 80.336 1252.23 80.008C1251.59 79.672 1251.13 79.276 1250.85 78.82C1250.57 78.364 1250.43 77.812 1250.43 77.164C1250.43 76.356 1250.64 75.652 1251.06 75.052C1251.49 74.452 1252.08 73.992 1252.84 73.672C1253.6 73.344 1254.49 73.18 1255.53 73.18C1256.53 73.18 1257.43 73.336 1258.2 73.648C1258.99 73.96 1259.62 74.404 1260.1 74.98C1260.58 75.556 1260.87 76.232 1260.99 77.008L1258.03 77.536C1257.96 76.984 1257.71 76.548 1257.28 76.228C1256.85 75.908 1256.29 75.728 1255.57 75.688C1254.89 75.648 1254.35 75.752 1253.93 76C1253.51 76.24 1253.31 76.58 1253.31 77.02C1253.31 77.268 1253.39 77.48 1253.56 77.656C1253.73 77.832 1254.06 78.008 1254.57 78.184C1255.08 78.36 1255.84 78.576 1256.85 78.832C1257.88 79.096 1258.7 79.4 1259.32 79.744C1259.94 80.08 1260.39 80.484 1260.66 80.956C1260.94 81.428 1261.08 82 1261.08 82.672C1261.08 83.976 1260.61 85 1259.65 85.744C1258.71 86.488 1257.4 86.86 1255.73 86.86ZM1268.57 86.872C1267.61 86.872 1266.82 86.712 1266.2 86.392C1265.57 86.072 1265.08 85.664 1264.71 85.168C1264.34 84.672 1264.07 84.144 1263.89 83.584C1263.72 83.024 1263.6 82.496 1263.54 82C1263.5 81.496 1263.47 81.088 1263.47 80.776V73.54H1266.4V79.78C1266.4 80.18 1266.43 80.632 1266.48 81.136C1266.54 81.632 1266.67 82.112 1266.87 82.576C1267.08 83.032 1267.38 83.408 1267.78 83.704C1268.19 84 1268.74 84.148 1269.42 84.148C1269.79 84.148 1270.16 84.088 1270.52 83.968C1270.88 83.848 1271.2 83.644 1271.49 83.356C1271.78 83.06 1272.02 82.656 1272.2 82.144C1272.37 81.632 1272.46 80.984 1272.46 80.2L1274.18 80.932C1274.18 82.036 1273.96 83.036 1273.53 83.932C1273.1 84.828 1272.48 85.544 1271.64 86.08C1270.81 86.608 1269.79 86.872 1268.57 86.872ZM1272.81 86.5V82.48H1272.46V73.54H1275.36V86.5H1272.81ZM1294.3 86.5V78.628C1294.3 77.74 1294.08 77.048 1293.64 76.552C1293.2 76.048 1292.6 75.796 1291.85 75.796C1291.39 75.796 1290.97 75.904 1290.6 76.12C1290.23 76.328 1289.94 76.64 1289.73 77.056C1289.51 77.464 1289.4 77.952 1289.4 78.52L1288.12 77.764C1288.11 76.868 1288.31 76.08 1288.72 75.4C1289.13 74.712 1289.69 74.176 1290.4 73.792C1291.1 73.408 1291.89 73.216 1292.75 73.216C1294.18 73.216 1295.28 73.648 1296.04 74.512C1296.81 75.368 1297.19 76.496 1297.19 77.896V86.5H1294.3ZM1278.71 86.5V73.54H1281.27V77.56H1281.63V86.5H1278.71ZM1286.52 86.5V78.664C1286.52 77.76 1286.3 77.056 1285.86 76.552C1285.42 76.048 1284.82 75.796 1284.06 75.796C1283.33 75.796 1282.73 76.048 1282.29 76.552C1281.85 77.056 1281.63 77.712 1281.63 78.52L1280.33 77.656C1280.33 76.816 1280.54 76.06 1280.95 75.388C1281.37 74.716 1281.93 74.188 1282.63 73.804C1283.35 73.412 1284.14 73.216 1285.02 73.216C1285.99 73.216 1286.8 73.424 1287.45 73.84C1288.1 74.248 1288.59 74.808 1288.91 75.52C1289.24 76.224 1289.4 77.02 1289.4 77.908V86.5H1286.52Z" fill="white"/>
<path d="M1141.51 126.77C1140.22 126.77 1139.13 126.485 1138.24 125.915C1137.35 125.339 1136.68 124.544 1136.22 123.53C1135.77 122.516 1135.54 121.346 1135.54 120.02C1135.54 118.694 1135.77 117.524 1136.22 116.51C1136.68 115.496 1137.35 114.704 1138.24 114.134C1139.13 113.558 1140.22 113.27 1141.51 113.27C1143.01 113.27 1144.24 113.657 1145.2 114.431C1146.15 115.199 1146.81 116.231 1147.16 117.527L1145.81 117.878C1145.53 116.852 1145.04 116.039 1144.32 115.439C1143.61 114.839 1142.67 114.539 1141.51 114.539C1140.49 114.539 1139.65 114.77 1138.98 115.232C1138.31 115.694 1137.8 116.339 1137.46 117.167C1137.12 117.989 1136.95 118.94 1136.94 120.02C1136.93 121.1 1137.09 122.051 1137.43 122.873C1137.77 123.695 1138.28 124.34 1138.96 124.808C1139.64 125.27 1140.49 125.501 1141.51 125.501C1142.67 125.501 1143.61 125.201 1144.32 124.601C1145.04 123.995 1145.53 123.182 1145.81 122.162L1147.16 122.513C1146.81 123.809 1146.15 124.844 1145.2 125.618C1144.24 126.386 1143.01 126.77 1141.51 126.77ZM1153.2 126.77C1152.24 126.77 1151.41 126.551 1150.73 126.113C1150.04 125.675 1149.52 125.069 1149.15 124.295C1148.79 123.521 1148.6 122.633 1148.6 121.631C1148.6 120.611 1148.79 119.717 1149.16 118.949C1149.53 118.181 1150.06 117.584 1150.75 117.158C1151.44 116.726 1152.26 116.51 1153.2 116.51C1154.18 116.51 1155 116.729 1155.69 117.167C1156.38 117.599 1156.9 118.202 1157.26 118.976C1157.63 119.744 1157.81 120.629 1157.81 121.631C1157.81 122.651 1157.63 123.548 1157.26 124.322C1156.9 125.09 1156.37 125.69 1155.68 126.122C1154.99 126.554 1154.16 126.77 1153.2 126.77ZM1153.2 125.501C1154.28 125.501 1155.09 125.144 1155.62 124.43C1156.14 123.71 1156.41 122.777 1156.41 121.631C1156.41 120.455 1156.14 119.519 1155.61 118.823C1155.08 118.127 1154.28 117.779 1153.2 117.779C1152.48 117.779 1151.88 117.944 1151.4 118.274C1150.94 118.598 1150.58 119.051 1150.35 119.633C1150.12 120.209 1150.01 120.875 1150.01 121.631C1150.01 122.801 1150.28 123.74 1150.82 124.448C1151.36 125.15 1152.15 125.501 1153.2 125.501ZM1171.39 126.5L1171.4 120.119C1171.4 119.369 1171.19 118.781 1170.77 118.355C1170.35 117.923 1169.83 117.707 1169.18 117.707C1168.82 117.707 1168.46 117.791 1168.11 117.959C1167.77 118.127 1167.48 118.397 1167.25 118.769C1167.03 119.141 1166.92 119.627 1166.92 120.227L1166.13 120.002C1166.12 119.306 1166.25 118.697 1166.54 118.175C1166.83 117.653 1167.23 117.248 1167.74 116.96C1168.26 116.666 1168.84 116.519 1169.49 116.519C1170.47 116.519 1171.25 116.822 1171.84 117.428C1172.43 118.028 1172.72 118.841 1172.72 119.867L1172.71 126.5H1171.39ZM1159.79 126.5V116.78H1160.98V119.174H1161.12V126.5H1159.79ZM1165.6 126.5L1165.61 120.209C1165.61 119.435 1165.4 118.826 1164.99 118.382C1164.58 117.932 1164.04 117.707 1163.37 117.707C1162.7 117.707 1162.16 117.938 1161.74 118.4C1161.33 118.856 1161.12 119.465 1161.12 120.227L1160.33 119.795C1160.33 119.171 1160.48 118.613 1160.77 118.121C1161.06 117.623 1161.47 117.233 1161.98 116.951C1162.49 116.663 1163.06 116.519 1163.71 116.519C1164.33 116.519 1164.88 116.651 1165.36 116.915C1165.85 117.179 1166.23 117.563 1166.5 118.067C1166.78 118.571 1166.92 119.183 1166.92 119.903L1166.91 126.5H1165.6ZM1179.42 126.77C1178.53 126.77 1177.77 126.545 1177.15 126.095C1176.53 125.639 1176.07 125.024 1175.75 124.25C1175.43 123.47 1175.27 122.597 1175.27 121.631C1175.27 120.647 1175.43 119.771 1175.75 119.003C1176.07 118.229 1176.55 117.62 1177.17 117.176C1177.79 116.732 1178.56 116.51 1179.47 116.51C1180.36 116.51 1181.12 116.735 1181.76 117.185C1182.4 117.635 1182.88 118.247 1183.22 119.021C1183.56 119.795 1183.73 120.665 1183.73 121.631C1183.73 122.603 1183.56 123.476 1183.22 124.25C1182.88 125.024 1182.38 125.639 1181.74 126.095C1181.1 126.545 1180.33 126.77 1179.42 126.77ZM1175.05 130.82V116.78H1176.23V124.097H1176.38V130.82H1175.05ZM1179.28 125.537C1179.96 125.537 1180.53 125.366 1180.98 125.024C1181.43 124.682 1181.76 124.217 1181.98 123.629C1182.21 123.035 1182.33 122.369 1182.33 121.631C1182.33 120.899 1182.22 120.239 1181.99 119.651C1181.77 119.063 1181.43 118.598 1180.98 118.256C1180.53 117.914 1179.95 117.743 1179.26 117.743C1178.58 117.743 1178.02 117.908 1177.57 118.238C1177.12 118.568 1176.79 119.027 1176.57 119.615C1176.34 120.197 1176.23 120.869 1176.23 121.631C1176.23 122.381 1176.34 123.053 1176.57 123.647C1176.79 124.235 1177.12 124.697 1177.57 125.033C1178.02 125.369 1178.59 125.537 1179.28 125.537ZM1189.77 126.77C1188.8 126.77 1187.98 126.551 1187.29 126.113C1186.61 125.675 1186.08 125.069 1185.72 124.295C1185.35 123.521 1185.17 122.633 1185.17 121.631C1185.17 120.611 1185.35 119.717 1185.73 118.949C1186.1 118.181 1186.63 117.584 1187.31 117.158C1188 116.726 1188.82 116.51 1189.77 116.51C1190.74 116.51 1191.57 116.729 1192.25 117.167C1192.94 117.599 1193.47 118.202 1193.83 118.976C1194.19 119.744 1194.37 120.629 1194.37 121.631C1194.37 122.651 1194.19 123.548 1193.83 124.322C1193.46 125.09 1192.93 125.69 1192.24 126.122C1191.55 126.554 1190.73 126.77 1189.77 126.77ZM1189.77 125.501C1190.85 125.501 1191.65 125.144 1192.18 124.43C1192.71 123.71 1192.97 122.777 1192.97 121.631C1192.97 120.455 1192.7 119.519 1192.17 118.823C1191.64 118.127 1190.84 117.779 1189.77 117.779C1189.04 117.779 1188.44 117.944 1187.97 118.274C1187.5 118.598 1187.15 119.051 1186.91 119.633C1186.69 120.209 1186.57 120.875 1186.57 121.631C1186.57 122.801 1186.84 123.74 1187.38 124.448C1187.92 125.15 1188.72 125.501 1189.77 125.501ZM1203.38 126.5V121.541C1203.38 121.001 1203.33 120.506 1203.23 120.056C1203.12 119.6 1202.96 119.204 1202.73 118.868C1202.51 118.526 1202.22 118.262 1201.86 118.076C1201.5 117.89 1201.07 117.797 1200.56 117.797C1200.09 117.797 1199.68 117.878 1199.32 118.04C1198.97 118.202 1198.67 118.436 1198.42 118.742C1198.18 119.042 1198 119.408 1197.87 119.84C1197.75 120.272 1197.68 120.764 1197.68 121.316L1196.75 121.109C1196.75 120.113 1196.92 119.276 1197.27 118.598C1197.62 117.92 1198.1 117.407 1198.71 117.059C1199.32 116.711 1200.02 116.537 1200.81 116.537C1201.4 116.537 1201.9 116.627 1202.34 116.807C1202.77 116.987 1203.14 117.23 1203.44 117.536C1203.75 117.842 1203.99 118.193 1204.18 118.589C1204.37 118.979 1204.5 119.396 1204.59 119.84C1204.67 120.278 1204.71 120.716 1204.71 121.154V126.5H1203.38ZM1196.35 126.5V116.78H1197.55V119.174H1197.68V126.5H1196.35ZM1211.11 126.77C1210.16 126.77 1209.34 126.56 1208.64 126.14C1207.95 125.72 1207.41 125.129 1207.03 124.367C1206.65 123.605 1206.45 122.711 1206.45 121.685C1206.45 120.623 1206.64 119.705 1207.02 118.931C1207.4 118.157 1207.93 117.56 1208.61 117.14C1209.3 116.72 1210.12 116.51 1211.05 116.51C1212.01 116.51 1212.83 116.732 1213.51 117.176C1214.19 117.614 1214.7 118.244 1215.05 119.066C1215.4 119.888 1215.56 120.869 1215.53 122.009H1214.18V121.541C1214.15 120.281 1213.88 119.33 1213.36 118.688C1212.84 118.046 1212.09 117.725 1211.09 117.725C1210.05 117.725 1209.24 118.064 1208.69 118.742C1208.13 119.42 1207.86 120.386 1207.86 121.64C1207.86 122.864 1208.13 123.815 1208.69 124.493C1209.24 125.165 1210.03 125.501 1211.05 125.501C1211.75 125.501 1212.36 125.342 1212.87 125.024C1213.39 124.7 1213.8 124.235 1214.1 123.629L1215.34 124.106C1214.95 124.952 1214.39 125.609 1213.64 126.077C1212.89 126.539 1212.05 126.77 1211.11 126.77ZM1207.39 122.009V120.902H1214.82V122.009H1207.39ZM1224.28 126.5V121.541C1224.28 121.001 1224.23 120.506 1224.13 120.056C1224.03 119.6 1223.86 119.204 1223.63 118.868C1223.41 118.526 1223.12 118.262 1222.76 118.076C1222.41 117.89 1221.97 117.797 1221.46 117.797C1221 117.797 1220.58 117.878 1220.22 118.04C1219.87 118.202 1219.57 118.436 1219.32 118.742C1219.08 119.042 1218.9 119.408 1218.77 119.84C1218.65 120.272 1218.58 120.764 1218.58 121.316L1217.65 121.109C1217.65 120.113 1217.82 119.276 1218.17 118.598C1218.52 117.92 1219 117.407 1219.61 117.059C1220.22 116.711 1220.92 116.537 1221.72 116.537C1222.3 116.537 1222.8 116.627 1223.24 116.807C1223.67 116.987 1224.04 117.23 1224.34 117.536C1224.65 117.842 1224.9 118.193 1225.08 118.589C1225.27 118.979 1225.4 119.396 1225.49 119.84C1225.57 120.278 1225.61 120.716 1225.61 121.154V126.5H1224.28ZM1217.25 126.5V116.78H1218.45V119.174H1218.58V126.5H1217.25ZM1233.24 126.5C1232.69 126.614 1232.15 126.659 1231.62 126.635C1231.09 126.611 1230.62 126.497 1230.2 126.293C1229.78 126.089 1229.47 125.771 1229.25 125.339C1229.08 124.979 1228.98 124.616 1228.96 124.25C1228.95 123.878 1228.95 123.455 1228.95 122.981V114.08H1230.26V122.927C1230.26 123.335 1230.26 123.677 1230.27 123.953C1230.28 124.223 1230.34 124.463 1230.46 124.673C1230.67 125.075 1231.02 125.315 1231.48 125.393C1231.96 125.471 1232.54 125.453 1233.24 125.339V126.5ZM1226.87 117.914V116.78H1233.24V117.914H1226.87ZM1238.78 126.761C1237.64 126.761 1236.7 126.515 1235.96 126.023C1235.23 125.531 1234.78 124.847 1234.61 123.971L1235.96 123.746C1236.11 124.298 1236.44 124.739 1236.95 125.069C1237.46 125.393 1238.1 125.555 1238.85 125.555C1239.59 125.555 1240.17 125.402 1240.6 125.096C1241.03 124.784 1241.24 124.361 1241.24 123.827C1241.24 123.527 1241.17 123.284 1241.03 123.098C1240.9 122.906 1240.63 122.729 1240.21 122.567C1239.8 122.405 1239.18 122.213 1238.36 121.991C1237.48 121.751 1236.79 121.511 1236.29 121.271C1235.79 121.031 1235.44 120.755 1235.23 120.443C1235.02 120.125 1234.91 119.738 1234.91 119.282C1234.91 118.73 1235.07 118.247 1235.38 117.833C1235.69 117.413 1236.12 117.089 1236.68 116.861C1237.23 116.627 1237.87 116.51 1238.6 116.51C1239.33 116.51 1239.99 116.63 1240.56 116.87C1241.15 117.104 1241.61 117.434 1241.97 117.86C1242.32 118.286 1242.53 118.781 1242.6 119.345L1241.25 119.588C1241.16 119.018 1240.87 118.568 1240.39 118.238C1239.92 117.902 1239.32 117.728 1238.58 117.716C1237.89 117.698 1237.33 117.83 1236.9 118.112C1236.47 118.388 1236.25 118.757 1236.25 119.219C1236.25 119.477 1236.33 119.699 1236.49 119.885C1236.64 120.065 1236.92 120.236 1237.33 120.398C1237.75 120.56 1238.33 120.737 1239.1 120.929C1239.99 121.157 1240.69 121.397 1241.2 121.649C1241.71 121.901 1242.08 122.198 1242.29 122.54C1242.51 122.882 1242.62 123.305 1242.62 123.809C1242.62 124.727 1242.27 125.45 1241.59 125.978C1240.91 126.5 1239.98 126.761 1238.78 126.761Z" fill="#D9D9D9"/>
<line x1="1" y1="0.5" x2="1440" y2="0.500126" stroke="#333333"/>
<line y1="194.5" x2="1453" y2="194.5" stroke="#333333"/>
<defs>
<clipPath id="clip0_2192_71133">
<rect width="94" height="82" fill="white" transform="translate(527 60)"/>
</clipPath>
<clipPath id="clip1_2192_71133">
<rect width="94" height="76" fill="white" transform="translate(1138.1 113.637) rotate(135)"/>
</clipPath>
</defs>
</svg>
