<svg width="934" height="68" viewBox="0 0 934 68" fill="none" xmlns="http://www.w3.org/2000/svg">
<circle cx="20" cy="35.6719" r="20" fill="#EBBE52"/>
<rect x="80" y="29.8203" width="40" height="40" transform="rotate(-33.0566 80 29.8203)" fill="#5C2860"/>
<path d="M196.004 16.1094L201.204 30.9094L216.004 36.1094H196.004V16.1094Z" fill="#EF8435"/>
<path d="M196.004 16.1094L190.804 30.9094L176.004 36.1094H196.004V16.1094Z" fill="#EF8435"/>
<path d="M196.004 56.1094L190.804 41.3094L176.004 36.1094H196.004V56.1094Z" fill="#EF8435"/>
<path d="M196.004 56.1094L201.204 41.3094L216.004 36.1094H196.004V56.1094Z" fill="#EF8435"/>
<circle cx="737" cy="35.6719" r="20" fill="#EBBE52"/>
<rect x="797" y="29.8203" width="40" height="40" transform="rotate(-33.0566 797 29.8203)" fill="#5C2860"/>
<path d="M913.004 16.1094L918.204 30.9094L933.004 36.1094H913.004V16.1094Z" fill="#EF8435"/>
<path d="M913.004 16.1094L907.804 30.9094L893.004 36.1094H913.004V16.1094Z" fill="#EF8435"/>
<path d="M913.004 56.1094L907.804 41.3094L893.004 36.1094H913.004V56.1094Z" fill="#EF8435"/>
<path d="M913.004 56.1094L918.204 41.3094L933.004 36.1094H913.004V56.1094Z" fill="#EF8435"/>
</svg>
