<svg width="90" height="72" viewBox="0 0 90 72" fill="none" xmlns="http://www.w3.org/2000/svg">
<g clip-path="url(#clip0_2815_320707)">
<path d="M18.6062 9.6C18.6062 13.0669 19.2891 16.4999 20.6158 19.7028C21.9426 22.9058 23.8872 25.8162 26.3386 28.2676C28.7901 30.7191 31.7004 32.6637 34.9034 33.9904C38.1064 35.3171 41.5394 36 45.0063 36C48.4731 36 51.9061 35.3171 55.1091 33.9904C58.3121 32.6637 61.2224 30.7191 63.6739 28.2676C66.1253 25.8162 68.0699 22.9058 69.3967 19.7028C70.7234 16.4998 71.4062 13.0669 71.4062 9.6L58.6872 9.6C58.6872 11.3966 58.3334 13.1756 57.6458 14.8355C56.9583 16.4953 55.9506 18.0035 54.6802 19.2739C53.4098 20.5443 51.9016 21.5521 50.2417 22.2396C48.5819 22.9271 46.8029 23.281 45.0062 23.281C43.2096 23.281 41.4306 22.9271 39.7708 22.2396C38.1109 21.5521 36.6027 20.5443 35.3323 19.2739C34.0619 18.0035 33.0542 16.4953 32.3667 14.8355C31.6791 13.1756 31.3253 11.3966 31.3253 9.6L18.6062 9.6Z" fill="#4AA35C"/>
<path d="M71.4094 62.4C71.4094 58.9331 70.7265 55.5001 69.3998 52.2972C68.0731 49.0942 66.1285 46.1838 63.677 43.7324C61.2255 41.2809 58.3152 39.3363 55.1122 38.0096C51.9092 36.6829 48.4763 36 45.0094 36C41.5425 36 38.1095 36.6829 34.9065 38.0096C31.7035 39.3363 28.7932 41.2809 26.3418 43.7324C23.8903 46.1838 21.9457 49.0942 20.619 52.2972C19.2922 55.5002 18.6094 58.9331 18.6094 62.4L31.3284 62.4C31.3284 60.6034 31.6823 58.8244 32.3698 57.1645C33.0573 55.5047 34.0651 53.9965 35.3355 52.7261C36.6058 51.4557 38.114 50.4479 39.7739 49.7604C41.4337 49.0729 43.2128 48.719 45.0094 48.719C46.806 48.719 48.585 49.0729 50.2449 49.7604C51.9047 50.4479 53.4129 51.4557 54.6833 52.7261C55.9537 53.9965 56.9614 55.5047 57.649 57.1645C58.3365 58.8244 58.6904 60.6034 58.6904 62.4L71.4094 62.4Z" fill="#EBBE52"/>
</g>
<defs>
<clipPath id="clip0_2815_320707">
<rect width="89.6" height="72" fill="white" transform="translate(0.203125)"/>
</clipPath>
</defs>
</svg>
