<svg width="253" height="387" viewBox="0 0 253 387" fill="none" xmlns="http://www.w3.org/2000/svg">
<path d="M140.54 39V23.16H146.656C147.543 23.16 148.317 23.3433 148.977 23.71C149.637 24.0767 150.15 24.5717 150.517 25.195C150.884 25.811 151.067 26.493 151.067 27.241C151.067 28.0917 150.84 28.8507 150.385 29.518C149.93 30.178 149.322 30.6363 148.559 30.893L148.537 30.354C149.564 30.6473 150.37 31.1607 150.957 31.894C151.544 32.6273 151.837 33.5147 151.837 34.556C151.837 35.4727 151.643 36.2647 151.254 36.932C150.865 37.592 150.319 38.1017 149.615 38.461C148.911 38.8203 148.093 39 147.162 39H140.54ZM142.168 37.449H146.766C147.411 37.449 147.991 37.3353 148.504 37.108C149.017 36.8733 149.421 36.5433 149.714 36.118C150.015 35.6927 150.165 35.1793 150.165 34.578C150.165 33.9913 150.029 33.4633 149.758 32.994C149.487 32.5247 149.116 32.1507 148.647 31.872C148.185 31.586 147.657 31.443 147.063 31.443H142.168V37.449ZM142.168 29.914H146.645C147.151 29.914 147.613 29.8003 148.031 29.573C148.449 29.3383 148.779 29.0193 149.021 28.616C149.27 28.2127 149.395 27.747 149.395 27.219C149.395 26.471 149.135 25.8623 148.614 25.393C148.101 24.9237 147.444 24.689 146.645 24.689H142.168V29.914ZM155.726 44.28L158.025 38.043L158.058 39.891L152.855 27.12H154.571L158.839 37.801H158.135L162.073 27.12H163.723L157.343 44.28H155.726ZM176.506 39C175.839 39.1393 175.179 39.1943 174.526 39.165C173.881 39.1357 173.301 38.9963 172.788 38.747C172.282 38.4977 171.897 38.109 171.633 37.581C171.42 37.141 171.303 36.6973 171.281 36.25C171.266 35.7953 171.259 35.2783 171.259 34.699V23.82H172.865V34.633C172.865 35.1317 172.869 35.5497 172.876 35.887C172.891 36.217 172.968 36.5103 173.107 36.767C173.371 37.2583 173.789 37.5517 174.361 37.647C174.94 37.7423 175.655 37.7203 176.506 37.581V39ZM168.718 28.506V27.12H176.506V28.506H168.718ZM180.218 44.28L182.517 38.043L182.55 39.891L177.347 27.12H179.063L183.331 37.801H182.627L186.565 27.12H188.215L181.835 44.28H180.218ZM195.461 39.33C194.368 39.33 193.444 39.055 192.689 38.505C191.934 37.9477 191.362 37.196 190.973 36.25C190.584 35.2967 190.39 34.2297 190.39 33.049C190.39 31.8463 190.584 30.7757 190.973 29.837C191.369 28.891 191.948 28.1467 192.711 27.604C193.474 27.0613 194.412 26.79 195.527 26.79C196.612 26.79 197.544 27.065 198.321 27.615C199.098 28.165 199.692 28.913 200.103 29.859C200.521 30.805 200.73 31.8683 200.73 33.049C200.73 34.237 200.521 35.304 200.103 36.25C199.685 37.196 199.084 37.9477 198.299 38.505C197.514 39.055 196.568 39.33 195.461 39.33ZM190.115 44.28V27.12H191.567V36.063H191.743V44.28H190.115ZM195.296 37.823C196.125 37.823 196.814 37.614 197.364 37.196C197.914 36.778 198.325 36.2097 198.596 35.491C198.875 34.765 199.014 33.951 199.014 33.049C199.014 32.1543 198.878 31.3477 198.607 30.629C198.336 29.9103 197.921 29.342 197.364 28.924C196.814 28.506 196.114 28.297 195.263 28.297C194.434 28.297 193.745 28.4987 193.195 28.902C192.652 29.3053 192.245 29.8663 191.974 30.585C191.703 31.2963 191.567 32.1177 191.567 33.049C191.567 33.9657 191.703 34.787 191.974 35.513C192.245 36.2317 192.656 36.7963 193.206 37.207C193.756 37.6177 194.453 37.823 195.296 37.823ZM208.172 39.33C207.014 39.33 206.009 39.0733 205.158 38.56C204.315 38.0467 203.659 37.3243 203.189 36.393C202.72 35.4617 202.485 34.369 202.485 33.115C202.485 31.817 202.716 30.695 203.178 29.749C203.64 28.803 204.289 28.0733 205.125 27.56C205.969 27.0467 206.962 26.79 208.106 26.79C209.28 26.79 210.281 27.0613 211.109 27.604C211.938 28.1393 212.565 28.9093 212.99 29.914C213.416 30.9187 213.61 32.1177 213.573 33.511H211.923V32.939C211.894 31.399 211.56 30.2367 210.922 29.452C210.292 28.6673 209.368 28.275 208.15 28.275C206.874 28.275 205.895 28.6893 205.213 29.518C204.539 30.3467 204.201 31.5273 204.201 33.06C204.201 34.556 204.539 35.7183 205.213 36.547C205.895 37.3683 206.86 37.779 208.106 37.779C208.957 37.779 209.698 37.5847 210.328 37.196C210.966 36.8 211.469 36.2317 211.835 35.491L213.342 36.074C212.873 37.108 212.18 37.911 211.263 38.483C210.354 39.0477 209.324 39.33 208.172 39.33ZM203.629 33.511V32.158H212.704V33.511H203.629Z" fill="white"/>
<path d="M140.54 178V162.16H146.656C147.543 162.16 148.317 162.343 148.977 162.71C149.637 163.077 150.15 163.572 150.517 164.195C150.884 164.811 151.067 165.493 151.067 166.241C151.067 167.092 150.84 167.851 150.385 168.518C149.93 169.178 149.322 169.636 148.559 169.893L148.537 169.354C149.564 169.647 150.37 170.161 150.957 170.894C151.544 171.627 151.837 172.515 151.837 173.556C151.837 174.473 151.643 175.265 151.254 175.932C150.865 176.592 150.319 177.102 149.615 177.461C148.911 177.82 148.093 178 147.162 178H140.54ZM142.168 176.449H146.766C147.411 176.449 147.991 176.335 148.504 176.108C149.017 175.873 149.421 175.543 149.714 175.118C150.015 174.693 150.165 174.179 150.165 173.578C150.165 172.991 150.029 172.463 149.758 171.994C149.487 171.525 149.116 171.151 148.647 170.872C148.185 170.586 147.657 170.443 147.063 170.443H142.168V176.449ZM142.168 168.914H146.645C147.151 168.914 147.613 168.8 148.031 168.573C148.449 168.338 148.779 168.019 149.021 167.616C149.27 167.213 149.395 166.747 149.395 166.219C149.395 165.471 149.135 164.862 148.614 164.393C148.101 163.924 147.444 163.689 146.645 163.689H142.168V168.914ZM155.726 183.28L158.025 177.043L158.058 178.891L152.855 166.12H154.571L158.839 176.801H158.135L162.073 166.12H163.723L157.343 183.28H155.726ZM170.038 178V166.12H171.49V168.98L171.204 168.606C171.336 168.254 171.508 167.931 171.721 167.638C171.934 167.337 172.165 167.092 172.414 166.901C172.722 166.63 173.081 166.424 173.492 166.285C173.903 166.138 174.317 166.054 174.735 166.032C175.153 166.003 175.534 166.032 175.879 166.12V167.638C175.446 167.528 174.973 167.502 174.46 167.561C173.947 167.62 173.474 167.825 173.041 168.177C172.645 168.485 172.348 168.855 172.15 169.288C171.952 169.713 171.82 170.168 171.754 170.652C171.688 171.129 171.655 171.602 171.655 172.071V178H170.038ZM182.712 178.33C181.531 178.33 180.523 178.062 179.687 177.527C178.851 176.992 178.209 176.251 177.762 175.305C177.315 174.359 177.091 173.274 177.091 172.049C177.091 170.802 177.318 169.71 177.773 168.771C178.228 167.832 178.873 167.103 179.709 166.582C180.552 166.054 181.553 165.79 182.712 165.79C183.9 165.79 184.912 166.058 185.748 166.593C186.591 167.121 187.233 167.858 187.673 168.804C188.12 169.743 188.344 170.824 188.344 172.049C188.344 173.296 188.12 174.392 187.673 175.338C187.226 176.277 186.58 177.01 185.737 177.538C184.894 178.066 183.885 178.33 182.712 178.33ZM182.712 176.779C184.032 176.779 185.015 176.343 185.66 175.47C186.305 174.59 186.628 173.45 186.628 172.049C186.628 170.612 186.302 169.468 185.649 168.617C185.004 167.766 184.025 167.341 182.712 167.341C181.825 167.341 181.091 167.543 180.512 167.946C179.94 168.342 179.511 168.896 179.225 169.607C178.946 170.311 178.807 171.125 178.807 172.049C178.807 173.479 179.137 174.627 179.797 175.492C180.457 176.35 181.429 176.779 182.712 176.779ZM190.99 178V161.83H192.607V178H190.99ZM200.932 178.33C199.774 178.33 198.769 178.073 197.918 177.56C197.075 177.047 196.419 176.324 195.949 175.393C195.48 174.462 195.245 173.369 195.245 172.115C195.245 170.817 195.476 169.695 195.938 168.749C196.4 167.803 197.049 167.073 197.885 166.56C198.729 166.047 199.722 165.79 200.866 165.79C202.04 165.79 203.041 166.061 203.869 166.604C204.698 167.139 205.325 167.909 205.75 168.914C206.176 169.919 206.37 171.118 206.333 172.511H204.683V171.939C204.654 170.399 204.32 169.237 203.682 168.452C203.052 167.667 202.128 167.275 200.91 167.275C199.634 167.275 198.655 167.689 197.973 168.518C197.299 169.347 196.961 170.527 196.961 172.06C196.961 173.556 197.299 174.718 197.973 175.547C198.655 176.368 199.62 176.779 200.866 176.779C201.717 176.779 202.458 176.585 203.088 176.196C203.726 175.8 204.229 175.232 204.595 174.491L206.102 175.074C205.633 176.108 204.94 176.911 204.023 177.483C203.114 178.048 202.084 178.33 200.932 178.33ZM196.389 172.511V171.158H205.464V172.511H196.389Z" fill="white"/>
<path d="M140.54 329V313.16H146.656C147.543 313.16 148.317 313.343 148.977 313.71C149.637 314.077 150.15 314.572 150.517 315.195C150.884 315.811 151.067 316.493 151.067 317.241C151.067 318.092 150.84 318.851 150.385 319.518C149.93 320.178 149.322 320.636 148.559 320.893L148.537 320.354C149.564 320.647 150.37 321.161 150.957 321.894C151.544 322.627 151.837 323.515 151.837 324.556C151.837 325.473 151.643 326.265 151.254 326.932C150.865 327.592 150.319 328.102 149.615 328.461C148.911 328.82 148.093 329 147.162 329H140.54ZM142.168 327.449H146.766C147.411 327.449 147.991 327.335 148.504 327.108C149.017 326.873 149.421 326.543 149.714 326.118C150.015 325.693 150.165 325.179 150.165 324.578C150.165 323.991 150.029 323.463 149.758 322.994C149.487 322.525 149.116 322.151 148.647 321.872C148.185 321.586 147.657 321.443 147.063 321.443H142.168V327.449ZM142.168 319.914H146.645C147.151 319.914 147.613 319.8 148.031 319.573C148.449 319.338 148.779 319.019 149.021 318.616C149.27 318.213 149.395 317.747 149.395 317.219C149.395 316.471 149.135 315.862 148.614 315.393C148.101 314.924 147.444 314.689 146.645 314.689H142.168V319.914ZM155.726 334.28L158.025 328.043L158.058 329.891L152.855 317.12H154.571L158.839 327.801H158.135L162.073 317.12H163.723L157.343 334.28H155.726ZM170.258 314.865V313.05H171.875V314.865H170.258ZM170.258 329V317.12H171.875V329H170.258ZM183.753 329V322.939C183.753 322.279 183.69 321.674 183.566 321.124C183.441 320.567 183.239 320.083 182.961 319.672C182.689 319.254 182.334 318.931 181.894 318.704C181.461 318.477 180.933 318.363 180.31 318.363C179.738 318.363 179.232 318.462 178.792 318.66C178.359 318.858 177.992 319.144 177.692 319.518C177.398 319.885 177.175 320.332 177.021 320.86C176.867 321.388 176.79 321.989 176.79 322.664L175.646 322.411C175.646 321.194 175.858 320.171 176.284 319.342C176.709 318.513 177.296 317.886 178.044 317.461C178.792 317.036 179.65 316.823 180.618 316.823C181.329 316.823 181.949 316.933 182.477 317.153C183.012 317.373 183.463 317.67 183.83 318.044C184.204 318.418 184.504 318.847 184.732 319.331C184.959 319.808 185.124 320.317 185.227 320.86C185.329 321.395 185.381 321.931 185.381 322.466V329H183.753ZM175.162 329V317.12H176.625V320.046H176.79V329H175.162ZM192.78 329.33C191.673 329.33 190.727 329.055 189.942 328.505C189.157 327.948 188.556 327.196 188.138 326.25C187.72 325.304 187.511 324.237 187.511 323.049C187.511 321.868 187.716 320.805 188.127 319.859C188.545 318.913 189.143 318.165 189.92 317.615C190.697 317.065 191.629 316.79 192.714 316.79C193.829 316.79 194.767 317.061 195.53 317.604C196.293 318.147 196.868 318.891 197.257 319.837C197.653 320.776 197.851 321.846 197.851 323.049C197.851 324.23 197.657 325.297 197.268 326.25C196.879 327.196 196.307 327.948 195.552 328.505C194.797 329.055 193.873 329.33 192.78 329.33ZM192.945 327.823C193.788 327.823 194.485 327.618 195.035 327.207C195.585 326.796 195.996 326.232 196.267 325.513C196.538 324.787 196.674 323.966 196.674 323.049C196.674 322.118 196.538 321.296 196.267 320.585C195.996 319.866 195.585 319.305 195.035 318.902C194.492 318.499 193.807 318.297 192.978 318.297C192.127 318.297 191.423 318.506 190.866 318.924C190.309 319.342 189.894 319.91 189.623 320.629C189.359 321.348 189.227 322.154 189.227 323.049C189.227 323.951 189.363 324.765 189.634 325.491C189.913 326.21 190.327 326.778 190.877 327.196C191.427 327.614 192.116 327.823 192.945 327.823ZM196.674 329V320.057H196.498V313.16H198.126V329H196.674ZM205.755 329.297C205.044 329.297 204.42 329.187 203.885 328.967C203.357 328.747 202.906 328.45 202.532 328.076C202.165 327.702 201.868 327.277 201.641 326.8C201.414 326.316 201.249 325.806 201.146 325.271C201.043 324.728 200.992 324.189 200.992 323.654V317.12H202.62V323.181C202.62 323.834 202.682 324.439 202.807 324.996C202.932 325.553 203.13 326.041 203.401 326.459C203.68 326.87 204.035 327.189 204.468 327.416C204.908 327.643 205.44 327.757 206.063 327.757C206.635 327.757 207.137 327.658 207.57 327.46C208.01 327.262 208.377 326.98 208.67 326.613C208.971 326.239 209.198 325.788 209.352 325.26C209.506 324.725 209.583 324.123 209.583 323.456L210.727 323.709C210.727 324.926 210.514 325.949 210.089 326.778C209.664 327.607 209.077 328.234 208.329 328.659C207.581 329.084 206.723 329.297 205.755 329.297ZM209.748 329V326.074H209.583V317.12H211.2V329H209.748ZM218.707 329.319C217.314 329.319 216.166 329.018 215.264 328.417C214.37 327.816 213.82 326.98 213.614 325.909L215.264 325.634C215.44 326.309 215.84 326.848 216.463 327.251C217.094 327.647 217.871 327.845 218.795 327.845C219.697 327.845 220.409 327.658 220.929 327.284C221.45 326.903 221.71 326.386 221.71 325.733C221.71 325.366 221.626 325.069 221.457 324.842C221.296 324.607 220.962 324.391 220.456 324.193C219.95 323.995 219.195 323.76 218.19 323.489C217.112 323.196 216.269 322.902 215.66 322.609C215.052 322.316 214.619 321.978 214.362 321.597C214.106 321.208 213.977 320.735 213.977 320.178C213.977 319.503 214.168 318.913 214.549 318.407C214.931 317.894 215.459 317.498 216.133 317.219C216.808 316.933 217.593 316.79 218.487 316.79C219.382 316.79 220.181 316.937 220.885 317.23C221.597 317.516 222.169 317.919 222.601 318.44C223.034 318.961 223.291 319.566 223.371 320.255L221.721 320.552C221.611 319.855 221.263 319.305 220.676 318.902C220.097 318.491 219.36 318.279 218.465 318.264C217.622 318.242 216.936 318.403 216.408 318.748C215.88 319.085 215.616 319.536 215.616 320.101C215.616 320.416 215.712 320.688 215.902 320.915C216.093 321.135 216.438 321.344 216.936 321.542C217.442 321.74 218.161 321.956 219.092 322.191C220.185 322.47 221.043 322.763 221.666 323.071C222.29 323.379 222.733 323.742 222.997 324.16C223.261 324.578 223.393 325.095 223.393 325.711C223.393 326.833 222.975 327.717 222.139 328.362C221.311 329 220.167 329.319 218.707 329.319ZM232.301 329C231.634 329.139 230.974 329.194 230.321 329.165C229.676 329.136 229.096 328.996 228.583 328.747C228.077 328.498 227.692 328.109 227.428 327.581C227.215 327.141 227.098 326.697 227.076 326.25C227.061 325.795 227.054 325.278 227.054 324.699V313.82H228.66V324.633C228.66 325.132 228.664 325.55 228.671 325.887C228.686 326.217 228.763 326.51 228.902 326.767C229.166 327.258 229.584 327.552 230.156 327.647C230.735 327.742 231.45 327.72 232.301 327.581V329ZM224.513 318.506V317.12H232.301V318.506H224.513ZM234.642 329V317.12H236.094V319.98L235.808 319.606C235.94 319.254 236.112 318.931 236.325 318.638C236.537 318.337 236.768 318.092 237.018 317.901C237.326 317.63 237.685 317.424 238.096 317.285C238.506 317.138 238.921 317.054 239.339 317.032C239.757 317.003 240.138 317.032 240.483 317.12V318.638C240.05 318.528 239.577 318.502 239.064 318.561C238.55 318.62 238.077 318.825 237.645 319.177C237.249 319.485 236.952 319.855 236.754 320.288C236.556 320.713 236.424 321.168 236.358 321.652C236.292 322.129 236.259 322.602 236.259 323.071V329H234.642ZM244.113 334.28L246.412 328.043L246.445 329.891L241.242 317.12H242.958L247.226 327.801H246.522L250.46 317.12H252.11L245.73 334.28H244.113Z" fill="white"/>
<path d="M12.2654 21.9596C12.2654 25.2762 9.62375 27.9504 6.3827 27.9504C3.14166 27.9504 0.5 25.2762 0.5 21.9596C0.5 18.643 3.14166 15.9688 6.3827 15.9688C9.62375 15.9688 12.2654 18.643 12.2654 21.9596Z" fill="white" stroke="white"/>
<rect width="61.6152" height="61.6152" rx="10" transform="matrix(0.701142 -0.713021 0.701142 0.713021 19.6406 43.9336)" fill="black"/>
<rect x="35.3516" y="8.45312" width="22.1381" height="10.9844" fill="#EBBE52"/>
<rect x="36.8694" y="7.42413" width="21.2585" height="10.1049" stroke="white" stroke-width="0.879508"/>
<rect x="35.3516" y="23.4609" width="48.918" height="27.461" fill="#EF8435"/>
<rect x="38.6507" y="22.4398" width="47.3243" height="25.1169" stroke="white" stroke-width="0.879508"/>
<rect x="62.1406" y="8.44922" width="22.1381" height="10.9844" fill="#EBBE52"/>
<rect x="64.346" y="7.42413" width="21.2585" height="10.1049" stroke="white" stroke-width="0.879508"/>
<path d="M12.2654 181.733C12.2654 185.05 9.62375 187.724 6.3827 187.724C3.14166 187.724 0.5 185.05 0.5 181.733C0.5 178.416 3.14166 175.742 6.3827 175.742C9.62375 175.742 12.2654 178.416 12.2654 181.733Z" fill="white" stroke="white"/>
<path d="M12.2654 341.51C12.2654 344.827 9.62375 347.501 6.3827 347.501C3.14166 347.501 0.5 344.827 0.5 341.51C0.5 338.194 3.14166 335.52 6.3827 335.52C9.62375 335.52 12.2654 338.194 12.2654 341.51Z" fill="white" stroke="white"/>
<line x1="6.19062" y1="17.2688" x2="6.19061" y2="347.202" stroke="white" stroke-width="0.6" stroke-linecap="round" stroke-linejoin="round" stroke-dasharray="16 16"/>
<rect width="61.6152" height="61.6152" rx="10" transform="matrix(0.701142 -0.713021 0.701142 0.713021 21.5938 189.719)" fill="black"/>
<ellipse cx="42.7967" cy="150.307" rx="6.46856" ry="6.51753" fill="#EF8435"/>
<path d="M51.1276 150.307C51.1276 153.678 48.4161 156.405 45.0779 156.405C41.7398 156.405 39.0283 153.678 39.0283 150.307C39.0283 146.935 41.7398 144.208 45.0779 144.208C48.4161 144.208 51.1276 146.935 51.1276 150.307Z" stroke="white" stroke-width="0.837838"/>
<ellipse cx="42.7967" cy="176.377" rx="6.46856" ry="6.51753" fill="#EF8435"/>
<path d="M74.0035 143.791C68.3522 143.791 62.9324 146.053 58.9363 150.08C54.9403 154.106 52.6953 159.567 52.6953 165.261C52.6953 170.955 54.9403 176.416 58.9363 180.442C62.9324 184.469 68.3522 186.73 74.0035 186.73L74.0035 165.261L74.0035 143.791Z" fill="#4AA35C"/>
<mask id="path-20-inside-1_2779_321196" fill="white">
<path d="M77.8041 145.707C72.6574 145.707 67.7215 147.767 64.0822 151.434C60.443 155.101 58.3984 160.074 58.3984 165.26C58.3984 170.446 60.443 175.419 64.0822 179.086C67.7215 182.753 72.6574 184.812 77.8041 184.812L77.8041 165.26L77.8041 145.707Z"/>
</mask>
<path d="M77.8041 145.707C72.6574 145.707 67.7215 147.767 64.0822 151.434C60.443 155.101 58.3984 160.074 58.3984 165.26C58.3984 170.446 60.443 175.419 64.0822 179.086C67.7215 182.753 72.6574 184.812 77.8041 184.812L77.8041 165.26L77.8041 145.707Z" stroke="white" stroke-width="1.67568" mask="url(#path-20-inside-1_2779_321196)"/>
<path d="M50.362 176.377C50.362 179.748 47.6505 182.476 44.3123 182.476C40.9742 182.476 38.2627 179.748 38.2627 176.377C38.2627 173.006 40.9742 170.278 44.3123 170.278C47.6505 170.278 50.362 173.006 50.362 176.377Z" stroke="white" stroke-width="0.837838"/>
<rect x="22" y="342.996" width="62.2183" height="62.2183" rx="10" transform="rotate(-45 22 342.996)" fill="black"/>
<path d="M89.7252 318.363C89.7252 325.354 86.9477 332.06 82.0038 337.004C77.0598 341.948 70.3544 344.725 63.3626 344.725C56.3708 344.725 49.6654 341.948 44.7214 337.004C39.7775 332.06 37 325.354 37 318.363L48.2115 318.363C48.2115 322.381 49.8078 326.235 52.6491 329.076C55.4905 331.917 59.3443 333.514 63.3626 333.514C67.3809 333.514 71.2347 331.917 74.0761 329.076C76.9175 326.235 78.5137 322.381 78.5137 318.363H89.7252Z" fill="#EBBE52"/>
<mask id="path-24-inside-2_2779_321196" fill="white">
<path d="M94.9987 318.363C94.9987 325.354 92.2212 332.06 87.2772 337.004C82.3333 341.948 75.6278 344.725 68.636 344.725C61.6443 344.725 54.9388 341.948 49.9949 337.004C45.0509 332.06 42.2734 325.354 42.2734 318.363L53.4849 318.363C53.4849 322.381 55.0812 326.235 57.9226 329.076C60.764 331.917 64.6177 333.514 68.636 333.514C72.6544 333.514 76.5081 331.917 79.3495 329.076C82.1909 326.235 83.7872 322.381 83.7872 318.363H94.9987Z"/>
</mask>
<path d="M94.9987 318.363C94.9987 325.354 92.2212 332.06 87.2772 337.004C82.3333 341.948 75.6278 344.725 68.636 344.725C61.6443 344.725 54.9388 341.948 49.9949 337.004C45.0509 332.06 42.2734 325.354 42.2734 318.363L53.4849 318.363C53.4849 322.381 55.0812 326.235 57.9226 329.076C60.764 331.917 64.6177 333.514 68.636 333.514C72.6544 333.514 76.5081 331.917 79.3495 329.076C82.1909 326.235 83.7872 322.381 83.7872 318.363H94.9987Z" stroke="white" stroke-width="1.61104" mask="url(#path-24-inside-2_2779_321196)"/>
<circle cx="52.0986" cy="307.579" r="6.95014" fill="#4AA35C"/>
<circle cx="53.5361" cy="307.579" r="6.54738" stroke="white" stroke-width="0.805522"/>
<circle cx="75.5908" cy="307.579" r="6.95014" fill="#4AA35C"/>
<circle cx="77.9892" cy="307.579" r="6.54738" stroke="white" stroke-width="0.805522"/>
</svg>
