<svg width="143" height="142" viewBox="0 0 143 142" fill="none" xmlns="http://www.w3.org/2000/svg">
<path d="M126.5 71C126.5 85.5869 120.705 99.5764 110.391 109.891C100.076 120.205 86.0869 126 71.5 126C56.9131 126 42.9236 120.205 32.6091 109.891C22.2946 99.5764 16.5 85.5869 16.5 71L39.8904 71C39.8904 79.3834 43.2207 87.4234 49.1486 93.3514C55.0766 99.2793 63.1166 102.61 71.5 102.61C79.8834 102.61 87.9234 99.2793 93.8514 93.3514C99.7793 87.4234 103.11 79.3834 103.11 71H126.5Z" fill="#EBBE52"/>
<mask id="path-2-inside-1_2113_59331" fill="white">
<path d="M137.5 71C137.5 85.5869 131.705 99.5764 121.391 109.891C111.076 120.205 97.0869 126 82.5 126C67.9131 126 53.9236 120.205 43.6091 109.891C33.2946 99.5764 27.5 85.5869 27.5 71L50.8904 71C50.8904 79.3834 54.2207 87.4234 60.1486 93.3514C66.0766 99.2793 74.1166 102.61 82.5 102.61C90.8834 102.61 98.9234 99.2793 104.851 93.3514C110.779 87.4234 114.11 79.3834 114.11 71H137.5Z"/>
</mask>
<path d="M137.5 71C137.5 85.5869 131.705 99.5764 121.391 109.891C111.076 120.205 97.0869 126 82.5 126C67.9131 126 53.9236 120.205 43.6091 109.891C33.2946 99.5764 27.5 85.5869 27.5 71L50.8904 71C50.8904 79.3834 54.2207 87.4234 60.1486 93.3514C66.0766 99.2793 74.1166 102.61 82.5 102.61C90.8834 102.61 98.9234 99.2793 104.851 93.3514C110.779 87.4234 114.11 79.3834 114.11 71H137.5Z" stroke="white" stroke-width="2" mask="url(#path-2-inside-1_2113_59331)"/>
<circle cx="48" cy="48.5" r="14.5" fill="#4AA35C"/>
<circle cx="51" cy="48.5" r="14" stroke="white"/>
<circle cx="97" cy="48.5" r="14.5" fill="#4AA35C"/>
<circle cx="102" cy="48.5" r="14" stroke="white"/>
</svg>
