<svg width="964" height="171" viewBox="0 0 964 171" fill="none" xmlns="http://www.w3.org/2000/svg">
<rect x="1.53906" y="1.5" width="311" height="103" rx="7.5" fill="#356EF0" stroke="#333333" stroke-width="3"/>
<path d="M24.8951 83.24C23.7484 83.24 22.7751 82.9867 21.9751 82.48C21.1751 81.9733 20.5644 81.2693 20.1431 80.368C19.7271 79.4667 19.5191 78.424 19.5191 77.24C19.5191 76.056 19.7271 75.0133 20.1431 74.112C20.5644 73.2107 21.1751 72.5067 21.9751 72C22.7751 71.4933 23.7484 71.24 24.8951 71.24C26.2284 71.24 27.3244 71.5787 28.1831 72.256C29.0471 72.9333 29.6417 73.8453 29.9671 74.992L28.5191 75.376C28.2844 74.5173 27.8657 73.84 27.2631 73.344C26.6604 72.848 25.8711 72.6 24.8951 72.6C24.0364 72.6 23.3217 72.7947 22.7511 73.184C22.1804 73.5733 21.7511 74.1173 21.4631 74.816C21.1751 75.5093 21.0284 76.3173 21.0231 77.24C21.0177 78.1573 21.1591 78.9653 21.4471 79.664C21.7351 80.3573 22.1671 80.9013 22.7431 81.296C23.3191 81.6853 24.0364 81.88 24.8951 81.88C25.8711 81.88 26.6604 81.632 27.2631 81.136C27.8657 80.6347 28.2844 79.9573 28.5191 79.104L29.9671 79.488C29.6417 80.6293 29.0471 81.5413 28.1831 82.224C27.3244 82.9013 26.2284 83.24 24.8951 83.24ZM35.6496 83.24C34.9189 83.24 34.2549 83.064 33.6576 82.712C33.0656 82.36 32.5936 81.88 32.2416 81.272C31.8949 80.6587 31.7216 79.968 31.7216 79.2V75.368C31.7216 74.5627 31.8949 73.8507 32.2416 73.232C32.5936 72.608 33.0736 72.1227 33.6816 71.776C34.2949 71.424 34.9936 71.248 35.7776 71.248C36.4122 71.248 37.0016 71.3787 37.5456 71.64C38.0949 71.896 38.5562 72.2667 38.9296 72.752L37.8656 73.696C37.6362 73.36 37.3376 73.0933 36.9696 72.896C36.6016 72.6987 36.2042 72.6 35.7776 72.6C35.2709 72.6 34.8202 72.7227 34.4256 72.968C34.0362 73.208 33.7296 73.528 33.5056 73.928C33.2816 74.3227 33.1696 74.7493 33.1696 75.208V77.52L32.8576 77.168C33.1936 76.688 33.6202 76.304 34.1376 76.016C34.6549 75.728 35.2149 75.584 35.8176 75.584C36.5322 75.584 37.1722 75.752 37.7376 76.088C38.3082 76.424 38.7562 76.88 39.0816 77.456C39.4122 78.0267 39.5776 78.6693 39.5776 79.384C39.5776 80.0987 39.3989 80.7467 39.0416 81.328C38.6842 81.9093 38.2069 82.3733 37.6096 82.72C37.0176 83.0667 36.3642 83.24 35.6496 83.24ZM35.6496 81.864C36.1082 81.864 36.5269 81.7547 36.9056 81.536C37.2842 81.312 37.5829 81.0133 37.8016 80.64C38.0256 80.2613 38.1376 79.8427 38.1376 79.384C38.1376 78.9253 38.0256 78.5067 37.8016 78.128C37.5829 77.7493 37.2842 77.4507 36.9056 77.232C36.5322 77.008 36.1162 76.896 35.6576 76.896C35.1989 76.896 34.7802 77.008 34.4016 77.232C34.0282 77.4507 33.7296 77.7493 33.5056 78.128C33.2816 78.5067 33.1696 78.9253 33.1696 79.384C33.1696 79.8373 33.2789 80.2533 33.4976 80.632C33.7216 81.0053 34.0202 81.304 34.3936 81.528C34.7722 81.752 35.1909 81.864 35.6496 81.864ZM46.3951 83.24C45.2484 83.24 44.2751 82.9867 43.4751 82.48C42.6751 81.9733 42.0644 81.2693 41.6431 80.368C41.2271 79.4667 41.0191 78.424 41.0191 77.24C41.0191 76.056 41.2271 75.0133 41.6431 74.112C42.0644 73.2107 42.6751 72.5067 43.4751 72C44.2751 71.4933 45.2484 71.24 46.3951 71.24C47.7284 71.24 48.8244 71.5787 49.6831 72.256C50.5471 72.9333 51.1417 73.8453 51.4671 74.992L50.0191 75.376C49.7844 74.5173 49.3657 73.84 48.7631 73.344C48.1604 72.848 47.3711 72.6 46.3951 72.6C45.5364 72.6 44.8217 72.7947 44.2511 73.184C43.6804 73.5733 43.2511 74.1173 42.9631 74.816C42.6751 75.5093 42.5284 76.3173 42.5231 77.24C42.5177 78.1573 42.6591 78.9653 42.9471 79.664C43.2351 80.3573 43.6671 80.9013 44.2431 81.296C44.8191 81.6853 45.5364 81.88 46.3951 81.88C47.3711 81.88 48.1604 81.632 48.7631 81.136C49.3657 80.6347 49.7844 79.9573 50.0191 79.104L51.4671 79.488C51.1417 80.6293 50.5471 81.5413 49.6831 82.224C48.8244 82.9013 47.7284 83.24 46.3951 83.24ZM57.1496 83.24C56.4189 83.24 55.7549 83.064 55.1576 82.712C54.5656 82.36 54.0936 81.88 53.7416 81.272C53.3949 80.6587 53.2216 79.968 53.2216 79.2V75.368C53.2216 74.5627 53.3949 73.8507 53.7416 73.232C54.0936 72.608 54.5736 72.1227 55.1816 71.776C55.7949 71.424 56.4936 71.248 57.2776 71.248C57.9122 71.248 58.5016 71.3787 59.0456 71.64C59.5949 71.896 60.0562 72.2667 60.4296 72.752L59.3656 73.696C59.1362 73.36 58.8376 73.0933 58.4696 72.896C58.1016 72.6987 57.7042 72.6 57.2776 72.6C56.7709 72.6 56.3202 72.7227 55.9256 72.968C55.5362 73.208 55.2296 73.528 55.0056 73.928C54.7816 74.3227 54.6696 74.7493 54.6696 75.208V77.52L54.3576 77.168C54.6936 76.688 55.1202 76.304 55.6376 76.016C56.1549 75.728 56.7149 75.584 57.3176 75.584C58.0322 75.584 58.6722 75.752 59.2376 76.088C59.8082 76.424 60.2562 76.88 60.5816 77.456C60.9122 78.0267 61.0776 78.6693 61.0776 79.384C61.0776 80.0987 60.8989 80.7467 60.5416 81.328C60.1842 81.9093 59.7069 82.3733 59.1096 82.72C58.5176 83.0667 57.8642 83.24 57.1496 83.24ZM57.1496 81.864C57.6082 81.864 58.0269 81.7547 58.4056 81.536C58.7842 81.312 59.0829 81.0133 59.3016 80.64C59.5256 80.2613 59.6376 79.8427 59.6376 79.384C59.6376 78.9253 59.5256 78.5067 59.3016 78.128C59.0829 77.7493 58.7842 77.4507 58.4056 77.232C58.0322 77.008 57.6162 76.896 57.1576 76.896C56.6989 76.896 56.2802 77.008 55.9016 77.232C55.5282 77.4507 55.2296 77.7493 55.0056 78.128C54.7816 78.5067 54.6696 78.9253 54.6696 79.384C54.6696 79.8373 54.7789 80.2533 54.9976 80.632C55.2216 81.0053 55.5202 81.304 55.8936 81.528C56.2722 81.752 56.6909 81.864 57.1496 81.864ZM67.8951 83.24C66.7484 83.24 65.7751 82.9867 64.9751 82.48C64.1751 81.9733 63.5644 81.2693 63.1431 80.368C62.7271 79.4667 62.5191 78.424 62.5191 77.24C62.5191 76.056 62.7271 75.0133 63.1431 74.112C63.5644 73.2107 64.1751 72.5067 64.9751 72C65.7751 71.4933 66.7484 71.24 67.8951 71.24C69.2284 71.24 70.3244 71.5787 71.1831 72.256C72.0471 72.9333 72.6417 73.8453 72.9671 74.992L71.5191 75.376C71.2844 74.5173 70.8657 73.84 70.2631 73.344C69.6604 72.848 68.8711 72.6 67.8951 72.6C67.0364 72.6 66.3217 72.7947 65.7511 73.184C65.1804 73.5733 64.7511 74.1173 64.4631 74.816C64.1751 75.5093 64.0284 76.3173 64.0231 77.24C64.0177 78.1573 64.1591 78.9653 64.4471 79.664C64.7351 80.3573 65.1671 80.9013 65.7431 81.296C66.3191 81.6853 67.0364 81.88 67.8951 81.88C68.8711 81.88 69.6604 81.632 70.2631 81.136C70.8657 80.6347 71.2844 79.9573 71.5191 79.104L72.9671 79.488C72.6417 80.6293 72.0471 81.5413 71.1831 82.224C70.3244 82.9013 69.2284 83.24 67.8951 83.24ZM78.6496 83.24C77.9189 83.24 77.2549 83.064 76.6576 82.712C76.0656 82.36 75.5936 81.88 75.2416 81.272C74.8949 80.6587 74.7216 79.968 74.7216 79.2V75.368C74.7216 74.5627 74.8949 73.8507 75.2416 73.232C75.5936 72.608 76.0736 72.1227 76.6816 71.776C77.2949 71.424 77.9936 71.248 78.7776 71.248C79.4122 71.248 80.0016 71.3787 80.5456 71.64C81.0949 71.896 81.5562 72.2667 81.9296 72.752L80.8656 73.696C80.6362 73.36 80.3376 73.0933 79.9696 72.896C79.6016 72.6987 79.2042 72.6 78.7776 72.6C78.2709 72.6 77.8202 72.7227 77.4256 72.968C77.0362 73.208 76.7296 73.528 76.5056 73.928C76.2816 74.3227 76.1696 74.7493 76.1696 75.208V77.52L75.8576 77.168C76.1936 76.688 76.6202 76.304 77.1376 76.016C77.6549 75.728 78.2149 75.584 78.8176 75.584C79.5322 75.584 80.1722 75.752 80.7376 76.088C81.3082 76.424 81.7562 76.88 82.0816 77.456C82.4122 78.0267 82.5776 78.6693 82.5776 79.384C82.5776 80.0987 82.3989 80.7467 82.0416 81.328C81.6842 81.9093 81.2069 82.3733 80.6096 82.72C80.0176 83.0667 79.3642 83.24 78.6496 83.24ZM78.6496 81.864C79.1082 81.864 79.5269 81.7547 79.9056 81.536C80.2842 81.312 80.5829 81.0133 80.8016 80.64C81.0256 80.2613 81.1376 79.8427 81.1376 79.384C81.1376 78.9253 81.0256 78.5067 80.8016 78.128C80.5829 77.7493 80.2842 77.4507 79.9056 77.232C79.5322 77.008 79.1162 76.896 78.6576 76.896C78.1989 76.896 77.7802 77.008 77.4016 77.232C77.0282 77.4507 76.7296 77.7493 76.5056 78.128C76.2816 78.5067 76.1696 78.9253 76.1696 79.384C76.1696 79.8373 76.2789 80.2533 76.4976 80.632C76.7216 81.0053 77.0202 81.304 77.3936 81.528C77.7722 81.752 78.1909 81.864 78.6496 81.864Z" fill="#D9D9D9"/>
<path d="M8.75906 163.167V160.659H10.3761V163.167H8.75906ZM8.75906 145.49V142.971H10.3761V145.49H8.75906ZM9.76006 161.33C8.7114 161.33 7.7654 161.143 6.92206 160.769C6.08606 160.395 5.39306 159.867 4.84306 159.185C4.3004 158.503 3.94473 157.696 3.77606 156.765L5.34906 156.49C5.59106 157.502 6.11173 158.305 6.91106 158.899C7.71773 159.486 8.6894 159.779 9.82606 159.779C10.9774 159.779 11.9087 159.5 12.6201 158.943C13.3314 158.378 13.6871 157.641 13.6871 156.732C13.6871 156.057 13.4891 155.518 13.0931 155.115C12.6971 154.712 12.0261 154.367 11.0801 154.081L7.56006 152.981C5.4334 152.314 4.37006 151.052 4.37006 149.197C4.37006 148.332 4.58273 147.573 5.00806 146.92C5.44073 146.26 6.0384 145.747 6.80106 145.38C7.57106 145.013 8.4694 144.834 9.49606 144.841C10.5007 144.841 11.3991 145.032 12.1911 145.413C12.9904 145.787 13.6467 146.319 14.1601 147.008C14.6734 147.697 15.0144 148.515 15.1831 149.461L13.5661 149.769C13.4634 149.094 13.2251 148.504 12.8511 147.998C12.4844 147.492 12.0114 147.1 11.4321 146.821C10.8527 146.535 10.2074 146.388 9.49606 146.381C8.8214 146.381 8.22006 146.498 7.69206 146.733C7.16406 146.968 6.74606 147.294 6.43806 147.712C6.1374 148.123 5.98706 148.596 5.98706 149.131C5.98706 149.718 6.19606 150.216 6.61406 150.627C7.0394 151.03 7.7104 151.371 8.62706 151.65L11.6521 152.563C12.9281 152.944 13.8484 153.458 14.4131 154.103C14.9777 154.748 15.2601 155.61 15.2601 156.688C15.2601 157.619 15.0327 158.433 14.5781 159.13C14.1234 159.827 13.4817 160.369 12.6531 160.758C11.8317 161.139 10.8674 161.33 9.76006 161.33ZM18.7111 161V148.24C18.7111 147.932 18.7258 147.628 18.7551 147.327C18.7918 147.026 18.8615 146.74 18.9641 146.469C19.0668 146.19 19.2281 145.934 19.4481 145.699C19.6901 145.435 19.9541 145.244 20.2401 145.127C20.5261 145.002 20.8231 144.922 21.1311 144.885C21.4465 144.848 21.7545 144.83 22.0551 144.83H23.5731V146.194H22.1651C21.5491 146.194 21.0871 146.344 20.7791 146.645C20.4785 146.946 20.3281 147.419 20.3281 148.064V161H18.7111ZM16.6541 150.506V149.12H23.5731V150.506H16.6541ZM30.668 161.33C29.5753 161.33 28.6513 161.055 27.896 160.505C27.1406 159.948 26.5686 159.196 26.18 158.25C25.7913 157.297 25.597 156.23 25.597 155.049C25.597 153.846 25.7913 152.776 26.18 151.837C26.576 150.891 27.1553 150.147 27.918 149.604C28.6806 149.061 29.6193 148.79 30.734 148.79C31.8193 148.79 32.7506 149.065 33.528 149.615C34.3053 150.165 34.8993 150.913 35.31 151.859C35.728 152.805 35.937 153.868 35.937 155.049C35.937 156.237 35.728 157.304 35.31 158.25C34.892 159.196 34.2906 159.948 33.506 160.505C32.7213 161.055 31.7753 161.33 30.668 161.33ZM25.322 166.28V149.12H26.774V158.063H26.95V166.28H25.322ZM30.503 159.823C31.3316 159.823 32.021 159.614 32.571 159.196C33.121 158.778 33.5316 158.21 33.803 157.491C34.0816 156.765 34.221 155.951 34.221 155.049C34.221 154.154 34.0853 153.348 33.814 152.629C33.5426 151.91 33.1283 151.342 32.571 150.924C32.021 150.506 31.3206 150.297 30.47 150.297C29.6413 150.297 28.952 150.499 28.402 150.902C27.8593 151.305 27.4523 151.866 27.181 152.585C26.9096 153.296 26.774 154.118 26.774 155.049C26.774 155.966 26.9096 156.787 27.181 157.513C27.4523 158.232 27.863 158.796 28.413 159.207C28.963 159.618 29.6596 159.823 30.503 159.823ZM52.5205 161L52.5315 153.201C52.5315 152.284 52.2748 151.566 51.7615 151.045C51.2555 150.517 50.6102 150.253 49.8255 150.253C49.3782 150.253 48.9418 150.356 48.5165 150.561C48.0912 150.766 47.7392 151.096 47.4605 151.551C47.1892 152.006 47.0535 152.6 47.0535 153.333L46.0965 153.058C46.0745 152.207 46.2395 151.463 46.5915 150.825C46.9508 150.187 47.4422 149.692 48.0655 149.34C48.6962 148.981 49.4075 148.801 50.1995 148.801C51.3948 148.801 52.3518 149.171 53.0705 149.912C53.7892 150.645 54.1485 151.639 54.1485 152.893L54.1375 161H52.5205ZM38.3415 161V149.12H39.7935V152.046H39.9695V161H38.3415ZM45.4475 161L45.4585 153.311C45.4585 152.365 45.2055 151.621 44.6995 151.078C44.2008 150.528 43.5408 150.253 42.7195 150.253C41.8982 150.253 41.2345 150.535 40.7285 151.1C40.2225 151.657 39.9695 152.402 39.9695 153.333L39.0015 152.805C39.0015 152.042 39.1812 151.36 39.5405 150.759C39.8998 150.15 40.3912 149.674 41.0145 149.329C41.6378 148.977 42.3455 148.801 43.1375 148.801C43.8928 148.801 44.5638 148.962 45.1505 149.285C45.7445 149.608 46.2102 150.077 46.5475 150.693C46.8848 151.309 47.0535 152.057 47.0535 152.937L47.0425 161H45.4475ZM57.3089 161V159.119H59.1899V161H57.3089ZM67.5149 161.33C66.3195 161.33 65.3075 161.062 64.4789 160.527C63.6502 159.992 63.0195 159.255 62.5869 158.316C62.1615 157.37 61.9415 156.285 61.9269 155.06C61.9415 153.813 62.1689 152.721 62.6089 151.782C63.0489 150.836 63.6832 150.103 64.5119 149.582C65.3405 149.054 66.3452 148.79 67.5259 148.79C68.7285 148.79 69.7735 149.083 70.6609 149.67C71.5555 150.257 72.1679 151.06 72.4979 152.079L70.9139 152.585C70.6352 151.874 70.1915 151.324 69.5829 150.935C68.9815 150.539 68.2922 150.341 67.5149 150.341C66.6422 150.341 65.9199 150.543 65.3479 150.946C64.7759 151.342 64.3505 151.896 64.0719 152.607C63.7932 153.318 63.6502 154.136 63.6429 155.06C63.6575 156.483 63.9875 157.627 64.6329 158.492C65.2782 159.35 66.2389 159.779 67.5149 159.779C68.3215 159.779 69.0072 159.596 69.5719 159.229C70.1439 158.855 70.5765 158.312 70.8699 157.601L72.4979 158.085C72.0579 159.141 71.4125 159.948 70.5619 160.505C69.7112 161.055 68.6955 161.33 67.5149 161.33ZM79.4073 161.33C78.2266 161.33 77.2183 161.062 76.3823 160.527C75.5463 159.992 74.9046 159.251 74.4573 158.305C74.0099 157.359 73.7863 156.274 73.7863 155.049C73.7863 153.802 74.0136 152.71 74.4683 151.771C74.9229 150.832 75.5683 150.103 76.4043 149.582C77.2476 149.054 78.2486 148.79 79.4073 148.79C80.5953 148.79 81.6073 149.058 82.4433 149.593C83.2866 150.121 83.9283 150.858 84.3683 151.804C84.8156 152.743 85.0393 153.824 85.0393 155.049C85.0393 156.296 84.8156 157.392 84.3683 158.338C83.9209 159.277 83.2756 160.01 82.4323 160.538C81.5889 161.066 80.5806 161.33 79.4073 161.33ZM79.4073 159.779C80.7273 159.779 81.7099 159.343 82.3553 158.47C83.0006 157.59 83.3233 156.45 83.3233 155.049C83.3233 153.612 82.9969 152.468 82.3443 151.617C81.6989 150.766 80.7199 150.341 79.4073 150.341C78.5199 150.341 77.7866 150.543 77.2073 150.946C76.6353 151.342 76.2063 151.896 75.9203 152.607C75.6416 153.311 75.5023 154.125 75.5023 155.049C75.5023 156.479 75.8323 157.627 76.4923 158.492C77.1523 159.35 78.1239 159.779 79.4073 159.779ZM87.6858 161V144.83H89.3028V161H87.6858ZM97.5615 161.33C96.3809 161.33 95.3725 161.062 94.5365 160.527C93.7005 159.992 93.0589 159.251 92.6115 158.305C92.1642 157.359 91.9405 156.274 91.9405 155.049C91.9405 153.802 92.1679 152.71 92.6225 151.771C93.0772 150.832 93.7225 150.103 94.5585 149.582C95.4019 149.054 96.4029 148.79 97.5615 148.79C98.7495 148.79 99.7615 149.058 100.598 149.593C101.441 150.121 102.083 150.858 102.523 151.804C102.97 152.743 103.194 153.824 103.194 155.049C103.194 156.296 102.97 157.392 102.523 158.338C102.075 159.277 101.43 160.01 100.587 160.538C99.7432 161.066 98.7349 161.33 97.5615 161.33ZM97.5615 159.779C98.8815 159.779 99.8642 159.343 100.51 158.47C101.155 157.59 101.478 156.45 101.478 155.049C101.478 153.612 101.151 152.468 100.499 151.617C99.8532 150.766 98.8742 150.341 97.5615 150.341C96.6742 150.341 95.9409 150.543 95.3615 150.946C94.7895 151.342 94.3605 151.896 94.0745 152.607C93.7959 153.311 93.6565 154.125 93.6565 155.049C93.6565 156.479 93.9865 157.627 94.6465 158.492C95.3065 159.35 96.2782 159.779 97.5615 159.779ZM105.62 161V149.12H107.072V151.98L106.786 151.606C106.918 151.254 107.09 150.931 107.303 150.638C107.516 150.337 107.747 150.092 107.996 149.901C108.304 149.63 108.663 149.424 109.074 149.285C109.485 149.138 109.899 149.054 110.317 149.032C110.735 149.003 111.116 149.032 111.461 149.12V150.638C111.028 150.528 110.555 150.502 110.042 150.561C109.529 150.62 109.056 150.825 108.623 151.177C108.227 151.485 107.93 151.855 107.732 152.288C107.534 152.713 107.402 153.168 107.336 153.652C107.27 154.129 107.237 154.602 107.237 155.071V161H105.62ZM112.094 161V159.119H113.975V161H112.094ZM122.3 161.33C121.105 161.33 120.093 161.062 119.264 160.527C118.435 159.992 117.805 159.255 117.372 158.316C116.947 157.37 116.727 156.285 116.712 155.06C116.727 153.813 116.954 152.721 117.394 151.782C117.834 150.836 118.468 150.103 119.297 149.582C120.126 149.054 121.13 148.79 122.311 148.79C123.514 148.79 124.559 149.083 125.446 149.67C126.341 150.257 126.953 151.06 127.283 152.079L125.699 152.585C125.42 151.874 124.977 151.324 124.368 150.935C123.767 150.539 123.077 150.341 122.3 150.341C121.427 150.341 120.705 150.543 120.133 150.946C119.561 151.342 119.136 151.896 118.857 152.607C118.578 153.318 118.435 154.136 118.428 155.06C118.443 156.483 118.773 157.627 119.418 158.492C120.063 159.35 121.024 159.779 122.3 159.779C123.107 159.779 123.792 159.596 124.357 159.229C124.929 158.855 125.362 158.312 125.655 157.601L127.283 158.085C126.843 159.141 126.198 159.948 125.347 160.505C124.496 161.055 123.481 161.33 122.3 161.33ZM136.022 161C135.354 161.139 134.694 161.194 134.042 161.165C133.396 161.136 132.817 160.996 132.304 160.747C131.798 160.498 131.413 160.109 131.149 159.581C130.936 159.141 130.819 158.697 130.797 158.25C130.782 157.795 130.775 157.278 130.775 156.699V145.82H132.381V156.633C132.381 157.132 132.384 157.55 132.392 157.887C132.406 158.217 132.483 158.51 132.623 158.767C132.887 159.258 133.305 159.552 133.877 159.647C134.456 159.742 135.171 159.72 136.022 159.581V161ZM128.234 150.506V149.12H136.022V150.506H128.234ZM141.761 161.33C140.867 161.33 140.115 161.169 139.506 160.846C138.905 160.523 138.454 160.094 138.153 159.559C137.853 159.024 137.702 158.441 137.702 157.81C137.702 157.165 137.831 156.615 138.087 156.16C138.351 155.698 138.707 155.32 139.154 155.027C139.609 154.734 140.133 154.51 140.727 154.356C141.329 154.209 141.992 154.081 142.718 153.971C143.452 153.854 144.167 153.755 144.863 153.674C145.567 153.586 146.183 153.502 146.711 153.421L146.139 153.773C146.161 152.6 145.934 151.731 145.457 151.166C144.981 150.601 144.152 150.319 142.971 150.319C142.157 150.319 141.468 150.502 140.903 150.869C140.346 151.236 139.954 151.815 139.726 152.607L138.153 152.145C138.425 151.082 138.971 150.257 139.792 149.67C140.614 149.083 141.681 148.79 142.993 148.79C144.079 148.79 144.999 148.995 145.754 149.406C146.517 149.809 147.056 150.396 147.371 151.166C147.518 151.511 147.613 151.896 147.657 152.321C147.701 152.746 147.723 153.179 147.723 153.619V161H146.282V158.019L146.7 158.195C146.297 159.214 145.67 159.992 144.819 160.527C143.969 161.062 142.949 161.33 141.761 161.33ZM141.948 159.933C142.704 159.933 143.364 159.797 143.928 159.526C144.493 159.255 144.948 158.884 145.292 158.415C145.637 157.938 145.861 157.403 145.963 156.809C146.051 156.428 146.099 156.01 146.106 155.555C146.114 155.093 146.117 154.748 146.117 154.521L146.733 154.84C146.183 154.913 145.586 154.987 144.94 155.06C144.302 155.133 143.672 155.218 143.048 155.313C142.432 155.408 141.875 155.522 141.376 155.654C141.039 155.749 140.713 155.885 140.397 156.061C140.082 156.23 139.822 156.457 139.616 156.743C139.418 157.029 139.319 157.385 139.319 157.81C139.319 158.155 139.404 158.488 139.572 158.811C139.748 159.134 140.027 159.401 140.408 159.614C140.797 159.827 141.31 159.933 141.948 159.933ZM150.367 154.763V153.377H156.967V154.763H150.367ZM165.16 161.33C164.067 161.33 163.143 161.055 162.388 160.505C161.633 159.948 161.061 159.196 160.672 158.25C160.283 157.297 160.089 156.23 160.089 155.049C160.089 153.846 160.283 152.776 160.672 151.837C161.068 150.891 161.647 150.147 162.41 149.604C163.173 149.061 164.111 148.79 165.226 148.79C166.311 148.79 167.243 149.065 168.02 149.615C168.797 150.165 169.391 150.913 169.802 151.859C170.22 152.805 170.429 153.868 170.429 155.049C170.429 156.237 170.22 157.304 169.802 158.25C169.384 159.196 168.783 159.948 167.998 160.505C167.213 161.055 166.267 161.33 165.16 161.33ZM159.814 166.28V149.12H161.266V158.063H161.442V166.28H159.814ZM164.995 159.823C165.824 159.823 166.513 159.614 167.063 159.196C167.613 158.778 168.024 158.21 168.295 157.491C168.574 156.765 168.713 155.951 168.713 155.049C168.713 154.154 168.577 153.348 168.306 152.629C168.035 151.91 167.62 151.342 167.063 150.924C166.513 150.506 165.813 150.297 164.962 150.297C164.133 150.297 163.444 150.499 162.894 150.902C162.351 151.305 161.944 151.866 161.673 152.585C161.402 153.296 161.266 154.118 161.266 155.049C161.266 155.966 161.402 156.787 161.673 157.513C161.944 158.232 162.355 158.796 162.905 159.207C163.455 159.618 164.152 159.823 164.995 159.823ZM172.845 161V149.12H174.297V151.98L174.011 151.606C174.143 151.254 174.315 150.931 174.528 150.638C174.74 150.337 174.971 150.092 175.221 149.901C175.529 149.63 175.888 149.424 176.299 149.285C176.709 149.138 177.124 149.054 177.542 149.032C177.96 149.003 178.341 149.032 178.686 149.12V150.638C178.253 150.528 177.78 150.502 177.267 150.561C176.753 150.62 176.28 150.825 175.848 151.177C175.452 151.485 175.155 151.855 174.957 152.288C174.759 152.713 174.627 153.168 174.561 153.652C174.495 154.129 174.462 154.602 174.462 155.071V161H172.845ZM180.992 146.865V145.05H182.609V146.865H180.992ZM180.992 161V149.12H182.609V161H180.992ZM200.075 161L200.086 153.201C200.086 152.284 199.83 151.566 199.316 151.045C198.81 150.517 198.165 150.253 197.38 150.253C196.933 150.253 196.497 150.356 196.071 150.561C195.646 150.766 195.294 151.096 195.015 151.551C194.744 152.006 194.608 152.6 194.608 153.333L193.651 153.058C193.629 152.207 193.794 151.463 194.146 150.825C194.506 150.187 194.997 149.692 195.62 149.34C196.251 148.981 196.962 148.801 197.754 148.801C198.95 148.801 199.907 149.171 200.625 149.912C201.344 150.645 201.703 151.639 201.703 152.893L201.692 161H200.075ZM185.896 161V149.12H187.348V152.046H187.524V161H185.896ZM193.002 161L193.013 153.311C193.013 152.365 192.76 151.621 192.254 151.078C191.756 150.528 191.096 150.253 190.274 150.253C189.453 150.253 188.789 150.535 188.283 151.1C187.777 151.657 187.524 152.402 187.524 153.333L186.556 152.805C186.556 152.042 186.736 151.36 187.095 150.759C187.455 150.15 187.946 149.674 188.569 149.329C189.193 148.977 189.9 148.801 190.692 148.801C191.448 148.801 192.119 148.962 192.705 149.285C193.299 149.608 193.765 150.077 194.102 150.693C194.44 151.309 194.608 152.057 194.608 152.937L194.597 161H193.002ZM207.955 161.33C207.06 161.33 206.308 161.169 205.7 160.846C205.098 160.523 204.647 160.094 204.347 159.559C204.046 159.024 203.896 158.441 203.896 157.81C203.896 157.165 204.024 156.615 204.281 156.16C204.545 155.698 204.9 155.32 205.348 155.027C205.802 154.734 206.327 154.51 206.921 154.356C207.522 154.209 208.186 154.081 208.912 153.971C209.645 153.854 210.36 153.755 211.057 153.674C211.761 153.586 212.377 153.502 212.905 153.421L212.333 153.773C212.355 152.6 212.127 151.731 211.651 151.166C211.174 150.601 210.345 150.319 209.165 150.319C208.351 150.319 207.661 150.502 207.097 150.869C206.539 151.236 206.147 151.815 205.92 152.607L204.347 152.145C204.618 151.082 205.164 150.257 205.986 149.67C206.807 149.083 207.874 148.79 209.187 148.79C210.272 148.79 211.192 148.995 211.948 149.406C212.71 149.809 213.249 150.396 213.565 151.166C213.711 151.511 213.807 151.896 213.851 152.321C213.895 152.746 213.917 153.179 213.917 153.619V161H212.476V158.019L212.894 158.195C212.49 159.214 211.863 159.992 211.013 160.527C210.162 161.062 209.143 161.33 207.955 161.33ZM208.142 159.933C208.897 159.933 209.557 159.797 210.122 159.526C210.686 159.255 211.141 158.884 211.486 158.415C211.83 157.938 212.054 157.403 212.157 156.809C212.245 156.428 212.292 156.01 212.3 155.555C212.307 155.093 212.311 154.748 212.311 154.521L212.927 154.84C212.377 154.913 211.779 154.987 211.134 155.06C210.496 155.133 209.865 155.218 209.242 155.313C208.626 155.408 208.068 155.522 207.57 155.654C207.232 155.749 206.906 155.885 206.591 156.061C206.275 156.23 206.015 156.457 205.81 156.743C205.612 157.029 205.513 157.385 205.513 157.81C205.513 158.155 205.597 158.488 205.766 158.811C205.942 159.134 206.22 159.401 206.602 159.614C206.99 159.827 207.504 159.933 208.142 159.933ZM216.78 161V149.12H218.232V151.98L217.946 151.606C218.078 151.254 218.251 150.931 218.463 150.638C218.676 150.337 218.907 150.092 219.156 149.901C219.464 149.63 219.824 149.424 220.234 149.285C220.645 149.138 221.059 149.054 221.477 149.032C221.895 149.003 222.277 149.032 222.621 149.12V150.638C222.189 150.528 221.716 150.502 221.202 150.561C220.689 150.62 220.216 150.825 219.783 151.177C219.387 151.485 219.09 151.855 218.892 152.288C218.694 152.713 218.562 153.168 218.496 153.652C218.43 154.129 218.397 154.602 218.397 155.071V161H216.78ZM226.252 166.28L228.551 160.043L228.584 161.891L223.381 149.12H225.097L229.365 159.801H228.661L232.599 149.12H234.249L227.869 166.28H226.252ZM234.705 161V159.119H236.586V161H234.705ZM245.318 161.33C244.226 161.33 243.302 161.055 242.546 160.505C241.791 159.948 241.219 159.196 240.83 158.25C240.442 157.297 240.247 156.23 240.247 155.049C240.247 153.846 240.442 152.776 240.83 151.837C241.226 150.891 241.806 150.147 242.568 149.604C243.331 149.061 244.27 148.79 245.384 148.79C246.47 148.79 247.401 149.065 248.178 149.615C248.956 150.165 249.55 150.913 249.96 151.859C250.378 152.805 250.587 153.868 250.587 155.049C250.587 156.237 250.378 157.304 249.96 158.25C249.542 159.196 248.941 159.948 248.156 160.505C247.372 161.055 246.426 161.33 245.318 161.33ZM239.972 161V145.16H241.6V152.057H241.424V161H239.972ZM245.153 159.823C245.982 159.823 246.671 159.614 247.221 159.196C247.771 158.778 248.182 158.21 248.453 157.491C248.732 156.765 248.871 155.951 248.871 155.049C248.871 154.154 248.736 153.348 248.464 152.629C248.193 151.91 247.779 151.342 247.221 150.924C246.671 150.506 245.971 150.297 245.12 150.297C244.292 150.297 243.602 150.499 243.052 150.902C242.51 151.305 242.103 151.866 241.831 152.585C241.56 153.296 241.424 154.118 241.424 155.049C241.424 155.966 241.56 156.787 241.831 157.513C242.103 158.232 242.513 158.796 243.063 159.207C243.613 159.618 244.31 159.823 245.153 159.823ZM256.402 161.33C255.507 161.33 254.756 161.169 254.147 160.846C253.546 160.523 253.095 160.094 252.794 159.559C252.493 159.024 252.343 158.441 252.343 157.81C252.343 157.165 252.471 156.615 252.728 156.16C252.992 155.698 253.348 155.32 253.795 155.027C254.25 154.734 254.774 154.51 255.368 154.356C255.969 154.209 256.633 154.081 257.359 153.971C258.092 153.854 258.807 153.755 259.504 153.674C260.208 153.586 260.824 153.502 261.352 153.421L260.78 153.773C260.802 152.6 260.575 151.731 260.098 151.166C259.621 150.601 258.793 150.319 257.612 150.319C256.798 150.319 256.109 150.502 255.544 150.869C254.987 151.236 254.594 151.815 254.367 152.607L252.794 152.145C253.065 151.082 253.612 150.257 254.433 149.67C255.254 149.083 256.321 148.79 257.634 148.79C258.719 148.79 259.64 148.995 260.395 149.406C261.158 149.809 261.697 150.396 262.012 151.166C262.159 151.511 262.254 151.896 262.298 152.321C262.342 152.746 262.364 153.179 262.364 153.619V161H260.923V158.019L261.341 158.195C260.938 159.214 260.311 159.992 259.46 160.527C258.609 161.062 257.59 161.33 256.402 161.33ZM256.589 159.933C257.344 159.933 258.004 159.797 258.569 159.526C259.134 159.255 259.588 158.884 259.933 158.415C260.278 157.938 260.501 157.403 260.604 156.809C260.692 156.428 260.74 156.01 260.747 155.555C260.754 155.093 260.758 154.748 260.758 154.521L261.374 154.84C260.824 154.913 260.226 154.987 259.581 155.06C258.943 155.133 258.312 155.218 257.689 155.313C257.073 155.408 256.516 155.522 256.017 155.654C255.68 155.749 255.353 155.885 255.038 156.061C254.723 156.23 254.462 156.457 254.257 156.743C254.059 157.029 253.96 157.385 253.96 157.81C253.96 158.155 254.044 158.488 254.213 158.811C254.389 159.134 254.668 159.401 255.049 159.614C255.438 159.827 255.951 159.933 256.589 159.933ZM269.661 161.319C268.267 161.319 267.12 161.018 266.218 160.417C265.323 159.816 264.773 158.98 264.568 157.909L266.218 157.634C266.394 158.309 266.793 158.848 267.417 159.251C268.047 159.647 268.825 159.845 269.748 159.845C270.651 159.845 271.362 159.658 271.883 159.284C272.403 158.903 272.664 158.386 272.664 157.733C272.664 157.366 272.579 157.069 272.411 156.842C272.249 156.607 271.916 156.391 271.41 156.193C270.904 155.995 270.148 155.76 269.144 155.489C268.066 155.196 267.222 154.902 266.614 154.609C266.005 154.316 265.572 153.978 265.316 153.597C265.059 153.208 264.931 152.735 264.931 152.178C264.931 151.503 265.121 150.913 265.503 150.407C265.884 149.894 266.412 149.498 267.087 149.219C267.761 148.933 268.546 148.79 269.441 148.79C270.335 148.79 271.135 148.937 271.839 149.23C272.55 149.516 273.122 149.919 273.555 150.44C273.987 150.961 274.244 151.566 274.325 152.255L272.675 152.552C272.565 151.855 272.216 151.305 271.63 150.902C271.05 150.491 270.313 150.279 269.419 150.264C268.575 150.242 267.89 150.403 267.362 150.748C266.834 151.085 266.57 151.536 266.57 152.101C266.57 152.416 266.665 152.688 266.856 152.915C267.046 153.135 267.391 153.344 267.89 153.542C268.396 153.74 269.114 153.956 270.046 154.191C271.138 154.47 271.996 154.763 272.62 155.071C273.243 155.379 273.687 155.742 273.951 156.16C274.215 156.578 274.347 157.095 274.347 157.711C274.347 158.833 273.929 159.717 273.093 160.362C272.264 161 271.12 161.319 269.661 161.319ZM281.813 161.33C280.654 161.33 279.65 161.073 278.799 160.56C277.956 160.047 277.299 159.324 276.83 158.393C276.361 157.462 276.126 156.369 276.126 155.115C276.126 153.817 276.357 152.695 276.819 151.749C277.281 150.803 277.93 150.073 278.766 149.56C279.609 149.047 280.603 148.79 281.747 148.79C282.92 148.79 283.921 149.061 284.75 149.604C285.579 150.139 286.206 150.909 286.631 151.914C287.056 152.919 287.251 154.118 287.214 155.511H285.564V154.939C285.535 153.399 285.201 152.237 284.563 151.452C283.932 150.667 283.008 150.275 281.791 150.275C280.515 150.275 279.536 150.689 278.854 151.518C278.179 152.347 277.842 153.527 277.842 155.06C277.842 156.556 278.179 157.718 278.854 158.547C279.536 159.368 280.5 159.779 281.747 159.779C282.598 159.779 283.338 159.585 283.969 159.196C284.607 158.8 285.109 158.232 285.476 157.491L286.983 158.074C286.514 159.108 285.821 159.911 284.904 160.483C283.995 161.048 282.964 161.33 281.813 161.33ZM277.27 155.511V154.158H286.345V155.511H277.27Z" fill="white"/>
<rect x="326.453" y="1.5" width="311" height="103" rx="7.5" fill="#D77730" stroke="#333333" stroke-width="3"/>
<path d="M341.073 83V71.48H344.625C344.742 71.48 344.948 71.4827 345.241 71.488C345.534 71.4933 345.814 71.5147 346.081 71.552C346.972 71.6693 347.716 71.9947 348.313 72.528C348.916 73.056 349.369 73.728 349.673 74.544C349.977 75.36 350.129 76.2587 350.129 77.24C350.129 78.2213 349.977 79.12 349.673 79.936C349.369 80.752 348.916 81.4267 348.313 81.96C347.716 82.488 346.972 82.8107 346.081 82.928C345.814 82.96 345.532 82.9813 345.233 82.992C344.94 82.9973 344.737 83 344.625 83H341.073ZM342.537 81.64H344.625C344.828 81.64 345.054 81.6347 345.305 81.624C345.556 81.608 345.774 81.584 345.961 81.552C346.59 81.4347 347.1 81.1707 347.489 80.76C347.878 80.3493 348.164 79.8373 348.345 79.224C348.526 78.6107 348.617 77.9493 348.617 77.24C348.617 76.5147 348.524 75.8453 348.337 75.232C348.156 74.6187 347.87 74.1093 347.481 73.704C347.092 73.2987 346.585 73.04 345.961 72.928C345.774 72.8907 345.553 72.8667 345.297 72.856C345.041 72.8453 344.817 72.84 344.625 72.84H342.537V81.64ZM352.572 83L356.716 72.848H351.484V71.48H358.244V72.848L354.108 83H352.572ZM361.103 83L365.247 72.848H360.015V71.48H366.775V72.848L362.639 83H361.103ZM369.634 83L373.778 72.848H368.546V71.48H375.306V72.848L371.17 83H369.634ZM380.389 83.224C379.819 83.224 379.288 83.12 378.797 82.912C378.307 82.6987 377.883 82.4 377.525 82.016C377.173 81.6267 376.915 81.1653 376.749 80.632L378.117 80.24C378.293 80.7733 378.587 81.1787 378.997 81.456C379.408 81.7333 379.869 81.8693 380.381 81.864C380.851 81.8533 381.256 81.7467 381.597 81.544C381.944 81.336 382.211 81.0533 382.397 80.696C382.589 80.3387 382.685 79.9253 382.685 79.456C382.685 78.7413 382.472 78.1627 382.045 77.72C381.619 77.272 381.059 77.048 380.365 77.048C380.173 77.048 379.971 77.0747 379.757 77.128C379.549 77.1813 379.355 77.256 379.173 77.352L378.485 76.224L382.757 72.36L382.941 72.84H377.205V71.48H383.997V72.848L380.357 76.336L380.341 75.832C381.104 75.7787 381.771 75.904 382.341 76.208C382.912 76.512 383.355 76.9467 383.669 77.512C383.989 78.0773 384.149 78.7253 384.149 79.456C384.149 80.192 383.984 80.8427 383.653 81.408C383.323 81.9733 382.875 82.4187 382.309 82.744C381.744 83.064 381.104 83.224 380.389 83.224ZM390.117 83.24C389.371 83.24 388.704 83.072 388.117 82.736C387.536 82.3947 387.075 81.9333 386.733 81.352C386.397 80.7653 386.229 80.0987 386.229 79.352V75.128C386.229 74.3813 386.397 73.7147 386.733 73.128C387.075 72.5413 387.536 72.08 388.117 71.744C388.704 71.408 389.371 71.24 390.117 71.24C390.864 71.24 391.531 71.408 392.117 71.744C392.704 72.08 393.165 72.5413 393.501 73.128C393.837 73.7147 394.005 74.3813 394.005 75.128V79.352C394.005 80.0987 393.837 80.7653 393.501 81.352C393.165 81.9333 392.704 82.3947 392.117 82.736C391.531 83.072 390.864 83.24 390.117 83.24ZM390.117 81.872C390.571 81.872 390.981 81.7627 391.349 81.544C391.717 81.3253 392.011 81.032 392.229 80.664C392.448 80.2907 392.557 79.88 392.557 79.432V75.04C392.557 74.5867 392.448 74.176 392.229 73.808C392.011 73.44 391.717 73.1467 391.349 72.928C390.981 72.7093 390.571 72.6 390.117 72.6C389.669 72.6 389.259 72.7093 388.885 72.928C388.517 73.1467 388.224 73.44 388.005 73.808C387.787 74.176 387.677 74.5867 387.677 75.04V79.432C387.677 79.88 387.787 80.2907 388.005 80.664C388.224 81.032 388.517 81.3253 388.885 81.544C389.259 81.7627 389.669 81.872 390.117 81.872Z" fill="#D9D9D9"/>
<path d="M333.673 163.167V160.659H335.29V163.167H333.673ZM333.673 145.49V142.971H335.29V145.49H333.673ZM334.674 161.33C333.625 161.33 332.679 161.143 331.836 160.769C331 160.395 330.307 159.867 329.757 159.185C329.214 158.503 328.859 157.696 328.69 156.765L330.263 156.49C330.505 157.502 331.026 158.305 331.825 158.899C332.632 159.486 333.603 159.779 334.74 159.779C335.891 159.779 336.823 159.5 337.534 158.943C338.245 158.378 338.601 157.641 338.601 156.732C338.601 156.057 338.403 155.518 338.007 155.115C337.611 154.712 336.94 154.367 335.994 154.081L332.474 152.981C330.347 152.314 329.284 151.052 329.284 149.197C329.284 148.332 329.497 147.573 329.922 146.92C330.355 146.26 330.952 145.747 331.715 145.38C332.485 145.013 333.383 144.834 334.41 144.841C335.415 144.841 336.313 145.032 337.105 145.413C337.904 145.787 338.561 146.319 339.074 147.008C339.587 147.697 339.928 148.515 340.097 149.461L338.48 149.769C338.377 149.094 338.139 148.504 337.765 147.998C337.398 147.492 336.925 147.1 336.346 146.821C335.767 146.535 335.121 146.388 334.41 146.381C333.735 146.381 333.134 146.498 332.606 146.733C332.078 146.968 331.66 147.294 331.352 147.712C331.051 148.123 330.901 148.596 330.901 149.131C330.901 149.718 331.11 150.216 331.528 150.627C331.953 151.03 332.624 151.371 333.541 151.65L336.566 152.563C337.842 152.944 338.762 153.458 339.327 154.103C339.892 154.748 340.174 155.61 340.174 156.688C340.174 157.619 339.947 158.433 339.492 159.13C339.037 159.827 338.396 160.369 337.567 160.758C336.746 161.139 335.781 161.33 334.674 161.33ZM343.625 161V148.24C343.625 147.932 343.64 147.628 343.669 147.327C343.706 147.026 343.776 146.74 343.878 146.469C343.981 146.19 344.142 145.934 344.362 145.699C344.604 145.435 344.868 145.244 345.154 145.127C345.44 145.002 345.737 144.922 346.045 144.885C346.361 144.848 346.669 144.83 346.969 144.83H348.487V146.194H347.079C346.463 146.194 346.001 146.344 345.693 146.645C345.393 146.946 345.242 147.419 345.242 148.064V161H343.625ZM341.568 150.506V149.12H348.487V150.506H341.568ZM355.582 161.33C354.489 161.33 353.565 161.055 352.81 160.505C352.055 159.948 351.483 159.196 351.094 158.25C350.705 157.297 350.511 156.23 350.511 155.049C350.511 153.846 350.705 152.776 351.094 151.837C351.49 150.891 352.069 150.147 352.832 149.604C353.595 149.061 354.533 148.79 355.648 148.79C356.733 148.79 357.665 149.065 358.442 149.615C359.219 150.165 359.813 150.913 360.224 151.859C360.642 152.805 360.851 153.868 360.851 155.049C360.851 156.237 360.642 157.304 360.224 158.25C359.806 159.196 359.205 159.948 358.42 160.505C357.635 161.055 356.689 161.33 355.582 161.33ZM350.236 166.28V149.12H351.688V158.063H351.864V166.28H350.236ZM355.417 159.823C356.246 159.823 356.935 159.614 357.485 159.196C358.035 158.778 358.446 158.21 358.717 157.491C358.996 156.765 359.135 155.951 359.135 155.049C359.135 154.154 358.999 153.348 358.728 152.629C358.457 151.91 358.042 151.342 357.485 150.924C356.935 150.506 356.235 150.297 355.384 150.297C354.555 150.297 353.866 150.499 353.316 150.902C352.773 151.305 352.366 151.866 352.095 152.585C351.824 153.296 351.688 154.118 351.688 155.049C351.688 155.966 351.824 156.787 352.095 157.513C352.366 158.232 352.777 158.796 353.327 159.207C353.877 159.618 354.574 159.823 355.417 159.823ZM377.435 161L377.446 153.201C377.446 152.284 377.189 151.566 376.676 151.045C376.17 150.517 375.524 150.253 374.74 150.253C374.292 150.253 373.856 150.356 373.431 150.561C373.005 150.766 372.653 151.096 372.375 151.551C372.103 152.006 371.968 152.6 371.968 153.333L371.011 153.058C370.989 152.207 371.154 151.463 371.506 150.825C371.865 150.187 372.356 149.692 372.98 149.34C373.61 148.981 374.322 148.801 375.114 148.801C376.309 148.801 377.266 149.171 377.985 149.912C378.703 150.645 379.063 151.639 379.063 152.893L379.052 161H377.435ZM363.256 161V149.12H364.708V152.046H364.884V161H363.256ZM370.362 161L370.373 153.311C370.373 152.365 370.12 151.621 369.614 151.078C369.115 150.528 368.455 150.253 367.634 150.253C366.812 150.253 366.149 150.535 365.643 151.1C365.137 151.657 364.884 152.402 364.884 153.333L363.916 152.805C363.916 152.042 364.095 151.36 364.455 150.759C364.814 150.15 365.305 149.674 365.929 149.329C366.552 148.977 367.26 148.801 368.052 148.801C368.807 148.801 369.478 148.962 370.065 149.285C370.659 149.608 371.124 150.077 371.462 150.693C371.799 151.309 371.968 152.057 371.968 152.937L371.957 161H370.362ZM382.223 161V159.119H384.104V161H382.223ZM392.429 161.33C391.234 161.33 390.222 161.062 389.393 160.527C388.564 159.992 387.934 159.255 387.501 158.316C387.076 157.37 386.856 156.285 386.841 155.06C386.856 153.813 387.083 152.721 387.523 151.782C387.963 150.836 388.597 150.103 389.426 149.582C390.255 149.054 391.259 148.79 392.44 148.79C393.643 148.79 394.688 149.083 395.575 149.67C396.47 150.257 397.082 151.06 397.412 152.079L395.828 152.585C395.549 151.874 395.106 151.324 394.497 150.935C393.896 150.539 393.206 150.341 392.429 150.341C391.556 150.341 390.834 150.543 390.262 150.946C389.69 151.342 389.265 151.896 388.986 152.607C388.707 153.318 388.564 154.136 388.557 155.06C388.572 156.483 388.902 157.627 389.547 158.492C390.192 159.35 391.153 159.779 392.429 159.779C393.236 159.779 393.921 159.596 394.486 159.229C395.058 158.855 395.491 158.312 395.784 157.601L397.412 158.085C396.972 159.141 396.327 159.948 395.476 160.505C394.625 161.055 393.61 161.33 392.429 161.33ZM404.321 161.33C403.141 161.33 402.132 161.062 401.296 160.527C400.46 159.992 399.819 159.251 399.371 158.305C398.924 157.359 398.7 156.274 398.7 155.049C398.7 153.802 398.928 152.71 399.382 151.771C399.837 150.832 400.482 150.103 401.318 149.582C402.162 149.054 403.163 148.79 404.321 148.79C405.509 148.79 406.521 149.058 407.357 149.593C408.201 150.121 408.842 150.858 409.282 151.804C409.73 152.743 409.953 153.824 409.953 155.049C409.953 156.296 409.73 157.392 409.282 158.338C408.835 159.277 408.19 160.01 407.346 160.538C406.503 161.066 405.495 161.33 404.321 161.33ZM404.321 159.779C405.641 159.779 406.624 159.343 407.269 158.47C407.915 157.59 408.237 156.45 408.237 155.049C408.237 153.612 407.911 152.468 407.258 151.617C406.613 150.766 405.634 150.341 404.321 150.341C403.434 150.341 402.701 150.543 402.121 150.946C401.549 151.342 401.12 151.896 400.834 152.607C400.556 153.311 400.416 154.125 400.416 155.049C400.416 156.479 400.746 157.627 401.406 158.492C402.066 159.35 403.038 159.779 404.321 159.779ZM412.6 161V144.83H414.217V161H412.6ZM422.476 161.33C421.295 161.33 420.287 161.062 419.451 160.527C418.615 159.992 417.973 159.251 417.526 158.305C417.078 157.359 416.855 156.274 416.855 155.049C416.855 153.802 417.082 152.71 417.537 151.771C417.991 150.832 418.637 150.103 419.473 149.582C420.316 149.054 421.317 148.79 422.476 148.79C423.664 148.79 424.676 149.058 425.512 149.593C426.355 150.121 426.997 150.858 427.437 151.804C427.884 152.743 428.108 153.824 428.108 155.049C428.108 156.296 427.884 157.392 427.437 158.338C426.989 159.277 426.344 160.01 425.501 160.538C424.657 161.066 423.649 161.33 422.476 161.33ZM422.476 159.779C423.796 159.779 424.778 159.343 425.424 158.47C426.069 157.59 426.392 156.45 426.392 155.049C426.392 153.612 426.065 152.468 425.413 151.617C424.767 150.766 423.788 150.341 422.476 150.341C421.588 150.341 420.855 150.543 420.276 150.946C419.704 151.342 419.275 151.896 418.989 152.607C418.71 153.311 418.571 154.125 418.571 155.049C418.571 156.479 418.901 157.627 419.561 158.492C420.221 159.35 421.192 159.779 422.476 159.779ZM430.534 161V149.12H431.986V151.98L431.7 151.606C431.832 151.254 432.004 150.931 432.217 150.638C432.43 150.337 432.661 150.092 432.91 149.901C433.218 149.63 433.577 149.424 433.988 149.285C434.399 149.138 434.813 149.054 435.231 149.032C435.649 149.003 436.03 149.032 436.375 149.12V150.638C435.942 150.528 435.469 150.502 434.956 150.561C434.443 150.62 433.97 150.825 433.537 151.177C433.141 151.485 432.844 151.855 432.646 152.288C432.448 152.713 432.316 153.168 432.25 153.652C432.184 154.129 432.151 154.602 432.151 155.071V161H430.534ZM437.008 161V159.119H438.889V161H437.008ZM447.214 161.33C446.019 161.33 445.007 161.062 444.178 160.527C443.349 159.992 442.719 159.255 442.286 158.316C441.861 157.37 441.641 156.285 441.626 155.06C441.641 153.813 441.868 152.721 442.308 151.782C442.748 150.836 443.382 150.103 444.211 149.582C445.04 149.054 446.044 148.79 447.225 148.79C448.428 148.79 449.473 149.083 450.36 149.67C451.255 150.257 451.867 151.06 452.197 152.079L450.613 152.585C450.334 151.874 449.891 151.324 449.282 150.935C448.681 150.539 447.991 150.341 447.214 150.341C446.341 150.341 445.619 150.543 445.047 150.946C444.475 151.342 444.05 151.896 443.771 152.607C443.492 153.318 443.349 154.136 443.342 155.06C443.357 156.483 443.687 157.627 444.332 158.492C444.977 159.35 445.938 159.779 447.214 159.779C448.021 159.779 448.706 159.596 449.271 159.229C449.843 158.855 450.276 158.312 450.569 157.601L452.197 158.085C451.757 159.141 451.112 159.948 450.261 160.505C449.41 161.055 448.395 161.33 447.214 161.33ZM460.936 161C460.268 161.139 459.608 161.194 458.956 161.165C458.31 161.136 457.731 160.996 457.218 160.747C456.712 160.498 456.327 160.109 456.063 159.581C455.85 159.141 455.733 158.697 455.711 158.25C455.696 157.795 455.689 157.278 455.689 156.699V145.82H457.295V156.633C457.295 157.132 457.298 157.55 457.306 157.887C457.32 158.217 457.397 158.51 457.537 158.767C457.801 159.258 458.219 159.552 458.791 159.647C459.37 159.742 460.085 159.72 460.936 159.581V161ZM453.148 150.506V149.12H460.936V150.506H453.148ZM466.675 161.33C465.781 161.33 465.029 161.169 464.42 160.846C463.819 160.523 463.368 160.094 463.067 159.559C462.767 159.024 462.616 158.441 462.616 157.81C462.616 157.165 462.745 156.615 463.001 156.16C463.265 155.698 463.621 155.32 464.068 155.027C464.523 154.734 465.047 154.51 465.641 154.356C466.243 154.209 466.906 154.081 467.632 153.971C468.366 153.854 469.081 153.755 469.777 153.674C470.481 153.586 471.097 153.502 471.625 153.421L471.053 153.773C471.075 152.6 470.848 151.731 470.371 151.166C469.895 150.601 469.066 150.319 467.885 150.319C467.071 150.319 466.382 150.502 465.817 150.869C465.26 151.236 464.868 151.815 464.64 152.607L463.067 152.145C463.339 151.082 463.885 150.257 464.706 149.67C465.528 149.083 466.595 148.79 467.907 148.79C468.993 148.79 469.913 148.995 470.668 149.406C471.431 149.809 471.97 150.396 472.285 151.166C472.432 151.511 472.527 151.896 472.571 152.321C472.615 152.746 472.637 153.179 472.637 153.619V161H471.196V158.019L471.614 158.195C471.211 159.214 470.584 159.992 469.733 160.527C468.883 161.062 467.863 161.33 466.675 161.33ZM466.862 159.933C467.618 159.933 468.278 159.797 468.842 159.526C469.407 159.255 469.862 158.884 470.206 158.415C470.551 157.938 470.775 157.403 470.877 156.809C470.965 156.428 471.013 156.01 471.02 155.555C471.028 155.093 471.031 154.748 471.031 154.521L471.647 154.84C471.097 154.913 470.5 154.987 469.854 155.06C469.216 155.133 468.586 155.218 467.962 155.313C467.346 155.408 466.789 155.522 466.29 155.654C465.953 155.749 465.627 155.885 465.311 156.061C464.996 156.23 464.736 156.457 464.53 156.743C464.332 157.029 464.233 157.385 464.233 157.81C464.233 158.155 464.318 158.488 464.486 158.811C464.662 159.134 464.941 159.401 465.322 159.614C465.711 159.827 466.224 159.933 466.862 159.933ZM475.281 154.763V153.377H481.881V154.763H475.281ZM490.074 161.33C488.982 161.33 488.058 161.055 487.302 160.505C486.547 159.948 485.975 159.196 485.586 158.25C485.198 157.297 485.003 156.23 485.003 155.049C485.003 153.846 485.198 152.776 485.586 151.837C485.982 150.891 486.562 150.147 487.324 149.604C488.087 149.061 489.026 148.79 490.14 148.79C491.226 148.79 492.157 149.065 492.934 149.615C493.712 150.165 494.306 150.913 494.716 151.859C495.134 152.805 495.343 153.868 495.343 155.049C495.343 156.237 495.134 157.304 494.716 158.25C494.298 159.196 493.697 159.948 492.912 160.505C492.128 161.055 491.182 161.33 490.074 161.33ZM484.728 166.28V149.12H486.18V158.063H486.356V166.28H484.728ZM489.909 159.823C490.738 159.823 491.427 159.614 491.977 159.196C492.527 158.778 492.938 158.21 493.209 157.491C493.488 156.765 493.627 155.951 493.627 155.049C493.627 154.154 493.492 153.348 493.22 152.629C492.949 151.91 492.535 151.342 491.977 150.924C491.427 150.506 490.727 150.297 489.876 150.297C489.048 150.297 488.358 150.499 487.808 150.902C487.266 151.305 486.859 151.866 486.587 152.585C486.316 153.296 486.18 154.118 486.18 155.049C486.18 155.966 486.316 156.787 486.587 157.513C486.859 158.232 487.269 158.796 487.819 159.207C488.369 159.618 489.066 159.823 489.909 159.823ZM497.759 161V149.12H499.211V151.98L498.925 151.606C499.057 151.254 499.229 150.931 499.442 150.638C499.654 150.337 499.885 150.092 500.135 149.901C500.443 149.63 500.802 149.424 501.213 149.285C501.623 149.138 502.038 149.054 502.456 149.032C502.874 149.003 503.255 149.032 503.6 149.12V150.638C503.167 150.528 502.694 150.502 502.181 150.561C501.667 150.62 501.194 150.825 500.762 151.177C500.366 151.485 500.069 151.855 499.871 152.288C499.673 152.713 499.541 153.168 499.475 153.652C499.409 154.129 499.376 154.602 499.376 155.071V161H497.759ZM505.906 146.865V145.05H507.523V146.865H505.906ZM505.906 161V149.12H507.523V161H505.906ZM524.989 161L525 153.201C525 152.284 524.744 151.566 524.23 151.045C523.724 150.517 523.079 150.253 522.294 150.253C521.847 150.253 521.411 150.356 520.985 150.561C520.56 150.766 520.208 151.096 519.929 151.551C519.658 152.006 519.522 152.6 519.522 153.333L518.565 153.058C518.543 152.207 518.708 151.463 519.06 150.825C519.42 150.187 519.911 149.692 520.534 149.34C521.165 148.981 521.876 148.801 522.668 148.801C523.864 148.801 524.821 149.171 525.539 149.912C526.258 150.645 526.617 151.639 526.617 152.893L526.606 161H524.989ZM510.81 161V149.12H512.262V152.046H512.438V161H510.81ZM517.916 161L517.927 153.311C517.927 152.365 517.674 151.621 517.168 151.078C516.67 150.528 516.01 150.253 515.188 150.253C514.367 150.253 513.703 150.535 513.197 151.1C512.691 151.657 512.438 152.402 512.438 153.333L511.47 152.805C511.47 152.042 511.65 151.36 512.009 150.759C512.369 150.15 512.86 149.674 513.483 149.329C514.107 148.977 514.814 148.801 515.606 148.801C516.362 148.801 517.033 148.962 517.619 149.285C518.213 149.608 518.679 150.077 519.016 150.693C519.354 151.309 519.522 152.057 519.522 152.937L519.511 161H517.916ZM532.869 161.33C531.974 161.33 531.222 161.169 530.614 160.846C530.012 160.523 529.561 160.094 529.261 159.559C528.96 159.024 528.81 158.441 528.81 157.81C528.81 157.165 528.938 156.615 529.195 156.16C529.459 155.698 529.814 155.32 530.262 155.027C530.716 154.734 531.241 154.51 531.835 154.356C532.436 154.209 533.1 154.081 533.826 153.971C534.559 153.854 535.274 153.755 535.971 153.674C536.675 153.586 537.291 153.502 537.819 153.421L537.247 153.773C537.269 152.6 537.041 151.731 536.565 151.166C536.088 150.601 535.259 150.319 534.079 150.319C533.265 150.319 532.575 150.502 532.011 150.869C531.453 151.236 531.061 151.815 530.834 152.607L529.261 152.145C529.532 151.082 530.078 150.257 530.9 149.67C531.721 149.083 532.788 148.79 534.101 148.79C535.186 148.79 536.106 148.995 536.862 149.406C537.624 149.809 538.163 150.396 538.479 151.166C538.625 151.511 538.721 151.896 538.765 152.321C538.809 152.746 538.831 153.179 538.831 153.619V161H537.39V158.019L537.808 158.195C537.404 159.214 536.777 159.992 535.927 160.527C535.076 161.062 534.057 161.33 532.869 161.33ZM533.056 159.933C533.811 159.933 534.471 159.797 535.036 159.526C535.6 159.255 536.055 158.884 536.4 158.415C536.744 157.938 536.968 157.403 537.071 156.809C537.159 156.428 537.206 156.01 537.214 155.555C537.221 155.093 537.225 154.748 537.225 154.521L537.841 154.84C537.291 154.913 536.693 154.987 536.048 155.06C535.41 155.133 534.779 155.218 534.156 155.313C533.54 155.408 532.982 155.522 532.484 155.654C532.146 155.749 531.82 155.885 531.505 156.061C531.189 156.23 530.929 156.457 530.724 156.743C530.526 157.029 530.427 157.385 530.427 157.81C530.427 158.155 530.511 158.488 530.68 158.811C530.856 159.134 531.134 159.401 531.516 159.614C531.904 159.827 532.418 159.933 533.056 159.933ZM541.694 161V149.12H543.146V151.98L542.86 151.606C542.992 151.254 543.165 150.931 543.377 150.638C543.59 150.337 543.821 150.092 544.07 149.901C544.378 149.63 544.738 149.424 545.148 149.285C545.559 149.138 545.973 149.054 546.391 149.032C546.809 149.003 547.191 149.032 547.535 149.12V150.638C547.103 150.528 546.63 150.502 546.116 150.561C545.603 150.62 545.13 150.825 544.697 151.177C544.301 151.485 544.004 151.855 543.806 152.288C543.608 152.713 543.476 153.168 543.41 153.652C543.344 154.129 543.311 154.602 543.311 155.071V161H541.694ZM551.166 166.28L553.465 160.043L553.498 161.891L548.295 149.12H550.011L554.279 159.801H553.575L557.513 149.12H559.163L552.783 166.28H551.166ZM559.619 161V159.119H561.5V161H559.619ZM570.232 161.33C569.14 161.33 568.216 161.055 567.46 160.505C566.705 159.948 566.133 159.196 565.744 158.25C565.356 157.297 565.161 156.23 565.161 155.049C565.161 153.846 565.356 152.776 565.744 151.837C566.14 150.891 566.72 150.147 567.482 149.604C568.245 149.061 569.184 148.79 570.298 148.79C571.384 148.79 572.315 149.065 573.092 149.615C573.87 150.165 574.464 150.913 574.874 151.859C575.292 152.805 575.501 153.868 575.501 155.049C575.501 156.237 575.292 157.304 574.874 158.25C574.456 159.196 573.855 159.948 573.07 160.505C572.286 161.055 571.34 161.33 570.232 161.33ZM564.886 161V145.16H566.514V152.057H566.338V161H564.886ZM570.067 159.823C570.896 159.823 571.585 159.614 572.135 159.196C572.685 158.778 573.096 158.21 573.367 157.491C573.646 156.765 573.785 155.951 573.785 155.049C573.785 154.154 573.65 153.348 573.378 152.629C573.107 151.91 572.693 151.342 572.135 150.924C571.585 150.506 570.885 150.297 570.034 150.297C569.206 150.297 568.516 150.499 567.966 150.902C567.424 151.305 567.017 151.866 566.745 152.585C566.474 153.296 566.338 154.118 566.338 155.049C566.338 155.966 566.474 156.787 566.745 157.513C567.017 158.232 567.427 158.796 567.977 159.207C568.527 159.618 569.224 159.823 570.067 159.823ZM581.316 161.33C580.421 161.33 579.67 161.169 579.061 160.846C578.46 160.523 578.009 160.094 577.708 159.559C577.407 159.024 577.257 158.441 577.257 157.81C577.257 157.165 577.385 156.615 577.642 156.16C577.906 155.698 578.262 155.32 578.709 155.027C579.164 154.734 579.688 154.51 580.282 154.356C580.883 154.209 581.547 154.081 582.273 153.971C583.006 153.854 583.721 153.755 584.418 153.674C585.122 153.586 585.738 153.502 586.266 153.421L585.694 153.773C585.716 152.6 585.489 151.731 585.012 151.166C584.535 150.601 583.707 150.319 582.526 150.319C581.712 150.319 581.023 150.502 580.458 150.869C579.901 151.236 579.508 151.815 579.281 152.607L577.708 152.145C577.979 151.082 578.526 150.257 579.347 149.67C580.168 149.083 581.235 148.79 582.548 148.79C583.633 148.79 584.554 148.995 585.309 149.406C586.072 149.809 586.611 150.396 586.926 151.166C587.073 151.511 587.168 151.896 587.212 152.321C587.256 152.746 587.278 153.179 587.278 153.619V161H585.837V158.019L586.255 158.195C585.852 159.214 585.225 159.992 584.374 160.527C583.523 161.062 582.504 161.33 581.316 161.33ZM581.503 159.933C582.258 159.933 582.918 159.797 583.483 159.526C584.048 159.255 584.502 158.884 584.847 158.415C585.192 157.938 585.415 157.403 585.518 156.809C585.606 156.428 585.654 156.01 585.661 155.555C585.668 155.093 585.672 154.748 585.672 154.521L586.288 154.84C585.738 154.913 585.14 154.987 584.495 155.06C583.857 155.133 583.226 155.218 582.603 155.313C581.987 155.408 581.43 155.522 580.931 155.654C580.594 155.749 580.267 155.885 579.952 156.061C579.637 156.23 579.376 156.457 579.171 156.743C578.973 157.029 578.874 157.385 578.874 157.81C578.874 158.155 578.958 158.488 579.127 158.811C579.303 159.134 579.582 159.401 579.963 159.614C580.352 159.827 580.865 159.933 581.503 159.933ZM594.575 161.319C593.181 161.319 592.034 161.018 591.132 160.417C590.237 159.816 589.687 158.98 589.482 157.909L591.132 157.634C591.308 158.309 591.707 158.848 592.331 159.251C592.961 159.647 593.739 159.845 594.663 159.845C595.565 159.845 596.276 159.658 596.797 159.284C597.317 158.903 597.578 158.386 597.578 157.733C597.578 157.366 597.493 157.069 597.325 156.842C597.163 156.607 596.83 156.391 596.324 156.193C595.818 155.995 595.062 155.76 594.058 155.489C592.98 155.196 592.136 154.902 591.528 154.609C590.919 154.316 590.486 153.978 590.23 153.597C589.973 153.208 589.845 152.735 589.845 152.178C589.845 151.503 590.035 150.913 590.417 150.407C590.798 149.894 591.326 149.498 592.001 149.219C592.675 148.933 593.46 148.79 594.355 148.79C595.249 148.79 596.049 148.937 596.753 149.23C597.464 149.516 598.036 149.919 598.469 150.44C598.901 150.961 599.158 151.566 599.239 152.255L597.589 152.552C597.479 151.855 597.13 151.305 596.544 150.902C595.964 150.491 595.227 150.279 594.333 150.264C593.489 150.242 592.804 150.403 592.276 150.748C591.748 151.085 591.484 151.536 591.484 152.101C591.484 152.416 591.579 152.688 591.77 152.915C591.96 153.135 592.305 153.344 592.804 153.542C593.31 153.74 594.028 153.956 594.96 154.191C596.052 154.47 596.91 154.763 597.534 155.071C598.157 155.379 598.601 155.742 598.865 156.16C599.129 156.578 599.261 157.095 599.261 157.711C599.261 158.833 598.843 159.717 598.007 160.362C597.178 161 596.034 161.319 594.575 161.319ZM606.727 161.33C605.568 161.33 604.564 161.073 603.713 160.56C602.87 160.047 602.213 159.324 601.744 158.393C601.275 157.462 601.04 156.369 601.04 155.115C601.04 153.817 601.271 152.695 601.733 151.749C602.195 150.803 602.844 150.073 603.68 149.56C604.523 149.047 605.517 148.79 606.661 148.79C607.834 148.79 608.835 149.061 609.664 149.604C610.493 150.139 611.12 150.909 611.545 151.914C611.97 152.919 612.165 154.118 612.128 155.511H610.478V154.939C610.449 153.399 610.115 152.237 609.477 151.452C608.846 150.667 607.922 150.275 606.705 150.275C605.429 150.275 604.45 150.689 603.768 151.518C603.093 152.347 602.756 153.527 602.756 155.06C602.756 156.556 603.093 157.718 603.768 158.547C604.45 159.368 605.414 159.779 606.661 159.779C607.512 159.779 608.252 159.585 608.883 159.196C609.521 158.8 610.023 158.232 610.39 157.491L611.897 158.074C611.428 159.108 610.735 159.911 609.818 160.483C608.909 161.048 607.878 161.33 606.727 161.33ZM602.184 155.511V154.158H611.259V155.511H602.184Z" fill="white"/>
<rect x="651.367" y="1.5" width="311" height="103" rx="7.5" fill="#BF6A2A" stroke="#333333" stroke-width="3"/>
<path d="M665.987 83V71.48H670.475C671.163 71.48 671.75 71.6213 672.235 71.904C672.726 72.1867 673.099 72.56 673.355 73.024C673.617 73.4827 673.747 73.9787 673.747 74.512C673.747 75.136 673.587 75.6827 673.267 76.152C672.947 76.6213 672.515 76.944 671.971 77.12L671.955 76.728C672.697 76.9253 673.273 77.288 673.683 77.816C674.094 78.344 674.299 78.9733 674.299 79.704C674.299 80.376 674.161 80.9573 673.883 81.448C673.611 81.9387 673.217 82.32 672.699 82.592C672.187 82.864 671.579 83 670.875 83H665.987ZM667.427 81.64H670.603C671.03 81.64 671.411 81.5627 671.747 81.408C672.083 81.248 672.347 81.024 672.539 80.736C672.737 80.448 672.835 80.1013 672.835 79.696C672.835 79.3067 672.747 78.9573 672.571 78.648C672.401 78.3387 672.158 78.0933 671.843 77.912C671.534 77.7253 671.174 77.632 670.763 77.632H667.427V81.64ZM667.427 76.288H670.459C670.801 76.288 671.107 76.216 671.379 76.072C671.657 75.9227 671.875 75.7147 672.035 75.448C672.201 75.1813 672.283 74.8693 672.283 74.512C672.283 74.016 672.115 73.6107 671.779 73.296C671.443 72.9813 671.003 72.824 670.459 72.824H667.427V76.288ZM675.893 83V71.48H682.613V72.904H677.317V76.528H681.653V77.952H677.317V83H675.893ZM687.978 83.24C687.247 83.24 686.583 83.064 685.986 82.712C685.394 82.36 684.922 81.88 684.57 81.272C684.223 80.6587 684.05 79.968 684.05 79.2V75.368C684.05 74.5627 684.223 73.8507 684.57 73.232C684.922 72.608 685.402 72.1227 686.01 71.776C686.623 71.424 687.322 71.248 688.106 71.248C688.74 71.248 689.33 71.3787 689.874 71.64C690.423 71.896 690.884 72.2667 691.258 72.752L690.194 73.696C689.964 73.36 689.666 73.0933 689.298 72.896C688.93 72.6987 688.532 72.6 688.106 72.6C687.599 72.6 687.148 72.7227 686.754 72.968C686.364 73.208 686.058 73.528 685.834 73.928C685.61 74.3227 685.498 74.7493 685.498 75.208V77.52L685.186 77.168C685.522 76.688 685.948 76.304 686.466 76.016C686.983 75.728 687.543 75.584 688.146 75.584C688.86 75.584 689.5 75.752 690.066 76.088C690.636 76.424 691.084 76.88 691.41 77.456C691.74 78.0267 691.906 78.6693 691.906 79.384C691.906 80.0987 691.727 80.7467 691.37 81.328C691.012 81.9093 690.535 82.3733 689.938 82.72C689.346 83.0667 688.692 83.24 687.978 83.24ZM687.978 81.864C688.436 81.864 688.855 81.7547 689.234 81.536C689.612 81.312 689.911 81.0133 690.13 80.64C690.354 80.2613 690.466 79.8427 690.466 79.384C690.466 78.9253 690.354 78.5067 690.13 78.128C689.911 77.7493 689.612 77.4507 689.234 77.232C688.86 77.008 688.444 76.896 687.986 76.896C687.527 76.896 687.108 77.008 686.73 77.232C686.356 77.4507 686.058 77.7493 685.834 78.128C685.61 78.5067 685.498 78.9253 685.498 79.384C685.498 79.8373 685.607 80.2533 685.826 80.632C686.05 81.0053 686.348 81.304 686.722 81.528C687.1 81.752 687.519 81.864 687.978 81.864ZM693.187 83L697.043 71.48H699.027L702.883 83H701.403L697.795 72.312H698.243L694.667 83H693.187ZM695.043 80.304V78.968H701.027V80.304H695.043ZM703.995 82.992L704.003 81.712L709.115 77.112C709.542 76.728 709.827 76.3653 709.971 76.024C710.121 75.6773 710.195 75.3227 710.195 74.96C710.195 74.5173 710.094 74.1173 709.891 73.76C709.689 73.4027 709.411 73.12 709.059 72.912C708.713 72.704 708.318 72.6 707.875 72.6C707.417 72.6 707.009 72.7093 706.651 72.928C706.294 73.1413 706.011 73.4267 705.803 73.784C705.601 74.1413 705.502 74.5307 705.507 74.952H704.051C704.051 74.2267 704.219 73.5867 704.555 73.032C704.891 72.472 705.347 72.0347 705.923 71.72C706.505 71.4 707.163 71.24 707.899 71.24C708.614 71.24 709.254 71.4053 709.819 71.736C710.385 72.0613 710.83 72.5067 711.155 73.072C711.486 73.632 711.651 74.2667 711.651 74.976C711.651 75.4773 711.587 75.912 711.459 76.28C711.337 76.648 711.145 76.9893 710.883 77.304C710.622 77.6133 710.294 77.944 709.899 78.296L705.651 82.112L705.467 81.632H711.651V82.992H703.995ZM712.453 83L716.309 71.48H718.293L722.149 83H720.669L717.061 72.312H717.509L713.933 83H712.453ZM714.309 80.304V78.968H720.293V80.304H714.309Z" fill="#D9D9D9"/>
<path d="M658.587 163.167V160.659H660.204V163.167H658.587ZM658.587 145.49V142.971H660.204V145.49H658.587ZM659.588 161.33C658.54 161.33 657.594 161.143 656.75 160.769C655.914 160.395 655.221 159.867 654.671 159.185C654.129 158.503 653.773 157.696 653.604 156.765L655.177 156.49C655.419 157.502 655.94 158.305 656.739 158.899C657.546 159.486 658.518 159.779 659.654 159.779C660.806 159.779 661.737 159.5 662.448 158.943C663.16 158.378 663.515 157.641 663.515 156.732C663.515 156.057 663.317 155.518 662.921 155.115C662.525 154.712 661.854 154.367 660.908 154.081L657.388 152.981C655.262 152.314 654.198 151.052 654.198 149.197C654.198 148.332 654.411 147.573 654.836 146.92C655.269 146.26 655.867 145.747 656.629 145.38C657.399 145.013 658.298 144.834 659.324 144.841C660.329 144.841 661.227 145.032 662.019 145.413C662.819 145.787 663.475 146.319 663.988 147.008C664.502 147.697 664.843 148.515 665.011 149.461L663.394 149.769C663.292 149.094 663.053 148.504 662.679 147.998C662.313 147.492 661.84 147.1 661.26 146.821C660.681 146.535 660.036 146.388 659.324 146.381C658.65 146.381 658.048 146.498 657.52 146.733C656.992 146.968 656.574 147.294 656.266 147.712C655.966 148.123 655.815 148.596 655.815 149.131C655.815 149.718 656.024 150.216 656.442 150.627C656.868 151.03 657.539 151.371 658.455 151.65L661.48 152.563C662.756 152.944 663.677 153.458 664.241 154.103C664.806 154.748 665.088 155.61 665.088 156.688C665.088 157.619 664.861 158.433 664.406 159.13C663.952 159.827 663.31 160.369 662.481 160.758C661.66 161.139 660.696 161.33 659.588 161.33ZM668.539 161V148.24C668.539 147.932 668.554 147.628 668.583 147.327C668.62 147.026 668.69 146.74 668.792 146.469C668.895 146.19 669.056 145.934 669.276 145.699C669.518 145.435 669.782 145.244 670.068 145.127C670.354 145.002 670.651 144.922 670.959 144.885C671.275 144.848 671.583 144.83 671.883 144.83H673.401V146.194H671.993C671.377 146.194 670.915 146.344 670.607 146.645C670.307 146.946 670.156 147.419 670.156 148.064V161H668.539ZM666.482 150.506V149.12H673.401V150.506H666.482ZM680.496 161.33C679.403 161.33 678.479 161.055 677.724 160.505C676.969 159.948 676.397 159.196 676.008 158.25C675.619 157.297 675.425 156.23 675.425 155.049C675.425 153.846 675.619 152.776 676.008 151.837C676.404 150.891 676.983 150.147 677.746 149.604C678.509 149.061 679.447 148.79 680.562 148.79C681.647 148.79 682.579 149.065 683.356 149.615C684.133 150.165 684.727 150.913 685.138 151.859C685.556 152.805 685.765 153.868 685.765 155.049C685.765 156.237 685.556 157.304 685.138 158.25C684.72 159.196 684.119 159.948 683.334 160.505C682.549 161.055 681.603 161.33 680.496 161.33ZM675.15 166.28V149.12H676.602V158.063H676.778V166.28H675.15ZM680.331 159.823C681.16 159.823 681.849 159.614 682.399 159.196C682.949 158.778 683.36 158.21 683.631 157.491C683.91 156.765 684.049 155.951 684.049 155.049C684.049 154.154 683.913 153.348 683.642 152.629C683.371 151.91 682.956 151.342 682.399 150.924C681.849 150.506 681.149 150.297 680.298 150.297C679.469 150.297 678.78 150.499 678.23 150.902C677.687 151.305 677.28 151.866 677.009 152.585C676.738 153.296 676.602 154.118 676.602 155.049C676.602 155.966 676.738 156.787 677.009 157.513C677.28 158.232 677.691 158.796 678.241 159.207C678.791 159.618 679.488 159.823 680.331 159.823ZM702.349 161L702.36 153.201C702.36 152.284 702.103 151.566 701.59 151.045C701.084 150.517 700.438 150.253 699.654 150.253C699.206 150.253 698.77 150.356 698.345 150.561C697.919 150.766 697.567 151.096 697.289 151.551C697.017 152.006 696.882 152.6 696.882 153.333L695.925 153.058C695.903 152.207 696.068 151.463 696.42 150.825C696.779 150.187 697.27 149.692 697.894 149.34C698.524 148.981 699.236 148.801 700.028 148.801C701.223 148.801 702.18 149.171 702.899 149.912C703.617 150.645 703.977 151.639 703.977 152.893L703.966 161H702.349ZM688.17 161V149.12H689.622V152.046H689.798V161H688.17ZM695.276 161L695.287 153.311C695.287 152.365 695.034 151.621 694.528 151.078C694.029 150.528 693.369 150.253 692.548 150.253C691.726 150.253 691.063 150.535 690.557 151.1C690.051 151.657 689.798 152.402 689.798 153.333L688.83 152.805C688.83 152.042 689.009 151.36 689.369 150.759C689.728 150.15 690.219 149.674 690.843 149.329C691.466 148.977 692.174 148.801 692.966 148.801C693.721 148.801 694.392 148.962 694.979 149.285C695.573 149.608 696.038 150.077 696.376 150.693C696.713 151.309 696.882 152.057 696.882 152.937L696.871 161H695.276ZM707.137 161V159.119H709.018V161H707.137ZM717.343 161.33C716.148 161.33 715.136 161.062 714.307 160.527C713.478 159.992 712.848 159.255 712.415 158.316C711.99 157.37 711.77 156.285 711.755 155.06C711.77 153.813 711.997 152.721 712.437 151.782C712.877 150.836 713.511 150.103 714.34 149.582C715.169 149.054 716.173 148.79 717.354 148.79C718.557 148.79 719.602 149.083 720.489 149.67C721.384 150.257 721.996 151.06 722.326 152.079L720.742 152.585C720.463 151.874 720.02 151.324 719.411 150.935C718.81 150.539 718.12 150.341 717.343 150.341C716.47 150.341 715.748 150.543 715.176 150.946C714.604 151.342 714.179 151.896 713.9 152.607C713.621 153.318 713.478 154.136 713.471 155.06C713.486 156.483 713.816 157.627 714.461 158.492C715.106 159.35 716.067 159.779 717.343 159.779C718.15 159.779 718.835 159.596 719.4 159.229C719.972 158.855 720.405 158.312 720.698 157.601L722.326 158.085C721.886 159.141 721.241 159.948 720.39 160.505C719.539 161.055 718.524 161.33 717.343 161.33ZM729.235 161.33C728.055 161.33 727.046 161.062 726.21 160.527C725.374 159.992 724.733 159.251 724.285 158.305C723.838 157.359 723.614 156.274 723.614 155.049C723.614 153.802 723.842 152.71 724.296 151.771C724.751 150.832 725.396 150.103 726.232 149.582C727.076 149.054 728.077 148.79 729.235 148.79C730.423 148.79 731.435 149.058 732.271 149.593C733.115 150.121 733.756 150.858 734.196 151.804C734.644 152.743 734.867 153.824 734.867 155.049C734.867 156.296 734.644 157.392 734.196 158.338C733.749 159.277 733.104 160.01 732.26 160.538C731.417 161.066 730.409 161.33 729.235 161.33ZM729.235 159.779C730.555 159.779 731.538 159.343 732.183 158.47C732.829 157.59 733.151 156.45 733.151 155.049C733.151 153.612 732.825 152.468 732.172 151.617C731.527 150.766 730.548 150.341 729.235 150.341C728.348 150.341 727.615 150.543 727.035 150.946C726.463 151.342 726.034 151.896 725.748 152.607C725.47 153.311 725.33 154.125 725.33 155.049C725.33 156.479 725.66 157.627 726.32 158.492C726.98 159.35 727.952 159.779 729.235 159.779ZM737.514 161V144.83H739.131V161H737.514ZM747.39 161.33C746.209 161.33 745.201 161.062 744.365 160.527C743.529 159.992 742.887 159.251 742.44 158.305C741.992 157.359 741.769 156.274 741.769 155.049C741.769 153.802 741.996 152.71 742.451 151.771C742.905 150.832 743.551 150.103 744.387 149.582C745.23 149.054 746.231 148.79 747.39 148.79C748.578 148.79 749.59 149.058 750.426 149.593C751.269 150.121 751.911 150.858 752.351 151.804C752.798 152.743 753.022 153.824 753.022 155.049C753.022 156.296 752.798 157.392 752.351 158.338C751.903 159.277 751.258 160.01 750.415 160.538C749.571 161.066 748.563 161.33 747.39 161.33ZM747.39 159.779C748.71 159.779 749.692 159.343 750.338 158.47C750.983 157.59 751.306 156.45 751.306 155.049C751.306 153.612 750.979 152.468 750.327 151.617C749.681 150.766 748.702 150.341 747.39 150.341C746.502 150.341 745.769 150.543 745.19 150.946C744.618 151.342 744.189 151.896 743.903 152.607C743.624 153.311 743.485 154.125 743.485 155.049C743.485 156.479 743.815 157.627 744.475 158.492C745.135 159.35 746.106 159.779 747.39 159.779ZM755.448 161V149.12H756.9V151.98L756.614 151.606C756.746 151.254 756.919 150.931 757.131 150.638C757.344 150.337 757.575 150.092 757.824 149.901C758.132 149.63 758.492 149.424 758.902 149.285C759.313 149.138 759.727 149.054 760.145 149.032C760.563 149.003 760.945 149.032 761.289 149.12V150.638C760.857 150.528 760.384 150.502 759.87 150.561C759.357 150.62 758.884 150.825 758.451 151.177C758.055 151.485 757.758 151.855 757.56 152.288C757.362 152.713 757.23 153.168 757.164 153.652C757.098 154.129 757.065 154.602 757.065 155.071V161H755.448ZM761.922 161V159.119H763.803V161H761.922ZM772.128 161.33C770.933 161.33 769.921 161.062 769.092 160.527C768.263 159.992 767.633 159.255 767.2 158.316C766.775 157.37 766.555 156.285 766.54 155.06C766.555 153.813 766.782 152.721 767.222 151.782C767.662 150.836 768.296 150.103 769.125 149.582C769.954 149.054 770.958 148.79 772.139 148.79C773.342 148.79 774.387 149.083 775.274 149.67C776.169 150.257 776.781 151.06 777.111 152.079L775.527 152.585C775.248 151.874 774.805 151.324 774.196 150.935C773.595 150.539 772.905 150.341 772.128 150.341C771.255 150.341 770.533 150.543 769.961 150.946C769.389 151.342 768.964 151.896 768.685 152.607C768.406 153.318 768.263 154.136 768.256 155.06C768.271 156.483 768.601 157.627 769.246 158.492C769.891 159.35 770.852 159.779 772.128 159.779C772.935 159.779 773.62 159.596 774.185 159.229C774.757 158.855 775.19 158.312 775.483 157.601L777.111 158.085C776.671 159.141 776.026 159.948 775.175 160.505C774.324 161.055 773.309 161.33 772.128 161.33ZM785.85 161C785.182 161.139 784.522 161.194 783.87 161.165C783.224 161.136 782.645 160.996 782.132 160.747C781.626 160.498 781.241 160.109 780.977 159.581C780.764 159.141 780.647 158.697 780.625 158.25C780.61 157.795 780.603 157.278 780.603 156.699V145.82H782.209V156.633C782.209 157.132 782.212 157.55 782.22 157.887C782.234 158.217 782.311 158.51 782.451 158.767C782.715 159.258 783.133 159.552 783.705 159.647C784.284 159.742 784.999 159.72 785.85 159.581V161ZM778.062 150.506V149.12H785.85V150.506H778.062ZM791.589 161.33C790.695 161.33 789.943 161.169 789.334 160.846C788.733 160.523 788.282 160.094 787.981 159.559C787.681 159.024 787.53 158.441 787.53 157.81C787.53 157.165 787.659 156.615 787.915 156.16C788.179 155.698 788.535 155.32 788.982 155.027C789.437 154.734 789.961 154.51 790.555 154.356C791.157 154.209 791.82 154.081 792.546 153.971C793.28 153.854 793.995 153.755 794.691 153.674C795.395 153.586 796.011 153.502 796.539 153.421L795.967 153.773C795.989 152.6 795.762 151.731 795.285 151.166C794.809 150.601 793.98 150.319 792.799 150.319C791.985 150.319 791.296 150.502 790.731 150.869C790.174 151.236 789.782 151.815 789.554 152.607L787.981 152.145C788.253 151.082 788.799 150.257 789.62 149.67C790.442 149.083 791.509 148.79 792.821 148.79C793.907 148.79 794.827 148.995 795.582 149.406C796.345 149.809 796.884 150.396 797.199 151.166C797.346 151.511 797.441 151.896 797.485 152.321C797.529 152.746 797.551 153.179 797.551 153.619V161H796.11V158.019L796.528 158.195C796.125 159.214 795.498 159.992 794.647 160.527C793.797 161.062 792.777 161.33 791.589 161.33ZM791.776 159.933C792.532 159.933 793.192 159.797 793.756 159.526C794.321 159.255 794.776 158.884 795.12 158.415C795.465 157.938 795.689 157.403 795.791 156.809C795.879 156.428 795.927 156.01 795.934 155.555C795.942 155.093 795.945 154.748 795.945 154.521L796.561 154.84C796.011 154.913 795.414 154.987 794.768 155.06C794.13 155.133 793.5 155.218 792.876 155.313C792.26 155.408 791.703 155.522 791.204 155.654C790.867 155.749 790.541 155.885 790.225 156.061C789.91 156.23 789.65 156.457 789.444 156.743C789.246 157.029 789.147 157.385 789.147 157.81C789.147 158.155 789.232 158.488 789.4 158.811C789.576 159.134 789.855 159.401 790.236 159.614C790.625 159.827 791.138 159.933 791.776 159.933ZM800.195 154.763V153.377H806.795V154.763H800.195ZM814.988 161.33C813.896 161.33 812.972 161.055 812.216 160.505C811.461 159.948 810.889 159.196 810.5 158.25C810.112 157.297 809.917 156.23 809.917 155.049C809.917 153.846 810.112 152.776 810.5 151.837C810.896 150.891 811.476 150.147 812.238 149.604C813.001 149.061 813.94 148.79 815.054 148.79C816.14 148.79 817.071 149.065 817.848 149.615C818.626 150.165 819.22 150.913 819.63 151.859C820.048 152.805 820.257 153.868 820.257 155.049C820.257 156.237 820.048 157.304 819.63 158.25C819.212 159.196 818.611 159.948 817.826 160.505C817.042 161.055 816.096 161.33 814.988 161.33ZM809.642 166.28V149.12H811.094V158.063H811.27V166.28H809.642ZM814.823 159.823C815.652 159.823 816.341 159.614 816.891 159.196C817.441 158.778 817.852 158.21 818.123 157.491C818.402 156.765 818.541 155.951 818.541 155.049C818.541 154.154 818.406 153.348 818.134 152.629C817.863 151.91 817.449 151.342 816.891 150.924C816.341 150.506 815.641 150.297 814.79 150.297C813.962 150.297 813.272 150.499 812.722 150.902C812.18 151.305 811.773 151.866 811.501 152.585C811.23 153.296 811.094 154.118 811.094 155.049C811.094 155.966 811.23 156.787 811.501 157.513C811.773 158.232 812.183 158.796 812.733 159.207C813.283 159.618 813.98 159.823 814.823 159.823ZM822.673 161V149.12H824.125V151.98L823.839 151.606C823.971 151.254 824.143 150.931 824.356 150.638C824.568 150.337 824.799 150.092 825.049 149.901C825.357 149.63 825.716 149.424 826.127 149.285C826.537 149.138 826.952 149.054 827.37 149.032C827.788 149.003 828.169 149.032 828.514 149.12V150.638C828.081 150.528 827.608 150.502 827.095 150.561C826.581 150.62 826.108 150.825 825.676 151.177C825.28 151.485 824.983 151.855 824.785 152.288C824.587 152.713 824.455 153.168 824.389 153.652C824.323 154.129 824.29 154.602 824.29 155.071V161H822.673ZM830.821 146.865V145.05H832.438V146.865H830.821ZM830.821 161V149.12H832.438V161H830.821ZM849.903 161L849.914 153.201C849.914 152.284 849.658 151.566 849.144 151.045C848.638 150.517 847.993 150.253 847.208 150.253C846.761 150.253 846.325 150.356 845.899 150.561C845.474 150.766 845.122 151.096 844.843 151.551C844.572 152.006 844.436 152.6 844.436 153.333L843.479 153.058C843.457 152.207 843.622 151.463 843.974 150.825C844.334 150.187 844.825 149.692 845.448 149.34C846.079 148.981 846.79 148.801 847.582 148.801C848.778 148.801 849.735 149.171 850.453 149.912C851.172 150.645 851.531 151.639 851.531 152.893L851.52 161H849.903ZM835.724 161V149.12H837.176V152.046H837.352V161H835.724ZM842.83 161L842.841 153.311C842.841 152.365 842.588 151.621 842.082 151.078C841.584 150.528 840.924 150.253 840.102 150.253C839.281 150.253 838.617 150.535 838.111 151.1C837.605 151.657 837.352 152.402 837.352 153.333L836.384 152.805C836.384 152.042 836.564 151.36 836.923 150.759C837.283 150.15 837.774 149.674 838.397 149.329C839.021 148.977 839.728 148.801 840.52 148.801C841.276 148.801 841.947 148.962 842.533 149.285C843.127 149.608 843.593 150.077 843.93 150.693C844.268 151.309 844.436 152.057 844.436 152.937L844.425 161H842.83ZM857.783 161.33C856.888 161.33 856.136 161.169 855.528 160.846C854.926 160.523 854.475 160.094 854.175 159.559C853.874 159.024 853.724 158.441 853.724 157.81C853.724 157.165 853.852 156.615 854.109 156.16C854.373 155.698 854.728 155.32 855.176 155.027C855.63 154.734 856.155 154.51 856.749 154.356C857.35 154.209 858.014 154.081 858.74 153.971C859.473 153.854 860.188 153.755 860.885 153.674C861.589 153.586 862.205 153.502 862.733 153.421L862.161 153.773C862.183 152.6 861.955 151.731 861.479 151.166C861.002 150.601 860.173 150.319 858.993 150.319C858.179 150.319 857.489 150.502 856.925 150.869C856.367 151.236 855.975 151.815 855.748 152.607L854.175 152.145C854.446 151.082 854.992 150.257 855.814 149.67C856.635 149.083 857.702 148.79 859.015 148.79C860.1 148.79 861.02 148.995 861.776 149.406C862.538 149.809 863.077 150.396 863.393 151.166C863.539 151.511 863.635 151.896 863.679 152.321C863.723 152.746 863.745 153.179 863.745 153.619V161H862.304V158.019L862.722 158.195C862.318 159.214 861.691 159.992 860.841 160.527C859.99 161.062 858.971 161.33 857.783 161.33ZM857.97 159.933C858.725 159.933 859.385 159.797 859.95 159.526C860.514 159.255 860.969 158.884 861.314 158.415C861.658 157.938 861.882 157.403 861.985 156.809C862.073 156.428 862.12 156.01 862.128 155.555C862.135 155.093 862.139 154.748 862.139 154.521L862.755 154.84C862.205 154.913 861.607 154.987 860.962 155.06C860.324 155.133 859.693 155.218 859.07 155.313C858.454 155.408 857.896 155.522 857.398 155.654C857.06 155.749 856.734 155.885 856.419 156.061C856.103 156.23 855.843 156.457 855.638 156.743C855.44 157.029 855.341 157.385 855.341 157.81C855.341 158.155 855.425 158.488 855.594 158.811C855.77 159.134 856.048 159.401 856.43 159.614C856.818 159.827 857.332 159.933 857.97 159.933ZM866.608 161V149.12H868.06V151.98L867.774 151.606C867.906 151.254 868.079 150.931 868.291 150.638C868.504 150.337 868.735 150.092 868.984 149.901C869.292 149.63 869.652 149.424 870.062 149.285C870.473 149.138 870.887 149.054 871.305 149.032C871.723 149.003 872.105 149.032 872.449 149.12V150.638C872.017 150.528 871.544 150.502 871.03 150.561C870.517 150.62 870.044 150.825 869.611 151.177C869.215 151.485 868.918 151.855 868.72 152.288C868.522 152.713 868.39 153.168 868.324 153.652C868.258 154.129 868.225 154.602 868.225 155.071V161H866.608ZM876.08 166.28L878.379 160.043L878.412 161.891L873.209 149.12H874.925L879.193 159.801H878.489L882.427 149.12H884.077L877.697 166.28H876.08ZM884.534 161V159.119H886.415V161H884.534ZM895.146 161.33C894.054 161.33 893.13 161.055 892.374 160.505C891.619 159.948 891.047 159.196 890.658 158.25C890.27 157.297 890.075 156.23 890.075 155.049C890.075 153.846 890.27 152.776 890.658 151.837C891.054 150.891 891.634 150.147 892.396 149.604C893.159 149.061 894.098 148.79 895.212 148.79C896.298 148.79 897.229 149.065 898.006 149.615C898.784 150.165 899.378 150.913 899.788 151.859C900.206 152.805 900.415 153.868 900.415 155.049C900.415 156.237 900.206 157.304 899.788 158.25C899.37 159.196 898.769 159.948 897.984 160.505C897.2 161.055 896.254 161.33 895.146 161.33ZM889.8 161V145.16H891.428V152.057H891.252V161H889.8ZM894.981 159.823C895.81 159.823 896.499 159.614 897.049 159.196C897.599 158.778 898.01 158.21 898.281 157.491C898.56 156.765 898.699 155.951 898.699 155.049C898.699 154.154 898.564 153.348 898.292 152.629C898.021 151.91 897.607 151.342 897.049 150.924C896.499 150.506 895.799 150.297 894.948 150.297C894.12 150.297 893.43 150.499 892.88 150.902C892.338 151.305 891.931 151.866 891.659 152.585C891.388 153.296 891.252 154.118 891.252 155.049C891.252 155.966 891.388 156.787 891.659 157.513C891.931 158.232 892.341 158.796 892.891 159.207C893.441 159.618 894.138 159.823 894.981 159.823ZM906.23 161.33C905.335 161.33 904.584 161.169 903.975 160.846C903.374 160.523 902.923 160.094 902.622 159.559C902.321 159.024 902.171 158.441 902.171 157.81C902.171 157.165 902.299 156.615 902.556 156.16C902.82 155.698 903.176 155.32 903.623 155.027C904.078 154.734 904.602 154.51 905.196 154.356C905.797 154.209 906.461 154.081 907.187 153.971C907.92 153.854 908.635 153.755 909.332 153.674C910.036 153.586 910.652 153.502 911.18 153.421L910.608 153.773C910.63 152.6 910.403 151.731 909.926 151.166C909.449 150.601 908.621 150.319 907.44 150.319C906.626 150.319 905.937 150.502 905.372 150.869C904.815 151.236 904.422 151.815 904.195 152.607L902.622 152.145C902.893 151.082 903.44 150.257 904.261 149.67C905.082 149.083 906.149 148.79 907.462 148.79C908.547 148.79 909.468 148.995 910.223 149.406C910.986 149.809 911.525 150.396 911.84 151.166C911.987 151.511 912.082 151.896 912.126 152.321C912.17 152.746 912.192 153.179 912.192 153.619V161H910.751V158.019L911.169 158.195C910.766 159.214 910.139 159.992 909.288 160.527C908.437 161.062 907.418 161.33 906.23 161.33ZM906.417 159.933C907.172 159.933 907.832 159.797 908.397 159.526C908.962 159.255 909.416 158.884 909.761 158.415C910.106 157.938 910.329 157.403 910.432 156.809C910.52 156.428 910.568 156.01 910.575 155.555C910.582 155.093 910.586 154.748 910.586 154.521L911.202 154.84C910.652 154.913 910.054 154.987 909.409 155.06C908.771 155.133 908.14 155.218 907.517 155.313C906.901 155.408 906.344 155.522 905.845 155.654C905.508 155.749 905.181 155.885 904.866 156.061C904.551 156.23 904.29 156.457 904.085 156.743C903.887 157.029 903.788 157.385 903.788 157.81C903.788 158.155 903.872 158.488 904.041 158.811C904.217 159.134 904.496 159.401 904.877 159.614C905.266 159.827 905.779 159.933 906.417 159.933ZM919.489 161.319C918.095 161.319 916.948 161.018 916.046 160.417C915.151 159.816 914.601 158.98 914.396 157.909L916.046 157.634C916.222 158.309 916.621 158.848 917.245 159.251C917.875 159.647 918.653 159.845 919.577 159.845C920.479 159.845 921.19 159.658 921.711 159.284C922.231 158.903 922.492 158.386 922.492 157.733C922.492 157.366 922.407 157.069 922.239 156.842C922.077 156.607 921.744 156.391 921.238 156.193C920.732 155.995 919.976 155.76 918.972 155.489C917.894 155.196 917.05 154.902 916.442 154.609C915.833 154.316 915.4 153.978 915.144 153.597C914.887 153.208 914.759 152.735 914.759 152.178C914.759 151.503 914.949 150.913 915.331 150.407C915.712 149.894 916.24 149.498 916.915 149.219C917.589 148.933 918.374 148.79 919.269 148.79C920.163 148.79 920.963 148.937 921.667 149.23C922.378 149.516 922.95 149.919 923.383 150.44C923.815 150.961 924.072 151.566 924.153 152.255L922.503 152.552C922.393 151.855 922.044 151.305 921.458 150.902C920.878 150.491 920.141 150.279 919.247 150.264C918.403 150.242 917.718 150.403 917.19 150.748C916.662 151.085 916.398 151.536 916.398 152.101C916.398 152.416 916.493 152.688 916.684 152.915C916.874 153.135 917.219 153.344 917.718 153.542C918.224 153.74 918.942 153.956 919.874 154.191C920.966 154.47 921.824 154.763 922.448 155.071C923.071 155.379 923.515 155.742 923.779 156.16C924.043 156.578 924.175 157.095 924.175 157.711C924.175 158.833 923.757 159.717 922.921 160.362C922.092 161 920.948 161.319 919.489 161.319ZM931.641 161.33C930.483 161.33 929.478 161.073 928.627 160.56C927.784 160.047 927.128 159.324 926.658 158.393C926.189 157.462 925.954 156.369 925.954 155.115C925.954 153.817 926.185 152.695 926.647 151.749C927.109 150.803 927.758 150.073 928.594 149.56C929.438 149.047 930.431 148.79 931.575 148.79C932.749 148.79 933.75 149.061 934.578 149.604C935.407 150.139 936.034 150.909 936.459 151.914C936.885 152.919 937.079 154.118 937.042 155.511H935.392V154.939C935.363 153.399 935.029 152.237 934.391 151.452C933.761 150.667 932.837 150.275 931.619 150.275C930.343 150.275 929.364 150.689 928.682 151.518C928.008 152.347 927.67 153.527 927.67 155.06C927.67 156.556 928.008 157.718 928.682 158.547C929.364 159.368 930.329 159.779 931.575 159.779C932.426 159.779 933.167 159.585 933.797 159.196C934.435 158.8 934.938 158.232 935.304 157.491L936.811 158.074C936.342 159.108 935.649 159.911 934.732 160.483C933.823 161.048 932.793 161.33 931.641 161.33ZM927.098 155.511V154.158H936.173V155.511H927.098Z" fill="white"/>
</svg>
