<svg width="143" height="142" viewBox="0 0 143 142" fill="none" xmlns="http://www.w3.org/2000/svg">
<circle cx="41.5" cy="32" r="17" fill="#EF8435"/>
<circle cx="47.5" cy="32" r="16.5" stroke="white"/>
<circle cx="41.5" cy="100" r="17" fill="#EF8435"/>
<path d="M123.5 15C108.648 15 94.4041 20.9 83.902 31.402C73.4 41.9041 67.5 56.1479 67.5 71C67.5 85.8521 73.4 100.096 83.902 110.598C94.4041 121.1 108.648 127 123.5 127L123.5 71L123.5 15Z" fill="#4AA35C"/>
<mask id="path-5-inside-1_2113_59294" fill="white">
<path d="M133.5 20C119.974 20 107.002 25.3732 97.4376 34.9376C87.8732 44.5019 82.5 57.474 82.5 71C82.5 84.526 87.8732 97.4981 97.4376 107.062C107.002 116.627 119.974 122 133.5 122L133.5 71L133.5 20Z"/>
</mask>
<path d="M133.5 20C119.974 20 107.002 25.3732 97.4376 34.9376C87.8732 44.5019 82.5 57.474 82.5 71C82.5 84.526 87.8732 97.4981 97.4376 107.062C107.002 116.627 119.974 122 133.5 122L133.5 71L133.5 20Z" stroke="white" stroke-width="2" mask="url(#path-5-inside-1_2113_59294)"/>
<circle cx="45.5" cy="100" r="16.5" stroke="white"/>
</svg>
