<svg width="18" height="18" viewBox="0 0 18 18" fill="none" xmlns="http://www.w3.org/2000/svg">
<g clip-path="url(#clip0_3105_22576)">
<path d="M1.53906 9.74984H5.64681C5.77515 12.125 6.53222 14.4234 7.84056 16.4098C6.20176 16.1524 4.69446 15.3592 3.55433 14.1542C2.41419 12.9492 1.7055 11.4004 1.53906 9.74984ZM1.53906 8.24984C1.7055 6.59932 2.41419 5.05048 3.55433 3.84548C4.69446 2.64048 6.20176 1.84726 7.84056 1.58984C6.53222 3.5763 5.77515 5.8747 5.64681 8.24984H1.53906ZM16.4641 8.24984H12.3563C12.228 5.8747 11.4709 3.5763 10.1626 1.58984C11.8014 1.84726 13.3087 2.64048 14.4488 3.84548C15.5889 5.05048 16.2976 6.59932 16.4641 8.24984ZM16.4641 9.74984C16.2976 11.4004 15.5889 12.9492 14.4488 14.1542C13.3087 15.3592 11.8014 16.1524 10.1626 16.4098C11.4709 14.4234 12.228 12.125 12.3563 9.74984H16.4641ZM7.14906 9.74984H10.8541C10.7306 11.7745 10.093 13.7342 9.00156 15.4438C7.91009 13.7342 7.27251 11.7745 7.14906 9.74984ZM7.14906 8.24984C7.27251 6.22523 7.91009 4.26552 9.00156 2.55584C10.093 4.26552 10.7306 6.22523 10.8541 8.24984H7.14906Z" fill="white"/>
</g>
<defs>
<clipPath id="clip0_3105_22576">
<rect width="18" height="18" fill="white"/>
</clipPath>
</defs>
</svg>
