<svg width="572" height="413" viewBox="0 0 572 413" fill="none" xmlns="http://www.w3.org/2000/svg">
<rect x="107" y="74" width="153" height="159" fill="#EBBE52"/>
<rect x="110.5" y="67.5" width="155" height="158" stroke="#222222"/>
<circle cx="528.5" cy="338.5" r="38.5" fill="#EF8435"/>
<path d="M571.124 342.349C571.124 360.779 556.012 375.729 537.359 375.729C518.706 375.729 503.594 360.779 503.594 342.349C503.594 323.919 518.706 308.969 537.359 308.969C556.012 308.969 571.124 323.919 571.124 342.349Z" stroke="#222222"/>
<path d="M452.137 17.4703L482.397 130.4L369.467 100.141L452.137 17.4703Z" fill="#5C2860"/>
<path d="M380.433 99.8817L461.879 18.4362L491.69 129.693L380.433 99.8817Z" stroke="#222222"/>
<circle cx="13" cy="19" r="13" fill="#EF8435"/>
<circle cx="16" cy="17" r="12.5" stroke="#222222"/>
<rect x="199" y="367" width="121" height="42" fill="#4AA35C"/>
<rect x="204.5" y="371.5" width="119" height="41" stroke="#222222"/>
</svg>
