<svg width="16" height="17" viewBox="0 0 16 17" fill="none" xmlns="http://www.w3.org/2000/svg">
<g clip-path="url(#clip0_4059_276599)">
<path fill-rule="evenodd" clip-rule="evenodd" d="M12.6641 7.83268H8.66406V3.83268V3.83268C8.66406 3.46449 8.36559 3.16602 7.9974 3.16602C7.62921 3.16602 7.33073 3.46449 7.33073 3.83268V7.83268H3.33073V7.83268C2.96254 7.83268 2.66406 8.13116 2.66406 8.49935C2.66406 8.86754 2.96254 9.16602 3.33073 9.16602H7.33073V13.166V13.166C7.33073 13.5342 7.62921 13.8327 7.9974 13.8327C8.36559 13.8327 8.66406 13.5342 8.66406 13.166V9.16602H12.6641V9.16602C13.0323 9.16602 13.3307 8.86754 13.3307 8.49935C13.3307 8.13116 13.0323 7.83268 12.6641 7.83268V7.83268Z" fill="#EF8435"/>
</g>
<defs>
<clipPath id="clip0_4059_276599">
<rect width="16" height="16" fill="white" transform="translate(0 0.5)"/>
</clipPath>
</defs>
</svg>
