<svg width="20" height="21" viewBox="0 0 20 21" fill="none" xmlns="http://www.w3.org/2000/svg">
<g clip-path="url(#clip0_2313_288841)">
<path d="M15.0252 14.3449L18.5943 17.9132L17.4152 19.0924L13.8469 15.5232C12.5191 16.5876 10.8677 17.1665 9.16602 17.1641C5.02602 17.1641 1.66602 13.8041 1.66602 9.66406C1.66602 5.52406 5.02602 2.16406 9.16602 2.16406C13.306 2.16406 16.666 5.52406 16.666 9.66406C16.6684 11.3657 16.0895 13.0172 15.0252 14.3449ZM13.3535 13.7266C14.4111 12.639 15.0017 11.1811 14.9993 9.66406C14.9993 6.44073 12.3885 3.83073 9.16602 3.83073C5.94268 3.83073 3.33268 6.44073 3.33268 9.66406C3.33268 12.8866 5.94268 15.4974 9.16602 15.4974C10.683 15.4998 12.1409 14.9092 13.2285 13.8516L13.3535 13.7266Z" fill="#EF8435"/>
</g>
<defs>
<clipPath id="clip0_2313_288841">
<rect width="20" height="20" fill="white" transform="translate(0 0.5)"/>
</clipPath>
</defs>
</svg>
