<svg width="18" height="19" viewBox="0 0 18 19" fill="none" xmlns="http://www.w3.org/2000/svg">
<g clip-path="url(#clip0_4059_276636)">
<path fill-rule="evenodd" clip-rule="evenodd" d="M7.3958 13.9997V13.9997C7.18793 13.999 6.98965 13.9121 6.8483 13.7597L3.2033 9.88222H3.2033C2.91956 9.57984 2.93467 9.10471 3.23705 8.82097C3.53942 8.53723 4.01456 8.55234 4.2983 8.85472V8.85472L7.3883 12.1472L13.6958 5.24722V5.24722C13.9552 4.92425 14.4272 4.87269 14.7502 5.13204C15.0732 5.3914 15.1247 5.86347 14.8654 6.18643C14.8468 6.20951 14.8269 6.23148 14.8058 6.25221L7.9508 13.7522V13.7522C7.81076 13.9074 7.61231 13.9971 7.4033 13.9997L7.3958 13.9997Z" fill="#EF8435"/>
</g>
<defs>
<clipPath id="clip0_4059_276636">
<rect width="18" height="18" fill="white" transform="translate(0 0.5)"/>
</clipPath>
</defs>
</svg>
