<svg width="48" height="38" viewBox="0 0 48 38" fill="none" xmlns="http://www.w3.org/2000/svg">
<g clip-path="url(#clip0_2473_316200)">
<path d="M9.65123 5.0346C9.65123 6.85317 10.0094 8.65394 10.7054 10.3341C11.4013 12.0142 12.4214 13.5408 13.7073 14.8268C14.9932 16.1127 16.5198 17.1327 18.2 17.8287C19.8801 18.5246 21.6809 18.8828 23.4994 18.8828C25.318 18.8828 27.1188 18.5246 28.7989 17.8287C30.4791 17.1327 32.0057 16.1127 33.2916 14.8268C34.5775 13.5408 35.5976 12.0142 36.2935 10.3341C36.9895 8.65394 37.3477 6.85317 37.3477 5.0346L30.6759 5.0346C30.6759 5.97702 30.4902 6.91021 30.1296 7.78089C29.7689 8.65158 29.2403 9.4427 28.5739 10.1091C27.9075 10.7755 27.1164 11.3041 26.2457 11.6647C25.3751 12.0254 24.4419 12.211 23.4994 12.211C22.557 12.211 21.6238 12.0254 20.7531 11.6647C19.8825 11.3041 19.0913 10.7755 18.425 10.1091C17.7586 9.4427 17.2299 8.65158 16.8693 7.78089C16.5087 6.91021 16.323 5.97702 16.323 5.0346L9.65123 5.0346Z" fill="#4AA35C"/>
<path d="M37.3488 32.731C37.3488 30.9125 36.9906 29.1117 36.2946 27.4315C35.5987 25.7514 34.5786 24.2248 33.2927 22.9389C32.0068 21.6529 30.4802 20.6329 28.8 19.9369C27.1199 19.241 25.3191 18.8828 23.5006 18.8828C21.682 18.8828 19.8812 19.241 18.2011 19.9369C16.5209 20.6329 14.9943 21.6529 13.7084 22.9389C12.4225 24.2248 11.4024 25.7514 10.7065 27.4315C10.0105 29.1117 9.65234 30.9125 9.65234 32.731L16.3241 32.731C16.3241 31.7886 16.5098 30.8554 16.8704 29.9847C17.2311 29.114 17.7597 28.3229 18.4261 27.6565C19.0925 26.9901 19.8836 26.4615 20.7543 26.1009C21.6249 25.7402 22.5581 25.5546 23.5006 25.5546C24.443 25.5546 25.3762 25.7402 26.2469 26.1009C27.1175 26.4615 27.9087 26.9901 28.575 27.6565C29.2414 28.3229 29.7701 29.114 30.1307 29.9847C30.4913 30.8554 30.677 31.7886 30.677 32.731L37.3488 32.731Z" fill="#EBBE52"/>
</g>
<defs>
<clipPath id="clip0_2473_316200">
<rect width="48" height="38" fill="white"/>
</clipPath>
</defs>
</svg>
