<svg width="1399" height="452" viewBox="0 0 1399 452" fill="none" xmlns="http://www.w3.org/2000/svg">
<rect width="1399" height="452" fill="#111111"/>
<circle cx="329.887" cy="312.933" r="8" fill="#EF8435"/>
<circle cx="374.701" cy="351.933" r="8" fill="#EF8435"/>
<rect x="343.887" y="305.933" width="55" height="13" fill="#EF8435"/>
<rect x="388.701" y="344.933" width="55" height="15" fill="#EF8435"/>
<circle cx="390.701" cy="270.117" r="8" fill="#4AA35C"/>
<rect x="404.701" y="263.117" width="55" height="13" fill="#4AA35C"/>
<circle cx="260.887" cy="352.433" r="8" fill="#4AA35C"/>
<rect x="274.887" y="345.433" width="55" height="13" fill="#4AA35C"/>
<ellipse cx="268.444" cy="182.749" rx="77.752" ry="77.1528" transform="rotate(-65.4438 268.444 182.749)" fill="#EBBE52"/>
<path d="M301.967 99.5185C340.469 117.11 357.315 162.83 339.582 201.639C321.85 240.449 276.259 257.64 237.757 240.048C199.256 222.456 182.41 176.737 200.142 137.928C217.875 99.1181 263.465 81.9266 301.967 99.5185Z" stroke="white"/>
<path d="M292.542 210.252L364.246 225.475L308.875 281.71L292.542 210.252Z" fill="#5C2860"/>
</svg>
