<svg width="1440" height="515" viewBox="0 0 1440 515" fill="none" xmlns="http://www.w3.org/2000/svg">
<path d="M109.113 54.5566C109.113 61.7211 107.702 68.8154 104.961 75.4345C102.219 82.0537 98.2002 88.0679 93.1341 93.134C88.068 98.2001 82.0537 102.219 75.4346 104.96C68.8155 107.702 61.7212 109.113 54.5567 109.113C47.3922 109.113 40.2979 107.702 33.6787 104.96C27.0596 102.219 21.0453 98.2 15.9793 93.134C10.9132 88.0679 6.89461 82.0536 4.15288 75.4345C1.41115 68.8154 3.51682e-06 61.7211 4.7695e-06 54.5566L54.5567 54.5566L109.113 54.5566Z" fill="#EF8435"/>
<mask id="path-2-inside-1_2153_98708" fill="white">
<path d="M104.876 51.3792C104.876 58.1263 103.547 64.8074 100.965 71.0409C98.3834 77.2745 94.5989 82.9384 89.828 87.7094C85.057 92.4803 79.3931 96.2648 73.1595 98.8469C66.926 101.429 60.2449 102.758 53.4978 102.758C46.7506 102.758 40.0696 101.429 33.836 98.8468C27.6025 96.2648 21.9385 92.4803 17.1676 87.7094C12.3966 82.9384 8.61213 77.2745 6.03011 71.0409C3.44809 64.8074 2.11914 58.1263 2.11915 51.3792L53.4978 51.3792L104.876 51.3792Z"/>
</mask>
<path d="M104.876 51.3792C104.876 58.1263 103.547 64.8074 100.965 71.0409C98.3834 77.2745 94.5989 82.9384 89.828 87.7094C85.057 92.4803 79.3931 96.2648 73.1595 98.8469C66.926 101.429 60.2449 102.758 53.4978 102.758C46.7506 102.758 40.0696 101.429 33.836 98.8468C27.6025 96.2648 21.9385 92.4803 17.1676 87.7094C12.3966 82.9384 8.61213 77.2745 6.03011 71.0409C3.44809 64.8074 2.11914 58.1263 2.11915 51.3792L53.4978 51.3792L104.876 51.3792Z" stroke="white" stroke-width="1.74757" mask="url(#path-2-inside-1_2153_98708)"/>
<circle cx="30.1916" cy="30.1916" r="30.1916" transform="matrix(-1 0 0 1 84.748 29.6621)" fill="#5C2860"/>
<rect x="1375.99" y="77.6133" width="29.7359" height="100.606" fill="#EBBE52"/>
<rect x="1370.95" y="76.1568" width="28.9926" height="99.8623" stroke="white" stroke-width="0.743243"/>
<path d="M1451.68 77.6136C1445.65 77.6136 1439.67 78.8201 1434.09 81.1642C1428.52 83.5083 1423.45 86.9441 1419.18 91.2754C1414.92 95.6067 1411.53 100.749 1409.22 106.408C1406.91 112.067 1405.72 118.133 1405.72 124.258C1405.72 130.383 1406.91 136.449 1409.22 142.108C1411.53 147.767 1414.92 152.909 1419.18 157.241C1423.45 161.572 1428.52 165.008 1434.09 167.352C1439.67 169.696 1445.65 170.902 1451.68 170.902L1451.68 124.258L1451.68 77.6136Z" fill="#EF8435"/>
<mask id="path-7-inside-2_2153_98708" fill="white">
<path d="M1457.99 73.9554C1451.95 73.9554 1445.98 75.1619 1440.4 77.506C1434.83 79.8501 1429.76 83.2859 1425.49 87.6172C1421.23 91.9485 1417.84 97.0906 1415.53 102.75C1413.22 108.409 1412.03 114.474 1412.03 120.6C1412.03 126.725 1413.22 132.791 1415.53 138.45C1417.84 144.109 1421.23 149.251 1425.49 153.582C1429.76 157.914 1434.83 161.349 1440.4 163.694C1445.98 166.038 1451.95 167.244 1457.99 167.244L1457.99 120.6L1457.99 73.9554Z"/>
</mask>
<path d="M1457.99 73.9554C1451.95 73.9554 1445.98 75.1619 1440.4 77.506C1434.83 79.8501 1429.76 83.2859 1425.49 87.6172C1421.23 91.9485 1417.84 97.0906 1415.53 102.75C1413.22 108.409 1412.03 114.474 1412.03 120.6C1412.03 126.725 1413.22 132.791 1415.53 138.45C1417.84 144.109 1421.23 149.251 1425.49 153.582C1429.76 157.914 1434.83 161.349 1440.4 163.694C1445.98 166.038 1451.95 167.244 1457.99 167.244L1457.99 120.6L1457.99 73.9554Z" stroke="white" stroke-width="1.48649" mask="url(#path-7-inside-2_2153_98708)"/>
<path d="M461.687 384.463L489.129 428.398H434.245L461.687 384.463Z" fill="#4AA35C"/>
<path d="M444.163 423.63L471.054 380.576L497.946 423.63H444.163Z" stroke="white" stroke-width="0.610619"/>
<path d="M135.5 372L185.296 450.75H85.7035L135.5 372Z" fill="#5C2860"/>
<path d="M101.923 455.012L157.07 367.75L212.217 455.012H101.923Z" stroke="white" stroke-width="0.920466"/>
<ellipse cx="1356" cy="413.872" rx="49.1787" ry="48.7998" fill="#EF8435"/>
<path d="M1412.66 411.28C1412.66 438.033 1390.8 459.724 1363.83 459.724C1336.87 459.724 1315.01 438.033 1315.01 411.28C1315.01 384.528 1336.87 362.836 1363.83 362.836C1390.8 362.836 1412.66 384.528 1412.66 411.28Z" stroke="white" stroke-width="0.711538"/>
<path d="M1330.32 422.941L1365.75 478.538H1294.89L1330.32 422.941Z" fill="#5C2860"/>
<path d="M1283.36 484.227L1318.14 429.648L1352.92 484.227H1283.36Z" stroke="white" stroke-width="0.711538"/>
<ellipse cx="1302.55" cy="266.721" rx="13.2014" ry="13.3361" fill="#EBBE52"/>
<path d="M1322.8 266.721C1322.8 273.815 1317.11 279.557 1310.1 279.557C1303.09 279.557 1297.4 273.815 1297.4 266.721C1297.4 259.627 1303.09 253.885 1310.1 253.885C1317.11 253.885 1322.8 259.627 1322.8 266.721Z" stroke="white"/>
<circle cx="55.1635" cy="252.779" r="12.7299" fill="#4AA35C"/>
<circle cx="61.226" cy="250.355" r="12.2299" stroke="white"/>
</svg>
