<svg width="480" height="113" viewBox="0 0 480 113" fill="none" xmlns="http://www.w3.org/2000/svg">
<circle cx="130" cy="20" r="20" fill="#EF8435"/>
<path d="M273.5 113L249.684 71.75L297.316 71.75L273.5 113Z" fill="#EABC50"/>
<rect x="336" y="28" width="13.0909" height="48" fill="#4AA35C"/>
<path d="M0 72.2807H103.266C112.237 72.2807 120.992 69.5266 128.347 64.3907L133.914 60.5037C148.614 50.2388 168.629 52.3595 180.852 65.4774V65.4774C195.646 81.3545 221.021 80.6263 234.88 63.927L238.1 60.0467C253.863 41.054 282.817 40.4958 299.3 58.8667L321.246 83.3261C333.981 97.5198 356.252 97.4097 368.846 83.0909V83.0909C374.89 76.2191 383.599 72.2807 392.751 72.2807H479" stroke="white" stroke-linecap="round" stroke-linejoin="round"/>
</svg>
