<svg width="72" height="66" viewBox="0 0 72 66" fill="none" xmlns="http://www.w3.org/2000/svg">
<path d="M65.4548 32.7274C65.4548 41.4072 62.0067 49.7316 55.8691 55.8691C49.7316 62.0067 41.4072 65.4548 32.7274 65.4548C24.0475 65.4548 15.7232 62.0067 9.58563 55.8691C3.44806 49.7316 1.31062e-06 41.4072 0 32.7274H13.9183C13.9183 37.7159 15.9 42.5 19.4273 46.0274C22.9547 49.5548 27.7389 51.5365 32.7274 51.5365C37.7159 51.5365 42.5 49.5548 46.0274 46.0274C49.5548 42.5 51.5365 37.7159 51.5365 32.7274H65.4548Z" fill="#EBBE52"/>
<mask id="path-2-inside-1_2153_98798" fill="white">
<path d="M71.9997 32.7274C71.9997 41.4072 68.5516 49.7316 62.4141 55.8691C56.2765 62.0067 47.9521 65.4548 39.2723 65.4548C30.5925 65.4548 22.2681 62.0067 16.1306 55.8691C9.99298 49.7316 6.54492 41.4072 6.54492 32.7274H20.4632C20.4632 37.7159 22.4449 42.5 25.9723 46.0274C29.4997 49.5548 34.2838 51.5365 39.2723 51.5365C44.2608 51.5365 49.0449 49.5548 52.5723 46.0274C56.0997 42.5 58.0814 37.7159 58.0814 32.7274H71.9997Z"/>
</mask>
<path d="M71.9997 32.7274C71.9997 41.4072 68.5516 49.7316 62.4141 55.8691C56.2765 62.0067 47.9521 65.4548 39.2723 65.4548C30.5925 65.4548 22.2681 62.0067 16.1306 55.8691C9.99298 49.7316 6.54492 41.4072 6.54492 32.7274H20.4632C20.4632 37.7159 22.4449 42.5 25.9723 46.0274C29.4997 49.5548 34.2838 51.5365 39.2723 51.5365C44.2608 51.5365 49.0449 49.5548 52.5723 46.0274C56.0997 42.5 58.0814 37.7159 58.0814 32.7274H71.9997Z" stroke="white" stroke-width="2" mask="url(#path-2-inside-1_2153_98798)"/>
<circle cx="18.7434" cy="19.3391" r="8.62813" fill="#4AA35C"/>
<circle cx="20.5285" cy="19.3391" r="8.12813" stroke="white"/>
<circle cx="47.9016" cy="19.3391" r="8.62813" fill="#4AA35C"/>
<circle cx="50.8762" cy="19.3391" r="8.12813" stroke="white"/>
</svg>
