<svg width="74" height="52" viewBox="0 0 74 52" fill="none" xmlns="http://www.w3.org/2000/svg">
<ellipse cx="7.86243" cy="7.78996" rx="7.86243" ry="7.78996" fill="#EF8435"/>
<path d="M18.0002 7.78996C18.0002 11.8117 14.7083 15.0799 10.6378 15.0799C6.56729 15.0799 3.27539 11.8117 3.27539 7.78996C3.27539 3.76818 6.56729 0.5 10.6378 0.5C14.7083 0.5 18.0002 3.76818 18.0002 7.78996Z" stroke="white"/>
<ellipse cx="7.86243" cy="38.9501" rx="7.86243" ry="7.78996" fill="#EF8435"/>
<path d="M45.7884 0.000166725C38.9194 0.000167022 32.3317 2.70373 27.4745 7.51611C22.6174 12.3285 19.8887 18.8555 19.8887 25.6612C19.8887 32.4669 22.6174 38.9939 27.4745 43.8063C32.3317 48.6187 38.9194 51.3223 45.7884 51.3223L45.7884 25.6612L45.7884 0.000166725Z" fill="#4AA35C"/>
<mask id="path-5-inside-1_2153_98830" fill="white">
<path d="M50.4134 2.29148C44.1577 2.29148 38.1582 4.75366 33.7347 9.13636C29.3113 13.5191 26.8262 19.4633 26.8262 25.6614C26.8262 31.8594 29.3113 37.8037 33.7347 42.1864C38.1582 46.5691 44.1577 49.0312 50.4134 49.0312L50.4134 25.6614L50.4134 2.29148Z"/>
</mask>
<path d="M50.4134 2.29148C44.1577 2.29148 38.1582 4.75366 33.7347 9.13636C29.3113 13.5191 26.8262 19.4633 26.8262 25.6614C26.8262 31.8594 29.3113 37.8037 33.7347 42.1864C38.1582 46.5691 44.1577 49.0312 50.4134 49.0312L50.4134 25.6614L50.4134 2.29148Z" stroke="white" stroke-width="2" mask="url(#path-5-inside-1_2153_98830)"/>
<path d="M17.0745 38.9501C17.0745 42.9719 13.7826 46.2401 9.71203 46.2401C5.6415 46.2401 2.34961 42.9719 2.34961 38.9501C2.34961 34.9283 5.6415 31.6602 9.71203 31.6602C13.7826 31.6602 17.0745 34.9283 17.0745 38.9501Z" stroke="white"/>
</svg>
