<svg width="480" height="105" viewBox="0 0 480 105" fill="none" xmlns="http://www.w3.org/2000/svg">
<path d="M235 31.5C235 27.3634 234.185 23.2672 232.602 19.4455C231.019 15.6237 228.699 12.1512 225.774 9.22614C222.849 6.30109 219.376 3.98082 215.555 2.39779C211.733 0.814771 207.637 -1.80818e-07 203.5 0C199.363 1.80818e-07 195.267 0.814772 191.445 2.3978C187.624 3.98082 184.151 6.30109 181.226 9.22614C178.301 12.1512 175.981 15.6237 174.398 19.4455C172.815 23.2672 172 27.3634 172 31.5L203.5 31.5H235Z" fill="#EF8435"/>
<path d="M280.2 85.6016L263.053 55.9016L297.347 55.9016L280.2 85.6016Z" fill="#EABC50"/>
<path d="M259.8 65.1992L276.947 94.8992H242.653L259.8 65.1992Z" fill="#EABC50"/>
<rect x="320" y="13.3086" width="16.6193" height="61.9448" transform="rotate(-30 320 13.3086)" fill="#4AA35C"/>
<path d="M1 59.2807H104.266C113.237 59.2807 121.992 56.5266 129.347 51.3907L134.914 47.5037C149.614 37.2388 169.629 39.3595 181.852 52.4774V52.4774C196.646 68.3545 222.021 67.6263 235.88 50.927L239.1 47.0467C254.863 28.054 283.817 27.4958 300.3 45.8667L322.246 70.3261C334.981 84.5198 357.252 84.4097 369.846 70.0909V70.0909C375.89 63.2191 384.599 59.2807 393.751 59.2807H480" stroke="white" stroke-linecap="round" stroke-linejoin="round"/>
</svg>
