<svg width="161" height="39" viewBox="0 0 161 39" fill="none" xmlns="http://www.w3.org/2000/svg">
<circle cx="43.5518" cy="7.12797" r="6.70024" fill="#EF8435"/>
<path d="M91.627 38.2832L83.6485 24.464L99.6056 24.464L91.627 38.2832Z" fill="#EABC50"/>
<rect x="112.564" y="9.80859" width="4.38561" height="16.0806" fill="#4AA35C"/>
<path d="M0 24.6434H34.5953C37.6007 24.6434 40.5336 23.7207 42.9978 22.0001L44.8627 20.6979C49.7876 17.259 56.4926 17.9695 60.5874 22.3642V22.3642C65.5436 27.6832 74.0446 27.4392 78.6876 21.8448L79.7664 20.5448C85.0471 14.1821 94.747 13.995 100.269 20.1495L107.621 28.3437C111.887 33.0987 119.349 33.0619 123.568 28.2649V28.2649C125.593 25.9628 128.51 24.6434 131.576 24.6434H160.471" stroke="#333333" stroke-width="0.335012" stroke-linecap="round" stroke-linejoin="round"/>
</svg>
