<svg width="162" height="38" viewBox="0 0 162 38" fill="none" xmlns="http://www.w3.org/2000/svg">
<circle cx="44.5518" cy="6.70024" r="6.70024" fill="#EF8435"/>
<path d="M92.627 37.8555L84.6485 24.0362L100.606 24.0362L92.627 37.8555Z" fill="#EABC50"/>
<rect x="113.564" y="9.38086" width="4.38561" height="16.0806" fill="#4AA35C"/>
<path d="M1 24.2156H35.5953C38.6007 24.2156 41.5336 23.293 43.9978 21.5724L45.8627 20.2702C50.7876 16.8313 57.4926 17.5418 61.5874 21.9364V21.9364C66.5436 27.2555 75.0446 27.0115 79.6876 21.417L80.7664 20.1171C86.0471 13.7543 95.747 13.5673 101.269 19.7218L108.621 27.916C112.887 32.671 120.349 32.6341 124.568 27.8372V27.8372C126.593 25.535 129.51 24.2156 132.576 24.2156H161.471" stroke="white" stroke-width="0.335012" stroke-linecap="round" stroke-linejoin="round"/>
</svg>
