<svg width="436" height="325" viewBox="0 0 436 325" fill="none" xmlns="http://www.w3.org/2000/svg">
<path d="M49.3416 281.251C42.6204 281.251 37.1719 286.944 37.1719 293.966" stroke="white" stroke-linecap="round" stroke-linejoin="round"/>
<path d="M37.1697 293.966C37.1697 286.943 31.7212 281.25 25 281.25" stroke="white" stroke-linecap="round" stroke-linejoin="round"/>
<path d="M36.8181 9.98159L36.7306 9.80176L36.8181 9.98158C45.2686 5.86671 56.994 5.8568 63.4104 13.5773L63.4179 13.5999L63.4414 13.6286C63.5 13.7002 63.5131 13.7586 63.5097 13.8068C63.506 13.8599 63.4802 13.9265 63.4167 14.005C63.2869 14.1656 63.0377 14.3278 62.727 14.451C62.4201 14.5727 62.0784 14.6464 61.7845 14.6485C61.4801 14.6506 61.2789 14.5768 61.186 14.4653C59.7636 12.7566 58.0299 11.3845 56.0399 10.3967C52.0657 8.41636 47.3283 7.95615 43.0263 8.94108C38.1767 10.0505 33.8642 12.8211 30.1812 16.0768C26.2743 19.5271 22.9792 23.4956 19.8806 27.8222C16.7806 32.151 14.0574 36.7435 11.742 41.5454C7.15776 51.0398 4.08027 61.4898 3.09536 72.0198C2.24254 81.1161 3.4664 92.1495 11.8824 97.604C21.4755 103.829 33.1455 100.296 42.5864 95.9537C51.3256 91.9349 59.4175 86.5048 66.5703 80.0438L66.5703 80.0438C73.7695 73.5361 79.9995 65.9735 85.0066 57.6429C87.5827 53.3621 89.8755 48.8778 91.6995 44.2133C93.6692 39.1852 95.0027 33.5965 93.3238 28.235L93.3237 28.2349C91.8284 23.4673 88.0364 20.0704 83.038 19.519C78.179 18.979 73.3161 20.6546 68.8907 22.333C58.2594 26.3642 48.1667 31.7285 38.82 38.2319C38.5984 38.383 38.2295 38.5307 37.8471 38.5983C37.4577 38.6671 37.1057 38.6441 36.8886 38.5123C36.7632 38.4354 36.716 38.3658 36.6989 38.3166C36.6822 38.2689 36.6838 38.2118 36.7146 38.1378C36.7815 37.9777 36.9614 37.7996 37.1679 37.6546L37.1681 37.6544C39.5826 35.9538 42.0506 34.3306 44.5646 32.7925L44.5647 32.7924C49.7074 29.6389 55.0728 26.8407 60.5767 24.3824L60.5767 24.3824C65.7352 22.0755 71.0979 19.8006 76.6236 18.6753L76.5837 18.4793L76.6237 18.6753C81.5422 17.6724 87.1138 17.654 91.2206 20.585C95.3231 23.5131 96.9843 28.7461 96.7864 33.6821L96.7863 33.6822C96.5579 39.4407 94.0749 44.9405 91.5715 50.075L91.5714 50.0753C89.3271 54.6945 86.7074 59.1208 83.7581 63.3234L83.9219 63.4383L83.7581 63.3235C77.8668 71.7215 70.965 79.0062 62.5535 85.4416C54.1395 91.879 44.6038 97.2925 34.4913 100.434L34.4912 100.435C29.4122 102.015 23.5776 102.764 18.1815 101.908C12.7885 101.054 7.84227 98.5989 4.51065 93.7773C-1.30128 85.3614 -0.163546 73.8835 1.7482 64.3057L1.74821 64.3057C3.94647 53.2754 8.15928 42.6464 14.0725 33.1066C16.9985 28.3868 20.4451 23.799 24.1126 19.8225C27.7783 15.848 31.9653 12.3439 36.8181 9.98159Z" fill="white" stroke="white" stroke-width="0.4"/>
<path d="M62 3L435 1" stroke="white" stroke-linecap="round" stroke-linejoin="round"/>
<path d="M37 27L37 278" stroke="white" stroke-linecap="round" stroke-linejoin="round"/>
</svg>
