<svg width="1440" height="425" viewBox="0 0 1440 425" fill="none" xmlns="http://www.w3.org/2000/svg">
<path d="M1242.66 52.4395L1247.86 67.2395L1262.66 72.4395H1242.66V52.4395Z" fill="#EF8435"/>
<path d="M1242.66 52.4395L1237.46 67.2395L1222.66 72.4395H1242.66V52.4395Z" fill="#EF8435"/>
<path d="M1242.66 92.4395L1237.46 77.6395L1222.66 72.4395H1242.66V92.4395Z" fill="#EF8435"/>
<path d="M1242.66 92.4395L1247.86 77.6395L1262.66 72.4395H1242.66V92.4395Z" fill="#EF8435"/>
<path d="M173.594 388.396L178.274 401.716L191.594 406.396H173.594V388.396Z" fill="#4AA35C"/>
<path d="M173.594 388.396L168.914 401.716L155.594 406.396H173.594V388.396Z" fill="#4AA35C"/>
<path d="M173.594 424.396L168.914 411.076L155.594 406.396H173.594V424.396Z" fill="#4AA35C"/>
<path d="M173.594 424.396L178.274 411.076L191.594 406.396H173.594V424.396Z" fill="#4AA35C"/>
<path d="M228 0L228.376 13.6098C228.708 25.6279 238.372 35.2924 250.39 35.6242L264 36L250.39 36.3758C238.372 36.7076 228.708 46.3721 228.376 58.3902L228 72L227.624 58.3902C227.292 46.3721 217.628 36.7076 205.61 36.3758L192 36L205.61 35.6242C217.628 35.2924 227.292 25.6279 227.624 13.6098L228 0Z" fill="#EBBE52"/>
<rect y="222" width="64" height="4" fill="#EF8435"/>
<rect x="1184" y="222" width="64" height="4" fill="#EF8435"/>
<rect x="64" y="222" width="64" height="4" fill="#4AA35C"/>
<rect x="1248" y="222" width="64" height="4" fill="#4AA35C"/>
<rect x="128" y="222" width="64" height="4" fill="#EBBE52"/>
<rect x="1312" y="222" width="64" height="4" fill="#EBBE52"/>
<rect x="192" y="222" width="64" height="4" fill="#5C2860"/>
<rect x="1376" y="222" width="64" height="4" fill="#5C2860"/>
</svg>
