<svg width="201" height="30" viewBox="0 0 201 30" fill="none" xmlns="http://www.w3.org/2000/svg">
<path d="M13.231 29.2575C10.495 29.2575 8.15167 28.6622 6.201 27.4715C4.25033 26.2682 2.74933 24.5962 1.698 22.4555C0.659333 20.3148 0.14 17.8322 0.14 15.0075C0.14 12.1828 0.659333 9.70017 1.698 7.5595C2.74933 5.41883 4.25033 3.75317 6.201 2.5625C8.15167 1.35917 10.495 0.757499 13.231 0.757499C16.385 0.757499 19.0133 1.54917 21.116 3.1325C23.2187 4.70317 24.6943 6.82483 25.543 9.4975L20.926 10.7705C20.394 8.9845 19.4883 7.59116 18.209 6.5905C16.9297 5.57717 15.2703 5.0705 13.231 5.0705C11.3943 5.0705 9.86167 5.48217 8.633 6.3055C7.417 7.12883 6.49867 8.28783 5.878 9.7825C5.27 11.2645 4.95967 13.0062 4.947 15.0075C4.947 17.0088 5.251 18.7568 5.859 20.2515C6.47967 21.7335 7.40433 22.8862 8.633 23.7095C9.86167 24.5328 11.3943 24.9445 13.231 24.9445C15.2703 24.9445 16.9297 24.4378 18.209 23.4245C19.4883 22.4112 20.394 21.0178 20.926 19.2445L25.543 20.5175C24.6943 23.1902 23.2187 25.3182 21.116 26.9015C19.0133 28.4722 16.385 29.2575 13.231 29.2575ZM38.7777 29.2575C36.7257 29.2575 34.9334 28.7952 33.4007 27.8705C31.868 26.9458 30.6774 25.6728 29.8287 24.0515C28.9927 22.4175 28.5747 20.5428 28.5747 18.4275C28.5747 16.2742 29.0054 14.3868 29.8667 12.7655C30.728 11.1442 31.925 9.8775 33.4577 8.9655C34.9904 8.0535 36.7637 7.5975 38.7777 7.5975C40.8424 7.5975 42.641 8.05983 44.1737 8.9845C45.7064 9.90917 46.897 11.1885 47.7457 12.8225C48.5944 14.4438 49.0187 16.3122 49.0187 18.4275C49.0187 20.5555 48.588 22.4365 47.7267 24.0705C46.878 25.6918 45.6874 26.9648 44.1547 27.8895C42.622 28.8015 40.8297 29.2575 38.7777 29.2575ZM38.7777 24.9635C40.6017 24.9635 41.957 24.3555 42.8437 23.1395C43.7304 21.9235 44.1737 20.3528 44.1737 18.4275C44.1737 16.4388 43.724 14.8555 42.8247 13.6775C41.9254 12.4868 40.5764 11.8915 38.7777 11.8915C37.549 11.8915 36.5357 12.1702 35.7377 12.7275C34.9524 13.2722 34.3697 14.0385 33.9897 15.0265C33.6097 16.0018 33.4197 17.1355 33.4197 18.4275C33.4197 20.4162 33.8694 22.0058 34.7687 23.1965C35.6807 24.3745 37.017 24.9635 38.7777 24.9635ZM67.3979 28.6875V18.8075C67.3979 18.1615 67.3536 17.4458 67.2649 16.6605C67.1763 15.8752 66.9673 15.1215 66.6379 14.3995C66.3213 13.6648 65.8399 13.0632 65.1939 12.5945C64.5606 12.1258 63.6993 11.8915 62.6099 11.8915C62.0273 11.8915 61.4509 11.9865 60.8809 12.1765C60.3109 12.3665 59.7916 12.6958 59.3229 13.1645C58.8669 13.6205 58.4996 14.2538 58.2209 15.0645C57.9423 15.8625 57.8029 16.8885 57.8029 18.1425L55.0859 16.9835C55.0859 15.2355 55.4216 13.6522 56.0929 12.2335C56.7769 10.8148 57.7776 9.6875 59.0949 8.8515C60.4123 8.00283 62.0336 7.5785 63.9589 7.5785C65.4789 7.5785 66.7329 7.83183 67.7209 8.3385C68.7089 8.84517 69.4943 9.49117 70.0769 10.2765C70.6596 11.0618 71.0903 11.8978 71.3689 12.7845C71.6476 13.6712 71.8249 14.5135 71.9009 15.3115C71.9896 16.0968 72.0339 16.7365 72.0339 17.2305V28.6875H67.3979ZM53.1669 28.6875V8.1675H57.2519V14.5325H57.8029V28.6875H53.1669ZM89.019 28.6875C87.6637 28.9408 86.3337 29.0485 85.029 29.0105C83.737 28.9852 82.578 28.7508 81.552 28.3075C80.526 27.8515 79.747 27.1358 79.215 26.1605C78.7464 25.2738 78.4994 24.3682 78.474 23.4435C78.4487 22.5188 78.436 21.4738 78.436 20.3085V2.4675H82.996V20.0425C82.996 20.8658 83.0024 21.5878 83.015 22.2085C83.0404 22.8292 83.1734 23.3358 83.414 23.7285C83.87 24.4885 84.5984 24.9128 85.599 25.0015C86.5997 25.0902 87.7397 25.0395 89.019 24.8495V28.6875ZM74.712 11.7585V8.1675H89.019V11.7585H74.712ZM93.4315 28.6875V8.1675H97.4785V13.1645L96.9845 12.5185C97.2378 11.8345 97.5735 11.2138 97.9915 10.6565C98.4222 10.0865 98.9352 9.61783 99.5305 9.2505C100.037 8.9085 100.594 8.6425 101.202 8.4525C101.823 8.24983 102.456 8.1295 103.102 8.0915C103.748 8.04083 104.375 8.06617 104.983 8.1675V12.4425C104.375 12.2652 103.672 12.2082 102.874 12.2715C102.089 12.3348 101.38 12.5565 100.746 12.9365C100.113 13.2785 99.5938 13.7155 99.1885 14.2475C98.7958 14.7795 98.5045 15.3875 98.3145 16.0715C98.1245 16.7428 98.0295 17.4712 98.0295 18.2565V28.6875H93.4315ZM108.989 5.0515V0.852499H113.568V5.0515H108.989ZM108.989 28.6875V8.1675H113.568V28.6875H108.989ZM129.121 29.2575C127.119 29.2575 125.441 28.7825 124.086 27.8325C122.73 26.8825 121.711 25.5905 121.027 23.9565C120.343 22.3098 120.001 20.4668 120.001 18.4275C120.001 16.3628 120.343 14.5135 121.027 12.8795C121.711 11.2455 122.711 9.95983 124.029 9.0225C125.359 8.0725 126.999 7.5975 128.95 7.5975C130.888 7.5975 132.566 8.0725 133.985 9.0225C135.416 9.95983 136.524 11.2455 137.31 12.8795C138.095 14.5008 138.488 16.3502 138.488 18.4275C138.488 20.4795 138.101 22.3225 137.329 23.9565C136.556 25.5905 135.467 26.8825 134.061 27.8325C132.655 28.7825 131.008 29.2575 129.121 29.2575ZM119.222 28.6875V1.3275H123.839V14.2855H123.269V28.6875H119.222ZM128.418 25.1535C129.608 25.1535 130.59 24.8558 131.363 24.2605C132.135 23.6652 132.705 22.8608 133.073 21.8475C133.453 20.8215 133.643 19.6815 133.643 18.4275C133.643 17.1862 133.453 16.0588 133.073 15.0455C132.693 14.0195 132.104 13.2088 131.306 12.6135C130.508 12.0055 129.494 11.7015 128.266 11.7015C127.1 11.7015 126.15 11.9865 125.416 12.5565C124.681 13.1138 124.136 13.8992 123.782 14.9125C123.44 15.9132 123.269 17.0848 123.269 18.4275C123.269 19.7575 123.44 20.9292 123.782 21.9425C124.136 22.9558 124.687 23.7475 125.435 24.3175C126.195 24.8748 127.189 25.1535 128.418 25.1535ZM150.371 29.2765C148.851 29.2765 147.597 29.0232 146.609 28.5165C145.621 28.0098 144.835 27.3638 144.253 26.5785C143.67 25.7932 143.239 24.9572 142.961 24.0705C142.682 23.1838 142.498 22.3478 142.41 21.5625C142.334 20.7645 142.296 20.1185 142.296 19.6245V8.1675H146.932V18.0475C146.932 18.6808 146.976 19.3965 147.065 20.1945C147.153 20.9798 147.356 21.7398 147.673 22.4745C148.002 23.1965 148.483 23.7918 149.117 24.2605C149.763 24.7292 150.63 24.9635 151.72 24.9635C152.302 24.9635 152.879 24.8685 153.449 24.6785C154.019 24.4885 154.532 24.1655 154.988 23.7095C155.456 23.2408 155.83 22.6012 156.109 21.7905C156.387 20.9798 156.527 19.9538 156.527 18.7125L159.244 19.8715C159.244 21.6195 158.902 23.2028 158.218 24.6215C157.546 26.0402 156.552 27.1738 155.235 28.0225C153.917 28.8585 152.296 29.2765 150.371 29.2765ZM157.078 28.6875V22.3225H156.527V8.1675H161.125V28.6875H157.078ZM178.49 28.6875C177.134 28.9408 175.804 29.0485 174.5 29.0105C173.208 28.9852 172.049 28.7508 171.023 28.3075C169.997 27.8515 169.218 27.1358 168.686 26.1605C168.217 25.2738 167.97 24.3682 167.945 23.4435C167.919 22.5188 167.907 21.4738 167.907 20.3085V2.4675H172.467V20.0425C172.467 20.8658 172.473 21.5878 172.486 22.2085C172.511 22.8292 172.644 23.3358 172.885 23.7285C173.341 24.4885 174.069 24.9128 175.07 25.0015C176.07 25.0902 177.21 25.0395 178.49 24.8495V28.6875ZM164.183 11.7585V8.1675H178.49V11.7585H164.183ZM191.192 29.2575C189.115 29.2575 187.291 28.8078 185.72 27.9085C184.149 27.0092 182.921 25.7615 182.034 24.1655C181.16 22.5695 180.723 20.7328 180.723 18.6555C180.723 16.4135 181.154 14.4692 182.015 12.8225C182.876 11.1632 184.073 9.8775 185.606 8.9655C187.139 8.0535 188.912 7.5975 190.926 7.5975C193.054 7.5975 194.859 8.09783 196.341 9.0985C197.836 10.0865 198.944 11.4862 199.666 13.2975C200.388 15.1088 200.66 17.2432 200.483 19.7005H195.942V18.0285C195.929 15.7992 195.537 14.1715 194.764 13.1455C193.991 12.1195 192.775 11.6065 191.116 11.6065C189.241 11.6065 187.848 12.1892 186.936 13.3545C186.024 14.5072 185.568 16.1982 185.568 18.4275C185.568 20.5048 186.024 22.1135 186.936 23.2535C187.848 24.3935 189.178 24.9635 190.926 24.9635C192.053 24.9635 193.022 24.7165 193.833 24.2225C194.656 23.7158 195.29 22.9875 195.733 22.0375L200.255 23.4055C199.47 25.2548 198.254 26.6925 196.607 27.7185C194.973 28.7445 193.168 29.2575 191.192 29.2575ZM184.124 19.7005V16.2425H198.241V19.7005H184.124Z" fill="white"/>
</svg>
