<svg width="399" height="38" viewBox="0 0 399 38" fill="none" xmlns="http://www.w3.org/2000/svg">
<path d="M0.66 28V0.639999H9.381C9.609 0.639999 10.0587 0.646333 10.73 0.659C11.414 0.671666 12.0727 0.715999 12.706 0.791999C14.872 1.07067 16.7023 1.84333 18.197 3.11C19.7043 4.364 20.8443 5.96633 21.617 7.917C22.3897 9.86767 22.776 12.002 22.776 14.32C22.776 16.638 22.3897 18.7723 21.617 20.723C20.8443 22.6737 19.7043 24.2823 18.197 25.549C16.7023 26.803 14.872 27.5693 12.706 27.848C12.0853 27.924 11.433 27.9683 10.749 27.981C10.065 27.9937 9.609 28 9.381 28H0.66ZM5.315 23.687H9.381C9.761 23.687 10.2423 23.6743 10.825 23.649C11.4203 23.6237 11.946 23.5667 12.402 23.478C13.694 23.2373 14.7453 22.661 15.556 21.749C16.3667 20.837 16.962 19.7287 17.342 18.424C17.7347 17.1193 17.931 15.7513 17.931 14.32C17.931 12.838 17.7347 11.4447 17.342 10.14C16.9493 8.83533 16.3413 7.73967 15.518 6.853C14.7073 5.96633 13.6687 5.40267 12.402 5.162C11.946 5.06067 11.4203 5.00367 10.825 4.991C10.2423 4.96567 9.761 4.953 9.381 4.953H5.315V23.687ZM33.0054 28.57C31.5234 28.57 30.2694 28.2913 29.2434 27.734C28.2174 27.164 27.4384 26.4103 26.9064 25.473C26.3871 24.5357 26.1274 23.5033 26.1274 22.376C26.1274 21.388 26.2921 20.5013 26.6214 19.716C26.9508 18.918 27.4574 18.234 28.1414 17.664C28.8254 17.0813 29.7121 16.6063 30.8014 16.239C31.6248 15.973 32.5874 15.7323 33.6894 15.517C34.8041 15.3017 36.0074 15.1053 37.2994 14.928C38.6041 14.738 39.9658 14.5353 41.3844 14.32L39.7504 15.251C39.7631 13.8323 39.4464 12.7873 38.8004 12.116C38.1544 11.4447 37.0651 11.109 35.5324 11.109C34.6078 11.109 33.7148 11.3243 32.8534 11.755C31.9921 12.1857 31.3904 12.9267 31.0484 13.978L26.8684 12.667C27.3751 10.9317 28.3378 9.53833 29.7564 8.487C31.1878 7.43567 33.1131 6.91 35.5324 6.91C37.3564 6.91 38.9588 7.20767 40.3394 7.803C41.7328 8.39833 42.7651 9.37367 43.4364 10.729C43.8038 11.451 44.0254 12.192 44.1014 12.952C44.1774 13.6993 44.2154 14.5163 44.2154 15.403V28H40.2064V23.554L40.8714 24.276C39.9468 25.758 38.8638 26.8473 37.6224 27.544C36.3938 28.228 34.8548 28.57 33.0054 28.57ZM33.9174 24.922C34.9561 24.922 35.8428 24.7383 36.5774 24.371C37.3121 24.0037 37.8948 23.554 38.3254 23.022C38.7688 22.49 39.0664 21.9897 39.2184 21.521C39.4591 20.9383 39.5921 20.2733 39.6174 19.526C39.6554 18.766 39.6744 18.1517 39.6744 17.683L41.0804 18.101C39.6998 18.3163 38.5154 18.5063 37.5274 18.671C36.5394 18.8357 35.6908 18.994 34.9814 19.146C34.2721 19.2853 33.6451 19.4437 33.1004 19.621C32.5684 19.811 32.1188 20.0327 31.7514 20.286C31.3841 20.5393 31.0991 20.8307 30.8964 21.16C30.7064 21.4893 30.6114 21.8757 30.6114 22.319C30.6114 22.8257 30.7381 23.2753 30.9914 23.668C31.2448 24.048 31.6121 24.352 32.0934 24.58C32.5874 24.808 33.1954 24.922 33.9174 24.922ZM49.162 28V7.48H53.209V12.477L52.715 11.831C52.9683 11.147 53.304 10.5263 53.722 9.969C54.1526 9.399 54.6656 8.93033 55.261 8.563C55.7676 8.221 56.325 7.955 56.933 7.765C57.5536 7.56233 58.187 7.442 58.833 7.404C59.479 7.35333 60.106 7.37867 60.714 7.48V11.755C60.106 11.5777 59.403 11.5207 58.605 11.584C57.8196 11.6473 57.1103 11.869 56.477 12.249C55.8436 12.591 55.3243 13.028 54.919 13.56C54.5263 14.092 54.235 14.7 54.045 15.384C53.855 16.0553 53.76 16.7837 53.76 17.569V28H49.162ZM64.3017 28L64.3397 0.639999H68.9757V17.36L76.4807 7.48H82.1997L74.2387 17.74L82.8837 28H76.8227L68.9757 18.12V28H64.3017ZM117.037 28V15.536C117.037 14.13 116.689 13.0343 115.992 12.249C115.296 11.451 114.352 11.052 113.161 11.052C112.427 11.052 111.768 11.223 111.185 11.565C110.603 11.8943 110.14 12.3883 109.798 13.047C109.456 13.693 109.285 14.4657 109.285 15.365L107.252 14.168C107.24 12.7493 107.556 11.5017 108.202 10.425C108.861 9.33567 109.748 8.487 110.862 7.879C111.977 7.271 113.218 6.967 114.586 6.967C116.854 6.967 118.589 7.651 119.792 9.019C121.008 10.3743 121.616 12.1603 121.616 14.377V28H117.037ZM92.3564 28V7.48H96.4034V13.845H96.9734V28H92.3564ZM104.725 28V15.593C104.725 14.1617 104.377 13.047 103.68 12.249C102.984 11.451 102.034 11.052 100.83 11.052C99.665 11.052 98.7277 11.451 98.0184 12.249C97.3217 13.047 96.9734 14.0857 96.9734 15.365L94.9214 13.997C94.9214 12.667 95.2507 11.47 95.9094 10.406C96.568 9.342 97.4547 8.506 98.5694 7.898C99.6967 7.27733 100.957 6.967 102.35 6.967C103.883 6.967 105.162 7.29633 106.188 7.955C107.227 8.601 108 9.48767 108.506 10.615C109.026 11.7297 109.285 12.99 109.285 14.396V28H104.725ZM135.301 28.57C133.249 28.57 131.457 28.1077 129.924 27.183C128.391 26.2583 127.201 24.9853 126.352 23.364C125.516 21.73 125.098 19.8553 125.098 17.74C125.098 15.5867 125.529 13.6993 126.39 12.078C127.251 10.4567 128.448 9.19 129.981 8.278C131.514 7.366 133.287 6.91 135.301 6.91C137.366 6.91 139.164 7.37233 140.697 8.297C142.23 9.22167 143.42 10.501 144.269 12.135C145.118 13.7563 145.542 15.6247 145.542 17.74C145.542 19.868 145.111 21.749 144.25 23.383C143.401 25.0043 142.211 26.2773 140.678 27.202C139.145 28.114 137.353 28.57 135.301 28.57ZM135.301 24.276C137.125 24.276 138.48 23.668 139.367 22.452C140.254 21.236 140.697 19.6653 140.697 17.74C140.697 15.7513 140.247 14.168 139.348 12.99C138.449 11.7993 137.1 11.204 135.301 11.204C134.072 11.204 133.059 11.4827 132.261 12.04C131.476 12.5847 130.893 13.351 130.513 14.339C130.133 15.3143 129.943 16.448 129.943 17.74C129.943 19.7287 130.393 21.3183 131.292 22.509C132.204 23.687 133.54 24.276 135.301 24.276ZM157.955 28.57C156.068 28.57 154.421 28.095 153.015 27.145C151.609 26.195 150.52 24.903 149.747 23.269C148.975 21.635 148.588 19.792 148.588 17.74C148.588 15.6627 148.975 13.8133 149.747 12.192C150.533 10.558 151.641 9.27233 153.072 8.335C154.504 7.385 156.188 6.91 158.126 6.91C160.077 6.91 161.711 7.385 163.028 8.335C164.358 9.27233 165.365 10.558 166.049 12.192C166.733 13.826 167.075 15.6753 167.075 17.74C167.075 19.7793 166.733 21.6223 166.049 23.269C165.365 24.903 164.346 26.195 162.99 27.145C161.635 28.095 159.957 28.57 157.955 28.57ZM158.658 24.466C159.887 24.466 160.875 24.1873 161.622 23.63C162.382 23.06 162.933 22.2683 163.275 21.255C163.63 20.2417 163.807 19.07 163.807 17.74C163.807 16.3973 163.63 15.2257 163.275 14.225C162.933 13.2117 162.395 12.4263 161.66 11.869C160.926 11.299 159.976 11.014 158.81 11.014C157.582 11.014 156.568 11.318 155.77 11.926C154.972 12.5213 154.383 13.332 154.003 14.358C153.623 15.3713 153.433 16.4987 153.433 17.74C153.433 18.994 153.617 20.134 153.984 21.16C154.364 22.1733 154.941 22.9777 155.713 23.573C156.486 24.1683 157.468 24.466 158.658 24.466ZM163.807 28V13.598H163.237V0.639999H167.854V28H163.807ZM182.51 28.57C180.433 28.57 178.609 28.1203 177.038 27.221C175.468 26.3217 174.239 25.074 173.352 23.478C172.478 21.882 172.041 20.0453 172.041 17.968C172.041 15.726 172.472 13.7817 173.333 12.135C174.195 10.4757 175.392 9.19 176.924 8.278C178.457 7.366 180.23 6.91 182.244 6.91C184.372 6.91 186.177 7.41033 187.659 8.411C189.154 9.399 190.262 10.7987 190.984 12.61C191.706 14.4213 191.979 16.5557 191.801 19.013H187.26V17.341C187.248 15.1117 186.855 13.484 186.082 12.458C185.31 11.432 184.094 10.919 182.434 10.919C180.56 10.919 179.166 11.5017 178.254 12.667C177.342 13.8197 176.886 15.5107 176.886 17.74C176.886 19.8173 177.342 21.426 178.254 22.566C179.166 23.706 180.496 24.276 182.244 24.276C183.372 24.276 184.341 24.029 185.151 23.535C185.975 23.0283 186.608 22.3 187.051 21.35L191.573 22.718C190.788 24.5673 189.572 26.005 187.925 27.031C186.291 28.057 184.486 28.57 182.51 28.57ZM175.442 19.013V15.555H189.559V19.013H175.442ZM203.648 28V0.639999H220.121V5.219H208.227V12.04H217.841V16.6H208.227V28H203.648ZM232.045 28.57C229.993 28.57 228.201 28.1077 226.668 27.183C225.136 26.2583 223.945 24.9853 223.096 23.364C222.26 21.73 221.842 19.8553 221.842 17.74C221.842 15.5867 222.273 13.6993 223.134 12.078C223.996 10.4567 225.193 9.19 226.725 8.278C228.258 7.366 230.031 6.91 232.045 6.91C234.11 6.91 235.909 7.37233 237.441 8.297C238.974 9.22167 240.165 10.501 241.013 12.135C241.862 13.7563 242.286 15.6247 242.286 17.74C242.286 19.868 241.856 21.749 240.994 23.383C240.146 25.0043 238.955 26.2773 237.422 27.202C235.89 28.114 234.097 28.57 232.045 28.57ZM232.045 24.276C233.869 24.276 235.225 23.668 236.111 22.452C236.998 21.236 237.441 19.6653 237.441 17.74C237.441 15.7513 236.992 14.168 236.092 12.99C235.193 11.7993 233.844 11.204 232.045 11.204C230.817 11.204 229.803 11.4827 229.005 12.04C228.22 12.5847 227.637 13.351 227.257 14.339C226.877 15.3143 226.687 16.448 226.687 17.74C226.687 19.7287 227.137 21.3183 228.036 22.509C228.948 23.687 230.285 24.276 232.045 24.276ZM246.473 28V7.48H250.52V12.477L250.026 11.831C250.279 11.147 250.615 10.5263 251.033 9.969C251.463 9.399 251.976 8.93033 252.572 8.563C253.078 8.221 253.636 7.955 254.244 7.765C254.864 7.56233 255.498 7.442 256.144 7.404C256.79 7.35333 257.417 7.37867 258.025 7.48V11.755C257.417 11.5777 256.714 11.5207 255.916 11.584C255.13 11.6473 254.421 11.869 253.788 12.249C253.154 12.591 252.635 13.028 252.23 13.56C251.837 14.092 251.546 14.7 251.356 15.384C251.166 16.0553 251.071 16.7837 251.071 17.569V28H246.473ZM269.638 28V0.639999H274.217V28H269.638ZM304.551 28V15.536C304.551 14.13 304.203 13.0343 303.506 12.249C302.809 11.451 301.866 11.052 300.675 11.052C299.94 11.052 299.282 11.223 298.699 11.565C298.116 11.8943 297.654 12.3883 297.312 13.047C296.97 13.693 296.799 14.4657 296.799 15.365L294.766 14.168C294.753 12.7493 295.07 11.5017 295.716 10.425C296.375 9.33567 297.261 8.487 298.376 7.879C299.491 7.271 300.732 6.967 302.1 6.967C304.367 6.967 306.103 7.651 307.306 9.019C308.522 10.3743 309.13 12.1603 309.13 14.377V28H304.551ZM279.87 28V7.48H283.917V13.845H284.487V28H279.87ZM292.239 28V15.593C292.239 14.1617 291.891 13.047 291.194 12.249C290.497 11.451 289.547 11.052 288.344 11.052C287.179 11.052 286.241 11.451 285.532 12.249C284.835 13.047 284.487 14.0857 284.487 15.365L282.435 13.997C282.435 12.667 282.764 11.47 283.423 10.406C284.082 9.342 284.968 8.506 286.083 7.898C287.21 7.27733 288.471 6.967 289.864 6.967C291.397 6.967 292.676 7.29633 293.702 7.955C294.741 8.601 295.513 9.48767 296.02 10.615C296.539 11.7297 296.799 12.99 296.799 14.396V28H292.239ZM319.824 28.57C318.342 28.57 317.088 28.2913 316.062 27.734C315.036 27.164 314.257 26.4103 313.725 25.473C313.205 24.5357 312.946 23.5033 312.946 22.376C312.946 21.388 313.11 20.5013 313.44 19.716C313.769 18.918 314.276 18.234 314.96 17.664C315.644 17.0813 316.53 16.6063 317.62 16.239C318.443 15.973 319.406 15.7323 320.508 15.517C321.622 15.3017 322.826 15.1053 324.118 14.928C325.422 14.738 326.784 14.5353 328.203 14.32L326.569 15.251C326.581 13.8323 326.265 12.7873 325.619 12.116C324.973 11.4447 323.883 11.109 322.351 11.109C321.426 11.109 320.533 11.3243 319.672 11.755C318.81 12.1857 318.209 12.9267 317.867 13.978L313.687 12.667C314.193 10.9317 315.156 9.53833 316.575 8.487C318.006 7.43567 319.931 6.91 322.351 6.91C324.175 6.91 325.777 7.20767 327.158 7.803C328.551 8.39833 329.583 9.37367 330.255 10.729C330.622 11.451 330.844 12.192 330.92 12.952C330.996 13.6993 331.034 14.5163 331.034 15.403V28H327.025V23.554L327.69 24.276C326.765 25.758 325.682 26.8473 324.441 27.544C323.212 28.228 321.673 28.57 319.824 28.57ZM320.736 24.922C321.774 24.922 322.661 24.7383 323.396 24.371C324.13 24.0037 324.713 23.554 325.144 23.022C325.587 22.49 325.885 21.9897 326.037 21.521C326.277 20.9383 326.41 20.2733 326.436 19.526C326.474 18.766 326.493 18.1517 326.493 17.683L327.899 18.101C326.518 18.3163 325.334 18.5063 324.346 18.671C323.358 18.8357 322.509 18.994 321.8 19.146C321.09 19.2853 320.463 19.4437 319.919 19.621C319.387 19.811 318.937 20.0327 318.57 20.286C318.202 20.5393 317.917 20.8307 317.715 21.16C317.525 21.4893 317.43 21.8757 317.43 22.319C317.43 22.8257 317.556 23.2753 317.81 23.668C318.063 24.048 318.43 24.352 318.912 24.58C319.406 24.808 320.014 24.922 320.736 24.922ZM344.606 37.69C343.466 37.69 342.371 37.5127 341.319 37.158C340.281 36.8033 339.343 36.2903 338.507 35.619C337.671 34.9603 336.987 34.1623 336.455 33.225L340.673 31.135C341.066 31.8823 341.617 32.4333 342.326 32.788C343.048 33.1553 343.815 33.339 344.625 33.339C345.575 33.339 346.424 33.168 347.171 32.826C347.919 32.4967 348.495 32.0027 348.9 31.344C349.318 30.698 349.515 29.8873 349.489 28.912V23.079H350.059V7.48H354.068V28.988C354.068 29.5073 354.043 30.0013 353.992 30.47C353.954 30.9513 353.885 31.42 353.783 31.876C353.479 33.206 352.897 34.2953 352.035 35.144C351.174 36.0053 350.104 36.645 348.824 37.063C347.558 37.481 346.152 37.69 344.606 37.69ZM344.207 28.57C342.32 28.57 340.673 28.095 339.267 27.145C337.861 26.195 336.772 24.903 335.999 23.269C335.227 21.635 334.84 19.792 334.84 17.74C334.84 15.6627 335.227 13.8133 335.999 12.192C336.785 10.558 337.893 9.27233 339.324 8.335C340.756 7.385 342.44 6.91 344.378 6.91C346.329 6.91 347.963 7.385 349.28 8.335C350.61 9.27233 351.617 10.558 352.301 12.192C352.985 13.826 353.327 15.6753 353.327 17.74C353.327 19.7793 352.985 21.6223 352.301 23.269C351.617 24.903 350.598 26.195 349.242 27.145C347.887 28.095 346.209 28.57 344.207 28.57ZM344.91 24.466C346.139 24.466 347.127 24.1873 347.874 23.63C348.634 23.06 349.185 22.2683 349.527 21.255C349.882 20.2417 350.059 19.07 350.059 17.74C350.059 16.3973 349.882 15.2257 349.527 14.225C349.185 13.2117 348.647 12.4263 347.912 11.869C347.178 11.299 346.228 11.014 345.062 11.014C343.834 11.014 342.82 11.318 342.022 11.926C341.224 12.5213 340.635 13.332 340.255 14.358C339.875 15.3713 339.685 16.4987 339.685 17.74C339.685 18.994 339.869 20.134 340.236 21.16C340.616 22.1733 341.193 22.9777 341.965 23.573C342.738 24.1683 343.72 24.466 344.91 24.466ZM368.725 28.57C366.648 28.57 364.824 28.1203 363.253 27.221C361.683 26.3217 360.454 25.074 359.567 23.478C358.693 21.882 358.256 20.0453 358.256 17.968C358.256 15.726 358.687 13.7817 359.548 12.135C360.41 10.4757 361.607 9.19 363.139 8.278C364.672 7.366 366.445 6.91 368.459 6.91C370.587 6.91 372.392 7.41033 373.874 8.411C375.369 9.399 376.477 10.7987 377.199 12.61C377.921 14.4213 378.194 16.5557 378.016 19.013H373.475V17.341C373.463 15.1117 373.07 13.484 372.297 12.458C371.525 11.432 370.309 10.919 368.649 10.919C366.775 10.919 365.381 11.5017 364.469 12.667C363.557 13.8197 363.101 15.5107 363.101 17.74C363.101 19.8173 363.557 21.426 364.469 22.566C365.381 23.706 366.711 24.276 368.459 24.276C369.587 24.276 370.556 24.029 371.366 23.535C372.19 23.0283 372.823 22.3 373.266 21.35L377.788 22.718C377.003 24.5673 375.787 26.005 374.14 27.031C372.506 28.057 370.701 28.57 368.725 28.57ZM361.657 19.013V15.555H375.774V19.013H361.657ZM390.179 28.57C387.645 28.57 385.587 28 384.004 26.86C382.42 25.72 381.458 24.1177 381.116 22.053L385.79 21.331C386.03 22.3443 386.562 23.1423 387.386 23.725C388.209 24.3077 389.248 24.599 390.502 24.599C391.604 24.599 392.452 24.3837 393.048 23.953C393.656 23.5097 393.96 22.908 393.96 22.148C393.96 21.6793 393.846 21.3057 393.618 21.027C393.402 20.7357 392.921 20.457 392.174 20.191C391.426 19.925 390.28 19.5893 388.735 19.184C387.012 18.728 385.644 18.2403 384.631 17.721C383.617 17.189 382.889 16.562 382.446 15.84C382.002 15.118 381.781 14.244 381.781 13.218C381.781 11.9387 382.116 10.824 382.788 9.874C383.459 8.924 384.396 8.19567 385.6 7.689C386.803 7.16967 388.222 6.91 389.856 6.91C391.452 6.91 392.864 7.157 394.093 7.651C395.334 8.145 396.335 8.848 397.095 9.76C397.855 10.672 398.323 11.7423 398.501 12.971L393.827 13.807C393.713 12.933 393.314 12.2427 392.63 11.736C391.958 11.2293 391.059 10.9443 389.932 10.881C388.855 10.8177 387.987 10.9823 387.329 11.375C386.67 11.755 386.341 12.2933 386.341 12.99C386.341 13.3827 386.474 13.7183 386.74 13.997C387.006 14.2757 387.538 14.5543 388.336 14.833C389.146 15.1117 390.35 15.4537 391.946 15.859C393.58 16.277 394.884 16.7583 395.86 17.303C396.848 17.835 397.557 18.4747 397.988 19.222C398.431 19.9693 398.653 20.875 398.653 21.939C398.653 24.0037 397.899 25.625 396.392 26.803C394.897 27.981 392.826 28.57 390.179 28.57Z" fill="white"/>
</svg>
