<svg width="90" height="72" viewBox="0 0 90 72" fill="none" xmlns="http://www.w3.org/2000/svg">
<g clip-path="url(#clip0_3851_214201)">
<path d="M18.4031 9.6C18.4031 13.0669 19.086 16.4999 20.4127 19.7028C21.7394 22.9058 23.684 25.8162 26.1355 28.2676C28.587 30.7191 31.4973 32.6637 34.7003 33.9904C37.9033 35.3171 41.3362 36 44.8031 36C48.27 36 51.703 35.3171 54.906 33.9904C58.109 32.6637 61.0193 30.7191 63.4707 28.2676C65.9222 25.8162 67.8668 22.9058 69.1935 19.7028C70.5203 16.4998 71.2031 13.0669 71.2031 9.6L58.4841 9.6C58.4841 11.3966 58.1302 13.1756 57.4427 14.8355C56.7552 16.4953 55.7474 18.0035 54.477 19.2739C53.2067 20.5443 51.6985 21.5521 50.0386 22.2396C48.3788 22.9271 46.5997 23.281 44.8031 23.281C43.0065 23.281 41.2275 22.9271 39.5676 22.2396C37.9078 21.5521 36.3996 20.5443 35.1292 19.2739C33.8588 18.0035 32.8511 16.4953 32.1635 14.8355C31.476 13.1756 31.1221 11.3966 31.1221 9.6L18.4031 9.6Z" fill="#4AA35C"/>
<path d="M71.2063 62.4C71.2063 58.9331 70.5234 55.5001 69.1967 52.2972C67.8699 49.0942 65.9253 46.1838 63.4739 43.7324C61.0224 41.2809 58.1121 39.3363 54.9091 38.0096C51.7061 36.6829 48.2731 36 44.8062 36C41.3394 36 37.9064 36.6829 34.7034 38.0096C31.5004 39.3363 28.5901 41.2809 26.1386 43.7324C23.6872 46.1838 21.7426 49.0942 20.4158 52.2972C19.0891 55.5002 18.4063 58.9331 18.4063 62.4L31.1253 62.4C31.1253 60.6034 31.4791 58.8244 32.1667 57.1645C32.8542 55.5047 33.8619 53.9965 35.1323 52.7261C36.4027 51.4557 37.9109 50.4479 39.5708 49.7604C41.2306 49.0729 43.0096 48.719 44.8063 48.719C46.6029 48.719 48.3819 49.0729 50.0417 49.7604C51.7016 50.4479 53.2098 51.4557 54.4802 52.7261C55.7506 53.9965 56.7583 55.5047 57.4458 57.1645C58.1334 58.8244 58.4872 60.6034 58.4872 62.4L71.2063 62.4Z" fill="#EBBE52"/>
</g>
<defs>
<clipPath id="clip0_3851_214201">
<rect width="89.6" height="72" fill="white"/>
</clipPath>
</defs>
</svg>
