<svg width="340" height="29" viewBox="0 0 340 29" fill="none" xmlns="http://www.w3.org/2000/svg">
<path d="M0.0400002 28.3438V0.983749H4.619V28.3438H0.0400002ZM24.5034 28.3438V18.4637C24.5034 17.8177 24.4591 17.1021 24.3704 16.3167C24.2817 15.5314 24.0727 14.7777 23.7434 14.0557C23.4267 13.3211 22.9454 12.7194 22.2994 12.2507C21.6661 11.7821 20.8047 11.5477 19.7154 11.5477C19.1327 11.5477 18.5564 11.6427 17.9864 11.8327C17.4164 12.0227 16.8971 12.3521 16.4284 12.8207C15.9724 13.2767 15.6051 13.9101 15.3264 14.7207C15.0477 15.5187 14.9084 16.5447 14.9084 17.7987L12.1914 16.6397C12.1914 14.8917 12.5271 13.3084 13.1984 11.8897C13.8824 10.4711 14.8831 9.34375 16.2004 8.50775C17.5177 7.65908 19.1391 7.23475 21.0644 7.23475C22.5844 7.23475 23.8384 7.48808 24.8264 7.99475C25.8144 8.50142 26.5997 9.14742 27.1824 9.93275C27.7651 10.7181 28.1957 11.5541 28.4744 12.4407C28.7531 13.3274 28.9304 14.1697 29.0064 14.9677C29.0951 15.7531 29.1394 16.3927 29.1394 16.8867V28.3438H24.5034ZM10.2724 28.3438V7.82375H14.3574V14.1887H14.9084V28.3438H10.2724ZM46.1245 28.3438C44.7692 28.5971 43.4392 28.7048 42.1345 28.6668C40.8425 28.6414 39.6835 28.4071 38.6575 27.9637C37.6315 27.5077 36.8525 26.7921 36.3205 25.8167C35.8518 24.9301 35.6048 24.0244 35.5795 23.0997C35.5542 22.1751 35.5415 21.1301 35.5415 19.9647V2.12375H40.1015V19.6987C40.1015 20.5221 40.1078 21.2441 40.1205 21.8647C40.1458 22.4854 40.2788 22.9921 40.5195 23.3847C40.9755 24.1447 41.7038 24.5691 42.7045 24.6577C43.7052 24.7464 44.8452 24.6957 46.1245 24.5057V28.3438ZM31.8175 11.4147V7.82375H46.1245V11.4147H31.8175ZM58.8269 28.9138C56.7496 28.9138 54.9256 28.4641 53.3549 27.5647C51.7842 26.6654 50.5556 25.4177 49.6689 23.8217C48.7949 22.2257 48.3579 20.3891 48.3579 18.3118C48.3579 16.0697 48.7886 14.1254 49.6499 12.4787C50.5112 10.8194 51.7082 9.53375 53.2409 8.62175C54.7736 7.70975 56.5469 7.25375 58.5609 7.25375C60.6889 7.25375 62.4939 7.75408 63.9759 8.75475C65.4706 9.74275 66.5789 11.1424 67.3009 12.9537C68.0229 14.7651 68.2952 16.8994 68.1179 19.3567H63.5769V17.6847C63.5642 15.4554 63.1716 13.8277 62.3989 12.8017C61.6262 11.7757 60.4102 11.2627 58.7509 11.2627C56.8762 11.2627 55.4829 11.8454 54.5709 13.0107C53.6589 14.1634 53.2029 15.8544 53.2029 18.0837C53.2029 20.1611 53.6589 21.7697 54.5709 22.9097C55.4829 24.0497 56.8129 24.6197 58.5609 24.6197C59.6882 24.6197 60.6572 24.3727 61.4679 23.8787C62.2912 23.3721 62.9246 22.6437 63.3679 21.6937L67.8899 23.0617C67.1046 24.9111 65.8886 26.3487 64.2419 27.3747C62.6079 28.4007 60.8029 28.9138 58.8269 28.9138ZM51.7589 19.3567V15.8987H65.8759V19.3567H51.7589ZM72.3573 28.3438V7.82375H76.4043V12.8207L75.9103 12.1747C76.1636 11.4907 76.4993 10.8701 76.9173 10.3127C77.3479 9.74275 77.8609 9.27408 78.4563 8.90675C78.9629 8.56475 79.5203 8.29875 80.1283 8.10875C80.7489 7.90608 81.3823 7.78575 82.0283 7.74775C82.6743 7.69708 83.3013 7.72242 83.9093 7.82375V12.0987C83.3013 11.9214 82.5983 11.8644 81.8003 11.9277C81.0149 11.9911 80.3056 12.2127 79.6723 12.5927C79.0389 12.9347 78.5196 13.3717 78.1143 13.9037C77.7216 14.4357 77.4303 15.0437 77.2403 15.7277C77.0503 16.3991 76.9553 17.1274 76.9553 17.9127V28.3438H72.3573ZM101.728 28.3438V18.4637C101.728 17.8177 101.684 17.1021 101.595 16.3167C101.506 15.5314 101.297 14.7777 100.968 14.0557C100.651 13.3211 100.17 12.7194 99.524 12.2507C98.8907 11.7821 98.0293 11.5477 96.94 11.5477C96.3573 11.5477 95.781 11.6427 95.211 11.8327C94.641 12.0227 94.1217 12.3521 93.653 12.8207C93.197 13.2767 92.8297 13.9101 92.551 14.7207C92.2723 15.5187 92.133 16.5447 92.133 17.7987L89.416 16.6397C89.416 14.8917 89.7517 13.3084 90.423 11.8897C91.107 10.4711 92.1077 9.34375 93.425 8.50775C94.7423 7.65908 96.3637 7.23475 98.289 7.23475C99.809 7.23475 101.063 7.48808 102.051 7.99475C103.039 8.50142 103.824 9.14742 104.407 9.93275C104.99 10.7181 105.42 11.5541 105.699 12.4407C105.978 13.3274 106.155 14.1697 106.231 14.9677C106.32 15.7531 106.364 16.3927 106.364 16.8867V28.3438H101.728ZM87.497 28.3438V7.82375H91.582V14.1887H92.133V28.3438H87.497ZM117.06 28.9138C115.578 28.9138 114.324 28.6351 113.298 28.0777C112.272 27.5077 111.493 26.7541 110.961 25.8167C110.442 24.8794 110.182 23.8471 110.182 22.7197C110.182 21.7317 110.347 20.8451 110.676 20.0597C111.005 19.2617 111.512 18.5777 112.196 18.0077C112.88 17.4251 113.767 16.9501 114.856 16.5827C115.679 16.3167 116.642 16.0761 117.744 15.8607C118.859 15.6454 120.062 15.4491 121.354 15.2717C122.659 15.0817 124.02 14.8791 125.439 14.6637L123.805 15.5947C123.818 14.1761 123.501 13.1311 122.855 12.4597C122.209 11.7884 121.12 11.4527 119.587 11.4527C118.662 11.4527 117.769 11.6681 116.908 12.0987C116.047 12.5294 115.445 13.2704 115.103 14.3217L110.923 13.0107C111.43 11.2754 112.392 9.88208 113.811 8.83075C115.242 7.77942 117.168 7.25375 119.587 7.25375C121.411 7.25375 123.013 7.55142 124.394 8.14675C125.787 8.74208 126.82 9.71742 127.491 11.0727C127.858 11.7947 128.08 12.5357 128.156 13.2957C128.232 14.0431 128.27 14.8601 128.27 15.7467V28.3438H124.261V23.8977L124.926 24.6197C124.001 26.1017 122.918 27.1911 121.677 27.8877C120.448 28.5718 118.909 28.9138 117.06 28.9138ZM117.972 25.2657C119.011 25.2657 119.897 25.0821 120.632 24.7147C121.367 24.3474 121.949 23.8977 122.38 23.3657C122.823 22.8337 123.121 22.3334 123.273 21.8647C123.514 21.2821 123.647 20.6171 123.672 19.8697C123.71 19.1097 123.729 18.4954 123.729 18.0267L125.135 18.4447C123.754 18.6601 122.57 18.8501 121.582 19.0147C120.594 19.1794 119.745 19.3377 119.036 19.4897C118.327 19.6291 117.7 19.7874 117.155 19.9647C116.623 20.1547 116.173 20.3764 115.806 20.6297C115.439 20.8831 115.154 21.1744 114.951 21.5037C114.761 21.8331 114.666 22.2194 114.666 22.6627C114.666 23.1694 114.793 23.6191 115.046 24.0117C115.299 24.3917 115.667 24.6957 116.148 24.9237C116.642 25.1517 117.25 25.2657 117.972 25.2657ZM145.244 28.3438C143.888 28.5971 142.558 28.7048 141.254 28.6668C139.962 28.6414 138.803 28.4071 137.777 27.9637C136.751 27.5077 135.972 26.7921 135.44 25.8167C134.971 24.9301 134.724 24.0244 134.699 23.0997C134.673 22.1751 134.661 21.1301 134.661 19.9647V2.12375H139.221V19.6987C139.221 20.5221 139.227 21.2441 139.24 21.8647C139.265 22.4854 139.398 22.9921 139.639 23.3847C140.095 24.1447 140.823 24.5691 141.824 24.6577C142.824 24.7464 143.964 24.6957 145.244 24.5057V28.3438ZM130.937 11.4147V7.82375H145.244V11.4147H130.937ZM150.036 4.70775V0.508749H154.615V4.70775H150.036ZM150.036 28.3438V7.82375H154.615V28.3438H150.036ZM174.499 28.3438V18.4637C174.499 17.8177 174.455 17.1021 174.366 16.3167C174.278 15.5314 174.069 14.7777 173.739 14.0557C173.423 13.3211 172.941 12.7194 172.295 12.2507C171.662 11.7821 170.801 11.5477 169.711 11.5477C169.129 11.5477 168.552 11.6427 167.982 11.8327C167.412 12.0227 166.893 12.3521 166.424 12.8207C165.968 13.2767 165.601 13.9101 165.322 14.7207C165.044 15.5187 164.904 16.5447 164.904 17.7987L162.187 16.6397C162.187 14.8917 162.523 13.3084 163.194 11.8897C163.878 10.4711 164.879 9.34375 166.196 8.50775C167.514 7.65908 169.135 7.23475 171.06 7.23475C172.58 7.23475 173.834 7.48808 174.822 7.99475C175.81 8.50142 176.596 9.14742 177.178 9.93275C177.761 10.7181 178.192 11.5541 178.47 12.4407C178.749 13.3274 178.926 14.1697 179.002 14.9677C179.091 15.7531 179.135 16.3927 179.135 16.8867V28.3438H174.499ZM160.268 28.3438V7.82375H164.353V14.1887H164.904V28.3438H160.268ZM189.832 28.9138C188.35 28.9138 187.096 28.6351 186.07 28.0777C185.044 27.5077 184.265 26.7541 183.733 25.8167C183.213 24.8794 182.954 23.8471 182.954 22.7197C182.954 21.7317 183.118 20.8451 183.448 20.0597C183.777 19.2617 184.284 18.5777 184.968 18.0077C185.652 17.4251 186.538 16.9501 187.628 16.5827C188.451 16.3167 189.414 16.0761 190.516 15.8607C191.63 15.6454 192.834 15.4491 194.126 15.2717C195.43 15.0817 196.792 14.8791 198.211 14.6637L196.577 15.5947C196.589 14.1761 196.273 13.1311 195.627 12.4597C194.981 11.7884 193.891 11.4527 192.359 11.4527C191.434 11.4527 190.541 11.6681 189.68 12.0987C188.818 12.5294 188.217 13.2704 187.875 14.3217L183.695 13.0107C184.201 11.2754 185.164 9.88208 186.583 8.83075C188.014 7.77942 189.939 7.25375 192.359 7.25375C194.183 7.25375 195.785 7.55142 197.166 8.14675C198.559 8.74208 199.591 9.71742 200.263 11.0727C200.63 11.7947 200.852 12.5357 200.928 13.2957C201.004 14.0431 201.042 14.8601 201.042 15.7467V28.3438H197.033V23.8977L197.698 24.6197C196.773 26.1017 195.69 27.1911 194.449 27.8877C193.22 28.5718 191.681 28.9138 189.832 28.9138ZM190.744 25.2657C191.782 25.2657 192.669 25.0821 193.404 24.7147C194.138 24.3474 194.721 23.8977 195.152 23.3657C195.595 22.8337 195.893 22.3334 196.045 21.8647C196.285 21.2821 196.418 20.6171 196.444 19.8697C196.482 19.1097 196.501 18.4954 196.501 18.0267L197.907 18.4447C196.526 18.6601 195.342 18.8501 194.354 19.0147C193.366 19.1794 192.517 19.3377 191.808 19.4897C191.098 19.6291 190.471 19.7874 189.927 19.9647C189.395 20.1547 188.945 20.3764 188.578 20.6297C188.21 20.8831 187.925 21.1744 187.723 21.5037C187.533 21.8331 187.438 22.2194 187.438 22.6627C187.438 23.1694 187.564 23.6191 187.818 24.0117C188.071 24.3917 188.438 24.6957 188.92 24.9237C189.414 25.1517 190.022 25.2657 190.744 25.2657ZM206.368 28.3438V0.413749H210.947V28.3438H206.368ZM217.019 4.70775V0.508749H221.598V4.70775H217.019ZM217.019 28.3438V7.82375H221.598V28.3438H217.019ZM235.212 28.9138C232.679 28.9138 230.62 28.3438 229.037 27.2037C227.454 26.0637 226.491 24.4614 226.149 22.3967L230.823 21.6747C231.064 22.6881 231.596 23.4861 232.419 24.0687C233.242 24.6514 234.281 24.9427 235.535 24.9427C236.637 24.9427 237.486 24.7274 238.081 24.2967C238.689 23.8534 238.993 23.2517 238.993 22.4917C238.993 22.0231 238.879 21.6494 238.651 21.3707C238.436 21.0794 237.954 20.8007 237.207 20.5347C236.46 20.2687 235.313 19.9331 233.768 19.5277C232.045 19.0717 230.677 18.5841 229.664 18.0647C228.651 17.5327 227.922 16.9057 227.479 16.1837C227.036 15.4617 226.814 14.5877 226.814 13.5617C226.814 12.2824 227.15 11.1677 227.821 10.2177C228.492 9.26775 229.43 8.53942 230.633 8.03275C231.836 7.51342 233.255 7.25375 234.889 7.25375C236.485 7.25375 237.897 7.50075 239.126 7.99475C240.367 8.48875 241.368 9.19175 242.128 10.1037C242.888 11.0157 243.357 12.0861 243.534 13.3147L238.86 14.1507C238.746 13.2767 238.347 12.5864 237.663 12.0797C236.992 11.5731 236.092 11.2881 234.965 11.2247C233.888 11.1614 233.021 11.3261 232.362 11.7187C231.703 12.0987 231.374 12.6371 231.374 13.3337C231.374 13.7264 231.507 14.0621 231.773 14.3407C232.039 14.6194 232.571 14.8981 233.369 15.1767C234.18 15.4554 235.383 15.7974 236.979 16.2027C238.613 16.6207 239.918 17.1021 240.893 17.6467C241.881 18.1787 242.59 18.8184 243.021 19.5657C243.464 20.3131 243.686 21.2187 243.686 22.2827C243.686 24.3474 242.932 25.9687 241.425 27.1467C239.93 28.3248 237.859 28.9138 235.212 28.9138ZM253.586 28.9138C252.104 28.9138 250.85 28.6351 249.824 28.0777C248.798 27.5077 248.019 26.7541 247.487 25.8167C246.967 24.8794 246.708 23.8471 246.708 22.7197C246.708 21.7317 246.872 20.8451 247.202 20.0597C247.531 19.2617 248.038 18.5777 248.722 18.0077C249.406 17.4251 250.292 16.9501 251.382 16.5827C252.205 16.3167 253.168 16.0761 254.27 15.8607C255.384 15.6454 256.588 15.4491 257.88 15.2717C259.184 15.0817 260.546 14.8791 261.965 14.6637L260.331 15.5947C260.343 14.1761 260.027 13.1311 259.381 12.4597C258.735 11.7884 257.645 11.4527 256.113 11.4527C255.188 11.4527 254.295 11.6681 253.434 12.0987C252.572 12.5294 251.971 13.2704 251.629 14.3217L247.449 13.0107C247.955 11.2754 248.918 9.88208 250.337 8.83075C251.768 7.77942 253.693 7.25375 256.113 7.25375C257.937 7.25375 259.539 7.55142 260.92 8.14675C262.313 8.74208 263.345 9.71742 264.017 11.0727C264.384 11.7947 264.606 12.5357 264.682 13.2957C264.758 14.0431 264.796 14.8601 264.796 15.7467V28.3438H260.787V23.8977L261.452 24.6197C260.527 26.1017 259.444 27.1911 258.203 27.8877C256.974 28.5718 255.435 28.9138 253.586 28.9138ZM254.498 25.2657C255.536 25.2657 256.423 25.0821 257.158 24.7147C257.892 24.3474 258.475 23.8977 258.906 23.3657C259.349 22.8337 259.647 22.3334 259.799 21.8647C260.039 21.2821 260.172 20.6171 260.198 19.8697C260.236 19.1097 260.255 18.4954 260.255 18.0267L261.661 18.4447C260.28 18.6601 259.096 18.8501 258.108 19.0147C257.12 19.1794 256.271 19.3377 255.562 19.4897C254.852 19.6291 254.225 19.7874 253.681 19.9647C253.149 20.1547 252.699 20.3764 252.332 20.6297C251.964 20.8831 251.679 21.1744 251.477 21.5037C251.287 21.8331 251.192 22.2194 251.192 22.6627C251.192 23.1694 251.318 23.6191 251.572 24.0117C251.825 24.3917 252.192 24.6957 252.674 24.9237C253.168 25.1517 253.776 25.2657 254.498 25.2657ZM281.769 28.3438C280.414 28.5971 279.084 28.7048 277.779 28.6668C276.487 28.6414 275.328 28.4071 274.302 27.9637C273.276 27.5077 272.497 26.7921 271.965 25.8167C271.496 24.9301 271.249 24.0244 271.224 23.0997C271.199 22.1751 271.186 21.1301 271.186 19.9647V2.12375H275.746V19.6987C275.746 20.5221 275.752 21.2441 275.765 21.8647C275.79 22.4854 275.923 22.9921 276.164 23.3847C276.62 24.1447 277.348 24.5691 278.349 24.6577C279.35 24.7464 280.49 24.6957 281.769 24.5057V28.3438ZM267.462 11.4147V7.82375H281.769V11.4147H267.462ZM286.561 4.70775V0.508749H291.14V4.70775H286.561ZM286.561 28.3438V7.82375H291.14V28.3438H286.561ZM305.895 28.9138C303.843 28.9138 302.051 28.4514 300.518 27.5267C298.985 26.6021 297.795 25.3291 296.946 23.7077C296.11 22.0737 295.692 20.1991 295.692 18.0837C295.692 15.9304 296.123 14.0431 296.984 12.4217C297.845 10.8004 299.042 9.53375 300.575 8.62175C302.108 7.70975 303.881 7.25375 305.895 7.25375C307.96 7.25375 309.758 7.71608 311.291 8.64075C312.824 9.56542 314.014 10.8447 314.863 12.4787C315.712 14.1001 316.136 15.9684 316.136 18.0837C316.136 20.2117 315.705 22.0927 314.844 23.7267C313.995 25.3481 312.805 26.6211 311.272 27.5457C309.739 28.4577 307.947 28.9138 305.895 28.9138ZM305.895 24.6197C307.719 24.6197 309.074 24.0117 309.961 22.7957C310.848 21.5797 311.291 20.0091 311.291 18.0837C311.291 16.0951 310.841 14.5117 309.942 13.3337C309.043 12.1431 307.694 11.5477 305.895 11.5477C304.666 11.5477 303.653 11.8264 302.855 12.3837C302.07 12.9284 301.487 13.6947 301.107 14.6827C300.727 15.6581 300.537 16.7917 300.537 18.0837C300.537 20.0724 300.987 21.6621 301.886 22.8527C302.798 24.0307 304.134 24.6197 305.895 24.6197ZM334.515 28.3438V18.4637C334.515 17.8177 334.471 17.1021 334.382 16.3167C334.293 15.5314 334.084 14.7777 333.755 14.0557C333.438 13.3211 332.957 12.7194 332.311 12.2507C331.678 11.7821 330.816 11.5477 329.727 11.5477C329.144 11.5477 328.568 11.6427 327.998 11.8327C327.428 12.0227 326.909 12.3521 326.44 12.8207C325.984 13.2767 325.617 13.9101 325.338 14.7207C325.059 15.5187 324.92 16.5447 324.92 17.7987L322.203 16.6397C322.203 14.8917 322.539 13.3084 323.21 11.8897C323.894 10.4711 324.895 9.34375 326.212 8.50775C327.529 7.65908 329.151 7.23475 331.076 7.23475C332.596 7.23475 333.85 7.48808 334.838 7.99475C335.826 8.50142 336.611 9.14742 337.194 9.93275C337.777 10.7181 338.207 11.5541 338.486 12.4407C338.765 13.3274 338.942 14.1697 339.018 14.9677C339.107 15.7531 339.151 16.3927 339.151 16.8867V28.3438H334.515ZM320.284 28.3438V7.82375H324.369V14.1887H324.92V28.3438H320.284Z" fill="white"/>
</svg>
