<svg width="296" height="210" viewBox="0 0 296 210" fill="none" xmlns="http://www.w3.org/2000/svg">
<rect x="0.5" y="0.5" width="295" height="209" rx="7.5" fill="#111111"/>
<rect x="25" y="24" width="32" height="32" rx="16" fill="#EF8435"/>
<path fill-rule="evenodd" clip-rule="evenodd" d="M48 39H42V33C42 32.4477 41.5523 32 41 32C40.4477 32 40 32.4477 40 33V39H34C33.4477 39 33 39.4477 33 40C33 40.5523 33.4477 41 34 41H40V47C40 47.5523 40.4477 48 41 48C41.5523 48 42 47.5523 42 47V41H48C48.5523 41 49 40.5523 49 40C49 39.4477 48.5523 39 48 39Z" fill="white"/>
<rect x="97" y="24" width="32" height="32" rx="16" fill="#D77730"/>
<path fill-rule="evenodd" clip-rule="evenodd" d="M120 39H114V33C114 32.4477 113.552 32 113 32C112.448 32 112 32.4477 112 33V39H106C105.448 39 105 39.4477 105 40C105 40.5523 105.448 41 106 41H112V47C112 47.5523 112.448 48 113 48C113.552 48 114 47.5523 114 47V41H120C120.552 41 121 40.5523 121 40C121 39.4477 120.552 39 120 39Z" fill="white"/>
<rect x="169" y="24" width="32" height="32" rx="16" fill="#FAD9C0"/>
<path fill-rule="evenodd" clip-rule="evenodd" d="M192 39H186V33C186 32.4477 185.552 32 185 32C184.448 32 184 32.4477 184 33V39H178C177.448 39 177 39.4477 177 40C177 40.5523 177.448 41 178 41H184V47C184 47.5523 184.448 48 185 48C185.552 48 186 47.5523 186 47V41H192C192.552 41 193 40.5523 193 40C193 39.4477 192.552 39 192 39Z" fill="white"/>
<rect x="241" y="24" width="32" height="32" rx="16" fill="#BF6A2A"/>
<path fill-rule="evenodd" clip-rule="evenodd" d="M264 39H258V33C258 32.4477 257.552 32 257 32C256.448 32 256 32.4477 256 33V39H250C249.448 39 249 39.4477 249 40C249 40.5523 249.448 41 250 41H256V47C256 47.5523 256.448 48 257 48C257.552 48 258 47.5523 258 47V41H264C264.552 41 265 40.5523 265 40C265 39.4477 264.552 39 264 39Z" fill="white"/>
<rect x="24" y="96" width="34" height="34" rx="17" fill="#EF8435"/>
<path fill-rule="evenodd" clip-rule="evenodd" d="M48 112H42V106C42 105.448 41.5523 105 41 105C40.4477 105 40 105.448 40 106V112H34C33.4477 112 33 112.448 33 113C33 113.552 33.4477 114 34 114H40V120C40 120.552 40.4477 121 41 121C41.5523 121 42 120.552 42 120V114H48C48.5523 114 49 113.552 49 113C49 112.448 48.5523 112 48 112Z" fill="white"/>
<rect x="24" y="96" width="34" height="34" rx="17" stroke="#B36328" stroke-width="2"/>
<path fill-rule="evenodd" clip-rule="evenodd" d="M48 178H42V172C42 171.448 41.5523 171 41 171C40.4477 171 40 171.448 40 172V178H34C33.4477 178 33 178.448 33 179C33 179.552 33.4477 180 34 180H40V186C40 186.552 40.4477 187 41 187C41.5523 187 42 186.552 42 186V180H48C48.5523 180 49 179.552 49 179C49 178.448 48.5523 178 48 178Z" fill="#EF8435"/>
<rect x="25.5" y="163.5" width="31" height="31" rx="15.5" stroke="#BF6A2A"/>
<path fill-rule="evenodd" clip-rule="evenodd" d="M120 174H114V168C114 167.448 113.552 167 113 167C112.448 167 112 167.448 112 168V174H106C105.448 174 105 174.448 105 175C105 175.552 105.448 176 106 176H112V182C112 182.552 112.448 183 113 183C113.552 183 114 182.552 114 182V176H120C120.552 176 121 175.552 121 175C121 174.448 120.552 174 120 174Z" fill="#EF8435"/>
<rect x="96" y="158" width="34" height="34" rx="17" stroke="#B36328" stroke-width="2"/>
<path fill-rule="evenodd" clip-rule="evenodd" d="M124 112H118V106C118 105.448 117.552 105 117 105C116.448 105 116 105.448 116 106V112H110C109.448 112 109 112.448 109 113C109 113.552 109.448 114 110 114H116V120C116 120.552 116.448 121 117 121C117.552 121 118 120.552 118 120V114H124C124.552 114 125 113.552 125 113C125 112.448 124.552 112 124 112Z" fill="#EF8435"/>
<rect x="101.5" y="97.5" width="31" height="31" rx="15.5" stroke="#EF8435"/>
<path fill-rule="evenodd" clip-rule="evenodd" d="M196 112H190V106C190 105.448 189.552 105 189 105C188.448 105 188 105.448 188 106V112H182C181.448 112 181 112.448 181 113C181 113.552 181.448 114 182 114H188V120C188 120.552 188.448 121 189 121C189.552 121 190 120.552 190 120V114H196C196.552 114 197 113.552 197 113C197 112.448 196.552 112 196 112Z" fill="#D77730"/>
<rect x="173.5" y="97.5" width="31" height="31" rx="15.5" stroke="#D77730"/>
<path fill-rule="evenodd" clip-rule="evenodd" d="M260 112H254V106C254 105.448 253.552 105 253 105C252.448 105 252 105.448 252 106V112H246C245.448 112 245 112.448 245 113C245 113.552 245.448 114 246 114H252V120C252 120.552 252.448 121 253 121C253.552 121 254 120.552 254 120V114H260C260.552 114 261 113.552 261 113C261 112.448 260.552 112 260 112Z" fill="#FAD9C0"/>
<rect x="237.5" y="97.5" width="31" height="31" rx="15.5" stroke="#FAD9C0"/>
<rect x="0.5" y="0.5" width="295" height="209" rx="7.5" stroke="#333333"/>
</svg>
