<svg width="495" height="407" viewBox="0 0 495 407" fill="none" xmlns="http://www.w3.org/2000/svg">
<path d="M438.342 393.782C431.62 393.782 426.172 399.475 426.172 406.498" stroke="#333333"/>
<path d="M426.17 406.497C426.17 399.474 420.721 393.781 414 393.781" stroke="#333333"/>
<path d="M0.5 0.5H444.436C457.789 0.5 465.808 15.3236 458.5 26.5V26.5" stroke="#333333" stroke-linecap="round" stroke-linejoin="round"/>
<path d="M433.853 119.779C433.069 120.052 432.282 120.311 431.491 120.557L431.491 120.557C426.412 122.137 420.578 122.886 415.181 122.031C409.788 121.176 404.842 118.721 401.511 113.9C395.699 105.484 396.836 94.006 398.748 84.4283L398.748 84.4282C400.946 73.3979 405.159 62.7689 411.073 53.2291C413.999 48.5094 417.445 43.9216 421.113 39.945C424.778 35.9705 428.965 32.4665 433.818 30.1041L433.731 29.9247L433.818 30.1041C442.269 25.9893 453.994 25.9794 460.41 33.6998L460.418 33.7225L460.441 33.7512C460.5 33.8228 460.513 33.8811 460.51 33.9294C460.506 33.9824 460.48 34.0491 460.417 34.1276C460.287 34.2882 460.038 34.4503 459.727 34.5736C459.42 34.6952 459.078 34.7689 458.785 34.771C458.48 34.7732 458.279 34.6994 458.186 34.5879C456.764 32.8792 455.03 31.5071 453.04 30.5193C449.066 28.5389 444.328 28.0787 440.026 29.0636C435.177 30.173 430.864 32.9436 427.181 36.1993C423.274 39.6497 419.979 43.6181 416.881 47.9447C413.781 52.2735 411.057 56.866 408.742 61.6679C404.158 71.1624 401.08 81.6123 400.095 92.1423C399.243 101.239 400.466 112.272 408.882 117.727C416.609 122.74 425.682 121.424 433.853 118.454V119.779ZM434.253 118.307C436.087 117.625 437.873 116.864 439.586 116.076C448.326 112.058 456.418 106.627 463.57 100.166L463.57 100.166C470.769 93.6586 476.999 86.096 482.007 77.7654C484.583 73.4847 486.876 69.0003 488.7 64.3357C490.669 59.3077 492.003 53.7191 490.324 48.3575L490.324 48.3574C488.828 43.5899 485.036 40.193 480.038 39.6416C475.179 39.1015 470.316 40.7771 465.891 42.4556C455.259 46.4867 445.167 51.851 435.82 58.3544C435.599 58.5055 435.23 58.6532 434.847 58.7208C434.632 58.7588 434.429 58.7688 434.253 58.748V57.7173C436.64 56.0384 439.08 54.4352 441.565 52.915L441.565 52.9149C446.707 49.7615 452.073 46.9633 457.577 44.505L457.577 44.5049C462.735 42.198 468.098 39.9231 473.624 38.7978L473.584 38.6018L473.624 38.7978C478.542 37.795 484.114 37.7765 488.221 40.7076C492.323 43.6356 493.984 48.8687 493.786 53.8047L493.786 53.8047C493.558 59.5633 491.075 65.0631 488.571 70.1976L488.571 70.1979C486.327 74.817 483.707 79.2434 480.758 83.446L480.922 83.5609L434.253 118.307ZM433.715 58.2604C433.743 58.1929 433.791 58.1222 433.853 58.0521V58.6118C433.754 58.5441 433.714 58.4834 433.699 58.4391C433.682 58.3914 433.684 58.3343 433.715 58.2604Z" fill="white" stroke="#333333" stroke-width="0.4"/>
<path d="M435 49V49C427.6 56.8568 426.014 68.3051 426.038 79.0981C426.154 132.21 426.47 301.632 426 393" stroke="#333333" stroke-linecap="round" stroke-linejoin="round"/>
</svg>
