<svg width="1440" height="370" viewBox="0 0 1440 370" fill="none" xmlns="http://www.w3.org/2000/svg">
<rect width="1439" height="370" fill="#111111"/>
<path d="M1246.66 35.4395L1251.86 50.2395L1266.66 55.4395H1246.66V35.4395Z" fill="#EF8435"/>
<path d="M1246.66 35.4395L1241.46 50.2395L1226.66 55.4395H1246.66V35.4395Z" fill="#EF8435"/>
<path d="M1246.66 75.4395L1241.46 60.6395L1226.66 55.4395H1246.66V75.4395Z" fill="#EF8435"/>
<path d="M1246.66 75.4395L1251.86 60.6395L1266.66 55.4395H1246.66V75.4395Z" fill="#EF8435"/>
<path d="M192.594 282.395L197.274 295.715L210.594 300.395H192.594V282.395Z" fill="#4AA35C"/>
<path d="M192.594 282.395L187.914 295.715L174.594 300.395H192.594V282.395Z" fill="#4AA35C"/>
<path d="M192.594 318.395L187.914 305.075L174.594 300.395H192.594V318.395Z" fill="#4AA35C"/>
<path d="M192.594 318.395L197.274 305.075L210.594 300.395H192.594V318.395Z" fill="#4AA35C"/>
<path d="M256 39L256.376 52.6098C256.708 64.6279 266.372 74.2924 278.39 74.6242L292 75L278.39 75.3758C266.372 75.7076 256.708 85.3721 256.376 97.3902L256 111L255.624 97.3902C255.292 85.3721 245.628 75.7076 233.61 75.3758L220 75L233.61 74.6242C245.628 74.2924 255.292 64.6279 255.624 52.6098L256 39Z" fill="#EBBE52"/>
<rect y="152" width="64" height="4" fill="#EF8435"/>
<rect x="1184" y="152" width="64" height="4" fill="#EF8435"/>
<rect x="64" y="152" width="64" height="4" fill="#4AA35C"/>
<rect x="1248" y="152" width="64" height="4" fill="#4AA35C"/>
<rect x="128" y="152" width="64" height="4" fill="#EBBE52"/>
<rect x="1312" y="152" width="64" height="4" fill="#EBBE52"/>
<rect x="192" y="152" width="64" height="4" fill="#5C2860"/>
<rect x="1376" y="152" width="64" height="4" fill="#5C2860"/>
</svg>
