<svg width="307" height="2269" viewBox="0 0 307 2269" fill="none" xmlns="http://www.w3.org/2000/svg">
<circle cx="3.49998" cy="3.49998" r="1.90486" transform="matrix(4.37114e-08 1 1 -4.37114e-08 91 1007)" fill="white" stroke="white" stroke-width="3.19023"/>
<circle cx="3.49998" cy="3.49998" r="1.90486" transform="matrix(4.37114e-08 1 1 -4.37114e-08 255 1653)" fill="white" stroke="white" stroke-width="3.19023"/>
<path d="M94.5 1054.4C95.552 1054.4 96.4048 1053.55 96.4048 1052.5C96.4048 1051.45 95.552 1050.6 94.5 1050.6C93.448 1050.6 92.5951 1051.45 92.5951 1052.5C92.5951 1053.55 93.448 1054.4 94.5 1054.4Z" fill="white" stroke="white" stroke-width="3.19023"/>
<path d="M258.5 1700.4C259.552 1700.4 260.405 1699.55 260.405 1698.5C260.405 1697.45 259.552 1696.6 258.5 1696.6C257.448 1696.6 256.595 1697.45 256.595 1698.5C256.595 1699.55 257.448 1700.4 258.5 1700.4Z" fill="white" stroke="white" stroke-width="3.19023"/>
<circle cx="3.49998" cy="3.49998" r="1.90486" transform="matrix(4.37114e-08 1 1 -4.37114e-08 228 448)" fill="white" stroke="white" stroke-width="3.19023"/>
<path d="M231.5 495.405C232.552 495.405 233.405 494.552 233.405 493.5C233.405 492.448 232.552 491.595 231.5 491.595C230.448 491.595 229.595 492.448 229.595 493.5C229.595 494.552 230.448 495.405 231.5 495.405Z" fill="white" stroke="white" stroke-width="3.19023"/>
<path d="M231.5 533.905C232.552 533.905 233.405 533.052 233.405 532C233.405 530.948 232.552 530.095 231.5 530.095C230.448 530.095 229.595 530.948 229.595 532C229.595 533.052 230.448 533.905 231.5 533.905Z" fill="white" stroke="white" stroke-width="3.19023"/>
<path d="M94.5 1092.9C95.552 1092.9 96.4048 1092.05 96.4048 1091C96.4048 1089.95 95.552 1089.1 94.5 1089.1C93.448 1089.1 92.5951 1089.95 92.5951 1091C92.5951 1092.05 93.448 1092.9 94.5 1092.9Z" fill="white" stroke="white" stroke-width="3.19023"/>
<path d="M258.5 1738.9C259.552 1738.9 260.405 1738.05 260.405 1737C260.405 1735.95 259.552 1735.1 258.5 1735.1C257.448 1735.1 256.595 1735.95 256.595 1737C256.595 1738.05 257.448 1738.9 258.5 1738.9Z" fill="white" stroke="white" stroke-width="3.19023"/>
<path d="M107.414 2228.37C108.466 2228.37 109.319 2227.52 109.319 2226.46C109.319 2225.41 108.466 2224.56 107.414 2224.56C106.362 2224.56 105.509 2225.41 105.509 2226.46C105.509 2227.52 106.362 2228.37 107.414 2228.37Z" fill="white" stroke="white" stroke-width="3.19023"/>
<path d="M107.414 2266.87C108.466 2266.87 109.319 2266.02 109.319 2264.96C109.319 2263.91 108.466 2263.06 107.414 2263.06C106.362 2263.06 105.509 2263.91 105.509 2264.96C105.509 2266.02 106.362 2266.87 107.414 2266.87Z" fill="white" stroke="white" stroke-width="3.19023"/>
<path d="M0.875 1H53.5524C70.121 1 83.5524 14.4315 83.5524 31V169.395C83.5524 185.964 96.9839 199.395 113.552 199.395H203.875C220.444 199.395 233.875 212.827 233.875 229.395V427" stroke="white" stroke-width="1.1"/>
<path d="M105.914 2206.24L105.914 2109.29C105.915 2092.72 119.346 2079.29 135.914 2079.29L226.237 2079.29C242.806 2079.29 256.237 2065.86 256.237 2049.29L256.237 1851.69" stroke="white" stroke-width="1.1"/>
<path d="M230 562.5V625.25C230 633.672 236.828 640.5 245.25 640.5V640.5C253.672 640.5 260.5 647.328 260.5 655.75V670.5V869.5V882.5C260.5 899.069 247.069 912.5 230.5 912.5H124.5C107.931 912.5 94.5 925.931 94.5 942.5V987" stroke="white"/>
<path d="M231.1 157.92C237.876 157.92 244.585 159.254 250.845 161.847C257.105 164.44 262.793 168.24 267.584 173.031C272.375 177.822 276.175 183.51 278.768 189.77C281.361 196.03 282.695 202.739 282.695 209.515C282.695 216.29 281.361 222.999 278.768 229.259C276.175 235.519 272.375 241.207 267.584 245.998C262.793 250.789 257.105 254.589 250.845 257.182C244.585 259.775 237.876 261.109 231.1 261.109L231.1 209.515L231.1 157.92Z" fill="#E79034"/>
<mask id="path-16-inside-1_2313_322287" fill="white">
<path d="M228.09 161.923C234.471 161.923 240.79 163.18 246.685 165.622C252.58 168.063 257.936 171.642 262.448 176.154C266.96 180.666 270.539 186.023 272.981 191.918C275.423 197.813 276.68 204.131 276.68 210.512C276.68 216.893 275.423 223.211 272.981 229.107C270.539 235.002 266.96 240.358 262.448 244.87C257.936 249.382 252.58 252.961 246.685 255.403C240.79 257.845 234.471 259.102 228.09 259.102L228.09 210.512L228.09 161.923Z"/>
</mask>
<path d="M228.09 161.923C234.471 161.923 240.79 163.18 246.685 165.622C252.58 168.063 257.936 171.642 262.448 176.154C266.96 180.666 270.539 186.023 272.981 191.918C275.423 197.813 276.68 204.131 276.68 210.512C276.68 216.893 275.423 223.211 272.981 229.107C270.539 235.002 266.96 240.358 262.448 244.87C257.936 249.382 252.58 252.961 246.685 255.403C240.79 257.845 234.471 259.102 228.09 259.102L228.09 210.512L228.09 161.923Z" stroke="white" stroke-width="2.00368" mask="url(#path-16-inside-1_2313_322287)"/>
<circle cx="28.5525" cy="28.5525" r="28.5525" transform="matrix(4.37114e-08 1 1 -4.37114e-08 207.555 180.961)" fill="#5C2860"/>
<path d="M306.596 1788.6C306.596 1795.37 305.261 1802.08 302.669 1808.34C300.076 1814.6 296.275 1820.29 291.484 1825.08C286.693 1829.87 281.005 1833.67 274.746 1836.26C268.486 1838.86 261.777 1840.19 255.001 1840.19C248.226 1840.19 241.516 1838.86 235.257 1836.26C228.997 1833.67 223.309 1829.87 218.518 1825.08C213.727 1820.29 209.927 1814.6 207.334 1808.34C204.741 1802.08 203.406 1795.37 203.406 1788.6L255.001 1788.6L306.596 1788.6Z" fill="#E79034"/>
<mask id="path-19-inside-2_2313_322287" fill="white">
<path d="M302.585 1785.59C302.585 1791.97 301.328 1798.29 298.886 1804.18C296.444 1810.08 292.865 1815.44 288.353 1819.95C283.841 1824.46 278.485 1828.04 272.59 1830.48C266.695 1832.92 260.376 1834.18 253.996 1834.18C247.615 1834.18 241.296 1832.92 235.401 1830.48C229.506 1828.04 224.15 1824.46 219.638 1819.95C215.126 1815.44 211.547 1810.08 209.105 1804.18C206.663 1798.29 205.406 1791.97 205.406 1785.59L253.996 1785.59L302.585 1785.59Z"/>
</mask>
<path d="M302.585 1785.59C302.585 1791.97 301.328 1798.29 298.886 1804.18C296.444 1810.08 292.865 1815.44 288.353 1819.95C283.841 1824.46 278.485 1828.04 272.59 1830.48C266.695 1832.92 260.376 1834.18 253.996 1834.18C247.615 1834.18 241.296 1832.92 235.401 1830.48C229.506 1828.04 224.15 1824.46 219.638 1819.95C215.126 1815.44 211.547 1810.08 209.105 1804.18C206.663 1798.29 205.406 1791.97 205.406 1785.59L253.996 1785.59L302.585 1785.59Z" stroke="white" stroke-width="2.00368" mask="url(#path-19-inside-2_2313_322287)"/>
<circle cx="28.5525" cy="28.5525" r="28.5525" transform="matrix(-1 0 0 1 283.555 1765.05)" fill="#5C2860"/>
<path d="M94 1111.5V1285.5C94 1301.24 106.76 1314 122.5 1314V1314C138.24 1314 151 1326.76 151 1342.5V1428V1550C151 1566.57 164.431 1580 181 1580H229C245.569 1580 259 1593.43 259 1610V1641.5" stroke="white"/>
<circle cx="42.2615" cy="42.2615" r="42.2615" transform="matrix(-1 0 0 1 188.492 1381)" fill="#EBBE52"/>
<circle cx="39.2784" cy="39.2784" r="38.7812" transform="matrix(-1 0 0 1 176.562 1383.98)" stroke="white" stroke-width="0.994389"/>
</svg>
