<svg width="89" height="85" viewBox="0 0 89 85" fill="none" xmlns="http://www.w3.org/2000/svg">
<path d="M88.1816 5.58203H76.3609C56.3254 5.58203 40.0834 21.824 40.0834 41.8595V78.137H51.9042C71.9397 78.137 88.1816 61.895 88.1816 41.8595V5.58203Z" fill="#4AA35C"/>
<path d="M84.277 0.556951H73.0379C53.3518 0.556951 37.3931 16.5157 37.3931 36.2018V71.8466H48.6322C68.3183 71.8466 84.277 55.8879 84.277 36.2018V0.556951Z" stroke="white" stroke-width="1.1139"/>
<path d="M4.21289 5.58203H16.0337C36.0691 5.58203 52.3111 21.824 52.3111 41.8595V78.137H40.4903C20.4549 78.137 4.21289 61.895 4.21289 41.8595V5.58203Z" fill="#EBBE52"/>
<path d="M4.21289 5.58203H16.0337C36.0691 5.58203 52.3111 21.824 52.3111 41.8595V78.137H40.4903C20.4549 78.137 4.21289 61.895 4.21289 41.8595V5.58203Z" fill="#EBBE52"/>
<path d="M0.618452 16.2435H5.56606C27.426 16.2435 45.147 33.9644 45.147 55.8243V84.2731H40.1994C18.3394 84.2731 0.618452 66.5522 0.618452 44.6922V16.2435Z" stroke="white" stroke-width="1.2369"/>
</svg>
