<svg width="1440" height="219" viewBox="0 0 1440 219" fill="none" xmlns="http://www.w3.org/2000/svg">
<rect width="1440" height="136" fill="#111111"/>
<path d="M505.837 93.9304V81.0137H516.17V93.9304C516.17 95.3512 517.332 96.5137 518.753 96.5137H526.503C527.924 96.5137 529.087 95.3512 529.087 93.9304V75.847H533.478C534.667 75.847 535.235 74.3745 534.331 73.5995L512.734 54.147C511.752 53.2687 510.254 53.2687 509.272 54.147L487.676 73.5995C486.797 74.3745 487.34 75.847 488.528 75.847H492.92V93.9304C492.92 95.3512 494.082 96.5137 495.503 96.5137H503.253C504.674 96.5137 505.837 95.3512 505.837 93.9304Z" fill="white"/>
</svg>
