<svg width="1440" height="500" viewBox="0 0 1440 500" fill="none" xmlns="http://www.w3.org/2000/svg">
<rect x="-1" width="1455.75" height="500" fill="#5C2860"/>
<line opacity="0.15" x1="110.164" y1="-2.16343e-08" x2="110.164" y2="500" stroke="white" stroke-dasharray="19 19"/>
<line opacity="0.15" x1="221.289" y1="-2.16343e-08" x2="221.289" y2="500" stroke="white" stroke-dasharray="19 19"/>
<line opacity="0.15" x1="332.414" y1="-2.16343e-08" x2="332.414" y2="500" stroke="white" stroke-dasharray="19 19"/>
<line opacity="0.15" x1="443.539" y1="-2.16343e-08" x2="443.539" y2="500" stroke="white" stroke-dasharray="19 19"/>
<line opacity="0.15" x1="554.672" y1="-2.16343e-08" x2="554.672" y2="500" stroke="white" stroke-dasharray="19 19"/>
<line opacity="0.15" x1="665.797" y1="-2.16343e-08" x2="665.797" y2="500" stroke="white" stroke-dasharray="19 19"/>
<line opacity="0.15" x1="776.922" y1="-2.16343e-08" x2="776.922" y2="500" stroke="white" stroke-dasharray="19 19"/>
<line opacity="0.15" x1="888.047" y1="-2.16343e-08" x2="888.047" y2="500" stroke="white" stroke-dasharray="19 19"/>
<line opacity="0.15" x1="999.172" y1="-2.16343e-08" x2="999.172" y2="500" stroke="white" stroke-dasharray="19 19"/>
<line opacity="0.15" x1="1110.3" y1="-2.16343e-08" x2="1110.3" y2="500" stroke="white" stroke-dasharray="19 19"/>
<line opacity="0.15" x1="1221.42" y1="-2.16343e-08" x2="1221.42" y2="500" stroke="white" stroke-dasharray="19 19"/>
<line opacity="0.15" x1="1332.55" y1="-2.16343e-08" x2="1332.55" y2="500" stroke="white" stroke-dasharray="19 19"/>
<line opacity="0.15" x1="1454.29" y1="109.5" x2="-0.448486" y2="109.5" stroke="white" stroke-dasharray="19 19"/>
<line opacity="0.15" x1="1454.29" y1="218.5" x2="-0.448486" y2="218.5" stroke="white" stroke-dasharray="19 19"/>
<line opacity="0.15" x1="1454.29" y1="327.5" x2="-0.448486" y2="327.5" stroke="white" stroke-dasharray="19 19"/>
<line opacity="0.15" x1="1454.29" y1="436.5" x2="-0.448486" y2="436.5" stroke="white" stroke-dasharray="19 19"/>
<path d="M1147.06 362.883C1149.33 371.272 1149.91 380.022 1148.77 388.633C1147.62 397.243 1144.77 405.547 1140.39 413.068C1136 420.59 1130.16 427.182 1123.2 432.469C1116.24 437.757 1108.29 441.635 1099.82 443.883C1091.34 446.131 1082.5 446.704 1073.8 445.57C1065.11 444.437 1056.72 441.618 1049.12 437.276C1041.52 432.933 1034.86 427.152 1029.52 420.261C1024.18 413.371 1020.26 405.506 1017.99 397.117L1082.53 380L1147.06 362.883Z" fill="white"/>
<mask id="path-19-inside-1_2759_341518" fill="white">
<path d="M1151.1 375.883C1153.37 384.272 1153.95 393.022 1152.81 401.633C1151.66 410.243 1148.81 418.547 1144.43 426.068C1140.04 433.59 1134.2 440.182 1127.24 445.469C1120.28 450.757 1112.33 454.635 1103.86 456.883C1095.38 459.131 1086.54 459.704 1077.84 458.57C1069.14 457.437 1060.76 454.618 1053.16 450.276C1045.56 445.933 1038.9 440.152 1033.56 433.261C1028.22 426.371 1024.3 418.506 1022.03 410.117L1086.56 393L1151.1 375.883Z"/>
</mask>
<path d="M1151.1 375.883C1153.37 384.272 1153.95 393.022 1152.81 401.633C1151.66 410.243 1148.81 418.547 1144.43 426.068C1140.04 433.59 1134.2 440.182 1127.24 445.469C1120.28 450.757 1112.33 454.635 1103.86 456.883C1095.38 459.131 1086.54 459.704 1077.84 458.57C1069.14 457.437 1060.76 454.618 1053.16 450.276C1045.56 445.933 1038.9 440.152 1033.56 433.261C1028.22 426.371 1024.3 418.506 1022.03 410.117L1086.56 393L1151.1 375.883Z" stroke="white" stroke-width="2" mask="url(#path-19-inside-1_2759_341518)"/>
<ellipse cx="36.9493" cy="36.6249" rx="36.9493" ry="36.6249" transform="matrix(-0.966579 0.25637 0.261288 0.965261 1110.34 341.375)" fill="#4AA35C"/>
<path d="M1041.05 389.17C1046.27 408.424 1066.26 419.857 1085.72 414.695C1105.19 409.533 1116.73 389.735 1111.52 370.481C1106.3 351.227 1086.31 339.793 1066.85 344.955C1047.38 350.117 1035.84 369.916 1041.05 389.17Z" stroke="white"/>
<path d="M142.931 134.736L92.6018 195.191L169.337 208.584L142.931 134.736Z" fill="#4AA35C"/>
<path d="M177.373 215.944L151.551 143.729L102.335 202.846L177.373 215.944Z" stroke="white"/>
<ellipse cx="1429.03" cy="190" rx="95.9723" ry="95" fill="#EBBE52"/>
<path d="M1499.25 203C1499.25 252.977 1458.32 293.5 1407.81 293.5C1357.31 293.5 1316.38 252.977 1316.38 203C1316.38 153.023 1357.31 112.5 1407.81 112.5C1458.32 112.5 1499.25 153.023 1499.25 203Z" stroke="white"/>
</svg>
